<?xml version="1.0" encoding="utf-8"?>
<!-- Generator: Adobe Illustrator 22.1.0, SVG Export Plug-In . SVG Version: 6.00 Build 0)  -->
<svg version="1.1" xmlns="http://www.w3.org/2000/svg" xmlns:xlink="http://www.w3.org/1999/xlink" x="0px" y="0px"
	 viewBox="0 0 400 100" style="enable-background:new 0 0 400 100;" xml:space="preserve">
<style type="text/css">
	.st0{display:none;}
	.st1{fill:#000000;}
	.st2{fill:#0057ff;}
</style>
<g id="Layer_2" class="st0">
	
		<image style="display:inline;overflow:visible;" width="228" height="60" xlink:href="AE7ACA34.jpg"  transform="matrix(1.7544 0 0 1.7544 0 -2.6316)">
	</image>
</g>
<g id="Layer_1">
	<g>
		<g>
			<path class="st1" d="M215.7,29.3l-14.8,27.8v13.1h-10.6V57.4l-15-28.1h10.6l9.7,17.5l9.5-17.5H215.7z"/>
			<path class="st1" d="M294,70.2l-5.9-11.3h-0.2h-7.7v11.3h-10.6V29.3h18.3c5.4,0,9.6,1.3,12.6,3.7c3,2.5,4.4,6,4.4,10.5
				c0,3.1-0.6,5.7-1.9,8s-3.1,3.9-5.4,5.2l8.5,13.4H294z M280.1,50.4h7.8c2.2,0,3.8-0.6,5-1.7s1.8-2.7,1.8-4.7c0-2-0.6-3.5-1.8-4.5
				c-1.2-1.1-2.9-1.6-5-1.6h-7.8V50.4z"/>
			<path class="st1" d="M312.1,29.3h35.1v8.9H335v32.1h-10.6V38.2h-12.1L312.1,29.3L312.1,29.3z"/>
			<path class="st1" d="M367.9,59.5c1.5,1.6,3.4,2.4,5.8,2.4c2.3,0,4.1-0.8,5.6-2.3c1.4-1.6,2.2-3.6,2.2-6.2V29.3H392v24
				c0,3.5-0.8,6.6-2.3,9.3c-1.5,2.7-3.6,4.7-6.4,6.1c-2.8,1.5-6,2.2-9.8,2.2s-7-0.7-9.9-2.2c-2.9-1.5-5-3.4-6.5-6.1
				c-1.6-2.7-2.3-5.7-2.3-9.3v-24h10.6v24C365.6,55.9,366.3,58,367.9,59.5z"/>
			<polygon class="st1" points="244.5,29.3 233.6,29.3 216,70.2 227,70.2 229.9,63 233,54.8 238.7,40.2 244.3,54.8 247.5,63 
				250.2,70.2 261.7,70.2 			"/>
		</g>
		<g>
			<path class="st2" d="M106.9,48.9v-9.7c0.1-0.6,0.1-1.1-0.1-1.7c-0.4-1-1.3-1.7-2.4-1.9l-28.9-5.2l-3.3,3.8l29.1,5.3L70.3,76.2
				c-0.1,0.1-0.3,0.1-0.4,0.2l-56.2-9.9l31.1-36.6c0.1-0.1,0.3-0.1,0.4-0.2L58.3,32l3.3-3.9l-15.8-2.7c-1.6-0.3-3.3,0.4-4.3,1.6
				L8.8,65.5c-0.6,0.8-0.9,1.7-0.8,2.5l0,0v9.3c0,1.9,1.4,3.5,3.3,3.8l58.6,10.2c0.2,0,0.5,0.1,0.7,0.1c1.4,0,2.9-0.6,3.6-1.7
				l31.2-36.8C106.3,51.9,106.9,50.2,106.9,48.9z"/>
			<path class="st2" d="M147.7,21.2V21l0,0c0-0.1,0-0.2-0.1-0.3c-0.4-1-1.3-1.7-2.4-1.9L86.7,8.7c-1.6-0.3-3.3,0.4-4.3,1.6
				L49.7,48.7c-0.7,0.8-0.9,1.8-0.7,2.7v9c0,1.9,1.4,3.5,3.3,3.8l20.5,3.5l0,0h0.1l10.9-12.8l0,0l0,0l-29.4-5.1L85.6,13
				c0.1-0.1,0.3-0.1,0.4-0.2l56.2,9.9l-31.1,36.6c-0.1,0.1-0.3,0.1-0.4,0.2l-4.9-0.9l0,0l-0.9-0.2l-11.2,13l17,2.8
				c0.2,0,0.5,0.1,0.7,0.1c1.4,0,2.9-0.6,3.6-1.7l31.1-36.8c0.9-1,1.5-2.7,1.5-3.9v-9.7C147.8,21.9,147.8,21.6,147.7,21.2z"/>
		</g>
	</g>
</g>
</svg>
