<?xml version="1.0" standalone="no"?>
<!DOCTYPE svg PUBLIC "-//W3C//DTD SVG 1.1//EN" "http://www.w3.org/Graphics/SVG/1.1/DTD/svg11.dtd" >
<svg xmlns="http://www.w3.org/2000/svg">
<defs>
  <font id="yartu-icons" horiz-adv-x="956.25">
    <font-face font-family="yartu-icons"
      units-per-em="900" ascent="900"
      descent="0" />
    <missing-glyph horiz-adv-x="0" />
    <glyph glyph-name="add-contact"
      unicode="&#xF101;"
      horiz-adv-x="900" d="M405.0009 585C424.8801 585 441.0009 568.88208 441.0009 549V477H513.0009C532.8801 477 549.0009 460.8828 549.0009 441C549.0009 421.1172 532.8801 405 513.0009 405H441.0009V333C441.0009 313.1172000000001 424.8801 297 405.0009 297C385.1181000000001 297 369.0009 313.1172000000001 369.0009 333V405H296.9991C277.11702 405 260.9991 421.1172 260.9991 441C260.9991 460.8828 277.11702 477 296.9991 477H369.0009V549C369.0009 568.88208 385.1181000000001 585 405.0009 585zM738.0009 594V306H774.0009C793.8801 306 810.0009 289.8828 810.0009 270C810.0009 250.1172000000001 793.8801 234 774.0009 234H736.8849C728.0288999999999 162.9648000000001 667.4336999999999 108 593.9973 108H233.9991C154.47006 108 89.9991 172.4724 89.9991 252V648C89.9991 727.52904 154.47006 792 233.9991 792H594.0009C667.4336999999999 792 728.0288999999999 737.03376 736.8849 666H774.0009C793.8801 666 810.0009 649.88208 810.0009 630C810.0009 610.11756 793.8801 594 774.0009 594H738.0009zM663.7293 666H648.0009C628.1181 666 612.0009 649.88208 612.0009 630C612.0009 610.11792 628.1181 594 648.0009 594H666.0009L665.9973 306H648.0009C628.1181 306 612.0009 289.8828 612.0009 270C612.0009 250.1172000000001 628.1181 234 648.0009 234H663.7293C655.7373 202.9464000000001 627.5492999999999 180 593.9973 180H233.9991C194.23458 180 161.9991 212.2343999999999 161.9991 252L161.9991 648C161.9991 687.76452 194.23458 720 233.9991 720L594.0009 720C627.5492999999999 720 655.7373 697.05396 663.7293 666z" />
    <glyph glyph-name="add-contact-1"
      unicode="&#x61;&#x64;&#x64;&#x2D;&#x63;&#x6F;&#x6E;&#x74;&#x61;&#x63;&#x74;"
      horiz-adv-x="900" d="M405.0009 585C424.8801 585 441.0009 568.88208 441.0009 549V477H513.0009C532.8801 477 549.0009 460.8828 549.0009 441C549.0009 421.1172 532.8801 405 513.0009 405H441.0009V333C441.0009 313.1172000000001 424.8801 297 405.0009 297C385.1181000000001 297 369.0009 313.1172000000001 369.0009 333V405H296.9991C277.11702 405 260.9991 421.1172 260.9991 441C260.9991 460.8828 277.11702 477 296.9991 477H369.0009V549C369.0009 568.88208 385.1181000000001 585 405.0009 585zM738.0009 594V306H774.0009C793.8801 306 810.0009 289.8828 810.0009 270C810.0009 250.1172000000001 793.8801 234 774.0009 234H736.8849C728.0288999999999 162.9648000000001 667.4336999999999 108 593.9973 108H233.9991C154.47006 108 89.9991 172.4724 89.9991 252V648C89.9991 727.52904 154.47006 792 233.9991 792H594.0009C667.4336999999999 792 728.0288999999999 737.03376 736.8849 666H774.0009C793.8801 666 810.0009 649.88208 810.0009 630C810.0009 610.11756 793.8801 594 774.0009 594H738.0009zM663.7293 666H648.0009C628.1181 666 612.0009 649.88208 612.0009 630C612.0009 610.11792 628.1181 594 648.0009 594H666.0009L665.9973 306H648.0009C628.1181 306 612.0009 289.8828 612.0009 270C612.0009 250.1172000000001 628.1181 234 648.0009 234H663.7293C655.7373 202.9464000000001 627.5492999999999 180 593.9973 180H233.9991C194.23458 180 161.9991 212.2343999999999 161.9991 252L161.9991 648C161.9991 687.76452 194.23458 720 233.9991 720L594.0009 720C627.5492999999999 720 655.7373 697.05396 663.7293 666z" />
    <glyph glyph-name="add-reaction"
      unicode="&#xF102;"
      horiz-adv-x="900" d="M161.99964 432C161.99964 591.05808 290.94156 720 450.00036 720C460.84356 720 471.5355599999999 719.4024 482.04396 718.24068C501.80436 716.05584 519.59556 730.3053600000001 521.78076 750.0672C523.96596 769.82904 509.71716 787.61988 489.95676 789.80472C476.8239599999999 791.25624 463.49316 792 450.00036 792C251.17704 792 89.99964 630.8226 89.99964 432C89.99964 233.1792000000001 251.17704 72 450.00036 72C648.82116 72 810.00036 233.1792000000001 810.00036 432C810.00036 445.4928 809.2551599999999 458.8236000000001 807.80436 471.9564C805.61916 491.7168 787.82796 505.96668 768.06756 503.7804C748.3035600000001 501.5988 734.05476 483.8076 736.23996 464.0436C737.40276 453.5352 738.00036 442.8432 738.00036 432C738.00036 272.9412000000001 609.0591599999999 144 450.00036 144C290.94156 144 161.99964 272.9412000000001 161.99964 432zM385.20756 486C385.20756 456.1776 361.02996 432 331.2068400000001 432C301.38336 432 277.2068400000001 456.1776 277.2068400000001 486C277.2068400000001 515.82348 301.38336 540 331.2068400000001 540C361.02996 540 385.20756 515.82348 385.20756 486zM622.79316 486C622.79316 456.1776 598.61556 432 568.79316 432C538.9707599999999 432 514.7931600000001 456.1776 514.7931600000001 486C514.7931600000001 515.82348 538.9707599999999 540 568.79316 540C598.61556 540 622.79316 515.82348 622.79316 486zM323.99136 360C318.01824 360 312.4346400000001 357.0372 309.08592 352.0908C305.7375600000001 347.1444 305.07336 340.83 307.2916800000001 335.2824L307.3078800000001 335.2428L307.35108 335.1348000000001L307.47852 334.8252L307.90152 333.8316C308.25828 333.0072 308.76696 331.8696 309.43224 330.4584C310.76172 327.6360000000001 312.7248 323.7192 315.36216 319.0644C320.61672 309.7908 328.6602000000001 297.4068 339.8619600000001 284.9580000000001C362.29068 260.0387999999999 398.29716 234 449.98956 234C501.68556 234 537.6927599999999 260.0387999999999 560.12076 284.9580000000001C571.3239599999999 297.4068 579.36636 309.7908 584.61876 319.0644C587.25756 323.7192 589.21956 327.6360000000001 590.55156 330.4584C591.2139599999999 331.8696 591.72516 333.0072 592.08156 333.8316L592.5027599999999 334.8252L592.63236 335.1348000000001L592.67556 335.2428L592.70436 335.3148C594.92196 340.8624 594.2451599999999 347.1444 590.89716 352.0908C587.5491599999999 357.0372 581.96556 360 575.98956 360H323.99136zM323.99136 342C307.27872 335.3148 307.2884400000001 335.2896 307.2916800000001 335.2824L323.99136 342zM558.00036 666C558.00036 685.88208 574.11756 702 594.00036 702H648.00036V756C648.00036 775.88208 664.1175599999999 792 684.00036 792C703.88316 792 720.00036 775.88208 720.00036 756V702H774.00036C793.88316 702 810.00036 685.88208 810.00036 666C810.00036 646.11792 793.88316 630 774.00036 630H720.00036V576C720.00036 556.11792 703.88316 540 684.00036 540C664.1175599999999 540 648.00036 556.11792 648.00036 576V630H594.00036C574.11756 630 558.00036 646.11792 558.00036 666z" />
    <glyph glyph-name="add-reaction-1"
      unicode="&#x61;&#x64;&#x64;&#x2D;&#x72;&#x65;&#x61;&#x63;&#x74;&#x69;&#x6F;&#x6E;"
      horiz-adv-x="900" d="M161.99964 432C161.99964 591.05808 290.94156 720 450.00036 720C460.84356 720 471.5355599999999 719.4024 482.04396 718.24068C501.80436 716.05584 519.59556 730.3053600000001 521.78076 750.0672C523.96596 769.82904 509.71716 787.61988 489.95676 789.80472C476.8239599999999 791.25624 463.49316 792 450.00036 792C251.17704 792 89.99964 630.8226 89.99964 432C89.99964 233.1792000000001 251.17704 72 450.00036 72C648.82116 72 810.00036 233.1792000000001 810.00036 432C810.00036 445.4928 809.2551599999999 458.8236000000001 807.80436 471.9564C805.61916 491.7168 787.82796 505.96668 768.06756 503.7804C748.3035600000001 501.5988 734.05476 483.8076 736.23996 464.0436C737.40276 453.5352 738.00036 442.8432 738.00036 432C738.00036 272.9412000000001 609.0591599999999 144 450.00036 144C290.94156 144 161.99964 272.9412000000001 161.99964 432zM385.20756 486C385.20756 456.1776 361.02996 432 331.2068400000001 432C301.38336 432 277.2068400000001 456.1776 277.2068400000001 486C277.2068400000001 515.82348 301.38336 540 331.2068400000001 540C361.02996 540 385.20756 515.82348 385.20756 486zM622.79316 486C622.79316 456.1776 598.61556 432 568.79316 432C538.9707599999999 432 514.7931600000001 456.1776 514.7931600000001 486C514.7931600000001 515.82348 538.9707599999999 540 568.79316 540C598.61556 540 622.79316 515.82348 622.79316 486zM323.99136 360C318.01824 360 312.4346400000001 357.0372 309.08592 352.0908C305.7375600000001 347.1444 305.07336 340.83 307.2916800000001 335.2824L307.3078800000001 335.2428L307.35108 335.1348000000001L307.47852 334.8252L307.90152 333.8316C308.25828 333.0072 308.76696 331.8696 309.43224 330.4584C310.76172 327.6360000000001 312.7248 323.7192 315.36216 319.0644C320.61672 309.7908 328.6602000000001 297.4068 339.8619600000001 284.9580000000001C362.29068 260.0387999999999 398.29716 234 449.98956 234C501.68556 234 537.6927599999999 260.0387999999999 560.12076 284.9580000000001C571.3239599999999 297.4068 579.36636 309.7908 584.61876 319.0644C587.25756 323.7192 589.21956 327.6360000000001 590.55156 330.4584C591.2139599999999 331.8696 591.72516 333.0072 592.08156 333.8316L592.5027599999999 334.8252L592.63236 335.1348000000001L592.67556 335.2428L592.70436 335.3148C594.92196 340.8624 594.2451599999999 347.1444 590.89716 352.0908C587.5491599999999 357.0372 581.96556 360 575.98956 360H323.99136zM323.99136 342C307.27872 335.3148 307.2884400000001 335.2896 307.2916800000001 335.2824L323.99136 342zM558.00036 666C558.00036 685.88208 574.11756 702 594.00036 702H648.00036V756C648.00036 775.88208 664.1175599999999 792 684.00036 792C703.88316 792 720.00036 775.88208 720.00036 756V702H774.00036C793.88316 702 810.00036 685.88208 810.00036 666C810.00036 646.11792 793.88316 630 774.00036 630H720.00036V576C720.00036 556.11792 703.88316 540 684.00036 540C664.1175599999999 540 648.00036 556.11792 648.00036 576V630H594.00036C574.11756 630 558.00036 646.11792 558.00036 666z" />
    <glyph glyph-name="add-user"
      unicode="&#xF103;"
      horiz-adv-x="900" d="M341.1572673765893 756C250.7382273765893 756 179.1576273765893 680.89572 179.1576273765893 590.4000000000001V525.5999999999999C179.1576273765893 479.8008 197.4920673765893 437.9436 227.3238273765893 407.7684C206.4801873765893 397.9224 187.3803873765893 385.1316 170.4128673765893 369.4968C125.9305473765893 328.5072 98.7134673765893 270.396 91.2618273765893 201.6288C86.5271073765893 157.9356 122.6001873765893 125.7912 161.1572673765893 125.7912H521.1579873765893C559.7139873765893 125.7912 595.7895873765892 157.9356 591.0519873765893 201.6288C583.5999873765893 270.396 556.3839873765894 328.5072 511.9023873765893 369.4968C494.9355873765893 385.1316 475.8339873765893 397.9224 454.9899873765893 407.7684C484.8231873765893 437.9436 503.1579873765893 479.8008 503.1579873765893 525.5999999999999V590.4000000000001C503.1579873765893 680.89572 431.5755873765894 756 341.1572673765893 756zM341.1572673765893 432C389.9127873765893 432 431.1579873765894 472.9428 431.1579873765894 525.5999999999999V590.4000000000001C431.1579873765894 643.05648 389.9127873765893 684 341.1572673765893 684C292.4010273765893 684 251.1572673765893 643.05648 251.1572673765893 590.4000000000001V525.5999999999999C251.1572673765893 472.9428 292.4010273765893 432 341.1572673765893 432zM341.1572673765893 360C289.9613073765894 360 248.8345473765893 343.8503999999999 219.2025873765893 316.548C190.2164673765893 289.836 169.7357073765893 250.1388 163.2956673765893 197.7912H519.0195873765894C512.5791873765893 250.1388 492.0987873765893 289.836 463.1115873765893 316.548C433.4799873765893 343.8503999999999 392.3535873765893 360 341.1572673765893 360zM647.1579873765893 414C647.1579873765893 394.1172 663.2751873765894 378 683.1579873765893 378C703.0407873765894 378 719.1579873765893 394.1172 719.1579873765893 414V468H773.1579873765893C793.0407873765894 468 809.1579873765893 484.1172 809.1579873765893 504C809.1579873765893 523.88208 793.0407873765894 540 773.1579873765893 540H719.1579873765893V594C719.1579873765893 613.88208 703.0407873765894 630 683.1579873765893 630C663.2751873765894 630 647.1579873765893 613.88208 647.1579873765893 594V540H593.1579873765893C573.2751873765894 540 557.1579873765893 523.88244 557.1579873765893 504C557.1579873765893 484.1172 573.2751873765894 468 593.1579873765893 468H647.1579873765893V414z" />
    <glyph glyph-name="add-user-1"
      unicode="&#x61;&#x64;&#x64;&#x2D;&#x75;&#x73;&#x65;&#x72;"
      horiz-adv-x="900" d="M341.1572673765893 756C250.7382273765893 756 179.1576273765893 680.89572 179.1576273765893 590.4000000000001V525.5999999999999C179.1576273765893 479.8008 197.4920673765893 437.9436 227.3238273765893 407.7684C206.4801873765893 397.9224 187.3803873765893 385.1316 170.4128673765893 369.4968C125.9305473765893 328.5072 98.7134673765893 270.396 91.2618273765893 201.6288C86.5271073765893 157.9356 122.6001873765893 125.7912 161.1572673765893 125.7912H521.1579873765893C559.7139873765893 125.7912 595.7895873765892 157.9356 591.0519873765893 201.6288C583.5999873765893 270.396 556.3839873765894 328.5072 511.9023873765893 369.4968C494.9355873765893 385.1316 475.8339873765893 397.9224 454.9899873765893 407.7684C484.8231873765893 437.9436 503.1579873765893 479.8008 503.1579873765893 525.5999999999999V590.4000000000001C503.1579873765893 680.89572 431.5755873765894 756 341.1572673765893 756zM341.1572673765893 432C389.9127873765893 432 431.1579873765894 472.9428 431.1579873765894 525.5999999999999V590.4000000000001C431.1579873765894 643.05648 389.9127873765893 684 341.1572673765893 684C292.4010273765893 684 251.1572673765893 643.05648 251.1572673765893 590.4000000000001V525.5999999999999C251.1572673765893 472.9428 292.4010273765893 432 341.1572673765893 432zM341.1572673765893 360C289.9613073765894 360 248.8345473765893 343.8503999999999 219.2025873765893 316.548C190.2164673765893 289.836 169.7357073765893 250.1388 163.2956673765893 197.7912H519.0195873765894C512.5791873765893 250.1388 492.0987873765893 289.836 463.1115873765893 316.548C433.4799873765893 343.8503999999999 392.3535873765893 360 341.1572673765893 360zM647.1579873765893 414C647.1579873765893 394.1172 663.2751873765894 378 683.1579873765893 378C703.0407873765894 378 719.1579873765893 394.1172 719.1579873765893 414V468H773.1579873765893C793.0407873765894 468 809.1579873765893 484.1172 809.1579873765893 504C809.1579873765893 523.88208 793.0407873765894 540 773.1579873765893 540H719.1579873765893V594C719.1579873765893 613.88208 703.0407873765894 630 683.1579873765893 630C663.2751873765894 630 647.1579873765893 613.88208 647.1579873765893 594V540H593.1579873765893C573.2751873765894 540 557.1579873765893 523.88244 557.1579873765893 504C557.1579873765893 484.1172 573.2751873765894 468 593.1579873765893 468H647.1579873765893V414z" />
    <glyph glyph-name="add"
      unicode="&#xF104;"
      horiz-adv-x="900" d="M450.00028125 749.9266875000001C473.66971875 749.9266875000001 492.8577187500001 730.7386875 492.8577187500001 707.0698125V492.78375L707.1426562500001 492.78375C730.8126562499999 492.78375 749.99953125 473.5963125 749.99953125 449.926875C749.99953125 426.2574375 730.8126562499999 407.0694375 707.1426562500001 407.0694375H492.8577187500001V192.785625C492.8577187500001 169.115625 473.66971875 149.92875 450.00028125 149.92875C426.33084375 149.92875 407.14340625 169.115625 407.14340625 192.785625V407.0694375H192.85734375C169.18790625 407.0694375 150.00046875 426.2574375 150.00046875 449.926875C150.00046875 473.5963125 169.18790625 492.78375 192.85734375 492.78375L407.14340625 492.78375V707.0698125C407.14340625 730.7386875 426.33084375 749.9266875000001 450.00028125 749.9266875000001z" />
    <glyph glyph-name="add-1"
      unicode="&#x61;&#x64;&#x64;"
      horiz-adv-x="900" d="M450.00028125 749.9266875000001C473.66971875 749.9266875000001 492.8577187500001 730.7386875 492.8577187500001 707.0698125V492.78375L707.1426562500001 492.78375C730.8126562499999 492.78375 749.99953125 473.5963125 749.99953125 449.926875C749.99953125 426.2574375 730.8126562499999 407.0694375 707.1426562500001 407.0694375H492.8577187500001V192.785625C492.8577187500001 169.115625 473.66971875 149.92875 450.00028125 149.92875C426.33084375 149.92875 407.14340625 169.115625 407.14340625 192.785625V407.0694375H192.85734375C169.18790625 407.0694375 150.00046875 426.2574375 150.00046875 449.926875C150.00046875 473.5963125 169.18790625 492.78375 192.85734375 492.78375L407.14340625 492.78375V707.0698125C407.14340625 730.7386875 426.33084375 749.9266875000001 450.00028125 749.9266875000001z" />
    <glyph glyph-name="address-book"
      unicode="&#xF105;"
      horiz-adv-x="900" d="M504.0009 432C464.2353000000001 432 432.0009 399.7656 432.0009 360C432.0009 340.1172000000001 415.8801 324 396.0009 324C376.11702 324 359.9991 340.1172000000001 359.9991 360C359.9991 407.106 382.6197 448.9308 417.5901 475.2036000000001C404.0325000000001 493.254 396.0009 515.68812 396.0009 540C396.0009 599.6466 444.3525 648 504.0009 648C563.6457 648 612.0009 599.6466 612.0009 540C612.0009 515.68812 603.9657 493.254 590.4081 475.2036000000001C625.3785 448.9308 648.0009 407.106 648.0009 360C648.0009 340.1172000000001 631.8801 324 612.0009 324C592.1180999999999 324 576.0009 340.1172000000001 576.0009 360C576.0009 399.7656 543.7629 432 504.0009 432zM468.0009 540C468.0009 559.88208 484.1181 576 504.0009 576C523.8801 576 540.0009 559.88208 540.0009 540C540.0009 520.11792 523.8801 504 504.0009 504C484.1181 504 468.0009 520.11792 468.0009 540zM215.9991 792C196.11702 792 179.9991 775.88208 179.9991 756V648H143.9991C124.11702 648 107.9991 631.88208 107.9991 612C107.9991 592.11792 124.11702 576 143.9991 576H179.9991V468H143.9991C124.11702 468 107.9991 451.8828 107.9991 432C107.9991 412.1172 124.11702 396 143.9991 396H179.9991V288H143.9991C124.11702 288 107.9991 271.8828 107.9991 252C107.9991 232.1172000000001 124.11702 216 143.9991 216H179.9991V108C179.9991 88.1172 196.11702 72 215.9991 72H648.0009C727.5284999999999 72 792.0009 136.4724 792.0009 216V648C792.0009 727.52904 727.5284999999999 792 648.0009 792H215.9991zM251.9991 216V144H648.0009C687.7629000000001 144 720.0009 176.2343999999999 720.0009 216V648C720.0009 687.76452 687.7629000000001 720 648.0009 720H251.9991V648C271.88154 648 287.9991 631.88208 287.9991 612C287.9991 592.11792 271.88154 576 251.9991 576V468C271.88154 468 287.9991 451.8828 287.9991 432C287.9991 412.1172 271.88154 396 251.9991 396V288C271.88154 288 287.9991 271.8828 287.9991 252C287.9991 232.1172000000001 271.88154 216 251.9991 216z" />
    <glyph glyph-name="address-book-1"
      unicode="&#x61;&#x64;&#x64;&#x72;&#x65;&#x73;&#x73;&#x2D;&#x62;&#x6F;&#x6F;&#x6B;"
      horiz-adv-x="900" d="M504.0009 432C464.2353000000001 432 432.0009 399.7656 432.0009 360C432.0009 340.1172000000001 415.8801 324 396.0009 324C376.11702 324 359.9991 340.1172000000001 359.9991 360C359.9991 407.106 382.6197 448.9308 417.5901 475.2036000000001C404.0325000000001 493.254 396.0009 515.68812 396.0009 540C396.0009 599.6466 444.3525 648 504.0009 648C563.6457 648 612.0009 599.6466 612.0009 540C612.0009 515.68812 603.9657 493.254 590.4081 475.2036000000001C625.3785 448.9308 648.0009 407.106 648.0009 360C648.0009 340.1172000000001 631.8801 324 612.0009 324C592.1180999999999 324 576.0009 340.1172000000001 576.0009 360C576.0009 399.7656 543.7629 432 504.0009 432zM468.0009 540C468.0009 559.88208 484.1181 576 504.0009 576C523.8801 576 540.0009 559.88208 540.0009 540C540.0009 520.11792 523.8801 504 504.0009 504C484.1181 504 468.0009 520.11792 468.0009 540zM215.9991 792C196.11702 792 179.9991 775.88208 179.9991 756V648H143.9991C124.11702 648 107.9991 631.88208 107.9991 612C107.9991 592.11792 124.11702 576 143.9991 576H179.9991V468H143.9991C124.11702 468 107.9991 451.8828 107.9991 432C107.9991 412.1172 124.11702 396 143.9991 396H179.9991V288H143.9991C124.11702 288 107.9991 271.8828 107.9991 252C107.9991 232.1172000000001 124.11702 216 143.9991 216H179.9991V108C179.9991 88.1172 196.11702 72 215.9991 72H648.0009C727.5284999999999 72 792.0009 136.4724 792.0009 216V648C792.0009 727.52904 727.5284999999999 792 648.0009 792H215.9991zM251.9991 216V144H648.0009C687.7629000000001 144 720.0009 176.2343999999999 720.0009 216V648C720.0009 687.76452 687.7629000000001 720 648.0009 720H251.9991V648C271.88154 648 287.9991 631.88208 287.9991 612C287.9991 592.11792 271.88154 576 251.9991 576V468C271.88154 468 287.9991 451.8828 287.9991 432C287.9991 412.1172 271.88154 396 251.9991 396V288C271.88154 288 287.9991 271.8828 287.9991 252C287.9991 232.1172000000001 271.88154 216 251.9991 216z" />
    <glyph glyph-name="address"
      unicode="&#xF106;"
      horiz-adv-x="900" d="M441.0009254106081 612C441.0009254106081 631.88208 457.1181254106081 648 477.0009254106081 648H495.0009254106081C514.8837254106081 648 531.0009254106081 631.88208 531.0009254106081 612C531.0009254106081 592.11792 514.8837254106081 576 495.0009254106081 576H477.0009254106081C457.1181254106081 576 441.0009254106081 592.11792 441.0009254106081 612zM567.0009254106081 612C567.0009254106081 631.88208 583.1181254106081 648 603.0009254106081 648H621.0009254106081C640.8837254106081 648 657.0009254106081 631.88208 657.0009254106081 612C657.0009254106081 592.11792 640.8837254106081 576 621.0009254106081 576H603.0009254106081C583.1181254106081 576 567.0009254106081 592.11792 567.0009254106081 612zM441.0009254106081 486C441.0009254106081 505.88208 457.1181254106081 522 477.0009254106081 522H495.0009254106081C514.8837254106081 522 531.0009254106081 505.88208 531.0009254106081 486C531.0009254106081 466.1172 514.8837254106081 450 495.0009254106081 450H477.0009254106081C457.1181254106081 450 441.0009254106081 466.1172 441.0009254106081 486zM567.0009254106081 486C567.0009254106081 505.88208 583.1181254106081 522 603.0009254106081 522H621.0009254106081C640.8837254106081 522 657.0009254106081 505.88208 657.0009254106081 486C657.0009254106081 466.1172 640.8837254106081 450 621.0009254106081 450H603.0009254106081C583.1181254106081 450 567.0009254106081 466.1172 567.0009254106081 486zM567.0009254106081 360C567.0009254106081 379.8828000000001 583.1181254106081 396 603.0009254106081 396H621.0009254106081C640.8837254106081 396 657.0009254106081 379.8828000000001 657.0009254106081 360C657.0009254106081 340.1172000000001 640.8837254106081 324 621.0009254106081 324H603.0009254106081C583.1181254106081 324 567.0009254106081 340.1172000000001 567.0009254106081 360zM351.0009254106081 774C331.1184854106081 774 315.0009254106081 757.88208 315.0009254106081 738V432C307.1997254106081 432 299.3988854106081 429.4728 292.8990854106081 424.4184L130.8990854106081 298.4184C115.2048854106081 286.2108 112.3774454106081 263.592 124.5839654106081 247.8996C135.7626854106081 233.5247999999999 155.6728454106081 229.9428000000001 171.0009254106081 238.8168000000001V126C171.0009254106081 106.1172 187.1184854106081 90 207.0009254106081 90H747.0009254106081C766.8837254106081 90 783.0009254106081 106.1172 783.0009254106081 126V738C783.0009254106081 757.88208 766.8837254106081 774 747.0009254106081 774H351.0009254106081zM459.0009254106081 162H711.0009254106081V702H387.0009254106081V385.6068L499.101325410608 298.4184C514.7973254106081 286.2108 517.6233254106081 263.592 505.4157254106081 247.8996C494.237725410608 233.5247999999999 474.3297254106081 229.9428000000001 459.0009254106081 238.8168000000001V162zM387.0009254106081 162V294.3936L315.0009254106081 350.3916000000001L243.0009254106081 294.3936V162H387.0009254106081z" />
    <glyph glyph-name="address-1"
      unicode="&#x61;&#x64;&#x64;&#x72;&#x65;&#x73;&#x73;"
      horiz-adv-x="900" d="M441.0009254106081 612C441.0009254106081 631.88208 457.1181254106081 648 477.0009254106081 648H495.0009254106081C514.8837254106081 648 531.0009254106081 631.88208 531.0009254106081 612C531.0009254106081 592.11792 514.8837254106081 576 495.0009254106081 576H477.0009254106081C457.1181254106081 576 441.0009254106081 592.11792 441.0009254106081 612zM567.0009254106081 612C567.0009254106081 631.88208 583.1181254106081 648 603.0009254106081 648H621.0009254106081C640.8837254106081 648 657.0009254106081 631.88208 657.0009254106081 612C657.0009254106081 592.11792 640.8837254106081 576 621.0009254106081 576H603.0009254106081C583.1181254106081 576 567.0009254106081 592.11792 567.0009254106081 612zM441.0009254106081 486C441.0009254106081 505.88208 457.1181254106081 522 477.0009254106081 522H495.0009254106081C514.8837254106081 522 531.0009254106081 505.88208 531.0009254106081 486C531.0009254106081 466.1172 514.8837254106081 450 495.0009254106081 450H477.0009254106081C457.1181254106081 450 441.0009254106081 466.1172 441.0009254106081 486zM567.0009254106081 486C567.0009254106081 505.88208 583.1181254106081 522 603.0009254106081 522H621.0009254106081C640.8837254106081 522 657.0009254106081 505.88208 657.0009254106081 486C657.0009254106081 466.1172 640.8837254106081 450 621.0009254106081 450H603.0009254106081C583.1181254106081 450 567.0009254106081 466.1172 567.0009254106081 486zM567.0009254106081 360C567.0009254106081 379.8828000000001 583.1181254106081 396 603.0009254106081 396H621.0009254106081C640.8837254106081 396 657.0009254106081 379.8828000000001 657.0009254106081 360C657.0009254106081 340.1172000000001 640.8837254106081 324 621.0009254106081 324H603.0009254106081C583.1181254106081 324 567.0009254106081 340.1172000000001 567.0009254106081 360zM351.0009254106081 774C331.1184854106081 774 315.0009254106081 757.88208 315.0009254106081 738V432C307.1997254106081 432 299.3988854106081 429.4728 292.8990854106081 424.4184L130.8990854106081 298.4184C115.2048854106081 286.2108 112.3774454106081 263.592 124.5839654106081 247.8996C135.7626854106081 233.5247999999999 155.6728454106081 229.9428000000001 171.0009254106081 238.8168000000001V126C171.0009254106081 106.1172 187.1184854106081 90 207.0009254106081 90H747.0009254106081C766.8837254106081 90 783.0009254106081 106.1172 783.0009254106081 126V738C783.0009254106081 757.88208 766.8837254106081 774 747.0009254106081 774H351.0009254106081zM459.0009254106081 162H711.0009254106081V702H387.0009254106081V385.6068L499.101325410608 298.4184C514.7973254106081 286.2108 517.6233254106081 263.592 505.4157254106081 247.8996C494.237725410608 233.5247999999999 474.3297254106081 229.9428000000001 459.0009254106081 238.8168000000001V162zM387.0009254106081 162V294.3936L315.0009254106081 350.3916000000001L243.0009254106081 294.3936V162H387.0009254106081z" />
    <glyph glyph-name="alert"
      unicode="&#xF107;"
      horiz-adv-x="900" d="M323.1128535288472 721.71072C377.4242535288471 822.92976 522.5726535288471 822.92976 576.8858535288471 721.71072L792.3710535288471 320.13C843.8438535288471 224.1972 774.3530535288471 108.0432000000001 665.4818535288471 108.0432000000001L234.5168535288471 108.0432000000001C125.6481735288471 108.0432000000001 56.1548535288471 224.1972 107.6298135288471 320.13L323.1128535288472 721.71072zM513.4430535288471 687.66804C486.2882535288471 738.2772 413.7122535288471 738.27756 386.5574535288471 687.66768L171.0733335288471 286.0848C145.3358535288471 238.122 180.0823335288471 180.0432000000001 234.5168535288471 180.0432000000001L665.4818535288471 180.0432000000001C719.9174535288471 180.0432000000001 754.6646535288471 238.122 728.9282535288471 286.0848L513.4430535288471 687.66804zM450.0002535288471 594C469.8830535288471 594 486.0002535288471 577.88208 486.0002535288471 558V396C486.0002535288471 376.1172 469.8830535288471 360 450.0002535288471 360C430.1174535288472 360 414.0002535288471 376.1172 414.0002535288471 396V558C414.0002535288471 577.88208 430.1174535288472 594 450.0002535288471 594zM486.0002535288471 270C486.0002535288471 250.1172000000001 469.8830535288471 234 450.0002535288471 234C430.1174535288472 234 414.0002535288471 250.1172000000001 414.0002535288471 270C414.0002535288471 289.8828 430.1174535288472 306 450.0002535288471 306C469.8830535288471 306 486.0002535288471 289.8828 486.0002535288471 270z" />
    <glyph glyph-name="alert-1"
      unicode="&#x61;&#x6C;&#x65;&#x72;&#x74;"
      horiz-adv-x="900" d="M323.1128535288472 721.71072C377.4242535288471 822.92976 522.5726535288471 822.92976 576.8858535288471 721.71072L792.3710535288471 320.13C843.8438535288471 224.1972 774.3530535288471 108.0432000000001 665.4818535288471 108.0432000000001L234.5168535288471 108.0432000000001C125.6481735288471 108.0432000000001 56.1548535288471 224.1972 107.6298135288471 320.13L323.1128535288472 721.71072zM513.4430535288471 687.66804C486.2882535288471 738.2772 413.7122535288471 738.27756 386.5574535288471 687.66768L171.0733335288471 286.0848C145.3358535288471 238.122 180.0823335288471 180.0432000000001 234.5168535288471 180.0432000000001L665.4818535288471 180.0432000000001C719.9174535288471 180.0432000000001 754.6646535288471 238.122 728.9282535288471 286.0848L513.4430535288471 687.66804zM450.0002535288471 594C469.8830535288471 594 486.0002535288471 577.88208 486.0002535288471 558V396C486.0002535288471 376.1172 469.8830535288471 360 450.0002535288471 360C430.1174535288472 360 414.0002535288471 376.1172 414.0002535288471 396V558C414.0002535288471 577.88208 430.1174535288472 594 450.0002535288471 594zM486.0002535288471 270C486.0002535288471 250.1172000000001 469.8830535288471 234 450.0002535288471 234C430.1174535288472 234 414.0002535288471 250.1172000000001 414.0002535288471 270C414.0002535288471 289.8828 430.1174535288472 306 450.0002535288471 306C469.8830535288471 306 486.0002535288471 289.8828 486.0002535288471 270z" />
    <glyph glyph-name="alignment"
      unicode="&#xF108;"
      horiz-adv-x="900" d="M105.9375 750C85.227 750 68.4375 733.2105 68.4375 712.5C68.4375 691.7895 85.227 675 105.9375 675H780.9375C801.64875 675 818.4375 691.7895 818.4375 712.5C818.4375 733.2105 801.64875 750 780.9375 750H105.9375zM68.4375 543.75C68.4375 564.4604999999999 85.227 581.25 105.9375 581.25H424.6875C445.39875 581.25 462.1875 564.4604999999999 462.1875 543.75C462.1875 523.0387499999999 445.39875 506.25 424.6875 506.25H105.9375C85.227 506.25 68.4375 523.0387499999999 68.4375 543.75zM617.8125 343.125H595.5825000000001C539.98875 343.125 486.5625 389.3625 486.5625 450C486.5625 510.6375 539.98875 556.875 595.5825000000001 556.875H799.6875C817.29 556.875 831.5625 542.604 831.5625 525C831.5625 507.3975 817.29 493.125 799.6875 493.125H775.3125V206.25C775.3125 188.6475 761.04 174.375 743.4375 174.375C725.835 174.375 711.5625 188.6475 711.5625 206.25V493.125H681.5625V206.25C681.5625 188.6475 667.29 174.375 649.6875 174.375C632.085 174.375 617.8125 188.6475 617.8125 206.25V343.125zM550.3125 450C550.3125 472.2075 571.88625 493.125 595.5825000000001 493.125H617.8125V406.875H595.5825000000001C571.88625 406.875 550.3125 427.7925 550.3125 450zM68.4375 206.25C68.4375 226.96125 85.227 243.75 105.9375 243.75H405.9375C426.64875 243.75 443.4375 226.96125 443.4375 206.25C443.4375 185.5387500000001 426.64875 168.75 405.9375 168.75H105.9375C85.227 168.75 68.4375 185.5387500000001 68.4375 206.25zM105.9375 412.5C85.227 412.5 68.4375 395.71125 68.4375 375C68.4375 354.28875 85.227 337.5 105.9375 337.5H405.9375C426.64875 337.5 443.4375 354.28875 443.4375 375C443.4375 395.71125 426.64875 412.5 405.9375 412.5H105.9375z" />
    <glyph glyph-name="alignment-1"
      unicode="&#x61;&#x6C;&#x69;&#x67;&#x6E;&#x6D;&#x65;&#x6E;&#x74;"
      horiz-adv-x="900" d="M105.9375 750C85.227 750 68.4375 733.2105 68.4375 712.5C68.4375 691.7895 85.227 675 105.9375 675H780.9375C801.64875 675 818.4375 691.7895 818.4375 712.5C818.4375 733.2105 801.64875 750 780.9375 750H105.9375zM68.4375 543.75C68.4375 564.4604999999999 85.227 581.25 105.9375 581.25H424.6875C445.39875 581.25 462.1875 564.4604999999999 462.1875 543.75C462.1875 523.0387499999999 445.39875 506.25 424.6875 506.25H105.9375C85.227 506.25 68.4375 523.0387499999999 68.4375 543.75zM617.8125 343.125H595.5825000000001C539.98875 343.125 486.5625 389.3625 486.5625 450C486.5625 510.6375 539.98875 556.875 595.5825000000001 556.875H799.6875C817.29 556.875 831.5625 542.604 831.5625 525C831.5625 507.3975 817.29 493.125 799.6875 493.125H775.3125V206.25C775.3125 188.6475 761.04 174.375 743.4375 174.375C725.835 174.375 711.5625 188.6475 711.5625 206.25V493.125H681.5625V206.25C681.5625 188.6475 667.29 174.375 649.6875 174.375C632.085 174.375 617.8125 188.6475 617.8125 206.25V343.125zM550.3125 450C550.3125 472.2075 571.88625 493.125 595.5825000000001 493.125H617.8125V406.875H595.5825000000001C571.88625 406.875 550.3125 427.7925 550.3125 450zM68.4375 206.25C68.4375 226.96125 85.227 243.75 105.9375 243.75H405.9375C426.64875 243.75 443.4375 226.96125 443.4375 206.25C443.4375 185.5387500000001 426.64875 168.75 405.9375 168.75H105.9375C85.227 168.75 68.4375 185.5387500000001 68.4375 206.25zM105.9375 412.5C85.227 412.5 68.4375 395.71125 68.4375 375C68.4375 354.28875 85.227 337.5 105.9375 337.5H405.9375C426.64875 337.5 443.4375 354.28875 443.4375 375C443.4375 395.71125 426.64875 412.5 405.9375 412.5H105.9375z" />
    <glyph glyph-name="all-repositories"
      unicode="&#xF109;"
      horiz-adv-x="900" d="M137.6220712498578 853.125C87.8354099998578 853.125 46.8749999998578 812.16459 46.8749999998578 762.37792875V668.62792875C46.8742949998578 629.8202887499999 74.8955887498578 602.594595 109.4970712498578 589.89257625V199.877925C109.4970712498578 115.7115750000001 178.3336462498578 46.875 262.4999999998578 46.875H637.4999999998578C721.6663499998577 46.875 790.5029249998578 115.7115750000001 790.5029249998578 199.877925V589.89257625C825.1043999998577 602.594595 853.1257124998579 629.8202887499999 853.1249999998578 668.62792875V762.37792875C853.1249999998578 812.16459 812.1645749998578 853.125 762.3779249998578 853.125zM137.6220712498578 796.875H762.3779249998578C781.7648624998577 796.875 796.8749999998578 781.7648662500001 796.8749999998578 762.37792875V668.62792875C796.8753374998578 649.3611975 781.7908124998578 634.381005 762.5243999998578 634.49707125A28.1278125 28.1278125 0 0 1 762.3781499998578 634.49707125H137.6220712498578A28.1278125 28.1278125 0 0 1 137.4754462498578 634.49707125C118.2092024998578 634.381005 103.1246512498578 649.3611975 103.1249999998578 668.62792875V762.37792875C103.1249999998578 781.7648662500001 118.2351337498578 796.875 137.6220712498578 796.875zM165.7470712498578 578.2470712500001H734.2529249998578V199.877925C734.2529249998578 146.1112875 691.2666374998578 103.125 637.4999999998578 103.125H262.4999999998578C208.7333737498578 103.125 165.7470712498578 146.1112875 165.7470712498578 199.877925zM387.3779249998578 478.125A28.125 28.125 0 0 1 359.2529287498578 450A28.125 28.125 0 0 1 387.3779249998578 421.875H512.6220749998578A28.125 28.125 0 0 1 540.7470749998578 450A28.125 28.125 0 0 1 512.6220749998578 478.125z" />
    <glyph glyph-name="all-repositories-1"
      unicode="&#x61;&#x6C;&#x6C;&#x2D;&#x72;&#x65;&#x70;&#x6F;&#x73;&#x69;&#x74;&#x6F;&#x72;&#x69;&#x65;&#x73;"
      horiz-adv-x="900" d="M137.6220712498578 853.125C87.8354099998578 853.125 46.8749999998578 812.16459 46.8749999998578 762.37792875V668.62792875C46.8742949998578 629.8202887499999 74.8955887498578 602.594595 109.4970712498578 589.89257625V199.877925C109.4970712498578 115.7115750000001 178.3336462498578 46.875 262.4999999998578 46.875H637.4999999998578C721.6663499998577 46.875 790.5029249998578 115.7115750000001 790.5029249998578 199.877925V589.89257625C825.1043999998577 602.594595 853.1257124998579 629.8202887499999 853.1249999998578 668.62792875V762.37792875C853.1249999998578 812.16459 812.1645749998578 853.125 762.3779249998578 853.125zM137.6220712498578 796.875H762.3779249998578C781.7648624998577 796.875 796.8749999998578 781.7648662500001 796.8749999998578 762.37792875V668.62792875C796.8753374998578 649.3611975 781.7908124998578 634.381005 762.5243999998578 634.49707125A28.1278125 28.1278125 0 0 1 762.3781499998578 634.49707125H137.6220712498578A28.1278125 28.1278125 0 0 1 137.4754462498578 634.49707125C118.2092024998578 634.381005 103.1246512498578 649.3611975 103.1249999998578 668.62792875V762.37792875C103.1249999998578 781.7648662500001 118.2351337498578 796.875 137.6220712498578 796.875zM165.7470712498578 578.2470712500001H734.2529249998578V199.877925C734.2529249998578 146.1112875 691.2666374998578 103.125 637.4999999998578 103.125H262.4999999998578C208.7333737498578 103.125 165.7470712498578 146.1112875 165.7470712498578 199.877925zM387.3779249998578 478.125A28.125 28.125 0 0 1 359.2529287498578 450A28.125 28.125 0 0 1 387.3779249998578 421.875H512.6220749998578A28.125 28.125 0 0 1 540.7470749998578 450A28.125 28.125 0 0 1 512.6220749998578 478.125z" />
    <glyph glyph-name="all-repository"
      unicode="&#xF10A;"
      horiz-adv-x="900" d="M126.5625 590.625C126.5625 613.9243125 145.4506875 632.8125 168.75 632.8125H731.25C754.5487499999999 632.8125 773.4375 613.9243125 773.4375 590.625V225C773.4375 139.5675 704.1825 70.3125 618.75 70.3125H281.25C195.818625 70.3125 126.5625 139.5675 126.5625 225V590.625zM210.9375 548.4375V225C210.9375 186.165 242.41725 154.6875 281.25 154.6875H618.75C657.585 154.6875 689.0625 186.165 689.0625 225V548.4375H210.9375zM70.3125 731.25C70.3125 785.615625 114.384375 829.6875 168.75 829.6875H731.25C785.615625 829.6875 829.6875 785.615625 829.6875 731.25V646.875C829.6875 592.509375 785.615625 548.4375 731.25 548.4375H168.75C114.384375 548.4375 70.3125 592.509375 70.3125 646.875V731.25zM168.75 745.3125C160.9835625 745.3125 154.6875 739.0164374999999 154.6875 731.25V646.875C154.6875 639.1085625000001 160.9835625 632.8125 168.75 632.8125H731.25C739.0181249999999 632.8125 745.3125 639.1085625000001 745.3125 646.875V731.25C745.3125 739.0164374999999 739.0181249999999 745.3125 731.25 745.3125H168.75zM351.5625 450C351.5625 473.2993125 370.4506875 492.1875 393.75 492.1875H506.25C529.5493125 492.1875 548.4375 473.2993125 548.4375 450C548.4375 426.7006875 529.5493125 407.8125 506.25 407.8125H393.75C370.4506875 407.8125 351.5625 426.7006875 351.5625 450z" />
    <glyph glyph-name="all-repository-1"
      unicode="&#x61;&#x6C;&#x6C;&#x2D;&#x72;&#x65;&#x70;&#x6F;&#x73;&#x69;&#x74;&#x6F;&#x72;&#x79;"
      horiz-adv-x="900" d="M126.5625 590.625C126.5625 613.9243125 145.4506875 632.8125 168.75 632.8125H731.25C754.5487499999999 632.8125 773.4375 613.9243125 773.4375 590.625V225C773.4375 139.5675 704.1825 70.3125 618.75 70.3125H281.25C195.818625 70.3125 126.5625 139.5675 126.5625 225V590.625zM210.9375 548.4375V225C210.9375 186.165 242.41725 154.6875 281.25 154.6875H618.75C657.585 154.6875 689.0625 186.165 689.0625 225V548.4375H210.9375zM70.3125 731.25C70.3125 785.615625 114.384375 829.6875 168.75 829.6875H731.25C785.615625 829.6875 829.6875 785.615625 829.6875 731.25V646.875C829.6875 592.509375 785.615625 548.4375 731.25 548.4375H168.75C114.384375 548.4375 70.3125 592.509375 70.3125 646.875V731.25zM168.75 745.3125C160.9835625 745.3125 154.6875 739.0164374999999 154.6875 731.25V646.875C154.6875 639.1085625000001 160.9835625 632.8125 168.75 632.8125H731.25C739.0181249999999 632.8125 745.3125 639.1085625000001 745.3125 646.875V731.25C745.3125 739.0164374999999 739.0181249999999 745.3125 731.25 745.3125H168.75zM351.5625 450C351.5625 473.2993125 370.4506875 492.1875 393.75 492.1875H506.25C529.5493125 492.1875 548.4375 473.2993125 548.4375 450C548.4375 426.7006875 529.5493125 407.8125 506.25 407.8125H393.75C370.4506875 407.8125 351.5625 426.7006875 351.5625 450z" />
    <glyph glyph-name="archive"
      unicode="&#xF10B;"
      horiz-adv-x="900" d="M525 412.5H487.5V487.5C487.5 508.21125 470.71125 525 450 525C429.28875 525 412.5 508.21125 412.5 487.5V412.5H375C360.584625 412.5 347.44575 404.23875 341.20125 391.245C334.95675 378.2512500000001 336.7125 362.83125 345.717375 351.57375L420.71625 257.82375C427.83375 248.9287500000001 438.6075 243.75 450 243.75C461.3925 243.75 472.16625 248.9287500000001 479.2837500000001 257.82375L554.28375 351.57375C563.2875 362.83125 565.0425 378.2512500000001 558.79875 391.245C552.555 404.23875 539.415 412.5 525 412.5zM300 806.25C252.786375 806.25 208.32825 784.02075 180 746.25L116.25 661.249875C101.644875 641.776875 93.75 618.0915 93.75 593.749875V243.75C93.75 160.9087500000001 160.90725 93.75 243.75 93.75H656.25C739.09125 93.75 806.25 160.9087500000001 806.25 243.75V593.749875C806.25 618.0915 798.35625 641.7764999999999 783.75 661.249875L720 746.25C691.6725 784.02075 647.2125 806.25 600 806.25H300zM240 701.25C254.164125 720.1353750000001 276.393375 731.25 300 731.25H600C623.60625 731.25 645.8362500000001 720.1353750000001 660 701.25L693.75 656.25H206.25L240 701.25zM168.75 581.25V243.75C168.75 202.3275 202.328625 168.75 243.75 168.75H656.25C697.6725 168.75 731.25 202.3275 731.25 243.75V581.25H168.75z" />
    <glyph glyph-name="archive-1"
      unicode="&#x61;&#x72;&#x63;&#x68;&#x69;&#x76;&#x65;"
      horiz-adv-x="900" d="M525 412.5H487.5V487.5C487.5 508.21125 470.71125 525 450 525C429.28875 525 412.5 508.21125 412.5 487.5V412.5H375C360.584625 412.5 347.44575 404.23875 341.20125 391.245C334.95675 378.2512500000001 336.7125 362.83125 345.717375 351.57375L420.71625 257.82375C427.83375 248.9287500000001 438.6075 243.75 450 243.75C461.3925 243.75 472.16625 248.9287500000001 479.2837500000001 257.82375L554.28375 351.57375C563.2875 362.83125 565.0425 378.2512500000001 558.79875 391.245C552.555 404.23875 539.415 412.5 525 412.5zM300 806.25C252.786375 806.25 208.32825 784.02075 180 746.25L116.25 661.249875C101.644875 641.776875 93.75 618.0915 93.75 593.749875V243.75C93.75 160.9087500000001 160.90725 93.75 243.75 93.75H656.25C739.09125 93.75 806.25 160.9087500000001 806.25 243.75V593.749875C806.25 618.0915 798.35625 641.7764999999999 783.75 661.249875L720 746.25C691.6725 784.02075 647.2125 806.25 600 806.25H300zM240 701.25C254.164125 720.1353750000001 276.393375 731.25 300 731.25H600C623.60625 731.25 645.8362500000001 720.1353750000001 660 701.25L693.75 656.25H206.25L240 701.25zM168.75 581.25V243.75C168.75 202.3275 202.328625 168.75 243.75 168.75H656.25C697.6725 168.75 731.25 202.3275 731.25 243.75V581.25H168.75z" />
    <glyph glyph-name="arrow-down"
      unicode="&#xF10C;"
      horiz-adv-x="900" d="M75 600L450 225L825 600z" />
    <glyph glyph-name="arrow-down-1"
      unicode="&#x61;&#x72;&#x72;&#x6F;&#x77;&#x2D;&#x64;&#x6F;&#x77;&#x6E;"
      horiz-adv-x="900" d="M75 600L450 225L825 600z" />
    <glyph glyph-name="arrow-right"
      unicode="&#xF10D;"
      horiz-adv-x="900" d="M262.5 75L637.5 450L262.5 825z" />
    <glyph glyph-name="arrow-right-1"
      unicode="&#x61;&#x72;&#x72;&#x6F;&#x77;&#x2D;&#x72;&#x69;&#x67;&#x68;&#x74;"
      horiz-adv-x="900" d="M262.5 75L637.5 450L262.5 825z" />
    <glyph glyph-name="attach"
      unicode="&#xF10E;"
      horiz-adv-x="900" d="M390.6445148011959 757.699125C405.2507648011959 743.0174999999999 405.1907648011959 719.274 390.509514801196 704.66625L205.1702648011959 520.26375C131.6091398011959 447.07125 131.6091398011959 328.48875 205.1702648011959 255.3C279.0527648011959 181.7887499999999 398.995764801196 182.04 472.567014801196 255.8512500000001L717.168264801196 501.24C761.0732648011959 545.2860000000001 760.923264801196 616.282875 716.834514801196 660.149625C672.3482648011959 704.4135 600.0820148011959 704.224125 555.8282648011959 659.73075L311.8360148011959 414.41625C297.2383898011959 399.7387500000001 297.299514801196 376.1625 311.9758898011959 361.5600000000001C326.887014801196 346.725 351.1660148011959 346.81125 365.9683898011959 361.7512499999999L609.3445148011958 607.363125C623.9207648011959 622.07475 647.6620148011959 622.183125 662.3770148011959 607.60575C677.088264801196 593.028375 677.1970148011959 569.284875 662.6170148011959 554.5732499999999L419.2420148011959 308.9625C375.243264801196 264.5550000000001 303.3925148011959 264.3037500000001 259.0776398011959 308.3925000000001C215.0425148011959 352.2075 214.854639801196 423.2625000000001 258.6598898011959 467.30625L502.6495148011959 712.620375C576.1195148011959 786.48675 695.8795148011959 786.798 769.7357648011958 713.31675C843.2057648011959 640.21725 843.4532648011959 521.69625 770.2870148011959 448.29L525.6857648011959 202.9012499999999C422.890764801196 99.7724999999999 255.4975148011959 99.4275 152.2716398011959 202.1325000000001C49.2422648011959 304.6425 49.2422648011959 470.92125 152.2716398011959 573.4293749999999L337.6123898011959 757.83375C352.2940148011959 772.441125 376.0382648011959 772.381125 390.6445148011959 757.699125z" />
    <glyph glyph-name="attach-1"
      unicode="&#x61;&#x74;&#x74;&#x61;&#x63;&#x68;"
      horiz-adv-x="900" d="M390.6445148011959 757.699125C405.2507648011959 743.0174999999999 405.1907648011959 719.274 390.509514801196 704.66625L205.1702648011959 520.26375C131.6091398011959 447.07125 131.6091398011959 328.48875 205.1702648011959 255.3C279.0527648011959 181.7887499999999 398.995764801196 182.04 472.567014801196 255.8512500000001L717.168264801196 501.24C761.0732648011959 545.2860000000001 760.923264801196 616.282875 716.834514801196 660.149625C672.3482648011959 704.4135 600.0820148011959 704.224125 555.8282648011959 659.73075L311.8360148011959 414.41625C297.2383898011959 399.7387500000001 297.299514801196 376.1625 311.9758898011959 361.5600000000001C326.887014801196 346.725 351.1660148011959 346.81125 365.9683898011959 361.7512499999999L609.3445148011958 607.363125C623.9207648011959 622.07475 647.6620148011959 622.183125 662.3770148011959 607.60575C677.088264801196 593.028375 677.1970148011959 569.284875 662.6170148011959 554.5732499999999L419.2420148011959 308.9625C375.243264801196 264.5550000000001 303.3925148011959 264.3037500000001 259.0776398011959 308.3925000000001C215.0425148011959 352.2075 214.854639801196 423.2625000000001 258.6598898011959 467.30625L502.6495148011959 712.620375C576.1195148011959 786.48675 695.8795148011959 786.798 769.7357648011958 713.31675C843.2057648011959 640.21725 843.4532648011959 521.69625 770.2870148011959 448.29L525.6857648011959 202.9012499999999C422.890764801196 99.7724999999999 255.4975148011959 99.4275 152.2716398011959 202.1325000000001C49.2422648011959 304.6425 49.2422648011959 470.92125 152.2716398011959 573.4293749999999L337.6123898011959 757.83375C352.2940148011959 772.441125 376.0382648011959 772.381125 390.6445148011959 757.699125z" />
    <glyph glyph-name="board"
      unicode="&#xF10F;"
      horiz-adv-x="900" d="M161.99964 756C142.11756 756 125.99964 739.88208 125.99964 720C125.99964 700.11792 142.11756 684 161.99964 684H378.00036C397.88316 684 414.00036 700.11792 414.00036 720C414.00036 739.88208 397.88316 756 378.00036 756H161.99964zM522.00036 756C502.11756 756 486.00036 739.88208 486.00036 720C486.00036 700.11792 502.11756 684 522.00036 684H738.00036C757.88316 684 774.00036 700.11792 774.00036 720C774.00036 739.88208 757.88316 756 738.00036 756H522.00036zM233.99964 540C214.11756 540 197.99964 523.88208 197.99964 504V216C197.99964 196.1172 214.11756 180 233.99964 180H305.99964C325.88208 180 341.99964 196.1172 341.99964 216V504C341.99964 523.88208 325.88208 540 305.99964 540H233.99964zM125.99964 504C125.99964 563.6466 174.35304 612 233.99964 612H305.99964C365.6466000000001 612 414.00036 563.6466 414.00036 504V216C414.00036 156.3516 365.6466000000001 108 305.99964 108H233.99964C174.35304 108 125.99964 156.3516 125.99964 216V504zM558.00036 504C558.00036 523.88208 574.11756 540 594.00036 540H666.00036C685.88316 540 702.00036 523.88208 702.00036 504V432C702.00036 412.1172 685.88316 396 666.00036 396H594.00036C574.11756 396 558.00036 412.1172 558.00036 432V504zM594.00036 612C534.35196 612 486.00036 563.6466 486.00036 504V432C486.00036 372.3516 534.35196 324 594.00036 324H666.00036C725.64516 324 774.00036 372.3516 774.00036 432V504C774.00036 563.6466 725.64516 612 666.00036 612H594.00036z" />
    <glyph glyph-name="board-1"
      unicode="&#x62;&#x6F;&#x61;&#x72;&#x64;"
      horiz-adv-x="900" d="M161.99964 756C142.11756 756 125.99964 739.88208 125.99964 720C125.99964 700.11792 142.11756 684 161.99964 684H378.00036C397.88316 684 414.00036 700.11792 414.00036 720C414.00036 739.88208 397.88316 756 378.00036 756H161.99964zM522.00036 756C502.11756 756 486.00036 739.88208 486.00036 720C486.00036 700.11792 502.11756 684 522.00036 684H738.00036C757.88316 684 774.00036 700.11792 774.00036 720C774.00036 739.88208 757.88316 756 738.00036 756H522.00036zM233.99964 540C214.11756 540 197.99964 523.88208 197.99964 504V216C197.99964 196.1172 214.11756 180 233.99964 180H305.99964C325.88208 180 341.99964 196.1172 341.99964 216V504C341.99964 523.88208 325.88208 540 305.99964 540H233.99964zM125.99964 504C125.99964 563.6466 174.35304 612 233.99964 612H305.99964C365.6466000000001 612 414.00036 563.6466 414.00036 504V216C414.00036 156.3516 365.6466000000001 108 305.99964 108H233.99964C174.35304 108 125.99964 156.3516 125.99964 216V504zM558.00036 504C558.00036 523.88208 574.11756 540 594.00036 540H666.00036C685.88316 540 702.00036 523.88208 702.00036 504V432C702.00036 412.1172 685.88316 396 666.00036 396H594.00036C574.11756 396 558.00036 412.1172 558.00036 432V504zM594.00036 612C534.35196 612 486.00036 563.6466 486.00036 504V432C486.00036 372.3516 534.35196 324 594.00036 324H666.00036C725.64516 324 774.00036 372.3516 774.00036 432V504C774.00036 563.6466 725.64516 612 666.00036 612H594.00036z" />
    <glyph glyph-name="bold"
      unicode="&#xF110;"
      horiz-adv-x="900" d="M150 750C150 781.066125 175.183875 806.25 206.25 806.25H468.75C582.6600000000001 806.25 675 713.908875 675 600C675 556.611375 661.60125 516.3525 638.71875 483.13125C704.835 448.7775 750 379.66125 750 300C750 186.0899999999999 657.6600000000001 93.75 543.75 93.75H206.25C175.183875 93.75 150 118.9350000000001 150 150V750zM262.5 693.75V506.25H468.75C520.52625 506.25 562.5 548.223375 562.5 600C562.5 651.776625 520.52625 693.75 468.75 693.75H262.5zM262.5 393.75V206.25H543.75C595.52625 206.25 637.5 248.22375 637.5 300C637.5 351.77625 595.52625 393.75 543.75 393.75H262.5z" />
    <glyph glyph-name="bold-1"
      unicode="&#x62;&#x6F;&#x6C;&#x64;"
      horiz-adv-x="900" d="M150 750C150 781.066125 175.183875 806.25 206.25 806.25H468.75C582.6600000000001 806.25 675 713.908875 675 600C675 556.611375 661.60125 516.3525 638.71875 483.13125C704.835 448.7775 750 379.66125 750 300C750 186.0899999999999 657.6600000000001 93.75 543.75 93.75H206.25C175.183875 93.75 150 118.9350000000001 150 150V750zM262.5 693.75V506.25H468.75C520.52625 506.25 562.5 548.223375 562.5 600C562.5 651.776625 520.52625 693.75 468.75 693.75H262.5zM262.5 393.75V206.25H543.75C595.52625 206.25 637.5 248.22375 637.5 300C637.5 351.77625 595.52625 393.75 543.75 393.75H262.5z" />
    <glyph glyph-name="book"
      unicode="&#xF111;"
      horiz-adv-x="900" d="M215.9991 792C196.11702 792 179.9991 775.88208 179.9991 756V648H143.9991C124.11702 648 107.9991 631.88208 107.9991 612C107.9991 592.11792 124.11702 576 143.9991 576H179.9991V468H143.9991C124.11702 468 107.9991 451.8828 107.9991 432C107.9991 412.1172 124.11702 396 143.9991 396H179.9991V288H143.9991C124.11702 288 107.9991 271.8828 107.9991 252C107.9991 232.1172000000001 124.11702 216 143.9991 216H179.9991V108C179.9991 88.1172 196.11702 72 215.9991 72H648.0009C727.5284999999999 72 792.0009 136.4724 792.0009 216V648C792.0009 727.52904 727.5284999999999 792 648.0009 792H215.9991zM251.9991 216V144H648.0009C687.7629000000001 144 720.0009 176.2343999999999 720.0009 216V648C720.0009 687.76452 687.7629000000001 720 648.0009 720H251.9991V648C271.88154 648 287.9991 631.88208 287.9991 612C287.9991 592.11792 271.88154 576 251.9991 576V468C271.88154 468 287.9991 451.8828 287.9991 432C287.9991 412.1172 271.88154 396 251.9991 396V288C271.88154 288 287.9991 271.8828 287.9991 252C287.9991 232.1172000000001 271.88154 216 251.9991 216z" />
    <glyph glyph-name="book-1"
      unicode="&#x62;&#x6F;&#x6F;&#x6B;"
      horiz-adv-x="900" d="M215.9991 792C196.11702 792 179.9991 775.88208 179.9991 756V648H143.9991C124.11702 648 107.9991 631.88208 107.9991 612C107.9991 592.11792 124.11702 576 143.9991 576H179.9991V468H143.9991C124.11702 468 107.9991 451.8828 107.9991 432C107.9991 412.1172 124.11702 396 143.9991 396H179.9991V288H143.9991C124.11702 288 107.9991 271.8828 107.9991 252C107.9991 232.1172000000001 124.11702 216 143.9991 216H179.9991V108C179.9991 88.1172 196.11702 72 215.9991 72H648.0009C727.5284999999999 72 792.0009 136.4724 792.0009 216V648C792.0009 727.52904 727.5284999999999 792 648.0009 792H215.9991zM251.9991 216V144H648.0009C687.7629000000001 144 720.0009 176.2343999999999 720.0009 216V648C720.0009 687.76452 687.7629000000001 720 648.0009 720H251.9991V648C271.88154 648 287.9991 631.88208 287.9991 612C287.9991 592.11792 271.88154 576 251.9991 576V468C271.88154 468 287.9991 451.8828 287.9991 432C287.9991 412.1172 271.88154 396 251.9991 396V288C271.88154 288 287.9991 271.8828 287.9991 252C287.9991 232.1172000000001 271.88154 216 251.9991 216z" />
    <glyph glyph-name="calendar"
      unicode="&#xF112;"
      horiz-adv-x="900" d="M75 562.5C75 603.921375 108.578625 637.5 150 637.5H750C791.4225 637.5 825 603.921375 825 562.5V225C825 183.5775 791.4225 150 750 150H150C108.578625 150 75 183.5775 75 225V562.5zM187.5 750C187.5 770.7105 204.2895 787.5 225 787.5H262.5C283.2105 787.5 300 770.7105 300 750V712.5H600V750C600 770.7105 616.78875 787.5 637.5 787.5H675C695.71125 787.5 712.5 770.7105 712.5 750V712.5H750C791.4225 712.5 825 678.921375 825 637.5V562.5C825 541.7895000000001 808.21125 525 787.5 525H112.5C91.7895 525 75 541.7895000000001 75 562.5V637.5C75 678.921375 108.578625 712.5 150 712.5H187.5V750zM187.5 450H225A37.5 37.5 0 0 0 262.5 412.5V375A37.5 37.5 0 0 0 225 337.5H187.5A37.5 37.5 0 0 0 150 375V412.5A37.5 37.5 0 0 0 187.5 450z" />
    <glyph glyph-name="calendar-1"
      unicode="&#x63;&#x61;&#x6C;&#x65;&#x6E;&#x64;&#x61;&#x72;"
      horiz-adv-x="900" d="M75 562.5C75 603.921375 108.578625 637.5 150 637.5H750C791.4225 637.5 825 603.921375 825 562.5V225C825 183.5775 791.4225 150 750 150H150C108.578625 150 75 183.5775 75 225V562.5zM187.5 750C187.5 770.7105 204.2895 787.5 225 787.5H262.5C283.2105 787.5 300 770.7105 300 750V712.5H600V750C600 770.7105 616.78875 787.5 637.5 787.5H675C695.71125 787.5 712.5 770.7105 712.5 750V712.5H750C791.4225 712.5 825 678.921375 825 637.5V562.5C825 541.7895000000001 808.21125 525 787.5 525H112.5C91.7895 525 75 541.7895000000001 75 562.5V637.5C75 678.921375 108.578625 712.5 150 712.5H187.5V750zM187.5 450H225A37.5 37.5 0 0 0 262.5 412.5V375A37.5 37.5 0 0 0 225 337.5H187.5A37.5 37.5 0 0 0 150 375V412.5A37.5 37.5 0 0 0 187.5 450z" />
    <glyph glyph-name="cardkanban"
      unicode="&#xF113;"
      horiz-adv-x="900" d="M666.00036 504C666.00036 484.1172 649.88316 468 630.00036 468L414.00036 468C394.1175600000001 468 378.00036 484.1172 378.00036 504C378.00036 523.88244 394.1175600000001 540 414.00036 540L630.00036 540C649.88316 540 666.00036 523.88208 666.00036 504zM630.00036 324C649.88316 324 666.00036 340.1172000000001 666.00036 360C666.00036 379.8828000000001 649.88316 396 630.00036 396L414.00036 396C394.1175600000001 396 378.00036 379.8828000000001 378.00036 360C378.00036 340.1172000000001 394.1175600000001 324 414.00036 324L630.00036 324zM323.99964 360C323.99964 335.1456 303.8526 315 278.99964 315C254.14704 315 233.99964 335.1456 233.99964 360C233.99964 384.8544 254.14704 405 278.99964 405C303.8526 405 323.99964 384.8544 323.99964 360zM278.99964 459C303.8526 459 323.99964 479.1456 323.99964 504C323.99964 528.8529599999999 303.8526 549 278.99964 549C254.14704 549 233.99964 528.8529599999999 233.99964 504C233.99964 479.1456 254.14704 459 278.99964 459zM89.99964 594C89.99964 673.52904 154.4706 738 233.99964 738H666.00036C745.52796 738 810.00036 673.52904 810.00036 594V270C810.00036 190.4724 745.52796 126 666.00036 126H233.99964C154.4706 126 89.99964 190.4724 89.99964 270V594zM233.99964 666C194.23512 666 161.99964 633.76452 161.99964 594V270C161.99964 230.2344 194.23512 198 233.99964 198H666.00036C705.76596 198 738.00036 230.2344 738.00036 270V594C738.00036 633.76452 705.76596 666 666.00036 666H233.99964z" />
    <glyph glyph-name="cardkanban-1"
      unicode="&#x63;&#x61;&#x72;&#x64;&#x6B;&#x61;&#x6E;&#x62;&#x61;&#x6E;"
      horiz-adv-x="900" d="M666.00036 504C666.00036 484.1172 649.88316 468 630.00036 468L414.00036 468C394.1175600000001 468 378.00036 484.1172 378.00036 504C378.00036 523.88244 394.1175600000001 540 414.00036 540L630.00036 540C649.88316 540 666.00036 523.88208 666.00036 504zM630.00036 324C649.88316 324 666.00036 340.1172000000001 666.00036 360C666.00036 379.8828000000001 649.88316 396 630.00036 396L414.00036 396C394.1175600000001 396 378.00036 379.8828000000001 378.00036 360C378.00036 340.1172000000001 394.1175600000001 324 414.00036 324L630.00036 324zM323.99964 360C323.99964 335.1456 303.8526 315 278.99964 315C254.14704 315 233.99964 335.1456 233.99964 360C233.99964 384.8544 254.14704 405 278.99964 405C303.8526 405 323.99964 384.8544 323.99964 360zM278.99964 459C303.8526 459 323.99964 479.1456 323.99964 504C323.99964 528.8529599999999 303.8526 549 278.99964 549C254.14704 549 233.99964 528.8529599999999 233.99964 504C233.99964 479.1456 254.14704 459 278.99964 459zM89.99964 594C89.99964 673.52904 154.4706 738 233.99964 738H666.00036C745.52796 738 810.00036 673.52904 810.00036 594V270C810.00036 190.4724 745.52796 126 666.00036 126H233.99964C154.4706 126 89.99964 190.4724 89.99964 270V594zM233.99964 666C194.23512 666 161.99964 633.76452 161.99964 594V270C161.99964 230.2344 194.23512 198 233.99964 198H666.00036C705.76596 198 738.00036 230.2344 738.00036 270V594C738.00036 633.76452 705.76596 666 666.00036 666H233.99964z" />
    <glyph glyph-name="chat"
      unicode="&#xF114;"
      horiz-adv-x="900" d="M449.9216216596343 720C290.8628216596343 720 161.9209016596343 591.05808 161.9209016596343 432C161.9209016596343 272.9412000000001 290.8628216596343 144 449.9216216596343 144C495.5588216596343 144 538.6184216596342 154.5876000000001 576.8756216596342 173.412L590.5124216596344 180.1224L604.8332216596343 175.0247999999999C643.4756216596343 161.2764 684.4148216596343 151.7328 724.5260216596344 149.3604C709.9784216596344 175.1184 695.7296216596343 203.7492 682.9820216596344 231.9408L674.5508216596343 250.5924L686.2652216596342 267.3756C718.8272216596343 314.0244 737.9216216596343 370.728 737.9216216596343 432C737.9216216596343 591.05808 608.9804216596342 720 449.9216216596343 720zM89.9209016596342 432C89.9209016596342 630.8226 251.0983016596343 792 449.9216216596343 792C648.7424216596343 792 809.9216216596343 630.8226 809.9216216596343 432C809.9216216596343 363.0492 790.5032216596343 298.548 756.8432216596343 243.7632C771.3368216596343 213.1452000000001 786.9824216596343 183.7368 801.8684216596342 160.1568C821.1752216596343 129.5748 806.1416216596343 79.1351999999999 759.8456216596343 77.1264C703.2176216596342 74.6748 646.2728216596344 85.4964 594.8252216596343 102.3624C550.4516216596343 82.8288 501.4088216596342 72 449.9216216596343 72C251.0983016596343 72 89.9209016596342 233.1792000000001 89.9209016596342 432zM431.9216216596343 504C431.9216216596343 484.1172 415.8044216596343 468 395.9216216596343 468H323.9209016596342C304.0388216596342 468 287.9209016596342 484.1172 287.9209016596342 504C287.9209016596342 523.88208 304.0388216596342 540 323.9209016596342 540H395.9216216596343C415.8044216596343 540 431.9216216596343 523.88208 431.9216216596343 504zM575.9216216596343 324C595.8044216596343 324 611.9216216596343 340.1172000000001 611.9216216596343 360C611.9216216596343 379.8828000000001 595.8044216596343 396 575.9216216596343 396H323.9209016596342C304.0388216596342 396 287.9209016596342 379.8828000000001 287.9209016596342 360C287.9209016596342 340.1172000000001 304.0388216596342 324 323.9209016596342 324H575.9216216596343z" />
    <glyph glyph-name="chat-1"
      unicode="&#x63;&#x68;&#x61;&#x74;"
      horiz-adv-x="900" d="M449.9216216596343 720C290.8628216596343 720 161.9209016596343 591.05808 161.9209016596343 432C161.9209016596343 272.9412000000001 290.8628216596343 144 449.9216216596343 144C495.5588216596343 144 538.6184216596342 154.5876000000001 576.8756216596342 173.412L590.5124216596344 180.1224L604.8332216596343 175.0247999999999C643.4756216596343 161.2764 684.4148216596343 151.7328 724.5260216596344 149.3604C709.9784216596344 175.1184 695.7296216596343 203.7492 682.9820216596344 231.9408L674.5508216596343 250.5924L686.2652216596342 267.3756C718.8272216596343 314.0244 737.9216216596343 370.728 737.9216216596343 432C737.9216216596343 591.05808 608.9804216596342 720 449.9216216596343 720zM89.9209016596342 432C89.9209016596342 630.8226 251.0983016596343 792 449.9216216596343 792C648.7424216596343 792 809.9216216596343 630.8226 809.9216216596343 432C809.9216216596343 363.0492 790.5032216596343 298.548 756.8432216596343 243.7632C771.3368216596343 213.1452000000001 786.9824216596343 183.7368 801.8684216596342 160.1568C821.1752216596343 129.5748 806.1416216596343 79.1351999999999 759.8456216596343 77.1264C703.2176216596342 74.6748 646.2728216596344 85.4964 594.8252216596343 102.3624C550.4516216596343 82.8288 501.4088216596342 72 449.9216216596343 72C251.0983016596343 72 89.9209016596342 233.1792000000001 89.9209016596342 432zM431.9216216596343 504C431.9216216596343 484.1172 415.8044216596343 468 395.9216216596343 468H323.9209016596342C304.0388216596342 468 287.9209016596342 484.1172 287.9209016596342 504C287.9209016596342 523.88208 304.0388216596342 540 323.9209016596342 540H395.9216216596343C415.8044216596343 540 431.9216216596343 523.88208 431.9216216596343 504zM575.9216216596343 324C595.8044216596343 324 611.9216216596343 340.1172000000001 611.9216216596343 360C611.9216216596343 379.8828000000001 595.8044216596343 396 575.9216216596343 396H323.9209016596342C304.0388216596342 396 287.9209016596342 379.8828000000001 287.9209016596342 360C287.9209016596342 340.1172000000001 304.0388216596342 324 323.9209016596342 324H575.9216216596343z" />
    <glyph glyph-name="check-double"
      unicode="&#xF115;"
      horiz-adv-x="900" d="M582.327747632609 602.5373999999999C596.983347632609 589.10256 597.973347632609 566.33004 584.538147632609 551.67372L320.537907632609 263.6748C313.4649876326089 255.9564000000001 303.384267632609 251.7012000000001 292.9215876326089 252.0144C282.4592676326089 252.3312 272.651427632609 257.1804 266.0533476326089 265.3055999999999L134.0535876326089 427.8672C121.5205476326089 443.3004 123.8724276326089 465.9732 139.3070676326089 478.5084C154.7417076326089 491.04 177.4141476326089 488.6892 189.947187632609 473.2524L295.651107632609 343.0764000000001L531.4633476326089 600.32592C544.8985476326089 614.98224 567.6685476326089 615.97224 582.327747632609 602.5373999999999zM761.7049476326089 603.0921599999999C776.670147632609 589.99968 778.185747632609 567.25632 765.092547632609 552.2932800000001L513.0925476326089 264.294C499.999347632609 249.3288 477.2545476326089 247.8132000000001 462.2929476326088 260.9064C447.3313476326089 273.9996 445.8157476326089 296.7444000000001 458.9053476326089 311.706L710.905347632609 599.7056399999999C723.998547632609 614.66868 746.743347632609 616.185 761.7049476326089 603.0921599999999z" />
    <glyph glyph-name="check-double-1"
      unicode="&#x63;&#x68;&#x65;&#x63;&#x6B;&#x2D;&#x64;&#x6F;&#x75;&#x62;&#x6C;&#x65;"
      horiz-adv-x="900" d="M582.327747632609 602.5373999999999C596.983347632609 589.10256 597.973347632609 566.33004 584.538147632609 551.67372L320.537907632609 263.6748C313.4649876326089 255.9564000000001 303.384267632609 251.7012000000001 292.9215876326089 252.0144C282.4592676326089 252.3312 272.651427632609 257.1804 266.0533476326089 265.3055999999999L134.0535876326089 427.8672C121.5205476326089 443.3004 123.8724276326089 465.9732 139.3070676326089 478.5084C154.7417076326089 491.04 177.4141476326089 488.6892 189.947187632609 473.2524L295.651107632609 343.0764000000001L531.4633476326089 600.32592C544.8985476326089 614.98224 567.6685476326089 615.97224 582.327747632609 602.5373999999999zM761.7049476326089 603.0921599999999C776.670147632609 589.99968 778.185747632609 567.25632 765.092547632609 552.2932800000001L513.0925476326089 264.294C499.999347632609 249.3288 477.2545476326089 247.8132000000001 462.2929476326088 260.9064C447.3313476326089 273.9996 445.8157476326089 296.7444000000001 458.9053476326089 311.706L710.905347632609 599.7056399999999C723.998547632609 614.66868 746.743347632609 616.185 761.7049476326089 603.0921599999999z" />
    <glyph glyph-name="check"
      unicode="&#xF116;"
      horiz-adv-x="900" d="M705.4376808974372 637.64748C722.8832808974372 622.15164 724.9460808974371 594.8830800000001 710.0456808974371 576.7416000000001L426.2000808974372 231.1416000000001C418.4888808974372 221.7528 407.2820808974372 216.2448 395.4092808974372 216.0072C383.5400808974372 215.7696000000001 372.1388808974372 220.8276 364.0856808974371 229.9032L191.0106408974372 424.9764C175.4532408974372 442.5084 176.5094808974371 469.8396 193.3693608974372 486.0216C210.2292408974372 502.2 236.5088808974372 501.102 252.0662808974372 483.5664L393.4148808974371 324.2556L646.8764808974372 632.8569600000001C661.7768808974371 650.99844 687.9956808974372 653.14332 705.4376808974372 637.64748z" />
    <glyph glyph-name="check-1"
      unicode="&#x63;&#x68;&#x65;&#x63;&#x6B;"
      horiz-adv-x="900" d="M705.4376808974372 637.64748C722.8832808974372 622.15164 724.9460808974371 594.8830800000001 710.0456808974371 576.7416000000001L426.2000808974372 231.1416000000001C418.4888808974372 221.7528 407.2820808974372 216.2448 395.4092808974372 216.0072C383.5400808974372 215.7696000000001 372.1388808974372 220.8276 364.0856808974371 229.9032L191.0106408974372 424.9764C175.4532408974372 442.5084 176.5094808974371 469.8396 193.3693608974372 486.0216C210.2292408974372 502.2 236.5088808974372 501.102 252.0662808974372 483.5664L393.4148808974371 324.2556L646.8764808974372 632.8569600000001C661.7768808974371 650.99844 687.9956808974372 653.14332 705.4376808974372 637.64748z" />
    <glyph glyph-name="checked"
      unicode="&#xF117;"
      horiz-adv-x="900" d="M112.5 450A337.5 337.5 0 0 1 787.5 450A337.5 337.5 0 0 1 112.5 450M450 150C615.68625 150 750 284.3137500000001 750 450C750 615.6855 615.68625 750 450 750C284.3145 750 150 615.6855 150 450C150 284.3137500000001 284.3145 150 450 150zM450 75C657.105 75 825 242.895 825 450C825 657.106875 657.105 825 450 825C242.893125 825 75 657.106875 75 450C75 242.895 242.893125 75 450 75zM461.4675 333.48375L609.30375 513.48375C623.3924999999999 530.637375 621.5625 556.295625 604.8675 571.123875C587.74125 586.33725 561.86625 584.093625 547.4250000000001 566.511375L429.3525 422.7525L370.3095 489.3C355.18275 506.3475 329.2331250000001 507.49875 312.7305 491.6625C296.645625 476.2275 295.70775 450.52125 310.459125 433.89375L400.605 332.295C408.34875 323.565 419.505 318.52125 431.3175 318.7575C443.1225 318.99 454.065 324.4725 461.4675 333.48375zM429.90375 393.88125L561.9150000000001 554.611125C569.67375 564.059625 583.3312500000001 565.17675 592.4175 557.106C593.55 556.09725 594.5625 554.9925 595.4475 553.8135C594.5625 554.9925 593.5537499999999 556.096875 592.4175 557.1056249999999C583.3312500000001 565.176375 569.67375 564.05925 561.9150000000001 554.61075L429.90375 393.88125L429.90375 393.88125zM320.93025 451.74C316.851375 460.44 318.5227500000001 471.2325 325.713375 478.1325C334.494375 486.55875 348.181875 485.98875 356.2845000000001 476.8575L356.284125 476.8575C348.1815000000001 485.98875 334.494375 486.55875 325.713 478.1325C318.5227500000001 471.2325 316.851375 460.44 320.93025 451.74z" />
    <glyph glyph-name="checked-1"
      unicode="&#x63;&#x68;&#x65;&#x63;&#x6B;&#x65;&#x64;"
      horiz-adv-x="900" d="M112.5 450A337.5 337.5 0 0 1 787.5 450A337.5 337.5 0 0 1 112.5 450M450 150C615.68625 150 750 284.3137500000001 750 450C750 615.6855 615.68625 750 450 750C284.3145 750 150 615.6855 150 450C150 284.3137500000001 284.3145 150 450 150zM450 75C657.105 75 825 242.895 825 450C825 657.106875 657.105 825 450 825C242.893125 825 75 657.106875 75 450C75 242.895 242.893125 75 450 75zM461.4675 333.48375L609.30375 513.48375C623.3924999999999 530.637375 621.5625 556.295625 604.8675 571.123875C587.74125 586.33725 561.86625 584.093625 547.4250000000001 566.511375L429.3525 422.7525L370.3095 489.3C355.18275 506.3475 329.2331250000001 507.49875 312.7305 491.6625C296.645625 476.2275 295.70775 450.52125 310.459125 433.89375L400.605 332.295C408.34875 323.565 419.505 318.52125 431.3175 318.7575C443.1225 318.99 454.065 324.4725 461.4675 333.48375zM429.90375 393.88125L561.9150000000001 554.611125C569.67375 564.059625 583.3312500000001 565.17675 592.4175 557.106C593.55 556.09725 594.5625 554.9925 595.4475 553.8135C594.5625 554.9925 593.5537499999999 556.096875 592.4175 557.1056249999999C583.3312500000001 565.176375 569.67375 564.05925 561.9150000000001 554.61075L429.90375 393.88125L429.90375 393.88125zM320.93025 451.74C316.851375 460.44 318.5227500000001 471.2325 325.713375 478.1325C334.494375 486.55875 348.181875 485.98875 356.2845000000001 476.8575L356.284125 476.8575C348.1815000000001 485.98875 334.494375 486.55875 325.713 478.1325C318.5227500000001 471.2325 316.851375 460.44 320.93025 451.74z" />
    <glyph glyph-name="clients"
      unicode="&#xF118;"
      horiz-adv-x="900" d="M196.125 757.875A93.375 93.375 0 0 1 102.375 664.125V289.125A93 93 0 0 1 130.5 222.375H114.375A40.125 40.125 0 0 1 114.375 142.125H435.75A40.125 40.125 0 0 1 475.8750000000001 182.25V235.875A40.125 40.125 0 0 1 435.75 276H196.125A13.125 13.125 0 0 0 183 289.125V664.125A13.5 13.5 0 0 0 196.125 677.625H730.5A13.5 13.5 0 0 0 744 664.125A40.125 40.125 0 0 1 824.25 664.125A93.375 93.375 0 0 1 730.5 757.875zM596.625 570.375A67.125 67.125 0 0 1 529.5 503.6250000000001V208.875A67.125 67.125 0 0 1 596.625 142.125H758.625A67.125 67.125 0 0 1 825.75 208.875V503.625A67.125 67.125 0 0 1 758.625 570.375zM608.625 222.375V490.125H742.5V222.375z" />
    <glyph glyph-name="clients-1"
      unicode="&#x63;&#x6C;&#x69;&#x65;&#x6E;&#x74;&#x73;"
      horiz-adv-x="900" d="M196.125 757.875A93.375 93.375 0 0 1 102.375 664.125V289.125A93 93 0 0 1 130.5 222.375H114.375A40.125 40.125 0 0 1 114.375 142.125H435.75A40.125 40.125 0 0 1 475.8750000000001 182.25V235.875A40.125 40.125 0 0 1 435.75 276H196.125A13.125 13.125 0 0 0 183 289.125V664.125A13.5 13.5 0 0 0 196.125 677.625H730.5A13.5 13.5 0 0 0 744 664.125A40.125 40.125 0 0 1 824.25 664.125A93.375 93.375 0 0 1 730.5 757.875zM596.625 570.375A67.125 67.125 0 0 1 529.5 503.6250000000001V208.875A67.125 67.125 0 0 1 596.625 142.125H758.625A67.125 67.125 0 0 1 825.75 208.875V503.625A67.125 67.125 0 0 1 758.625 570.375zM608.625 222.375V490.125H742.5V222.375z" />
    <glyph glyph-name="clock"
      unicode="&#xF119;"
      horiz-adv-x="900" d="M449.7302602037989 846.75292875C227.4238214537989 846.75292875 46.6052602037989 665.9343675 46.6052602037989 443.627925C46.6052602037989 265.2378750000001 155.5095727037989 129.1624125 295.4822114537989 71.191425C435.4548352037989 13.2203999999999 608.662085203799 32.4425624999999 734.788835203799 158.56935C860.915622703799 284.6961375 880.137822703799 457.90335 822.1667977037989 597.8759774999999C764.1957727037989 737.84861625 628.1203102037989 846.75292875 449.7302602037989 846.75292875zM449.7302602037989 790.50292875C605.4524227037989 790.50292875 720.032172703799 697.38950625 770.1648352037989 576.3427724999999C820.2974977037989 455.29605 805.1159227037988 308.437425 695.0183602037989 198.3398625C584.9207602037989 88.2422625 438.0621352037989 73.0606875 317.0154164537989 123.19335C195.9686864537989 173.32605 102.8552602037989 287.9057624999999 102.8552602037989 443.627925C102.8552602037989 635.5346400000001 257.8235489537989 790.50292875 449.7302602037989 790.50292875zM449.7302602037989 628.125A28.125 28.125 0 0 1 421.6052602037989 600V450C421.5766852037989 444.1488 420.0853852037989 438.4038375 417.3572227037989 433.227525C417.3460102037989 433.2063 417.3684727037989 433.175025 417.3572227037989 433.152525L362.4255727037989 332.2248A28.125 28.125 0 0 1 373.6316264537989 294.065625A28.125 28.125 0 0 1 411.7907977037989 305.271675L466.9421602037989 406.5656249999999A28.1278125 28.1278125 0 0 1 467.0884102037989 406.8581249999999C474.1185727037989 420.1341750000001 477.8116102037989 434.9064 477.8552602037989 449.9267625A28.1278125 28.1278125 0 0 1 477.8552602037989 450V600A28.125 28.125 0 0 1 449.7302602037989 628.125z" />
    <glyph glyph-name="clock-1"
      unicode="&#x63;&#x6C;&#x6F;&#x63;&#x6B;"
      horiz-adv-x="900" d="M449.7302602037989 846.75292875C227.4238214537989 846.75292875 46.6052602037989 665.9343675 46.6052602037989 443.627925C46.6052602037989 265.2378750000001 155.5095727037989 129.1624125 295.4822114537989 71.191425C435.4548352037989 13.2203999999999 608.662085203799 32.4425624999999 734.788835203799 158.56935C860.915622703799 284.6961375 880.137822703799 457.90335 822.1667977037989 597.8759774999999C764.1957727037989 737.84861625 628.1203102037989 846.75292875 449.7302602037989 846.75292875zM449.7302602037989 790.50292875C605.4524227037989 790.50292875 720.032172703799 697.38950625 770.1648352037989 576.3427724999999C820.2974977037989 455.29605 805.1159227037988 308.437425 695.0183602037989 198.3398625C584.9207602037989 88.2422625 438.0621352037989 73.0606875 317.0154164537989 123.19335C195.9686864537989 173.32605 102.8552602037989 287.9057624999999 102.8552602037989 443.627925C102.8552602037989 635.5346400000001 257.8235489537989 790.50292875 449.7302602037989 790.50292875zM449.7302602037989 628.125A28.125 28.125 0 0 1 421.6052602037989 600V450C421.5766852037989 444.1488 420.0853852037989 438.4038375 417.3572227037989 433.227525C417.3460102037989 433.2063 417.3684727037989 433.175025 417.3572227037989 433.152525L362.4255727037989 332.2248A28.125 28.125 0 0 1 373.6316264537989 294.065625A28.125 28.125 0 0 1 411.7907977037989 305.271675L466.9421602037989 406.5656249999999A28.1278125 28.1278125 0 0 1 467.0884102037989 406.8581249999999C474.1185727037989 420.1341750000001 477.8116102037989 434.9064 477.8552602037989 449.9267625A28.1278125 28.1278125 0 0 1 477.8552602037989 450V600A28.125 28.125 0 0 1 449.7302602037989 628.125z" />
    <glyph glyph-name="close"
      unicode="&#xF11A;"
      horiz-adv-x="900" d="M242.613046875 657.387375C253.596421875 668.37075 271.4044218750001 668.37075 282.3877968750001 657.387375L657.386671875 282.38625C668.370421875 271.4025000000001 668.370421875 253.5975 657.386671875 242.61375C646.4029218750001 231.63 628.597921875 231.63 617.614171875 242.61375L242.613046875 617.612625C231.629671875 628.596 231.629671875 646.404 242.613046875 657.387375zM657.386671875 657.387375C668.370421875 646.404 668.370421875 628.596 657.386671875 617.612625L282.3877968750001 242.61375C271.4044218750001 231.63 253.596421875 231.63 242.613046875 242.61375C231.629671875 253.5975 231.629671875 271.4025000000001 242.613046875 282.38625L617.614171875 657.387375C628.597921875 668.37075 646.4029218750001 668.37075 657.386671875 657.387375z" />
    <glyph glyph-name="close-1"
      unicode="&#x63;&#x6C;&#x6F;&#x73;&#x65;"
      horiz-adv-x="900" d="M242.613046875 657.387375C253.596421875 668.37075 271.4044218750001 668.37075 282.3877968750001 657.387375L657.386671875 282.38625C668.370421875 271.4025000000001 668.370421875 253.5975 657.386671875 242.61375C646.4029218750001 231.63 628.597921875 231.63 617.614171875 242.61375L242.613046875 617.612625C231.629671875 628.596 231.629671875 646.404 242.613046875 657.387375zM657.386671875 657.387375C668.370421875 646.404 668.370421875 628.596 657.386671875 617.612625L282.3877968750001 242.61375C271.4044218750001 231.63 253.596421875 231.63 242.613046875 242.61375C231.629671875 253.5975 231.629671875 271.4025000000001 242.613046875 282.38625L617.614171875 657.387375C628.597921875 668.37075 646.4029218750001 668.37075 657.386671875 657.387375z" />
    <glyph glyph-name="cog-setting-alt"
      unicode="&#xF11B;"
      horiz-adv-x="900" d="M449.997054353564 590.625C367.152054353564 590.625 299.9963043535639 523.46625 299.9963043535639 440.625C299.9963043535639 357.7837500000001 367.152054353564 290.625 449.997054353564 290.625C532.8383043535639 290.625 599.997054353564 357.7837500000001 599.997054353564 440.625C599.997054353564 523.46625 532.8383043535639 590.625 449.997054353564 590.625zM374.997054353564 440.625C374.997054353564 482.0475 408.574554353564 515.625 449.997054353564 515.625C491.4158043535639 515.625 524.997054353564 482.0475 524.997054353564 440.625C524.997054353564 399.2025000000001 491.4158043535639 365.625 449.997054353564 365.625C408.574554353564 365.625 374.997054353564 399.2025000000001 374.997054353564 440.625zM443.888304353564 825C373.587054353564 825 312.7133043535639 776.170125 297.462054353564 707.5395L297.027054353564 705.582L295.114179353564 706.183875C228.052929353564 727.2915 155.328804353564 698.9895 120.176679353564 638.10375L114.066804353564 627.52125C78.914304353564 566.6355 90.766179353564 489.5025 142.576554353564 441.97875L144.054054353564 440.625L142.575804353564 439.2675000000001C90.765429353564 391.7475 78.913554353564 314.61375 114.066054353564 253.7287500000001L120.175929353564 243.1462499999999C155.328429353564 182.2612499999999 228.052179353564 153.9599999999999 295.113804353564 175.065L297.026679353564 175.6687500000001L297.462054353564 173.7112500000001C312.7133043535639 105.07875 373.587054353564 56.25 443.888304353564 56.25H456.1095543535639C526.414554353564 56.25 587.288304353564 105.07875 602.539554353564 173.7112500000001L602.9745543535639 175.6687500000001L604.8870543535639 175.065C671.9483043535639 153.9599999999999 744.6720543535639 182.2612499999999 779.8245543535639 243.1462499999999L785.9333043535639 253.7287500000001C821.085804353564 314.61375 809.2358043535638 391.7475 757.4258043535639 439.27125L755.944554353564 440.625L757.4220543535639 441.97875C809.2320543535639 489.5025 821.085804353564 566.6355 785.9333043535639 627.52125L779.8245543535639 638.10375C744.6720543535639 698.9895 671.9483043535639 727.2915 604.8870543535639 706.183875L602.9745543535639 705.582375L602.539554353564 707.5395C587.288304353564 776.170125 526.414554353564 825 456.1095543535639 825H443.888304353564zM370.6770543535639 691.270125C378.300804353564 725.58525 408.735804353564 750 443.888304353564 750H456.1095543535639C491.2620543535639 750 521.6970543535639 725.58525 529.3245543535639 691.26975L529.7595543535639 689.311875C539.295804353564 646.38825 583.5458043535639 620.840625 625.4895543535639 634.04175L627.4020543535639 634.644C660.934554353564 645.197625 697.2945543535639 631.046625 714.8708043535639 600.60375L720.979554353564 590.02125C738.5558043535639 559.578375 732.6308043535639 521.0137500000001 706.725804353564 497.25L705.2483043535639 495.89625C672.844554353564 466.17375 672.844554353564 415.07625 705.2483043535639 385.35375L706.725804353564 384C732.6308043535639 360.23625 738.559554353564 321.67125 720.983304353564 291.2287500000001L714.8708043535639 280.6462499999999C697.2945543535639 250.20375 660.934554353564 236.05125 627.4020543535639 246.6075L625.4895543535639 247.2075C583.5458043535639 260.4112499999999 539.295804353564 234.8625000000001 529.7595543535639 191.9362500000001L529.3245543535639 189.97875C521.6970543535639 155.66625 491.2620543535639 131.25 456.1095543535639 131.25H443.888304353564C408.735804353564 131.25 378.300804353564 155.66625 370.6770543535639 189.97875L370.242054353564 191.9362500000001C360.7020543535639 234.8625000000001 316.452429353564 260.4112499999999 274.509804353564 247.2075L272.596929353564 246.6075C239.065929353564 236.05125 202.704054353564 250.20375 185.127804353564 280.6462499999999L179.017929353564 291.2287500000001C161.441679353564 321.67125 167.367804353564 360.23625 193.272804353564 384L194.751054353564 385.35375C227.154804353564 415.07625 227.154804353564 466.17375 194.751054353564 495.89625L193.273554353564 497.25C167.3681793535639 521.0137500000001 161.442429353564 559.578375 179.018679353564 590.02125L185.128554353564 600.60375C202.704804353564 631.046625 239.066679353564 645.197625 272.5973043535639 634.644L274.5101793535639 634.04175C316.452429353564 620.840625 360.7020543535639 646.38825 370.242054353564 689.31225L370.6770543535639 691.270125z" />
    <glyph glyph-name="cog-setting-alt-1"
      unicode="&#x63;&#x6F;&#x67;&#x2D;&#x73;&#x65;&#x74;&#x74;&#x69;&#x6E;&#x67;&#x2D;&#x61;&#x6C;&#x74;"
      horiz-adv-x="900" d="M449.997054353564 590.625C367.152054353564 590.625 299.9963043535639 523.46625 299.9963043535639 440.625C299.9963043535639 357.7837500000001 367.152054353564 290.625 449.997054353564 290.625C532.8383043535639 290.625 599.997054353564 357.7837500000001 599.997054353564 440.625C599.997054353564 523.46625 532.8383043535639 590.625 449.997054353564 590.625zM374.997054353564 440.625C374.997054353564 482.0475 408.574554353564 515.625 449.997054353564 515.625C491.4158043535639 515.625 524.997054353564 482.0475 524.997054353564 440.625C524.997054353564 399.2025000000001 491.4158043535639 365.625 449.997054353564 365.625C408.574554353564 365.625 374.997054353564 399.2025000000001 374.997054353564 440.625zM443.888304353564 825C373.587054353564 825 312.7133043535639 776.170125 297.462054353564 707.5395L297.027054353564 705.582L295.114179353564 706.183875C228.052929353564 727.2915 155.328804353564 698.9895 120.176679353564 638.10375L114.066804353564 627.52125C78.914304353564 566.6355 90.766179353564 489.5025 142.576554353564 441.97875L144.054054353564 440.625L142.575804353564 439.2675000000001C90.765429353564 391.7475 78.913554353564 314.61375 114.066054353564 253.7287500000001L120.175929353564 243.1462499999999C155.328429353564 182.2612499999999 228.052179353564 153.9599999999999 295.113804353564 175.065L297.026679353564 175.6687500000001L297.462054353564 173.7112500000001C312.7133043535639 105.07875 373.587054353564 56.25 443.888304353564 56.25H456.1095543535639C526.414554353564 56.25 587.288304353564 105.07875 602.539554353564 173.7112500000001L602.9745543535639 175.6687500000001L604.8870543535639 175.065C671.9483043535639 153.9599999999999 744.6720543535639 182.2612499999999 779.8245543535639 243.1462499999999L785.9333043535639 253.7287500000001C821.085804353564 314.61375 809.2358043535638 391.7475 757.4258043535639 439.27125L755.944554353564 440.625L757.4220543535639 441.97875C809.2320543535639 489.5025 821.085804353564 566.6355 785.9333043535639 627.52125L779.8245543535639 638.10375C744.6720543535639 698.9895 671.9483043535639 727.2915 604.8870543535639 706.183875L602.9745543535639 705.582375L602.539554353564 707.5395C587.288304353564 776.170125 526.414554353564 825 456.1095543535639 825H443.888304353564zM370.6770543535639 691.270125C378.300804353564 725.58525 408.735804353564 750 443.888304353564 750H456.1095543535639C491.2620543535639 750 521.6970543535639 725.58525 529.3245543535639 691.26975L529.7595543535639 689.311875C539.295804353564 646.38825 583.5458043535639 620.840625 625.4895543535639 634.04175L627.4020543535639 634.644C660.934554353564 645.197625 697.2945543535639 631.046625 714.8708043535639 600.60375L720.979554353564 590.02125C738.5558043535639 559.578375 732.6308043535639 521.0137500000001 706.725804353564 497.25L705.2483043535639 495.89625C672.844554353564 466.17375 672.844554353564 415.07625 705.2483043535639 385.35375L706.725804353564 384C732.6308043535639 360.23625 738.559554353564 321.67125 720.983304353564 291.2287500000001L714.8708043535639 280.6462499999999C697.2945543535639 250.20375 660.934554353564 236.05125 627.4020543535639 246.6075L625.4895543535639 247.2075C583.5458043535639 260.4112499999999 539.295804353564 234.8625000000001 529.7595543535639 191.9362500000001L529.3245543535639 189.97875C521.6970543535639 155.66625 491.2620543535639 131.25 456.1095543535639 131.25H443.888304353564C408.735804353564 131.25 378.300804353564 155.66625 370.6770543535639 189.97875L370.242054353564 191.9362500000001C360.7020543535639 234.8625000000001 316.452429353564 260.4112499999999 274.509804353564 247.2075L272.596929353564 246.6075C239.065929353564 236.05125 202.704054353564 250.20375 185.127804353564 280.6462499999999L179.017929353564 291.2287500000001C161.441679353564 321.67125 167.367804353564 360.23625 193.272804353564 384L194.751054353564 385.35375C227.154804353564 415.07625 227.154804353564 466.17375 194.751054353564 495.89625L193.273554353564 497.25C167.3681793535639 521.0137500000001 161.442429353564 559.578375 179.018679353564 590.02125L185.128554353564 600.60375C202.704804353564 631.046625 239.066679353564 645.197625 272.5973043535639 634.644L274.5101793535639 634.04175C316.452429353564 620.840625 360.7020543535639 646.38825 370.242054353564 689.31225L370.6770543535639 691.270125z" />
    <glyph glyph-name="conference"
      unicode="&#xF11C;"
      horiz-adv-x="900" d="M112.5 600C112.5 641.421375 146.078625 675 187.5 675H712.5C753.9225 675 787.5 641.421375 787.5 600V262.5C787.5 221.0775 753.9225 187.5 712.5 187.5H562.5L478.47375 89.4675C463.5075000000001 72.0075000000001 436.4925 72.0075000000001 421.52625 89.4675L337.5 187.5H187.5C146.078625 187.5 112.5 221.0775 112.5 262.5V600zM243.75 825C223.0395 825 206.25 808.2105 206.25 787.5V525C206.25 504.28875 223.0395 487.5 243.75 487.5H534.375C555.0862500000001 487.5 571.875 504.28875 571.875 525V559.821375L637.11375 521.1075000000001C662.11125 506.27625 693.75 524.29125 693.75 553.35825V759.14175C693.75 788.209125 662.11125 806.224875 637.11375 791.391375L571.875 752.678625V787.5C571.875 808.2105 555.0862500000001 825 534.375 825H243.75z" />
    <glyph glyph-name="conference-1"
      unicode="&#x63;&#x6F;&#x6E;&#x66;&#x65;&#x72;&#x65;&#x6E;&#x63;&#x65;"
      horiz-adv-x="900" d="M112.5 600C112.5 641.421375 146.078625 675 187.5 675H712.5C753.9225 675 787.5 641.421375 787.5 600V262.5C787.5 221.0775 753.9225 187.5 712.5 187.5H562.5L478.47375 89.4675C463.5075000000001 72.0075000000001 436.4925 72.0075000000001 421.52625 89.4675L337.5 187.5H187.5C146.078625 187.5 112.5 221.0775 112.5 262.5V600zM243.75 825C223.0395 825 206.25 808.2105 206.25 787.5V525C206.25 504.28875 223.0395 487.5 243.75 487.5H534.375C555.0862500000001 487.5 571.875 504.28875 571.875 525V559.821375L637.11375 521.1075000000001C662.11125 506.27625 693.75 524.29125 693.75 553.35825V759.14175C693.75 788.209125 662.11125 806.224875 637.11375 791.391375L571.875 752.678625V787.5C571.875 808.2105 555.0862500000001 825 534.375 825H243.75z" />
    <glyph glyph-name="contact"
      unicode="&#xF11D;"
      horiz-adv-x="900" d="M112.5 487.5A337.5 337.5 0 0 1 787.5 487.5A337.5 337.5 0 0 1 112.5 487.5M529.77375 360.4500000000001C571.96125 386.9925000000001 600 433.9725 600 487.5C600 570.34275 532.84125 637.5 450 637.5C367.1572500000001 637.5 300 570.34275 300 487.5C300 433.9725 328.036875 386.9925000000001 370.226625 360.4500000000001C285.339375 328.2525 225 246.1724999999999 225 150V135C225 101.86125 251.863125 75 285 75H615C648.13875 75 675 101.86125 675 135V150C675 246.1724999999999 614.6587499999999 328.2525 529.77375 360.4500000000001z" />
    <glyph glyph-name="contact-1"
      unicode="&#x63;&#x6F;&#x6E;&#x74;&#x61;&#x63;&#x74;"
      horiz-adv-x="900" d="M112.5 487.5A337.5 337.5 0 0 1 787.5 487.5A337.5 337.5 0 0 1 112.5 487.5M529.77375 360.4500000000001C571.96125 386.9925000000001 600 433.9725 600 487.5C600 570.34275 532.84125 637.5 450 637.5C367.1572500000001 637.5 300 570.34275 300 487.5C300 433.9725 328.036875 386.9925000000001 370.226625 360.4500000000001C285.339375 328.2525 225 246.1724999999999 225 150V135C225 101.86125 251.863125 75 285 75H615C648.13875 75 675 101.86125 675 135V150C675 246.1724999999999 614.6587499999999 328.2525 529.77375 360.4500000000001z" />
    <glyph glyph-name="convert-note"
      unicode="&#xF11E;"
      horiz-adv-x="900" d="M412.5 150C412.5 129.2887500000001 429.28875 112.5 450 112.5H618.75C628.695 112.5 638.235 116.4525 645.26625 123.48375L814.01625 292.23375C821.0475 299.265 825 308.805 825 318.75V337.39875L825 337.5L825 337.605L825 637.5C825 720.34275 757.84125 787.5 675 787.5H300C217.15725 787.5 150 720.34275 150 637.5V543.75C150 523.0387499999999 166.7895 506.25 187.5 506.25C208.210875 506.25 225 523.0387499999999 225 543.75V637.5C225 678.921375 258.578625 712.5 300 712.5L675 712.5C716.4225 712.5 750 678.921375 750 637.5L750 375H637.5C596.0775 375 562.5 341.4225 562.5 300V187.5H450C429.28875 187.5 412.5 170.71125 412.5 150zM637.5 221.7825L715.7175 300H637.5V221.7825zM337.5 600C337.5 620.710875 354.2895000000001 637.5 375 637.5H600C620.71125 637.5 637.5 620.710875 637.5 600C637.5 579.2895000000001 620.71125 562.5 600 562.5H375C354.2895000000001 562.5 337.5 579.2895000000001 337.5 600zM75 225C75 307.84125 142.15725 375 225 375H243.75V412.5C243.75 426.915 252.013125 440.055 265.005375 446.2987500000001C277.998 452.5425 293.4195 450.7875 304.675875 441.7837500000001L398.4262500000001 366.7837500000001C407.32125 359.66625 412.5 348.8925000000001 412.5 337.5C412.5 326.1075 407.32125 315.33375 398.4262500000001 308.21625L304.675875 233.2162500000001C293.4195 224.2125 277.998 222.4575000000001 265.005375 228.7012500000001C252.013125 234.9450000000001 243.75 248.0850000000001 243.75 262.5V300H225C183.578625 300 150 266.4225 150 225C150 183.5775 183.578625 150 225 150H281.25C301.9605 150 318.75 133.21125 318.75 112.5C318.75 91.7887500000001 301.9605 75 281.25 75H225C142.15725 75 75 142.1587500000001 75 225z" />
    <glyph glyph-name="convert-note-1"
      unicode="&#x63;&#x6F;&#x6E;&#x76;&#x65;&#x72;&#x74;&#x2D;&#x6E;&#x6F;&#x74;&#x65;"
      horiz-adv-x="900" d="M412.5 150C412.5 129.2887500000001 429.28875 112.5 450 112.5H618.75C628.695 112.5 638.235 116.4525 645.26625 123.48375L814.01625 292.23375C821.0475 299.265 825 308.805 825 318.75V337.39875L825 337.5L825 337.605L825 637.5C825 720.34275 757.84125 787.5 675 787.5H300C217.15725 787.5 150 720.34275 150 637.5V543.75C150 523.0387499999999 166.7895 506.25 187.5 506.25C208.210875 506.25 225 523.0387499999999 225 543.75V637.5C225 678.921375 258.578625 712.5 300 712.5L675 712.5C716.4225 712.5 750 678.921375 750 637.5L750 375H637.5C596.0775 375 562.5 341.4225 562.5 300V187.5H450C429.28875 187.5 412.5 170.71125 412.5 150zM637.5 221.7825L715.7175 300H637.5V221.7825zM337.5 600C337.5 620.710875 354.2895000000001 637.5 375 637.5H600C620.71125 637.5 637.5 620.710875 637.5 600C637.5 579.2895000000001 620.71125 562.5 600 562.5H375C354.2895000000001 562.5 337.5 579.2895000000001 337.5 600zM75 225C75 307.84125 142.15725 375 225 375H243.75V412.5C243.75 426.915 252.013125 440.055 265.005375 446.2987500000001C277.998 452.5425 293.4195 450.7875 304.675875 441.7837500000001L398.4262500000001 366.7837500000001C407.32125 359.66625 412.5 348.8925000000001 412.5 337.5C412.5 326.1075 407.32125 315.33375 398.4262500000001 308.21625L304.675875 233.2162500000001C293.4195 224.2125 277.998 222.4575000000001 265.005375 228.7012500000001C252.013125 234.9450000000001 243.75 248.0850000000001 243.75 262.5V300H225C183.578625 300 150 266.4225 150 225C150 183.5775 183.578625 150 225 150H281.25C301.9605 150 318.75 133.21125 318.75 112.5C318.75 91.7887500000001 301.9605 75 281.25 75H225C142.15725 75 75 142.1587500000001 75 225z" />
    <glyph glyph-name="copy"
      unicode="&#xF11F;"
      horiz-adv-x="900" d="M225 825C142.15725 825 75 757.84275 75 675V356.25C75 273.4087500000001 142.15725 206.25 225 206.25H543.75C626.59125 206.25 693.75 273.4087500000001 693.75 356.25V675C693.75 757.84275 626.59125 825 543.75 825H225zM150 675C150 716.421375 183.578625 750 225 750H543.75C585.1725 750 618.75 716.421375 618.75 675V356.25C618.75 314.8275 585.1725 281.25 543.75 281.25H225C183.578625 281.25 150 314.8275 150 356.25V675zM825 618.75C825 660.171375 791.4225 693.75 750 693.75V225C750 183.5775 716.4225 150 675 150H206.25C206.25 108.5775 239.828625 75 281.25 75H675C757.84125 75 825 142.1587500000001 825 225V618.75z" />
    <glyph glyph-name="copy-1"
      unicode="&#x63;&#x6F;&#x70;&#x79;"
      horiz-adv-x="900" d="M225 825C142.15725 825 75 757.84275 75 675V356.25C75 273.4087500000001 142.15725 206.25 225 206.25H543.75C626.59125 206.25 693.75 273.4087500000001 693.75 356.25V675C693.75 757.84275 626.59125 825 543.75 825H225zM150 675C150 716.421375 183.578625 750 225 750H543.75C585.1725 750 618.75 716.421375 618.75 675V356.25C618.75 314.8275 585.1725 281.25 543.75 281.25H225C183.578625 281.25 150 314.8275 150 356.25V675zM825 618.75C825 660.171375 791.4225 693.75 750 693.75V225C750 183.5775 716.4225 150 675 150H206.25C206.25 108.5775 239.828625 75 281.25 75H675C757.84125 75 825 142.1587500000001 825 225V618.75z" />
    <glyph glyph-name="delete"
      unicode="&#xF120;"
      horiz-adv-x="900" d="M540 720C559.8828000000001 720 576 736.11756 576 756C576 775.88208 559.8828000000001 792 540 792H360C340.1179200000001 792 324 775.88208 324 756C324 736.11792 340.1179200000001 720 360 720L540 720zM108.0000000000001 648C108.0000000000001 667.88208 124.1179200000001 684 144.0000000000001 684H756C775.8828000000001 684 792 667.88208 792 648C792 628.11756 775.8828000000001 612 756 612H720V216C720 136.4724 655.5276 72 576 72H324C244.4709600000001 72 180.0000000000001 136.4724 180.0000000000001 216V612H144.0000000000001C124.1179200000001 612 108.0000000000001 628.11756 108.0000000000001 648zM252.0000000000001 612H648V216C648 176.2343999999999 615.7656000000001 144 576 144H324C284.2354800000001 144 252.0000000000001 176.2343999999999 252.0000000000001 216V612zM552.0672000000001 451.4796C562.6116000000001 462.024 562.6116000000001 479.1204 552.0672000000001 489.6648C541.5228000000001 500.2092 524.4264000000001 500.2092 513.8820000000001 489.6648L450 425.7828L386.1180000000001 489.6648C375.5736000000001 500.2092 358.4779200000001 500.2092 347.9338800000001 489.6648C337.3894800000001 479.1204 337.3894800000001 462.024 347.9338800000001 451.4796L411.8148000000001 387.5976L347.9338800000001 323.7156C337.3894800000001 313.1712 337.3894800000001 296.0748 347.9338800000001 285.5304C358.4779200000001 274.986 375.5736000000001 274.986 386.1180000000001 285.5304L450 349.4124L513.8820000000001 285.5304C524.4264000000001 274.986 541.5228000000001 274.986 552.0672000000001 285.5304C562.6116000000001 296.0748 562.6116000000001 313.1712 552.0672000000001 323.7156L488.1852 387.5976L552.0672000000001 451.4796z" />
    <glyph glyph-name="delete-1"
      unicode="&#x64;&#x65;&#x6C;&#x65;&#x74;&#x65;"
      horiz-adv-x="900" d="M540 720C559.8828000000001 720 576 736.11756 576 756C576 775.88208 559.8828000000001 792 540 792H360C340.1179200000001 792 324 775.88208 324 756C324 736.11792 340.1179200000001 720 360 720L540 720zM108.0000000000001 648C108.0000000000001 667.88208 124.1179200000001 684 144.0000000000001 684H756C775.8828000000001 684 792 667.88208 792 648C792 628.11756 775.8828000000001 612 756 612H720V216C720 136.4724 655.5276 72 576 72H324C244.4709600000001 72 180.0000000000001 136.4724 180.0000000000001 216V612H144.0000000000001C124.1179200000001 612 108.0000000000001 628.11756 108.0000000000001 648zM252.0000000000001 612H648V216C648 176.2343999999999 615.7656000000001 144 576 144H324C284.2354800000001 144 252.0000000000001 176.2343999999999 252.0000000000001 216V612zM552.0672000000001 451.4796C562.6116000000001 462.024 562.6116000000001 479.1204 552.0672000000001 489.6648C541.5228000000001 500.2092 524.4264000000001 500.2092 513.8820000000001 489.6648L450 425.7828L386.1180000000001 489.6648C375.5736000000001 500.2092 358.4779200000001 500.2092 347.9338800000001 489.6648C337.3894800000001 479.1204 337.3894800000001 462.024 347.9338800000001 451.4796L411.8148000000001 387.5976L347.9338800000001 323.7156C337.3894800000001 313.1712 337.3894800000001 296.0748 347.9338800000001 285.5304C358.4779200000001 274.986 375.5736000000001 274.986 386.1180000000001 285.5304L450 349.4124L513.8820000000001 285.5304C524.4264000000001 274.986 541.5228000000001 274.986 552.0672000000001 285.5304C562.6116000000001 296.0748 562.6116000000001 313.1712 552.0672000000001 323.7156L488.1852 387.5976L552.0672000000001 451.4796z" />
    <glyph glyph-name="do-not-distrub"
      unicode="&#xF121;"
      horiz-adv-x="900" d="M450 750C284.3145 750 150 615.6855 150 450C150 284.3137500000001 284.3145 150 450 150C615.68625 150 750 284.3137500000001 750 450C750 615.6855 615.68625 750 450 750zM75 450C75 657.106875 242.893125 825 450 825C657.105 825 825 657.106875 825 450C825 242.895 657.105 75 450 75C242.893125 75 75 242.895 75 450zM225 506.25C225 526.9604999999999 241.7895 543.75 262.5 543.75H637.5C658.21125 543.75 675 526.9604999999999 675 506.25V393.75C675 373.03875 658.21125 356.25 637.5 356.25H262.5C241.7895 356.25 225 373.03875 225 393.75V506.25zM300 468.75V431.25H600V468.75H300z" />
    <glyph glyph-name="do-not-distrub-1"
      unicode="&#x64;&#x6F;&#x2D;&#x6E;&#x6F;&#x74;&#x2D;&#x64;&#x69;&#x73;&#x74;&#x72;&#x75;&#x62;"
      horiz-adv-x="900" d="M450 750C284.3145 750 150 615.6855 150 450C150 284.3137500000001 284.3145 150 450 150C615.68625 150 750 284.3137500000001 750 450C750 615.6855 615.68625 750 450 750zM75 450C75 657.106875 242.893125 825 450 825C657.105 825 825 657.106875 825 450C825 242.895 657.105 75 450 75C242.893125 75 75 242.895 75 450zM225 506.25C225 526.9604999999999 241.7895 543.75 262.5 543.75H637.5C658.21125 543.75 675 526.9604999999999 675 506.25V393.75C675 373.03875 658.21125 356.25 637.5 356.25H262.5C241.7895 356.25 225 373.03875 225 393.75V506.25zM300 468.75V431.25H600V468.75H300z" />
    <glyph glyph-name="down"
      unicode="&#xF122;"
      horiz-adv-x="900" d="M238.2352941176471 476.4705882352941L450 264.7058823529412L661.7647058823529 476.4705882352941L238.2352941176471 476.4705882352941z" />
    <glyph glyph-name="down-1"
      unicode="&#x64;&#x6F;&#x77;&#x6E;"
      horiz-adv-x="900" d="M238.2352941176471 476.4705882352941L450 264.7058823529412L661.7647058823529 476.4705882352941L238.2352941176471 476.4705882352941z" />
    <glyph glyph-name="download"
      unicode="&#xF123;"
      horiz-adv-x="900" d="M450 792C469.8828000000001 792 486 775.88208 486 756V410.9112L640.5444 565.45596C654.6024000000001 579.51468 677.3976000000001 579.51468 691.4556000000001 565.45596C705.5136 551.39688 705.5136 528.60312 691.4556000000001 514.54404L475.4808 298.5696000000001C468.9648000000001 292.0392 459.9540000000001 288 450 288C440.0460000000001 288 431.0352000000001 292.0392 424.5192000000001 298.5696000000001L208.5444000000001 514.54404C194.4853200000001 528.60312 194.4853200000001 551.39688 208.5444000000001 565.45596C222.6031200000001 579.51468 245.3972400000001 579.51468 259.4559600000001 565.45596L414 410.9112V756C414 775.88208 430.1172000000001 792 450 792zM162.0000000000001 288C162.0000000000001 307.8828 145.8824400000001 324 126.0000000000001 324C106.1179200000001 324 90.0000000000001 307.8828 90.0000000000001 288V216C90.0000000000001 136.4724 154.4713200000001 72 234.0000000000001 72H666C745.5276 72 810 136.4724 810 216V288C810 307.8828 793.8828000000001 324 774 324C754.1172000000001 324 738 307.8828 738 288V216C738 176.2343999999999 705.7656000000001 144 666 144H234.0000000000001C194.2354800000001 144 162.0000000000001 176.2343999999999 162.0000000000001 216V288z" />
    <glyph glyph-name="download-1"
      unicode="&#x64;&#x6F;&#x77;&#x6E;&#x6C;&#x6F;&#x61;&#x64;"
      horiz-adv-x="900" d="M450 792C469.8828000000001 792 486 775.88208 486 756V410.9112L640.5444 565.45596C654.6024000000001 579.51468 677.3976000000001 579.51468 691.4556000000001 565.45596C705.5136 551.39688 705.5136 528.60312 691.4556000000001 514.54404L475.4808 298.5696000000001C468.9648000000001 292.0392 459.9540000000001 288 450 288C440.0460000000001 288 431.0352000000001 292.0392 424.5192000000001 298.5696000000001L208.5444000000001 514.54404C194.4853200000001 528.60312 194.4853200000001 551.39688 208.5444000000001 565.45596C222.6031200000001 579.51468 245.3972400000001 579.51468 259.4559600000001 565.45596L414 410.9112V756C414 775.88208 430.1172000000001 792 450 792zM162.0000000000001 288C162.0000000000001 307.8828 145.8824400000001 324 126.0000000000001 324C106.1179200000001 324 90.0000000000001 307.8828 90.0000000000001 288V216C90.0000000000001 136.4724 154.4713200000001 72 234.0000000000001 72H666C745.5276 72 810 136.4724 810 216V288C810 307.8828 793.8828000000001 324 774 324C754.1172000000001 324 738 307.8828 738 288V216C738 176.2343999999999 705.7656000000001 144 666 144H234.0000000000001C194.2354800000001 144 162.0000000000001 176.2343999999999 162.0000000000001 216V288z" />
    </font>
</defs>
</svg>
