<svg width="24" height="24" viewBox="0 0 24 24" fill="none" xmlns="http://www.w3.org/2000/svg">
<path fill-rule="evenodd" clip-rule="evenodd" d="M11.9995 4C12.5518 4 12.9995 4.44772 12.9995 5L12.9995 19C12.9995 19.5523 12.5518 20 11.9995 20C11.4472 20 10.9995 19.5523 10.9995 19L10.9995 5C10.9995 4.44772 11.4472 4 11.9995 4Z" fill="#9AA1B4"/>
<path fill-rule="evenodd" clip-rule="evenodd" d="M19.7066 12.7071C19.3161 13.0976 18.6829 13.0976 18.2924 12.7071L11.9995 6.41421L5.70662 12.7071C5.31609 13.0976 4.68293 13.0976 4.2924 12.7071C3.90188 12.3166 3.90188 11.6834 4.2924 11.2929L11.2924 4.29289C11.6829 3.90237 12.3161 3.90237 12.7066 4.29289L19.7066 11.2929C20.0971 11.6834 20.0971 12.3166 19.7066 12.7071Z" fill="#9AA1B4"/>
</svg>
