<svg width="25" height="24" viewBox="0 0 25 24" fill="none" xmlns="http://www.w3.org/2000/svg">
<path d="M11.2271 7.75C11.7793 7.75 12.2271 8.19772 12.2271 8.75V10.75H14.2271C14.7793 10.75 15.2271 11.1977 15.2271 11.75C15.2271 12.3023 14.7793 12.75 14.2271 12.75H12.2271V14.75C12.2271 15.3023 11.7793 15.75 11.2271 15.75C10.6748 15.75 10.2271 15.3023 10.2271 14.75V12.75H8.22705C7.67477 12.75 7.22705 12.3023 7.22705 11.75C7.22705 11.1977 7.67477 10.75 8.22705 10.75H10.2271V8.75C10.2271 8.19772 10.6748 7.75 11.2271 7.75Z" fill="#9AA1B4"/>
<path fill-rule="evenodd" clip-rule="evenodd" d="M20.4771 7.5V15.5H21.4771C22.0293 15.5 22.4771 15.9477 22.4771 16.5C22.4771 17.0523 22.0293 17.5 21.4771 17.5H20.4461C20.2001 19.4732 18.5169 21 16.477 21H6.47705C4.26791 21 2.47705 19.2091 2.47705 17V6C2.47705 3.79086 4.26791 2 6.47705 2H16.4771C18.5169 2 20.2001 3.52684 20.4461 5.5H21.4771C22.0293 5.5 22.4771 5.94772 22.4771 6.5C22.4771 7.05229 22.0293 7.5 21.4771 7.5H20.4771ZM18.414 5.5H17.9771C17.4248 5.5 16.9771 5.94772 16.9771 6.5C16.9771 7.05228 17.4248 7.5 17.9771 7.5H18.4771L18.477 15.5H17.9771C17.4248 15.5 16.9771 15.9477 16.9771 16.5C16.9771 17.0523 17.4248 17.5 17.9771 17.5H18.414C18.192 18.3626 17.409 19 16.477 19H6.47705C5.37248 19 4.47705 18.1046 4.47705 17L4.47705 6C4.47705 4.89543 5.37248 4 6.47705 4L16.4771 4C17.409 4 18.192 4.63739 18.414 5.5Z" fill="#9AA1B4"/>
</svg>
