<svg width="25" height="24" viewBox="0 0 25 24" fill="none" xmlns="http://www.w3.org/2000/svg">
<path fill-rule="evenodd" clip-rule="evenodd" d="M4.24658 12C4.24658 7.58172 7.8283 4 12.2466 4C12.5478 4 12.8448 4.0166 13.1367 4.04887C13.6856 4.10956 14.1798 3.71374 14.2405 3.1648C14.3012 2.61586 13.9054 2.12167 13.3565 2.06098C12.9917 2.02066 12.6214 2 12.2466 2C6.72373 2 2.24658 6.47715 2.24658 12C2.24658 17.5228 6.72373 22 12.2466 22C17.7694 22 22.2466 17.5228 22.2466 12C22.2466 11.6252 22.2259 11.2549 22.1856 10.8901C22.1249 10.3412 21.6307 9.94537 21.0818 10.0061C20.5328 10.0667 20.137 10.5609 20.1977 11.1099C20.23 11.4018 20.2466 11.6988 20.2466 12C20.2466 16.4183 16.6649 20 12.2466 20C7.8283 20 4.24658 16.4183 4.24658 12ZM10.4468 10.5C10.4468 11.3284 9.7752 12 8.94678 12C8.11835 12 7.44678 11.3284 7.44678 10.5C7.44678 9.67157 8.11835 9 8.94678 9C9.7752 9 10.4468 9.67157 10.4468 10.5ZM17.0464 10.5C17.0464 11.3284 16.3748 12 15.5464 12C14.718 12 14.0464 11.3284 14.0464 10.5C14.0464 9.67157 14.718 9 15.5464 9C16.3748 9 17.0464 9.67157 17.0464 10.5ZM8.74635 14C8.58043 14 8.42533 14.0823 8.33231 14.2197C8.2393 14.3571 8.22085 14.5325 8.28247 14.6866L8.28292 14.6877L8.28412 14.6907L8.28766 14.6993L8.29941 14.7269C8.30932 14.7498 8.32345 14.7814 8.34193 14.8206C8.37886 14.899 8.43339 15.0078 8.50665 15.1371C8.65261 15.3947 8.87604 15.7387 9.1872 16.0845C9.81022 16.7767 10.8104 17.5 12.2463 17.5C13.6823 17.5 14.6825 16.7767 15.3055 16.0845C15.6167 15.7387 15.8401 15.3947 15.986 15.1371C16.0593 15.0078 16.1138 14.899 16.1508 14.8206C16.1692 14.7814 16.1834 14.7498 16.1933 14.7269L16.205 14.6993L16.2086 14.6907L16.2098 14.6877L16.2106 14.6857C16.2722 14.5316 16.2534 14.3571 16.1604 14.2197C16.0674 14.0823 15.9123 14 15.7463 14H8.74635ZM8.74635 14.5C8.28211 14.6857 8.28238 14.6864 8.28247 14.6866L8.74635 14.5ZM15.2466 5.5C15.2466 4.94772 15.6943 4.5 16.2466 4.5H17.7466V3C17.7466 2.44772 18.1943 2 18.7466 2C19.2989 2 19.7466 2.44772 19.7466 3V4.5H21.2466C21.7989 4.5 22.2466 4.94772 22.2466 5.5C22.2466 6.05228 21.7989 6.5 21.2466 6.5H19.7466V8C19.7466 8.55228 19.2989 9 18.7466 9C18.1943 9 17.7466 8.55228 17.7466 8V6.5H16.2466C15.6943 6.5 15.2466 6.05228 15.2466 5.5Z" fill="#9AA1B4"/>
</svg>
