<?xml version="1.0" encoding="utf-8"?>
<!-- Generator: Adobe Illustrator 22.1.0, SVG Export Plug-In . SVG Version: 6.00 Build 0)  -->
<svg version="1.1" id="Layer_1" xmlns="http://www.w3.org/2000/svg" xmlns:xlink="http://www.w3.org/1999/xlink" x="0px" y="0px"
	 viewBox="0 0 25 24" style="enable-background:new 0 0 25 24;" xml:space="preserve">
<style type="text/css">
	.st0{fill:#9AA1B4;}
</style>
<path class="st0" d="M13.8,13.7c-0.5-0.4-1-0.8-1.6-1.1c0.8-0.8,1.3-2,1.3-3.3V7.6c0-2.5-2-4.6-4.5-4.6C6.6,3,4.6,5.1,4.6,7.6v1.8
	c0,1.3,0.5,2.4,1.3,3.3c-0.6,0.3-1.1,0.6-1.6,1.1c-1.2,1.1-2,2.8-2.2,4.7C2,19.6,3,20.5,4.1,20.5h10c1.1,0,2.1-0.9,1.9-2.1
	C15.8,16.5,15.1,14.9,13.8,13.7z M6.6,7.6C6.6,6.1,7.7,5,9.1,5s2.5,1.1,2.5,2.6v1.8c0,1.5-1.1,2.6-2.5,2.6s-2.5-1.1-2.5-2.6V7.6z
	 M4.2,18.5c0.2-1.5,0.7-2.6,1.6-3.3c0.8-0.8,2-1.2,3.4-1.2s2.6,0.4,3.4,1.2c0.8,0.7,1.4,1.8,1.6,3.3H4.2z"/>
<path class="st0" d="M17.6,12.5c0,0.6,0.4,1,1,1c0.6,0,1-0.4,1-1V11h1.5c0.6,0,1-0.4,1-1c0-0.6-0.4-1-1-1h-1.5V7.5c0-0.6-0.4-1-1-1
	c-0.6,0-1,0.4-1,1V9h-1.5c-0.6,0-1,0.4-1,1c0,0.6,0.4,1,1,1h1.5V12.5z"/>
</svg>
