<svg width="25" height="24" viewBox="0 0 25 24" fill="none" xmlns="http://www.w3.org/2000/svg">
<path fill-rule="evenodd" clip-rule="evenodd" d="M13.4771 12C12.3725 12 11.4771 12.8954 11.4771 14C11.4771 14.5523 11.0293 15 10.4771 15C9.92477 15 9.47705 14.5523 9.47705 14C9.47705 12.6915 10.1054 11.5297 11.0768 10.7999C10.7002 10.2985 10.4771 9.67533 10.4771 9C10.4771 7.34315 11.8202 6 13.4771 6C15.1339 6 16.4771 7.34315 16.4771 9C16.4771 9.67533 16.2539 10.2985 15.8773 10.7999C16.8487 11.5297 17.4771 12.6915 17.4771 14C17.4771 14.5523 17.0293 15 16.4771 15C15.9248 15 15.4771 14.5523 15.4771 14C15.4771 12.8954 14.5816 12 13.4771 12ZM12.4771 9C12.4771 8.44772 12.9248 8 13.4771 8C14.0293 8 14.4771 8.44772 14.4771 9C14.4771 9.55228 14.0293 10 13.4771 10C12.9248 10 12.4771 9.55228 12.4771 9Z" fill="#9AA1B4"/>
<path fill-rule="evenodd" clip-rule="evenodd" d="M5.47705 2C4.92477 2 4.47705 2.44772 4.47705 3V6H3.47705C2.92477 6 2.47705 6.44772 2.47705 7C2.47705 7.55228 2.92477 8 3.47705 8H4.47705V11H3.47705C2.92477 11 2.47705 11.4477 2.47705 12C2.47705 12.5523 2.92477 13 3.47705 13H4.47705V16H3.47705C2.92477 16 2.47705 16.4477 2.47705 17C2.47705 17.5523 2.92477 18 3.47705 18H4.47705V21C4.47705 21.5523 4.92477 22 5.47705 22H17.4771C19.6862 22 21.4771 20.2091 21.4771 18V6C21.4771 3.79086 19.6862 2 17.4771 2H5.47705ZM6.47705 18V20H17.4771C18.5816 20 19.4771 19.1046 19.4771 18V6C19.4771 4.89543 18.5816 4 17.4771 4H6.47705V6C7.02934 6 7.47705 6.44772 7.47705 7C7.47705 7.55228 7.02934 8 6.47705 8V11C7.02934 11 7.47705 11.4477 7.47705 12C7.47705 12.5523 7.02934 13 6.47705 13V16C7.02934 16 7.47705 16.4477 7.47705 17C7.47705 17.5523 7.02934 18 6.47705 18Z" fill="#9AA1B4"/>
</svg>
