<svg width="25" height="24" viewBox="0 0 25 24" fill="none" xmlns="http://www.w3.org/2000/svg">
<path fill-rule="evenodd" clip-rule="evenodd" d="M8.57935 3.95248C10.088 1.14084 14.1199 1.14084 15.6286 3.95248L21.6143 15.1075C23.0441 17.7723 21.1138 20.9988 18.0896 20.9988L6.11835 20.9988C3.09422 20.9988 1.16385 17.7723 2.59371 15.1075L8.57935 3.95248ZM13.8663 4.89811C13.112 3.4923 11.096 3.49229 10.3417 4.89812L4.35603 16.0532C3.6411 17.3855 4.60628 18.9988 6.11835 18.9988L18.0896 18.9988C19.6017 18.9988 20.5669 17.3855 19.852 16.0532L13.8663 4.89811Z" fill="#9AA1B4"/>
<path fill-rule="evenodd" clip-rule="evenodd" d="M12.104 7.5C12.6563 7.5 13.104 7.94772 13.104 8.5V13C13.104 13.5523 12.6563 14 12.104 14C11.5517 14 11.104 13.5523 11.104 13V8.5C11.104 7.94772 11.5517 7.5 12.104 7.5Z" fill="#9AA1B4"/>
<path d="M13.104 16.5C13.104 17.0523 12.6563 17.5 12.104 17.5C11.5517 17.5 11.104 17.0523 11.104 16.5C11.104 15.9477 11.5517 15.5 12.104 15.5C12.6563 15.5 13.104 15.9477 13.104 16.5Z" fill="#9AA1B4"/>
</svg>
