<svg width="16" height="16" viewBox="0 0 16 16" fill="none" xmlns="http://www.w3.org/2000/svg">
<path fill-rule="evenodd" clip-rule="evenodd" d="M2.25 5.5C2.25 5.08579 2.58579 4.75 3 4.75H13C13.4142 4.75 13.75 5.08579 13.75 5.5V12C13.75 13.5188 12.5188 14.75 11 14.75H5C3.48122 14.75 2.25 13.5188 2.25 12V5.5ZM3.75 6.25V12C3.75 12.6904 4.30964 13.25 5 13.25H11C11.6904 13.25 12.25 12.6904 12.25 12V6.25H3.75Z" fill="#9AA1B4"/>
<path fill-rule="evenodd" clip-rule="evenodd" d="M1.25 3C1.25 2.0335 2.0335 1.25 3 1.25H13C13.9665 1.25 14.75 2.0335 14.75 3V4.5C14.75 5.4665 13.9665 6.25 13 6.25H3C2.0335 6.25 1.25 5.4665 1.25 4.5V3ZM3 2.75C2.86193 2.75 2.75 2.86193 2.75 3V4.5C2.75 4.63807 2.86193 4.75 3 4.75H13C13.1381 4.75 13.25 4.63807 13.25 4.5V3C13.25 2.86193 13.1381 2.75 13 2.75H3Z" fill="#9AA1B4"/>
<path fill-rule="evenodd" clip-rule="evenodd" d="M6.25 8C6.25 7.58579 6.58579 7.25 7 7.25H9C9.41421 7.25 9.75 7.58579 9.75 8C9.75 8.41421 9.41421 8.75 9 8.75H7C6.58579 8.75 6.25 8.41421 6.25 8Z" fill="#9AA1B4"/>
</svg>
