<?xml version="1.0" encoding="utf-8"?>
<!-- Generator: Adobe Illustrator 22.1.0, SVG Export Plug-In . SVG Version: 6.00 Build 0)  -->
<svg version="1.1" id="Layer_1" xmlns="http://www.w3.org/2000/svg" xmlns:xlink="http://www.w3.org/1999/xlink" x="0px" y="0px"
	 viewBox="0 0 24 24" style="enable-background:new 0 0 24 24;" xml:space="preserve">
<style type="text/css">
	.st0{fill:#9AA1B4;}
</style>
<g>
	<path class="st0" d="M19.5,5.5V5c0-1.7-1.3-3-3-3H5C3.3,2,2,3.3,2,5v11.5c0,1.7,1.3,3,3,3h0.5C5.8,20.9,7,22,8.5,22h8
		c0.3,0,0.5-0.1,0.7-0.3l4.5-4.5c0.2-0.2,0.3-0.4,0.3-0.7v-8C22,7,20.9,5.8,19.5,5.5z M5.5,8.5v9H5c-0.6,0-1-0.4-1-1V5
		c0-0.6,0.4-1,1-1h11.5c0.6,0,1,0.4,1,1v0.5h-9C6.8,5.5,5.5,6.8,5.5,8.5z M16.5,19.6v-3.1h3.1L16.5,19.6z M20,14.5h-3.5
		c-1.1,0-2,0.9-2,2V20h-6c-0.6,0-1-0.4-1-1V8.5c0-0.6,0.4-1,1-1H19c0.6,0,1,0.4,1,1V14.5z"/>
	<path class="st0" d="M16,9h-6c-0.6,0-1,0.4-1,1s0.4,1,1,1h6c0.6,0,1-0.4,1-1S16.6,9,16,9z"/>
	<path class="st0" d="M12,13h-2c-0.6,0-1,0.4-1,1s0.4,1,1,1h2c0.6,0,1-0.4,1-1S12.6,13,12,13z"/>
</g>
</svg>
