<svg width="32" height="32" viewBox="0 0 32 32" fill="none" xmlns="http://www.w3.org/2000/svg">
<path d="M24.4586 11.6132C23.5159 11.6132 22.7533 12.3759 22.7533 13.3172V19.3572C22.7533 19.8095 22.9329 20.2432 23.2528 20.563C23.5726 20.8829 24.0063 21.0625 24.4586 21.0625C24.9109 21.0625 25.3446 20.8829 25.6645 20.563C25.9843 20.2432 26.1639 19.8095 26.1639 19.3572V13.3172C26.1639 12.3759 25.4013 11.6132 24.4586 11.6132ZM7.54127 11.6132C6.5986 11.6132 5.83594 12.3759 5.83594 13.3172V19.3572C5.83594 19.8095 6.01561 20.2432 6.33542 20.563C6.65523 20.8829 7.08899 21.0625 7.54127 21.0625C7.99355 21.0625 8.42731 20.8829 8.74712 20.563C9.06694 20.2432 9.2466 19.8095 9.2466 19.3572V13.3172C9.24678 13.0933 9.20278 12.8715 9.11713 12.6646C9.03147 12.4577 8.90584 12.2697 8.74743 12.1114C8.58903 11.9531 8.40095 11.8276 8.19398 11.7422C7.98701 11.6567 7.76521 11.6128 7.54127 11.6132ZM19.3933 6.53452L20.4173 4.68385C20.4472 4.63116 20.4664 4.57305 20.4736 4.5129C20.4809 4.45274 20.4762 4.39173 20.4597 4.33343C20.4432 4.27512 20.4153 4.22067 20.3775 4.17325C20.3398 4.12583 20.293 4.08638 20.2399 4.05718C20.187 4.02733 20.1286 4.00829 20.0683 4.00119C20.0079 3.99409 19.9467 3.99905 19.8883 4.0158C19.8298 4.03255 19.7753 4.06075 19.7279 4.09875C19.6804 4.13676 19.641 4.18381 19.6119 4.23718L18.5599 6.13052C17.7759 5.81718 16.9119 5.63985 15.9999 5.63985C15.0879 5.63985 14.2239 5.81585 13.4399 6.12918L12.3879 4.23852C12.3588 4.18515 12.3194 4.13809 12.272 4.10008C12.2246 4.06208 12.17 4.03388 12.1116 4.01713C12.0532 4.00039 11.992 3.99542 11.9316 4.00252C11.8712 4.00963 11.8129 4.02866 11.7599 4.05852C11.7071 4.08797 11.6606 4.12756 11.6231 4.17501C11.5855 4.22247 11.5577 4.27686 11.5413 4.33507C11.5248 4.39328 11.52 4.45416 11.5271 4.51424C11.5342 4.57432 11.553 4.63241 11.5826 4.68518L12.6066 6.53585C10.7626 7.58652 9.5306 9.46518 9.5306 11.6132C9.5306 11.6279 9.5306 11.6412 9.53327 11.6585C9.5306 11.6665 9.5306 11.6759 9.5306 11.6839V11.6852H22.4679V11.6132C22.4693 9.46518 21.2373 7.58785 19.3933 6.53452ZM13.0133 9.15852C12.9526 9.15808 12.8926 9.1457 12.8367 9.12208C12.7808 9.09845 12.7302 9.06405 12.6876 9.02084C12.6015 8.93358 12.5537 8.81571 12.5546 8.69318C12.5555 8.57065 12.605 8.45349 12.6923 8.36748C12.7795 8.28146 12.8974 8.23363 13.0199 8.23452C13.1425 8.2354 13.2596 8.28493 13.3456 8.37219C13.4317 8.45946 13.4795 8.57732 13.4786 8.69985C13.4777 8.82238 13.4282 8.93954 13.3409 9.02556C13.2537 9.11158 13.1358 9.1594 13.0133 9.15852ZM18.9866 9.15852C18.8703 9.14967 18.7616 9.09723 18.6824 9.01169C18.6031 8.92614 18.559 8.81382 18.559 8.69718C18.559 8.58055 18.6031 8.46823 18.6824 8.38268C18.7616 8.29714 18.8703 8.2447 18.9866 8.23585C19.109 8.23585 19.2263 8.28446 19.3128 8.37097C19.3993 8.45749 19.4479 8.57483 19.4479 8.69718C19.4479 8.81954 19.3993 8.93688 19.3128 9.0234C19.2263 9.10991 19.109 9.15852 18.9866 9.15852ZM9.5306 21.4932C9.5306 22.3545 10.2306 23.0545 11.0959 23.0545H11.8773V26.2559C11.8773 26.7081 12.0569 27.1419 12.3768 27.4617C12.6966 27.7815 13.1303 27.9612 13.5826 27.9612C14.0349 27.9612 14.4686 27.7815 14.7885 27.4617C15.1083 27.1419 15.2879 26.7081 15.2879 26.2559V23.0545H16.7093V26.2559C16.7093 27.1985 17.4719 27.9599 18.4119 27.9599C19.3573 27.9599 20.1199 27.1985 20.1199 26.2559V23.0545H20.9013C21.7653 23.0545 22.4666 22.3559 22.4666 21.4932V12.0372H9.5306V21.4932Z" fill="#9AA1B4"/>
</svg>
