<svg width="24" height="24" viewBox="0 0 24 24" fill="none" xmlns="http://www.w3.org/2000/svg">
<path fill-rule="evenodd" clip-rule="evenodd" d="M10.4172 3.79469C10.8067 4.1862 10.8051 4.81936 10.4136 5.2089L5.47122 10.1263C3.50959 12.0781 3.50959 15.2403 5.47122 17.192C7.44142 19.1523 10.6399 19.1456 12.6018 17.1773L19.1245 10.6336C20.2953 9.45904 20.2913 7.56579 19.1156 6.39601C17.9293 5.21564 16.0022 5.22069 14.8221 6.40718L8.31564 12.9489C7.92637 13.3403 7.928 13.969 8.31937 14.3584C8.717 14.754 9.36444 14.7517 9.75917 14.3533L16.2492 7.80365C16.6379 7.41134 17.271 7.40845 17.6634 7.79718C18.0557 8.18591 18.0586 8.81907 17.6698 9.21138L11.1798 15.761C10.0065 16.9452 8.09048 16.9519 6.90875 15.7762C5.73448 14.6078 5.72947 12.713 6.89761 11.5385L13.404 4.99679C15.3632 3.02702 18.5568 3.01872 20.5263 4.97822C22.4855 6.92754 22.4921 10.0881 20.541 12.0456L14.0183 18.5893C11.2771 21.3394 6.81328 21.3486 4.06059 18.6098C1.31314 15.8762 1.31314 11.4421 4.06059 8.70855L9.00301 3.7911C9.39452 3.40157 10.0277 3.40317 10.4172 3.79469Z" fill="#9AA1B4"/>
</svg>
