<svg width="25" height="24" viewBox="0 0 25 24" fill="none" xmlns="http://www.w3.org/2000/svg">
<path d="M18.2466 10C18.2466 10.5523 17.7989 11 17.2466 11L11.2466 11C10.6943 11 10.2466 10.5523 10.2466 10C10.2466 9.44771 10.6943 9 11.2466 9L17.2466 9C17.7989 9 18.2466 9.44772 18.2466 10Z" fill="#9AA1B4"/>
<path d="M17.2466 15C17.7989 15 18.2466 14.5523 18.2466 14C18.2466 13.4477 17.7989 13 17.2466 13L11.2466 13C10.6943 13 10.2466 13.4477 10.2466 14C10.2466 14.5523 10.6943 15 11.2466 15L17.2466 15Z" fill="#9AA1B4"/>
<path d="M8.74658 14C8.74658 14.6904 8.18694 15.25 7.49658 15.25C6.80623 15.25 6.24658 14.6904 6.24658 14C6.24658 13.3096 6.80623 12.75 7.49658 12.75C8.18694 12.75 8.74658 13.3096 8.74658 14Z" fill="#9AA1B4"/>
<path d="M7.49658 11.25C8.18694 11.25 8.74658 10.6904 8.74658 10C8.74658 9.30964 8.18694 8.75 7.49658 8.75C6.80623 8.75 6.24658 9.30964 6.24658 10C6.24658 10.6904 6.80623 11.25 7.49658 11.25Z" fill="#9AA1B4"/>
<path fill-rule="evenodd" clip-rule="evenodd" d="M2.24658 7.5C2.24658 5.29086 4.03744 3.5 6.24658 3.5H18.2466C20.4557 3.5 22.2466 5.29086 22.2466 7.5V16.5C22.2466 18.7091 20.4557 20.5 18.2466 20.5H6.24658C4.03744 20.5 2.24658 18.7091 2.24658 16.5V7.5ZM6.24658 5.5C5.14201 5.5 4.24658 6.39543 4.24658 7.5V16.5C4.24658 17.6046 5.14201 18.5 6.24658 18.5H18.2466C19.3512 18.5 20.2466 17.6046 20.2466 16.5V7.5C20.2466 6.39543 19.3512 5.5 18.2466 5.5H6.24658Z" fill="#9AA1B4"/>
</svg>
