<svg width="25" height="24" viewBox="0 0 25 24" fill="none" xmlns="http://www.w3.org/2000/svg">
<path fill-rule="evenodd" clip-rule="evenodd" d="M12.2466 4C7.8283 4 4.24658 7.58172 4.24658 12C4.24658 16.4183 7.8283 20 12.2466 20C13.5143 20 14.7104 19.7059 15.7731 19.183L16.1519 18.9966L16.5497 19.1382C17.6231 19.5201 18.7603 19.7852 19.8745 19.8511C19.4704 19.1356 19.0746 18.3403 18.7205 17.5572L18.4863 17.0391L18.8117 16.5729C19.7162 15.2771 20.2466 13.702 20.2466 12C20.2466 7.58172 16.6649 4 12.2466 4ZM2.24658 12C2.24658 6.47715 6.72373 2 12.2466 2C17.7694 2 22.2466 6.47715 22.2466 12C22.2466 13.9153 21.7072 15.707 20.7722 17.2288C21.1748 18.0793 21.6094 18.8962 22.0229 19.5512C22.5592 20.4007 22.1416 21.8018 20.8556 21.8576C19.2826 21.9257 17.7008 21.6251 16.2717 21.1566C15.0391 21.6992 13.6768 22 12.2466 22C6.72373 22 2.24658 17.5228 2.24658 12ZM11.7466 10C11.7466 10.5523 11.2989 11 10.7466 11H8.74658C8.1943 11 7.74658 10.5523 7.74658 10C7.74658 9.44772 8.1943 9 8.74658 9H10.7466C11.2989 9 11.7466 9.44772 11.7466 10ZM15.7466 15C16.2989 15 16.7466 14.5523 16.7466 14C16.7466 13.4477 16.2989 13 15.7466 13H8.74658C8.1943 13 7.74658 13.4477 7.74658 14C7.74658 14.5523 8.1943 15 8.74658 15H15.7466Z" fill="#9AA1B4"/>
</svg>
