<svg width="24" height="24" viewBox="0 0 24 24" fill="none" xmlns="http://www.w3.org/2000/svg">
<circle cx="12" cy="12" r="9" fill="#3663F2"/>
<path fill-rule="evenodd" clip-rule="evenodd" d="M12 20C16.4183 20 20 16.4183 20 12C20 7.58172 16.4183 4 12 4C7.58172 4 4 7.58172 4 12C4 16.4183 7.58172 20 12 20ZM12 22C17.5228 22 22 17.5228 22 12C22 6.47715 17.5228 2 12 2C6.47715 2 2 6.47715 2 12C2 17.5228 6.47715 22 12 22Z" fill="#3663F2"/>
<path fill-rule="evenodd" clip-rule="evenodd" d="M12.3058 15.1071L16.2481 10.3071C16.6238 9.84967 16.575 9.16545 16.1298 8.77003C15.6731 8.36434 14.9831 8.42417 14.598 8.89303L11.4494 12.7266L9.87492 10.952C9.47154 10.4974 8.77955 10.4667 8.33948 10.889C7.91055 11.3006 7.88554 11.9861 8.27891 12.4295L10.6828 15.1388C10.8893 15.3716 11.1868 15.5061 11.5018 15.4998C11.8166 15.4936 12.1084 15.3474 12.3058 15.1071ZM11.4641 13.4965L14.9844 9.21037C15.1913 8.95841 15.5555 8.92862 15.7978 9.14384C15.828 9.17074 15.855 9.2002 15.8786 9.23164C15.855 9.2002 15.8281 9.17075 15.7978 9.14385C15.5555 8.92863 15.1913 8.95842 14.9844 9.21038L11.4641 13.4965L11.4641 13.4965ZM8.55814 11.9536C8.44937 11.7216 8.49394 11.4338 8.68569 11.2498C8.91985 11.0251 9.28485 11.0403 9.50092 11.2838L9.50091 11.2838C9.28484 11.0403 8.91985 11.0251 8.68568 11.2498C8.49394 11.4338 8.44937 11.7216 8.55814 11.9536Z" fill="white"/>
</svg>
