<svg width="24" height="24" viewBox="0 0 24 24" fill="none" xmlns="http://www.w3.org/2000/svg">
<path d="M3 8C3 6.89543 3.89543 6 5 6H19C20.1046 6 21 6.89543 21 8V17C21 18.1046 20.1046 19 19 19H15L12.7593 21.6142C12.3602 22.0798 11.6398 22.0798 11.2407 21.6142L9 19H5C3.89543 19 3 18.1046 3 17V8Z" fill="#B2CCFF"/>
<path fill-rule="evenodd" clip-rule="evenodd" d="M6.5 2C5.94772 2 5.5 2.44772 5.5 3V10C5.5 10.5523 5.94772 11 6.5 11H14.25C14.8023 11 15.25 10.5523 15.25 10V9.07143L16.9897 10.1038C17.6563 10.4993 18.5 10.0189 18.5 9.24378V3.75622C18.5 2.98109 17.6563 2.50067 16.9897 2.89623L15.25 3.92857V3C15.25 2.44772 14.8023 2 14.25 2H6.5Z" fill="#3663F2"/>
</svg>
