<svg width="25" height="24" viewBox="0 0 25 24" fill="none" xmlns="http://www.w3.org/2000/svg">
<path d="M14.604 4C15.1563 4 15.604 3.55229 15.604 3C15.604 2.44772 15.1563 2 14.604 2H9.604C9.05172 2 8.604 2.44772 8.604 3C8.604 3.55228 9.05172 4 9.604 4L14.604 4Z" fill="#9AA1B4"/>
<path fill-rule="evenodd" clip-rule="evenodd" d="M2.604 6C2.604 5.44772 3.05172 5 3.604 5H20.604C21.1563 5 21.604 5.44772 21.604 6C21.604 6.55229 21.1563 7 20.604 7H19.604V18C19.604 20.2091 17.8131 22 15.604 22H8.604C6.39486 22 4.604 20.2091 4.604 18V7H3.604C3.05172 7 2.604 6.55229 2.604 6ZM6.604 7H17.604V18C17.604 19.1046 16.7086 20 15.604 20H8.604C7.49943 20 6.604 19.1046 6.604 18V7Z" fill="#9AA1B4"/>
<path d="M14.9392 11.4589C15.2321 11.166 15.2321 10.6911 14.9392 10.3982C14.6463 10.1053 14.1714 10.1053 13.8785 10.3982L12.104 12.1727L10.3295 10.3982C10.0366 10.1053 9.56172 10.1053 9.26883 10.3982C8.97593 10.6911 8.97593 11.166 9.26883 11.4589L11.0433 13.2334L9.26883 15.0079C8.97593 15.3008 8.97593 15.7757 9.26883 16.0686C9.56172 16.3615 10.0366 16.3615 10.3295 16.0686L12.104 14.2941L13.8785 16.0686C14.1714 16.3615 14.6463 16.3615 14.9392 16.0686C15.2321 15.7757 15.2321 15.3008 14.9392 15.0079L13.1647 13.2334L14.9392 11.4589Z" fill="#9AA1B4"/>
</svg>
