<svg width="24" height="24" viewBox="0 0 24 24" fill="none" xmlns="http://www.w3.org/2000/svg">
<path d="M11.4774 21.9866C11.6505 21.9955 11.8248 22 12 22C17.5228 22 22 17.5228 22 12C22 6.47715 17.5228 2 12 2C11.8248 2 11.6505 2.00452 11.4774 2.01345C10.9258 2.04189 10.5017 2.51207 10.5302 3.06362C10.5586 3.61518 11.0288 4.03924 11.5804 4.01079C11.7192 4.00363 11.8592 4 12 4C16.4183 4 20 7.58172 20 12C20 16.4183 16.4183 20 12 20C11.8592 20 11.7192 19.9964 11.5804 19.9892C11.0288 19.9608 10.5586 20.3848 10.5302 20.9364C10.5017 21.4879 10.9258 21.9581 11.4774 21.9866Z" fill="#9AA1B4"/>
<path d="M8.80383 20.4755C9.05496 19.9836 8.85979 19.3812 8.36791 19.1301C8.11854 19.0028 7.87667 18.8628 7.64315 18.7108C7.18025 18.4096 6.5608 18.5406 6.25957 19.0035C5.95835 19.4664 6.08942 20.0859 6.55232 20.3871C6.84413 20.577 7.14654 20.7521 7.45848 20.9114C7.95037 21.1625 8.5527 20.9674 8.80383 20.4755Z" fill="#9AA1B4"/>
<path d="M4.99646 17.7404C5.45936 17.4392 5.59043 16.8198 5.28921 16.3568C5.13725 16.1233 4.9972 15.8815 4.86988 15.6321C4.61875 15.1402 4.01642 14.945 3.52453 15.1962C3.03265 15.4473 2.83748 16.0496 3.08861 16.5415C3.24787 16.8535 3.42299 17.1559 3.61287 17.4477C3.9141 17.9106 4.53355 18.0417 4.99646 17.7404Z" fill="#9AA1B4"/>
<path d="M3.06362 13.4698C3.61518 13.4414 4.03924 12.9712 4.01079 12.4196C4.00363 12.2808 4 12.1408 4 12C4 11.8592 4.00363 11.7192 4.01079 11.5804C4.03924 11.0288 3.61518 10.5586 3.06362 10.5302C2.51207 10.5017 2.04189 10.9258 2.01345 11.4774C2.00452 11.6505 2 11.8248 2 12C2 12.1752 2.00452 12.3495 2.01345 12.5226C2.04189 13.0742 2.51207 13.4983 3.06362 13.4698Z" fill="#9AA1B4"/>
<path d="M3.52453 8.80383C4.01642 9.05497 4.61875 8.85979 4.86988 8.36791C4.9972 8.11854 5.13725 7.87667 5.28921 7.64315C5.59043 7.18025 5.45936 6.5608 4.99646 6.25957C4.53355 5.95835 3.9141 6.08942 3.61288 6.55232C3.42299 6.84413 3.24787 7.14654 3.08861 7.45848C2.83748 7.95037 3.03265 8.5527 3.52453 8.80383Z" fill="#9AA1B4"/>
<path d="M6.25957 4.99646C6.5608 5.45936 7.18025 5.59043 7.64316 5.28921C7.87667 5.13725 8.11854 4.9972 8.36791 4.86988C8.85979 4.61875 9.05497 4.01642 8.80383 3.52453C8.5527 3.03265 7.95037 2.83748 7.45848 3.08861C7.14654 3.24787 6.84413 3.42299 6.55232 3.61287C6.08942 3.9141 5.95835 4.53355 6.25957 4.99646Z" fill="#9AA1B4"/>
<path d="M12.7075 16.7067L16.7071 12.7071L12.0094 17C12.2712 16.9975 12.5222 16.892 12.7075 16.7067Z" fill="#9AA1B4"/>
<path d="M16.7071 12.7071C17.0976 12.3166 17.0976 11.6834 16.7071 11.2929C16.3166 10.9024 15.6834 10.9024 15.2929 11.2929L13 13.5858V8C13 7.44771 12.5523 7 12 7C11.4477 7 11 7.44771 11 8V13.5858L8.70711 11.2929C8.31658 10.9024 7.68342 10.9024 7.29289 11.2929C6.90237 11.6834 6.90237 12.3166 7.29289 12.7071L11.2925 16.7067C11.4778 16.892 11.7288 16.9975 11.9906 17L16.7071 12.7071Z" fill="#9AA1B4"/>
</svg>
