<?xml version="1.0" encoding="utf-8"?>
<!-- Generator: Adobe Illustrator 22.1.0, SVG Export Plug-In . SVG Version: 6.00 Build 0)  -->
<svg version="1.1" id="Layer_1" xmlns="http://www.w3.org/2000/svg" xmlns:xlink="http://www.w3.org/1999/xlink" x="0px" y="0px"
	 viewBox="0 0 25 24" style="enable-background:new 0 0 25 24;" xml:space="preserve">
<style type="text/css">
	.st0{fill:#9AA1B4;}
</style>
<path class="st0" d="M4.5,6.5c0-0.6,0.4-1,1-1h14c0.6,0,1,0.4,1,1v4c0,0.6,0.4,1,1,1c0.6,0,1-0.4,1-1v-4c0-1.7-1.3-3-3-3h-14
	c-1.7,0-3,1.3-3,3v11c0,1.7,1.3,3,3,3h6c0.6,0,1-0.4,1-1s-0.4-1-1-1h-6c-0.6,0-1-0.4-1-1V6.5z"/>
<path class="st0" d="M7.6,7.7C7.1,7.4,6.5,7.5,6.2,7.9C5.8,8.4,5.9,9,6.4,9.3l4.3,3.1c1.1,0.8,2.5,0.8,3.5,0l4.3-3.1
	c0.4-0.3,0.5-1,0.2-1.4c-0.3-0.4-1-0.5-1.4-0.2l-4.3,3.1c-0.4,0.3-0.8,0.3-1.2,0L7.6,7.7z"/>
<path class="st0" d="M20.9,17.8c0.4-0.5,0.6-1.1,0.6-1.8c0-1.7-1.3-3-3-3c-1.7,0-3,1.3-3,3c0,0.7,0.2,1.3,0.6,1.8
	c-1,0.7-1.6,1.9-1.6,3.2c0,0.6,0.4,1,1,1c0.6,0,1-0.4,1-1c0-1.1,0.9-2,2-2c1.1,0,2,0.9,2,2c0,0.6,0.4,1,1,1c0.6,0,1-0.4,1-1
	C22.5,19.7,21.8,18.5,20.9,17.8z M18.5,17c-0.6,0-1-0.4-1-1s0.4-1,1-1c0.6,0,1,0.4,1,1S19,17,18.5,17z"/>
</svg>
