<?xml version="1.0" encoding="utf-8"?>
<!-- Generator: Adobe Illustrator 22.1.0, SVG Export Plug-In . SVG Version: 6.00 Build 0)  -->
<svg version="1.1" id="Layer_1" xmlns="http://www.w3.org/2000/svg" xmlns:xlink="http://www.w3.org/1999/xlink" x="0px" y="0px"
	 viewBox="0 0 16 16" style="enable-background:new 0 0 16 16;" xml:space="preserve">
<style type="text/css">
	.st0{fill:#9AA1B4;}
</style>
<g>
	<path class="st0" d="M10.5,14.8h-5c-0.2,0-0.4-0.1-0.5-0.2L1.5,11c-0.1-0.1-0.2-0.3-0.2-0.5v-5c0-0.2,0.1-0.4,0.2-0.5L5,1.5
		c0.1-0.1,0.3-0.2,0.5-0.2h5c0.2,0,0.4,0.1,0.5,0.2L14.5,5c0.1,0.1,0.2,0.3,0.2,0.5v5c0,0.2-0.1,0.4-0.2,0.5L11,14.5
		C10.9,14.7,10.7,14.8,10.5,14.8z M5.8,13.3h4.3l3.1-3.1V5.8l-3.1-3.1H5.8L2.8,5.8v4.3L5.8,13.3z"/>
</g>
<g>
	<path class="st0" d="M10,8.8H6C5.6,8.8,5.3,8.4,5.3,8S5.6,7.3,6,7.3h4c0.4,0,0.8,0.3,0.8,0.8S10.4,8.8,10,8.8z"/>
</g>
</svg>
