<svg width="25" height="24" viewBox="0 0 25 24" fill="none" xmlns="http://www.w3.org/2000/svg">
<path fill-rule="evenodd" clip-rule="evenodd" d="M18.3082 6.1767C16.5786 4.81275 14.4379 4 12.104 4C7.42045 4 3.51458 7.27308 2.14837 11.7054C2.08921 11.8974 2.08921 12.1026 2.14837 12.2946C3.00761 15.0822 4.8714 17.4112 7.30142 18.7559L8.65831 17.2052C6.59983 16.2081 4.95956 14.3415 4.15557 12C5.37245 8.45595 8.50513 6 12.104 6C13.911 6 15.6005 6.61919 16.989 7.6844L18.3082 6.1767ZM19.7578 7.55722L18.4274 9.07767C19.1223 9.92223 19.678 10.9096 20.0524 12C18.8356 15.5441 15.7029 18 12.104 18C11.636 18 11.1759 17.9585 10.7268 17.8784L9.2406 19.5769C10.1487 19.8522 11.1088 20 12.104 20C16.7876 20 20.6934 16.7269 22.0596 12.2946C22.1188 12.1026 22.1188 11.8974 22.0596 11.7054C21.58 10.1493 20.7873 8.73609 19.7578 7.55722Z" fill="#9AA1B4"/>
<path fill-rule="evenodd" clip-rule="evenodd" d="M12.104 10C10.9994 10 10.104 10.8954 10.104 12C10.104 12.5129 10.2957 12.9786 10.613 13.3331L9.12276 14.6669C8.48997 13.9599 8.104 13.0238 8.104 12C8.104 9.79086 9.89486 8 12.104 8C12.8309 8 13.5154 8.19481 14.1047 8.53574L13.1033 10.267C12.8101 10.0974 12.47 10 12.104 10Z" fill="#9AA1B4"/>
<path fill-rule="evenodd" clip-rule="evenodd" d="M20.7684 2.2526C21.1812 2.61952 21.2183 3.25159 20.8514 3.66437L4.85142 21.6644C4.48451 22.0772 3.85243 22.1143 3.43965 21.7474C3.02687 21.3805 2.98969 20.7484 3.35661 20.3356L19.3566 2.33565C19.7235 1.92286 20.3556 1.88568 20.7684 2.2526Z" fill="#9AA1B4"/>
</svg>
