<svg width="24" height="24" viewBox="0 0 24 24" fill="none" xmlns="http://www.w3.org/2000/svg">
<path fill-rule="evenodd" clip-rule="evenodd" d="M7.5 4C6.67157 4 6 4.67157 6 5.5C6 6.32843 6.67157 7 7.5 7C8.32843 7 9 6.32843 9 5.5C9 4.67157 8.32843 4 7.5 4ZM4 5.5C4 3.567 5.567 2 7.5 2C9.433 2 11 3.567 11 5.5C11 7.433 9.433 9 7.5 9C5.567 9 4 7.433 4 5.5Z" fill="#9AA1B4"/>
<path fill-rule="evenodd" clip-rule="evenodd" d="M16.5 4C15.6716 4 15 4.67157 15 5.5C15 6.32843 15.6716 7 16.5 7C17.3284 7 18 6.32843 18 5.5C18 4.67157 17.3284 4 16.5 4ZM13 5.5C13 3.567 14.567 2 16.5 2C18.433 2 20 3.567 20 5.5C20 7.433 18.433 9 16.5 9C14.567 9 13 7.433 13 5.5Z" fill="#9AA1B4"/>
<path fill-rule="evenodd" clip-rule="evenodd" d="M2 15.5C2 12.7386 4.23858 10.5 7 10.5H17C19.7614 10.5 22 12.7386 22 15.5V21C22 21.5523 21.5523 22 21 22C20.4477 22 20 21.5523 20 21V15.5C20 13.8431 18.6569 12.5 17 12.5H7C5.34315 12.5 4 13.8431 4 15.5V21C4 21.5523 3.55228 22 3 22C2.44772 22 2 21.5523 2 21V15.5Z" fill="#9AA1B4"/>
<path d="M14 16C14 17.1046 13.1046 18 12 18C10.8954 18 10 17.1046 10 16C10 14.8954 10.8954 14 12 14C13.1046 14 14 14.8954 14 16Z" fill="#9AA1B4"/>
<path fill-rule="evenodd" clip-rule="evenodd" d="M9 21C9 19.3431 10.3431 18 12 18C13.6569 18 15 19.3431 15 21C15 21.5523 14.5523 22 14 22C13.4477 22 13 21.5523 13 21C13 20.4477 12.5523 20 12 20C11.4477 20 11 20.4477 11 21C11 21.5523 10.5523 22 10 22C9.44772 22 9 21.5523 9 21Z" fill="#9AA1B4"/>
<path fill-rule="evenodd" clip-rule="evenodd" d="M2.80383 14.5196C3.34539 14.4113 3.87222 14.7625 3.98053 15.3041L4.1391 16.0969C4.27985 16.8007 4.78692 17.3751 5.4678 17.6021L6.81618 18.0515C7.34012 18.2262 7.62328 18.7925 7.44863 19.3164C7.27398 19.8404 6.70766 20.1235 6.18372 19.9489L4.83535 19.4994C3.47358 19.0455 2.45945 17.8967 2.17794 16.4891L2.01937 15.6963C1.91106 15.1547 2.26227 14.6279 2.80383 14.5196ZM21.1961 14.5196C21.7376 14.6279 22.0888 15.1547 21.9805 15.6963L21.822 16.4891C21.5405 17.8967 20.5263 19.0455 19.1645 19.4994L17.8162 19.9489C17.2922 20.1235 16.7259 19.8404 16.5513 19.3164C16.3766 18.7925 16.6598 18.2262 17.1837 18.0515L18.5321 17.6021C19.213 17.3751 19.72 16.8007 19.8608 16.0969L20.0194 15.3041C20.1277 14.7625 20.6545 14.4113 21.1961 14.5196Z" fill="#9AA1B4"/>
</svg>
