<svg width="25" height="24" viewBox="0 0 25 24" fill="none" xmlns="http://www.w3.org/2000/svg">
<path fill-rule="evenodd" clip-rule="evenodd" d="M20.104 4C20.104 2.89543 19.2086 2 18.104 2H9.604C9.33879 2 9.08443 2.10536 8.8969 2.29289L4.3969 6.79289C4.20936 6.98043 4.104 7.23478 4.104 7.5V20C4.104 21.1046 4.99943 22 6.104 22H18.104C19.2086 22 20.104 21.1046 20.104 20V4ZM10.0182 4L18.104 4V20H6.104V7.91421L10.0182 4Z" fill="#9AA1B4"/>
<path fill-rule="evenodd" clip-rule="evenodd" d="M11.104 2.5C10.5517 2.5 10.104 2.94772 10.104 3.5V8H5.604C5.05172 8 4.604 8.44772 4.604 9C4.604 9.55228 5.05172 10 5.604 10H10.104C11.2086 10 12.104 9.10457 12.104 8V3.5C12.104 2.94772 11.6563 2.5 11.104 2.5Z" fill="#9AA1B4"/>
</svg>
