<?xml version="1.0" encoding="utf-8"?>
<!-- Generator: Adobe Illustrator 22.1.0, SVG Export Plug-In . SVG Version: 6.00 Build 0)  -->
<svg version="1.1" id="Layer_1" xmlns="http://www.w3.org/2000/svg" xmlns:xlink="http://www.w3.org/1999/xlink" x="0px" y="0px"
	 viewBox="0 0 24 24" style="enable-background:new 0 0 24 24;" xml:space="preserve">
<style type="text/css">
	.st0{fill:#9AA1B4;}
</style>
<path class="st0" d="M16,2H9.5C9.2,2,9,2.1,8.8,2.3L4.3,6.8C4.1,7,4,7.2,4,7.5V18c0,2.2,1.8,4,4,4h1.5c0.6,0,1-0.4,1-1s-0.4-1-1-1H8
	c-1.1,0-2-0.9-2-2v-8h4c1.1,0,2-0.9,2-2V4h4c1.1,0,2,0.9,2,2v11c0,0.6,0.4,1,1,1s1-0.4,1-1V6C20,3.8,18.2,2,16,2z M10,8H6V7.9L9.9,4
	H10V8z"/>
<path class="st0" d="M10.3,14.3c-0.3,0.3-0.4,0.7-0.2,1.1c0.2,0.4,0.5,0.6,0.9,0.6h1v2c0,2.2,1.8,4,4,4h3c0.6,0,1-0.4,1-1
	s-0.4-1-1-1h-3c-1.1,0-2-0.9-2-2v-2h1c0.4,0,0.8-0.2,0.9-0.6s0.1-0.8-0.2-1.1l-2-2C13.5,12.1,13.3,12,13,12s-0.5,0.1-0.7,0.3
	L10.3,14.3z"/>
</svg>
