<svg width="24" height="24" viewBox="0 0 24 24" fill="none" xmlns="http://www.w3.org/2000/svg">
<path d="M5 15V4.5L7.5 4L11 4.5L17 7L21 8.5L17.5 11L10.5 12.5L5 15Z" fill="#9AA1B4"/>
<path fill-rule="evenodd" clip-rule="evenodd" d="M6 3C6 2.44772 5.55228 2 5 2C4.44772 2 4 2.44772 4 3V5.9972V21C4 21.5523 4.44772 22 5 22C5.55228 22 6 21.5523 6 21V16.4335C8.25647 14.5269 10.4909 14.0157 12.9002 13.4646L12.9003 13.4645C13.0704 13.4256 13.2413 13.3865 13.4132 13.3467C16.1637 12.7096 19.0549 11.8962 21.7683 8.64019C22.0376 8.31696 22.0758 7.8597 21.8639 7.49624C21.6519 7.13278 21.2351 6.94087 20.8212 7.01613C19.7129 7.21761 18.6163 6.97792 17.4244 6.48325C16.6497 6.16176 15.9321 5.78077 15.1695 5.37585C14.6968 5.12483 14.2067 4.86461 13.6749 4.60368C12.3672 3.96196 10.9144 3.38188 9.33411 3.34467C8.23697 3.31885 7.12742 3.55484 6 4.13743V3ZM6 6.48711V13.939C8.21095 12.4797 10.4022 11.9813 12.4089 11.5248L12.4098 11.5246C12.5954 11.4824 12.7795 11.4405 12.9619 11.3983C14.9831 10.9301 16.8468 10.4153 18.6413 8.94988C17.9501 8.81507 17.2884 8.59221 16.6577 8.33049C15.8137 7.9802 14.9281 7.51198 14.0944 7.07124C13.6405 6.83124 13.2019 6.59938 12.7939 6.39915C11.5547 5.79107 10.4216 5.37083 9.28704 5.34412C8.29359 5.32073 7.21599 5.59827 6 6.48711Z" fill="#9AA1B4"/>
</svg>
