<?xml version="1.0" encoding="utf-8"?>
<!-- Generator: Adobe Illustrator 22.1.0, SVG Export Plug-In . SVG Version: 6.00 Build 0)  -->
<svg version="1.1" id="Layer_1" xmlns="http://www.w3.org/2000/svg" xmlns:xlink="http://www.w3.org/1999/xlink" x="0px" y="0px"
	 viewBox="0 0 24 24" style="enable-background:new 0 0 24 24;" xml:space="preserve">
<style type="text/css">
	.st0{fill:#9AA1B4;}
</style>
<path class="st0" d="M5.4,3.3c0-0.6-0.4-1-1-1s-1,0.4-1,1v3v15c0,0.6,0.4,1,1,1s1-0.4,1-1v-4.6c2.3-1.9,4.5-2.4,6.9-3l0,0
	c0.2,0,0.3-0.1,0.5-0.1c2.8-0.6,5.6-1.5,8.4-4.7c0.3-0.3,0.3-0.8,0.1-1.1c-0.2-0.4-0.6-0.6-1-0.5c-1.1,0.2-2.2,0-3.4-0.5
	C16,6.4,15.3,6,14.5,5.6c-0.5-0.3-1-0.5-1.5-0.8c-1.3-0.6-2.8-1.2-4.3-1.3c-1.1,0-2.2,0.2-3.3,0.8V3.3z"/>
</svg>
