<svg width="25" height="24" viewBox="0 0 25 24" fill="none" xmlns="http://www.w3.org/2000/svg">
<path fill-rule="evenodd" clip-rule="evenodd" d="M5.104 5C4.55172 5 4.104 5.44772 4.104 6V18C4.104 18.5523 4.55172 19 5.104 19H19.104C19.6563 19 20.104 18.5523 20.104 18V9C20.104 8.44772 19.6563 8 19.104 8H13.104C12.8653 8 12.6345 7.91461 12.4532 7.75926L9.23408 5H5.104ZM2.104 6C2.104 4.34315 3.44715 3 5.104 3H9.604C9.84272 3 10.0736 3.08539 10.2548 3.24074L13.4739 6H19.104C20.7609 6 22.104 7.34315 22.104 9V18C22.104 19.6569 20.7609 21 19.104 21H5.104C3.44715 21 2.104 19.6569 2.104 18V6Z" fill="#9AA1B4"/>
<path fill-rule="evenodd" clip-rule="evenodd" d="M2.104 8C2.104 7.44772 2.55172 7 3.104 7H8.104C8.65629 7 9.104 7.44772 9.104 8C9.104 8.55228 8.65629 9 8.104 9H3.104C2.55172 9 2.104 8.55228 2.104 8Z" fill="#9AA1B4"/>
</svg>
