<svg width="25" height="24" viewBox="0 0 25 24" fill="none" xmlns="http://www.w3.org/2000/svg">
<path fill-rule="evenodd" clip-rule="evenodd" d="M2.24658 3C2.24658 2.44772 2.6943 2 3.24658 2H9.24658C9.79887 2 10.2466 2.44772 10.2466 3C10.2466 3.55228 9.79887 4 9.24658 4H3.24658C2.6943 4 2.24658 3.55228 2.24658 3ZM3.24658 6C2.6943 6 2.24658 6.44772 2.24658 7V18C2.24658 19.1046 3.14201 20 4.24658 20H8.24658C9.35115 20 10.2466 19.1046 10.2466 18V7C10.2466 6.44772 9.79887 6 9.24658 6H3.24658ZM4.24658 18V8H8.24658V18H4.24658ZM13.2466 6C12.9814 6 12.727 6.10536 12.5395 6.29289C12.3519 6.48043 12.2466 6.73478 12.2466 7V10C12.2466 10.5523 12.6943 11 13.2466 11C13.7989 11 14.2466 10.5523 14.2466 10V8H18.2466V10C18.2466 10.5523 18.6943 11 19.2466 11C19.7989 11 20.2466 10.5523 20.2466 10V7C20.2466 6.44772 19.7989 6 19.2466 6H13.2466ZM13.2466 2C12.6943 2 12.2466 2.44772 12.2466 3C12.2466 3.55228 12.6943 4 13.2466 4H19.2466C19.7989 4 20.2466 3.55228 20.2466 3C20.2466 2.44772 19.7989 2 19.2466 2H13.2466ZM15.7466 15.563V16.5C15.7466 16.9045 15.9902 17.2691 16.3639 17.4239C16.7376 17.5787 17.1677 17.4931 17.4537 17.2071L19.4537 15.2071C19.8442 14.8166 19.8442 14.1834 19.4537 13.7929L17.4537 11.7929C17.1677 11.5069 16.7376 11.4214 16.3639 11.5761C15.9902 11.7309 15.7466 12.0956 15.7466 12.5V13.5309C13.7734 13.777 12.2466 15.4602 12.2466 17.5V18C12.2466 20.2091 14.0374 22 16.2466 22H18.2466C20.4557 22 22.2466 20.2091 22.2466 18V17C22.2466 16.4477 21.7989 16 21.2466 16C20.6943 16 20.2466 16.4477 20.2466 17V18C20.2466 19.1046 19.3512 20 18.2466 20H16.2466C15.142 20 14.2466 19.1046 14.2466 18V17.5C14.2466 16.5681 14.884 15.785 15.7466 15.563Z" fill="#9AA1B4"/>
</svg>
