<svg width="25" height="24" viewBox="0 0 25 24" fill="none" xmlns="http://www.w3.org/2000/svg">
<path fill-rule="evenodd" clip-rule="evenodd" d="M3.104 3.5C2.55172 3.5 2.104 3.94772 2.104 4.5V10C2.104 10.5523 2.55172 11 3.104 11H10.104C10.6563 11 11.104 10.5523 11.104 10V4.5C11.104 3.94772 10.6563 3.5 10.104 3.5H3.104ZM4.104 9V5.5H9.104V9H4.104Z" fill="#9AA1B4"/>
<path fill-rule="evenodd" clip-rule="evenodd" d="M3.104 13C2.55172 13 2.104 13.4477 2.104 14V19.5C2.104 20.0523 2.55172 20.5 3.104 20.5H10.104C10.6563 20.5 11.104 20.0523 11.104 19.5V14C11.104 13.4477 10.6563 13 10.104 13H3.104ZM4.104 18.5V15H9.104V18.5H4.104Z" fill="#9AA1B4"/>
<path fill-rule="evenodd" clip-rule="evenodd" d="M13.104 4.5C13.104 3.94772 13.5517 3.5 14.104 3.5H21.104C21.6563 3.5 22.104 3.94772 22.104 4.5V10C22.104 10.5523 21.6563 11 21.104 11H14.104C13.5517 11 13.104 10.5523 13.104 10V4.5ZM15.104 5.5V9H20.104V5.5H15.104Z" fill="#9AA1B4"/>
<path fill-rule="evenodd" clip-rule="evenodd" d="M14.104 13C13.5517 13 13.104 13.4477 13.104 14V19.5C13.104 20.0523 13.5517 20.5 14.104 20.5H21.104C21.6563 20.5 22.104 20.0523 22.104 19.5V14C22.104 13.4477 21.6563 13 21.104 13H14.104ZM15.104 18.5V15H20.104V18.5H15.104Z" fill="#9AA1B4"/>
</svg>
