<svg width="24" height="24" viewBox="0 0 24 24" fill="none" xmlns="http://www.w3.org/2000/svg">
<path fill-rule="evenodd" clip-rule="evenodd" d="M12.9998 2.5C13.265 2.5 13.5194 2.60536 13.7069 2.79289L21.7069 10.7929C22.0974 11.1834 22.0974 11.8166 21.7069 12.2071L18.1211 15.7929C17.3219 16.5921 16.1839 16.8461 15.1693 16.5549L13.3223 17.6103C12.5837 18.0324 11.7249 18.1108 10.9513 17.873L9.77795 19H17.9998C18.5521 19 18.9998 19.4477 18.9998 20C18.9998 20.5523 18.5521 21 17.9998 21H7.49981C7.46482 21 7.43025 20.9982 7.39619 20.9947C7.36216 20.9982 7.32783 21 7.29331 21H5.4165C4.31191 21 3.41647 20.1045 3.4165 18.9999L3.41656 17C3.41656 16.742 3.51624 16.4941 3.69477 16.3079L6.5651 13.3145C6.4081 12.6047 6.50954 11.8424 6.88946 11.1775L7.94491 9.33051C7.65367 8.31594 7.90767 7.17792 8.70692 6.37868L12.2927 2.79289C12.4802 2.60536 12.7346 2.5 12.9998 2.5ZM9.21848 11.1329L13.3669 15.2813L12.33 15.8739C11.9385 16.0976 11.4456 16.0316 11.1267 15.7127L8.78709 13.3731C8.46822 13.0542 8.40222 12.5614 8.62595 12.1698L9.21848 11.1329ZM16.7069 14.3787C16.3164 14.7692 15.6832 14.7692 15.2927 14.3787L10.1211 9.20711C9.73061 8.81658 9.7306 8.18342 10.1211 7.79289L12.9998 4.91421L19.5856 11.5L16.7069 14.3787ZM9.28546 16.6999L7.6541 15.0685L5.41655 17.402L5.4165 19H6.89084L9.28546 16.6999Z" fill="#9AA1B4"/>
<path d="M17.9993 19H9.77741L7.49927 21H17.9993C18.5516 21 18.9993 20.5523 18.9993 20C18.9993 19.4477 18.5516 19 17.9993 19Z" fill="#9AA1B4"/>
</svg>
