<svg width="16" height="16" viewBox="0 0 16 16" fill="none" xmlns="http://www.w3.org/2000/svg">
<path fill-rule="evenodd" clip-rule="evenodd" d="M8.69338 2.86228C8.2735 2.58236 7.7265 2.58236 7.30662 2.86228L3.30662 5.52895C2.95888 5.76078 2.75 6.15107 2.75 6.56901V11.9986C2.75 12.689 3.30964 13.2486 4 13.2486H6C6.41421 13.2486 6.75 13.5844 6.75 13.9986C6.75 14.4129 6.41421 14.7486 6 14.7486H4C2.48122 14.7486 1.25 13.5174 1.25 11.9986V6.56901C1.25 5.64954 1.70953 4.7909 2.47457 4.28087L6.47457 1.61421C7.3983 0.99839 8.6017 0.99839 9.52542 1.61421L13.5254 4.28087C14.2905 4.7909 14.75 5.64954 14.75 6.56901V11.9986C14.75 13.5174 13.5188 14.7486 12 14.7486H10C9.58579 14.7486 9.25 14.4129 9.25 13.9986C9.25 13.5844 9.58579 13.2486 10 13.2486H12C12.6904 13.2486 13.25 12.689 13.25 11.9986V6.56901C13.25 6.15107 13.0411 5.76078 12.6934 5.52895L8.69338 2.86228Z" fill="#9AA1B4"/>
<path fill-rule="evenodd" clip-rule="evenodd" d="M5.25 12C5.25 10.4812 6.48122 9.25 8 9.25C9.51878 9.25 10.75 10.4812 10.75 12V14C10.75 14.4142 10.4142 14.75 10 14.75C9.58579 14.75 9.25 14.4142 9.25 14V12C9.25 11.3096 8.69036 10.75 8 10.75C7.30964 10.75 6.75 11.3096 6.75 12V14C6.75 14.4142 6.41421 14.75 6 14.75C5.58579 14.75 5.25 14.4142 5.25 14V12Z" fill="#9AA1B4"/>
</svg>
