<?xml version="1.0" encoding="utf-8"?>
<!-- Generator: Adobe Illustrator 22.1.0, SVG Export Plug-In . SVG Version: 6.00 Build 0)  -->
<svg version="1.1" id="Layer_1" xmlns="http://www.w3.org/2000/svg" xmlns:xlink="http://www.w3.org/1999/xlink" x="0px" y="0px"
	 viewBox="0 0 25 24" style="enable-background:new 0 0 25 24;" xml:space="preserve">
<style type="text/css">
	.st0{fill:#9AA1B4;}
</style>
<path class="st0" d="M19.7,18.9c-0.1-1.8-0.7-3.2-1.7-4.4c-0.7-0.8-1.6-1.4-2.6-1.9c0.8-0.8,1.3-2,1.3-3.2V8.9
	C17,8.7,17.2,8.4,17.2,8V3c0-0.3-0.2-0.7-0.5-0.9c-0.3-0.2-0.7-0.2-1,0l-1.6,0.8l-1.1-0.6c-0.6-0.3-1.2-0.3-1.8,0l-1.1,0.6L8.7,2.1
	C8.4,2,8,2,7.7,2.1C7.4,2.3,7.2,2.7,7.2,3v5c0,0.4,0.2,0.7,0.5,0.9v0.5c0,1.2,0.5,2.4,1.3,3.2c-1,0.5-1.9,1.1-2.6,1.9
	c-1,1.2-1.6,2.6-1.7,4.4c0,0.4,0,0.8,0,1.1c0,1.1,0.9,1.9,2,1.9h11.1c1.1,0,2-0.8,2-1.9C19.8,19.7,19.8,19.3,19.7,18.9z M9.2,4.6
	l0.6,0.3c0.3,0.1,0.6,0.1,0.9,0l1.6-0.8l1.6,0.8c0.3,0.1,0.6,0.1,0.9,0l0.6-0.3V7h-6V4.6z M14.7,9v0.4c0,1.5-1.1,2.6-2.5,2.6
	c-1.4,0-2.5-1.1-2.5-2.6V9H14.7z M6.7,20c0-0.3,0-0.7,0-0.9c0.1-1.4,0.5-2.4,1.2-3.2c0.7-0.8,1.7-1.4,3.1-1.9c0.1,0,0.1,0,0.2-0.1
	c0.3,0.1,0.7,0.1,1,0.1s0.7,0,1-0.1c0,0,0.1,0,0.2,0.1c1.4,0.5,2.4,1.1,3.1,1.9c0.7,0.8,1.1,1.8,1.2,3.2c0,0.3,0,0.6,0,0.9H6.7z"/>
</svg>
