<svg width="24" height="24" viewBox="0 0 24 24" fill="none" xmlns="http://www.w3.org/2000/svg">
<path d="M10 11C10.8284 11 11.5 10.3284 11.5 9.5C11.5 8.67157 10.8284 8 10 8C9.17157 8 8.5 8.67157 8.5 9.5C8.5 10.3284 9.17157 11 10 11Z" fill="#9AA1B4"/>
<path fill-rule="evenodd" clip-rule="evenodd" d="M6 3C4.34315 3 3 4.34315 3 6V18C3 19.6569 4.34315 21 6 21H18C19.6569 21 21 19.6569 21 18V6C21 4.34315 19.6569 3 18 3H6ZM5 18V15L5.50291 14.6228C5.83349 14.3749 6.28251 14.3558 6.63291 14.5748L8.34971 15.6478L5.0238 18.2178C5.00822 18.1477 5 18.0748 5 18ZM7.69291 12.8788L10.0371 14.3439L14.1837 11.1397C15.2515 10.3147 16.7386 10.304 17.8181 11.1136L19 12V6C19 5.44772 18.5523 5 18 5H6C5.44772 5 5 5.44772 5 6V12.6327C5.8714 12.2883 6.8723 12.3659 7.69291 12.8788ZM7.28252 19H18C18.5523 19 19 18.5523 19 18V14.5L16.6181 12.7136C16.2583 12.4437 15.7625 12.4473 15.4066 12.7223L7.28252 19Z" fill="#9AA1B4"/>
</svg>
