<?xml version="1.0" encoding="utf-8"?>
<!-- Generator: Adobe Illustrator 22.1.0, SVG Export Plug-In . SVG Version: 6.00 Build 0)  -->
<svg version="1.1" id="Layer_1" xmlns="http://www.w3.org/2000/svg" xmlns:xlink="http://www.w3.org/1999/xlink" x="0px" y="0px"
	 viewBox="0 0 24 24" style="enable-background:new 0 0 24 24;" xml:space="preserve">
<style type="text/css">
	.st0{fill:#9AA1B4;}
</style>
<g>
	<path class="st0" d="M18,3H6C4.3,3,3,4.3,3,6v12c0,1.7,1.3,3,3,3h12c1.7,0,3-1.3,3-3V6C21,4.3,19.7,3,18,3z M5,18.2
		c0-0.1,0-0.1,0-0.2v-3l0.5-0.4c0.3-0.2,0.8-0.3,1.1,0l1.7,1.1L5,18.2z M19,18c0,0.6-0.4,1-1,1H7.3l8.1-6.3c0.4-0.3,0.9-0.3,1.2,0
		l2.4,1.8V18z M19,12l-1.2-0.9c-1.1-0.8-2.6-0.8-3.6,0L10,14.3l-2.3-1.5c-0.8-0.5-1.8-0.6-2.7-0.2V6c0-0.6,0.4-1,1-1h12
		c0.6,0,1,0.4,1,1V12z"/>
	<circle class="st0" cx="10" cy="9.5" r="1.5"/>
</g>
</svg>
