<svg width="24" height="24" viewBox="0 0 24 24" fill="none" xmlns="http://www.w3.org/2000/svg">
<path fill-rule="evenodd" clip-rule="evenodd" d="M8.17939 19H15.8206C15.6535 18.5681 15.3732 18.1963 14.9952 17.8924C14.3343 17.361 13.3211 17 12 17C10.6789 17 9.66575 17.361 9.00477 17.8924C8.62682 18.1963 8.34654 18.5681 8.17939 19ZM7.75158 16.3337C8.84271 15.4564 10.3295 15 12 15C13.6705 15 15.1573 15.4564 16.2484 16.3337C17.3562 17.2244 18 18.509 18 20C18 20.5523 17.5523 21 17 21H7C6.44772 21 6 20.5523 6 20C6 18.509 6.64377 17.2244 7.75158 16.3337Z" fill="#9AA1B4"/>
<path fill-rule="evenodd" clip-rule="evenodd" d="M12 11C10.8954 11 10 11.8954 10 13C10 14.1046 10.8954 15 12 15C13.1046 15 14 14.1046 14 13C14 11.8954 13.1046 11 12 11ZM8 13C8 10.7909 9.79086 9 12 9C14.2091 9 16 10.7909 16 13C16 15.2091 14.2091 17 12 17C9.79086 17 8 15.2091 8 13Z" fill="#9AA1B4"/>
<path fill-rule="evenodd" clip-rule="evenodd" d="M2 7.5C2 5.29086 3.79086 3.5 6 3.5H18C20.2091 3.5 22 5.29086 22 7.5V15C22 16.1117 21.3948 17.0808 20.5007 17.598C20.0227 17.8746 19.4109 17.7112 19.1344 17.2332C18.8579 16.7551 19.0212 16.1434 19.4993 15.8668C19.8008 15.6924 20 15.3689 20 15V7.5C20 6.39543 19.1046 5.5 18 5.5H6C4.89543 5.5 4 6.39543 4 7.5V15C4 15.3689 4.19922 15.6924 4.50073 15.8668C4.97879 16.1434 5.14215 16.7551 4.86561 17.2332C4.58906 17.7112 3.97733 17.8746 3.49927 17.598C2.60518 17.0808 2 16.1117 2 15V7.5Z" fill="#9AA1B4"/>
</svg>
