<?xml version="1.0" encoding="utf-8"?>
<!-- Generator: Adobe Illustrator 22.1.0, SVG Export Plug-In . SVG Version: 6.00 Build 0)  -->
<svg version="1.1" id="Layer_1" xmlns="http://www.w3.org/2000/svg" xmlns:xlink="http://www.w3.org/1999/xlink" x="0px" y="0px"
	 viewBox="0 0 24 24" style="enable-background:new 0 0 24 24;" xml:space="preserve">
<style type="text/css">
	.st0{fill:#9AA1B4;}
</style>
<path class="st0" d="M21.9,12.6l-1.4-6.4c-0.4-1.8-2-3.1-3.9-3.1H7.4C5.5,3,3.9,4.3,3.5,6.1l-1.4,6.4C2,12.8,2,13,2,13.2V17
	c0,2.2,1.8,4,4,4h12c2.2,0,4-1.8,4-4v-3.8C22,13,22,12.8,21.9,12.6z M5.5,6.6c0.2-0.9,1-1.6,2-1.6h9.2c0.9,0,1.7,0.7,2,1.6l1.3,5.9
	C19.3,12.2,18.7,12,18,12h-3.2c-0.4,0-0.8,0.3-0.9,0.7c-0.3,0.8-1,1.3-1.9,1.3s-1.6-0.6-1.9-1.3C10,12.3,9.6,12,9.2,12H6
	c-0.7,0-1.3,0.2-1.9,0.5L5.5,6.6z M20,17c0,1.1-0.9,2-2,2H6c-1.1,0-2-0.9-2-2v-1c0-1.1,0.9-2,2-2h2.5c0.7,1.2,2,2,3.5,2
	s2.8-0.8,3.5-2H18c1.1,0,2,0.9,2,2V17z"/>
</svg>
