<svg width="24" height="24" viewBox="0 0 24 24" fill="none" xmlns="http://www.w3.org/2000/svg">
<path fill-rule="evenodd" clip-rule="evenodd" d="M7.40651 3C5.53172 3 3.90847 4.30213 3.50177 6.13228L2.07144 12.5688C2.02396 12.7824 2 13.0007 2 13.2195V17C2 19.2091 3.79086 21 6 21H18C20.2091 21 22 19.2091 22 17V13.2195C22 13.0007 21.976 12.7824 21.9286 12.5688L20.4982 6.13228C20.0915 4.30213 18.4683 3 16.5935 3H7.40651ZM19.8545 12.4549L18.5459 6.56614C18.3425 5.65106 17.5309 5 16.5935 5H7.40651C6.46912 5 5.65749 5.65106 5.45414 6.56614L4.14552 12.4549C4.69984 12.1644 5.33073 12 6 12H9.17071C9.59452 12 9.97231 12.2672 10.1135 12.6668C10.3886 13.4449 11.1307 14 12 14C12.8693 14 13.6114 13.4449 13.8865 12.6668C14.0277 12.2672 14.4055 12 14.8293 12H18C18.6693 12 19.3002 12.1644 19.8545 12.4549ZM4 16V17C4 18.1046 4.89543 19 6 19H18C19.1046 19 20 18.1046 20 17V16C20 14.8954 19.1046 14 18 14H15.4646C14.7734 15.1948 13.4817 16 12 16C10.5183 16 9.22657 15.1948 8.53543 14H6C4.89543 14 4 14.8954 4 16Z" fill="#9AA1B4"/>
</svg>
