<svg width="25" height="24" viewBox="0 0 25 24" fill="none" xmlns="http://www.w3.org/2000/svg">
<path fill-rule="evenodd" clip-rule="evenodd" d="M6.69922 4C4.49008 4 2.69922 5.79086 2.69922 8V11C2.69922 11.5523 3.14693 12 3.69922 12C4.2515 12 4.69922 11.5523 4.69922 11V8C4.69922 6.89543 5.59465 6 6.69922 6H13.6992C14.8038 6 15.6992 6.89543 15.6992 8V16C15.6992 17.1046 14.8038 18 13.6992 18H13.1992C12.6469 18 12.1992 18.4477 12.1992 19C12.1992 19.5523 12.6469 20 13.1992 20H13.6992C15.6602 20 17.2916 18.5889 17.6334 16.7267L19.6702 17.9488C21.0033 18.7486 22.6992 17.7884 22.6992 16.2338V7.76619C22.6992 6.2116 21.0033 5.25138 19.6702 6.05121L17.6334 7.27332C17.2916 5.41112 15.6602 4 13.6992 4H6.69922ZM17.6992 14.4338L20.6992 16.2338V7.76619L17.6992 9.56619V14.4338Z" fill="#9AA1B4"/>
<path fill-rule="evenodd" clip-rule="evenodd" d="M6.69922 19C5.59465 19 4.69922 19.8954 4.69922 21C4.69922 21.5523 4.2515 22 3.69922 22C3.14693 22 2.69922 21.5523 2.69922 21C2.69922 19.6915 3.32754 18.5297 4.29894 17.7999C3.92236 17.2985 3.69922 16.6753 3.69922 16C3.69922 14.3431 5.04236 13 6.69922 13C8.35607 13 9.69922 14.3431 9.69922 16C9.69922 16.6753 9.47608 17.2985 9.0995 17.7999C10.0709 18.5297 10.6992 19.6915 10.6992 21C10.6992 21.5523 10.2515 22 9.69922 22C9.14693 22 8.69922 21.5523 8.69922 21C8.69922 19.8954 7.80379 19 6.69922 19ZM5.69922 16C5.69922 15.4477 6.14693 15 6.69922 15C7.2515 15 7.69922 15.4477 7.69922 16C7.69922 16.5523 7.2515 17 6.69922 17C6.14693 17 5.69922 16.5523 5.69922 16Z" fill="#9AA1B4"/>
</svg>
