<?xml version="1.0" encoding="utf-8"?>
<!-- Generator: Adobe Illustrator 22.1.0, SVG Export Plug-In . SVG Version: 6.00 Build 0)  -->
<svg version="1.1" id="Layer_1" xmlns="http://www.w3.org/2000/svg" xmlns:xlink="http://www.w3.org/1999/xlink" x="0px" y="0px"
	 viewBox="0 0 25 24" style="enable-background:new 0 0 25 24;" xml:space="preserve">
<style type="text/css">
	.st0{fill:#9AA1B4;}
</style>
<g>
	<path class="st0" d="M19.7,6.1l-2,1.2c-0.3-1.9-2-3.3-3.9-3.3h-7c-2.2,0-4,1.8-4,4v3c0,0.6,0.4,1,1,1s1-0.4,1-1V8c0-1.1,0.9-2,2-2
		h7c1.1,0,2,0.9,2,2v8c0,1.1-0.9,2-2,2v2c2,0,3.6-1.4,3.9-3.3l2,1.2c1.3,0.8,3-0.2,3-1.7V7.8C22.7,6.2,21,5.3,19.7,6.1z M20.7,16.2
		l-3-1.8V9.6l3-1.8V16.2z"/>
	<path class="st0" d="M9.7,13h-4c-0.6,0-1,0.4-1,1s0.4,1,1,1h1.6l-3.8,3.8c-0.4,0.4-0.4,1,0,1.4c0.4,0.4,1,0.4,1.4,0l3.8-3.8V18
		c0,0.6,0.4,1,1,1s1-0.4,1-1v-4c0-0.3-0.1-0.5-0.3-0.7C10.2,13.1,10,13,9.7,13z"/>
</g>
</svg>
