<svg width="25" height="24" viewBox="0 0 25 24" fill="none" xmlns="http://www.w3.org/2000/svg">
<path fill-rule="evenodd" clip-rule="evenodd" d="M6.69922 4C4.49008 4 2.69922 5.79086 2.69922 8V11C2.69922 11.5523 3.14693 12 3.69922 12C4.2515 12 4.69922 11.5523 4.69922 11V8C4.69922 6.89543 5.59465 6 6.69922 6H13.6992C14.8038 6 15.6992 6.89543 15.6992 8V16C15.6992 17.1046 14.8038 18 13.6992 18V20C15.6602 20 17.2916 18.5889 17.6334 16.7267L19.6702 17.9488C21.0033 18.7486 22.6992 17.7884 22.6992 16.2338V7.76619C22.6992 6.2116 21.0033 5.25138 19.6702 6.05121L17.6334 7.27332C17.2916 5.41112 15.6602 4 13.6992 4H6.69922ZM17.6992 14.4338L20.6992 16.2338V7.76619L17.6992 9.56619V14.4338Z" fill="#9AA1B4"/>
<path d="M7.31204 15H5.69922C5.14693 15 4.69922 14.5523 4.69922 14C4.69922 13.4477 5.14693 13 5.69922 13H9.69922C9.96444 13 10.2188 13.1054 10.4063 13.2929C10.5939 13.4804 10.6992 13.7348 10.6992 14L10.6992 18C10.6992 18.5523 10.2515 19 9.69922 19C9.14693 19 8.69922 18.5523 8.69922 18V16.4411L4.90381 20.2096C4.5119 20.5987 3.87874 20.5965 3.4896 20.2046C3.10047 19.8127 3.10272 19.1795 3.49463 18.7904L7.31204 15Z" fill="#9AA1B4"/>
</svg>
