<svg width="25" height="24" viewBox="0 0 25 24" fill="none" xmlns="http://www.w3.org/2000/svg">
<path fill-rule="evenodd" clip-rule="evenodd" d="M12.2466 6.35037H11.2466C10.6943 6.35037 10.2466 6.79808 10.2466 7.35037C10.2466 7.90265 9.79887 8.35037 9.24658 8.35037C8.6943 8.35037 8.24658 7.90265 8.24658 7.35037C8.24658 5.69351 9.58973 4.35037 11.2466 4.35037H12.7402C13.4304 3.30732 14.7485 2.73947 16.0707 3.11725L18.3455 3.76717C20.0627 4.2578 21.2466 5.82735 21.2466 7.61327V17.0875C21.2466 18.8734 20.0627 20.4429 18.3455 20.9336L16.0707 21.5835C14.7485 21.9613 13.4304 21.3934 12.7402 20.3504H11.2466C9.58973 20.3504 8.24658 19.0072 8.24658 17.3504C8.24658 16.7981 8.6943 16.3504 9.24658 16.3504C9.79887 16.3504 10.2466 16.7981 10.2466 17.3504C10.2466 17.9026 10.6943 18.3504 11.2466 18.3504H12.2466V6.35037ZM14.2466 18.6989C14.2466 19.3633 14.8825 19.8429 15.5213 19.6604L17.796 19.0105C18.6546 18.7652 19.2466 17.9804 19.2466 17.0875V7.61327C19.2466 6.72031 18.6546 5.93554 17.796 5.69022L15.5213 5.0403C14.8825 4.85778 14.2466 5.33745 14.2466 6.00183V18.6989Z" fill="#9AA1B4"/>
<path d="M5.62927 9.42649C5.25559 9.2717 4.82547 9.35726 4.53948 9.64326L2.53948 11.6433C2.35194 11.8308 2.24658 12.0851 2.24658 12.3504C2.24658 12.6156 2.35194 12.8699 2.53948 13.0575L4.53948 15.0575C4.82547 15.3435 5.25559 15.429 5.62927 15.2742C6.00294 15.1195 6.24658 14.7548 6.24658 14.3504V13.3504H9.24658C9.79887 13.3504 10.2466 12.9027 10.2466 12.3504C10.2466 11.7981 9.79887 11.3504 9.24658 11.3504H6.24658V10.3504C6.24658 9.9459 6.00294 9.58127 5.62927 9.42649Z" fill="#9AA1B4"/>
</svg>
