<svg width="16" height="16" viewBox="0 0 16 16" fill="none" xmlns="http://www.w3.org/2000/svg">
<path d="M8.11109 8.53537C7.76394 8.65807 7.58199 9.03895 7.70469 9.38609C7.82739 9.73324 8.20827 9.91519 8.55542 9.79249C9.97864 9.28945 10.9999 7.93217 10.9999 6.33464C10.9999 4.30959 9.3583 2.66797 7.33325 2.66797H4.99992C2.97488 2.66797 1.33325 4.30959 1.33325 6.33464C1.33325 7.75458 2.14055 8.98485 3.31811 9.59355C3.64519 9.76263 4.04739 9.63454 4.21646 9.30746C4.38554 8.98039 4.25745 8.57818 3.93037 8.40911C3.1783 8.02035 2.66659 7.23669 2.66659 6.33464C2.66659 5.04597 3.71125 4.0013 4.99992 4.0013H7.33325C8.62192 4.0013 9.66658 5.04597 9.66658 6.33464C9.66658 7.34954 9.01825 8.21473 8.11109 8.53537Z" fill="#9AA1B4"/>
<path d="M7.88875 7.46729C8.23589 7.3446 8.41784 6.96371 8.29514 6.61657C8.17245 6.26943 7.79156 6.08748 7.44442 6.21017C6.0212 6.71321 4.99992 8.0705 4.99992 9.66803C4.99992 11.6931 6.64154 13.3347 8.66658 13.3347H10.9999C13.025 13.3347 14.6666 11.6931 14.6666 9.66803C14.6666 8.22739 13.8357 6.98205 12.6299 6.38286C12.3002 6.219 11.9001 6.35346 11.7362 6.68318C11.5724 7.0129 11.7068 7.41302 12.0366 7.57688C12.8065 7.95949 13.3333 8.75285 13.3333 9.66803C13.3333 10.9567 12.2886 12.0014 10.9999 12.0014H8.66658C7.37792 12.0014 6.33325 10.9567 6.33325 9.66803C6.33325 8.65312 6.98159 7.78793 7.88875 7.46729Z" fill="#9AA1B4"/>
<path fill-rule="evenodd" clip-rule="evenodd" d="M7.51617 9.44962C7.35667 8.99833 7.5932 8.50318 8.04449 8.34368C8.87412 8.05044 9.46663 7.25915 9.46663 6.33151C9.46663 5.1533 8.51151 4.19818 7.3333 4.19818H4.99997C3.82176 4.19818 2.86663 5.1533 2.86663 6.33151C2.86663 7.15598 3.3341 7.87259 4.02226 8.22832C4.44746 8.44811 4.61397 8.97098 4.39418 9.39618C4.17439 9.82138 3.65152 9.98789 3.22632 9.7681C1.985 9.12644 1.1333 7.82921 1.1333 6.33151C1.1333 4.19601 2.86447 2.46484 4.99997 2.46484H7.3333C9.4688 2.46484 11.2 4.19601 11.2 6.33151C11.2 8.01651 10.1227 9.44756 8.62211 9.97793C8.17083 10.1374 7.67568 9.90091 7.51617 9.44962ZM8.48376 6.5468C8.64327 6.99808 8.40673 7.49323 7.95545 7.65274C7.12582 7.94597 6.5333 8.73727 6.5333 9.6649C6.5333 10.8431 7.48843 11.7982 8.66663 11.7982H11C12.1782 11.7982 13.1333 10.8431 13.1333 9.6649C13.1333 8.82844 12.6521 8.10294 11.9476 7.75286C11.519 7.53984 11.3442 7.01968 11.5572 6.59105C11.7702 6.16241 12.2904 5.98762 12.719 6.20063C13.99 6.83227 14.8666 8.14538 14.8666 9.6649C14.8666 11.8004 13.1355 13.5316 11 13.5316H8.66663C6.53113 13.5316 4.79997 11.8004 4.79997 9.6649C4.79997 7.9799 5.87726 6.54885 7.37782 6.01848C7.82911 5.85897 8.32425 6.09551 8.48376 6.5468ZM7.70474 9.38297C7.58204 9.03582 7.76399 8.65494 8.11114 8.53224C9.0183 8.21161 9.66663 7.34642 9.66663 6.33151C9.66663 5.04285 8.62196 3.99818 7.3333 3.99818H4.99997C3.7113 3.99818 2.66663 5.04285 2.66663 6.33151C2.66663 7.23356 3.17834 8.01722 3.93042 8.40598C4.2575 8.57506 4.38559 8.97726 4.21651 9.30434C4.04744 9.63141 3.64524 9.7595 3.31816 9.59043C2.1406 8.98173 1.3333 7.75146 1.3333 6.33151C1.3333 4.30647 2.97492 2.66484 4.99997 2.66484H7.3333C9.35834 2.66484 11 4.30647 11 6.33151C11 7.92904 9.97869 9.28633 8.55546 9.78936C8.20832 9.91206 7.82744 9.73011 7.70474 9.38297ZM8.29519 6.61345C8.41789 6.96059 8.23594 7.34147 7.8888 7.46417C6.98164 7.7848 6.3333 8.65 6.3333 9.6649C6.3333 10.9536 7.37797 11.9982 8.66663 11.9982H11C12.2886 11.9982 13.3333 10.9536 13.3333 9.6649C13.3333 8.74973 12.8065 7.95637 12.0366 7.57375C11.7069 7.4099 11.5724 7.00977 11.7363 6.68005C11.9001 6.35034 12.3003 6.21588 12.63 6.37973C13.8357 6.97892 14.6666 8.22426 14.6666 9.6649C14.6666 11.6899 13.025 13.3316 11 13.3316H8.66663C6.64159 13.3316 4.99997 11.6899 4.99997 9.6649C4.99997 8.06737 6.02124 6.71009 7.44447 6.20705C7.79161 6.08435 8.1725 6.2663 8.29519 6.61345Z" fill="#9AA1B4"/>
</svg>
