<svg width="16" height="16" viewBox="0 0 16 16" fill="none" xmlns="http://www.w3.org/2000/svg">
<path d="M7.99821 2.66536C6.3742 2.66536 4.92022 3.39042 3.94099 4.53682L3.58328 4.9987H4.99772C5.36591 4.9987 5.66439 5.29717 5.66439 5.66536C5.66439 6.03355 5.36591 6.33203 4.99772 6.33203H1.99772C1.62953 6.33203 1.33105 6.03355 1.33105 5.66536V2.66536C1.33105 2.29717 1.62953 1.9987 1.99772 1.9987C2.36591 1.9987 2.66439 2.29717 2.66439 2.66536V4.00763L2.89633 3.70814C2.90248 3.70019 2.90882 3.69239 2.91532 3.68473C4.13714 2.24641 5.96124 1.33203 7.99821 1.33203C11.6801 1.33203 14.6649 4.3168 14.6649 7.9987C14.6649 11.6806 11.6801 14.6654 7.99821 14.6654C4.56624 14.6654 1.74076 12.0726 1.3722 8.73861C1.33175 8.37265 1.59562 8.04319 1.96158 8.00273C2.32754 7.96228 2.65701 8.22615 2.69746 8.59211C2.99216 11.258 5.25344 13.332 7.99821 13.332C10.9437 13.332 13.3315 10.9442 13.3315 7.9987C13.3315 5.05318 10.9437 2.66536 7.99821 2.66536Z" fill="#9AA1B4"/>
</svg>
