<svg width="24" height="24" viewBox="0 0 24 24" fill="none" xmlns="http://www.w3.org/2000/svg">
<path d="M12 13C12.5523 13 13 13.4477 13 14V16C13 16.5523 12.5523 17 12 17C11.4477 17 11 16.5523 11 16V14C11 13.4477 11.4477 13 12 13Z" fill="#9AA1B4"/>
<path fill-rule="evenodd" clip-rule="evenodd" d="M7 7C7 4.23858 9.23858 2 12 2C14.7614 2 17 4.23858 17 7V8.12602C18.7252 8.57006 20 10.1362 20 12V18C20 20.2091 18.2091 22 16 22H8C5.79086 22 4 20.2091 4 18V12C4 10.1362 5.27477 8.57006 7 8.12602V7ZM8 10C6.89543 10 6 10.8954 6 12V18C6 19.1046 6.89543 20 8 20H16C17.1046 20 18 19.1046 18 18V12C18 10.8954 17.1046 10 16 10H8ZM15 8H9V7C9 5.34315 10.3431 4 12 4C13.6569 4 15 5.34315 15 7V8Z" fill="#9AA1B4"/>
</svg>
