<svg width="24" height="24" viewBox="0 0 24 24" fill="none" xmlns="http://www.w3.org/2000/svg">
<path d="M6.5547 6.16795C6.09517 5.8616 5.4743 5.98577 5.16795 6.4453C4.8616 6.90483 4.98577 7.5257 5.4453 7.83205L8.8359 10.0924C9.8436 10.7642 11.1564 10.7642 12.1641 10.0925L15.5547 7.83205C16.0142 7.5257 16.1384 6.90483 15.8321 6.4453C15.5257 5.98577 14.9048 5.8616 14.4453 6.16795L11.0547 8.42835C10.7188 8.65228 10.2812 8.65228 9.9453 8.42835L6.5547 6.16795Z" fill="#9AA1B4"/>
<path fill-rule="evenodd" clip-rule="evenodd" d="M2 14C2 15.6569 3.34315 17 5 17V18C5 19.6569 6.34315 21 8 21H19C20.6569 21 22 19.6569 22 18V10C22 8.34315 20.6569 7 19 7V6C19 4.34315 17.6569 3 16 3H5C3.34315 3 2 4.34315 2 6V14ZM5 5C4.44772 5 4 5.44772 4 6V14C4 14.5523 4.44772 15 5 15H16C16.5523 15 17 14.5523 17 14V6C17 5.44772 16.5523 5 16 5H5ZM20 10C20 9.44772 19.5523 9 19 9V14C19 15.6569 17.6569 17 16 17H7V18C7 18.5523 7.44772 19 8 19H19C19.5523 19 20 18.5523 20 18V10Z" fill="#9AA1B4"/>
</svg>
