<svg width="25" height="24" viewBox="0 0 25 24" fill="none" xmlns="http://www.w3.org/2000/svg">
<path d="M6.47705 2C4.26791 2 2.47705 3.79086 2.47705 6V14.5C2.47705 16.7091 4.26791 18.5 6.47705 18.5H14.9771C17.1862 18.5 18.9771 16.7091 18.9771 14.5V13C18.9771 12.4477 18.5293 12 17.9771 12C17.4248 12 16.9771 12.4477 16.9771 13V14.5C16.9771 15.6046 16.0816 16.5 14.9771 16.5H6.47705C5.37248 16.5 4.47705 15.6046 4.47705 14.5V6C4.47705 4.89543 5.37248 4 6.47705 4H15.4771C16.3055 4 16.9771 4.67157 16.9771 5.5C16.9771 6.05228 17.4248 6.5 17.9771 6.5C18.5293 6.5 18.9771 6.05228 18.9771 5.5C18.9771 3.567 17.41 2 15.4771 2H6.47705Z" fill="#9AA1B4"/>
<path d="M22.4771 12C22.4771 9.79086 20.6862 8 18.4771 8L13.4771 8V7C13.4771 6.59554 13.2334 6.2309 12.8597 6.07612C12.4861 5.92134 12.0559 6.0069 11.7699 6.29289L9.76994 8.29289C9.58241 8.48043 9.47705 8.73478 9.47705 9C9.47705 9.26522 9.58241 9.51957 9.76994 9.70711L11.7699 11.7071C12.0559 11.9931 12.4861 12.0787 12.8597 11.9239C13.2334 11.7691 13.4771 11.4045 13.4771 11V10H18.4771C19.5816 10 20.4771 10.8954 20.4771 12V18C20.4771 19.1046 19.5816 20 18.4771 20H5.97705C5.97705 21.1046 6.87248 22 7.97705 22H18.4771C20.6862 22 22.4771 20.2091 22.4771 18V12Z" fill="#9AA1B4"/>
</svg>
