<svg width="24" height="24" viewBox="0 0 24 24" fill="none" xmlns="http://www.w3.org/2000/svg">
<path d="M7 3C4.79086 3 3 4.79086 3 7V8.5C3 9.05228 3.44772 9.5 4 9.5C4.55228 9.5 5 9.05228 5 8.5V7C5 5.89543 5.89543 5 7 5H8.5C9.05228 5 9.5 4.55228 9.5 4C9.5 3.44772 9.05228 3 8.5 3H7Z" fill="#9AA1B4"/>
<path d="M7 21C4.79086 21 3 19.2091 3 17V15.5C3 14.9477 3.44772 14.5 4 14.5C4.55228 14.5 5 14.9477 5 15.5V17C5 18.1046 5.89543 19 7 19H8.5C9.05228 19 9.5 19.4477 9.5 20C9.5 20.5523 9.05228 21 8.5 21H7Z" fill="#9AA1B4"/>
<path d="M21 7C21 4.79086 19.2091 3 17 3H15.5C14.9477 3 14.5 3.44772 14.5 4C14.5 4.55228 14.9477 5 15.5 5H17C18.1046 5 19 5.89543 19 7V8.5C19 9.05228 19.4477 9.5 20 9.5C20.5523 9.5 21 9.05228 21 8.5V7Z" fill="#9AA1B4"/>
<path d="M17 21C19.2091 21 21 19.2091 21 17V15.5C21 14.9477 20.5523 14.5 20 14.5C19.4477 14.5 19 14.9477 19 15.5V17C19 18.1046 18.1046 19 17 19H15.5C14.9477 19 14.5 19.4477 14.5 20C14.5 20.5523 14.9477 21 15.5 21H17Z" fill="#9AA1B4"/>
</svg>
