<svg width="25" height="24" viewBox="0 0 25 24" fill="none" xmlns="http://www.w3.org/2000/svg">
<path fill-rule="evenodd" clip-rule="evenodd" d="M2.24658 12C2.24658 6.47702 6.7236 2 12.2466 2C17.7696 2 22.2466 6.47702 22.2466 12C22.2466 12.6275 22.0966 13.5687 21.6041 14.3895C21.0802 15.2625 20.1557 16 18.7466 16C17.6466 16 16.8419 15.5506 16.2926 14.9382C15.3837 16.1877 13.91 17 12.2466 17C9.48516 17 7.24658 14.7614 7.24658 12C7.24658 9.23858 9.48516 7 12.2466 7C13.3722 7 14.4109 7.37194 15.2466 7.99963C15.2468 7.44752 15.6944 7 16.2466 7C16.7989 7 17.2466 7.44772 17.2466 8V12C17.2466 12.3725 17.3466 12.9313 17.6041 13.3605C17.8302 13.7375 18.1557 14 18.7466 14C19.3375 14 19.6629 13.7375 19.8891 13.3605C20.1466 12.9313 20.2466 12.3725 20.2466 12C20.2466 7.58158 16.665 4 12.2466 4C7.82817 4 4.24658 7.58158 4.24658 12C4.24658 16.4184 7.82817 20 12.2466 20C14.0495 20 15.7102 19.4052 17.0466 18.4006C17.4881 18.0688 18.115 18.1577 18.4468 18.5992C18.7787 19.0406 18.6898 19.6675 18.2483 19.9994C16.577 21.2556 14.4973 22 12.2466 22C6.7236 22 2.24658 17.523 2.24658 12ZM15.2466 12C15.2466 10.3431 13.9034 9 12.2466 9C10.5897 9 9.24658 10.3431 9.24658 12C9.24658 13.6569 10.5897 15 12.2466 15C13.9034 15 15.2466 13.6569 15.2466 12Z" fill="#9AA1B4"/>
</svg>
