<svg width="25" height="24" viewBox="0 0 25 24" fill="none" xmlns="http://www.w3.org/2000/svg">
<path d="M17.1844 7.70711C17.5749 7.31658 17.5749 6.68342 17.1844 6.29289L13.1844 2.29289C12.7958 1.90435 12.1666 1.90209 11.7752 2.28783L7.77525 6.2307C7.38193 6.6184 7.37737 7.25155 7.76508 7.64487C8.15278 8.0382 8.78593 8.04275 9.17925 7.65505L11.4773 5.38987V13.0367C11.4773 16.3528 9.15038 19.214 5.90382 19.8898L5.27346 20.021C4.73276 20.1335 4.38569 20.6631 4.49824 21.2038C4.61079 21.7445 5.14035 22.0916 5.68105 21.979L6.3114 21.8478C10.4856 20.9789 13.4773 17.3003 13.4773 13.0367V5.41421L15.7701 7.70711C16.1607 8.09763 16.7938 8.09763 17.1844 7.70711Z" fill="#9AA1B4"/>
<path d="M18.5915 21.8329C16.5795 21.4018 14.8461 20.3175 13.5941 18.8312C13.9979 18.1903 14.3221 17.4966 14.5549 16.7647C15.534 18.3172 17.113 19.4707 19.0105 19.8773L19.6868 20.0222C20.2268 20.1379 20.5708 20.6695 20.4551 21.2095C20.3393 21.7496 19.8077 22.0935 19.2677 21.9778L18.5915 21.8329Z" fill="#9AA1B4"/>
</svg>
