<svg width="25" height="24" viewBox="0 0 25 24" fill="none" xmlns="http://www.w3.org/2000/svg">
<path fill-rule="evenodd" clip-rule="evenodd" d="M21.3636 2.2526C21.7764 2.61952 21.8136 3.25159 21.4466 3.66437L5.44664 21.6644C5.07972 22.0772 4.44765 22.1143 4.03487 21.7474C3.62208 21.3805 3.5849 20.7484 3.95182 20.3356L7.3043 16.5641C6.01598 15.4636 5.19923 13.8272 5.19923 12V11C5.19923 10.4477 5.64694 10 6.19923 10C6.75151 10 7.19923 10.4477 7.19923 11V12C7.19923 13.2326 7.75678 14.3351 8.63345 15.0688L9.8003 13.7561C9.11902 13.0396 8.69923 12.0683 8.69923 11V6.00001C8.69923 3.79087 10.4901 2.00001 12.6992 2.00001C14.9066 2.00001 16.6964 3.78806 16.6992 5.99481L19.9518 2.33565C20.3187 1.92286 20.9508 1.88568 21.3636 2.2526ZM14.6992 8.24481L11.1384 12.2508C10.8629 11.9078 10.6992 11.4734 10.6992 11V6.00001C10.6992 4.89544 11.5947 4.00001 12.6992 4.00001C13.8038 4.00001 14.6992 4.89544 14.6992 6.00001V8.24481Z" fill="#9AA1B4"/>
<path d="M11.6992 18H11.1992L11.1485 17.9998L12.9261 16H14.1992C16.4084 16 18.1992 14.2091 18.1992 12V11C18.1992 10.4477 18.6469 10 19.1992 10C19.7515 10 20.1992 10.4477 20.1992 11V12C20.1992 15.3137 17.5129 18 14.1992 18H13.6992V21C13.6992 21.5523 13.2515 22 12.6992 22C12.1469 22 11.6992 21.5523 11.6992 21V18Z" fill="#9AA1B4"/>
</svg>
