<?xml version="1.0" encoding="utf-8"?>
<!-- Generator: Adobe Illustrator 22.1.0, SVG Export Plug-In . SVG Version: 6.00 Build 0)  -->
<svg version="1.1" id="Layer_1" xmlns="http://www.w3.org/2000/svg" xmlns:xlink="http://www.w3.org/1999/xlink" x="0px" y="0px"
	 viewBox="0 0 25 24" style="enable-background:new 0 0 25 24;" xml:space="preserve">
<style type="text/css">
	.st0{fill:#9AA1B4;}
</style>
<g>
	<path class="st0" d="M21.4,2.3c-0.4-0.4-1-0.3-1.4,0.1L16.7,6c0-2.2-1.8-4-4-4c-2.2,0-4,1.8-4,4v5c0,1.1,0.4,2,1.1,2.8l-1.2,1.3
		c-0.9-0.7-1.4-1.8-1.4-3.1v-1c0-0.6-0.4-1-1-1s-1,0.4-1,1v1c0,1.8,0.8,3.5,2.1,4.6L4,20.3c-0.4,0.4-0.3,1,0.1,1.4
		c0.4,0.4,1,0.3,1.4-0.1l16-18C21.8,3.3,21.8,2.6,21.4,2.3z M14.7,8.2l-3.6,4c-0.3-0.3-0.4-0.8-0.4-1.3V6c0-1.1,0.9-2,2-2
		c1.1,0,2,0.9,2,2V8.2z"/>
	<path class="st0" d="M19.2,10c-0.6,0-1,0.4-1,1v1c0,2.2-1.8,4-4,4h-1.3l-1.8,2l0.1,0h0.5v3c0,0.6,0.4,1,1,1s1-0.4,1-1v-3h0.5
		c3.3,0,6-2.7,6-6v-1C20.2,10.4,19.8,10,19.2,10z"/>
</g>
</svg>
