<svg width="24" height="24" viewBox="0 0 24 24" fill="none" xmlns="http://www.w3.org/2000/svg">
<path fill-rule="evenodd" clip-rule="evenodd" d="M8 6C8 3.79086 9.79086 2 12 2C14.2091 2 16 3.79086 16 6V11C16 13.2091 14.2091 15 12 15C9.79086 15 8 13.2091 8 11V6ZM12 4C10.8954 4 10 4.89543 10 6V11C10 12.1046 10.8954 13 12 13C13.1046 13 14 12.1046 14 11V6C14 4.89543 13.1046 4 12 4Z" fill="#9AA1B4"/>
<path d="M5.5 10C6.05228 10 6.5 10.4477 6.5 11V12C6.5 14.2091 8.29086 16 10.5 16H13.5C15.7091 16 17.5 14.2091 17.5 12V11C17.5 10.4477 17.9477 10 18.5 10C19.0523 10 19.5 10.4477 19.5 11V12C19.5 15.3137 16.8137 18 13.5 18H13V21C13 21.5523 12.5523 22 12 22C11.4477 22 11 21.5523 11 21V18H10.5C7.18629 18 4.5 15.3137 4.5 12V11C4.5 10.4477 4.94772 10 5.5 10Z" fill="#9AA1B4"/>
</svg>
