<svg width="24" height="24" viewBox="0 0 24 24" fill="none" xmlns="http://www.w3.org/2000/svg">
<path fill-rule="evenodd" clip-rule="evenodd" d="M11.9999 17C11.1307 17 10.3885 17.5551 10.1135 18.3332C9.92945 18.854 9.35812 19.1269 8.83741 18.9428C8.31669 18.7588 8.04377 18.1875 8.22781 17.6668C8.49285 16.9169 8.97529 16.2692 9.59975 15.8C9.22316 15.2986 9 14.6753 9 14C9 12.3431 10.3431 11 12 11C13.6569 11 15 12.3431 15 14C15 14.6754 14.7768 15.2986 14.4002 15.8C15.0246 16.2693 15.5071 16.9169 15.7721 17.6668C15.9561 18.1875 15.6832 18.7588 15.1625 18.9428C14.6418 19.1269 14.0704 18.854 13.8864 18.3332C13.6114 17.5551 12.8692 17 11.9999 17ZM11 14C11 13.4477 11.4477 13 12 13C12.5523 13 13 13.4477 13 14C13 14.5523 12.5523 15 12 15C11.4477 15 11 14.5523 11 14Z" fill="#9AA1B4"/>
<path fill-rule="evenodd" clip-rule="evenodd" d="M7 2C7.55228 2 8 2.44772 8 3V4H16V3C16 2.44772 16.4477 2 17 2C17.5523 2 18 2.44772 18 3V4C20.2091 4 22 5.79086 22 8V18C22 20.2091 20.2091 22 18 22H6C3.79086 22 2 20.2091 2 18V8C2 5.79086 3.79086 4 6 4V3C6 2.44772 6.44772 2 7 2ZM18 6C18.9319 6 19.715 6.63739 19.937 7.5H4.06301C4.28503 6.63739 5.06808 6 6 6H18ZM4 9.5V18C4 19.1046 4.89543 20 6 20H18C19.1046 20 20 19.1046 20 18V9.5H4Z" fill="#9AA1B4"/>
</svg>
