<svg width="25" height="24" viewBox="0 0 25 24" fill="none" xmlns="http://www.w3.org/2000/svg">
<path fill-rule="evenodd" clip-rule="evenodd" d="M12.2872 6.8368C11.7604 5.72107 10.1937 5.72107 9.66692 6.8368L8.90359 8.45364L7.21487 8.71016C5.97772 8.89808 5.60319 10.3938 6.4005 11.2062L7.64839 12.4778L7.35206 14.284C7.17058 15.3901 8.32389 16.4548 9.47717 15.821L10.9771 14.9967L12.4769 15.821C13.6302 16.4548 14.7835 15.3901 14.602 14.284L14.3057 12.4778L15.5536 11.2062C16.3509 10.3938 15.9764 8.89808 14.7392 8.71016L13.0505 8.45364L12.2872 6.8368ZM10.59 9.56618L10.9771 8.74643L11.3641 9.56618C11.5661 9.99408 11.9685 10.3122 12.4589 10.3867L13.4134 10.5317L12.6935 11.2653C12.358 11.6071 12.2147 12.0863 12.2902 12.5464L12.4507 13.5244L11.6693 13.095C11.2375 12.8577 10.7166 12.8577 10.2848 13.095L9.50342 13.5244L9.66389 12.5464C9.73937 12.0863 9.59612 11.6071 9.26064 11.2653L8.54074 10.5317L9.49516 10.3867C9.9856 10.3122 10.388 9.99408 10.59 9.56618Z" fill="#9AA1B4"/>
<path fill-rule="evenodd" clip-rule="evenodd" d="M20.4771 15.5V7.5H21.4771C22.0293 7.5 22.4771 7.05229 22.4771 6.5C22.4771 5.94772 22.0293 5.5 21.4771 5.5H20.4461C20.2001 3.52684 18.5169 2 16.4771 2H6.47705C4.26791 2 2.47705 3.79086 2.47705 6V17C2.47705 19.2091 4.26791 21 6.47705 21H16.477C18.5169 21 20.2001 19.4732 20.4461 17.5H21.4771C22.0293 17.5 22.4771 17.0523 22.4771 16.5C22.4771 15.9477 22.0293 15.5 21.4771 15.5H20.4771ZM17.9771 5.5H18.414C18.192 4.63739 17.409 4 16.4771 4L6.47705 4C5.37248 4 4.47705 4.89543 4.47705 6L4.47705 17C4.47705 18.1046 5.37248 19 6.47705 19H16.477C17.409 19 18.192 18.3626 18.414 17.5H17.9771C17.4248 17.5 16.9771 17.0523 16.9771 16.5C16.9771 15.9477 17.4248 15.5 17.9771 15.5H18.477L18.4771 7.5H17.9771C17.4248 7.5 16.9771 7.05228 16.9771 6.5C16.9771 5.94772 17.4248 5.5 17.9771 5.5Z" fill="#9AA1B4"/>
</svg>
