<svg width="25" height="24" viewBox="0 0 25 24" fill="none" xmlns="http://www.w3.org/2000/svg">
<path d="M15.2466 10C15.2466 10.5523 15.6943 11 16.2466 11C16.7989 11 17.2466 10.5523 17.2466 10V8C17.2466 7.44772 16.7989 7 16.2466 7C15.6943 7 15.2466 7.44772 15.2466 8V10Z" fill="#9AA1B4"/>
<path d="M12.2466 15C11.6943 15 11.2466 14.5523 11.2466 14V8C11.2466 7.44772 11.6943 7 12.2466 7C12.7989 7 13.2466 7.44772 13.2466 8V14C13.2466 14.5523 12.7989 15 12.2466 15Z" fill="#9AA1B4"/>
<path d="M7.24658 12C7.24658 12.5523 7.6943 13 8.24658 13C8.79887 13 9.24658 12.5523 9.24658 12V8C9.24658 7.44772 8.79887 7 8.24658 7C7.6943 7 7.24658 7.44772 7.24658 8V12Z" fill="#9AA1B4"/>
<path fill-rule="evenodd" clip-rule="evenodd" d="M21.7466 17.5V6.5C21.7466 4.29086 19.9557 2.5 17.7466 2.5H6.74658C4.53744 2.5 2.74658 4.29086 2.74658 6.5V17.5C2.74658 19.7091 4.53744 21.5 6.74658 21.5H17.7466C19.9557 21.5 21.7466 19.7091 21.7466 17.5ZM17.7466 4.5C18.8512 4.5 19.7466 5.39543 19.7466 6.5V17.5C19.7466 18.6046 18.8512 19.5 17.7466 19.5H6.74658C5.64201 19.5 4.74658 18.6046 4.74658 17.5L4.74658 6.5C4.74658 5.39543 5.64201 4.5 6.74658 4.5L17.7466 4.5Z" fill="#9AA1B4"/>
</svg>
