<svg width="25" height="24" viewBox="0 0 25 24" fill="none" xmlns="http://www.w3.org/2000/svg">
<path d="M6.24658 5C6.24658 4.44772 6.6943 4 7.24658 4H12.7466C13.2989 4 13.7466 3.55228 13.7466 3C13.7466 2.44772 13.2989 2 12.7466 2H7.24658C5.58973 2 4.24658 3.34315 4.24658 5V19C4.24658 20.6569 5.58973 22 7.24658 22H17.2466C18.9034 22 20.2466 20.6569 20.2466 19V7.5C20.2466 6.94772 19.7989 6.5 19.2466 6.5C18.6943 6.5 18.2466 6.94772 18.2466 7.5V19C18.2466 19.5523 17.7989 20 17.2466 20H7.24658C6.6943 20 6.24658 19.5523 6.24658 19V5Z" fill="#9AA1B4"/>
<path d="M15.2466 14C15.7989 14 16.2466 13.5523 16.2466 13C16.2466 12.4477 15.7989 12 15.2466 12H9.24658C8.6943 12 8.24658 12.4477 8.24658 13C8.24658 13.5523 8.6943 14 9.24658 14H15.2466Z" fill="#9AA1B4"/>
<path d="M16.2466 17C16.2466 17.5523 15.7989 18 15.2466 18H9.24658C8.6943 18 8.24658 17.5523 8.24658 17C8.24658 16.4477 8.6943 16 9.24658 16H15.2466C15.7989 16 16.2466 16.4477 16.2466 17Z" fill="#9AA1B4"/>
<path d="M16.9614 5.69929C17.3476 5.3045 17.3407 4.67138 16.9459 4.28517C16.5511 3.89896 15.918 3.90591 15.5317 4.30071L12.3335 7.56999L10.9614 6.16737C10.5752 5.77258 9.94208 5.76562 9.54729 6.15183C9.1525 6.53804 9.14554 7.17117 9.53175 7.56596L11.6187 9.69929C11.8068 9.8916 12.0645 10 12.3335 10C12.6026 10 12.8602 9.8916 13.0484 9.69929L16.9614 5.69929Z" fill="#9AA1B4"/>
</svg>
