<svg width="25" height="24" viewBox="0 0 25 24" fill="none" xmlns="http://www.w3.org/2000/svg">
<path d="M10.1992 8.5C10.7515 8.5 11.1992 8.94772 11.1992 9.5V11H12.6992C13.2515 11 13.6992 11.4477 13.6992 12C13.6992 12.5523 13.2515 13 12.6992 13H11.1992V14.5C11.1992 15.0523 10.7515 15.5 10.1992 15.5C9.64693 15.5 9.19922 15.0523 9.19922 14.5V13H7.69922C7.14693 13 6.69922 12.5523 6.69922 12C6.69922 11.4477 7.14693 11 7.69922 11H9.19922V9.5C9.19922 8.94772 9.64693 8.5 10.1992 8.5Z" fill="#9AA1B4"/>
<path fill-rule="evenodd" clip-rule="evenodd" d="M6.69922 4C4.49008 4 2.69922 5.79086 2.69922 8V16C2.69922 18.2091 4.49008 20 6.69922 20H13.6992C15.6602 20 17.2916 18.5889 17.6334 16.7267L19.6702 17.9488C21.0033 18.7486 22.6992 17.7884 22.6992 16.2338V7.76619C22.6992 6.2116 21.0033 5.25138 19.6702 6.05121L17.6334 7.27332C17.2916 5.41112 15.6602 4 13.6992 4H6.69922ZM20.6992 7.76619L17.6992 9.56619V14.4338L20.6992 16.2338V7.76619ZM15.6992 8C15.6992 6.89543 14.8038 6 13.6992 6H6.69922C5.59465 6 4.69922 6.89543 4.69922 8V16C4.69922 17.1046 5.59465 18 6.69922 18H13.6992C14.8038 18 15.6992 17.1046 15.6992 16V8Z" fill="#9AA1B4"/>
</svg>
