<svg width="24" height="24" viewBox="0 0 24 24" fill="none" xmlns="http://www.w3.org/2000/svg">
<path d="M16.2148 10.6993C16.601 10.3045 16.5941 9.67138 16.1993 9.28517C15.8045 8.89896 15.1714 8.90591 14.7852 9.30071L11.587 12.57L10.2148 11.1674C9.82862 10.7726 9.1955 10.7656 8.80071 11.1518C8.40591 11.538 8.39896 12.1712 8.78517 12.566L10.8721 14.6993C11.0603 14.8916 11.3179 15 11.587 15C11.856 15 12.1137 14.8916 12.3018 14.6993L16.2148 10.6993Z" fill="#9AA1B4"/>
<path fill-rule="evenodd" clip-rule="evenodd" d="M12.4111 2.08842C12.1497 1.97053 11.8503 1.97053 11.5889 2.08842L3.58887 5.69653C3.23043 5.85819 3 6.2149 3 6.60811V11.9938C3 15.5469 5.30799 18.0583 7.40482 19.6113C8.46845 20.3991 9.52589 20.9779 10.3144 21.3595C10.71 21.5509 11.0413 21.6943 11.2765 21.7908C11.3941 21.8391 11.4879 21.8758 11.554 21.901C11.5714 21.9076 11.587 21.9135 11.6005 21.9185C11.6125 21.923 11.623 21.9269 11.6317 21.9301L11.6541 21.9383L11.661 21.9408L11.6634 21.9416C11.6638 21.9418 11.665 21.9422 12 21L11.665 21.9422C11.8817 22.0193 12.1183 22.0193 12.335 21.9422L12 21C12.335 21.9422 12.3346 21.9424 12.335 21.9422L12.3366 21.9416L12.339 21.9408L12.3459 21.9383L12.3683 21.9301C12.3869 21.9233 12.413 21.9136 12.446 21.901C12.5121 21.8758 12.6059 21.8391 12.7235 21.7908C12.9587 21.6943 13.29 21.5509 13.6856 21.3595C14.4741 20.9779 15.5315 20.3991 16.5952 19.6113C18.692 18.0583 21 15.5469 21 11.9938V6.60811C21 6.2149 20.7696 5.85819 20.4111 5.69653L12.4111 2.08842ZM12.8144 19.5592C12.4805 19.7208 12.2005 19.8428 12 19.9258C11.7995 19.8428 11.5195 19.7208 11.1856 19.5592C10.4741 19.2149 9.53155 18.6976 8.59518 18.0041C6.69201 16.5945 5 14.6028 5 11.9938V7.2541L12 4.097L19 7.2541V11.9938C19 14.6028 17.308 16.5945 15.4048 18.0041C14.4685 18.6976 13.5259 19.2149 12.8144 19.5592Z" fill="#9AA1B4"/>
</svg>
