<svg width="24" height="24" viewBox="0 0 24 24" fill="none" xmlns="http://www.w3.org/2000/svg">
<path fill-rule="evenodd" clip-rule="evenodd" d="M4 3C4 2.44772 4.44772 2 5 2H17C19.2091 2 21 3.79086 21 6V18C21 20.2091 19.2091 22 17 22H5C4.44772 22 4 21.5523 4 21V18H3C2.44772 18 2 17.5523 2 17C2 16.4477 2.44772 16 3 16H4V13H3C2.44772 13 2 12.5523 2 12C2 11.4477 2.44772 11 3 11H4V8H3C2.44772 8 2 7.55228 2 7C2 6.44772 2.44772 6 3 6H4V3ZM14 4H11V6.52297L12.1286 6.07152C12.367 5.97616 12.633 5.97616 12.8714 6.07152L14 6.52297V4ZM9 4V8C9 8.33182 9.1646 8.64204 9.43937 8.82807C9.71414 9.0141 10.0633 9.05171 10.3714 8.92848L12.5 8.07703L14.6286 8.92848C14.9367 9.05171 15.2859 9.0141 15.5606 8.82807C15.8354 8.64204 16 8.33182 16 8V4H17C18.1046 4 19 4.89543 19 6V18C19 19.1046 18.1046 20 17 20H6V18C6.55228 18 7 17.5523 7 17C7 16.4477 6.55228 16 6 16V13C6.55228 13 7 12.5523 7 12C7 11.4477 6.55228 11 6 11V8C6.55228 8 7 7.55228 7 7C7 6.44772 6.55228 6 6 6V4H9Z" fill="#9AA1B4"/>
</svg>
