<?xml version="1.0" encoding="utf-8"?>
<!-- Generator: Adobe Illustrator 22.1.0, SVG Export Plug-In . SVG Version: 6.00 Build 0)  -->
<svg version="1.1" id="Layer_1" xmlns="http://www.w3.org/2000/svg" xmlns:xlink="http://www.w3.org/1999/xlink" x="0px" y="0px"
	 viewBox="0 0 24 24" style="enable-background:new 0 0 24 24;" xml:space="preserve">
<style type="text/css">
	.st0{fill:#9AA1B4;}
</style>
<path class="st0" d="M17,2H5C4.4,2,4,2.4,4,3v3H3C2.4,6,2,6.4,2,7s0.4,1,1,1h1v3H3c-0.6,0-1,0.4-1,1s0.4,1,1,1h1v3H3
	c-0.6,0-1,0.4-1,1s0.4,1,1,1h1v3c0,0.6,0.4,1,1,1h12c2.2,0,4-1.8,4-4V6C21,3.8,19.2,2,17,2z M11,4h3v2.5l-1.1-0.5
	c-0.2-0.1-0.5-0.1-0.7,0L11,6.5V4z M19,18c0,1.1-0.9,2-2,2H6v-2c0.6,0,1-0.4,1-1s-0.4-1-1-1v-3c0.6,0,1-0.4,1-1s-0.4-1-1-1V8
	c0.6,0,1-0.4,1-1S6.6,6,6,6V4h3v4c0,0.3,0.2,0.6,0.4,0.8c0.3,0.2,0.6,0.2,0.9,0.1l2.1-0.9l2.1,0.9c0.3,0.1,0.7,0.1,0.9-0.1
	C15.8,8.6,16,8.3,16,8V4h1c1.1,0,2,0.9,2,2V18z"/>
</svg>
