<svg width="24" height="24" viewBox="0 0 24 24" fill="none" xmlns="http://www.w3.org/2000/svg">
<path fill-rule="evenodd" clip-rule="evenodd" d="M3 8C3 7.44772 3.44772 7 4 7H17C17.5523 7 18 7.44772 18 8V17C18 19.7614 15.7614 22 13 22H8C5.23858 22 3 19.7614 3 17V8ZM5 9V17C5 18.6569 6.34315 20 8 20H13C14.6569 20 16 18.6569 16 17V9H5Z" fill="#9AA1B4"/>
<path fill-rule="evenodd" clip-rule="evenodd" d="M16 9.5H18C20.2091 9.5 22 11.2909 22 13.5V14.5C22 16.7091 20.2091 18.5 18 18.5H16V16.5H18C19.1046 16.5 20 15.6046 20 14.5V13.5C20 12.3954 19.1046 11.5 18 11.5H16V9.5Z" fill="#9AA1B4"/>
<path fill-rule="evenodd" clip-rule="evenodd" d="M10.5 2C11.0523 2 11.5 2.44772 11.5 3V5C11.5 5.55228 11.0523 6 10.5 6C9.94772 6 9.5 5.55228 9.5 5V3C9.5 2.44772 9.94772 2 10.5 2ZM6.5 3.5C7.05228 3.5 7.5 3.94772 7.5 4.5V5C7.5 5.55228 7.05228 6 6.5 6C5.94772 6 5.5 5.55228 5.5 5V4.5C5.5 3.94772 5.94772 3.5 6.5 3.5ZM14.5 3.5C15.0523 3.5 15.5 3.94772 15.5 4.5V5C15.5 5.55228 15.0523 6 14.5 6C13.9477 6 13.5 5.55228 13.5 5V4.5C13.5 3.94772 13.9477 3.5 14.5 3.5Z" fill="#9AA1B4"/>
</svg>
