<svg width="24" height="24" viewBox="0 0 24 24" fill="none" xmlns="http://www.w3.org/2000/svg">
<path d="M5.35406 3.33875C5.59793 3.46926 5.75016 3.7234 5.75016 4V9.25H6.50016C6.91438 9.25 7.25016 9.58579 7.25016 10C7.25016 10.4142 6.91438 10.75 6.50016 10.75H3.50016C3.08595 10.75 2.75016 10.4142 2.75016 10C2.75016 9.58579 3.08595 9.25 3.50016 9.25H4.25016V5.40139L3.91619 5.62404C3.57154 5.8538 3.10589 5.76067 2.87613 5.41603C2.64636 5.07138 2.73949 4.60573 3.08414 4.37596L4.58414 3.37596C4.81428 3.22254 5.11019 3.20823 5.35406 3.33875Z" fill="#9AA1B4"/>
<path d="M22.0002 12C22.0002 12.5523 21.5524 13 21.0002 13H10.0002C9.44788 13 9.00016 12.5523 9.00016 12C9.00016 11.4477 9.44788 11 10.0002 11L21.0002 11C21.5524 11 22.0002 11.4477 22.0002 12Z" fill="#9AA1B4"/>
<path d="M21.0002 7C21.5524 7 22.0002 6.55229 22.0002 6C22.0002 5.44772 21.5524 5 21.0002 5L10.0002 5C9.44788 5 9.00016 5.44772 9.00016 6C9.00016 6.55229 9.44788 7 10.0002 7L21.0002 7Z" fill="#9AA1B4"/>
<path d="M22.0002 18C22.0002 18.5523 21.5524 19 21.0002 19H10.0002C9.44788 19 9.00016 18.5523 9.00016 18C9.00016 17.4477 9.44788 17 10.0002 17H21.0002C21.5524 17 22.0002 17.4477 22.0002 18Z" fill="#9AA1B4"/>
<path d="M4.51036 13.25C3.60717 13.25 2.78149 13.7603 2.37757 14.5681L2.32934 14.6646C2.1441 15.0351 2.29427 15.4856 2.66475 15.6708C3.03524 15.8561 3.48574 15.7059 3.67098 15.3354L3.71921 15.239C3.86904 14.9393 4.17533 14.75 4.51036 14.75C5.26031 14.75 5.66998 15.6247 5.18988 16.2008L2.424 19.5199C2.2377 19.7434 2.19754 20.0546 2.32097 20.3181C2.44441 20.5817 2.70915 20.75 3.00016 20.75H6.3335C6.74771 20.75 7.0835 20.4142 7.0835 20C7.0835 19.5858 6.74771 19.25 6.3335 19.25H4.60145L6.34221 17.1611C7.63648 15.608 6.53206 13.25 4.51036 13.25Z" fill="#9AA1B4"/>
</svg>
