<svg width="24" height="24" viewBox="0 0 24 24" fill="none" xmlns="http://www.w3.org/2000/svg">
<path d="M7 4C6.44772 4 6 4.44772 6 5C6 5.55228 6.44772 6 7 6H17C17.5523 6 18 5.55228 18 5C18 4.44772 17.5523 4 17 4H7Z" fill="#9AA1B4"/>
<path d="M2 9.5C2 8.94772 2.44772 8.5 3 8.5H21C21.5523 8.5 22 8.94772 22 9.5C22 10.0523 21.5523 10.5 21 10.5H3C2.44772 10.5 2 10.0523 2 9.5Z" fill="#9AA1B4"/>
<path d="M7 13C6.44772 13 6 13.4477 6 14C6 14.5523 6.44772 15 7 15H17C17.5523 15 18 14.5523 18 14C18 13.4477 17.5523 13 17 13H7Z" fill="#9AA1B4"/>
<path d="M3 17.5C2.44772 17.5 2 17.9477 2 18.5C2 19.0523 2.44772 19.5 3 19.5H21C21.5523 19.5 22 19.0523 22 18.5C22 17.9477 21.5523 17.5 21 17.5H3Z" fill="#9AA1B4"/>
</svg>
