<svg width="17" height="16" viewBox="0 0 17 16" fill="none" xmlns="http://www.w3.org/2000/svg">
<path fill-rule="evenodd" clip-rule="evenodd" d="M3.604 1.25C2.63751 1.25 1.854 2.0335 1.854 3V8.5C1.854 9.4665 2.63751 10.25 3.604 10.25H5.854L5.854 12C5.854 12.9665 6.63751 13.75 7.604 13.75H10.482C10.7909 14.6239 11.6243 15.25 12.604 15.25C13.8466 15.25 14.854 14.2426 14.854 13C14.854 11.7574 13.8466 10.75 12.604 10.75C11.6243 10.75 10.7909 11.3761 10.482 12.25H7.604C7.46593 12.25 7.354 12.1381 7.354 12L7.354 10.25H10.104C11.0705 10.25 11.854 9.4665 11.854 8.5V4.5C11.854 3.5335 11.0705 2.75 10.104 2.75H7.97393C7.91425 2.75 7.85654 2.72865 7.81123 2.68981L6.62296 1.6713C6.30579 1.39944 5.90182 1.25 5.48408 1.25H3.604ZM3.354 3C3.354 2.86193 3.46593 2.75 3.604 2.75H5.48408C5.54376 2.75 5.60147 2.77135 5.64678 2.81019L6.83504 3.8287C7.15222 4.10056 7.55618 4.25 7.97393 4.25H10.104C10.2421 4.25 10.354 4.36193 10.354 4.5V8.5C10.354 8.63807 10.2421 8.75 10.104 8.75H3.604C3.46593 8.75 3.354 8.63807 3.354 8.5V3ZM12.604 12.25C12.1898 12.25 11.854 12.5858 11.854 13C11.854 13.4142 12.1898 13.75 12.604 13.75C13.0182 13.75 13.354 13.4142 13.354 13C13.354 12.5858 13.0182 12.25 12.604 12.25Z" fill="#9AA1B4"/>
</svg>
