<svg width="25" height="24" viewBox="0 0 25 24" fill="none" xmlns="http://www.w3.org/2000/svg">
<path d="M13.2466 11.7324C13.8444 11.3866 14.2466 10.7403 14.2466 10C14.2466 8.89543 13.3512 8 12.2466 8C11.142 8 10.2466 8.89543 10.2466 10C10.2466 10.7403 10.6488 11.3866 11.2466 11.7324V14C11.2466 14.5523 11.6943 15 12.2466 15C12.7989 15 13.2466 14.5523 13.2466 14V11.7324Z" fill="#9AA1B4"/>
<path fill-rule="evenodd" clip-rule="evenodd" d="M11.8354 2.08842C12.0969 1.97053 12.3963 1.97053 12.6577 2.08842L20.6577 5.69653C21.0162 5.85819 21.2466 6.2149 21.2466 6.60811V11.9938C21.2466 15.5469 18.9386 18.0583 16.8418 19.6113C15.7781 20.3991 14.7207 20.9779 13.9322 21.3595C13.5366 21.5509 13.2052 21.6943 12.9701 21.7908C12.8525 21.8391 12.7586 21.8758 12.6926 21.901C12.6596 21.9136 12.6335 21.9233 12.6148 21.9301L12.5925 21.9383L12.5855 21.9408L12.5832 21.9416C12.5828 21.9418 12.5816 21.9422 12.2466 21C11.9116 21.9422 11.9113 21.9421 11.9109 21.942L11.9076 21.9408L11.9007 21.9383L11.8783 21.9301L11.8471 21.9185L11.8006 21.901C11.7345 21.8758 11.6407 21.8391 11.5231 21.7908C11.2879 21.6943 10.9566 21.5509 10.561 21.3595C9.77247 20.9779 8.71503 20.3991 7.6514 19.6113C5.55458 18.0583 3.24658 15.5469 3.24658 11.9938V6.60811C3.24658 6.2149 3.47701 5.85819 3.83545 5.69653L11.8354 2.08842ZM12.2466 19.9258C12.4471 19.8428 12.7271 19.7208 13.061 19.5592C13.7725 19.2149 14.715 18.6976 15.6514 18.0041C17.5546 16.5945 19.2466 14.6028 19.2466 11.9938V7.2541L12.2466 4.097L5.24658 7.2541V11.9938C5.24658 14.6028 6.93859 16.5945 8.84176 18.0041C9.77813 18.6976 10.7207 19.2149 11.4322 19.5592C11.7661 19.7208 12.0461 19.8428 12.2466 19.9258Z" fill="#9AA1B4"/>
<path d="M12.2466 21L12.5816 21.9422C12.3649 22.0193 12.1276 22.019 11.9109 21.942L12.2466 21Z" fill="#9AA1B4"/>
</svg>
