<svg width="25" height="24" viewBox="0 0 25 24" fill="none" xmlns="http://www.w3.org/2000/svg">
<path fill-rule="evenodd" clip-rule="evenodd" d="M9.47705 15C9.47705 13.3431 10.8202 12 12.4771 12C14.1339 12 15.4771 13.3431 15.4771 15C15.4771 16.6569 14.1339 18 12.4771 18C10.8202 18 9.47705 16.6569 9.47705 15ZM12.4771 14C11.9248 14 11.4771 14.4477 11.4771 15C11.4771 15.5523 11.9248 16 12.4771 16C13.0293 16 13.4771 15.5523 13.4771 15C13.4771 14.4477 13.0293 14 12.4771 14Z" fill="#9AA1B4"/>
<path fill-rule="evenodd" clip-rule="evenodd" d="M12.27 3C14.124 3.00157 16.0164 3.37978 18.1867 4.09736C19.1599 4.41914 20.2033 4.85317 21.0146 5.52176C21.8622 6.22021 22.4742 7.19453 22.4753 8.50439L22.4771 10.7232C22.4781 11.9971 21.4353 12.9607 20.2234 12.9988L21.4124 18.3492C21.8287 20.2227 20.4031 22 18.4838 22H6.47028C4.55104 22 3.12538 20.2227 3.54172 18.3492L4.73315 12.9878C3.52204 12.95 2.47989 11.988 2.47885 10.7158L2.47705 8.49191C2.47598 7.16873 3.10684 6.2136 3.95504 5.53167C4.75955 4.88486 5.79498 4.45255 6.72024 4.10271C8.64189 3.37612 10.4095 2.99843 12.27 3ZM12.2683 5C10.6996 4.99868 9.17413 5.31306 7.42758 5.97345C6.50409 6.32263 5.74032 6.66257 5.2082 7.09038C4.71977 7.48307 4.47658 7.90493 4.47705 8.49029L4.47885 10.7141C4.47895 10.8301 4.59246 10.9956 4.81858 10.9887L6.87373 10.9262C7.15782 10.9176 7.39851 10.7695 7.52349 10.5631L8.77754 8.49281C8.9277 8.2449 9.17804 8.07435 9.4637 8.02532C10.77 7.80111 11.6477 7.67332 12.5508 7.67346C13.4535 7.67359 14.3441 7.80146 15.678 8.03037C15.9717 8.08078 16.2277 8.25958 16.3761 8.51805L17.5484 10.56C17.6705 10.7726 17.9142 10.9273 18.2045 10.9368L20.1365 10.9998C20.3633 11.0072 20.4771 10.841 20.4771 10.7248L20.4753 8.50601C20.4748 7.90735 20.2259 7.46336 19.7427 7.06519C19.2233 6.63716 18.4662 6.29626 17.5589 5.99626C15.5165 5.32098 13.8435 5.00133 12.2683 5ZM6.79488 12.9295L5.4941 18.7831C5.35532 19.4076 5.83054 20 6.47028 20H18.4838C19.1236 20 19.5988 19.4076 19.46 18.7831L18.1608 12.9364L18.1393 12.9357C17.1829 12.9046 16.2941 12.392 15.814 11.5558L14.8768 9.92349C13.8252 9.74989 13.178 9.67355 12.5505 9.67346C11.9225 9.67336 11.2851 9.74962 10.2509 9.92071L9.23413 11.5993C8.74515 12.4066 7.87119 12.8968 6.93454 12.9253L6.79488 12.9295Z" fill="#9AA1B4"/>
</svg>
