<svg width="16" height="16" viewBox="0 0 16 16" fill="none" xmlns="http://www.w3.org/2000/svg">
<path d="M9.82776 0.722656C9.89347 0.722539 9.95855 0.735373 10.0193 0.760425C10.08 0.785476 10.1352 0.822254 10.1818 0.868656L15.1318 5.81866C15.2255 5.91242 15.2782 6.03957 15.2782 6.17216C15.2782 6.30474 15.2255 6.43189 15.1318 6.52566C14.6518 7.00566 14.0598 7.11366 13.6288 7.11366C13.4518 7.11366 13.2938 7.09566 13.1688 7.07466L10.0348 10.2087C10.1173 10.5411 10.1708 10.88 10.1948 11.2217C10.2408 11.9237 10.1628 12.9087 9.47476 13.5967C9.381 13.6904 9.25384 13.743 9.12126 13.743C8.98868 13.743 8.86153 13.6904 8.76776 13.5967L5.93876 10.7687L2.75676 13.9507C2.56176 14.1457 1.53776 14.8527 1.34276 14.6577C1.14776 14.4627 1.85476 13.4377 2.04976 13.2437L5.23176 10.0617L2.40376 7.23266C2.31003 7.13889 2.25737 7.01174 2.25737 6.87916C2.25737 6.74657 2.31003 6.61942 2.40376 6.52566C3.09176 5.83766 4.07676 5.75866 4.77876 5.80566C5.12042 5.8296 5.45936 5.88313 5.79176 5.96566L8.92576 2.83266C8.8996 2.68037 8.88622 2.52617 8.88576 2.37166C8.88576 1.94166 8.99376 1.34966 9.47476 0.868656C9.56847 0.775187 9.69541 0.722684 9.82776 0.722656Z" fill="#9AA1B4"/>
</svg>
