<svg width="25" height="24" viewBox="0 0 25 24" fill="none" xmlns="http://www.w3.org/2000/svg">
<path fill-rule="evenodd" clip-rule="evenodd" d="M17.6992 12.866C18.0086 12.6874 18.1992 12.3573 18.1992 12C18.1992 11.6427 18.0086 11.3126 17.6992 11.134L10.9492 7.23686C10.6398 7.05823 10.2586 7.05823 9.94922 7.23686C9.63982 7.41549 9.44922 7.74562 9.44922 8.10289L9.44922 15.8971C9.44922 16.2544 9.63982 16.5845 9.94922 16.7631C10.2586 16.9418 10.6398 16.9418 10.9492 16.7631L17.6992 12.866ZM11.4492 14.1651V9.83494L15.1992 12L11.4492 14.1651Z" fill="#9AA1B4"/>
<path fill-rule="evenodd" clip-rule="evenodd" d="M12.6992 2C7.17637 2 2.69922 6.47715 2.69922 12C2.69922 17.5228 7.17637 22 12.6992 22C18.2221 22 22.6992 17.5228 22.6992 12C22.6992 6.47715 18.2221 2 12.6992 2ZM4.69922 12C4.69922 7.58172 8.28094 4 12.6992 4C17.1175 4 20.6992 7.58172 20.6992 12C20.6992 16.4183 17.1175 20 12.6992 20C8.28094 20 4.69922 16.4183 4.69922 12Z" fill="#9AA1B4"/>
</svg>
