<svg width="24" height="24" viewBox="0 0 24 24" fill="none" xmlns="http://www.w3.org/2000/svg">
<path fill-rule="evenodd" clip-rule="evenodd" d="M6 3C6 2.44772 6.44772 2 7 2H17C17.5523 2 18 2.44772 18 3V7C20.2091 7 22 8.79086 22 11V15C22 16.1046 21.1046 17 20 17H18.4387L18.9899 20.8586C19.0309 21.1456 18.9454 21.4362 18.7555 21.6552C18.5655 21.8742 18.2899 22 18 22H6C5.71011 22 5.43448 21.8742 5.24455 21.6552C5.05461 21.4362 4.96905 21.1456 5.01005 20.8586L5.56128 17H4C2.89543 17 2 16.1046 2 15V11C2 8.79086 3.79086 7 6 7V3ZM5.84699 15L6.01005 13.8586C6.08043 13.3659 6.50235 13 7 13H17C17.4977 13 17.9196 13.3659 17.9899 13.8586L18.153 15H20V11C20 9.89543 19.1046 9 18 9H6C4.89543 9 4 9.89543 4 11V15H5.84699ZM16 4V7H8V4H16ZM7.15301 20L7.8673 15H16.1327L16.847 20H7.15301Z" fill="#9AA1B4"/>
</svg>
