<svg width="24" height="24" viewBox="0 0 24 24" fill="none" xmlns="http://www.w3.org/2000/svg">
<path d="M2 4C2 2.89543 2.89543 2 4 2H20C21.1046 2 22 2.89543 22 4V20C22 21.1046 21.1046 22 20 22H4C2.89543 22 2 21.1046 2 20V4Z" fill="#B2CCFF"/>
<path d="M20 6C20 4.89543 19.1046 4 18 4H15C13.8954 4 13 4.89543 13 6V15C13 16.1046 13.8954 17 15 17H18C19.1046 17 20 16.1046 20 15V6Z" fill="#3663F2"/>
<path d="M11 6C11 4.89543 10.1046 4 9 4H6C4.89543 4 4 4.89543 4 6V8C4 9.10457 4.89543 10 6 10H9C10.1046 10 11 9.10457 11 8V6Z" fill="#3663F2"/>
</svg>
