<svg width="24" height="24" viewBox="0 0 24 24" fill="none" xmlns="http://www.w3.org/2000/svg">
<path d="M12 3C8.6916 3 6 5.52338 6 8.625H8.4C8.4 6.76425 10.0152 5.25 12 5.25C13.9848 5.25 15.6 6.76425 15.6 8.625C15.6 9.82763 15.0552 10.2731 13.8228 11.1619C13.3644 11.4926 12.8472 11.8661 12.3516 12.3296C10.7772 13.8045 10.794 15.2591 10.8 15.375V17.625H13.2V15.3649C13.2 15.3379 13.2276 14.6887 14.0484 13.9204C14.4324 13.5604 14.8668 13.2476 15.2856 12.945C16.5576 12.027 18 10.9875 18 8.625C18 5.52338 15.3084 3 12 3ZM10.8 18.75H13.2V21H10.8V18.75Z" fill="#9AA1B4"/>
</svg>
