<svg width="16" height="16" viewBox="0 0 16 16" fill="none" xmlns="http://www.w3.org/2000/svg">
<path fill-rule="evenodd" clip-rule="evenodd" d="M8 2.75C5.10051 2.75 2.75 5.10051 2.75 8C2.75 10.8995 5.10051 13.25 8 13.25C10.8995 13.25 13.25 10.8995 13.25 8C13.25 5.10051 10.8995 2.75 8 2.75ZM1.25 8C1.25 4.27208 4.27208 1.25 8 1.25C11.7279 1.25 14.75 4.27208 14.75 8C14.75 11.7279 11.7279 14.75 8 14.75C4.27208 14.75 1.25 11.7279 1.25 8Z" fill="#9AA1B4"/>
<path fill-rule="evenodd" clip-rule="evenodd" d="M7.9999 4.75C8.41411 4.75 8.7499 5.08579 8.7499 5.5V7.91167C8.7499 8.20448 8.67643 8.49261 8.53622 8.74966L7.65832 10.3591C7.45997 10.7228 7.00439 10.8568 6.64076 10.6584C6.27712 10.4601 6.14313 10.0045 6.34148 9.64086L7.21937 8.03139C7.2394 7.99466 7.2499 7.9535 7.2499 7.91167V5.5C7.2499 5.08579 7.58568 4.75 7.9999 4.75Z" fill="#9AA1B4"/>
</svg>
