<svg width="24" height="24" viewBox="0 0 24 24" fill="none" xmlns="http://www.w3.org/2000/svg">
<path fill-rule="evenodd" clip-rule="evenodd" d="M6.70711 3.29289C6.31658 2.90237 5.68342 2.90237 5.29289 3.29289L2.29289 6.29289C1.90237 6.68342 1.90237 7.31658 2.29289 7.70711C2.68342 8.09763 3.31658 8.09763 3.70711 7.70711L6.70711 4.70711C7.09763 4.31658 7.09763 3.68342 6.70711 3.29289ZM12 6.5C8.41015 6.5 5.5 9.41015 5.5 13C5.5 16.5899 8.41015 19.5 12 19.5C15.5899 19.5 18.5 16.5899 18.5 13C18.5 9.41015 15.5899 6.5 12 6.5ZM3.5 13C3.5 8.30558 7.30558 4.5 12 4.5C16.6944 4.5 20.5 8.30558 20.5 13C20.5 17.6944 16.6944 21.5 12 21.5C7.30558 21.5 3.5 17.6944 3.5 13ZM18.7071 3.29289C18.3166 2.90237 17.6834 2.90237 17.2929 3.29289C16.9024 3.68342 16.9024 4.31658 17.2929 4.70711L20.2929 7.70711C20.6834 8.09763 21.3166 8.09763 21.7071 7.70711C22.0976 7.31658 22.0976 6.68342 21.7071 6.29289L18.7071 3.29289ZM12 9.5C12.5523 9.5 13 9.94772 13 10.5V12H14.5C15.0523 12 15.5 12.4477 15.5 13C15.5 13.5523 15.0523 14 14.5 14H13V15.5C13 16.0523 12.5523 16.5 12 16.5C11.4477 16.5 11 16.0523 11 15.5V14H9.5C8.94772 14 8.5 13.5523 8.5 13C8.5 12.4477 8.94772 12 9.5 12H11V10.5C11 9.94772 11.4477 9.5 12 9.5Z" fill="#9AA1B4"/>
</svg>
