<svg width="25" height="24" viewBox="0 0 25 24" fill="none" xmlns="http://www.w3.org/2000/svg">
<path fill-rule="evenodd" clip-rule="evenodd" d="M17.9537 2.29289C17.5632 1.90237 16.93 1.90237 16.5395 2.29289C16.149 2.68342 16.149 3.31658 16.5395 3.70711L17.8324 5L16.5395 6.29289C16.149 6.68342 16.149 7.31658 16.5395 7.70711C16.93 8.09763 17.5632 8.09763 17.9537 7.70711L19.2466 6.41421L20.5395 7.70711C20.93 8.09763 21.5632 8.09763 21.9537 7.70711C22.3442 7.31658 22.3442 6.68342 21.9537 6.29289L20.6608 5L21.9537 3.70711C22.3442 3.31658 22.3442 2.68342 21.9537 2.29289C21.5632 1.90237 20.93 1.90237 20.5395 2.29289L19.2466 3.58579L17.9537 2.29289ZM22.2466 14.5C22.2466 16.7091 20.4557 18.5 18.2466 18.5L6.24658 18.5C4.03744 18.5 2.24658 16.7091 2.24658 14.5V7.5C2.24658 5.29086 4.03744 3.5 6.24658 3.5L13.2466 3.5C13.7989 3.5 14.2466 3.94771 14.2466 4.5C14.2466 5.05228 13.7989 5.5 13.2466 5.5L6.24658 5.5C5.14201 5.5 4.24658 6.39543 4.24658 7.5L4.24658 14.5C4.24658 15.0763 4.49032 15.5956 4.88033 15.9606C5.49963 15.8273 6.15786 15.5415 6.85885 15.1401C7.66324 14.6794 8.4647 14.102 9.28145 13.5051L9.43864 13.3902C10.1861 12.8434 10.9578 12.2789 11.6946 11.8478C12.4676 11.3955 13.3466 11 14.2465 11C15.8822 11 17.2527 11.9744 18.3158 12.841C18.5868 13.0619 18.8525 13.2889 19.1053 13.5049L19.1053 13.5049L19.1197 13.5172C19.3801 13.7397 19.6263 13.9498 19.8685 14.1463C19.9993 14.2523 20.1251 14.3512 20.2466 14.4426V11C20.2466 10.4477 20.6943 10 21.2466 10C21.7989 10 22.2466 10.4477 22.2466 11V14.5ZM19.2794 16.2131C19.0475 16.0483 18.8236 15.8739 18.6088 15.6997C18.3432 15.4843 18.0777 15.2575 17.8205 15.0378L17.814 15.0322L17.8139 15.0321C17.5557 14.8115 17.3051 14.5973 17.0521 14.3912C15.9902 13.5256 15.1107 13 14.2465 13C13.8963 13 13.4004 13.167 12.7046 13.574C12.0598 13.9513 11.3667 14.4581 10.5902 15.0258L10.4615 15.1199C9.83799 15.5755 9.16822 16.0613 8.47486 16.5L18.2466 16.5C18.6245 16.5 18.9779 16.3952 19.2794 16.2131ZM9.24658 9C9.24658 9.82843 8.57501 10.5 7.74658 10.5C6.91815 10.5 6.24658 9.82843 6.24658 9C6.24658 8.17157 6.91815 7.5 7.74658 7.5C8.57501 7.5 9.24658 8.17157 9.24658 9ZM3.24658 21C3.24658 20.4477 3.6943 20 4.24658 20H20.2466C20.7989 20 21.2466 20.4477 21.2466 21C21.2466 21.5523 20.7989 22 20.2466 22H4.24658C3.6943 22 3.24658 21.5523 3.24658 21Z" fill="#9AA1B4"/>
</svg>
