<?xml version="1.0" encoding="utf-8"?>
<!-- Generator: Adobe Illustrator 22.1.0, SVG Export Plug-In . SVG Version: 6.00 Build 0)  -->
<svg version="1.1" id="Layer_1" xmlns="http://www.w3.org/2000/svg" xmlns:xlink="http://www.w3.org/1999/xlink" x="0px" y="0px"
	 viewBox="0 0 24 24" style="enable-background:new 0 0 24 24;" xml:space="preserve">
<style type="text/css">
	.st0{fill:#9AA1B4;}
</style>
<path class="st0" d="M19.8,4.8l-0.7-0.7c-1.4-1.4-3.7-1.4-5.1,0L4,14c-0.7,0.7-1.1,1.6-1.1,2.6v3.5c0,0.5,0.4,0.9,0.9,0.9h3.5
	c1,0,1.9-0.4,2.6-1.1l10-10C21.3,8.5,21.3,6.2,19.8,4.8z M8.6,18.6c-0.3,0.3-0.8,0.5-1.3,0.5H4.7v-2.6c0-0.5,0.2-0.9,0.5-1.3
	l8.6-8.5l3.3,3.3L8.6,18.6z M18.5,8.6l-0.2,0.2l-3.3-3.3l0.2-0.2c0.7-0.7,1.9-0.7,2.6,0l0.7,0.7C19.3,6.8,19.3,7.9,18.5,8.6z"/>
<path class="st0" d="M12.9,19.2c-0.5,0-0.9,0.4-0.9,0.9s0.4,0.9,0.9,0.9h7.3c0.5,0,0.9-0.4,0.9-0.9s-0.4-0.9-0.9-0.9H12.9z"/>
</svg>
