<svg width="24" height="24" viewBox="0 0 24 24" fill="none" xmlns="http://www.w3.org/2000/svg">
<path fill-rule="evenodd" clip-rule="evenodd" d="M19.1298 4.06371L19.8294 4.76327C21.2503 6.18421 21.2533 8.48711 19.8359 9.91166L9.86768 19.9308C9.18356 20.6185 8.25359 21.005 7.28362 21.005L3.79897 21.005C3.29568 21.005 2.8877 20.597 2.8877 20.0937V16.6142C2.8877 15.6446 3.27406 14.7148 3.96132 14.0308L13.9809 4.05773C15.4053 2.63988 17.7086 2.64256 19.1298 4.06371ZM18.5406 6.05201L17.8411 5.35246C17.1305 4.64188 15.9788 4.64054 15.2666 5.34947L15.1068 5.50855L18.3846 8.78636L18.5439 8.62621C19.2526 7.91393 19.2511 6.76248 18.5406 6.05201ZM5.24706 15.3225L13.815 6.79429L17.0991 10.0784L8.57566 18.6454C8.2336 18.9892 7.76861 19.1825 7.28363 19.1825L4.71025 19.1825L4.71025 16.6142C4.71025 16.1294 4.90343 15.6645 5.24706 15.3225Z" fill="#9AA1B4"/>
<path d="M12.9115 19.1824C12.4082 19.1824 12.0002 19.5904 12.0002 20.0937C12.0002 20.597 12.4082 21.005 12.9115 21.005H20.2017C20.705 21.005 21.113 20.597 21.113 20.0937C21.113 19.5904 20.705 19.1824 20.2017 19.1824H12.9115Z" fill="#9AA1B4"/>
</svg>
