<svg width="24" height="24" viewBox="0 0 24 24" fill="none" xmlns="http://www.w3.org/2000/svg">
<path d="M8.20711 10.2071C7.92111 10.4931 7.49099 10.5787 7.11732 10.4239C6.74364 10.2691 6.5 9.90449 6.5 9.50003V8.04151C5.08114 8.27955 4 9.51353 4 11V15C4 16.6569 5.34315 18 7 18H17C18.6569 18 20 16.6569 20 15V11C20 9.34317 18.6569 8.00003 17 8.00003H15.5C14.9477 8.00003 14.5 7.55231 14.5 7.00003C14.5 6.44774 14.9477 6.00003 15.5 6.00003H17C19.7614 6.00003 22 8.23861 22 11V15C22 17.7615 19.7614 20 17 20H7C4.23858 20 2 17.7615 2 15V11C2 8.40736 3.97334 6.27558 6.5 6.02472V4.50003C6.5 4.09557 6.74364 3.73093 7.11732 3.57615C7.49099 3.42137 7.92111 3.50692 8.20711 3.79292L10.7071 6.29292C11.0976 6.68345 11.0976 7.31661 10.7071 7.70714L8.20711 10.2071Z" fill="#9AA1B4"/>
</svg>
