<svg width="16" height="16" viewBox="0 0 16 16" fill="none" xmlns="http://www.w3.org/2000/svg">
<path d="M9.58862 4.5C9.17441 4.5 8.83862 4.83579 8.83862 5.25C8.83862 5.66421 9.17441 6 9.58862 6H11.2553C11.6695 6 12.0053 5.66421 12.0053 5.25C12.0053 4.83579 11.6695 4.5 11.2553 4.5H9.58862Z" fill="#9AA1B4"/>
<path d="M5.5 5.25C5.5 5.66421 5.16421 6 4.75 6C4.33579 6 4 5.66421 4 5.25C4 4.83579 4.33579 4.5 4.75 4.5C5.16421 4.5 5.5 4.83579 5.5 5.25Z" fill="#9AA1B4"/>
<path d="M8.83862 10.75C8.83862 10.3358 9.17441 10 9.58862 10H11.2553C11.6695 10 12.0053 10.3358 12.0053 10.75C12.0053 11.1642 11.6695 11.5 11.2553 11.5H9.58862C9.17441 11.5 8.83862 11.1642 8.83862 10.75Z" fill="#9AA1B4"/>
<path d="M4.75 11.5C5.16421 11.5 5.5 11.1642 5.5 10.75C5.5 10.3358 5.16421 10 4.75 10C4.33579 10 4 10.3358 4 10.75C4 11.1642 4.33579 11.5 4.75 11.5Z" fill="#9AA1B4"/>
<path fill-rule="evenodd" clip-rule="evenodd" d="M3.5 1.75C2.25736 1.75 1.25 2.75736 1.25 4V6.5C1.25 7.07627 1.46664 7.60193 1.82292 8C1.46664 8.39807 1.25 8.92373 1.25 9.5V12C1.25 13.2426 2.25736 14.25 3.5 14.25H12.5C13.7426 14.25 14.75 13.2426 14.75 12V9.5C14.75 8.92373 14.5334 8.39807 14.1771 8C14.5334 7.60193 14.75 7.07627 14.75 6.5V4C14.75 2.75736 13.7426 1.75 12.5 1.75H3.5ZM3.5 7.25H12.5C12.9142 7.25 13.25 6.91421 13.25 6.5V4C13.25 3.58579 12.9142 3.25 12.5 3.25H3.5C3.08579 3.25 2.75 3.58579 2.75 4V6.5C2.75 6.91421 3.08579 7.25 3.5 7.25ZM3.5 8.75C3.08579 8.75 2.75 9.08579 2.75 9.5V12C2.75 12.4142 3.08579 12.75 3.5 12.75H12.5C12.9142 12.75 13.25 12.4142 13.25 12V9.5C13.25 9.08579 12.9142 8.75 12.5 8.75H3.5Z" fill="#9AA1B4"/>
</svg>
