<svg width="24" height="24" viewBox="0 0 24 24" fill="none" xmlns="http://www.w3.org/2000/svg">
<path d="M12.0007 4C9.56472 4 7.38375 5.08758 5.91491 6.80718L5.37833 7.5H7.5C8.05228 7.5 8.5 7.94772 8.5 8.5C8.5 9.05228 8.05228 9.5 7.5 9.5H3C2.44772 9.5 2 9.05228 2 8.5V4C2 3.44772 2.44772 3 3 3C3.55228 3 4 3.44772 4 4V6.01339L4.34792 5.56416C4.35714 5.55225 4.36664 5.54054 4.3764 5.52905C6.20913 3.37157 8.94527 2 12.0007 2C17.5236 2 22.0007 6.47715 22.0007 12C22.0007 17.5228 17.5236 22 12.0007 22C6.85278 22 2.61455 18.1109 2.06172 13.1099C2.00104 12.5609 2.39685 12.0667 2.94579 12.0061C3.49473 11.9454 3.98893 12.3412 4.04961 12.8901C4.49166 16.889 7.88358 20 12.0007 20C16.419 20 20.0007 16.4183 20.0007 12C20.0007 7.58172 16.419 4 12.0007 4Z" fill="#9AA1B4"/>
</svg>
