<svg width="24" height="24" viewBox="0 0 24 24" fill="none" xmlns="http://www.w3.org/2000/svg">
<path d="M16.5001 8.49929C17.3286 8.49929 18.0001 7.82772 18.0001 6.99929C18.0001 6.17086 17.3286 5.49929 16.5001 5.49929C15.6717 5.49929 15.0001 6.17086 15.0001 6.99929C15.0001 7.82772 15.6717 8.49929 16.5001 8.49929Z" fill="#9AA1B4"/>
<path fill-rule="evenodd" clip-rule="evenodd" d="M10.064 4.02117C8.19892 5.88629 7.63083 8.555 8.35527 10.9093L2.78993 16.4746C2.30196 16.9626 2.10002 17.6677 2.25568 18.34L2.82733 20.809C2.93396 21.2695 3.34852 21.5925 3.82116 21.5832L6.08935 21.5388C6.46548 21.5314 6.80564 21.3135 6.96967 20.975L7.39318 20.101H8.99024C9.48789 20.101 9.90981 19.735 9.98019 19.2424L10.2507 17.3484L11.4101 17.1166C11.6016 17.0783 11.7777 16.9847 11.9166 16.8475L13.2348 15.5458C15.5028 16.1188 18.0088 15.5192 19.7854 13.7425C22.4699 11.0581 22.4699 6.70566 19.7854 4.02117C17.1009 1.33669 12.7485 1.33669 10.064 4.02117ZM10.4331 10.7785C9.68464 9.00374 10.035 6.87866 11.4783 5.43539C13.3817 3.53195 16.4678 3.53195 18.3712 5.43539C20.2746 7.33882 20.2746 10.4249 18.3712 12.3283C16.9982 13.7013 15.0085 14.0854 13.2892 13.4748C12.9278 13.3464 12.5248 13.4361 12.2519 13.7056L10.7243 15.2141L9.16474 15.526C8.74899 15.6092 8.43087 15.9455 8.37091 16.3652L8.12294 18.101H6.76652C6.38325 18.101 6.03371 18.32 5.86659 18.6649L5.43716 19.5512L4.59284 19.5677L4.20414 17.8889L10.2188 11.8742C10.5065 11.5865 10.5912 11.1533 10.4331 10.7785Z" fill="#9AA1B4"/>
</svg>
