<svg width="24" height="24" viewBox="0 0 24 24" fill="none" xmlns="http://www.w3.org/2000/svg">
<path fill-rule="evenodd" clip-rule="evenodd" d="M4.4818 2.80932C4.37639 2.26719 3.85145 1.91316 3.30932 2.01857C2.76719 2.12399 2.41316 2.64893 2.51857 3.19106L6.01857 21.1911C6.12399 21.7332 6.64893 22.0872 7.19106 21.9818C7.73319 21.8764 8.08722 21.3514 7.9818 20.8093L6.92702 15.3847C6.98388 15.3578 7.03901 15.3251 7.09162 15.2865C8.48518 14.2644 9.60454 13.945 10.5596 13.9199C11.5458 13.8941 12.4579 14.1758 13.4893 14.5474C13.5986 14.5868 13.71 14.6275 13.8235 14.6691C14.73 15.0007 15.7689 15.3808 16.8728 15.4764C18.1836 15.59 19.5571 15.3107 21.0542 14.3143C21.403 14.0822 21.5701 13.6573 21.4729 13.2498L18.9729 2.76818C18.8945 2.43927 18.6551 2.17228 18.3367 2.0585C18.0183 1.94472 17.6639 1.99956 17.3948 2.20427C16.2464 3.07778 15.3132 3.30713 14.4736 3.295C13.653 3.28315 12.8764 3.04792 11.9233 2.75923C11.8229 2.72881 11.7205 2.69779 11.6159 2.66638C10.5676 2.35163 9.33946 2.01647 7.94197 2.14476C6.87561 2.24266 5.76915 2.60259 4.5857 3.34364L4.4818 2.80932ZM10.5072 11.9206C9.25731 11.9534 7.94442 12.3363 6.51337 13.2574L5.97742 10.5011C7.22656 9.56014 8.24908 9.21678 9.12481 9.13639C9.81837 9.07272 10.4736 9.16711 11.1618 9.33709L11.7535 12C11.3547 11.9404 10.9392 11.9093 10.5072 11.9206ZM10.6876 7.20341C10.1391 7.1216 9.55695 7.08831 8.94197 7.14476C7.86818 7.24334 6.75373 7.60762 5.56094 8.35919L5.00166 5.48285C6.2398 4.55571 7.25475 4.21626 8.12481 4.13639C8.77882 4.07635 9.39876 4.15686 10.0444 4.30877L10.6876 7.20341ZM13.3508 9.96799L13.9316 12.5817C14.0111 12.6097 14.0897 12.6379 14.1673 12.6658C14.2815 12.707 14.3932 12.7476 14.5026 12.7873C15.4444 13.1296 16.2232 13.4126 17.0455 13.4839C17.7422 13.5443 18.4887 13.4492 19.3569 12.9988L18.5234 9.50397C17.4531 10.09 16.4367 10.3091 15.4447 10.2948C14.7112 10.2842 14.0061 10.1426 13.3508 9.96799ZM18.0361 7.46119C17.0493 8.12376 16.2241 8.30584 15.4736 8.295C14.653 8.28315 13.8764 8.04792 12.9233 7.75923C12.9008 7.7524 12.8781 7.74553 12.8553 7.73865L12.2325 4.936C12.921 5.12505 13.6669 5.28356 14.4447 5.29479C15.3838 5.30836 16.3447 5.11273 17.3524 4.59469L18.0361 7.46119Z" fill="#9AA1B4"/>
</svg>
