<?xml version="1.0" encoding="utf-8"?>
<!-- Generator: Adobe Illustrator 22.1.0, SVG Export Plug-In . SVG Version: 6.00 Build 0)  -->
<svg version="1.1" id="Layer_1" xmlns="http://www.w3.org/2000/svg" xmlns:xlink="http://www.w3.org/1999/xlink" x="0px" y="0px"
	 viewBox="0 0 24 24" style="enable-background:new 0 0 24 24;" xml:space="preserve">
<style type="text/css">
	.st0{fill:#9AA1B4;}
</style>
<path class="st0" d="M21.5,13.2L19,2.8c-0.1-0.3-0.3-0.6-0.6-0.7C18,1.9,17.7,2,17.4,2.2c-1.1,0.9-2.1,1.1-2.9,1.1
	c-0.8,0-1.6-0.2-2.6-0.5c-0.1,0-0.2-0.1-0.3-0.1c-1-0.3-2.3-0.6-3.7-0.5C6.9,2.2,5.8,2.6,4.6,3.3L4.5,2.8C4.4,2.3,3.9,1.9,3.3,2
	S2.4,2.6,2.5,3.2l3.5,18c0.1,0.5,0.6,0.9,1.2,0.8c0.5-0.1,0.9-0.6,0.8-1.2l-1.1-5.4c0.1,0,0.1-0.1,0.2-0.1c1.4-1,2.5-1.3,3.5-1.4
	c1,0,1.9,0.3,2.9,0.6c0.1,0,0.2,0.1,0.3,0.1c0.9,0.3,1.9,0.7,3,0.8c1.3,0.1,2.7-0.2,4.2-1.2C21.4,14.1,21.6,13.7,21.5,13.2z M5,5.5
	c1.2-0.9,2.3-1.3,3.1-1.3c0.7-0.1,1.3,0,1.9,0.2l0.6,2.9c-0.5-0.1-1.1-0.1-1.7-0.1C7.9,7.2,6.8,7.6,5.6,8.4L5,5.5z M10.5,11.9
	c-1.2,0-2.6,0.4-4,1.3L6,10.5c1.2-0.9,2.3-1.3,3.1-1.4c0.7-0.1,1.3,0,2,0.2l0.6,2.7C11.4,11.9,10.9,11.9,10.5,11.9z M12.9,7.7
	l-0.6-2.8c0.7,0.2,1.4,0.3,2.2,0.4c0.9,0,1.9-0.2,2.9-0.7L18,7.5c-1,0.7-1.8,0.8-2.6,0.8C14.7,8.3,13.9,8,12.9,7.7
	C12.9,7.8,12.9,7.7,12.9,7.7z M17,13.5c-0.8-0.1-1.6-0.4-2.5-0.7c-0.1,0-0.2-0.1-0.3-0.1c-0.1,0-0.2-0.1-0.2-0.1L13.4,10
	c0.7,0.2,1.4,0.3,2.1,0.3c1,0,2-0.2,3.1-0.8l0.8,3.5C18.5,13.4,17.7,13.5,17,13.5z"/>
</svg>
