<svg width="25" height="24" viewBox="0 0 25 24" fill="none" xmlns="http://www.w3.org/2000/svg">
<path fill-rule="evenodd" clip-rule="evenodd" d="M19.7466 3C19.7466 2.44772 19.2989 2 18.7466 2C18.1943 2 17.7466 2.44772 17.7466 3V4.5L16.2466 4.5C15.6943 4.5 15.2466 4.94771 15.2466 5.5C15.2466 6.05228 15.6943 6.5 16.2466 6.5H17.7466V8C17.7466 8.55228 18.1943 9 18.7466 9C19.2989 9 19.7466 8.55228 19.7466 8V6.5H21.2466C21.7989 6.5 22.2466 6.05228 22.2466 5.5C22.2466 4.94772 21.7989 4.5 21.2466 4.5H19.7466V3ZM22.2466 14.5C22.2466 16.7091 20.4557 18.5 18.2466 18.5L6.24658 18.5C4.03744 18.5 2.24658 16.7091 2.24658 14.5V7.5C2.24658 5.29086 4.03744 3.5 6.24658 3.5L12.2466 3.5C12.7989 3.5 13.2466 3.94771 13.2466 4.5C13.2466 5.05228 12.7989 5.5 12.2466 5.5L6.24658 5.5C5.14201 5.5 4.24658 6.39543 4.24658 7.5L4.24658 14.5C4.24658 15.0763 4.49032 15.5956 4.88033 15.9606C5.49963 15.8273 6.15786 15.5415 6.85885 15.1401C7.66324 14.6794 8.4647 14.102 9.28145 13.5051L9.43864 13.3902C10.1861 12.8434 10.9578 12.2789 11.6946 11.8478C12.4676 11.3955 13.3466 11 14.2465 11C15.8822 11 17.2527 11.9744 18.3158 12.841C18.5868 13.0619 18.8525 13.2889 19.1053 13.5049L19.1053 13.5049L19.1197 13.5172C19.3801 13.7397 19.6263 13.9498 19.8685 14.1463C19.9993 14.2523 20.1251 14.3512 20.2466 14.4426V11.5C20.2466 10.9477 20.6943 10.5 21.2466 10.5C21.7989 10.5 22.2466 10.9477 22.2466 11.5V14.5ZM18.2466 16.5L8.47486 16.5C9.16822 16.0613 9.83799 15.5755 10.4615 15.1199L10.5902 15.0258C11.3667 14.4581 12.0598 13.9513 12.7046 13.574C13.4004 13.167 13.8963 13 14.2465 13C15.1107 13 15.9902 13.5256 17.0521 14.3912C17.3051 14.5973 17.5557 14.8115 17.8139 15.0321L17.814 15.0322L17.8205 15.0378C18.0777 15.2575 18.3432 15.4843 18.6088 15.6997C18.8236 15.8739 19.0475 16.0483 19.2794 16.2131C18.9779 16.3952 18.6245 16.5 18.2466 16.5ZM9.24658 9C9.24658 9.82843 8.57501 10.5 7.74658 10.5C6.91815 10.5 6.24658 9.82843 6.24658 9C6.24658 8.17157 6.91815 7.5 7.74658 7.5C8.57501 7.5 9.24658 8.17157 9.24658 9ZM4.24658 20C3.6943 20 3.24658 20.4477 3.24658 21C3.24658 21.5523 3.6943 22 4.24658 22H20.2466C20.7989 22 21.2466 21.5523 21.2466 21C21.2466 20.4477 20.7989 20 20.2466 20H4.24658Z" fill="#9AA1B4"/>
</svg>
