<?xml version="1.0" encoding="utf-8"?>
<!-- Generator: Adobe Illustrator 22.1.0, SVG Export Plug-In . SVG Version: 6.00 Build 0)  -->
<svg version="1.1" id="Layer_1" xmlns="http://www.w3.org/2000/svg" xmlns:xlink="http://www.w3.org/1999/xlink" x="0px" y="0px"
	 viewBox="0 0 25 24" style="enable-background:new 0 0 25 24;" xml:space="preserve">
<style type="text/css">
	.st0{fill:#9AA1B4;}
</style>
<path class="st0" d="M5.5,2c-0.6,0-1,0.4-1,1v3h-1c-0.6,0-1,0.4-1,1s0.4,1,1,1h1v3h-1c-0.6,0-1,0.4-1,1s0.4,1,1,1h1v3h-1
	c-0.6,0-1,0.4-1,1s0.4,1,1,1h1v3c0,0.6,0.4,1,1,1h6c0.6,0,1-0.4,1-1s-0.4-1-1-1h-5v-2c0.6,0,1-0.4,1-1s-0.4-1-1-1v-3
	c0.6,0,1-0.4,1-1s-0.4-1-1-1V8c0.6,0,1-0.4,1-1S7,6,6.5,6V4h11c1.1,0,2,0.9,2,2v6c0,0.6,0.4,1,1,1c0.6,0,1-0.4,1-1V6
	c0-2.2-1.8-4-4-4H5.5z"/>
<path class="st0" d="M15.9,10.8c0.4-0.5,0.6-1.1,0.6-1.8c0-1.7-1.3-3-3-3c-1.7,0-3,1.3-3,3c0,0.7,0.2,1.3,0.6,1.8
	c-1,0.7-1.6,1.9-1.6,3.2c0,0.6,0.4,1,1,1c0.6,0,1-0.4,1-1c0-1.1,0.9-2,2-2c1.1,0,2,0.9,2,2c0,0.6,0.4,1,1,1c0.6,0,1-0.4,1-1
	C17.5,12.7,16.8,11.5,15.9,10.8z M13.5,10c-0.6,0-1-0.4-1-1s0.4-1,1-1c0.6,0,1,0.4,1,1S14,10,13.5,10z"/>
<path class="st0" d="M14.5,20c0-1.7,1.3-3,3-3H18v-1c0-0.4,0.2-0.7,0.6-0.9c0.3-0.2,0.8-0.1,1.1,0.1l2.5,2c0.2,0.2,0.4,0.5,0.4,0.8
	s-0.1,0.6-0.4,0.8l-2.5,2c-0.3,0.2-0.7,0.3-1.1,0.1C18.2,20.7,18,20.4,18,20v-1h-0.5c-0.6,0-1,0.4-1,1v1c0,0.6-0.4,1-1,1
	c-0.6,0-1-0.4-1-1V20z"/>
</svg>
