<svg width="24" height="24" viewBox="0 0 24 24" fill="none" xmlns="http://www.w3.org/2000/svg">
<path d="M7 19C5.89543 19 5 18.1046 5 17L5 7C5 5.89543 5.89543 5 7 5L17 5C18.1046 5 19 5.89543 19 7V12C19 12.5523 19.4477 13 20 13C20.5523 13 21 12.5523 21 12V7C21 4.79086 19.2091 3 17 3H7C4.79086 3 3 4.79086 3 7V17C3 19.2091 4.79086 21 7 21H11C11.5523 21 12 20.5523 12 20C12 19.4477 11.5523 19 11 19H7Z" fill="#9AA1B4"/>
<path d="M8 8C8 7.44772 8.44772 7 9 7H15C15.5523 7 16 7.44772 16 8C16 8.55228 15.5523 9 15 9H9C8.44772 9 8 8.55228 8 8Z" fill="#9AA1B4"/>
<path d="M9 11C8.44772 11 8 11.4477 8 12C8 12.5523 8.44772 13 9 13H11C11.5523 13 12 12.5523 12 12C12 11.4477 11.5523 11 11 11H9Z" fill="#9AA1B4"/>
<path d="M14 20C14 18.3431 15.3431 17 17 17H17.5V16C17.5 15.6156 17.7203 15.2652 18.0668 15.0987C18.4133 14.9322 18.8245 14.979 19.1247 15.2191L21.6247 17.2191C21.8619 17.4089 22 17.6962 22 18C22 18.3038 21.8619 18.5911 21.6247 18.7809L19.1247 20.7809C18.8245 21.021 18.4133 21.0678 18.0668 20.9013C17.7203 20.7348 17.5 20.3844 17.5 20V19H17C16.4477 19 16 19.4477 16 20V21C16 21.5523 15.5523 22 15 22C14.4477 22 14 21.5523 14 21V20Z" fill="#9AA1B4"/>
</svg>
