<svg width="24" height="24" viewBox="0 0 24 24" fill="none" xmlns="http://www.w3.org/2000/svg">
<path d="M17.5 4.5C18.6046 4.5 19.5 5.39543 19.5 6.5V7.75C19.5 8.30228 19.9477 8.75 20.5 8.75C21.0523 8.75 21.5 8.30229 21.5 7.75V6.5C21.5 4.29086 19.7091 2.5 17.5 2.5H6.5C4.29086 2.5 2.5 4.29086 2.5 6.5V17.5C2.5 19.7091 4.29086 21.5 6.5 21.5H17.5C19.7091 21.5 21.5 19.7091 21.5 17.5V16.25C21.5 15.6977 21.0523 15.25 20.5 15.25C19.9477 15.25 19.5 15.6977 19.5 16.25V17.5C19.5 18.6046 18.6046 19.5 17.5 19.5H6.5C5.39543 19.5 4.5 18.6046 4.5 17.5L4.5 6.5C4.5 5.39543 5.39543 4.5 6.5 4.5L17.5 4.5Z" fill="#9AA1B4"/>
<path d="M13.2929 7.29289C13.6834 6.90237 14.3166 6.90237 14.7071 7.29289L18.7071 11.2929C18.8907 11.4767 18.9958 11.7249 18.9999 11.9842L19 12L18.9999 12.0158C18.9958 12.2753 18.8909 12.5233 18.7071 12.7071L14.7071 16.7071C14.3166 17.0976 13.6834 17.0976 13.2929 16.7071C12.9024 16.3166 12.9024 15.6834 13.2929 15.2929L15.5858 13L8 13C7.44772 13 7 12.5523 7 12C7 11.4477 7.44772 11 8 11L15.5858 11L13.2929 8.70711C12.9024 8.31658 12.9024 7.68342 13.2929 7.29289Z" fill="#9AA1B4"/>
</svg>
