<svg width="16" height="16" viewBox="0 0 16 16" fill="none" xmlns="http://www.w3.org/2000/svg">
<path fill-rule="evenodd" clip-rule="evenodd" d="M6.71305 2.0754C7.23262 0.974867 8.76744 0.974867 9.28701 2.0754L10.6026 4.86195L13.5307 5.30673C14.7369 5.48997 15.129 6.96941 14.3296 7.78402L12.1913 9.96284L12.6974 13.0474C12.8811 14.1668 11.7251 15.1864 10.6111 14.5742L8.00003 13.1392L5.38898 14.5742C4.27501 15.1864 3.11898 14.1668 3.30265 13.0474L3.80872 9.96284L1.67049 7.78402C0.871052 6.96941 1.26311 5.48997 2.46939 5.30673L5.39748 4.86195L6.71305 2.0754ZM8.04535 13.1143C8.0453 13.1143 8.04524 13.1144 8.04519 13.1144L8.04535 13.1143ZM8.00003 2.86289L6.7413 5.52907C6.54034 5.95473 6.14295 6.26592 5.66457 6.33859L2.78317 6.77628L4.89012 8.92322C5.22174 9.26113 5.36568 9.73794 5.29018 10.1981L4.7999 13.1863L7.3229 11.7997C7.74562 11.5674 8.25444 11.5674 8.67717 11.7997L11.2002 13.1863L10.7099 10.1981C10.6344 9.73794 10.7783 9.26113 11.1099 8.92322L13.2169 6.77628L10.3355 6.33859C9.85711 6.26592 9.45972 5.95473 9.25877 5.52907L8.00003 2.86289Z" fill="#9AA1B4"/>
</svg>
