<?xml version="1.0" encoding="utf-8"?>
<!-- Generator: Adobe Illustrator 22.1.0, SVG Export Plug-In . SVG Version: 6.00 Build 0)  -->
<svg version="1.1" id="Layer_1" xmlns="http://www.w3.org/2000/svg" xmlns:xlink="http://www.w3.org/1999/xlink" x="0px" y="0px"
	 viewBox="0 0 24 24" style="enable-background:new 0 0 24 24;" xml:space="preserve">
<style type="text/css">
	.st0{fill:#9AA1B4;}
</style>
<path class="st0" d="M17,3H7C4.8,3,3,4.8,3,7v10c0,2.2,1.8,4,4,4h8.5c0.3,0,0.5-0.1,0.7-0.3l4.5-4.5c0.2-0.2,0.3-0.4,0.3-0.7V7
	C21,4.8,19.2,3,17,3z M19,15.1L15.1,19H7c-1.1,0-2-0.9-2-2V9h14V15.1z M5,7c0-1.1,0.9-2,2-2h10c1.1,0,2,0.9,2,2H5z"/>
</svg>
