<?xml version="1.0" encoding="utf-8"?>
<!-- Generator: Adobe Illustrator 22.1.0, SVG Export Plug-In . SVG Version: 6.00 Build 0)  -->
<svg version="1.1" id="Layer_1" xmlns="http://www.w3.org/2000/svg" xmlns:xlink="http://www.w3.org/1999/xlink" x="0px" y="0px"
	 viewBox="0 0 24 24" style="enable-background:new 0 0 24 24;" xml:space="preserve">
<style type="text/css">
	.st0{fill:#9AA1B4;}
</style>
<path class="st0" d="M7,18h12c0.6,0,1-0.4,1-1V3c0-0.6-0.4-1-1-1H8C5.8,2,4,3.8,4,6v12.5c0,0.1,0,0.1,0,0.2c0,0.1,0,0.2,0,0.3
	c0,1.7,1.3,3,3,3h12c0.6,0,1-0.4,1-1s-0.4-1-1-1H7c-0.6,0-1-0.4-1-1S6.4,18,7,18z M6,6c0-1.1,0.9-2,2-2h10v12H7
	c-0.4,0-0.7,0.1-1,0.2V6z"/>
</svg>
