<svg width="24" height="24" viewBox="0 0 24 24" fill="none" xmlns="http://www.w3.org/2000/svg">
<path fill-rule="evenodd" clip-rule="evenodd" d="M8 2C5.79086 2 4 3.79086 4 6V18.5C4 18.5623 4.0057 18.6233 4.01661 18.6825C4.00563 18.7868 4 18.8927 4 19C4 20.6569 5.34315 22 7 22H19C19.5523 22 20 21.5523 20 21C20 20.4477 19.5523 20 19 20H7C6.44772 20 6 19.5523 6 19C6 18.4477 6.44772 18 7 18H19C19.5523 18 20 17.5523 20 17V3C20 2.44772 19.5523 2 19 2H8ZM18 16V4H8C6.89543 4 6 4.89543 6 6V16.1707C6.31278 16.0602 6.64936 16 7 16H18Z" fill="#9AA1B4"/>
</svg>
