<svg width="25" height="24" viewBox="0 0 25 24" fill="none" xmlns="http://www.w3.org/2000/svg">
<path d="M16.7155 12.1745C17.0879 11.7667 17.0592 11.1342 16.6513 10.7618C16.2435 10.3894 15.611 10.4181 15.2386 10.826L11.4118 15.0172L9.71554 13.1593C9.34315 12.7515 8.71064 12.7227 8.30278 13.0951C7.89493 13.4675 7.86618 14.1 8.23857 14.5079L10.6733 17.1745C10.8628 17.382 11.1308 17.5003 11.4118 17.5003C11.6928 17.5003 11.9609 17.382 12.1503 17.1745L16.7155 12.1745Z" fill="#9AA1B4"/>
<path fill-rule="evenodd" clip-rule="evenodd" d="M16.4537 2.00027C16.4691 1.99991 16.4846 1.99991 16.5001 2.00027H17.9771C19.6339 2.00027 20.9771 3.34342 20.9771 5.00027V19.0003C20.9771 20.6571 19.6339 22.0003 17.9771 22.0003H6.97705C5.3202 22.0003 3.97705 20.6571 3.97705 19.0003V5.00027C3.97705 3.34342 5.3202 2.00027 6.97705 2.00027H8.45399C8.4695 1.99991 8.48497 1.99991 8.50039 2.00027H16.4537ZM6.97705 4.00027H7.75629L8.63378 6.63273C8.906 7.44941 9.67028 8.00027 10.5311 8.00027H14.423C15.2838 8.00027 16.0481 7.44941 16.3203 6.63273L17.1978 4.00027H17.9771C18.5293 4.00027 18.9771 4.44799 18.9771 5.00027V19.0003C18.9771 19.5526 18.5293 20.0003 17.9771 20.0003H6.97705C6.42477 20.0003 5.97705 19.5526 5.97705 19.0003V5.00027C5.97705 4.44799 6.42477 4.00027 6.97705 4.00027ZM15.0896 4.00027H9.86448L10.5311 6.00027L14.423 6.00027L15.0896 4.00027Z" fill="#9AA1B4"/>
</svg>
