<svg width="25" height="24" viewBox="0 0 25 24" fill="none" xmlns="http://www.w3.org/2000/svg">
<path fill-rule="evenodd" clip-rule="evenodd" d="M5.71001 19.5H9.104C9.65629 19.5 10.104 19.9477 10.104 20.5C10.104 21.0523 9.65629 21.5 9.104 21.5H5.604C3.94715 21.5 2.604 20.1569 2.604 18.5V5.5C2.604 3.84315 3.94715 2.5 5.604 2.5H9.02067C9.22255 2.5 9.4197 2.5611 9.5862 2.67527L12.2473 4.5H17.604C19.2609 4.5 20.604 5.84315 20.604 7.5V8.62216C22.203 9.09342 23.177 10.8504 22.568 12.5252L20.8165 17.3417C20.6278 17.8608 20.054 18.1285 19.535 17.9398C19.016 17.7511 18.7482 17.1773 18.9369 16.6583L20.6884 11.8417C20.9256 11.1896 20.4426 10.5 19.7486 10.5H8.89183C8.49969 10.5 8.14373 10.7292 7.98146 11.0862L4.79965 18.0862C4.49869 18.7483 4.98272 19.5 5.71001 19.5ZM4.604 5.5C4.604 4.94772 5.05172 4.5 5.604 4.5H8.71075L11.3718 6.32473C11.5383 6.4389 11.7355 6.5 11.9373 6.5H17.604C18.1563 6.5 18.604 6.94771 18.604 7.5V8.5H8.89183C7.7154 8.5 6.64754 9.18761 6.16073 10.2586L4.604 13.6834V5.5Z" fill="#9AA1B4"/>
<path d="M12.104 17H11.104C10.6995 17 10.3349 16.7564 10.1801 16.3827C10.0253 16.009 10.1109 15.5789 10.3969 15.2929L12.3969 13.2929C12.5844 13.1054 12.8388 13 13.104 13C13.3692 13 13.6236 13.1054 13.8111 13.2929L15.8111 15.2929C16.0971 15.5789 16.1827 16.009 16.0279 16.3827C15.8731 16.7564 15.5085 17 15.104 17H14.104V19C14.104 19.5523 14.5517 20 15.104 20H20.104C20.6563 20 21.104 20.4477 21.104 21C21.104 21.5523 20.6563 22 20.104 22H15.104C13.4471 22 12.104 20.6569 12.104 19V17Z" fill="#9AA1B4"/>
</svg>
