<?xml version="1.0" encoding="utf-8"?>
<!-- Generator: Adobe Illustrator 22.1.0, SVG Export Plug-In . SVG Version: 6.00 Build 0)  -->
<svg version="1.1" id="Layer_1" xmlns="http://www.w3.org/2000/svg" xmlns:xlink="http://www.w3.org/1999/xlink" x="0px" y="0px"
	 viewBox="0 0 25 24" style="enable-background:new 0 0 25 24;" xml:space="preserve">
<style type="text/css">
	.st0{fill:#9AA1B4;}
</style>
<path class="st0" d="M20.6,8.6V7.5c0-1.7-1.3-3-3-3h-5.4L9.6,2.7C9.4,2.6,9.2,2.5,9,2.5H5.6c-1.7,0-3,1.3-3,3v13c0,1.7,1.3,3,3,3
	h3.5c0.6,0,1-0.4,1-1s-0.4-1-1-1H5.7c-0.7,0-1.2-0.8-0.9-1.4l3.2-7c0.2-0.4,0.5-0.6,0.9-0.6h10.9c0.7,0,1.2,0.7,0.9,1.3l-1.8,4.8
	c-0.2,0.5,0.1,1.1,0.6,1.3c0.5,0.2,1.1-0.1,1.3-0.6l1.8-4.8C23.2,10.9,22.2,9.1,20.6,8.6z M18.6,8.5H8.9c-1.2,0-2.2,0.7-2.7,1.8
	l-1.6,3.4V5.5c0-0.6,0.4-1,1-1h3.1l2.7,1.8c0.2,0.1,0.4,0.2,0.6,0.2h5.7c0.6,0,1,0.4,1,1V8.5z"/>
<path class="st0" d="M12.1,17h-1c-0.4,0-0.8-0.2-0.9-0.6c-0.2-0.4-0.1-0.8,0.2-1.1l2-2c0.2-0.2,0.4-0.3,0.7-0.3s0.5,0.1,0.7,0.3l2,2
	c0.3,0.3,0.4,0.7,0.2,1.1c-0.2,0.4-0.5,0.6-0.9,0.6h-1v2c0,0.6,0.4,1,1,1h5c0.6,0,1,0.4,1,1s-0.4,1-1,1h-5c-1.7,0-3-1.3-3-3V17z"/>
</svg>
