<?xml version="1.0" encoding="utf-8"?>
<!-- Generator: Adobe Illustrator 22.1.0, SVG Export Plug-In . SVG Version: 6.00 Build 0)  -->
<svg version="1.1" id="Layer_1" xmlns="http://www.w3.org/2000/svg" xmlns:xlink="http://www.w3.org/1999/xlink" x="0px" y="0px"
	 viewBox="0 0 24 24" style="enable-background:new 0 0 24 24;" xml:space="preserve">
<style type="text/css">
	.st0{fill:#9AA1B4;}
</style>
<g>
	<path class="st0" d="M18,6h-4.6l-3.2-2.8C10,3.1,9.7,3,9.5,3H6C3.8,3,2,4.8,2,7v10c0,2.2,1.8,4,4,4h12c2.2,0,4-1.8,4-4v-7
		C22,7.8,20.2,6,18,6z M20,17c0,1.1-0.9,2-2,2H6c-1.1,0-2-0.9-2-2V9h4c0.6,0,1-0.4,1-1S8.6,7,8,7H4c0-1.1,0.9-2,2-2h3.1l3.2,2.8
		C12.5,7.9,12.8,8,13,8h5c1.1,0,2,0.9,2,2V17z"/>
	<path class="st0" d="M14.2,10.8c-0.3-0.3-0.7-0.4-1.1-0.2s-0.6,0.5-0.6,0.9v1H10c-0.6,0-1,0.4-1,1s0.4,1,1,1h2.5v1
		c0,0.4,0.2,0.8,0.6,0.9s0.8,0.1,1.1-0.2l2-2c0.2-0.2,0.3-0.4,0.3-0.7s-0.1-0.5-0.3-0.7L14.2,10.8z"/>
</g>
</svg>
