<svg width="24" height="24" viewBox="0 0 24 24" fill="none" xmlns="http://www.w3.org/2000/svg">
<path fill-rule="evenodd" clip-rule="evenodd" d="M4.8 4.1C5.55542 3.09278 6.74097 2.5 8 2.5H16C17.259 2.5 18.4446 3.09278 19.2 4.1L20.9 6.36667C21.2895 6.88596 21.5 7.51756 21.5 8.16667V17.5C21.5 19.7091 19.7091 21.5 17.5 21.5H6.5C4.29086 21.5 2.5 19.7091 2.5 17.5V8.16667C2.5 7.51756 2.71053 6.88595 3.1 6.36667L4.8 4.1ZM8 4.5C7.37049 4.5 6.77771 4.79639 6.4 5.3L5.5 6.5H18.5L17.6 5.3C17.2223 4.79639 16.6295 4.5 16 4.5H8ZM4.5 17.5V8.5H19.5V17.5C19.5 18.6046 18.6046 19.5 17.5 19.5H6.5C5.39543 19.5 4.5 18.6046 4.5 17.5ZM13 14.5H14C14.3844 14.5 14.7348 14.2797 14.9013 13.9332C15.0678 13.5867 15.021 13.1755 14.7809 12.8753L12.7809 10.3753C12.5911 10.1381 12.3038 10 12 10C11.6962 10 11.4089 10.1381 11.2191 10.3753L9.21914 12.8753C8.979 13.1755 8.93219 13.5867 9.09871 13.9332C9.26523 14.2797 9.6156 14.5 10 14.5H11V16.5C11 17.0523 11.4477 17.5 12 17.5C12.5523 17.5 13 17.0523 13 16.5V14.5Z" fill="#9AA1B4"/>
</svg>
