<svg width="24" height="24" viewBox="0 0 24 24" fill="none" xmlns="http://www.w3.org/2000/svg">
<path d="M7.25 3.5C7.25 2.80964 6.69036 2.25 6 2.25C5.30964 2.25 4.75 2.80964 4.75 3.5V11.5C4.75 15.5041 7.99594 18.75 12 18.75C16.0041 18.75 19.25 15.5041 19.25 11.5V3.5C19.25 2.80964 18.6904 2.25 18 2.25C17.3096 2.25 16.75 2.80964 16.75 3.5V11.5C16.75 14.1234 14.6234 16.25 12 16.25C9.37665 16.25 7.25 14.1234 7.25 11.5V3.5Z" fill="#9AA1B4"/>
<path d="M5 20C4.44772 20 4 20.4477 4 21C4 21.5523 4.44772 22 5 22H19C19.5523 22 20 21.5523 20 21C20 20.4477 19.5523 20 19 20H5Z" fill="#9AA1B4"/>
</svg>
