<svg width="25" height="24" viewBox="0 0 25 24" fill="none" xmlns="http://www.w3.org/2000/svg">
<path fill-rule="evenodd" clip-rule="evenodd" d="M8.36877 4.49927C9.23178 3.00738 10.8473 2 12.6992 2C15.4607 2 17.6992 4.23858 17.6992 7V8.12602C19.4245 8.57008 20.6992 10.1362 20.6992 12V18C20.6992 20.2091 18.9084 22 16.6992 22H8.69922C6.49008 22 4.69922 20.2091 4.69922 18V12C4.69922 9.79086 6.49008 8 8.69922 8H15.6992V7C15.6992 5.34315 14.3561 4 12.6992 4C11.5901 4 10.6202 4.60141 10.1 5.50073C9.82344 5.97879 9.21171 6.14215 8.73365 5.86561C8.25559 5.58906 8.09223 4.97733 8.36877 4.49927ZM8.69922 10C7.59465 10 6.69922 10.8954 6.69922 12V18C6.69922 19.1046 7.59465 20 8.69922 20H16.6992C17.8038 20 18.6992 19.1046 18.6992 18V12C18.6992 10.8954 17.8038 10 16.6992 10H8.69922ZM13.6992 14C13.6992 13.4477 13.2515 13 12.6992 13C12.1469 13 11.6992 13.4477 11.6992 14V16C11.6992 16.5523 12.1469 17 12.6992 17C13.2515 17 13.6992 16.5523 13.6992 16V14Z" fill="#9AA1B4"/>
</svg>
