<svg width="56" height="56" viewBox="0 0 56 56" fill="none" xmlns="http://www.w3.org/2000/svg">
<path d="M8 16C8 11.5817 11.5817 8 16 8H40C44.4183 8 48 11.5817 48 16V40C48 44.4183 44.4183 48 40 48H16C11.5817 48 8 44.4183 8 40V16Z" fill="#B7C5CF"/>
<path d="M23.7144 15.8574C26.0813 15.8574 28.0001 17.7762 28.0001 20.1431C28.0001 17.7762 29.9189 15.8574 32.2858 15.8574H40.8572C41.6462 15.8574 42.2858 16.497 42.2858 17.286V35.8574C42.2858 36.6464 41.6462 37.286 40.8572 37.286H32.2858C30.9368 37.286 29.6666 37.9211 28.8572 39.0003L28.0001 40.1431L27.1429 39.0003C26.3336 37.9211 25.0633 37.286 23.7144 37.286H15.1429C14.3539 37.286 13.7144 36.6464 13.7144 35.8574V17.286C13.7144 16.497 14.3539 15.8574 15.1429 15.8574H23.7144Z" fill="white"/>
<path fill-rule="evenodd" clip-rule="evenodd" d="M39.4284 22.5717C39.4284 23.2029 38.9168 23.7146 38.2856 23.7146H31.9999C31.3687 23.7146 30.857 23.2029 30.857 22.5717V22.0003C30.857 21.3691 31.3687 20.8574 31.9999 20.8574H38.2856C38.9168 20.8574 39.4284 21.3691 39.4284 22.0003V22.5717Z" fill="#60707C"/>
<path fill-rule="evenodd" clip-rule="evenodd" d="M25.1427 27.7146C25.1427 27.0834 24.631 26.5717 23.9999 26.5717H17.7141C17.083 26.5717 16.5713 27.0834 16.5713 27.7146V28.286C16.5713 28.9172 17.083 29.4288 17.7141 29.4288H23.9999C24.631 29.4288 25.1427 28.9172 25.1427 28.286V27.7146Z" fill="#60707C"/>
<path fill-rule="evenodd" clip-rule="evenodd" d="M36.5713 28.286C36.5713 28.9172 36.0596 29.4288 35.4284 29.4288H31.9999C31.3687 29.4288 30.857 28.9172 30.857 28.286V27.7146C30.857 27.0834 31.3687 26.5717 31.9999 26.5717H35.4284C36.0596 26.5717 36.5713 27.0834 36.5713 27.7146V28.286Z" fill="#60707C"/>
<path fill-rule="evenodd" clip-rule="evenodd" d="M22.2856 22.0003C22.2856 21.3691 21.7739 20.8574 21.1427 20.8574H17.7141C17.083 20.8574 16.5713 21.3691 16.5713 22.0003V22.5717C16.5713 23.2029 17.083 23.7146 17.7141 23.7146H21.1427C21.7739 23.7146 22.2856 23.2029 22.2856 22.5717V22.0003Z" fill="#60707C"/>
</svg>
