<svg width="17" height="16" viewBox="0 0 17 16" fill="none" xmlns="http://www.w3.org/2000/svg">
<g clip-path="url(#clip0_1622_210150)">
<path fill-rule="evenodd" clip-rule="evenodd" d="M9.39099 2.07149C8.87142 0.97096 7.3366 0.970961 6.81703 2.07149L5.50146 4.85805L2.57337 5.30283C1.36709 5.48606 0.975032 6.9655 1.77447 7.78012L3.9127 9.95893L3.66876 11.4458L0.38029 14.4994C0.0767571 14.7812 0.0591809 15.2558 0.341033 15.5593C0.622885 15.8628 1.09743 15.8804 1.40097 15.5985L14.3018 3.61923C14.6053 3.33737 14.6229 2.86282 14.341 2.55929C14.0592 2.25576 13.5846 2.23818 13.2811 2.52004L10.7551 4.86559L10.7066 4.85805L9.39099 2.07149ZM9.63736 5.90351C9.52274 5.79124 9.42797 5.66332 9.36275 5.52517L8.10401 2.85898L6.84527 5.52517C6.64432 5.95082 6.24693 6.26202 5.76855 6.33468L2.88715 6.77237L4.9941 8.91931C5.2384 9.16825 5.38085 9.49257 5.40873 9.83009L9.63736 5.90351ZM12.2953 9.95893L14.4336 7.78012C15.1932 7.00607 14.877 5.63175 13.8087 5.3396L12.4163 6.63497L13.3209 6.77237L11.2139 8.91931C10.8823 9.25722 10.7384 9.73403 10.8139 10.1942L11.3041 13.1824L8.78115 11.7958C8.35842 11.5635 7.8496 11.5635 7.42688 11.7958L6.05962 12.5472L3.98223 14.471C4.38614 14.7776 4.94465 14.8716 5.49296 14.5703L8.10401 13.1353L10.7151 14.5703C11.829 15.1825 12.9851 14.1629 12.8014 13.0435L12.2953 9.95893Z" fill="#9AA1B4"/>
</g>
<defs>
<clipPath id="clip0_1622_210150">
<rect width="16" height="16" fill="white" transform="translate(0.104004)"/>
</clipPath>
</defs>
</svg>
