<svg width="24" height="24" viewBox="0 0 24 24" fill="none" xmlns="http://www.w3.org/2000/svg">
<path d="M11.4774 2.01345C11.6505 2.00452 11.8248 2 12 2C17.5228 2 22 6.47715 22 12C22 17.5228 17.5228 22 12 22C11.8248 22 11.6505 21.9955 11.4774 21.9866C10.9258 21.9581 10.5017 21.4879 10.5302 20.9364C10.5586 20.3848 11.0288 19.9608 11.5804 19.9892C11.7192 19.9964 11.8592 20 12 20C16.4183 20 20 16.4183 20 12C20 7.58172 16.4183 4 12 4C11.8592 4 11.7192 4.00363 11.5804 4.01079C11.0288 4.03924 10.5586 3.61518 10.5302 3.06362C10.5017 2.51207 10.9258 2.04189 11.4774 2.01345Z" fill="#9AA1B4"/>
<path d="M8.80383 3.52453C9.05496 4.01642 8.85979 4.61875 8.36791 4.86988C8.11854 4.9972 7.87667 5.13725 7.64315 5.28921C7.18025 5.59043 6.5608 5.45936 6.25957 4.99646C5.95835 4.53355 6.08942 3.9141 6.55232 3.61288C6.84413 3.42299 7.14654 3.24787 7.45848 3.08861C7.95037 2.83748 8.5527 3.03265 8.80383 3.52453Z" fill="#9AA1B4"/>
<path d="M4.99646 6.25957C5.45936 6.5608 5.59043 7.18025 5.28921 7.64316C5.13725 7.87667 4.9972 8.11854 4.86988 8.36791C4.61875 8.85979 4.01642 9.05497 3.52453 8.80383C3.03265 8.5527 2.83748 7.95037 3.08861 7.45848C3.24787 7.14654 3.42299 6.84413 3.61287 6.55232C3.9141 6.08942 4.53355 5.95835 4.99646 6.25957Z" fill="#9AA1B4"/>
<path d="M3.06362 10.5302C3.61518 10.5586 4.03924 11.0288 4.01079 11.5804C4.00363 11.7192 4 11.8592 4 12C4 12.1408 4.00363 12.2808 4.01079 12.4196C4.03924 12.9712 3.61518 13.4414 3.06362 13.4698C2.51207 13.4983 2.04189 13.0742 2.01345 12.5226C2.00452 12.3495 2 12.1752 2 12C2 11.8248 2.00452 11.6505 2.01345 11.4774C2.04189 10.9258 2.51207 10.5017 3.06362 10.5302Z" fill="#9AA1B4"/>
<path d="M3.52453 15.1962C4.01642 14.945 4.61875 15.1402 4.86988 15.6321C4.9972 15.8815 5.13725 16.1233 5.28921 16.3568C5.59043 16.8198 5.45936 17.4392 4.99646 17.7404C4.53355 18.0417 3.9141 17.9106 3.61288 17.4477C3.42299 17.1559 3.24787 16.8535 3.08861 16.5415C2.83748 16.0496 3.03265 15.4473 3.52453 15.1962Z" fill="#9AA1B4"/>
<path d="M6.25957 19.0035C6.5608 18.5406 7.18025 18.4096 7.64316 18.7108C7.87667 18.8628 8.11854 19.0028 8.36791 19.1301C8.85979 19.3812 9.05497 19.9836 8.80383 20.4755C8.5527 20.9674 7.95037 21.1625 7.45848 20.9114C7.14654 20.7521 6.84413 20.577 6.55232 20.3871C6.08942 20.0859 5.95835 19.4664 6.25957 19.0035Z" fill="#9AA1B4"/>
<path d="M12.7075 7.29329L16.7071 11.2929L12.0094 7.00004C12.2712 7.00251 12.5222 7.10798 12.7075 7.29329Z" fill="#9AA1B4"/>
<path d="M16.7071 11.2929C17.0976 11.6834 17.0976 12.3166 16.7071 12.7071C16.3166 13.0976 15.6834 13.0976 15.2929 12.7071L13 10.4142V16C13 16.5523 12.5523 17 12 17C11.4477 17 11 16.5523 11 16V10.4142L8.70711 12.7071C8.31658 13.0976 7.68342 13.0976 7.29289 12.7071C6.90237 12.3166 6.90237 11.6834 7.29289 11.2929L11.2925 7.29329C11.4778 7.10798 11.7288 7.00251 11.9906 7.00004L16.7071 11.2929Z" fill="#9AA1B4"/>
</svg>
