<svg width="25" height="24" viewBox="0 0 25 24" fill="none" xmlns="http://www.w3.org/2000/svg">
<path fill-rule="evenodd" clip-rule="evenodd" d="M6.69922 4C4.49008 4 2.69922 5.79086 2.69922 8V16C2.69922 18.2091 4.49008 20 6.69922 20H13.6992C15.6602 20 17.2916 18.5889 17.6334 16.7267L19.6702 17.9488C21.0033 18.7486 22.6992 17.7884 22.6992 16.2338V7.76619C22.6992 6.2116 21.0033 5.25138 19.6702 6.05121L17.6334 7.27332C17.2916 5.41112 15.6602 4 13.6992 4H6.69922ZM17.6992 9.56619V14.4338L20.6992 16.2338V7.76619L17.6992 9.56619ZM15.6992 8C15.6992 6.89543 14.8038 6 13.6992 6H6.69922C5.59465 6 4.69922 6.89543 4.69922 8V16C4.69922 17.1046 5.59465 18 6.69922 18H13.6992C14.8038 18 15.6992 17.1046 15.6992 16V8Z" fill="#9AA1B4"/>
</svg>
