<svg width="25" height="24" viewBox="0 0 25 24" fill="none" xmlns="http://www.w3.org/2000/svg">
<path fill-rule="evenodd" clip-rule="evenodd" d="M21.4466 3.66437C21.8135 3.25159 21.7764 2.61952 21.3636 2.2526C20.9508 1.88568 20.3187 1.92286 19.9518 2.33565L16.9674 5.69313C16.243 4.66879 15.0492 4.00001 13.6992 4.00001H6.69922C4.49008 4.00001 2.69922 5.79087 2.69922 8.00001V16C2.69922 17.4878 3.51152 18.7859 4.71682 19.475L3.95181 20.3356C3.58489 20.7484 3.62207 21.3805 4.03485 21.7474C4.44764 22.1143 5.07971 22.0772 5.44663 21.6644L21.4466 3.66437ZM6.10713 17.9109L15.563 7.27306C15.2721 6.52791 14.5473 6.00001 13.6992 6.00001H6.69922C5.59465 6.00001 4.69922 6.89544 4.69922 8.00001V16C4.69922 16.8984 5.29162 17.6585 6.10713 17.9109Z" fill="#9AA1B4"/>
<path d="M13.6992 18H11.1483L9.37051 20H13.6992C15.6602 20 17.2916 18.5889 17.6334 16.7267L19.6702 17.9488C21.0033 18.7486 22.6992 17.7884 22.6992 16.2338V6.00001C22.6992 5.73389 22.5953 5.49204 22.4257 5.31287L20.6992 7.25521V16.2338L17.6992 14.4338V10.6302L15.6992 12.8802V16C15.6992 17.1046 14.8038 18 13.6992 18Z" fill="#9AA1B4"/>
</svg>
