<svg width="24" height="24" viewBox="0 0 24 24" fill="none" xmlns="http://www.w3.org/2000/svg">
<path fill-rule="evenodd" clip-rule="evenodd" d="M10.3359 4.74132C12.3296 3.41221 15 4.84138 15 7.23747V16.7634C15 19.1595 12.3296 20.5887 10.3359 19.2596L7.69722 17.5004H6C3.79086 17.5004 2 15.7096 2 13.5004V10.5004C2 8.29129 3.79086 6.50043 6 6.50043H7.69722L10.3359 4.74132ZM13 7.23747C13 6.43877 12.1099 5.96238 11.4453 6.40542L8.5547 8.33248C8.39043 8.44199 8.19742 8.50043 8 8.50043H6C4.89543 8.50043 4 9.39586 4 10.5004V13.5004C4 14.605 4.89543 15.5004 6 15.5004H8C8.19742 15.5004 8.39043 15.5589 8.5547 15.6684L11.4453 17.5954C12.1099 18.0385 13 17.5621 13 16.7634V7.23747Z" fill="#9AA1B4"/>
<path d="M16.1684 9.44508C16.4751 8.98579 17.0961 8.86211 17.5554 9.16882C18.4543 9.76916 19 10.8408 19 12.0004C19 13.16 18.4543 14.2317 17.5554 14.832C17.0961 15.1388 16.4751 15.0151 16.1684 14.5558C15.8617 14.0965 15.9854 13.4755 16.4446 13.1688C16.7413 12.9707 17 12.5501 17 12.0004C17 11.4508 16.7413 11.0301 16.4446 10.832C15.9854 10.5253 15.8617 9.90436 16.1684 9.44508Z" fill="#9AA1B4"/>
<path d="M19.7186 6.30498C19.3345 5.90813 18.7014 5.89777 18.3046 6.28186C17.9077 6.66594 17.8973 7.29902 18.2814 7.69588C19.3374 8.78696 20 10.2212 20 12.0004C20 13.7797 19.3374 15.2139 18.2814 16.305C17.8973 16.7018 17.9077 17.3349 18.3046 17.719C18.7014 18.1031 19.3345 18.0927 19.7186 17.6959C21.1176 16.2503 22 14.3241 22 12.0004C22 9.67681 21.1176 7.75054 19.7186 6.30498Z" fill="#9AA1B4"/>
</svg>
