<svg width="25" height="24" viewBox="0 0 25 24" fill="none" xmlns="http://www.w3.org/2000/svg">
<path fill-rule="evenodd" clip-rule="evenodd" d="M12.4771 2C6.9542 2 2.47705 6.47715 2.47705 12C2.47705 17.5228 6.9542 22 12.4771 22C17.9999 22 22.4771 17.5228 22.4771 12C22.4771 6.47715 17.9999 2 12.4771 2ZM12.3425 4.00111C12.3873 4.00037 12.4321 4 12.4771 4C12.522 4 12.5668 4.00037 12.6116 4.00111C12.6288 4.03077 12.6477 4.05983 12.6683 4.08817C14.3246 6.36552 15.2305 8.69345 15.4331 11H9.52096C9.72358 8.69345 10.6295 6.36552 12.2858 4.08817C12.3064 4.05983 12.3253 4.03077 12.3425 4.00111ZM7.51435 11C7.67874 8.79777 8.38527 6.6241 9.60885 4.52953C6.9057 5.56803 4.90912 8.03147 4.53894 11H7.51435ZM4.53894 13H7.51435C7.67874 15.2022 8.38527 17.3759 9.60885 19.4705C6.9057 18.432 4.90912 15.9685 4.53894 13ZM9.52096 13H15.4331C15.2305 15.3065 14.3246 17.6345 12.6683 19.9118C12.6477 19.9402 12.6288 19.9692 12.6116 19.9989C12.5668 19.9996 12.522 20 12.4771 20C12.4321 20 12.3873 19.9996 12.3425 19.9989C12.3253 19.9692 12.3064 19.9402 12.2858 19.9118C10.6295 17.6345 9.72358 15.3065 9.52096 13ZM17.4398 13C17.2754 15.2022 16.5688 17.3759 15.3452 19.4705C18.0484 18.432 20.045 15.9685 20.4152 13H17.4398ZM20.4152 11C20.045 8.03147 18.0484 5.56802 15.3452 4.52953C16.5688 6.6241 17.2754 8.79777 17.4398 11H20.4152Z" fill="#9AA1B4"/>
</svg>
