<?xml version="1.0" encoding="utf-8"?>
<!-- Generator: Adobe Illustrator 22.1.0, SVG Export Plug-In . SVG Version: 6.00 Build 0)  -->
<svg version="1.1" id="Layer_1" xmlns="http://www.w3.org/2000/svg" xmlns:xlink="http://www.w3.org/1999/xlink" x="0px" y="0px"
	 viewBox="0 0 25 24" style="enable-background:new 0 0 25 24;" xml:space="preserve">
<style type="text/css">
	.st0{fill:#9AA1B4;}
</style>
<path class="st0" d="M12.5,2C7,2,2.5,6.5,2.5,12s4.5,10,10,10c5.5,0,10-4.5,10-10S18,2,12.5,2z M20.4,11h-3
	c-0.2-2.2-0.9-4.4-2.1-6.5C18,5.6,20,8,20.4,11z M12.3,4c0,0,0.1,0,0.1,0c0,0,0.1,0,0.1,0c0,0,0,0.1,0.1,0.1
	c1.7,2.3,2.6,4.6,2.8,6.9H9.5C9.7,8.7,10.6,6.4,12.3,4C12.3,4.1,12.3,4,12.3,4z M9.6,4.5C8.4,6.6,7.7,8.8,7.5,11h-3
	C4.9,8,6.9,5.6,9.6,4.5z M4.5,13h3c0.2,2.2,0.9,4.4,2.1,6.5C6.9,18.4,4.9,16,4.5,13z M12.6,20c0,0-0.1,0-0.1,0c0,0-0.1,0-0.1,0
	c0,0,0-0.1-0.1-0.1c-1.7-2.3-2.6-4.6-2.8-6.9h5.9C15.2,15.3,14.3,17.6,12.6,20C12.6,19.9,12.6,20,12.6,20z M15.3,19.5
	c1.2-2.1,1.9-4.3,2.1-6.5h3C20,16,18,18.4,15.3,19.5z"/>
</svg>
