<svg width="24" height="24" viewBox="0 0 24 24" fill="none" xmlns="http://www.w3.org/2000/svg">
<path fill-rule="evenodd" clip-rule="evenodd" d="M4.5 8C5.05228 8 5.5 8.44772 5.5 9V19.5H18.5V9C18.5 8.44772 18.9477 8 19.5 8C20.0523 8 20.5 8.44772 20.5 9V20.5C20.5 21.0523 20.0523 21.5 19.5 21.5H4.5C3.94772 21.5 3.5 21.0523 3.5 20.5V9C3.5 8.44772 3.94772 8 4.5 8Z" fill="#9AA1B4"/>
<path fill-rule="evenodd" clip-rule="evenodd" d="M11.3861 2.21065C11.7472 1.92978 12.2529 1.92978 12.614 2.21065L21.614 9.21065C22.0499 9.54972 22.1285 10.178 21.7894 10.6139C21.4503 11.0499 20.8221 11.1284 20.3861 10.7894L12 4.26686L3.61399 10.7894C3.17804 11.1284 2.54976 11.0499 2.21069 10.6139C1.87162 10.178 1.95016 9.54972 2.38611 9.21065L11.3861 2.21065Z" fill="#9AA1B4"/>
<path fill-rule="evenodd" clip-rule="evenodd" d="M7 12C7 10.8954 7.89543 10 9 10H15C16.1046 10 17 10.8954 17 12V16C17 17.1046 16.1046 18 15 18H9C7.89543 18 7 17.1046 7 16V12ZM15 12H9V16H15V12Z" fill="#9AA1B4"/>
<path fill-rule="evenodd" clip-rule="evenodd" d="M9.5 10C9.5 9.44772 9.94772 9 10.5 9H13.5C14.0523 9 14.5 9.44772 14.5 10C14.5 10.5523 14.0523 11 13.5 11H10.5C9.94772 11 9.5 10.5523 9.5 10Z" fill="#9AA1B4"/>
<path fill-rule="evenodd" clip-rule="evenodd" d="M8 11.5C8 10.9477 8.44772 10.5 9 10.5H15C15.5523 10.5 16 10.9477 16 11.5C16 12.0523 15.5523 12.5 15 12.5H9C8.44772 12.5 8 12.0523 8 11.5Z" fill="#9AA1B4"/>
<path fill-rule="evenodd" clip-rule="evenodd" d="M10.5 12.5C10.5 11.9477 10.9477 11.5 11.5 11.5H12.5C13.0523 11.5 13.5 11.9477 13.5 12.5C13.5 13.0523 13.0523 13.5 12.5 13.5H11.5C10.9477 13.5 10.5 13.0523 10.5 12.5Z" fill="#9AA1B4"/>
</svg>
