<svg width="24" height="24" viewBox="0 0 24 24" fill="none" xmlns="http://www.w3.org/2000/svg">
<path d="M2 9C2 7.89543 2.89543 7 4 7H20C21.1046 7 22 7.89543 22 9V18C22 19.1046 21.1046 20 20 20H4C2.89543 20 2 19.1046 2 18V9Z" fill="#B2CCFF"/>
<path d="M5 4C5 3.44772 5.44772 3 6 3H7C7.55228 3 8 3.44772 8 4V5H16V4C16 3.44772 16.4477 3 17 3H18C18.5523 3 19 3.44772 19 4V5H20C21.1046 5 22 5.89543 22 7V9C22 9.55228 21.5523 10 21 10H3C2.44772 10 2 9.55228 2 9V7C2 5.89543 2.89543 5 4 5H5V4Z" fill="#3663F2"/>
<rect x="4" y="12" width="3" height="3" rx="1" fill="#3663F2"/>
</svg>
