<svg width="32" height="32" viewBox="0 0 32 32" fill="none" xmlns="http://www.w3.org/2000/svg">
<path d="M5.71436 5.71345C5.71436 4.45108 6.7377 3.42773 8.00007 3.42773H17.7228C18.6321 3.42773 19.5042 3.78896 20.1471 4.43194L25.2816 9.56639C25.9246 10.2094 26.2858 11.0814 26.2858 11.9908V26.2849C26.2858 27.5472 25.2624 28.5706 24.0001 28.5706H8.00007C6.7377 28.5706 5.71436 27.5472 5.71436 26.2849V5.71345Z" fill="#63A1FF"/>
<path d="M18.3449 3.53282C19.0497 3.6503 19.7003 3.98508 20.2056 4.49037L25.2231 9.50795C25.7284 10.0132 26.0632 10.6638 26.1807 11.3687L26.2858 11.9992L26.1051 11.4571C25.8717 10.757 25.2166 10.2849 24.4788 10.2849H21.1429C20.1962 10.2849 19.4286 9.51736 19.4286 8.57059V5.23475C19.4286 4.49687 18.9565 3.84177 18.2565 3.60844L17.7144 3.42773L18.3449 3.53282Z" fill="#CFE2FF"/>
<path fill-rule="evenodd" clip-rule="evenodd" d="M13.4287 15.9997C13.4287 15.5263 13.8125 15.1426 14.2859 15.1426L21.7144 15.1426C22.1878 15.1426 22.5716 15.5263 22.5716 15.9997C22.5716 16.4731 22.1878 16.8569 21.7144 16.8569L14.2859 16.8569C13.8125 16.8569 13.4287 16.4731 13.4287 15.9997Z" fill="#CFE2FF"/>
<path fill-rule="evenodd" clip-rule="evenodd" d="M9.42871 19.9997C9.42871 19.5263 9.81247 19.1426 10.2859 19.1426H21.7144C22.1878 19.1426 22.5716 19.5263 22.5716 19.9997C22.5716 20.4731 22.1878 20.8569 21.7144 20.8569H10.2859C9.81247 20.8569 9.42871 20.4731 9.42871 19.9997Z" fill="#CFE2FF"/>
<path fill-rule="evenodd" clip-rule="evenodd" d="M9.42871 23.9997C9.42871 23.5263 9.81247 23.1426 10.2859 23.1426H21.7144C22.1878 23.1426 22.5716 23.5263 22.5716 23.9997C22.5716 24.4731 22.1878 24.8569 21.7144 24.8569H10.2859C9.81247 24.8569 9.42871 24.4731 9.42871 23.9997Z" fill="#CFE2FF"/>
</svg>
