<svg width="156" height="156" viewBox="0 0 156 156" fill="none" xmlns="http://www.w3.org/2000/svg">
<path fill-rule="evenodd" clip-rule="evenodd" d="M97.0943 86.5329C107.98 79.6491 113.392 78.4194 116.555 80.3532C121.077 83.1178 116.946 88.7742 121.108 89.0942C125.271 89.4147 128.895 85.6503 132.077 87.5894C134.688 89.1803 139.261 97.009 147.266 97.1692C155.27 97.3291 95.1731 97.2591 95.1731 97.2591C95.1731 97.2591 86.2079 93.417 97.0943 86.5329Z" fill="url(#paint0_linear_3636_435764)"/>
<path fill-rule="evenodd" clip-rule="evenodd" d="M56.412 60.4679C46.78 54.3773 41.9921 53.2892 39.1932 55.0003C35.1921 57.4464 38.8477 62.4512 35.1647 62.7343C31.4817 63.0175 28.2749 59.6869 25.4589 61.403C23.149 62.8104 22.6996 66.4173 15.6172 66.5589C8.53511 66.7005 8 70.8542 8 70.8542L58.1117 69.9583C58.1117 69.9583 66.044 66.5589 56.412 60.4679Z" fill="url(#paint1_linear_3636_435764)"/>
<path fill-rule="evenodd" clip-rule="evenodd" d="M78.1276 45.2869C78.1276 45.2869 93.228 44.2345 91.5758 42.6155C89.9237 40.9965 88.5326 41.2393 85.6629 39.2964C82.7937 37.3538 83.1411 32.2539 78.1276 32.2539C73.1137 32.2539 73.4616 37.3538 70.5919 39.2964C67.7223 41.2393 66.3312 40.9965 64.679 42.6155C63.0269 44.2345 78.1276 45.2869 78.1276 45.2869ZM78.1276 34.2212C76.872 34.2212 75.8528 35.2404 75.8528 36.4956C75.8528 37.7512 76.872 38.7704 78.1276 38.7704C79.3828 38.7704 80.402 37.7512 80.402 36.4956C80.402 35.2404 79.3828 34.2212 78.1276 34.2212Z" fill="url(#paint2_linear_3636_435764)"/>
<path fill-rule="evenodd" clip-rule="evenodd" d="M78.1276 121.522C109.309 121.522 118.913 117.219 118.913 117.219C118.913 117.219 119.8 117.014 119.899 113.94C119.998 110.867 116.939 109.739 114.275 105.948C111.61 102.158 111.413 98.5028 111.413 90.8871C111.413 82.588 113.189 72.9567 107.268 58.6122C101.348 44.2681 94.0455 41.2969 78.1276 41.2969C62.2094 41.2969 54.907 44.2681 48.9865 58.6122C43.066 72.9567 44.8419 82.588 44.8419 90.8871C44.8419 98.5028 44.6447 102.158 41.9806 105.948C39.3161 109.739 36.2573 110.867 36.3558 113.94C36.4544 117.014 37.3427 117.219 37.3427 117.219C37.3427 117.219 46.9454 121.522 78.1276 121.522Z" fill="url(#paint3_linear_3636_435764)"/>
<path fill-rule="evenodd" clip-rule="evenodd" d="M119.751 115.515H119.751C111.374 113.529 93.014 111.89 79.6118 111.972C67.4923 112.046 44.9503 110.716 36.5034 115.49C36.7828 117.09 37.3445 117.22 37.3445 117.22C37.3445 117.22 46.9476 121.523 78.1294 121.523C109.312 121.523 118.914 117.22 118.914 117.22C118.914 117.22 119.471 117.092 119.751 115.515Z" fill="#B8C8FE"/>
<path fill-rule="evenodd" clip-rule="evenodd" d="M78.1276 70.8516C63.2659 70.8516 51.1836 72.2624 44.7516 76.1159C44.6063 78.3915 44.5614 80.6902 44.6192 83.013C47.8626 81.0453 59.8904 79.0122 78.1276 79.1435C96.3644 79.0122 108.393 81.0453 111.636 83.013C111.693 80.6902 111.649 78.3915 111.503 76.1159C105.072 72.2624 92.9889 70.8516 78.1276 70.8516Z" fill="url(#paint4_linear_3636_435764)"/>
<path fill-rule="evenodd" clip-rule="evenodd" d="M83.0738 111.013C81.7848 109.813 74.4835 109.821 73.1914 111.024C71.717 112.353 70.7979 114.28 70.7979 116.42C70.7979 120.465 74.0823 123.749 78.1277 123.749C82.173 123.749 85.4571 120.465 85.4571 116.42C85.4571 114.28 84.5379 112.353 83.0738 111.013Z" fill="url(#paint5_linear_3636_435764)"/>
<path fill-rule="evenodd" clip-rule="evenodd" d="M78.1275 114.963C101.356 114.227 114.813 116.209 118.912 117.218C119.646 116.863 120.016 114.806 119.845 113.115C115.796 109.311 93.4889 109.242 78.1275 109.242C62.7657 109.242 40.4581 109.311 36.4094 113.115C36.2385 114.806 36.6088 116.863 37.3426 117.218C41.4412 116.209 54.8989 114.227 78.1275 114.963Z" fill="url(#paint6_linear_3636_435764)"/>
<defs>
<linearGradient id="paint0_linear_3636_435764" x1="156.092" y1="87.275" x2="93.5407" y2="96.8167" gradientUnits="userSpaceOnUse">
<stop stop-color="#EBF0FF"/>
<stop offset="1" stop-color="#D8E1FE"/>
</linearGradient>
<linearGradient id="paint1_linear_3636_435764" x1="4.21174" y1="61.1246" x2="59.5562" y2="69.567" gradientUnits="userSpaceOnUse">
<stop stop-color="#EBF0FF"/>
<stop offset="1" stop-color="#D8E1FE"/>
</linearGradient>
<linearGradient id="paint2_linear_3636_435764" x1="91.3258" y1="33.1629" x2="61.6727" y2="33.3739" gradientUnits="userSpaceOnUse">
<stop stop-color="#D2DCFE"/>
<stop offset="1" stop-color="#C2CFFD"/>
</linearGradient>
<linearGradient id="paint3_linear_3636_435764" x1="37.4565" y1="38.6316" x2="141.076" y2="83.7979" gradientUnits="userSpaceOnUse">
<stop stop-color="#EBF0FF"/>
<stop offset="1" stop-color="#E3E9FE"/>
</linearGradient>
<linearGradient id="paint4_linear_3636_435764" x1="45.5244" y1="71.6999" x2="117.643" y2="81.2248" gradientUnits="userSpaceOnUse">
<stop stop-color="#D2DCFE"/>
<stop offset="1" stop-color="#C2CFFD"/>
</linearGradient>
<linearGradient id="paint5_linear_3636_435764" x1="78.702" y1="102.687" x2="67.0987" y2="103.05" gradientUnits="userSpaceOnUse">
<stop stop-color="#A5B9FD"/>
<stop offset="1" stop-color="#87A2FB"/>
</linearGradient>
<linearGradient id="paint6_linear_3636_435764" x1="111.513" y1="108.908" x2="111.484" y2="125.142" gradientUnits="userSpaceOnUse">
<stop stop-color="#F9FBFF"/>
<stop offset="1" stop-color="#E1E8FD"/>
</linearGradient>
</defs>
</svg>
