<svg width="24" height="24" viewBox="0 0 24 24" fill="none" xmlns="http://www.w3.org/2000/svg">
<path d="M2.32612 9.28284C2.154 8.07797 3.08892 7 4.30602 7H19.694C20.9111 7 21.846 8.07798 21.6739 9.28284L20.2453 19.2828C20.1046 20.2681 19.2607 21 18.2654 21H5.73459C4.73929 21 3.89545 20.2681 3.75469 19.2828L2.32612 9.28284Z" fill="#B2CCFF"/>
<path d="M4 5C4 3.89543 4.89543 3 6 3H7.17157C7.70201 3 8.21071 3.21071 8.58579 3.58579L9.41421 4.41421C9.78929 4.78929 10.298 5 10.8284 5H18C19.1046 5 20 5.89543 20 7V8C20 8.55228 19.5523 9 19 9H5C4.44772 9 4 8.55228 4 8V5Z" fill="#3663F2"/>
</svg>
