<svg width="156" height="156" viewBox="0 0 156 156" fill="none" xmlns="http://www.w3.org/2000/svg">
<path fill-rule="evenodd" clip-rule="evenodd" d="M147.049 12.5845C147.049 11.3689 146.565 10.2024 145.706 9.34282C144.846 8.48258 143.68 8 142.464 8C121.464 8 34.585 8 13.5845 8C12.3689 8 11.2024 8.48258 10.3428 9.34282C9.48258 10.2024 9 11.3689 9 12.5845C9 32.317 9 109.897 9 129.629C9 130.845 9.48258 132.011 10.3428 132.871C11.2024 133.731 12.3689 134.214 13.5845 134.214C34.585 134.214 121.464 134.214 142.464 134.214C143.68 134.214 144.846 133.731 145.706 132.871C146.565 132.011 147.049 130.845 147.049 129.629C147.049 109.897 147.049 32.317 147.049 12.5845Z" fill="url(#paint0_linear_2974_421969)"/>
<g filter="url(#filter0_f_2974_421969)">
<path fill-rule="evenodd" clip-rule="evenodd" d="M113.208 90.8467C113.19 89.9596 114.001 89.043 115.485 89.043C122.578 89.043 129.091 91.5542 134.18 95.7354C136.327 97.4998 149.366 112.433 141.877 127.162C138.078 134.636 113.839 127.355 107.449 131.018C97.1494 136.922 87.7497 130.041 86.6056 124.459C86.2128 122.54 86.0063 120.555 86.0063 118.521C86.0063 113.921 87.0626 109.565 88.9457 105.683L88.9332 105.679C87.6749 105.254 85.2273 105.65 83.0511 106.049C82.5273 106.083 82.0394 105.784 81.8323 105.302C81.6251 104.82 81.7437 104.26 82.1286 103.903C86.1656 100.34 93.1308 96.3314 97.5972 94.9644C97.9664 94.8654 98.3605 94.946 98.6614 95.182C98.9427 95.4023 99.1112 95.7341 99.1256 96.0888C103.139 93.156 107.969 91.2729 113.208 90.8467Z" fill="#7D94DD" fill-opacity="0.43"/>
</g>
<path d="M115.484 146.287C130.819 146.287 143.251 133.855 143.251 118.52C143.251 103.185 130.819 90.7539 115.484 90.7539C100.149 90.7539 87.7178 103.185 87.7178 118.52C87.7178 133.855 100.149 146.287 115.484 146.287Z" fill="url(#paint1_linear_2974_421969)"/>
<path fill-rule="evenodd" clip-rule="evenodd" d="M118.826 102.849C118.826 102.849 118.726 106.379 118.49 110.356C118.457 110.888 118.433 111.42 118.37 111.955C118.308 112.487 118.21 113.014 118.118 113.532C118.016 114.104 117.916 114.667 117.793 115.202C117.706 115.585 117.614 115.953 117.504 116.303C116.752 118.715 116.033 120.362 116.033 120.362C115.951 120.815 115.518 121.116 115.065 121.035C114.612 120.953 114.311 120.52 114.392 120.067C114.392 120.067 114.295 118.272 114.431 115.75C114.451 115.383 114.493 115.006 114.544 114.617C114.617 114.072 114.719 113.51 114.824 112.938C114.919 112.42 115.01 111.893 115.137 111.372C115.266 110.849 115.428 110.342 115.584 109.832C116.75 106.023 117.89 102.68 117.89 102.68C117.936 102.422 118.183 102.25 118.442 102.297C118.7 102.343 118.872 102.591 118.826 102.849Z" fill="#9AB1FC"/>
<path fill-rule="evenodd" clip-rule="evenodd" d="M115.605 119.536C115.605 119.536 116.67 119.65 118.259 120.166C118.501 120.245 118.741 120.348 118.988 120.471C119.504 120.728 120.046 121.034 120.571 121.396C123.648 123.515 126.765 126.381 126.765 126.381C126.966 126.496 127.036 126.753 126.921 126.954C126.807 127.154 126.55 127.225 126.349 127.11C126.349 127.11 122.296 125.884 118.906 124.313C118.328 124.045 117.789 123.734 117.305 123.42C117.074 123.27 116.862 123.116 116.671 122.947C115.418 121.842 114.779 120.984 114.779 120.984C114.379 120.756 114.24 120.246 114.468 119.846C114.696 119.446 115.206 119.307 115.605 119.536Z" fill="#9AB1FC"/>
<path fill-rule="evenodd" clip-rule="evenodd" d="M115.485 89.043C131.754 89.043 144.962 102.252 144.962 118.521C144.962 134.79 131.754 147.999 115.485 147.999C99.2155 147.999 86.0063 134.79 86.0063 118.521C86.0063 113.921 87.0626 109.565 88.9457 105.683L88.9332 105.679C87.6749 105.254 85.2273 105.65 83.0511 106.049C82.5273 106.083 82.0394 105.784 81.8323 105.302C81.6251 104.82 81.7437 104.26 82.1286 103.903C86.1656 100.34 93.1308 96.3314 97.5972 94.9644C97.9664 94.8654 98.3605 94.946 98.6614 95.182C98.9624 95.4181 99.1348 95.7813 99.1269 96.1636C98.9938 99.8399 98.6011 106.212 98.586 110.84C98.6063 111.354 98.3093 111.828 97.8372 112.033C97.3658 112.239 96.8163 112.134 96.4538 111.769C94.9398 109.908 93.1511 107.758 92.0496 107.169L92.0431 107.182C90.3803 110.611 89.4472 114.458 89.4472 118.521C89.4472 132.891 101.114 144.558 115.485 144.558C129.855 144.558 141.522 132.891 141.522 118.521C141.522 104.15 129.855 92.4833 115.485 92.4833C112.269 92.4302 112.633 89.043 115.485 89.043Z" fill="url(#paint2_linear_2974_421969)"/>
<path fill-rule="evenodd" clip-rule="evenodd" d="M116.245 137.756C116.205 137.366 115.877 137.07 115.486 137.07C115.485 137.07 115.485 137.07 115.484 137.07C115.092 137.07 114.764 137.366 114.724 137.756C114.634 138.628 114.476 140.149 114.364 141.227C114.332 141.544 114.435 141.86 114.648 142.097C114.861 142.333 115.165 142.468 115.484 142.468C115.484 142.468 115.485 142.468 115.486 142.468C115.804 142.468 116.108 142.333 116.322 142.097C116.535 141.86 116.638 141.544 116.605 141.227C116.493 140.149 116.336 138.628 116.245 137.756Z" fill="url(#paint3_linear_2974_421969)"/>
<path fill-rule="evenodd" clip-rule="evenodd" d="M116.245 99.2905C116.205 99.6806 115.877 99.9763 115.486 99.9763C115.485 99.9763 115.485 99.9763 115.484 99.9763C115.092 99.9763 114.764 99.6806 114.724 99.2905C114.634 98.4191 114.476 96.8972 114.364 95.8193C114.332 95.5026 114.435 95.1866 114.648 94.9499C114.861 94.7132 115.165 94.5781 115.484 94.5781C115.484 94.5781 115.485 94.5781 115.486 94.5781C115.804 94.5781 116.108 94.7132 116.322 94.9499C116.535 95.1866 116.638 95.5026 116.605 95.8193C116.493 96.8972 116.336 98.4191 116.245 99.2905Z" fill="url(#paint4_linear_2974_421969)"/>
<path fill-rule="evenodd" clip-rule="evenodd" d="M96.2514 119.282C96.6415 119.241 96.9372 118.912 96.9372 118.521C96.9372 118.52 96.9372 118.52 96.9372 118.52C96.9372 118.128 96.6415 117.8 96.2514 117.759C95.3793 117.669 93.8582 117.512 92.7803 117.401C92.4636 117.368 92.1475 117.471 91.9108 117.684C91.6741 117.898 91.5391 118.201 91.5391 118.52C91.5391 118.52 91.5391 118.521 91.5391 118.522C91.5391 118.84 91.6741 119.144 91.9108 119.357C92.1475 119.57 92.4636 119.674 92.7803 119.641C93.8582 119.529 95.3793 119.371 96.2514 119.282Z" fill="url(#paint5_linear_2974_421969)"/>
<path fill-rule="evenodd" clip-rule="evenodd" d="M134.717 119.282C134.328 119.241 134.031 118.912 134.031 118.521C134.031 118.52 134.031 118.52 134.031 118.52C134.031 118.128 134.328 117.8 134.717 117.759C135.589 117.669 137.111 117.512 138.189 117.401C138.506 117.368 138.822 117.471 139.058 117.684C139.294 117.898 139.429 118.201 139.429 118.52C139.429 118.52 139.429 118.521 139.429 118.522C139.429 118.84 139.294 119.144 139.058 119.357C138.822 119.57 138.506 119.674 138.189 119.641C137.111 119.529 135.589 119.371 134.717 119.282Z" fill="url(#paint6_linear_2974_421969)"/>
<path fill-rule="evenodd" clip-rule="evenodd" d="M147.049 12.5845C147.049 10.0523 144.996 8 142.464 8C121.464 8 34.585 8 13.5845 8C11.0523 8 9 10.0523 9 12.5845C9 15 9 17.4666 9 17.4666H147.049V12.5845Z" fill="url(#paint7_linear_2974_421969)"/>
<path fill-rule="evenodd" clip-rule="evenodd" d="M71.1008 38.4878C71.1008 38.0675 70.9336 37.6642 70.6366 37.3665C70.3389 37.0695 69.9357 36.9023 69.5154 36.9023C61.7417 36.9023 27.711 36.9023 19.9373 36.9023C19.517 36.9023 19.1138 37.0695 18.8168 37.3665C18.5191 37.6642 18.3525 38.0675 18.3525 38.4878C18.3525 44.5895 18.3525 66.5781 18.3525 73.7781C18.3525 75.0488 19.3819 76.0782 20.6526 76.0782C29.24 76.0782 58.9341 76.0782 58.9341 76.0782C65.6266 75.0501 69.6819 71.9822 71.1008 66.8758V38.4878Z" fill="url(#paint8_linear_2974_421969)"/>
<path fill-rule="evenodd" clip-rule="evenodd" d="M71.1012 66.875C69.6699 72.0751 65.5588 75.0971 58.9346 76.0774C58.9346 76.0774 61.5743 73.1662 62.8798 68.9076C63.1892 67.8506 64.1465 67.115 65.2474 67.0887C67.0826 67.014 69.0306 66.953 71.1012 66.875Z" fill="url(#paint9_linear_2974_421969)"/>
<path fill-rule="evenodd" clip-rule="evenodd" d="M48.7428 42.8005C48.7428 42.3232 48.5533 41.8648 48.2156 41.5272C47.878 41.1895 47.4197 41 46.9423 41H23.9138C23.4364 41 22.9781 41.1895 22.6405 41.5272C22.3028 41.8648 22.1133 42.3232 22.1133 42.8005C22.1133 42.8011 22.1133 42.8018 22.1133 42.8024C22.1133 43.2798 22.3028 43.7381 22.6405 44.0757C22.9781 44.4134 23.4364 44.6029 23.9138 44.6029H46.9423C47.4197 44.6029 47.878 44.4134 48.2156 44.0757C48.5533 43.7381 48.7428 43.2798 48.7428 42.8024V42.8005Z" fill="url(#paint10_linear_2974_421969)"/>
<path fill-rule="evenodd" clip-rule="evenodd" d="M52.2906 50.5274C52.2906 49.9085 51.7891 49.4062 51.1695 49.4062C47.2348 49.4062 34.0813 49.4062 30.1466 49.4062C29.5277 49.4062 29.0254 49.9085 29.0254 50.5274C29.0254 50.5288 29.0254 50.5294 29.0254 50.5301C29.0254 51.1497 29.5277 51.6513 30.1466 51.6513C34.0813 51.6513 47.2348 51.6513 51.1695 51.6513C51.7891 51.6513 52.2906 51.1497 52.2906 50.5301C52.2906 50.5294 52.2906 50.5288 52.2906 50.5274Z" fill="url(#paint11_linear_2974_421969)"/>
<path fill-rule="evenodd" clip-rule="evenodd" d="M43.4207 54.7736C43.4207 54.1546 42.9185 53.6523 42.2995 53.6523C39.6132 53.6523 32.8329 53.6523 30.1466 53.6523C29.5277 53.6523 29.0254 54.1546 29.0254 54.7736C29.0254 54.7749 29.0254 54.7755 29.0254 54.7762C29.0254 55.3958 29.5277 55.8974 30.1466 55.8974C32.8329 55.8974 39.6132 55.8974 42.2995 55.8974C42.9185 55.8974 43.4207 55.3958 43.4207 54.7762C43.4207 54.7755 43.4207 54.7749 43.4207 54.7736Z" fill="url(#paint12_linear_2974_421969)"/>
<path fill-rule="evenodd" clip-rule="evenodd" d="M59.4965 59.0196C59.4965 58.4007 58.9949 57.8984 58.3753 57.8984C53.5935 57.8984 34.9291 57.8984 30.1466 57.8984C29.5277 57.8984 29.0254 58.4007 29.0254 59.0196C29.0254 59.0209 29.0254 59.0216 29.0254 59.0223C29.0254 59.6419 29.5277 60.1435 30.1466 60.1435C34.9291 60.1435 53.5935 60.1435 58.3753 60.1435C58.9949 60.1435 59.4965 59.6419 59.4965 59.0223C59.4965 59.0216 59.4965 59.0209 59.4965 59.0196Z" fill="url(#paint13_linear_2974_421969)"/>
<path d="M26.2544 51.6513C26.8743 51.6513 27.3769 51.1487 27.3769 50.5288C27.3769 49.9088 26.8743 49.4062 26.2544 49.4062C25.6344 49.4062 25.1318 49.9088 25.1318 50.5288C25.1318 51.1487 25.6344 51.6513 26.2544 51.6513Z" fill="#93ABFC"/>
<path d="M26.2544 55.8974C26.8743 55.8974 27.3769 55.3948 27.3769 54.7749C27.3769 54.1549 26.8743 53.6523 26.2544 53.6523C25.6344 53.6523 25.1318 54.1549 25.1318 54.7749C25.1318 55.3948 25.6344 55.8974 26.2544 55.8974Z" fill="#93ABFC"/>
<path d="M26.2544 60.1435C26.8743 60.1435 27.3769 59.6409 27.3769 59.021C27.3769 58.401 26.8743 57.8984 26.2544 57.8984C25.6344 57.8984 25.1318 58.401 25.1318 59.021C25.1318 59.6409 25.6344 60.1435 26.2544 60.1435Z" fill="#93ABFC"/>
<path d="M35.3127 71.4751C37.0371 71.4751 38.4351 70.0772 38.4351 68.3528C38.4351 66.6284 37.0371 65.2305 35.3127 65.2305C33.5883 65.2305 32.1904 66.6284 32.1904 68.3528C32.1904 70.0772 33.5883 71.4751 35.3127 71.4751Z" fill="url(#paint14_linear_2974_421969)"/>
<path fill-rule="evenodd" clip-rule="evenodd" d="M35.3125 64.9023C33.4077 64.9023 31.8623 66.4484 31.8623 68.3525C31.8623 70.2572 33.4077 71.8026 35.3125 71.8026C37.2165 71.8026 38.7626 70.2572 38.7626 68.3525C38.7626 66.4484 37.2165 64.9023 35.3125 64.9023ZM35.3125 65.558C36.8546 65.558 38.1069 66.8103 38.1069 68.3525C38.1069 69.8953 36.8546 71.147 35.3125 71.147C33.7697 71.147 32.518 69.8953 32.518 68.3525C32.518 66.8103 33.7697 65.558 35.3125 65.558Z" fill="#F0F4FE"/>
<path d="M30.7834 71.4751C32.5079 71.4751 33.9058 70.0772 33.9058 68.3528C33.9058 66.6284 32.5079 65.2305 30.7834 65.2305C29.059 65.2305 27.6611 66.6284 27.6611 68.3528C27.6611 70.0772 29.059 71.4751 30.7834 71.4751Z" fill="#A3B8FF"/>
<path fill-rule="evenodd" clip-rule="evenodd" d="M30.7832 64.9023C28.8791 64.9023 27.333 66.4484 27.333 68.3525C27.333 70.2572 28.8791 71.8026 30.7832 71.8026C32.6872 71.8026 34.2333 70.2572 34.2333 68.3525C34.2333 66.4484 32.6872 64.9023 30.7832 64.9023ZM30.7832 65.558C32.3253 65.558 33.5777 66.8103 33.5777 68.3525C33.5777 69.8953 32.3253 71.147 30.7832 71.147C29.2404 71.147 27.9887 69.8953 27.9887 68.3525C27.9887 66.8103 29.2404 65.558 30.7832 65.558Z" fill="#F0F4FE"/>
<path d="M26.2551 71.4751C27.9795 71.4751 29.3774 70.0772 29.3774 68.3528C29.3774 66.6284 27.9795 65.2305 26.2551 65.2305C24.5307 65.2305 23.1328 66.6284 23.1328 68.3528C23.1328 70.0772 24.5307 71.4751 26.2551 71.4751Z" fill="url(#paint15_linear_2974_421969)"/>
<path fill-rule="evenodd" clip-rule="evenodd" d="M26.2548 64.9023C24.3508 64.9023 22.8047 66.4484 22.8047 68.3525C22.8047 70.2572 24.3508 71.8026 26.2548 71.8026C28.1589 71.8026 29.705 70.2572 29.705 68.3525C29.705 66.4484 28.1589 64.9023 26.2548 64.9023ZM26.2548 65.558C27.797 65.558 29.0493 66.8103 29.0493 68.3525C29.0493 69.8953 27.797 71.147 26.2548 71.147C24.7127 71.147 23.4604 69.8953 23.4604 68.3525C23.4604 66.8103 24.7127 65.558 26.2548 65.558Z" fill="#F0F4FE"/>
<path fill-rule="evenodd" clip-rule="evenodd" d="M71.1008 83.1551C71.1008 82.7348 70.9336 82.3316 70.6366 82.0345C70.3389 81.7375 69.9357 81.5703 69.5154 81.5703C61.7417 81.5703 27.711 81.5703 19.9373 81.5703C19.517 81.5703 19.1138 81.7375 18.8168 82.0345C18.5191 82.3316 18.3525 82.7348 18.3525 83.1551C18.3525 89.2574 18.3525 111.246 18.3525 118.446C18.3525 119.716 19.3819 120.746 20.6526 120.746C29.24 120.746 58.9341 120.746 58.9341 120.746C65.6266 119.717 69.6819 116.65 71.1008 111.543V83.1551Z" fill="url(#paint16_linear_2974_421969)"/>
<path fill-rule="evenodd" clip-rule="evenodd" d="M71.1012 111.543C69.6699 116.743 65.5588 119.765 58.9346 120.746C58.9346 120.746 61.5743 117.834 62.8798 113.576C63.1892 112.519 64.1465 111.783 65.2474 111.757C67.0826 111.682 69.0306 111.622 71.1012 111.543Z" fill="url(#paint17_linear_2974_421969)"/>
<path fill-rule="evenodd" clip-rule="evenodd" d="M48.7428 87.4691C48.7428 86.9911 48.5533 86.5335 48.2156 86.1958C47.878 85.8581 47.4197 85.668 46.9423 85.668H23.9138C23.4364 85.668 22.9781 85.8581 22.6405 86.1958C22.3028 86.5335 22.1133 86.9911 22.1133 87.4691C22.1133 87.4697 22.1133 87.4704 22.1133 87.4704C22.1133 87.9484 22.3028 88.406 22.6405 88.7437C22.9781 89.082 23.4364 89.2716 23.9138 89.2716H46.9423C47.4197 89.2716 47.878 89.082 48.2156 88.7437C48.5533 88.406 48.7428 87.9484 48.7428 87.4704V87.4691Z" fill="url(#paint18_linear_2974_421969)"/>
<path fill-rule="evenodd" clip-rule="evenodd" d="M52.2906 95.1954C52.2906 94.5758 51.7891 94.0742 51.1695 94.0742C47.2348 94.0742 34.0813 94.0742 30.1466 94.0742C29.5277 94.0742 29.0254 94.5758 29.0254 95.1954C29.0254 95.1961 29.0254 95.1967 29.0254 95.198C29.0254 95.817 29.5277 96.3192 30.1466 96.3192C34.0813 96.3192 47.2348 96.3192 51.1695 96.3192C51.7891 96.3192 52.2906 95.817 52.2906 95.198C52.2906 95.1967 52.2906 95.1961 52.2906 95.1954Z" fill="url(#paint19_linear_2974_421969)"/>
<path fill-rule="evenodd" clip-rule="evenodd" d="M43.4207 99.4415C43.4207 98.8226 42.9185 98.3203 42.2995 98.3203C39.6132 98.3203 32.8329 98.3203 30.1466 98.3203C29.5277 98.3203 29.0254 98.8226 29.0254 99.4415C29.0254 99.4422 29.0254 99.4435 29.0254 99.4441C29.0254 100.063 29.5277 100.565 30.1466 100.565C32.8329 100.565 39.6132 100.565 42.2995 100.565C42.9185 100.565 43.4207 100.063 43.4207 99.4441C43.4207 99.4435 43.4207 99.4422 43.4207 99.4415Z" fill="url(#paint20_linear_2974_421969)"/>
<path fill-rule="evenodd" clip-rule="evenodd" d="M59.4965 103.688C59.4965 103.069 58.9949 102.566 58.3753 102.566C53.5935 102.566 34.9291 102.566 30.1466 102.566C29.5277 102.566 29.0254 103.069 29.0254 103.688C29.0254 103.688 29.0254 103.69 29.0254 103.69C29.0254 104.309 29.5277 104.811 30.1466 104.811C34.9291 104.811 53.5935 104.811 58.3753 104.811C58.9949 104.811 59.4965 104.309 59.4965 103.69C59.4965 103.69 59.4965 103.688 59.4965 103.688Z" fill="url(#paint21_linear_2974_421969)"/>
<path d="M26.2544 96.3192C26.8743 96.3192 27.3769 95.8167 27.3769 95.1967C27.3769 94.5768 26.8743 94.0742 26.2544 94.0742C25.6344 94.0742 25.1318 94.5768 25.1318 95.1967C25.1318 95.8167 25.6344 96.3192 26.2544 96.3192Z" fill="#93ABFC"/>
<path d="M26.2544 100.565C26.8743 100.565 27.3769 100.063 27.3769 99.4428C27.3769 98.8229 26.8743 98.3203 26.2544 98.3203C25.6344 98.3203 25.1318 98.8229 25.1318 99.4428C25.1318 100.063 25.6344 100.565 26.2544 100.565Z" fill="#93ABFC"/>
<path d="M26.2544 104.811C26.8743 104.811 27.3769 104.309 27.3769 103.689C27.3769 103.069 26.8743 102.566 26.2544 102.566C25.6344 102.566 25.1318 103.069 25.1318 103.689C25.1318 104.309 25.6344 104.811 26.2544 104.811Z" fill="#93ABFC"/>
<path d="M35.3127 116.143C37.0371 116.143 38.4351 114.745 38.4351 113.021C38.4351 111.296 37.0371 109.898 35.3127 109.898C33.5883 109.898 32.1904 111.296 32.1904 113.021C32.1904 114.745 33.5883 116.143 35.3127 116.143Z" fill="url(#paint22_linear_2974_421969)"/>
<path fill-rule="evenodd" clip-rule="evenodd" d="M35.3125 109.57C33.4077 109.57 31.8623 111.116 31.8623 113.02C31.8623 114.925 33.4077 116.471 35.3125 116.471C37.2165 116.471 38.7626 114.925 38.7626 113.02C38.7626 111.116 37.2165 109.57 35.3125 109.57ZM35.3125 110.226C36.8546 110.226 38.1069 111.478 38.1069 113.02C38.1069 114.563 36.8546 115.815 35.3125 115.815C33.7697 115.815 32.518 114.563 32.518 113.02C32.518 111.478 33.7697 110.226 35.3125 110.226Z" fill="#F0F4FE"/>
<path d="M30.7834 116.143C32.5079 116.143 33.9058 114.745 33.9058 113.021C33.9058 111.296 32.5079 109.898 30.7834 109.898C29.059 109.898 27.6611 111.296 27.6611 113.021C27.6611 114.745 29.059 116.143 30.7834 116.143Z" fill="#A3B8FF"/>
<path fill-rule="evenodd" clip-rule="evenodd" d="M30.7832 109.57C28.8791 109.57 27.333 111.116 27.333 113.02C27.333 114.925 28.8791 116.471 30.7832 116.471C32.6872 116.471 34.2333 114.925 34.2333 113.02C34.2333 111.116 32.6872 109.57 30.7832 109.57ZM30.7832 110.226C32.3253 110.226 33.5777 111.478 33.5777 113.02C33.5777 114.563 32.3253 115.815 30.7832 115.815C29.2404 115.815 27.9887 114.563 27.9887 113.02C27.9887 111.478 29.2404 110.226 30.7832 110.226Z" fill="#F0F4FE"/>
<path d="M26.2551 116.143C27.9795 116.143 29.3774 114.745 29.3774 113.021C29.3774 111.296 27.9795 109.898 26.2551 109.898C24.5307 109.898 23.1328 111.296 23.1328 113.021C23.1328 114.745 24.5307 116.143 26.2551 116.143Z" fill="url(#paint23_linear_2974_421969)"/>
<path fill-rule="evenodd" clip-rule="evenodd" d="M26.2548 109.57C24.3508 109.57 22.8047 111.116 22.8047 113.02C22.8047 114.925 24.3508 116.471 26.2548 116.471C28.1589 116.471 29.705 114.925 29.705 113.02C29.705 111.116 28.1589 109.57 26.2548 109.57ZM26.2548 110.226C27.797 110.226 29.0493 111.478 29.0493 113.02C29.0493 114.563 27.797 115.815 26.2548 115.815C24.7127 115.815 23.4604 114.563 23.4604 113.02C23.4604 111.478 24.7127 110.226 26.2548 110.226Z" fill="#F0F4FE"/>
<path fill-rule="evenodd" clip-rule="evenodd" d="M135.084 38.4878C135.084 38.0675 134.918 37.6642 134.62 37.3665C134.323 37.0695 133.92 36.9023 133.499 36.9023C125.726 36.9023 91.6944 36.9023 83.9214 36.9023C83.5004 36.9023 83.0972 37.0695 82.8002 37.3665C82.5031 37.6642 82.3359 38.0675 82.3359 38.4878C82.3359 44.5895 82.3359 66.5781 82.3359 73.7781C82.3359 75.0488 83.366 76.0782 84.6361 76.0782C93.2234 76.0782 122.918 76.0782 122.918 76.0782C129.61 75.0501 133.666 71.9822 135.084 66.8758V38.4878Z" fill="url(#paint24_linear_2974_421969)"/>
<path fill-rule="evenodd" clip-rule="evenodd" d="M135.085 66.875C133.653 72.0751 129.542 75.0971 122.918 76.0774C122.918 76.0774 125.558 73.1662 126.864 68.9076C127.173 67.8506 128.13 67.115 129.231 67.0887C131.067 67.014 133.014 66.953 135.085 66.875Z" fill="url(#paint25_linear_2974_421969)"/>
<path fill-rule="evenodd" clip-rule="evenodd" d="M112.727 42.8005C112.727 42.3232 112.537 41.8648 112.199 41.5272C111.861 41.1895 111.404 41 110.926 41H87.8972C87.4198 41 86.9615 41.1895 86.6238 41.5272C86.2862 41.8648 86.0967 42.3232 86.0967 42.8005C86.0967 42.8011 86.0967 42.8018 86.0967 42.8024C86.0967 43.2798 86.2862 43.7381 86.6238 44.0757C86.9615 44.4134 87.4198 44.6029 87.8972 44.6029H110.926C111.404 44.6029 111.861 44.4134 112.199 44.0757C112.537 43.7381 112.727 43.2798 112.727 42.8024V42.8005Z" fill="url(#paint26_linear_2974_421969)"/>
<path fill-rule="evenodd" clip-rule="evenodd" d="M116.275 50.5274C116.275 49.9085 115.773 49.4062 115.154 49.4062C111.219 49.4062 98.0657 49.4062 94.131 49.4062C93.5114 49.4062 93.0098 49.9085 93.0098 50.5274C93.0098 50.5288 93.0098 50.5294 93.0098 50.5301C93.0098 51.1497 93.5114 51.6513 94.131 51.6513C98.0657 51.6513 111.219 51.6513 115.154 51.6513C115.773 51.6513 116.275 51.1497 116.275 50.5301C116.275 50.5294 116.275 50.5288 116.275 50.5274Z" fill="url(#paint27_linear_2974_421969)"/>
<path fill-rule="evenodd" clip-rule="evenodd" d="M107.404 54.7736C107.404 54.1546 106.903 53.6523 106.283 53.6523C103.597 53.6523 96.8173 53.6523 94.131 53.6523C93.5114 53.6523 93.0098 54.1546 93.0098 54.7736C93.0098 54.7749 93.0098 54.7755 93.0098 54.7762C93.0098 55.3958 93.5114 55.8974 94.131 55.8974C96.8173 55.8974 103.597 55.8974 106.283 55.8974C106.903 55.8974 107.404 55.3958 107.404 54.7762C107.404 54.7755 107.404 54.7749 107.404 54.7736Z" fill="url(#paint28_linear_2974_421969)"/>
<path fill-rule="evenodd" clip-rule="evenodd" d="M123.481 59.0196C123.481 58.4007 122.979 57.8984 122.36 57.8984C117.577 57.8984 98.9128 57.8984 94.131 57.8984C93.5114 57.8984 93.0098 58.4007 93.0098 59.0196C93.0098 59.0209 93.0098 59.0216 93.0098 59.0223C93.0098 59.6419 93.5114 60.1435 94.131 60.1435C98.9128 60.1435 117.577 60.1435 122.36 60.1435C122.979 60.1435 123.481 59.6419 123.481 59.0223C123.481 59.0216 123.481 59.0209 123.481 59.0196Z" fill="url(#paint29_linear_2974_421969)"/>
<path d="M90.2377 51.6513C90.8577 51.6513 91.3602 51.1487 91.3602 50.5288C91.3602 49.9088 90.8577 49.4062 90.2377 49.4062C89.6178 49.4062 89.1152 49.9088 89.1152 50.5288C89.1152 51.1487 89.6178 51.6513 90.2377 51.6513Z" fill="#93ABFC"/>
<path d="M90.2377 55.8974C90.8577 55.8974 91.3602 55.3948 91.3602 54.7749C91.3602 54.1549 90.8577 53.6523 90.2377 53.6523C89.6178 53.6523 89.1152 54.1549 89.1152 54.7749C89.1152 55.3948 89.6178 55.8974 90.2377 55.8974Z" fill="#93ABFC"/>
<path d="M90.2377 60.1435C90.8577 60.1435 91.3602 59.6409 91.3602 59.021C91.3602 58.401 90.8577 57.8984 90.2377 57.8984C89.6178 57.8984 89.1152 58.401 89.1152 59.021C89.1152 59.6409 89.6178 60.1435 90.2377 60.1435Z" fill="#93ABFC"/>
<path d="M99.2952 71.4751C101.02 71.4751 102.417 70.0772 102.417 68.3528C102.417 66.6284 101.02 65.2305 99.2952 65.2305C97.5708 65.2305 96.1729 66.6284 96.1729 68.3528C96.1729 70.0772 97.5708 71.4751 99.2952 71.4751Z" fill="url(#paint30_linear_2974_421969)"/>
<path fill-rule="evenodd" clip-rule="evenodd" d="M99.2959 64.9023C97.3918 64.9023 95.8457 66.4484 95.8457 68.3525C95.8457 70.2572 97.3918 71.8026 99.2959 71.8026C101.2 71.8026 102.746 70.2572 102.746 68.3525C102.746 66.4484 101.2 64.9023 99.2959 64.9023ZM99.2959 65.558C100.838 65.558 102.09 66.8103 102.09 68.3525C102.09 69.8953 100.838 71.147 99.2959 71.147C97.7537 71.147 96.5014 69.8953 96.5014 68.3525C96.5014 66.8103 97.7537 65.558 99.2959 65.558Z" fill="#F0F4FE"/>
<path d="M94.7668 71.4751C96.4913 71.4751 97.8892 70.0772 97.8892 68.3528C97.8892 66.6284 96.4913 65.2305 94.7668 65.2305C93.0424 65.2305 91.6445 66.6284 91.6445 68.3528C91.6445 70.0772 93.0424 71.4751 94.7668 71.4751Z" fill="#A3B8FF"/>
<path fill-rule="evenodd" clip-rule="evenodd" d="M94.7666 64.9023C92.8625 64.9023 91.3164 66.4484 91.3164 68.3525C91.3164 70.2572 92.8625 71.8026 94.7666 71.8026C96.6706 71.8026 98.2167 70.2572 98.2167 68.3525C98.2167 66.4484 96.6706 64.9023 94.7666 64.9023ZM94.7666 65.558C96.3087 65.558 97.561 66.8103 97.561 68.3525C97.561 69.8953 96.3087 71.147 94.7666 71.147C93.2244 71.147 91.9721 69.8953 91.9721 68.3525C91.9721 66.8103 93.2244 65.558 94.7666 65.558Z" fill="#F0F4FE"/>
<path d="M90.2385 71.4751C91.9629 71.4751 93.3609 70.0772 93.3609 68.3528C93.3609 66.6284 91.9629 65.2305 90.2385 65.2305C88.5141 65.2305 87.1162 66.6284 87.1162 68.3528C87.1162 70.0772 88.5141 71.4751 90.2385 71.4751Z" fill="url(#paint31_linear_2974_421969)"/>
<path fill-rule="evenodd" clip-rule="evenodd" d="M90.2382 64.9023C88.3342 64.9023 86.7881 66.4484 86.7881 68.3525C86.7881 70.2572 88.3342 71.8026 90.2382 71.8026C92.143 71.8026 93.6884 70.2572 93.6884 68.3525C93.6884 66.4484 92.143 64.9023 90.2382 64.9023ZM90.2382 65.558C91.781 65.558 93.0327 66.8103 93.0327 68.3525C93.0327 69.8953 91.781 71.147 90.2382 71.147C88.6961 71.147 87.4438 69.8953 87.4438 68.3525C87.4438 66.8103 88.6961 65.558 90.2382 65.558Z" fill="#F0F4FE"/>
<path fill-rule="evenodd" clip-rule="evenodd" d="M71.1008 29.8602C71.1008 29.171 70.8267 28.5101 70.3396 28.0223C69.8524 27.5351 69.1915 27.2617 68.5024 27.2617C59.5314 27.2617 29.9212 27.2617 20.951 27.2617C20.2619 27.2617 19.6009 27.5351 19.1131 28.0223C18.626 28.5101 18.3525 29.171 18.3525 29.8602C18.3525 29.9349 18.3525 30.0103 18.3525 30.0857C18.3525 30.7748 18.626 31.4357 19.1131 31.9229C19.6009 32.4101 20.2619 32.6841 20.951 32.6841C29.9212 32.6841 59.5314 32.6841 68.5024 32.6841C69.1915 32.6841 69.8524 32.4101 70.3396 31.9229C70.8267 31.4357 71.1008 30.7748 71.1008 30.0857C71.1008 30.0103 71.1008 29.9349 71.1008 29.8602Z" fill="url(#paint32_linear_2974_421969)"/>
<path fill-rule="evenodd" clip-rule="evenodd" d="M135.084 29.8602C135.084 29.171 134.811 28.5101 134.323 28.0223C133.836 27.5351 133.175 27.2617 132.486 27.2617C123.515 27.2617 93.9053 27.2617 84.9344 27.2617C84.2453 27.2617 83.5843 27.5351 83.0972 28.0223C82.61 28.5101 82.3359 29.171 82.3359 29.8602C82.3359 29.9349 82.3359 30.0103 82.3359 30.0857C82.3359 30.7748 82.61 31.4357 83.0972 31.9229C83.5843 32.4101 84.2453 32.6841 84.9344 32.6841C93.9053 32.6841 123.515 32.6841 132.486 32.6841C133.175 32.6841 133.836 32.4101 134.323 31.9229C134.811 31.4357 135.084 30.7748 135.084 30.0857C135.084 30.0103 135.084 29.9349 135.084 29.8602Z" fill="url(#paint33_linear_2974_421969)"/>
<path fill-rule="evenodd" clip-rule="evenodd" d="M55.2508 14.0446H60.4706C61.1938 14.0446 61.782 13.4564 61.782 12.7332C61.782 12.0094 61.1938 11.4219 60.4706 11.4219H55.2508C54.5269 11.4219 53.9395 12.0094 53.9395 12.7332C53.9395 13.4564 54.5269 14.0446 55.2508 14.0446Z" fill="#94ACFC"/>
<path fill-rule="evenodd" clip-rule="evenodd" d="M95.5789 14.0446H100.799C101.522 14.0446 102.11 13.4564 102.11 12.7332C102.11 12.0094 101.522 11.4219 100.799 11.4219H95.5789C94.8551 11.4219 94.2676 12.0094 94.2676 12.7332C94.2676 13.4564 94.8551 14.0446 95.5789 14.0446Z" fill="#94ACFC"/>
<path fill-rule="evenodd" clip-rule="evenodd" d="M65.2108 14.0446H90.8377C91.5616 14.0446 92.1491 13.4564 92.1491 12.7332C92.1491 12.0094 91.5616 11.4219 90.8377 11.4219H65.2108C64.4869 11.4219 63.8994 12.0094 63.8994 12.7332C63.8994 13.4564 64.4869 14.0446 65.2108 14.0446Z" fill="#94ACFC"/>
<defs>
<filter id="filter0_f_2974_421969" x="70.0172" y="77.3287" width="85.8709" height="67.6668" filterUnits="userSpaceOnUse" color-interpolation-filters="sRGB">
<feFlood flood-opacity="0" result="BackgroundImageFix"/>
<feBlend mode="normal" in="SourceGraphic" in2="BackgroundImageFix" result="shape"/>
<feGaussianBlur stdDeviation="5.85714" result="effect1_foregroundBlur_2974_421969"/>
</filter>
<linearGradient id="paint0_linear_2974_421969" x1="9" y1="8" x2="154.37" y2="125.429" gradientUnits="userSpaceOnUse">
<stop stop-color="#DCE4FF"/>
<stop offset="0.54" stop-color="#C9D6FF"/>
<stop offset="1" stop-color="#C2D0FF"/>
</linearGradient>
<linearGradient id="paint1_linear_2974_421969" x1="99.2884" y1="90.4929" x2="131.937" y2="148.079" gradientUnits="userSpaceOnUse">
<stop stop-color="white"/>
<stop offset="1" stop-color="#C6D2FB"/>
</linearGradient>
<linearGradient id="paint2_linear_2974_421969" x1="85.8378" y1="89.043" x2="131.014" y2="133.146" gradientUnits="userSpaceOnUse">
<stop stop-color="#A5B9FD"/>
<stop offset="1" stop-color="#87A2FB"/>
</linearGradient>
<linearGradient id="paint3_linear_2974_421969" x1="113.804" y1="134.848" x2="119.307" y2="138.621" gradientUnits="userSpaceOnUse">
<stop stop-color="#D8E0FE"/>
<stop offset="1" stop-color="#B1C1FA"/>
</linearGradient>
<linearGradient id="paint4_linear_2974_421969" x1="114.123" y1="94.7847" x2="118.055" y2="95.88" gradientUnits="userSpaceOnUse">
<stop stop-color="#D8E0FE"/>
<stop offset="1" stop-color="#B1C1FA"/>
</linearGradient>
<linearGradient id="paint5_linear_2974_421969" x1="93.0006" y1="116.456" x2="93.3604" y2="119.531" gradientUnits="userSpaceOnUse">
<stop stop-color="#D8E0FE"/>
<stop offset="1" stop-color="#B1C1FA"/>
</linearGradient>
<linearGradient id="paint6_linear_2974_421969" x1="134.078" y1="116.678" x2="134.836" y2="119.911" gradientUnits="userSpaceOnUse">
<stop stop-color="#D8E0FE"/>
<stop offset="1" stop-color="#B1C1FA"/>
</linearGradient>
<linearGradient id="paint7_linear_2974_421969" x1="5.62263" y1="8" x2="151.151" y2="12.1825" gradientUnits="userSpaceOnUse">
<stop stop-color="#F6F8FF"/>
<stop offset="1" stop-color="#E3E9FE"/>
</linearGradient>
<linearGradient id="paint8_linear_2974_421969" x1="23.6405" y1="35.2618" x2="66.0558" y2="85.2955" gradientUnits="userSpaceOnUse">
<stop stop-color="#F9FBFF"/>
<stop offset="1" stop-color="#E1E8FD"/>
</linearGradient>
<linearGradient id="paint9_linear_2974_421969" x1="63.3282" y1="67.1012" x2="66.6225" y2="73.3067" gradientUnits="userSpaceOnUse">
<stop stop-color="#CFDAFE"/>
<stop offset="1" stop-color="#B4C4FD"/>
</linearGradient>
<linearGradient id="paint10_linear_2974_421969" x1="22.1133" y1="41" x2="22.1452" y2="48.9589" gradientUnits="userSpaceOnUse">
<stop stop-color="#DCE4FF"/>
<stop offset="0.54" stop-color="#C1CFFF"/>
<stop offset="1" stop-color="#B7C7FF"/>
</linearGradient>
<linearGradient id="paint11_linear_2974_421969" x1="29.0254" y1="49.4062" x2="29.0327" y2="54.4334" gradientUnits="userSpaceOnUse">
<stop stop-color="#DCE4FF"/>
<stop offset="0.54" stop-color="#C9D6FF"/>
<stop offset="1" stop-color="#C2D0FF"/>
</linearGradient>
<linearGradient id="paint12_linear_2974_421969" x1="29.0254" y1="53.6523" x2="29.0556" y2="58.5669" gradientUnits="userSpaceOnUse">
<stop stop-color="#DCE4FF"/>
<stop offset="0.54" stop-color="#C9D6FF"/>
<stop offset="1" stop-color="#C2D0FF"/>
</linearGradient>
<linearGradient id="paint13_linear_2974_421969" x1="29.0254" y1="57.8984" x2="29.0287" y2="62.9564" gradientUnits="userSpaceOnUse">
<stop stop-color="#DCE4FF"/>
<stop offset="0.54" stop-color="#C9D6FF"/>
<stop offset="1" stop-color="#C2D0FF"/>
</linearGradient>
<linearGradient id="paint14_linear_2974_421969" x1="32.1904" y1="65.2305" x2="39.604" y2="69.8072" gradientUnits="userSpaceOnUse">
<stop stop-color="#DCE4FF"/>
<stop offset="0.54" stop-color="#C9D6FF"/>
<stop offset="1" stop-color="#C2D0FF"/>
</linearGradient>
<linearGradient id="paint15_linear_2974_421969" x1="23.1328" y1="65.2305" x2="30.5464" y2="69.8072" gradientUnits="userSpaceOnUse">
<stop stop-color="#DCE4FF"/>
<stop offset="0.54" stop-color="#C9D6FF"/>
<stop offset="1" stop-color="#C2D0FF"/>
</linearGradient>
<linearGradient id="paint16_linear_2974_421969" x1="23.6405" y1="79.9292" x2="66.0559" y2="129.963" gradientUnits="userSpaceOnUse">
<stop stop-color="#F9FBFF"/>
<stop offset="1" stop-color="#E1E8FD"/>
</linearGradient>
<linearGradient id="paint17_linear_2974_421969" x1="63.3282" y1="111.769" x2="66.6225" y2="117.975" gradientUnits="userSpaceOnUse">
<stop stop-color="#CFDAFE"/>
<stop offset="1" stop-color="#B4C4FD"/>
</linearGradient>
<linearGradient id="paint18_linear_2974_421969" x1="22.1133" y1="85.668" x2="22.1452" y2="93.6269" gradientUnits="userSpaceOnUse">
<stop stop-color="#DCE4FF"/>
<stop offset="0.54" stop-color="#C1CFFF"/>
<stop offset="1" stop-color="#B7C7FF"/>
</linearGradient>
<linearGradient id="paint19_linear_2974_421969" x1="29.0254" y1="94.0742" x2="29.0327" y2="99.1014" gradientUnits="userSpaceOnUse">
<stop stop-color="#DCE4FF"/>
<stop offset="0.54" stop-color="#C9D6FF"/>
<stop offset="1" stop-color="#C2D0FF"/>
</linearGradient>
<linearGradient id="paint20_linear_2974_421969" x1="29.0254" y1="98.3203" x2="29.0556" y2="103.235" gradientUnits="userSpaceOnUse">
<stop stop-color="#DCE4FF"/>
<stop offset="0.54" stop-color="#C9D6FF"/>
<stop offset="1" stop-color="#C2D0FF"/>
</linearGradient>
<linearGradient id="paint21_linear_2974_421969" x1="29.0254" y1="102.566" x2="29.0287" y2="107.624" gradientUnits="userSpaceOnUse">
<stop stop-color="#DCE4FF"/>
<stop offset="0.54" stop-color="#C9D6FF"/>
<stop offset="1" stop-color="#C2D0FF"/>
</linearGradient>
<linearGradient id="paint22_linear_2974_421969" x1="32.1904" y1="109.898" x2="39.604" y2="114.475" gradientUnits="userSpaceOnUse">
<stop stop-color="#DCE4FF"/>
<stop offset="0.54" stop-color="#C9D6FF"/>
<stop offset="1" stop-color="#C2D0FF"/>
</linearGradient>
<linearGradient id="paint23_linear_2974_421969" x1="23.1328" y1="109.898" x2="30.5464" y2="114.475" gradientUnits="userSpaceOnUse">
<stop stop-color="#DCE4FF"/>
<stop offset="0.54" stop-color="#C9D6FF"/>
<stop offset="1" stop-color="#C2D0FF"/>
</linearGradient>
<linearGradient id="paint24_linear_2974_421969" x1="87.6246" y1="35.2618" x2="130.04" y2="85.2955" gradientUnits="userSpaceOnUse">
<stop stop-color="#F9FBFF"/>
<stop offset="1" stop-color="#E1E8FD"/>
</linearGradient>
<linearGradient id="paint25_linear_2974_421969" x1="127.312" y1="67.1012" x2="130.606" y2="73.3067" gradientUnits="userSpaceOnUse">
<stop stop-color="#CFDAFE"/>
<stop offset="1" stop-color="#B4C4FD"/>
</linearGradient>
<linearGradient id="paint26_linear_2974_421969" x1="86.0967" y1="41" x2="86.1286" y2="48.9589" gradientUnits="userSpaceOnUse">
<stop stop-color="#DCE4FF"/>
<stop offset="0.54" stop-color="#C1CFFF"/>
<stop offset="1" stop-color="#B7C7FF"/>
</linearGradient>
<linearGradient id="paint27_linear_2974_421969" x1="93.0098" y1="49.4062" x2="93.0171" y2="54.4334" gradientUnits="userSpaceOnUse">
<stop stop-color="#DCE4FF"/>
<stop offset="0.54" stop-color="#C9D6FF"/>
<stop offset="1" stop-color="#C2D0FF"/>
</linearGradient>
<linearGradient id="paint28_linear_2974_421969" x1="93.0098" y1="53.6523" x2="93.04" y2="58.5669" gradientUnits="userSpaceOnUse">
<stop stop-color="#DCE4FF"/>
<stop offset="0.54" stop-color="#C9D6FF"/>
<stop offset="1" stop-color="#C2D0FF"/>
</linearGradient>
<linearGradient id="paint29_linear_2974_421969" x1="93.0098" y1="57.8984" x2="93.013" y2="62.9564" gradientUnits="userSpaceOnUse">
<stop stop-color="#DCE4FF"/>
<stop offset="0.54" stop-color="#C9D6FF"/>
<stop offset="1" stop-color="#C2D0FF"/>
</linearGradient>
<linearGradient id="paint30_linear_2974_421969" x1="96.1729" y1="65.2305" x2="103.586" y2="69.8072" gradientUnits="userSpaceOnUse">
<stop stop-color="#DCE4FF"/>
<stop offset="0.54" stop-color="#C9D6FF"/>
<stop offset="1" stop-color="#C2D0FF"/>
</linearGradient>
<linearGradient id="paint31_linear_2974_421969" x1="87.1162" y1="65.2305" x2="94.5298" y2="69.8072" gradientUnits="userSpaceOnUse">
<stop stop-color="#DCE4FF"/>
<stop offset="0.54" stop-color="#C9D6FF"/>
<stop offset="1" stop-color="#C2D0FF"/>
</linearGradient>
<linearGradient id="paint32_linear_2974_421969" x1="42.659" y1="26.7188" x2="42.7602" y2="33.2078" gradientUnits="userSpaceOnUse">
<stop stop-color="#A5B9FD"/>
<stop offset="1" stop-color="#87A2FB"/>
</linearGradient>
<linearGradient id="paint33_linear_2974_421969" x1="106.643" y1="26.7188" x2="106.744" y2="33.2078" gradientUnits="userSpaceOnUse">
<stop stop-color="#A5B9FD"/>
<stop offset="1" stop-color="#87A2FB"/>
</linearGradient>
</defs>
</svg>
