<?xml version="1.0" encoding="utf-8"?>
<!-- Generator: Adobe Illustrator 26.5.0, SVG Export Plug-In . SVG Version: 6.00 Build 0)  -->
<svg version="1.1" id="Layer_1" xmlns="http://www.w3.org/2000/svg" xmlns:xlink="http://www.w3.org/1999/xlink" x="0px" y="0px"
	 viewBox="0 0 84 61" style="enable-background:new 0 0 84 61;" xml:space="preserve">
<style type="text/css">
	.st0{clip-path:url(#SVGID_00000151509491061431054300000013928555823782763692_);}
	.st1{fill:#ECF1FF;}
	.st2{fill:#CFDDFF;}
	.st3{fill:#FFFFFF;}
	.st4{fill:#96ADFF;}
	.st5{fill:#767BFF;}
	.st6{fill:#B8CCFF;}
</style>
<g>
	<defs>
		<rect id="SVGID_1_" x="0.5" y="0.4" width="83" height="60.3"/>
	</defs>
	<clipPath id="SVGID_00000051350632911950785930000003005948998732194732_">
		<use xlink:href="#SVGID_1_"  style="overflow:visible;"/>
	</clipPath>
	<g style="clip-path:url(#SVGID_00000051350632911950785930000003005948998732194732_);">
		<path class="st1" d="M4.5,0.4h75.1c2.2,0,4,1.8,4,4v52.4c0,2.2-1.8,4-4,4H4.5c-2.2,0-4-1.8-4-4V4.3C0.5,2.1,2.3,0.4,4.5,0.4z"/>
		<path class="st2" d="M0.5,4.3c0-2.2,1.8-4,4-4h7.1v60.3H4.5c-2.2,0-4-1.8-4-4V4.3z"/>
		<g>
			<path class="st3" d="M23.2,5.8h48.6c1.1,0,2,0.9,2,2v44c0,1.1-0.9,2-2,2H23.2c-1.1,0-2-0.9-2-2v-44C21.2,6.7,22.1,5.8,23.2,5.8z"
				/>
		</g>
		<path class="st4" d="M21.2,7.8c0-1.1,0.9-2,2-2h48.6c1.1,0,2,0.9,2,2v4.9H21.2V7.8z"/>
		<path class="st1" d="M25,22.3h45.1c0.5,0,1,0.4,1,1v19.9c0,0.5-0.4,1-1,1H25c-0.5,0-1-0.4-1-1V23.3C24,22.7,24.5,22.3,25,22.3z"/>
		<path class="st1" d="M40.2,15.4h29.8c0.5,0,1,0.4,1,1v2.1c0,0.5-0.4,1-1,1H40.2c-0.5,0-1-0.4-1-1v-2.1
			C39.2,15.9,39.7,15.4,40.2,15.4z"/>
		<path class="st5" d="M59.6,46.9h10.5c0.5,0,1,0.4,1,1v2.1c0,0.5-0.4,1-1,1H59.6c-0.5,0-1-0.4-1-1v-2.1
			C58.6,47.4,59,46.9,59.6,46.9z"/>
		<path class="st6" d="M25,15.4h10.5c0.5,0,1,0.4,1,1v2.1c0,0.5-0.4,1-1,1H25c-0.5,0-1-0.4-1-1v-2.1C24,15.9,24.5,15.4,25,15.4z"/>
		<path class="st1" d="M25,46.9h29.8c0.5,0,1,0.4,1,1v2.1c0,0.5-0.4,1-1,1H25c-0.5,0-1-0.4-1-1v-2.1C24,47.4,24.5,46.9,25,46.9z"/>
	</g>
</g>
</svg>
