<svg width="156" height="156" viewBox="0 0 156 156" fill="none" xmlns="http://www.w3.org/2000/svg">
<path fill-rule="evenodd" clip-rule="evenodd" d="M101.219 11C127.038 11 147.999 26.6078 147.999 45.8327C147.999 72.5382 116.242 93.8752 90.4264 94.3042C86.9761 94.3618 95.9806 80.5018 93.4553 80.187C71.3256 77.4301 54.4385 63.0881 54.4385 45.8327C54.4385 26.6078 75.4 11 101.219 11Z" fill="url(#paint0_linear_1622_210989)"/>
<path d="M71.9833 49.1639C74.2572 49.1639 76.1005 47.3206 76.1005 45.0468C76.1005 42.773 74.2572 40.9297 71.9833 40.9297C69.7095 40.9297 67.8662 42.773 67.8662 45.0468C67.8662 47.3206 69.7095 49.1639 71.9833 49.1639Z" fill="url(#paint1_linear_1622_210989)"/>
<path d="M90.9579 49.1639C93.2318 49.1639 95.0751 47.3206 95.0751 45.0468C95.0751 42.773 93.2318 40.9297 90.9579 40.9297C88.6841 40.9297 86.8408 42.773 86.8408 45.0468C86.8408 47.3206 88.6841 49.1639 90.9579 49.1639Z" fill="url(#paint2_linear_1622_210989)"/>
<path d="M109.934 49.1639C112.207 49.1639 114.051 47.3206 114.051 45.0468C114.051 42.773 112.207 40.9297 109.934 40.9297C107.66 40.9297 105.816 42.773 105.816 45.0468C105.816 47.3206 107.66 49.1639 109.934 49.1639Z" fill="url(#paint3_linear_1622_210989)"/>
<path d="M128.908 49.1639C131.182 49.1639 133.025 47.3206 133.025 45.0468C133.025 42.773 131.182 40.9297 128.908 40.9297C126.634 40.9297 124.791 42.773 124.791 45.0468C124.791 47.3206 126.634 49.1639 128.908 49.1639Z" fill="url(#paint4_linear_1622_210989)"/>
<g filter="url(#filter0_f_1622_210989)">
<path fill-rule="evenodd" clip-rule="evenodd" d="M57.2543 53.7148C56.3289 67.1022 63.864 72.0346 75.6793 72.6897V60.9634C75.6793 56.9601 72.4341 53.7148 68.4303 53.7148H57.2543Z" fill="#869BDF"/>
</g>
<path fill-rule="evenodd" clip-rule="evenodd" d="M21.3465 103.47C21.3465 103.47 24.7266 108.782 27.34 112.89C27.9902 113.913 29.1175 114.531 30.3294 114.531C31.5408 114.531 32.6685 113.913 33.3187 112.89C35.9322 108.782 39.3123 103.47 39.3123 103.47H68.4303C70.353 103.47 72.1966 102.706 73.556 101.346C74.9158 99.987 75.6793 98.1434 75.6793 96.2206C75.6793 86.7871 75.6793 70.3974 75.6793 60.9634C75.6793 59.0411 74.9158 57.1975 73.556 55.8377C72.1966 54.4784 70.353 53.7148 68.4303 53.7148C55.4211 53.7148 28.2582 53.7148 15.249 53.7148C13.3263 53.7148 11.4826 54.4784 10.1233 55.8377C8.76353 57.1975 8 59.0411 8 60.9634C8 70.3974 8 86.7871 8 96.2206C8 98.1434 8.76353 99.987 10.1233 101.346C11.4826 102.706 13.3263 103.47 15.249 103.47C18.3827 103.47 21.3465 103.47 21.3465 103.47Z" fill="url(#paint5_linear_1622_210989)"/>
<path fill-rule="evenodd" clip-rule="evenodd" d="M20.9807 71.8404H62.7001C63.9411 71.8404 64.9484 70.8327 64.9484 69.5921C64.9484 68.351 63.9411 67.3438 62.7001 67.3438H20.9807C19.7397 67.3438 18.7324 68.351 18.7324 69.5921C18.7324 70.8327 19.7397 71.8404 20.9807 71.8404Z" fill="url(#paint6_linear_1622_210989)"/>
<path fill-rule="evenodd" clip-rule="evenodd" d="M20.9807 80.938H62.7001C63.9411 80.938 64.9484 79.9308 64.9484 78.6897C64.9484 77.4491 63.9411 76.4414 62.7001 76.4414H20.9807C19.7397 76.4414 18.7324 77.4491 18.7324 78.6897C18.7324 79.9308 19.7397 80.938 20.9807 80.938Z" fill="url(#paint7_linear_1622_210989)"/>
<path fill-rule="evenodd" clip-rule="evenodd" d="M20.9807 90.0357H40.0829C41.324 90.0357 42.3312 89.0285 42.3312 87.7874C42.3312 86.5468 41.324 85.5391 40.0829 85.5391H20.9807C19.7397 85.5391 18.7324 86.5468 18.7324 87.7874C18.7324 89.0285 19.7397 90.0357 20.9807 90.0357Z" fill="url(#paint8_linear_1622_210989)"/>
<g filter="url(#filter1_f_1622_210989)">
<path fill-rule="evenodd" clip-rule="evenodd" d="M71.0582 98.9453C83.8111 98.9453 50.4991 102.299 50.71 101.776C51.3804 100.116 53.0064 98.9453 54.9067 98.9453C59.5782 98.9453 66.7729 98.9453 71.0582 98.9453Z" fill="#8FA6F3"/>
</g>
<path fill-rule="evenodd" clip-rule="evenodd" d="M73.4897 98.9453C86.243 98.9453 96.597 109.299 96.597 122.052C96.597 134.806 86.243 145.159 73.4897 145.159C60.7368 145.159 50.3828 134.806 50.3828 122.052V103.658C50.3828 101.055 52.4931 98.9453 55.0957 98.9453C60.4625 98.9453 69.0582 98.9453 73.4897 98.9453Z" fill="url(#paint9_linear_1622_210989)"/>
<path d="M73.4894 137.34C81.9322 137.34 88.7766 130.496 88.7766 122.053C88.7766 113.61 81.9322 106.766 73.4894 106.766C65.0465 106.766 58.2021 113.61 58.2021 122.053C58.2021 130.496 65.0465 137.34 73.4894 137.34Z" fill="url(#paint10_linear_1622_210989)"/>
<path fill-rule="evenodd" clip-rule="evenodd" d="M71.3306 121.107C70.0522 120.362 69.192 118.977 69.192 117.391C69.192 115.02 71.1179 113.094 73.4894 113.094C75.8614 113.094 77.7873 115.02 77.7873 117.391C77.7873 118.977 76.9271 120.362 75.6483 121.107C78.5891 122.027 80.7254 124.773 80.7254 128.015C80.7254 132.008 66.2539 132.008 66.2539 128.015C66.2539 124.773 68.3898 122.027 71.3306 121.107Z" fill="url(#paint11_linear_1622_210989)"/>
<defs>
<filter id="filter0_f_1622_210989" x="43.5587" y="40.0958" width="45.74" height="46.2127" filterUnits="userSpaceOnUse" color-interpolation-filters="sRGB">
<feFlood flood-opacity="0" result="BackgroundImageFix"/>
<feBlend mode="normal" in="SourceGraphic" in2="BackgroundImageFix" result="shape"/>
<feGaussianBlur stdDeviation="6.80952" result="effect1_foregroundBlur_1622_210989"/>
</filter>
<filter id="filter1_f_1622_210989" x="38.2328" y="86.4691" width="48.2112" height="27.8391" filterUnits="userSpaceOnUse" color-interpolation-filters="sRGB">
<feFlood flood-opacity="0" result="BackgroundImageFix"/>
<feBlend mode="normal" in="SourceGraphic" in2="BackgroundImageFix" result="shape"/>
<feGaussianBlur stdDeviation="6.2381" result="effect1_foregroundBlur_1622_210989"/>
</filter>
<linearGradient id="paint0_linear_1622_210989" x1="77.9995" y1="26.7259" x2="120.832" y2="93.9421" gradientUnits="userSpaceOnUse">
<stop stop-color="#DDE5FE"/>
<stop offset="1" stop-color="#A7B8F2"/>
</linearGradient>
<linearGradient id="paint1_linear_1622_210989" x1="69.4913" y1="40.4116" x2="71.8501" y2="52.0125" gradientUnits="userSpaceOnUse">
<stop stop-color="#F9FBFF"/>
<stop offset="1" stop-color="#E1E8FD"/>
</linearGradient>
<linearGradient id="paint2_linear_1622_210989" x1="88.4659" y1="40.4116" x2="90.8247" y2="52.0125" gradientUnits="userSpaceOnUse">
<stop stop-color="#F9FBFF"/>
<stop offset="1" stop-color="#E1E8FD"/>
</linearGradient>
<linearGradient id="paint3_linear_1622_210989" x1="107.441" y1="40.4116" x2="109.8" y2="52.0125" gradientUnits="userSpaceOnUse">
<stop stop-color="#F9FBFF"/>
<stop offset="1" stop-color="#E1E8FD"/>
</linearGradient>
<linearGradient id="paint4_linear_1622_210989" x1="126.416" y1="40.4116" x2="128.775" y2="52.0125" gradientUnits="userSpaceOnUse">
<stop stop-color="#F9FBFF"/>
<stop offset="1" stop-color="#E1E8FD"/>
</linearGradient>
<linearGradient id="paint5_linear_1622_210989" x1="21.3565" y1="49.6954" x2="48.2873" y2="111.903" gradientUnits="userSpaceOnUse">
<stop stop-color="#F0F3FF"/>
<stop offset="1" stop-color="#CCD7FB"/>
</linearGradient>
<linearGradient id="paint6_linear_1622_210989" x1="18.9356" y1="66.7264" x2="43.11" y2="90.7808" gradientUnits="userSpaceOnUse">
<stop stop-color="#D1DBFC"/>
<stop offset="1" stop-color="#8FA6F3"/>
</linearGradient>
<linearGradient id="paint7_linear_1622_210989" x1="18.9356" y1="66.726" x2="43.11" y2="90.7804" gradientUnits="userSpaceOnUse">
<stop stop-color="#D1DBFC"/>
<stop offset="1" stop-color="#8FA6F3"/>
</linearGradient>
<linearGradient id="paint8_linear_1622_210989" x1="18.9356" y1="66.7256" x2="43.11" y2="90.78" gradientUnits="userSpaceOnUse">
<stop stop-color="#D1DBFC"/>
<stop offset="1" stop-color="#8FA6F3"/>
</linearGradient>
<linearGradient id="paint9_linear_1622_210989" x1="60.4009" y1="98.1292" x2="79.4742" y2="145.159" gradientUnits="userSpaceOnUse">
<stop stop-color="#F9FBFF"/>
<stop offset="1" stop-color="#D7DFFC"/>
</linearGradient>
<linearGradient id="paint10_linear_1622_210989" x1="64.2362" y1="104.842" x2="78.9346" y2="133.383" gradientUnits="userSpaceOnUse">
<stop stop-color="#F0F3FF"/>
<stop offset="1" stop-color="#CCD7FB"/>
</linearGradient>
<linearGradient id="paint11_linear_1622_210989" x1="71.0716" y1="114.325" x2="77.4102" y2="129.753" gradientUnits="userSpaceOnUse">
<stop stop-color="#A5B9FD"/>
<stop offset="1" stop-color="#7C99FB"/>
</linearGradient>
</defs>
</svg>
