<svg width="32" height="32" viewBox="0 0 32 32" fill="none" xmlns="http://www.w3.org/2000/svg">
<path d="M4.57227 24.5703C4.57227 26.1483 5.85145 27.4275 7.42941 27.4275H18.8614C19.7737 27.4275 20.6483 27.0639 21.2918 26.4172L26.4312 21.252C27.0705 20.6096 27.4294 19.7401 27.4294 18.8337V7.42745C27.4294 5.8495 26.1502 4.57031 24.5723 4.57031L7.42941 4.57031C5.85145 4.57031 4.57227 5.8495 4.57227 7.42746L4.57227 24.5703Z" fill="#FFC83E"/>
<path d="M19.4884 27.3218C20.1933 27.2043 20.8438 26.8696 21.3491 26.3643L26.3667 21.3467C26.872 20.8414 27.2068 20.1908 27.3243 19.486L27.4293 18.8555L27.2486 19.3976C27.0153 20.0976 26.3602 20.5698 25.6223 20.5698L23.4293 20.5698C21.8514 20.5698 20.5722 21.8489 20.5722 23.4269L20.5722 25.6199C20.5722 26.3578 20.1 27.0129 19.4 27.2462L18.8579 27.4269L19.4884 27.3218Z" fill="#FBA43F"/>
<rect x="8.00098" y="9.14258" width="16" height="2.28571" rx="1.14286" fill="#FBA43F"/>
<rect x="8.00098" y="13.1426" width="16" height="2.28571" rx="1.14286" fill="#FBA43F"/>
<rect x="8.00098" y="17.1426" width="6.85714" height="2.28572" rx="1.14286" fill="#FBA43F"/>
</svg>
