<svg width="156" height="156" viewBox="0 0 156 156" fill="none" xmlns="http://www.w3.org/2000/svg">
<path fill-rule="evenodd" clip-rule="evenodd" d="M116.454 31.6022C116.454 30.6467 116.075 29.7308 115.399 29.055C114.724 28.3797 113.808 28 112.852 28C96.3538 28 28.1006 28 11.6022 28C10.6466 28 9.73076 28.3797 9.05493 29.055C8.37962 29.7308 8 30.6467 8 31.6022C8 47.1044 8 108.052 8 123.554C8 124.51 8.37962 125.426 9.05493 126.102C9.73076 126.777 10.6466 127.157 11.6022 127.157C28.1006 127.157 96.3538 127.157 112.852 127.157C113.808 127.157 114.724 126.777 115.399 126.102C116.075 125.426 116.454 124.51 116.454 123.554C116.454 108.052 116.454 47.1044 116.454 31.6022Z" fill="url(#paint0_linear_2974_421967)"/>
<path fill-rule="evenodd" clip-rule="evenodd" d="M116.454 31.6022C116.454 29.6128 114.842 28 112.852 28C96.3538 28 28.1006 28 11.6022 28C9.6128 28 8 29.6128 8 31.6022C8 33.4993 8 35.4372 8 35.4372H116.454V31.6022Z" fill="url(#paint1_linear_2974_421967)"/>
<path fill-rule="evenodd" clip-rule="evenodd" d="M56.7877 51.952C56.7877 51.6219 56.6569 51.3051 56.4231 51.0717C56.1897 50.8379 55.8729 50.707 55.5427 50.707C49.4356 50.707 22.6998 50.707 16.5932 50.707C16.2625 50.707 15.9462 50.8379 15.7124 51.0717C15.479 51.3051 15.3477 51.6219 15.3477 51.952C15.3477 56.7462 15.3477 74.0209 15.3477 79.6773C15.3477 80.6751 16.1569 81.4844 17.1547 81.4844C23.9011 81.4844 47.2294 81.4844 47.2294 81.4844C52.4871 80.6762 55.6736 78.2659 56.7877 74.2543V51.952Z" fill="url(#paint2_linear_2974_421967)"/>
<path d="M36.0681 75.5024C41.2637 75.5024 45.4756 71.2906 45.4756 66.095C45.4756 60.8994 41.2637 56.6875 36.0681 56.6875C30.8725 56.6875 26.6606 60.8994 26.6606 66.095C26.6606 71.2906 30.8725 75.5024 36.0681 75.5024Z" fill="#D6DFFF"/>
<path fill-rule="evenodd" clip-rule="evenodd" d="M35.5527 63.062V69.1238C35.5527 69.4081 35.7835 69.6389 36.0678 69.6389C36.3522 69.6389 36.583 69.4081 36.583 69.1238V63.062C36.583 62.7776 36.3522 62.5469 36.0678 62.5469C35.7835 62.5469 35.5527 62.7776 35.5527 63.062Z" fill="#89A3FC"/>
<path fill-rule="evenodd" clip-rule="evenodd" d="M33.0366 66.6083H39.0989C39.3833 66.6083 39.614 66.3776 39.614 66.0932C39.614 65.8089 39.3833 65.5781 39.0989 65.5781H33.0366C32.7523 65.5781 32.5215 65.8089 32.5215 66.0932C32.5215 66.3776 32.7523 66.6083 33.0366 66.6083Z" fill="#89A3FC"/>
<path fill-rule="evenodd" clip-rule="evenodd" d="M56.7879 74.2539C55.6639 78.3392 52.4337 80.7134 47.2295 81.484C47.2295 81.484 49.3038 79.1964 50.3294 75.8507C50.572 75.0204 51.3246 74.4424 52.1895 74.4218C53.6313 74.3631 55.1617 74.3152 56.7879 74.2539Z" fill="url(#paint3_linear_2974_421967)"/>
<path fill-rule="evenodd" clip-rule="evenodd" d="M56.7877 45.1742C56.7877 44.6328 56.573 44.1136 56.1902 43.7309C55.807 43.3481 55.2878 43.1328 54.7464 43.1328C47.6992 43.1328 24.4368 43.1328 17.389 43.1328C16.8477 43.1328 16.3284 43.3481 15.9457 43.7309C15.563 44.1136 15.3477 44.6328 15.3477 45.1742C15.3477 45.2334 15.3477 45.2922 15.3477 45.3514C15.3477 45.8928 15.563 46.412 15.9457 46.7947C16.3284 47.1775 16.8477 47.3928 17.389 47.3928C24.4368 47.3928 47.6992 47.3928 54.7464 47.3928C55.2878 47.3928 55.807 47.1775 56.1902 46.7947C56.573 46.412 56.7877 45.8928 56.7877 45.3514C56.7877 45.2922 56.7877 45.2334 56.7877 45.1742Z" fill="url(#paint4_linear_2974_421967)"/>
<path fill-rule="evenodd" clip-rule="evenodd" d="M107.055 45.1742C107.055 44.6328 106.84 44.1136 106.457 43.7309C106.074 43.3481 105.555 43.1328 105.013 43.1328C97.9658 43.1328 74.7034 43.1328 67.6556 43.1328C67.1143 43.1328 66.595 43.3481 66.2123 43.7309C65.8296 44.1136 65.6143 44.6328 65.6143 45.1742C65.6143 45.2334 65.6143 45.2922 65.6143 45.3514C65.6143 45.8928 65.8296 46.412 66.2123 46.7947C66.595 47.1775 67.1143 47.3928 67.6556 47.3928C74.7034 47.3928 97.9658 47.3928 105.013 47.3928C105.555 47.3928 106.074 47.1775 106.457 46.7947C106.84 46.412 107.055 45.8928 107.055 45.3514C107.055 45.2922 107.055 45.2334 107.055 45.1742Z" fill="url(#paint5_linear_2974_421967)"/>
<path fill-rule="evenodd" clip-rule="evenodd" d="M44.3359 32.7479H48.4362C49.0049 32.7479 49.4664 32.2864 49.4664 31.7177C49.4664 31.149 49.0049 30.6875 48.4362 30.6875H44.3359C43.7672 30.6875 43.3057 31.149 43.3057 31.7177C43.3057 32.2864 43.7672 32.7479 44.3359 32.7479Z" fill="#94ACFC"/>
<path fill-rule="evenodd" clip-rule="evenodd" d="M76.018 32.7479H80.1183C80.687 32.7479 81.1485 32.2864 81.1485 31.7177C81.1485 31.149 80.687 30.6875 80.1183 30.6875H76.018C75.4493 30.6875 74.9878 31.149 74.9878 31.7177C74.9878 32.2864 75.4493 32.7479 76.018 32.7479Z" fill="#94ACFC"/>
<path fill-rule="evenodd" clip-rule="evenodd" d="M52.1606 32.7479H72.2942C72.8624 32.7479 73.3244 32.2864 73.3244 31.7177C73.3244 31.149 72.8624 30.6875 72.2942 30.6875H52.1606C51.5919 30.6875 51.1304 31.149 51.1304 31.7177C51.1304 32.2864 51.5919 32.7479 52.1606 32.7479Z" fill="#94ACFC"/>
<g filter="url(#filter0_f_2974_421967)">
<path fill-rule="evenodd" clip-rule="evenodd" d="M93.681 106.671C94.3228 105.183 94.023 103.456 92.9171 102.27C87.9432 96.8993 84.9087 89.7109 84.9087 81.82C84.9087 71.408 90.1917 62.2205 98.2212 56.7944C99.4106 55.9903 111.144 49.0317 114.205 53.9448C121.716 66.0025 118.824 98.4467 115.37 109.644C114.532 112.361 110.679 111.684 110.379 111.637C108.126 111.274 105.815 111.562 103.719 112.466C100.915 113.628 96.936 115.343 93.7268 116.727C92.8501 117.105 91.8318 116.91 91.157 116.235C90.4822 115.56 90.2875 114.542 90.665 113.666C91.6942 111.279 92.8558 108.585 93.681 106.671Z" fill="#A9BCFF"/>
</g>
<path fill-rule="evenodd" clip-rule="evenodd" d="M93.681 106.672C94.3228 105.183 94.023 103.456 92.9171 102.271C87.9432 96.8995 84.9087 89.7111 84.9087 81.8201C84.9087 65.1615 98.4334 51.6367 115.092 51.6367C131.751 51.6367 145.276 65.1615 145.276 81.8201C145.276 98.4788 131.751 112.004 115.092 112.004C113.489 112.004 111.915 111.878 110.379 111.637C108.126 111.275 105.815 111.563 103.719 112.466C100.915 113.628 96.936 115.343 93.7268 116.727C92.8501 117.105 91.8318 116.91 91.157 116.235C90.4822 115.56 90.2875 114.542 90.665 113.666C91.6942 111.279 92.8558 108.585 93.681 106.672Z" fill="url(#paint6_linear_2974_421967)"/>
<path fill-rule="evenodd" clip-rule="evenodd" d="M115.092 93.3965C116.391 93.3965 117.445 94.4509 117.445 95.7495C117.445 97.0481 116.391 98.102 115.092 98.102C113.793 98.102 112.739 97.0481 112.739 95.7495C112.739 94.4509 113.793 93.3965 115.092 93.3965ZM115.092 68.1056C111.33 68.1056 108.51 70.9264 108.51 74.1319C108.51 75.2224 107.626 76.1063 106.535 76.1063C105.445 76.1063 104.561 75.2224 104.561 74.1319C104.561 68.4997 109.403 64.1562 115.092 64.1562C120.781 64.1562 125.623 68.4997 125.623 74.1319C125.623 79.0574 122.921 81.7911 120.664 83.749C120.365 84.0086 120.086 84.2456 119.824 84.4676C119.047 85.1269 118.427 85.6523 117.917 86.2375C117.307 86.9365 117.066 87.498 117.066 88.1331V88.4787C117.066 89.5692 116.182 90.4532 115.092 90.4532C114.001 90.4532 113.118 89.5692 113.118 88.4787V88.1331C113.118 86.2297 113.946 84.7818 114.941 83.6413C115.666 82.8099 116.602 82.0182 117.432 81.3161C117.656 81.126 117.873 80.9421 118.077 80.766C120.098 79.0125 121.674 77.2838 121.674 74.1319C121.674 70.9264 118.854 68.1056 115.092 68.1056Z" fill="#A3B8FF"/>
<path fill-rule="evenodd" clip-rule="evenodd" d="M133.23 46.9049L140.143 33.6321C140.499 32.9485 140.233 32.1043 139.549 31.7478C138.865 31.3919 138.021 31.6577 137.665 32.3417L130.752 45.6146C130.396 46.2981 130.662 47.1424 131.346 47.4989C132.03 47.8548 132.874 47.589 133.23 46.9049Z" fill="#97AEFC"/>
<path fill-rule="evenodd" clip-rule="evenodd" d="M138.176 52.1728L147.464 44.9071C148.071 44.4317 148.178 43.5534 147.703 42.9461C147.228 42.3388 146.35 42.2317 145.742 42.7066L136.454 49.9722C135.847 50.4472 135.74 51.3259 136.215 51.9333C136.69 52.5406 137.569 52.6477 138.176 52.1728Z" fill="#97AEFC"/>
<path fill-rule="evenodd" clip-rule="evenodd" d="M126.356 45.3058L125.793 37.677C125.735 36.9079 125.065 36.33 124.296 36.3866C123.528 36.4433 122.949 37.114 123.006 37.8825L123.57 45.5118C123.627 46.2804 124.297 46.8588 125.066 46.8017C125.835 46.745 126.413 46.0748 126.356 45.3058Z" fill="#97AEFC"/>
<defs>
<filter id="filter0_f_2974_421967" x="63.1945" y="30.4889" width="77.444" height="108.143" filterUnits="userSpaceOnUse" color-interpolation-filters="sRGB">
<feFlood flood-opacity="0" result="BackgroundImageFix"/>
<feBlend mode="normal" in="SourceGraphic" in2="BackgroundImageFix" result="shape"/>
<feGaussianBlur stdDeviation="10.8571" result="effect1_foregroundBlur_2974_421967"/>
</filter>
<linearGradient id="paint0_linear_2974_421967" x1="8" y1="28" x2="122.206" y2="120.255" gradientUnits="userSpaceOnUse">
<stop stop-color="#DCE4FF"/>
<stop offset="0.54" stop-color="#C9D6FF"/>
<stop offset="1" stop-color="#C2D0FF"/>
</linearGradient>
<linearGradient id="paint1_linear_2974_421967" x1="5.34718" y1="28" x2="119.677" y2="31.2859" gradientUnits="userSpaceOnUse">
<stop stop-color="#F6F8FF"/>
<stop offset="1" stop-color="#E3E9FE"/>
</linearGradient>
<linearGradient id="paint2_linear_2974_421967" x1="19.5025" y1="49.4177" x2="52.8249" y2="88.7252" gradientUnits="userSpaceOnUse">
<stop stop-color="#F9FBFF"/>
<stop offset="1" stop-color="#E1E8FD"/>
</linearGradient>
<linearGradient id="paint3_linear_2974_421967" x1="50.6812" y1="74.4316" x2="53.2693" y2="79.3068" gradientUnits="userSpaceOnUse">
<stop stop-color="#CFDAFE"/>
<stop offset="1" stop-color="#B4C4FD"/>
</linearGradient>
<linearGradient id="paint4_linear_2974_421967" x1="34.4438" y1="42.7063" x2="34.5233" y2="47.8042" gradientUnits="userSpaceOnUse">
<stop stop-color="#A5B9FD"/>
<stop offset="1" stop-color="#87A2FB"/>
</linearGradient>
<linearGradient id="paint5_linear_2974_421967" x1="84.7104" y1="42.7063" x2="84.7899" y2="47.8042" gradientUnits="userSpaceOnUse">
<stop stop-color="#A5B9FD"/>
<stop offset="1" stop-color="#87A2FB"/>
</linearGradient>
<linearGradient id="paint6_linear_2974_421967" x1="125.623" y1="52.4697" x2="102.37" y2="111.29" gradientUnits="userSpaceOnUse">
<stop stop-color="#F1F4FF"/>
<stop offset="0.55" stop-color="#ECF0FF"/>
<stop offset="1" stop-color="#D8E1FE"/>
</linearGradient>
</defs>
</svg>
