<svg width="156" height="156" viewBox="0 0 156 156" fill="none" xmlns="http://www.w3.org/2000/svg">
<path fill-rule="evenodd" clip-rule="evenodd" d="M121.638 57.8149C121.638 56.4395 121.092 55.1204 120.119 54.1479C119.146 53.1753 117.827 52.6289 116.452 52.6289C97.5026 52.6289 32.1356 52.6289 13.1865 52.6289C11.8111 52.6289 10.492 53.1753 9.51948 54.1479C8.5464 55.1204 8 56.4395 8 57.8149C8 71.3735 8 107.76 8 121.318C8 122.694 8.5464 124.013 9.51948 124.986C10.492 125.959 11.8111 126.505 13.1865 126.505C32.1356 126.505 97.5026 126.505 116.452 126.505C117.827 126.505 119.146 125.959 120.119 124.986C121.092 124.013 121.638 122.694 121.638 121.318C121.638 107.76 121.638 71.3735 121.638 57.8149Z" fill="url(#paint0_linear_2308_287303)"/>
<path d="M34.0329 101.58C43.9498 101.58 51.9891 93.5411 51.9891 83.6242C51.9891 73.7072 43.9498 65.668 34.0329 65.668C24.1159 65.668 16.0767 73.7072 16.0767 83.6242C16.0767 93.5411 24.1159 101.58 34.0329 101.58Z" fill="url(#paint1_linear_2308_287303)"/>
<path fill-rule="evenodd" clip-rule="evenodd" d="M31.4974 82.5142C29.9957 81.6391 28.9851 80.011 28.9851 78.1496C28.9851 75.3633 31.2473 73.1016 34.0331 73.1016C36.8189 73.1016 39.0811 75.3633 39.0811 78.1496C39.0811 80.011 38.0705 81.6391 36.5688 82.5142C40.0233 83.5943 42.532 86.8205 42.532 90.6276C42.532 95.3184 25.5342 95.3184 25.5342 90.6276C25.5342 86.8205 28.043 83.5943 31.4974 82.5142Z" fill="url(#paint2_linear_2308_287303)"/>
<path fill-rule="evenodd" clip-rule="evenodd" d="M84.8176 82.6036C84.8176 81.8477 84.5172 81.1232 83.983 80.5885C83.4482 80.0543 82.7233 79.7539 81.9678 79.7539C76.8376 79.7539 66.1059 79.7539 60.9757 79.7539C60.2198 79.7539 59.4953 80.0543 58.9606 80.5885C58.4263 81.1232 58.126 81.8477 58.126 82.6036C58.126 82.6046 58.126 82.6051 58.126 82.6057C58.126 83.3616 58.4263 84.0866 58.9606 84.6208C59.4953 85.1555 60.2198 85.4559 60.9757 85.4559C66.1059 85.4559 76.8376 85.4559 81.9678 85.4559C82.7233 85.4559 83.4482 85.1555 83.983 84.6208C84.5172 84.0866 84.8176 83.3616 84.8176 82.6057C84.8176 82.6051 84.8176 82.6046 84.8176 82.6036Z" fill="url(#paint3_linear_2308_287303)"/>
<path fill-rule="evenodd" clip-rule="evenodd" d="M49.9988 110.131C49.9988 109.376 49.6984 108.651 49.1642 108.116C48.6295 107.582 47.9045 107.281 47.1485 107.281C41.0879 107.281 26.9778 107.281 20.9171 107.281C20.1612 107.281 19.4362 107.582 18.9015 108.116C18.3672 108.651 18.0669 109.376 18.0669 110.131C18.0669 110.132 18.0669 110.133 18.0669 110.134C18.0669 110.889 18.3672 111.614 18.9015 112.149C19.4362 112.683 20.1612 112.983 20.9171 112.983C26.9778 112.983 41.0879 112.983 47.1485 112.983C47.9045 112.983 48.6295 112.683 49.1642 112.149C49.6984 111.614 49.9988 110.889 49.9988 110.134C49.9988 110.133 49.9988 110.132 49.9988 110.131Z" fill="url(#paint4_linear_2308_287303)"/>
<path fill-rule="evenodd" clip-rule="evenodd" d="M103.731 93.5143C103.731 91.94 102.455 90.6641 100.881 90.6641C92.693 90.6641 69.1641 90.6641 60.9757 90.6641C59.4019 90.6641 58.126 91.94 58.126 93.5143C58.126 93.5148 58.126 93.5153 58.126 93.5163C58.126 95.0901 59.4019 96.366 60.9757 96.366C69.1641 96.366 92.693 96.366 100.881 96.366C102.455 96.366 103.731 95.0901 103.731 93.5163C103.731 93.5153 103.731 93.5148 103.731 93.5143Z" fill="url(#paint5_linear_2308_287303)"/>
<path fill-rule="evenodd" clip-rule="evenodd" d="M103.731 104.428C103.731 102.854 102.455 101.578 100.881 101.578C92.693 101.578 69.1641 101.578 60.9757 101.578C59.4019 101.578 58.126 102.854 58.126 104.428C58.126 104.428 58.126 104.429 58.126 104.43C58.126 106.004 59.4019 107.28 60.9757 107.28C69.1641 107.28 92.693 107.28 100.881 107.28C102.455 107.28 103.731 106.004 103.731 104.43C103.731 104.429 103.731 104.428 103.731 104.428Z" fill="url(#paint6_linear_2308_287303)"/>
<path fill-rule="evenodd" clip-rule="evenodd" d="M44.1495 49.844C44.1495 48.2322 42.8431 46.9258 41.2313 46.9258C38.7149 46.9258 35.1001 46.9258 32.5837 46.9258C30.9719 46.9258 29.6655 48.2322 29.6655 49.844C29.6655 51.4852 29.6655 53.5288 29.6655 55.1705C29.6655 56.7818 30.9719 58.0887 32.5837 58.0887C35.1001 58.0887 38.7149 58.0887 41.2313 58.0887C42.8431 58.0887 44.1495 56.7818 44.1495 55.1705C44.1495 53.5288 44.1495 51.4852 44.1495 49.844Z" fill="url(#paint7_linear_2308_287303)"/>
<path fill-rule="evenodd" clip-rule="evenodd" d="M99.9728 49.844C99.9728 48.2322 98.6664 46.9258 97.0546 46.9258C94.5387 46.9258 90.9234 46.9258 88.407 46.9258C86.7957 46.9258 85.4888 48.2322 85.4888 49.844C85.4888 51.4852 85.4888 53.5288 85.4888 55.1705C85.4888 56.7818 86.7957 58.0887 88.407 58.0887C90.9234 58.0887 94.5387 58.0887 97.0546 58.0887C98.6664 58.0887 99.9728 56.7818 99.9728 55.1705C99.9728 53.5288 99.9728 51.4852 99.9728 49.844Z" fill="url(#paint8_linear_2308_287303)"/>
<path fill-rule="evenodd" clip-rule="evenodd" d="M148 35.155C148 33.5224 147.352 31.9568 146.198 30.8026C145.043 29.6484 143.478 29 141.845 29C131.135 29 109.195 29 98.4846 29C96.8525 29 95.2869 29.6484 94.1327 30.8026C92.9785 31.9568 92.3296 33.5224 92.3296 35.155V77.9181C92.3296 79.0367 92.9404 80.0661 93.9226 80.6024C94.9048 81.1386 96.1011 81.0955 97.0423 80.4908C100.576 78.2189 105.192 75.2515 107.543 73.7401C108.536 73.1019 109.691 72.7625 110.872 72.7625C116.323 72.7625 132.78 72.7625 141.845 72.7625C143.478 72.7625 145.043 72.1141 146.198 70.9594C147.352 69.8052 148 68.2396 148 66.6075V35.155Z" fill="url(#paint9_linear_2308_287303)"/>
<path fill-rule="evenodd" clip-rule="evenodd" d="M120.165 60.5276C121.282 60.5276 122.19 61.4352 122.19 62.5534C122.19 63.671 121.282 64.5787 120.165 64.5787C119.047 64.5787 118.139 63.671 118.139 62.5534C118.139 61.4352 119.047 60.5276 120.165 60.5276ZM120.165 38.7551C116.926 38.7551 114.498 41.1838 114.498 43.9432C114.498 44.8818 113.737 45.6428 112.799 45.6428C111.86 45.6428 111.099 44.8818 111.099 43.9432C111.099 39.0946 115.267 35.3555 120.165 35.3555C125.062 35.3555 129.23 39.0946 129.23 43.9432C129.23 48.1835 126.905 50.5366 124.962 52.2224C124.704 52.4457 124.463 52.6496 124.238 52.8409C123.57 53.4086 123.036 53.8606 122.596 54.3644C122.072 54.9661 121.864 55.4496 121.864 55.9965V56.2938C121.864 57.2329 121.103 57.9939 120.165 57.9939C119.226 57.9939 118.465 57.2329 118.465 56.2938V55.9965C118.465 54.3578 119.179 53.1113 120.035 52.1296C120.659 51.4137 121.465 50.7324 122.178 50.1281C122.372 49.9643 122.559 49.806 122.733 49.6543C124.474 48.145 125.831 46.6564 125.831 43.9432C125.831 41.1838 123.403 38.7551 120.165 38.7551Z" fill="#7D94DD"/>
<defs>
<linearGradient id="paint0_linear_2308_287303" x1="36.6174" y1="66.5748" x2="54.5752" y2="138.971" gradientUnits="userSpaceOnUse">
<stop stop-color="#DDE5FE"/>
<stop offset="1" stop-color="#A7B8F2"/>
</linearGradient>
<linearGradient id="paint1_linear_2308_287303" x1="23.1642" y1="63.4083" x2="40.4289" y2="96.9328" gradientUnits="userSpaceOnUse">
<stop stop-color="#FCFDFF"/>
<stop offset="1" stop-color="#D4DDFC"/>
</linearGradient>
<linearGradient id="paint2_linear_2308_287303" x1="31.193" y1="74.5473" x2="38.6384" y2="92.669" gradientUnits="userSpaceOnUse">
<stop stop-color="#A5B9FD"/>
<stop offset="1" stop-color="#7C99FB"/>
</linearGradient>
<linearGradient id="paint3_linear_2308_287303" x1="46.1492" y1="91.8443" x2="108.603" y2="98.0689" gradientUnits="userSpaceOnUse">
<stop stop-color="#D1DBFF"/>
<stop offset="1" stop-color="#D4DDFC"/>
</linearGradient>
<linearGradient id="paint4_linear_2308_287303" x1="5.54579" y1="104.431" x2="49.999" y2="112.983" gradientUnits="userSpaceOnUse">
<stop stop-color="#FCFDFF"/>
<stop offset="1" stop-color="#D4DDFC"/>
</linearGradient>
<linearGradient id="paint5_linear_2308_287303" x1="46.1492" y1="91.8411" x2="108.603" y2="98.0657" gradientUnits="userSpaceOnUse">
<stop stop-color="#D1DBFF"/>
<stop offset="1" stop-color="#D4DDFC"/>
</linearGradient>
<linearGradient id="paint6_linear_2308_287303" x1="46.1492" y1="91.8413" x2="108.603" y2="98.0659" gradientUnits="userSpaceOnUse">
<stop stop-color="#D1DBFF"/>
<stop offset="1" stop-color="#D4DDFC"/>
</linearGradient>
<linearGradient id="paint7_linear_2308_287303" x1="29.7903" y1="0.220978" x2="57.7296" y2="0.641095" gradientUnits="userSpaceOnUse">
<stop stop-color="#D1DBFC"/>
<stop offset="1" stop-color="#8FA6F3"/>
</linearGradient>
<linearGradient id="paint8_linear_2308_287303" x1="85.6136" y1="0.220978" x2="113.553" y2="0.641094" gradientUnits="userSpaceOnUse">
<stop stop-color="#D1DBFC"/>
<stop offset="1" stop-color="#8FA6F3"/>
</linearGradient>
<linearGradient id="paint9_linear_2308_287303" x1="95.1402" y1="30.8297" x2="158.947" y2="72.7624" gradientUnits="userSpaceOnUse">
<stop stop-color="#F4F6FF"/>
<stop offset="1" stop-color="#D1DBFC"/>
</linearGradient>
</defs>
</svg>
