<svg width="160" height="176" viewBox="0 0 160 176" fill="none" xmlns="http://www.w3.org/2000/svg">
<g filter="url(#filter0_f_1622_210905)">
<path d="M79.3094 147.999C107.647 147.999 130.619 143.793 130.619 138.605C130.619 133.417 107.647 129.211 79.3094 129.211C50.972 129.211 28 133.417 28 138.605C28 143.793 50.972 147.999 79.3094 147.999Z" fill="#D4DDFC"/>
</g>
<path fill-rule="evenodd" clip-rule="evenodd" d="M133.888 52.9492C130.469 89.7643 123.356 133.481 122.1 136.128C120.632 139.223 110.357 143.494 94.4188 143.494C78.4801 143.494 68.2057 139.223 66.7374 136.128C65.4817 133.481 58.3678 89.7643 54.9492 52.9492H133.888Z" fill="url(#paint0_linear_1622_210905)"/>
<path fill-rule="evenodd" clip-rule="evenodd" d="M127.148 53.6472L133.888 52.9492C130.469 89.7643 123.356 133.481 122.1 136.128C120.632 139.223 110.357 143.494 94.4185 143.494C78.4798 143.494 68.2054 139.223 66.7371 136.128C66.0259 134.629 63.4372 119.964 60.7041 100.84C66.1963 83.2897 74.2818 69.1893 79.9497 76.4859C86.4277 84.8261 99.606 121.093 100.218 130.397C100.519 134.956 110.298 130.976 112.12 128.264C116.514 121.724 119.487 108.375 123.421 80.3763C124.86 70.1316 83.8157 69.7922 72.1305 54.1611C69.9982 51.3085 111.194 62.3624 127.148 53.6472Z" fill="url(#paint1_linear_1622_210905)"/>
<path fill-rule="evenodd" clip-rule="evenodd" d="M134.573 43.9883C136.041 45.741 135.925 50.668 135.925 51.5528C135.925 56.393 117.326 61.9141 94.4187 61.9141C71.5109 61.9141 52.9123 56.393 52.9123 51.5528C52.9123 50.668 52.7961 45.741 54.264 43.9883H134.573Z" fill="url(#paint2_linear_1622_210905)"/>
<path fill-rule="evenodd" clip-rule="evenodd" d="M94.4188 35C116.84 35 135.044 40.5216 135.044 45.3613C135.044 50.2014 116.84 55.7226 94.4188 55.7226C71.9972 55.7226 53.7939 50.2014 53.7939 45.3613C53.7939 40.5216 71.9972 35 94.4188 35Z" fill="url(#paint3_linear_1622_210905)"/>
<path fill-rule="evenodd" clip-rule="evenodd" d="M79.2351 35.8672C87.5914 40.2509 97.237 55.7256 94.4188 55.7256C71.9972 55.7256 53.7939 50.2045 53.7939 45.3643C53.7939 41.6831 64.3248 37.6079 79.2351 35.8672Z" fill="url(#paint4_linear_1622_210905)"/>
<path fill-rule="evenodd" clip-rule="evenodd" d="M56.0904 48.4553C54.6027 47.4324 53.7939 46.3817 53.7939 45.3613C53.7939 40.5216 71.9972 35 94.4188 35C116.84 35 135.044 40.5216 135.044 45.3613C135.044 46.3817 134.234 47.4324 132.747 48.4553C127.181 44.627 112.114 41.1881 94.4188 41.1881C76.7236 41.1881 61.6558 44.627 56.0904 48.4553Z" fill="url(#paint5_linear_1622_210905)"/>
<path fill-rule="evenodd" clip-rule="evenodd" d="M73.4497 36.6914C73.9744 37.4179 77.09 41.6267 77.4857 42.2708C67.5412 43.5832 59.7554 45.9355 56.0904 48.4564C54.6027 47.4335 53.7939 46.3829 53.7939 45.3624C53.7939 42.1782 61.6731 38.6992 73.4497 36.6914Z" fill="url(#paint6_linear_1622_210905)"/>
<path fill-rule="evenodd" clip-rule="evenodd" d="M97.9347 77.1067C97.9347 76.1147 97.5646 75.1637 96.9051 74.4625C96.2456 73.7612 95.3513 73.3672 94.4189 73.3672H94.4181C93.4857 73.3672 92.5913 73.7612 91.9318 74.4625C91.2723 75.1637 90.9019 76.1147 90.9019 77.1067V129.235C90.9019 130.227 91.2723 131.178 91.9318 131.879C92.5913 132.581 93.4857 132.975 94.4181 132.975H94.4189C95.3513 132.975 96.2456 132.581 96.9051 131.879C97.5646 131.178 97.9347 130.227 97.9347 129.235V77.1067Z" fill="url(#paint7_linear_1622_210905)"/>
<path fill-rule="evenodd" clip-rule="evenodd" d="M113.055 73.7219C113.105 72.7072 112.849 71.7769 112.344 71.1348C111.84 70.4926 111.128 70.192 110.365 70.2983C110.365 70.2983 110.365 70.2987 110.364 70.2987C109.602 70.405 108.851 70.9103 108.277 71.7029C107.703 72.4951 107.353 73.5102 107.304 74.5249C106.773 85.4795 105.25 116.887 104.719 127.841C104.67 128.856 104.926 129.786 105.43 130.428C105.935 131.07 106.647 131.371 107.409 131.264C107.409 131.264 107.409 131.264 107.41 131.264C108.172 131.158 108.924 130.653 109.497 129.86C110.072 129.068 110.422 128.053 110.471 127.038C111.002 116.084 112.524 84.6765 113.055 73.7219Z" fill="url(#paint8_linear_1622_210905)"/>
<path fill-rule="evenodd" clip-rule="evenodd" d="M75.7814 73.7219C75.7322 72.7072 75.9881 71.7769 76.4925 71.1348C76.9974 70.4926 77.709 70.192 78.4719 70.2983L78.4723 70.2987C79.2351 70.405 79.986 70.9103 80.5603 71.7029C81.1342 72.4951 81.4844 73.5102 81.5336 74.5249C82.0645 85.4795 83.5874 116.887 84.1183 127.841C84.1675 128.856 83.9115 129.786 83.4071 130.428C82.9027 131.07 82.1907 131.371 81.4278 131.264H81.4274C80.6645 131.158 79.9136 130.653 79.3397 129.86C78.7654 129.068 78.4152 128.053 78.366 127.038C77.8351 116.084 76.3127 84.6765 75.7814 73.7219Z" fill="url(#paint9_linear_1622_210905)"/>
<path fill-rule="evenodd" clip-rule="evenodd" d="M125.927 71.9531C126.028 70.9483 125.87 70.0548 125.49 69.4698C125.109 68.8843 124.536 68.6548 123.897 68.8318C123.897 68.8318 123.897 68.8318 123.896 68.8322C123.258 69.0091 122.605 69.5781 122.083 70.4137C121.56 71.2494 121.211 72.2835 121.11 73.2882C120.028 84.1403 116.924 115.254 115.841 126.105C115.741 127.11 115.899 128.003 116.279 128.589C116.66 129.174 117.233 129.404 117.872 129.227C117.872 129.226 117.872 129.226 117.872 129.226C118.511 129.05 119.163 128.481 119.686 127.645C120.208 126.809 120.558 125.775 120.658 124.77C121.741 113.918 124.845 82.8052 125.927 71.9531Z" fill="url(#paint10_linear_1622_210905)"/>
<path fill-rule="evenodd" clip-rule="evenodd" d="M62.9098 71.9531C62.8097 70.9483 62.9673 70.0548 63.3481 69.4698C63.7289 68.8843 64.3015 68.6548 64.9404 68.8318C64.9408 68.8318 64.9408 68.8318 64.9408 68.8322C65.5796 69.0091 66.2321 69.5781 66.7547 70.4137C67.2773 71.2494 67.6271 72.2835 67.7276 73.2882C68.8101 84.1403 71.914 115.254 72.9965 126.105C73.0966 127.11 72.939 128.003 72.5582 128.589C72.1774 129.174 71.6048 129.404 70.9659 129.227C70.9659 129.226 70.9655 129.226 70.9655 129.226C70.3267 129.05 69.6742 128.481 69.1516 127.645C68.629 126.809 68.2792 125.775 68.1791 124.77C67.0962 113.918 63.9927 82.8052 62.9098 71.9531Z" fill="url(#paint11_linear_1622_210905)"/>
<path fill-rule="evenodd" clip-rule="evenodd" d="M94.4188 35C116.84 35 135.044 40.5216 135.044 45.3613C135.044 50.2014 116.84 55.7226 94.4188 55.7226C71.9972 55.7226 53.7939 50.2014 53.7939 45.3613C53.7939 40.5216 71.9972 35 94.4188 35ZM94.4188 36.3268C109.859 36.3268 123.272 38.9524 129.927 42.1825C131.228 42.8139 132.254 43.4581 132.947 44.1188C133.398 44.5488 133.717 44.9366 133.717 45.3613C133.717 45.7859 133.398 46.1738 132.947 46.6042C132.254 47.2645 131.228 47.9087 129.927 48.5405C123.272 51.7706 109.859 54.3961 94.4188 54.3961C78.9783 54.3961 65.5652 51.7706 58.9107 48.5405C57.6091 47.9087 56.5837 47.2645 55.8907 46.6042C55.4392 46.1738 55.1204 45.7859 55.1204 45.3613C55.1204 44.9366 55.4392 44.5488 55.8907 44.1188C56.5837 43.4581 57.6091 42.8139 58.9107 42.1825C65.5652 38.9524 78.9783 36.3268 94.4188 36.3268Z" fill="url(#paint12_linear_1622_210905)"/>
<path fill-rule="evenodd" clip-rule="evenodd" d="M71.5096 72.345C74.191 72.2247 77.4352 74.2301 78.4246 74.8011C83.8345 77.9245 80.853 97.3409 69.5791 116.868C58.3053 136.394 42.9811 148.685 37.5711 145.561C36.5817 144.99 33.2234 143.183 31.9863 140.801L71.5096 72.345Z" fill="url(#paint13_linear_1622_210905)"/>
<path fill-rule="evenodd" clip-rule="evenodd" d="M41.7054 100.777C52.7399 81.6645 67.8698 69.7109 73.2797 72.8343C78.6896 75.9577 75.9024 95.0375 64.8679 114.15C53.8335 133.262 38.7036 145.215 33.2937 142.092C27.8838 138.969 30.671 119.889 41.7054 100.777Z" fill="url(#paint14_linear_1622_210905)"/>
<path fill-rule="evenodd" clip-rule="evenodd" d="M133.888 11.9255C133.888 10.8844 133.474 9.88586 132.738 9.14988C132.002 8.41348 131.004 8 129.962 8H102.308C101.267 8 100.269 8.41348 99.5323 9.14988C98.7963 9.88586 98.3828 10.8844 98.3828 11.9255V39.1992C98.3828 39.9125 98.7723 40.5691 99.3987 40.911C100.025 41.253 100.788 41.2257 101.388 40.8399C103.642 39.3911 106.586 37.4986 108.085 36.5344C108.718 36.1275 109.456 35.9108 110.208 35.9108C113.685 35.9108 124.181 35.9108 129.962 35.9108C131.004 35.9108 132.002 35.4974 132.738 34.761C133.474 34.025 133.888 33.0264 133.888 31.9853V11.9255Z" fill="url(#paint15_linear_1622_210905)"/>
<path fill-rule="evenodd" clip-rule="evenodd" d="M116.135 28.1091C116.848 28.1091 117.427 28.688 117.427 29.4008C117.427 30.1137 116.848 30.6925 116.135 30.6925C115.422 30.6925 114.843 30.1137 114.843 29.4008C114.843 28.688 115.422 28.1091 116.135 28.1091ZM116.135 14.223C114.07 14.223 112.521 15.7718 112.521 17.5316C112.521 18.1303 112.036 18.6157 111.437 18.6157C110.838 18.6157 110.353 18.1303 110.353 17.5316C110.353 14.4396 113.012 12.0547 116.135 12.0547C119.259 12.0547 121.917 14.4396 121.917 17.5316C121.917 20.2361 120.434 21.737 119.194 22.8121C119.03 22.9547 118.877 23.0846 118.733 23.2065C118.307 23.5683 117.966 23.8569 117.686 24.1782C117.352 24.5619 117.219 24.8704 117.219 25.2193V25.4087C117.219 26.0074 116.734 26.4928 116.135 26.4928C115.536 26.4928 115.051 26.0074 115.051 25.4087V25.2193C115.051 24.1741 115.506 23.379 116.052 22.753C116.451 22.2965 116.964 21.8615 117.419 21.4766C117.543 21.3719 117.662 21.2711 117.774 21.1743C118.883 20.2113 119.749 19.2624 119.749 17.5316C119.749 15.7718 118.201 14.223 116.135 14.223Z" fill="#7D94DD"/>
<path fill-rule="evenodd" clip-rule="evenodd" d="M60.2457 98.7348C59.8913 98.8026 59.587 99.0226 59.3414 99.4369C59.0801 99.8781 58.8903 100.523 58.7592 101.367L59.7743 103.876C60.5119 105.699 60.4441 108.265 59.6656 109.614L52.916 121.305C52.137 122.654 50.9044 122.341 50.1668 120.517L49.1554 118.016C48.4827 118.262 47.9944 119.153 47.6772 120.669C47.6772 120.67 48.6667 123.115 48.6667 123.115C50.2094 126.929 52.7762 127.806 54.4045 124.986L61.1545 113.295C62.7828 110.474 62.8175 105.091 61.2744 101.277L60.2461 98.7344L60.2457 98.7348Z" fill="url(#paint16_linear_1622_210905)"/>
<path fill-rule="evenodd" clip-rule="evenodd" d="M57.9835 98.8105C58.8059 97.386 59.9938 96.5301 60.4495 96.7935C60.9055 97.0565 60.7583 98.5132 59.9359 99.9376C59.1135 101.362 57.9256 102.218 57.4695 101.955C57.0135 101.692 57.1611 100.235 57.9835 98.8105Z" fill="url(#paint17_linear_1622_210905)"/>
<path fill-rule="evenodd" clip-rule="evenodd" d="M46.8165 117.892C47.6389 116.468 48.8264 115.612 49.2825 115.876C49.7385 116.139 49.5909 117.596 48.7685 119.02C47.9461 120.444 46.7582 121.3 46.3025 121.037C45.8465 120.774 45.9941 119.317 46.8165 117.892Z" fill="url(#paint18_linear_1622_210905)"/>
<path fill-rule="evenodd" clip-rule="evenodd" d="M59.6341 97.9917C59.6664 98.5288 59.5791 99.0126 59.3414 99.4364C59.0883 99.8871 58.6745 100.261 58.1072 100.574L56.1022 99.4166C54.6447 98.5752 52.844 99.0374 52.0655 100.386L45.3159 112.077C44.5369 113.426 45.0372 115.216 46.4943 116.058L48.4926 117.211C48.4707 118.247 47.9501 119.099 46.9487 119.784C46.9483 119.784 44.9942 118.656 44.9942 118.656C41.9469 116.897 40.7466 113.199 42.3748 110.379L49.1244 98.688C50.7531 95.8677 54.5546 95.059 57.6023 96.8183L59.6341 97.9913V97.9917Z" fill="url(#paint19_linear_1622_210905)"/>
<defs>
<filter id="filter0_f_1622_210905" x="0.190399" y="101.401" width="158.238" height="74.4083" filterUnits="userSpaceOnUse" color-interpolation-filters="sRGB">
<feFlood flood-opacity="0" result="BackgroundImageFix"/>
<feBlend mode="normal" in="SourceGraphic" in2="BackgroundImageFix" result="shape"/>
<feGaussianBlur stdDeviation="13.9048" result="effect1_foregroundBlur_1622_210905"/>
</filter>
<linearGradient id="paint0_linear_1622_210905" x1="74.5323" y1="47.3236" x2="101.04" y2="138.05" gradientUnits="userSpaceOnUse">
<stop stop-color="#E3E9FE"/>
<stop offset="1" stop-color="#B1C2FC"/>
</linearGradient>
<linearGradient id="paint1_linear_1622_210905" x1="90.9019" y1="53.9482" x2="111.633" y2="162.013" gradientUnits="userSpaceOnUse">
<stop stop-color="#D2DCFE"/>
<stop offset="1" stop-color="#A3B7FC"/>
</linearGradient>
<linearGradient id="paint2_linear_1622_210905" x1="83.8341" y1="39.9017" x2="90.0222" y2="66.4196" gradientUnits="userSpaceOnUse">
<stop stop-color="#EBEFFF"/>
<stop offset="1" stop-color="#B1C1FA"/>
</linearGradient>
<linearGradient id="paint3_linear_1622_210905" x1="91.2346" y1="32.9261" x2="96.8664" y2="56.5811" gradientUnits="userSpaceOnUse">
<stop stop-color="#A5B9FD"/>
<stop offset="1" stop-color="#87A2FB"/>
</linearGradient>
<linearGradient id="paint4_linear_1622_210905" x1="78.5529" y1="32.666" x2="86.5404" y2="53.9901" gradientUnits="userSpaceOnUse">
<stop stop-color="#A5B9FD"/>
<stop offset="1" stop-color="#7F9BFB"/>
</linearGradient>
<linearGradient id="paint5_linear_1622_210905" x1="93.4595" y1="35.6094" x2="95.3664" y2="50.9399" gradientUnits="userSpaceOnUse">
<stop stop-color="#B3C4FD"/>
<stop offset="1" stop-color="#A0B5FC"/>
</linearGradient>
<linearGradient id="paint6_linear_1622_210905" x1="64.0663" y1="36.6913" x2="71.6328" y2="55.7237" gradientUnits="userSpaceOnUse">
<stop stop-color="#B3C4FD"/>
<stop offset="1" stop-color="#87A2FB"/>
</linearGradient>
<linearGradient id="paint7_linear_1622_210905" x1="98.6306" y1="87.3088" x2="80.8416" y2="88.5515" gradientUnits="userSpaceOnUse">
<stop stop-color="#B3C4FD"/>
<stop offset="1" stop-color="#87A2FB"/>
</linearGradient>
<linearGradient id="paint8_linear_1622_210905" x1="114.436" y1="88.6041" x2="98.508" y2="87.3794" gradientUnits="userSpaceOnUse">
<stop stop-color="#B3C4FD"/>
<stop offset="1" stop-color="#87A2FB"/>
</linearGradient>
<linearGradient id="paint9_linear_1622_210905" x1="74.4008" y1="84.0315" x2="104.713" y2="95.5576" gradientUnits="userSpaceOnUse">
<stop stop-color="#B3C4FD"/>
<stop offset="1" stop-color="#87A2FB"/>
</linearGradient>
<linearGradient id="paint10_linear_1622_210905" x1="127.179" y1="87.8814" x2="113.062" y2="86.7943" gradientUnits="userSpaceOnUse">
<stop stop-color="#B3C4FD"/>
<stop offset="1" stop-color="#87A2FB"/>
</linearGradient>
<linearGradient id="paint11_linear_1622_210905" x1="63.0508" y1="73.3643" x2="90.9022" y2="84.4215" gradientUnits="userSpaceOnUse">
<stop stop-color="#B3C4FD"/>
<stop offset="1" stop-color="#87A2FB"/>
</linearGradient>
<linearGradient id="paint12_linear_1622_210905" x1="81.4079" y1="25.0407" x2="88.036" y2="58.6817" gradientUnits="userSpaceOnUse">
<stop stop-color="white"/>
<stop offset="1" stop-color="#D7DFFC"/>
</linearGradient>
<linearGradient id="paint13_linear_1622_210905" x1="71.3839" y1="74.7825" x2="41.5206" y2="146.045" gradientUnits="userSpaceOnUse">
<stop stop-color="#CBD7FF"/>
<stop offset="1" stop-color="#A9BBF9"/>
</linearGradient>
<linearGradient id="paint14_linear_1622_210905" x1="36.506" y1="81.0319" x2="63.7405" y2="120.709" gradientUnits="userSpaceOnUse">
<stop stop-color="white"/>
<stop offset="1" stop-color="#C6D2FB"/>
</linearGradient>
<linearGradient id="paint15_linear_1622_210905" x1="100.175" y1="9.16708" x2="140.87" y2="35.9109" gradientUnits="userSpaceOnUse">
<stop stop-color="#F4F6FF"/>
<stop offset="1" stop-color="#D1DBFC"/>
</linearGradient>
<linearGradient id="paint16_linear_1622_210905" x1="53.1901" y1="100.815" x2="60.4766" y2="129.797" gradientUnits="userSpaceOnUse">
<stop stop-color="#C8D5FF"/>
<stop offset="1" stop-color="#C7D3FA"/>
</linearGradient>
<linearGradient id="paint17_linear_1622_210905" x1="58.1646" y1="99.1859" x2="59.8432" y2="100.144" gradientUnits="userSpaceOnUse">
<stop stop-color="#C4D1FE"/>
<stop offset="1" stop-color="#A3B7FC"/>
</linearGradient>
<linearGradient id="paint18_linear_1622_210905" x1="46.9976" y1="118.268" x2="48.6762" y2="119.226" gradientUnits="userSpaceOnUse">
<stop stop-color="#C4D1FE"/>
<stop offset="1" stop-color="#A3B7FC"/>
</linearGradient>
<linearGradient id="paint19_linear_1622_210905" x1="46.4893" y1="103.252" x2="53.9464" y2="108.233" gradientUnits="userSpaceOnUse">
<stop stop-color="#A5B9FD"/>
<stop offset="1" stop-color="#7190FA"/>
</linearGradient>
</defs>
</svg>
