<svg width="157" height="157" viewBox="0 0 157 157" fill="none" xmlns="http://www.w3.org/2000/svg">
<path fill-rule="evenodd" clip-rule="evenodd" d="M143.83 83.8156C143.83 79.8516 141.848 76.1503 138.55 73.9522C128.624 67.3373 107.222 53.0749 96.5512 45.9629C92.7256 43.4134 87.7427 43.4134 83.9171 45.9629C73.2459 53.0749 51.8441 67.3373 41.9185 73.9522C38.6202 76.1503 36.6387 79.8516 36.6387 83.8156C36.6387 97.6599 36.6387 130.345 36.6387 142.935C36.6387 145.733 38.9071 148.002 41.7052 148.002C59.7438 148.002 120.724 148.002 138.763 148.002C141.561 148.002 143.83 145.733 143.83 142.935C143.83 130.345 143.83 97.6599 143.83 83.8156Z" fill="url(#paint0_linear_1622_210965)"/>
<g filter="url(#filter0_f_1622_210965)">
<path fill-rule="evenodd" clip-rule="evenodd" d="M133.77 69.7391L105.544 54.6758H77.7167L46.6973 77.504V113.387H133.77V69.7391Z" fill="#8FA8FB"/>
</g>
<path fill-rule="evenodd" clip-rule="evenodd" d="M133.77 57.9787C133.77 56.1547 132.292 54.6758 130.468 54.6758C116.679 54.6758 63.7883 54.6758 49.9997 54.6758C48.1758 54.6758 46.6973 56.1547 46.6973 57.9787C46.6973 70.3696 46.6973 113.387 46.6973 113.387H133.77V57.9787Z" fill="url(#paint1_linear_1622_210965)"/>
<g filter="url(#filter1_f_1622_210965)">
<path fill-rule="evenodd" clip-rule="evenodd" d="M141.276 79.8203L99.4816 107.339L90.2336 100.998L80.9856 107.339L38.7344 80.0351L46.6971 140.863H133.77L141.276 79.8203Z" fill="#CAD6FD"/>
</g>
<path fill-rule="evenodd" clip-rule="evenodd" d="M53.5232 99.1095H121.429C122.498 99.1095 123.366 98.2419 123.366 97.1728C123.366 96.1036 122.498 95.2355 121.429 95.2355H53.5232C52.454 95.2355 51.5859 96.1036 51.5859 97.1728C51.5859 98.2419 52.454 99.1095 53.5232 99.1095ZM76.4332 91.8408H126.058C127.127 91.8408 127.995 90.9732 127.995 89.904C127.995 88.8349 127.127 87.9673 126.058 87.9673H76.4332C75.3641 87.9673 74.496 88.8349 74.496 89.904C74.496 90.9732 75.3641 91.8408 76.4332 91.8408ZM58.2986 78.4205H64.8116C65.8808 78.4205 66.7484 77.5524 66.7484 76.4832C66.7484 75.4146 65.8808 74.5465 64.8116 74.5465H58.2986C57.2295 74.5465 56.3618 75.4146 56.3618 76.4832C56.3618 77.5524 57.2295 78.4205 58.2986 78.4205ZM58.2986 71.0224H71.3247C72.3938 71.0224 73.2619 70.1543 73.2619 69.0852C73.2619 68.0165 72.3938 67.1484 71.3247 67.1484H58.2986C57.2295 67.1484 56.3618 68.0165 56.3618 69.0852C56.3618 70.1543 57.2295 71.0224 58.2986 71.0224Z" fill="url(#paint2_linear_1622_210965)"/>
<path fill-rule="evenodd" clip-rule="evenodd" d="M138.448 148.001C143.55 148.001 143.829 143.241 143.829 143.241V84.2528C143.022 80.3938 140.047 80.8393 136.406 83.1882C133.25 85.2232 95.4639 110.202 95.4639 110.202C95.4639 110.202 128.793 148.001 138.448 148.001Z" fill="url(#paint3_linear_1622_210965)"/>
<path fill-rule="evenodd" clip-rule="evenodd" d="M42.02 148.001C36.9178 148.001 36.6387 143.241 36.6387 143.241V84.2528C37.446 80.3938 40.4213 80.8393 44.0623 83.1882C47.2176 85.2232 85.0041 110.202 85.0041 110.202C85.0041 110.202 51.6746 148.001 42.02 148.001Z" fill="url(#paint4_linear_1622_210965)"/>
<g filter="url(#filter2_f_1622_210965)">
<path fill-rule="evenodd" clip-rule="evenodd" d="M50.0102 133.1C43.8563 138.752 136.612 138.752 130.458 133.1C119.278 122.83 103.102 109.887 94.7858 103.977C92.0591 102.044 88.4094 102.044 85.6826 103.977C77.3663 109.887 61.1909 122.83 50.0102 133.1Z" fill="#B9C8FA"/>
</g>
<path fill-rule="evenodd" clip-rule="evenodd" d="M37.0566 144.95C37.8361 146.745 39.6244 147.999 41.7051 147.999C59.7437 147.999 120.724 147.999 138.763 147.999C140.844 147.999 142.632 146.745 143.411 144.95C142.387 141.586 139.339 138.752 132.824 133.1C120.985 122.83 103.102 109.887 94.7856 103.977C92.0589 102.044 88.4092 102.044 85.6825 103.977C77.3661 109.887 59.4828 122.83 47.6442 133.1C41.1289 138.752 38.0819 141.586 37.0566 144.95Z" fill="url(#paint5_linear_1622_210965)"/>
<path fill-rule="evenodd" clip-rule="evenodd" d="M57.1475 40.6242L69.1053 28.8756L68.2678 23.1562L58.4784 29.8109L57.1475 40.6242Z" fill="url(#paint6_linear_1622_210965)"/>
<path fill-rule="evenodd" clip-rule="evenodd" d="M91.9074 8C91.9074 8 55.3956 17.8154 43.9774 20.8853C43.4661 21.0228 43.096 21.466 43.0522 21.9937C43.0083 22.5215 43.3007 23.0199 43.7823 23.2397C51.3288 26.6815 70.1981 35.288 76.7952 38.2966C77.4019 38.5735 78.0955 38.5909 78.7155 38.3451C79.3355 38.0988 79.828 37.6108 80.0802 36.9931C83.0569 29.6961 91.9074 8 91.9074 8Z" fill="url(#paint7_linear_1622_210965)"/>
<path fill-rule="evenodd" clip-rule="evenodd" d="M54.8438 28.2852L57.147 40.6259L61.5432 31.3404L91.907 8L54.8438 28.2852Z" fill="url(#paint8_linear_1622_210965)"/>
<path fill-rule="evenodd" clip-rule="evenodd" d="M39.9838 133.059C39.7152 132.886 39.4488 132.712 39.1843 132.537C38.7388 132.242 38.1375 132.364 37.8419 132.809C37.5468 133.255 37.6683 133.856 38.1138 134.152C38.3856 134.332 38.6598 134.511 38.9362 134.688C39.3858 134.978 39.9852 134.847 40.2744 134.398C40.5636 133.948 40.4334 133.348 39.9838 133.059ZM36.0646 130.337C35.8092 130.146 35.5561 129.953 35.3053 129.76C34.8826 129.432 34.2736 129.511 33.9469 129.934C33.6202 130.356 33.6979 130.965 34.121 131.292C34.3791 131.492 34.64 131.69 34.9027 131.887C35.3308 132.208 35.938 132.121 36.2588 131.693C36.5795 131.265 36.4923 130.658 36.0646 130.337ZM32.3592 127.337C32.1189 127.127 31.8813 126.916 31.6464 126.704C31.2494 126.346 30.6367 126.377 30.2785 126.774C29.9203 127.171 29.9518 127.783 30.3484 128.142C30.591 128.361 30.8359 128.578 31.0836 128.795C31.4861 129.147 32.0983 129.106 32.4501 128.704C32.8024 128.301 32.7613 127.689 32.3592 127.337ZM28.8991 124.062C28.6766 123.834 28.4569 123.604 28.2398 123.374C27.873 122.986 27.2594 122.968 26.871 123.335C26.4822 123.702 26.4644 124.315 26.8312 124.704C27.0556 124.941 27.2827 125.178 27.5125 125.414C27.8858 125.796 28.4994 125.804 28.8818 125.431C29.2647 125.058 29.2724 124.444 28.8991 124.062ZM25.7201 120.519C25.5177 120.273 25.318 120.027 25.1215 119.779C24.7889 119.361 24.179 119.292 23.7605 119.624C23.3424 119.957 23.273 120.566 23.6056 120.985C23.8094 121.241 24.0159 121.496 24.2256 121.751C24.5655 122.163 25.1759 122.222 25.5885 121.882C26.0011 121.542 26.06 120.931 25.7201 120.519ZM22.8599 116.72C22.6799 116.458 22.5031 116.195 22.3295 115.931C22.0357 115.485 21.4344 115.361 20.988 115.655C20.5416 115.949 20.4183 116.55 20.7121 116.997C20.8921 117.27 21.0758 117.543 21.2622 117.815C21.5642 118.256 22.1677 118.369 22.6086 118.067C23.0495 117.765 23.1619 117.161 22.8599 116.72ZM20.3593 112.682C20.2049 112.404 20.0541 112.126 19.9061 111.847C19.6557 111.375 19.0691 111.195 18.5971 111.446C18.1247 111.696 17.9447 112.283 18.195 112.755C18.3486 113.045 18.5057 113.334 18.6661 113.623C18.9256 114.09 19.5159 114.258 19.9829 113.999C20.4503 113.739 20.6189 113.15 20.3593 112.682ZM18.264 108.427C18.1388 108.135 18.0169 107.844 17.8985 107.552C17.697 107.057 17.1318 106.818 16.6366 107.019C16.1413 107.22 15.9028 107.786 16.1038 108.281C16.2272 108.585 16.3542 108.889 16.4853 109.193C16.6969 109.684 17.2671 109.911 17.7578 109.7C18.249 109.488 18.4756 108.918 18.264 108.427ZM16.6261 103.984C16.5333 103.681 16.4438 103.379 16.3583 103.077C16.213 102.562 15.6776 102.263 15.1631 102.408C14.6491 102.553 14.3494 103.089 14.4947 103.603C14.5838 103.92 14.6774 104.237 14.7747 104.554C14.9319 105.064 15.4742 105.352 15.985 105.195C16.4959 105.037 16.7832 104.495 16.6261 103.984ZM15.5044 99.3953C15.4482 99.0841 15.3961 98.7739 15.3481 98.4641C15.2659 97.936 14.7706 97.5741 14.2425 97.6559C13.7143 97.7377 13.352 98.2329 13.4338 98.7611C13.4845 99.0869 13.5393 99.4131 13.5987 99.7407C13.6937 100.267 14.1981 100.616 14.724 100.521C15.2504 100.426 15.5999 99.9212 15.5044 99.3953ZM14.9675 94.7153C14.9529 94.4005 14.9424 94.0871 14.9369 93.775C14.9273 93.2409 14.4855 92.8146 13.951 92.8242C13.4164 92.8343 12.9906 93.2761 13.0002 93.8102C13.0066 94.141 13.0171 94.4727 13.0326 94.8058C13.0577 95.3399 13.5114 95.7529 14.0451 95.7282C14.5792 95.7031 14.9922 95.2494 14.9675 94.7153ZM15.0927 90.0244C15.1247 89.7123 15.1622 89.4026 15.2042 89.0942C15.2769 88.5646 14.9054 88.0757 14.3759 88.0035C13.8463 87.9314 13.3574 88.3024 13.2853 88.8319C13.2405 89.1609 13.2007 89.4916 13.166 89.8247C13.1107 90.3565 13.4977 90.8326 14.0295 90.8879C14.5609 90.9432 15.0374 90.5562 15.0927 90.0244ZM25.6095 86.2308C25.371 86.2066 25.143 86.1531 24.9329 86.0691C24.4367 85.8703 23.8724 86.112 23.6741 86.6082C23.4754 87.1044 23.7171 87.6686 24.2132 87.8674C24.5861 88.0163 24.9904 88.1146 25.4135 88.158C25.9453 88.2119 26.421 87.8244 26.4749 87.2926C26.5292 86.7608 26.1413 86.2852 25.6095 86.2308ZM28.9046 84.6244C28.7438 84.8446 28.5688 85.0415 28.3833 85.216C27.9945 85.5825 27.9758 86.1961 28.3422 86.5853C28.7086 86.9742 29.3222 86.9929 29.7115 86.6265C29.9806 86.3729 30.2346 86.0864 30.4686 85.7666C30.7838 85.3348 30.6893 84.7285 30.2579 84.4133C29.8262 84.098 29.2199 84.1926 28.9046 84.6244ZM15.9718 85.4555C16.0613 85.1585 16.1564 84.8661 16.2578 84.5778C16.4355 84.0738 16.1705 83.52 15.6661 83.3428C15.1622 83.165 14.6084 83.4305 14.4312 83.9344C14.3197 84.2511 14.215 84.5723 14.1168 84.898C13.9633 85.4102 14.2539 85.9503 14.7656 86.1042C15.2778 86.2582 15.8183 85.9672 15.9718 85.4555ZM22.3569 83.9344C22.1732 83.7042 21.9996 83.4657 21.836 83.2199C21.54 82.7749 20.9387 82.6542 20.4937 82.9503C20.0487 83.2464 19.9276 83.8481 20.2236 84.2931C20.4183 84.5855 20.6248 84.8693 20.8437 85.1434C21.1772 85.561 21.7871 85.6291 22.2047 85.2955C22.6223 84.962 22.6904 84.3521 22.3569 83.9344ZM29.9678 80.6389C29.976 80.8769 29.9724 81.1246 29.9564 81.3813C29.9541 81.4215 29.9514 81.4617 29.9486 81.5015C29.9084 82.0342 30.3087 82.4998 30.8414 82.5396C31.3746 82.5798 31.8397 82.1795 31.8799 81.6463C31.8836 81.5979 31.8868 81.549 31.89 81.4997C31.9096 81.1794 31.9137 80.8705 31.9037 80.5735C31.8859 80.0394 31.4372 79.6205 30.9031 79.6383C30.369 79.6561 29.95 80.1048 29.9678 80.6389ZM18.1315 79.1955C18.1133 79.1805 18.0941 79.1659 18.074 79.1521C17.6353 78.8465 17.0313 78.9543 16.7257 79.3925C16.5319 79.6712 16.3446 79.9576 16.1646 80.2523C15.8859 80.7088 16.0298 81.305 16.4863 81.5837C16.9422 81.8624 17.5389 81.7185 17.8176 81.2621C17.9771 81.0012 18.143 80.7467 18.3147 80.5004C18.3422 80.4611 18.3659 80.4205 18.3865 80.3789L18.45 80.5745C18.6181 81.0816 19.1669 81.3567 19.674 81.1885C20.1816 81.0204 20.4567 80.4717 20.2885 79.9645C20.1912 79.6716 20.1026 79.3783 20.0226 79.0864C19.881 78.5705 19.3478 78.2671 18.8324 78.4088C18.4527 78.513 18.1877 78.83 18.1315 79.1955ZM20.7445 77.8683C20.9766 77.6832 21.2151 77.5087 21.4591 77.346C21.9041 77.0495 22.0243 76.4478 21.7282 76.0032C21.4317 75.5582 20.8299 75.4381 20.3849 75.7341C20.0953 75.9274 19.812 76.1344 19.5365 76.3546C19.1184 76.6881 19.0499 77.2981 19.3834 77.7157C19.717 78.1333 20.3269 78.2018 20.7445 77.8683ZM28.3966 77.0632C28.5935 77.2282 28.7776 77.4132 28.9453 77.6197C29.2825 78.0341 29.8929 78.0972 30.3077 77.76C30.7226 77.4228 30.7857 76.8124 30.4485 76.3975C30.2008 76.0937 29.9294 75.8205 29.6389 75.5774C29.229 75.2347 28.6177 75.2891 28.2746 75.6989C27.9319 76.1092 27.9863 76.7206 28.3966 77.0632ZM19.3971 75.4586C19.3738 75.147 19.3583 74.8409 19.351 74.5398C19.3377 74.0052 18.8932 73.5826 18.3586 73.5959C17.8245 73.6091 17.4014 74.0537 17.4147 74.5878C17.4229 74.9204 17.4398 75.259 17.4654 75.603C17.5051 76.1362 17.9702 76.5364 18.5034 76.4967C19.0366 76.4569 19.4369 75.9918 19.3971 75.4586ZM24.6066 76.038C24.8716 76.0019 25.1444 75.9872 25.4194 75.9936C25.9536 76.0069 26.3981 75.5838 26.4109 75.0492C26.4242 74.5147 26.0006 74.0706 25.4665 74.0573C25.0877 74.0482 24.7126 74.0692 24.3471 74.1185C23.8176 74.1898 23.4457 74.6782 23.5169 75.2078C23.5887 75.7373 24.0766 76.1092 24.6066 76.038ZM19.6758 70.9212C19.7407 70.6238 19.8147 70.3323 19.8979 70.0467C20.0468 69.5332 19.7512 68.9954 19.2377 68.8464C18.7246 68.6975 18.1868 68.9931 18.0379 69.5062C17.9428 69.8338 17.8579 70.1678 17.7834 70.5086C17.6696 71.0309 18.0009 71.5471 18.5231 71.6614C19.0453 71.7751 19.5621 71.4434 19.6758 70.9212ZM21.3659 66.7598C21.5253 66.5021 21.6926 66.2499 21.868 66.0023C22.1764 65.566 22.0727 64.961 21.6364 64.6522C21.2 64.3438 20.5951 64.4475 20.2867 64.8838C20.0884 65.1639 19.8988 65.4494 19.7188 65.7409C19.4378 66.1955 19.5785 66.7927 20.0331 67.0737C20.4877 67.3551 21.0849 67.2144 21.3659 66.7598ZM24.2973 63.2468C24.5221 63.0352 24.7524 62.8273 24.9881 62.6217C25.3911 62.2704 25.4332 61.6581 25.0823 61.2552C24.7309 60.8522 24.1187 60.8101 23.7157 61.1615C23.4612 61.3831 23.2126 61.6079 22.9705 61.8359C22.5812 62.2023 22.562 62.8155 22.9285 63.2047C23.2949 63.594 23.908 63.6132 24.2973 63.2468ZM27.9712 60.3245C28.2298 60.1454 28.4916 59.9676 28.7571 59.7908C29.2021 59.4947 29.3227 58.893 29.0266 58.448C28.7301 58.003 28.1284 57.8824 27.6838 58.1784C27.4078 58.3621 27.136 58.5467 26.8673 58.7331C26.4283 59.0374 26.3186 59.6414 26.6234 60.0805C26.9281 60.52 27.5317 60.6292 27.9712 60.3245ZM31.9992 57.7572C32.2733 57.5927 32.5493 57.4287 32.8266 57.2647C33.2867 56.9928 33.4398 56.3984 33.1674 55.9383C32.8956 55.4782 32.3012 55.3256 31.8411 55.5974C31.5601 55.7633 31.2809 55.9296 31.0036 56.0955C30.5453 56.3705 30.3959 56.9654 30.671 57.4241C30.9456 57.8824 31.5409 58.0318 31.9992 57.7572ZM36.167 55.3114C36.4457 55.1483 36.7253 54.9843 37.0049 54.8194C37.4654 54.548 37.6185 53.9535 37.3471 53.493C37.0757 53.0329 36.4813 52.8794 36.0207 53.1508C35.743 53.3148 35.4656 53.4775 35.1887 53.6397C34.7273 53.9097 34.5719 54.5032 34.842 54.9646C35.112 55.4261 35.7055 55.5815 36.167 55.3114ZM40.3407 52.7939C40.6166 52.6199 40.8917 52.444 41.1663 52.2667C41.615 51.9761 41.7438 51.3762 41.4532 50.9275C41.1631 50.4784 40.5627 50.35 40.1141 50.6406C39.8459 50.8138 39.5768 50.9856 39.3072 51.1555C38.8553 51.4411 38.7196 52.0396 39.0052 52.4915C39.2903 52.9433 39.8888 53.079 40.3407 52.7939ZM44.4057 50.0357C44.6702 49.8406 44.9329 49.6427 45.1943 49.4417C45.6178 49.116 45.6973 48.5074 45.3715 48.0838C45.0458 47.6598 44.4372 47.5803 44.0136 47.9061C43.7624 48.0994 43.5092 48.2899 43.2547 48.4777C42.8248 48.7952 42.7334 49.402 43.051 49.8319C43.3685 50.2618 43.9757 50.3532 44.4057 50.0357ZM48.2248 46.8891C48.4674 46.6638 48.7073 46.4349 48.9444 46.2028C49.326 45.8286 49.3323 45.215 48.9581 44.833C48.584 44.4515 47.9699 44.4456 47.5884 44.8198C47.3641 45.0395 47.1365 45.2566 46.9067 45.4699C46.5151 45.8336 46.4923 46.4472 46.856 46.8388C47.2197 47.2304 47.8333 47.2527 48.2248 46.8891Z" fill="#CAD5FE"/>
<g filter="url(#filter3_f_1622_210965)">
<path fill-rule="evenodd" clip-rule="evenodd" d="M112.321 73.2778C112.681 72.4426 112.513 71.473 111.893 70.8078C109.101 67.7932 107.118 63.7214 107.398 57.1184C107.794 47.7776 137.635 70.5446 132.033 74.2692C129.618 75.8757 126.554 76.27 124.338 76.27C123.438 76.27 122.555 76.1996 121.692 76.0644C120.428 75.8611 119.131 76.0223 117.955 76.5299C116.381 77.1815 114.148 78.1442 112.347 78.9209C111.855 79.1329 111.284 79.0237 110.905 78.6449C110.526 78.2661 110.417 77.6946 110.629 77.203C111.207 75.8638 111.859 74.3519 112.321 73.2778Z" fill="#C9D4FC"/>
</g>
<path fill-rule="evenodd" clip-rule="evenodd" d="M112.321 72.5188C112.681 71.6836 112.513 70.7141 111.893 70.0489C109.101 67.0347 107.398 63.0008 107.398 58.5721C107.398 49.2232 114.988 41.6328 124.338 41.6328C133.687 41.6328 141.277 49.2232 141.277 58.5721C141.277 67.9211 133.687 75.5115 124.338 75.5115C123.438 75.5115 122.555 75.4411 121.692 75.3054C120.428 75.1021 119.131 75.2638 117.955 75.771C116.381 76.4225 114.148 77.3852 112.347 78.1619C111.855 78.3739 111.284 78.2647 110.905 77.886C110.526 77.5072 110.417 76.9356 110.629 76.444C111.207 75.1048 111.859 73.593 112.321 72.5188Z" fill="url(#paint9_linear_1622_210965)"/>
<path d="M116.476 60.9036C117.896 60.9036 119.047 59.7526 119.047 58.3327C119.047 56.9128 117.896 55.7617 116.476 55.7617C115.056 55.7617 113.905 56.9128 113.905 58.3327C113.905 59.7526 115.056 60.9036 116.476 60.9036Z" fill="url(#paint10_linear_1622_210965)"/>
<path d="M124.338 60.9036C125.757 60.9036 126.908 59.7526 126.908 58.3327C126.908 56.9128 125.757 55.7617 124.338 55.7617C122.918 55.7617 121.767 56.9128 121.767 58.3327C121.767 59.7526 122.918 60.9036 124.338 60.9036Z" fill="url(#paint11_linear_1622_210965)"/>
<path d="M132.198 60.9036C133.618 60.9036 134.769 59.7526 134.769 58.3327C134.769 56.9128 133.618 55.7617 132.198 55.7617C130.778 55.7617 129.627 56.9128 129.627 58.3327C129.627 59.7526 130.778 60.9036 132.198 60.9036Z" fill="url(#paint12_linear_1622_210965)"/>
<defs>
<filter id="filter0_f_1622_210965" x="32.6973" y="40.6758" width="115.073" height="86.7109" filterUnits="userSpaceOnUse" color-interpolation-filters="sRGB">
<feFlood flood-opacity="0" result="BackgroundImageFix"/>
<feBlend mode="normal" in="SourceGraphic" in2="BackgroundImageFix" result="shape"/>
<feGaussianBlur stdDeviation="7" result="effect1_foregroundBlur_1622_210965"/>
</filter>
<filter id="filter1_f_1622_210965" x="23.5915" y="64.6775" width="132.828" height="91.3287" filterUnits="userSpaceOnUse" color-interpolation-filters="sRGB">
<feFlood flood-opacity="0" result="BackgroundImageFix"/>
<feBlend mode="normal" in="SourceGraphic" in2="BackgroundImageFix" result="shape"/>
<feGaussianBlur stdDeviation="7.57143" result="effect1_foregroundBlur_1622_210965"/>
</filter>
<filter id="filter2_f_1622_210965" x="36.0978" y="88.9083" width="108.273" height="62.0506" filterUnits="userSpaceOnUse" color-interpolation-filters="sRGB">
<feFlood flood-opacity="0" result="BackgroundImageFix"/>
<feBlend mode="normal" in="SourceGraphic" in2="BackgroundImageFix" result="shape"/>
<feGaussianBlur stdDeviation="6.80952" result="effect1_foregroundBlur_1622_210965"/>
</filter>
<filter id="filter3_f_1622_210965" x="102.515" y="50.0296" width="35.0756" height="33.8549" filterUnits="userSpaceOnUse" color-interpolation-filters="sRGB">
<feFlood flood-opacity="0" result="BackgroundImageFix"/>
<feBlend mode="normal" in="SourceGraphic" in2="BackgroundImageFix" result="shape"/>
<feGaussianBlur stdDeviation="2.42857" result="effect1_foregroundBlur_1622_210965"/>
</filter>
<linearGradient id="paint0_linear_1622_210965" x1="90.2341" y1="34.8657" x2="90.2341" y2="93.4157" gradientUnits="userSpaceOnUse">
<stop stop-color="#DDE5FE"/>
<stop offset="1" stop-color="#B6C5FB"/>
</linearGradient>
<linearGradient id="paint1_linear_1622_210965" x1="55.427" y1="52.2167" x2="109.91" y2="138.1" gradientUnits="userSpaceOnUse">
<stop stop-color="#F9FBFF"/>
<stop offset="1" stop-color="#E1E8FD"/>
</linearGradient>
<linearGradient id="paint2_linear_1622_210965" x1="56.4203" y1="67.1018" x2="121.762" y2="98.7553" gradientUnits="userSpaceOnUse">
<stop stop-color="#DDE5FE"/>
<stop offset="1" stop-color="#AEC0FC"/>
</linearGradient>
<linearGradient id="paint3_linear_1622_210965" x1="85.0037" y1="84.033" x2="85.0037" y2="148.001" gradientUnits="userSpaceOnUse">
<stop stop-color="#E5EBFF"/>
<stop offset="1" stop-color="#B9C8FA"/>
</linearGradient>
<linearGradient id="paint4_linear_1622_210965" x1="85.0041" y1="84.033" x2="85.0041" y2="148.001" gradientUnits="userSpaceOnUse">
<stop stop-color="#E5EBFF"/>
<stop offset="1" stop-color="#B9C8FA"/>
</linearGradient>
<linearGradient id="paint5_linear_1622_210965" x1="90.2656" y1="102.527" x2="89.7904" y2="147.999" gradientUnits="userSpaceOnUse">
<stop stop-color="#C7D3FE"/>
<stop offset="1" stop-color="#9DB3FF"/>
</linearGradient>
<linearGradient id="paint6_linear_1622_210965" x1="54.8445" y1="23.9364" x2="55.1299" y2="51.4036" gradientUnits="userSpaceOnUse">
<stop stop-color="#A5B9FD"/>
<stop offset="1" stop-color="#7C99FB"/>
</linearGradient>
<linearGradient id="paint7_linear_1622_210965" x1="29.512" y1="9.24554" x2="29.512" y2="39.3555" gradientUnits="userSpaceOnUse">
<stop stop-color="#E5EBFF"/>
<stop offset="1" stop-color="#B9C8FA"/>
</linearGradient>
<linearGradient id="paint8_linear_1622_210965" x1="73.3863" y1="8" x2="68.9206" y2="43.7627" gradientUnits="userSpaceOnUse">
<stop stop-color="#C7D3FE"/>
<stop offset="1" stop-color="#9DB3FF"/>
</linearGradient>
<linearGradient id="paint9_linear_1622_210965" x1="114.702" y1="44.6421" x2="143.83" y2="90.2651" gradientUnits="userSpaceOnUse">
<stop stop-color="#E8EDFF"/>
<stop offset="1" stop-color="#B9C8FA"/>
</linearGradient>
<linearGradient id="paint10_linear_1622_210965" x1="113.905" y1="55.9518" x2="113.936" y2="62.6668" gradientUnits="userSpaceOnUse">
<stop stop-color="#A5B9FD"/>
<stop offset="1" stop-color="#7C99FB"/>
</linearGradient>
<linearGradient id="paint11_linear_1622_210965" x1="121.766" y1="55.9518" x2="121.797" y2="62.6668" gradientUnits="userSpaceOnUse">
<stop stop-color="#A5B9FD"/>
<stop offset="1" stop-color="#7C99FB"/>
</linearGradient>
<linearGradient id="paint12_linear_1622_210965" x1="129.627" y1="55.9518" x2="129.658" y2="62.6668" gradientUnits="userSpaceOnUse">
<stop stop-color="#A5B9FD"/>
<stop offset="1" stop-color="#7C99FB"/>
</linearGradient>
</defs>
</svg>
