<svg width="156" height="156" viewBox="0 0 156 156" fill="none" xmlns="http://www.w3.org/2000/svg">
<path fill-rule="evenodd" clip-rule="evenodd" d="M105.69 143.907C104.9 146.852 101.873 148.6 98.9282 147.81C83.3778 143.644 38.5822 131.641 29.1365 129.11C28.0015 128.806 27.0334 128.063 26.4458 127.045C25.8582 126.027 25.6988 124.817 26.0031 123.682C30.5854 106.581 41.363 66.3576 45.9437 49.2622C46.2479 48.1283 46.9901 47.1608 48.007 46.5737C49.0239 45.9866 50.2329 45.8273 51.3668 46.1315C65.1673 49.8289 108.417 61.4179 122.217 65.1158C123.352 65.4196 124.319 66.1617 124.906 67.1786C125.493 68.1955 125.652 69.4046 125.349 70.539C121.977 83.1192 109.867 128.316 105.69 143.907Z" fill="url(#paint0_linear_1834_288955)"/>
<g filter="url(#filter0_f_1834_288955)">
<path fill-rule="evenodd" clip-rule="evenodd" d="M113.219 106.148C113.219 107.296 112.763 108.398 111.951 109.209C107.803 113.353 108.639 124.865 104.493 129.007C103.681 129.818 102.582 130.274 101.435 130.274C93.4887 130.274 62.3675 130.274 50.4876 130.274C49.3124 130.274 48.1849 129.806 47.3542 128.976C46.523 128.144 46.0562 127.018 46.0562 125.842C46.0562 108.137 46.0562 77.9198 46.0562 60.2212C46.0562 59.0465 46.5225 57.9202 47.3532 57.09C48.1833 56.2593 49.3097 55.793 50.4844 55.793C64.7716 55.793 94.504 55.793 108.791 55.793C109.965 55.793 111.092 56.2593 111.922 57.09C112.753 57.9202 113.219 59.0465 113.219 60.2212C113.219 76.0432 113.219 95.673 113.219 106.148Z" fill="#A5B6FA"/>
</g>
<path fill-rule="evenodd" clip-rule="evenodd" d="M127.188 106.15C127.188 107.298 126.732 108.399 125.92 109.211C121.772 113.355 108.639 126.477 104.493 130.619C103.681 131.43 102.582 131.886 101.435 131.886C93.4887 131.886 61.2943 131.886 49.4144 131.886C48.2392 131.886 47.1117 131.418 46.281 130.587C45.4498 129.756 44.9829 128.629 44.9829 127.454C44.9829 109.749 44.9829 68.1073 44.9829 50.4087C44.9829 49.2346 45.4492 48.1082 46.2799 47.2775C47.1101 46.4473 48.2365 45.9805 49.4112 45.9805C63.6984 45.9805 108.473 45.9805 122.76 45.9805C123.935 45.9805 125.061 46.4473 125.891 47.2775C126.722 48.1082 127.188 49.2346 127.188 50.4087C127.188 66.2312 127.188 95.6749 127.188 106.15Z" fill="url(#paint1_linear_1834_288955)"/>
<path fill-rule="evenodd" clip-rule="evenodd" d="M104.494 130.618C103.682 131.429 102.582 131.885 101.434 131.885C100.34 131.885 99.1509 131.885 99.1509 131.885C99.1509 131.885 100.265 131.842 101.581 131.79C103.919 131.699 105.761 129.766 105.739 127.426C105.704 123.731 105.653 118.373 105.617 114.631C105.594 112.224 107.527 110.254 109.934 110.231C113.706 110.195 119.122 110.143 122.819 110.108C125.123 110.086 127.006 108.264 127.101 105.961C127.149 104.801 127.189 103.848 127.189 103.848V106.13C127.189 107.278 126.733 108.378 125.922 109.19C121.775 113.336 108.64 126.471 104.494 130.618Z" fill="url(#paint2_linear_1834_288955)"/>
<path fill-rule="evenodd" clip-rule="evenodd" d="M71.9025 73.2293H114.216C115.031 73.2293 115.692 72.5677 115.692 71.7531C115.692 70.9385 115.031 70.2773 114.216 70.2773H71.9025C71.0879 70.2773 70.4263 70.9385 70.4263 71.7531C70.4263 72.5677 71.0879 73.2293 71.9025 73.2293Z" fill="#CAD5FD"/>
<path fill-rule="evenodd" clip-rule="evenodd" d="M57.9557 83.159H114.216C115.031 83.159 115.692 82.4974 115.692 81.6828C115.692 80.8682 115.031 80.207 114.216 80.207H57.9557C57.1411 80.207 56.48 80.8682 56.48 81.6828C56.48 82.4974 57.1411 83.159 57.9557 83.159Z" fill="#CAD5FD"/>
<path fill-rule="evenodd" clip-rule="evenodd" d="M57.9557 93.0926H114.216C115.031 93.0926 115.692 92.4315 115.692 91.6164C115.692 90.8018 115.031 90.1406 114.216 90.1406H57.9557C57.1411 90.1406 56.48 90.8018 56.48 91.6164C56.48 92.4315 57.1411 93.0926 57.9557 93.0926Z" fill="#CAD5FD"/>
<path fill-rule="evenodd" clip-rule="evenodd" d="M57.9557 103.022H114.216C115.031 103.022 115.692 102.361 115.692 101.547C115.692 100.732 115.031 100.07 114.216 100.07H57.9557C57.1411 100.07 56.48 100.732 56.48 101.547C56.48 102.361 57.1411 103.022 57.9557 103.022Z" fill="#CAD5FD"/>
<path fill-rule="evenodd" clip-rule="evenodd" d="M57.9557 112.952H99.5466C100.361 112.952 101.022 112.291 101.022 111.476C101.022 110.662 100.361 110 99.5466 110H57.9557C57.1411 110 56.48 110.662 56.48 111.476C56.48 112.291 57.1411 112.952 57.9557 112.952Z" fill="#CAD5FD"/>
<path fill-rule="evenodd" clip-rule="evenodd" d="M58.6817 45.9806V44.6256C58.6817 42.5564 57.0042 40.8789 54.9349 40.8789C54.9344 40.8789 54.9333 40.8789 54.9328 40.8789C52.6301 40.8789 50.7632 42.7458 50.7632 45.049C50.7632 48.8859 50.7632 55.0432 50.7632 58.2641C50.7632 59.8788 52.072 61.1876 53.6867 61.1876C53.6873 61.1876 53.6878 61.1876 53.6889 61.1876C55.3036 61.1876 56.6124 59.8788 56.6124 58.2641C56.6124 54.5382 56.6124 47.2031 56.6124 47.2031C56.6124 46.7587 56.2518 46.3981 55.8075 46.3981C55.3632 46.3981 55.0025 46.7587 55.0025 47.2031V58.2641C55.0025 58.9896 54.4144 59.5777 53.6889 59.5777H53.6867C52.9612 59.5777 52.3731 58.9896 52.3731 58.2641V45.049C52.3731 43.635 53.5188 42.4888 54.9328 42.4888H54.9349C56.115 42.4888 57.0718 43.4456 57.0718 44.6256V45.9806H58.6817Z" fill="#93AAFA"/>
<g filter="url(#filter1_f_1834_288955)">
<path fill-rule="evenodd" clip-rule="evenodd" d="M71.8073 48.2946C72.2768 47.2041 106.001 43.9377 100.494 47.9586C96.8431 50.6241 92.3457 52.198 87.4833 52.198C86.3091 52.198 85.157 52.1062 84.0322 51.9297C82.3826 51.6646 80.6912 51.8749 79.1569 52.5366C77.1033 53.3866 74.1899 54.6429 71.8406 55.656C71.1987 55.9329 70.4534 55.7902 69.9591 55.2959C69.4649 54.8017 69.3222 54.0563 69.5991 53.4151C70.3525 51.6678 71.203 49.6952 71.8073 48.2946Z" fill="#BCCBFF"/>
</g>
<path fill-rule="evenodd" clip-rule="evenodd" d="M71.8072 48.2938C72.2767 47.2034 72.0572 45.9391 71.2475 45.0714C67.6065 41.139 65.3843 35.8762 65.3843 30.0989C65.3843 17.9019 75.2861 8 87.4832 8C99.6797 8 109.582 17.9019 109.582 30.0989C109.582 42.2954 99.6797 52.1973 87.4832 52.1973C86.309 52.1973 85.1569 52.1055 84.0321 51.9289C82.3825 51.6638 80.6911 51.8742 79.1568 52.5359C77.1032 53.3859 74.1898 54.6421 71.8405 55.6553C71.1986 55.9322 70.4533 55.7894 69.959 55.2952C69.4648 54.801 69.3221 54.0556 69.599 53.4143C70.3524 51.6671 71.2029 49.6944 71.8072 48.2938Z" fill="url(#paint3_linear_1834_288955)"/>
<path fill-rule="evenodd" clip-rule="evenodd" d="M87.4827 38.5718C88.4331 38.5718 89.2048 39.344 89.2048 40.2944C89.2048 41.2453 88.4331 42.0169 87.4827 42.0169C86.5318 42.0169 85.7602 41.2453 85.7602 40.2944C85.7602 39.344 86.5318 38.5718 87.4827 38.5718ZM87.4827 20.0554C84.7282 20.0554 82.6638 22.1204 82.6638 24.4676C82.6638 25.2655 82.0161 25.9133 81.2181 25.9133C80.4196 25.9133 79.7725 25.2655 79.7725 24.4676C79.7725 20.3441 83.3174 17.1641 87.4827 17.1641C91.6475 17.1641 95.1925 20.3441 95.1925 24.4676C95.1925 28.0737 93.2145 30.0748 91.5622 31.5087C91.3432 31.6986 91.1388 31.872 90.9472 32.0346C90.3779 32.517 89.9244 32.9018 89.5509 33.3305C89.1044 33.8419 88.9279 34.253 88.9279 34.7182V34.9715C88.9279 35.7695 88.2807 36.4172 87.4827 36.4172C86.6842 36.4172 86.0371 35.7695 86.0371 34.9715V34.7182C86.0371 33.3246 86.6434 32.2648 87.3722 31.4298C87.9029 30.8207 88.5882 30.2412 89.1951 29.7276C89.3599 29.5881 89.5187 29.4534 89.6673 29.3246C91.1474 28.0404 92.3011 26.7751 92.3011 24.4676C92.3011 22.1204 90.2367 20.0554 87.4827 20.0554Z" fill="#8AA4FC"/>
<path fill-rule="evenodd" clip-rule="evenodd" d="M118.982 23.7484L129.432 20.4557C129.97 20.2861 130.27 19.7114 130.1 19.1726C129.931 18.6343 129.356 18.3349 128.817 18.5045L118.367 21.7972C117.829 21.9668 117.53 22.5421 117.699 23.0803C117.869 23.6185 118.444 23.918 118.982 23.7484Z" fill="#8AA4FC"/>
<path fill-rule="evenodd" clip-rule="evenodd" d="M118.815 29.0343L127.385 30.0812C127.945 30.1494 128.456 29.7501 128.524 29.1899C128.593 28.6297 128.193 28.1193 127.633 28.0506L119.063 27.0037C118.503 26.9355 117.992 27.3348 117.924 27.895C117.856 28.4552 118.255 28.9656 118.815 29.0343Z" fill="#8AA4FC"/>
<path fill-rule="evenodd" clip-rule="evenodd" d="M116.252 19.3617L119.91 15.1202C120.279 14.6925 120.231 14.0464 119.804 13.6777C119.376 13.3091 118.73 13.3568 118.361 13.7845L114.704 18.0255C114.335 18.4532 114.383 19.0993 114.81 19.468C115.238 19.8366 115.884 19.7889 116.252 19.3617Z" fill="#8AA4FC"/>
<defs>
<filter id="filter0_f_1834_288955" x="31.6752" y="41.412" width="95.9255" height="103.242" filterUnits="userSpaceOnUse" color-interpolation-filters="sRGB">
<feFlood flood-opacity="0" result="BackgroundImageFix"/>
<feBlend mode="normal" in="SourceGraphic" in2="BackgroundImageFix" result="shape"/>
<feGaussianBlur stdDeviation="7.19048" result="effect1_foregroundBlur_1834_288955"/>
</filter>
<filter id="filter1_f_1834_288955" x="52.7928" y="29.3412" width="64.9759" height="43.1204" filterUnits="userSpaceOnUse" color-interpolation-filters="sRGB">
<feFlood flood-opacity="0" result="BackgroundImageFix"/>
<feBlend mode="normal" in="SourceGraphic" in2="BackgroundImageFix" result="shape"/>
<feGaussianBlur stdDeviation="8.33333" result="effect1_foregroundBlur_1834_288955"/>
</filter>
<linearGradient id="paint0_linear_1834_288955" x1="60.4723" y1="43.7243" x2="52.8457" y2="135.462" gradientUnits="userSpaceOnUse">
<stop stop-color="#EEF2FF"/>
<stop offset="1" stop-color="#D7DFFC"/>
</linearGradient>
<linearGradient id="paint1_linear_1834_288955" x1="116.745" y1="47.1991" x2="45.2491" y2="134.837" gradientUnits="userSpaceOnUse">
<stop stop-color="white"/>
<stop offset="1" stop-color="#ECF0FE"/>
</linearGradient>
<linearGradient id="paint2_linear_1834_288955" x1="119.302" y1="93.2353" x2="111.642" y2="126.829" gradientUnits="userSpaceOnUse">
<stop stop-color="#E3E9FE"/>
<stop offset="1" stop-color="#B1C2FC"/>
</linearGradient>
<linearGradient id="paint3_linear_1834_288955" x1="95.0008" y1="13.4283" x2="68.3607" y2="68.656" gradientUnits="userSpaceOnUse">
<stop stop-color="#F9FBFF"/>
<stop offset="1" stop-color="#E1E8FD"/>
</linearGradient>
</defs>
</svg>
