<svg width="156" height="156" viewBox="0 0 156 156" fill="none" xmlns="http://www.w3.org/2000/svg">
<path fill-rule="evenodd" clip-rule="evenodd" d="M122.985 62.4838C122.985 60.3302 122.13 58.2646 120.607 56.742C119.084 55.2189 117.018 54.3633 114.865 54.3633C95.7064 54.3633 56.1408 54.3633 36.9823 54.3633C34.8287 54.3633 32.7631 55.2189 31.2405 56.742C29.7174 58.2646 28.8618 60.3302 28.8618 62.4838C28.8618 76.8864 28.8618 106.741 28.8618 121.144C28.8618 123.298 29.7174 125.363 31.2405 126.886C32.7631 128.409 34.8287 129.264 36.9823 129.264C56.1408 129.264 95.7064 129.264 114.865 129.264C117.018 129.264 119.084 128.409 120.607 126.886C122.13 125.363 122.985 123.298 122.985 121.144C122.985 106.741 122.985 76.8864 122.985 62.4838Z" fill="url(#paint0_linear_2311_286163)"/>
<path fill-rule="evenodd" clip-rule="evenodd" d="M122.985 62.4838C122.985 60.3302 122.13 58.2646 120.607 56.742C119.084 55.2189 117.018 54.3633 114.865 54.3633C95.7064 54.3633 56.1408 54.3633 36.9823 54.3633C34.8287 54.3633 32.7631 55.2189 31.2405 56.742C29.7174 58.2646 28.8618 60.3302 28.8618 62.4838C28.8618 66.7692 28.8618 71.1494 28.8618 71.1494H122.985V62.4838Z" fill="url(#paint1_linear_2311_286163)"/>
<path fill-rule="evenodd" clip-rule="evenodd" d="M147.141 122.413C147.141 123.034 146.859 123.621 146.374 124.008C145.889 124.395 145.254 124.541 144.649 124.404C142.903 124.069 140.667 123.55 139.485 122.805C135.459 120.266 122.985 109.52 122.985 109.52V74.4705C122.985 74.4705 135.459 63.7238 139.485 61.1851C140.667 60.4403 142.903 59.9216 144.654 59.6085C145.253 59.4729 145.88 59.617 146.36 60C146.84 60.383 147.119 60.9632 147.119 61.5772C147.141 71.7654 147.141 112.225 147.141 122.413Z" fill="url(#paint2_linear_2311_286163)"/>
<path fill-rule="evenodd" clip-rule="evenodd" d="M147.141 122.413C147.141 123.034 146.859 123.621 146.374 124.008C145.889 124.395 145.254 124.541 144.649 124.404C142.902 124.069 140.667 123.55 139.485 122.805V61.1851C140.667 60.4403 142.902 59.9216 144.654 59.6085C145.253 59.4729 145.88 59.617 146.36 60C146.84 60.383 147.119 60.9632 147.119 61.5772C147.141 71.7654 147.141 112.225 147.141 122.413Z" fill="url(#paint3_linear_2311_286163)"/>
<path fill-rule="evenodd" clip-rule="evenodd" d="M114.809 80.5644C114.809 79.7941 114.503 79.0556 113.958 78.5105C113.414 77.9658 112.675 77.6602 111.905 77.6602C109.333 77.6602 105.599 77.6602 103.028 77.6602C102.258 77.6602 101.519 77.9658 100.974 78.5105C100.43 79.0556 100.124 79.7941 100.124 80.5644C100.124 80.5649 100.124 80.5649 100.124 80.5655C100.124 81.3358 100.43 82.0743 100.974 82.6189C101.519 83.1641 102.258 83.4697 103.028 83.4697C105.599 83.4697 109.333 83.4697 111.905 83.4697C112.675 83.4697 113.414 83.1641 113.958 82.6189C114.503 82.0743 114.809 81.3358 114.809 80.5655C114.809 80.5649 114.809 80.5649 114.809 80.5644Z" fill="url(#paint4_linear_2311_286163)"/>
<g filter="url(#filter0_f_2311_286163)">
<path fill-rule="evenodd" clip-rule="evenodd" d="M30.2853 97.4336C24.0678 97.4336 72.1576 134.236 72.1576 128.195V91.6547C72.1576 90.4008 71.4726 89.2469 70.3723 88.6456C69.2714 88.0448 67.9305 88.093 66.8757 88.7711C62.9145 91.3173 57.7407 94.6432 55.105 96.338C53.9919 97.0532 52.6972 97.4336 51.3743 97.4336C48.0965 97.4336 37.4792 97.4336 30.2853 97.4336Z" fill="#B4C5FF"/>
</g>
<path fill-rule="evenodd" clip-rule="evenodd" d="M9 141.099C9 142.929 9.72686 144.684 11.0206 145.978C12.3143 147.271 14.0695 147.998 15.8993 147.998C27.9037 147.998 52.4972 147.998 64.5015 147.998C66.3313 147.998 68.086 147.271 69.3797 145.978C70.674 144.684 71.4008 142.929 71.4008 141.099V93.1664C71.4008 91.9124 70.7158 90.7585 69.6149 90.1578C68.5146 89.5564 67.1737 89.6047 66.1189 90.2828C62.1577 92.8289 56.9839 96.1554 54.3482 97.8496C53.2352 98.5648 51.9404 98.9452 50.6175 98.9452C44.507 98.9452 26.0605 98.9452 15.8993 98.9452C14.0695 98.9452 12.3143 99.6721 11.0206 100.966C9.72686 102.26 9 104.015 9 105.845C9 115.186 9 131.758 9 141.099Z" fill="url(#paint5_linear_2311_286163)"/>
<path fill-rule="evenodd" clip-rule="evenodd" d="M40.2003 134.825C41.4532 134.825 42.4704 135.842 42.4704 137.095C42.4704 138.348 41.4532 139.365 40.2003 139.365C38.9474 139.365 37.9302 138.348 37.9302 137.095C37.9302 135.842 38.9474 134.825 40.2003 134.825ZM40.2003 110.42C36.5702 110.42 33.8493 113.142 33.8493 116.235C33.8493 117.288 32.9958 118.141 31.9437 118.141C30.8915 118.141 30.0386 117.288 30.0386 116.235C30.0386 110.8 34.7107 106.609 40.2003 106.609C45.6899 106.609 50.362 110.8 50.362 116.235C50.362 120.988 47.755 123.626 45.5771 125.515C45.2883 125.766 45.0187 125.995 44.7665 126.209C44.0163 126.845 43.4187 127.352 42.926 127.917C42.338 128.591 42.1054 129.133 42.1054 129.746V130.079C42.1054 131.131 41.2525 131.985 40.2003 131.985C39.1482 131.985 38.2947 131.131 38.2947 130.079V129.746C38.2947 127.909 39.0947 126.512 40.0546 125.411C40.7545 124.609 41.6572 123.845 42.4577 123.168C42.6744 122.984 42.8842 122.807 43.0797 122.637C45.0303 120.945 46.5513 119.276 46.5513 116.235C46.5513 113.142 43.8304 110.42 40.2003 110.42Z" fill="url(#paint6_linear_2311_286163)"/>
<path d="M52.7637 55.879C61.5906 55.879 68.7461 48.7234 68.7461 39.8965C68.7461 31.0696 61.5906 23.9141 52.7637 23.9141C43.9368 23.9141 36.7812 31.0696 36.7812 39.8965C36.7812 48.7234 43.9368 55.879 52.7637 55.879Z" fill="url(#paint7_linear_2311_286163)"/>
<path d="M52.7634 47.85C57.1575 47.85 60.7196 44.2879 60.7196 39.8938C60.7196 35.4996 57.1575 31.9375 52.7634 31.9375C48.3693 31.9375 44.8071 35.4996 44.8071 39.8938C44.8071 44.2879 48.3693 47.85 52.7634 47.85Z" fill="url(#paint8_linear_2311_286163)"/>
<path d="M92.6848 55.8774C105.906 55.8774 116.623 45.1597 116.623 31.9387C116.623 18.7177 105.906 8 92.6848 8C79.4638 8 68.7461 18.7177 68.7461 31.9387C68.7461 45.1597 79.4638 55.8774 92.6848 55.8774Z" fill="url(#paint9_linear_2311_286163)"/>
<path d="M92.6848 46.7202C100.849 46.7202 107.467 40.1021 107.467 31.9382C107.467 23.7744 100.849 17.1562 92.6848 17.1562C84.5209 17.1562 77.9028 23.7744 77.9028 31.9382C77.9028 40.1021 84.5209 46.7202 92.6848 46.7202Z" fill="url(#paint10_linear_2311_286163)"/>
<defs>
<filter id="filter0_f_2311_286163" x="13.8257" y="72.3218" width="74.2368" height="72.4482" filterUnits="userSpaceOnUse" color-interpolation-filters="sRGB">
<feFlood flood-opacity="0" result="BackgroundImageFix"/>
<feBlend mode="normal" in="SourceGraphic" in2="BackgroundImageFix" result="shape"/>
<feGaussianBlur stdDeviation="7.95238" result="effect1_foregroundBlur_2311_286163"/>
</filter>
<linearGradient id="paint0_linear_2311_286163" x1="121.743" y1="51.8749" x2="25.5284" y2="125.558" gradientUnits="userSpaceOnUse">
<stop stop-color="#E3E9FE"/>
<stop offset="1" stop-color="#D5DEFE"/>
</linearGradient>
<linearGradient id="paint1_linear_2311_286163" x1="121.681" y1="55.5341" x2="20.5861" y2="69.5696" gradientUnits="userSpaceOnUse">
<stop stop-color="#D7E0FE"/>
<stop offset="1" stop-color="#B1C2FC"/>
</linearGradient>
<linearGradient id="paint2_linear_2311_286163" x1="144.312" y1="54.3631" x2="131.235" y2="118.857" gradientUnits="userSpaceOnUse">
<stop stop-color="#F6F8FF"/>
<stop offset="1" stop-color="#E4EAFD"/>
</linearGradient>
<linearGradient id="paint3_linear_2311_286163" x1="154.173" y1="53.1515" x2="128.615" y2="150.867" gradientUnits="userSpaceOnUse">
<stop stop-color="#E3E9FE"/>
<stop offset="1" stop-color="#B1C2FC"/>
</linearGradient>
<linearGradient id="paint4_linear_2311_286163" x1="104.296" y1="73.9724" x2="105.042" y2="84.5837" gradientUnits="userSpaceOnUse">
<stop stop-color="#BECDFE"/>
<stop offset="1" stop-color="#7C99FB"/>
</linearGradient>
<linearGradient id="paint5_linear_2311_286163" x1="71.4008" y1="87.1671" x2="-15.6025" y2="166.031" gradientUnits="userSpaceOnUse">
<stop stop-color="#F6F8FF"/>
<stop offset="1" stop-color="#D7DFFC"/>
</linearGradient>
<linearGradient id="paint6_linear_2311_286163" x1="35.8126" y1="85.8176" x2="72.2811" y2="93.4858" gradientUnits="userSpaceOnUse">
<stop stop-color="#BECDFE"/>
<stop offset="1" stop-color="#7C99FB"/>
</linearGradient>
<linearGradient id="paint7_linear_2311_286163" x1="47.4232" y1="26.1099" x2="53.8476" y2="55.7812" gradientUnits="userSpaceOnUse">
<stop stop-color="#C7D3FE"/>
<stop offset="1" stop-color="#A0B5FC"/>
</linearGradient>
<linearGradient id="paint8_linear_2311_286163" x1="56.7592" y1="32.3476" x2="50.0607" y2="48.3045" gradientUnits="userSpaceOnUse">
<stop stop-color="#F6F8FF"/>
<stop offset="1" stop-color="#D7DFFC"/>
</linearGradient>
<linearGradient id="paint9_linear_2311_286163" x1="84.6856" y1="11.289" x2="94.3081" y2="55.7312" gradientUnits="userSpaceOnUse">
<stop stop-color="#C7D3FE"/>
<stop offset="1" stop-color="#A0B5FC"/>
</linearGradient>
<linearGradient id="paint10_linear_2311_286163" x1="100.108" y1="17.9185" x2="87.6631" y2="47.5645" gradientUnits="userSpaceOnUse">
<stop stop-color="#F6F8FF"/>
<stop offset="1" stop-color="#D7DFFC"/>
</linearGradient>
</defs>
</svg>
