<svg width="156" height="156" viewBox="0 0 156 156" fill="none" xmlns="http://www.w3.org/2000/svg">
<path fill-rule="evenodd" clip-rule="evenodd" d="M122.716 37.3495C122.816 36.6341 122.628 35.9084 122.193 35.3326C121.757 34.7562 121.111 34.3763 120.396 34.2762C106.422 32.3254 42.3508 23.3798 28.3774 21.4284C27.662 21.3289 26.9363 21.517 26.3604 21.952C25.784 22.3871 25.4042 23.0333 25.304 23.7487C23.2198 38.679 13.1109 111.079 11.026 126.01C10.9265 126.725 11.1146 127.45 11.5497 128.026C11.9847 128.603 12.631 128.983 13.3463 129.082C27.3204 131.034 91.3915 139.979 105.365 141.93C106.081 142.03 106.806 141.842 107.382 141.407C107.959 140.972 108.339 140.326 108.438 139.61C110.523 124.68 120.632 52.2798 122.716 37.3495Z" fill="url(#paint0_linear_1918_266768)"/>
<path fill-rule="evenodd" clip-rule="evenodd" d="M122.715 37.3578C122.924 35.8639 121.882 34.4841 120.389 34.276C106.398 32.3222 42.3483 23.3795 28.3774 21.4287C26.8877 21.2212 25.5122 22.2594 25.304 23.749C24.548 29.1639 22.917 40.8467 22.917 40.8467L120.329 54.4482C120.329 54.4482 121.959 42.7757 122.715 37.3578Z" fill="url(#paint1_linear_1918_266768)"/>
<path fill-rule="evenodd" clip-rule="evenodd" d="M116.099 29.8462C116.071 28.4476 114.929 27.3281 113.531 27.3281C99.8188 27.3281 34.2896 27.3281 20.3174 27.3281C19.6269 27.3281 18.9655 27.606 18.4825 28.0993C17.9995 28.592 17.7356 29.2595 17.7496 29.9494C18.3278 57.051 18.4328 68.8727 24.8403 106.599L53.4825 132.419H123.473C124.295 132.419 125.071 132.041 125.578 131.394C126.085 130.747 126.266 129.903 126.069 129.105C118.615 98.3383 116.784 64.4136 116.099 29.8462Z" fill="url(#paint2_linear_1918_266768)"/>
<g filter="url(#filter0_f_1918_266768)">
<path fill-rule="evenodd" clip-rule="evenodd" d="M90.3211 102.162C90.852 100.929 90.6038 99.4999 89.6882 98.5187C85.5706 94.0723 83.0586 88.1217 83.0586 81.5891C83.0586 67.7978 94.2548 56.6016 108.046 56.6016C110.632 56.6016 113.115 57.0342 115.472 57.7259C119.253 58.8339 121.762 103.278 115.472 105.452C113.15 106.255 110.632 106.576 108.046 106.576C106.719 106.576 105.416 106.472 104.144 106.273C102.279 105.973 100.366 106.211 98.6308 106.959C96.3087 107.92 93.0152 109.341 90.3587 110.486C89.633 110.799 88.7902 110.638 88.2313 110.079C87.6725 109.52 87.5111 108.677 87.8242 107.952C88.6761 105.977 89.6378 103.746 90.3211 102.162Z" fill="#CBD7FF"/>
</g>
<path fill-rule="evenodd" clip-rule="evenodd" d="M90.3211 102.162C90.852 100.929 90.6038 99.4999 89.6882 98.5187C85.5706 94.0723 83.0586 88.1217 83.0586 81.5891C83.0586 67.7978 94.2548 56.6016 108.046 56.6016C121.836 56.6016 133.033 67.7978 133.033 81.5891C133.033 95.3799 121.836 106.576 108.046 106.576C106.719 106.576 105.416 106.472 104.144 106.273C102.279 105.973 100.366 106.211 98.6308 106.959C96.3087 107.92 93.0152 109.341 90.3587 110.486C89.633 110.799 88.7902 110.638 88.2313 110.079C87.6725 109.52 87.5111 108.677 87.8242 107.952C88.6761 105.977 89.6378 103.746 90.3211 102.162Z" fill="url(#paint3_linear_1918_266768)"/>
<path fill-rule="evenodd" clip-rule="evenodd" d="M108.046 91.1709C109.121 91.1709 109.993 92.044 109.993 93.1186C109.993 94.1938 109.121 95.0664 108.046 95.0664C106.971 95.0664 106.098 94.1938 106.098 93.1186C106.098 92.044 106.971 91.1709 108.046 91.1709ZM108.046 70.2341C104.932 70.2341 102.597 72.569 102.597 75.223C102.597 76.1253 101.865 76.8571 100.962 76.8571C100.06 76.8571 99.3281 76.1253 99.3281 75.223C99.3281 70.5606 103.336 66.9648 108.046 66.9648C112.755 66.9648 116.764 70.5606 116.764 75.223C116.764 79.3006 114.527 81.5632 112.659 83.1845C112.411 83.3993 112.18 83.5953 111.964 83.7792C111.32 84.3247 110.807 84.7597 110.384 85.2445C109.88 85.8228 109.68 86.2876 109.68 86.8136V87.1C109.68 88.0023 108.949 88.7347 108.046 88.7347C107.143 88.7347 106.411 88.0023 106.411 87.1V86.8136C106.411 85.2378 107.097 84.0395 107.921 83.0953C108.521 82.4066 109.296 81.7513 109.982 81.1706C110.169 81.0129 110.348 80.8606 110.516 80.7149C112.19 79.2629 113.494 77.8322 113.494 75.223C113.494 72.569 111.16 70.2341 108.046 70.2341Z" fill="#8AA4FC"/>
<path fill-rule="evenodd" clip-rule="evenodd" d="M138.376 71.4863L150.191 67.7632C150.8 67.5714 151.138 66.9216 150.947 66.313C150.755 65.7044 150.105 65.3658 149.496 65.5576L137.68 69.2807C137.072 69.4724 136.733 70.1223 136.925 70.7309C137.116 71.3401 137.766 71.6781 138.376 71.4863Z" fill="#8AA4FC"/>
<path fill-rule="evenodd" clip-rule="evenodd" d="M138.186 77.4643L147.876 78.6481C148.51 78.7258 149.087 78.2743 149.164 77.6409C149.242 77.0074 148.79 76.4297 148.157 76.3527L138.467 75.1688C137.833 75.0912 137.256 75.5426 137.179 76.1767C137.101 76.8102 137.552 77.3872 138.186 77.4643Z" fill="#8AA4FC"/>
<path fill-rule="evenodd" clip-rule="evenodd" d="M135.289 66.5238L139.424 61.7279C139.841 61.2449 139.787 60.5137 139.304 60.0969C138.82 59.68 138.09 59.734 137.673 60.2176L133.537 65.0136C133.12 65.4972 133.174 66.2277 133.658 66.6446C134.141 67.0614 134.872 67.0074 135.289 66.5238Z" fill="#8AA4FC"/>
<path fill-rule="evenodd" clip-rule="evenodd" d="M116.112 29.8323C116.077 28.4391 114.938 27.3281 113.544 27.3281H20.3215C19.6297 27.3281 18.9671 27.6066 18.4842 28.1018C18.0012 28.5963 17.7378 29.2649 17.7536 29.9561C17.8707 34.9632 18.1128 45.3754 18.1128 45.3754L116.498 45.3414C116.498 45.3414 116.235 34.7817 116.112 29.8323Z" fill="url(#paint4_linear_1918_266768)"/>
<path fill-rule="evenodd" clip-rule="evenodd" d="M24.8398 106.602C24.8398 106.602 43.0212 104.914 50.2989 104.238C51.0598 104.167 51.8158 104.419 52.3825 104.932C52.9499 105.445 53.2757 106.172 53.2818 106.935C53.3394 114.229 53.482 132.422 53.482 132.422L24.8398 106.602Z" fill="url(#paint5_linear_1918_266768)"/>
<path fill-rule="evenodd" clip-rule="evenodd" d="M90.269 33.7892L56.0682 14.043L56.8764 17.1393L53.9293 17.7479L54.3735 19.8771L52.2437 20.6671L52.9367 22.624L50.6789 23.3782L51.1995 25.1045L49.3779 25.6305L83.5788 45.3768L82.6419 42.8229L84.9313 43.0346L84.5532 40.6919L86.7164 39.9419L86.1503 37.8146L88.5197 36.8189L87.7643 34.43L90.269 33.7892Z" fill="url(#paint6_linear_1918_266768)"/>
<defs>
<filter id="filter0_f_1918_266768" x="69.8205" y="43.3635" width="62.7233" height="80.5192" filterUnits="userSpaceOnUse" color-interpolation-filters="sRGB">
<feFlood flood-opacity="0" result="BackgroundImageFix"/>
<feBlend mode="normal" in="SourceGraphic" in2="BackgroundImageFix" result="shape"/>
<feGaussianBlur stdDeviation="6.61905" result="effect1_foregroundBlur_1918_266768"/>
</filter>
<linearGradient id="paint0_linear_1918_266768" x1="120.572" y1="11.7018" x2="102.446" y2="141.523" gradientUnits="userSpaceOnUse">
<stop stop-color="#E3E9FE"/>
<stop offset="1" stop-color="#E0E7FE"/>
</linearGradient>
<linearGradient id="paint1_linear_1918_266768" x1="118.046" y1="29.7931" x2="114.713" y2="53.6636" gradientUnits="userSpaceOnUse">
<stop stop-color="#C4D1FE"/>
<stop offset="1" stop-color="#A6B9FC"/>
</linearGradient>
<linearGradient id="paint2_linear_1918_266768" x1="126.895" y1="11.2735" x2="38.8841" y2="142.877" gradientUnits="userSpaceOnUse">
<stop stop-color="white"/>
<stop offset="1" stop-color="#ECF0FE"/>
</linearGradient>
<linearGradient id="paint3_linear_1918_266768" x1="116.546" y1="62.7397" x2="86.4241" y2="125.186" gradientUnits="userSpaceOnUse">
<stop stop-color="#E5EBFF"/>
<stop offset="1" stop-color="#BCCAFA"/>
</linearGradient>
<linearGradient id="paint4_linear_1918_266768" x1="110.379" y1="23.6116" x2="110.379" y2="45.3749" gradientUnits="userSpaceOnUse">
<stop stop-color="#E3E9FE"/>
<stop offset="1" stop-color="#B4C4FD"/>
</linearGradient>
<linearGradient id="paint5_linear_1918_266768" x1="41.089" y1="95.5742" x2="50.2451" y2="129.504" gradientUnits="userSpaceOnUse">
<stop stop-color="#B6C6FE"/>
<stop offset="1" stop-color="#98AFFC"/>
</linearGradient>
<linearGradient id="paint6_linear_1918_266768" x1="59.0474" y1="14.2214" x2="82.5923" y2="43.7562" gradientUnits="userSpaceOnUse">
<stop stop-color="#EBEFFF"/>
<stop offset="1" stop-color="#E1E8FD"/>
</linearGradient>
</defs>
</svg>
