<svg width="156" height="156" viewBox="0 0 156 156" fill="none" xmlns="http://www.w3.org/2000/svg">
<path fill-rule="evenodd" clip-rule="evenodd" d="M120.234 29.2498C120.234 24.7929 116.621 21.1797 112.164 21.1797C92.631 21.1797 42.9769 21.1797 23.4436 21.1797C18.9867 21.1797 15.3735 24.7929 15.3735 29.2498C15.3735 52.1022 15.3735 117.078 15.3735 139.93C15.3735 144.387 18.9867 148 23.4436 148C42.9769 148 92.631 148 112.164 148C116.621 148 120.234 144.387 120.234 139.93C120.234 117.078 120.234 52.1022 120.234 29.2498Z" fill="url(#paint0_linear_1834_288953)"/>
<path fill-rule="evenodd" clip-rule="evenodd" d="M113.778 29.2507V139.931C113.778 140.822 113.056 141.545 112.164 141.545C92.631 141.545 42.9769 141.545 23.4436 141.545C22.5521 141.545 21.8296 140.822 21.8296 139.931V29.2507C21.8296 28.3592 22.5521 27.6367 23.4436 27.6367C42.9769 27.6367 92.631 27.6367 112.164 27.6367C113.056 27.6367 113.778 28.3592 113.778 29.2507Z" fill="url(#paint1_linear_1834_288953)"/>
<path fill-rule="evenodd" clip-rule="evenodd" d="M60.4684 15.3351C60.4684 11.2863 63.7554 8 67.8042 8C71.8524 8 75.1394 11.2863 75.1394 15.3351H86.617C87.3205 15.3351 87.9946 15.6142 88.4917 16.1114C88.9889 16.6085 89.2679 17.2832 89.2679 17.9861C89.2679 20.9089 89.2679 25.5839 89.2679 28.5067C89.2679 29.2102 88.9889 29.8842 88.4917 30.3814C87.9946 30.8786 87.3205 31.1576 86.617 31.1576C78.9288 31.1576 56.679 31.1576 48.9908 31.1576C48.2873 31.1576 47.6132 30.8786 47.1161 30.3814C46.6189 29.8842 46.3398 29.2102 46.3398 28.5067C46.3398 25.5839 46.3398 20.9089 46.3398 17.9861C46.3398 17.2832 46.6189 16.6085 47.1161 16.1114C47.6132 15.6142 48.2873 15.3351 48.9908 15.3351C53.0822 15.3351 60.4684 15.3351 60.4684 15.3351ZM67.8042 12.282C69.4634 12.282 70.8102 13.6288 70.8102 15.2886C70.8102 16.9479 69.4634 18.2946 67.8042 18.2946C66.1443 18.2946 64.7976 16.9479 64.7976 15.2886C64.7976 13.6288 66.1443 12.282 67.8042 12.282Z" fill="url(#paint2_linear_1834_288953)"/>
<path fill-rule="evenodd" clip-rule="evenodd" d="M47.1394 47.9572H88.4692C89.5081 47.9572 90.3524 47.1135 90.3524 46.074C90.3524 45.0351 89.5081 44.1914 88.4692 44.1914H47.1394C46.1005 44.1914 45.2568 45.0351 45.2568 46.074C45.2568 47.1135 46.1005 47.9572 47.1394 47.9572Z" fill="#B8C7FB"/>
<path fill-rule="evenodd" clip-rule="evenodd" d="M43.8045 66.5252V60.0737C43.8045 58.7623 42.7414 57.6992 41.43 57.6992H34.9779C33.6672 57.6992 32.604 58.7623 32.604 60.0737V66.5252C32.604 67.8366 33.6672 68.8998 34.9779 68.8998H41.43C42.7414 68.8998 43.8045 67.8366 43.8045 66.5252ZM41.43 60.0737V66.5252H34.9779V60.0737H41.43Z" fill="#C7D3FE"/>
<path fill-rule="evenodd" clip-rule="evenodd" d="M50.8212 60.0737H84.7097C85.3654 60.0737 85.8973 59.5418 85.8973 58.8861C85.8973 58.2311 85.3654 57.6992 84.7097 57.6992H50.8212C50.1662 57.6992 49.6343 58.2311 49.6343 58.8861C49.6343 59.5418 50.1662 60.0737 50.8212 60.0737Z" fill="#C7D3FE"/>
<path fill-rule="evenodd" clip-rule="evenodd" d="M50.8212 67.2339H102.77C103.425 67.2339 103.957 66.702 103.957 66.047C103.957 65.3913 103.425 64.8594 102.77 64.8594H50.8212C50.1662 64.8594 49.6343 65.3913 49.6343 66.047C49.6343 66.702 50.1662 67.2339 50.8212 67.2339Z" fill="#C7D3FE"/>
<path fill-rule="evenodd" clip-rule="evenodd" d="M50.8212 74.3973H102.77C103.425 74.3973 103.957 73.8654 103.957 73.2104C103.957 72.5553 103.425 72.0234 102.77 72.0234H50.8212C50.1662 72.0234 49.6343 72.5553 49.6343 73.2104C49.6343 73.8654 50.1662 74.3973 50.8212 74.3973Z" fill="#C7D3FE"/>
<path fill-rule="evenodd" clip-rule="evenodd" d="M38.161 62.5724C37.8721 62.3392 37.5492 62.0916 37.2164 61.8505C36.9118 61.6298 36.6118 61.4306 36.317 61.2459C35.5126 60.7428 34.893 60.4179 34.893 60.4179C34.6021 60.1402 34.1397 60.1507 33.862 60.4422C33.5836 60.7337 33.5947 61.1955 33.8862 61.4739C33.8862 61.4739 34.2393 62.0772 34.7797 62.8573C34.9781 63.1429 35.191 63.4331 35.4255 63.7272C35.7838 64.1752 36.1539 64.6043 36.4736 64.9488C36.9 65.4093 37.2295 65.7034 37.2295 65.7034C37.523 65.9838 37.9186 66.1312 38.3241 66.1115C38.7295 66.0919 39.1088 65.9072 39.3741 65.6C39.3741 65.6 40.5879 64.0862 41.9097 62.3195C43.6489 59.9954 45.5668 57.2724 45.5668 57.2724C45.8295 56.9678 45.7961 56.5067 45.4909 56.2434C45.1863 55.9807 44.7251 56.0141 44.4618 56.3193C44.4618 56.3193 42.0486 58.6146 40.0042 60.6754C39.3112 61.3743 38.664 62.0444 38.161 62.5724Z" fill="#89A3F9"/>
<path fill-rule="evenodd" clip-rule="evenodd" d="M43.8045 92.9705V86.5184C43.8045 85.2077 42.7414 84.1445 41.43 84.1445H34.9779C33.6672 84.1445 32.604 85.2077 32.604 86.5184V92.9705C32.604 94.2819 33.6672 95.3451 34.9779 95.3451H41.43C42.7414 95.3451 43.8045 94.2819 43.8045 92.9705ZM41.43 86.5184V92.9705H34.9779V86.5191L41.43 86.5184Z" fill="#C7D3FE"/>
<path fill-rule="evenodd" clip-rule="evenodd" d="M50.8212 86.5191H84.7097C85.3654 86.5191 85.8973 85.9865 85.8973 85.3315C85.8973 84.6764 85.3654 84.1445 84.7097 84.1445H50.8212C50.1662 84.1445 49.6343 84.6764 49.6343 85.3315C49.6343 85.9865 50.1662 86.5191 50.8212 86.5191Z" fill="#C7D3FE"/>
<path fill-rule="evenodd" clip-rule="evenodd" d="M50.8212 93.6792H102.77C103.425 93.6792 103.957 93.1473 103.957 92.4916C103.957 91.8366 103.425 91.3047 102.77 91.3047H50.8212C50.1662 91.3047 49.6343 91.8366 49.6343 92.4916C49.6343 93.1473 50.1662 93.6792 50.8212 93.6792Z" fill="#C7D3FE"/>
<path fill-rule="evenodd" clip-rule="evenodd" d="M50.8212 100.843H102.77C103.425 100.843 103.957 100.311 103.957 99.6563C103.957 99.0013 103.425 98.4688 102.77 98.4688H50.8212C50.1662 98.4688 49.6343 99.0013 49.6343 99.6563C49.6343 100.311 50.1662 100.843 50.8212 100.843Z" fill="#C7D3FE"/>
<path fill-rule="evenodd" clip-rule="evenodd" d="M38.161 89.0179C37.8721 88.7847 37.5492 88.5371 37.2164 88.2961C36.9118 88.0753 36.6118 87.8762 36.317 87.6915C35.5126 87.1878 34.893 86.8635 34.893 86.8635C34.6021 86.5851 34.1397 86.5963 33.862 86.8877C33.5836 87.1786 33.5947 87.641 33.8862 87.9188C33.8862 87.9188 34.2393 88.5227 34.7797 89.3022C34.9781 89.5885 35.191 89.8787 35.4255 90.1721C35.7838 90.6208 36.1539 91.0499 36.4736 91.3944C36.9 91.8549 37.2295 92.149 37.2295 92.149C37.523 92.4294 37.9186 92.5768 38.3241 92.5571C38.7295 92.5375 39.1088 92.3521 39.3741 92.0449C39.3741 92.0449 40.5879 90.5311 41.9097 88.7651C43.6489 86.441 45.5668 83.718 45.5668 83.718C45.8295 83.4128 45.7961 82.9523 45.4909 82.6889C45.1863 82.4256 44.7251 82.4597 44.4618 82.7649C44.4618 82.7649 42.0486 85.0602 40.0042 87.1203C39.3112 87.8199 38.664 88.49 38.161 89.0179Z" fill="#89A3F9"/>
<path fill-rule="evenodd" clip-rule="evenodd" d="M43.8045 119.412V112.96C43.8045 111.648 42.7414 110.586 41.43 110.586H34.9779C33.6672 110.586 32.604 111.648 32.604 112.96V119.412C32.604 120.723 33.6672 121.786 34.9779 121.786H41.43C42.7414 121.786 43.8045 120.723 43.8045 119.412ZM41.43 112.96V119.412H34.9779V112.96H41.43Z" fill="#C7D3FE"/>
<path fill-rule="evenodd" clip-rule="evenodd" d="M50.8212 112.96H84.7097C85.3654 112.96 85.8973 112.428 85.8973 111.773C85.8973 111.118 85.3654 110.586 84.7097 110.586H50.8212C50.1662 110.586 49.6343 111.118 49.6343 111.773C49.6343 112.428 50.1662 112.96 50.8212 112.96Z" fill="#C7D3FE"/>
<path fill-rule="evenodd" clip-rule="evenodd" d="M50.8212 120.121H102.77C103.425 120.121 103.957 119.589 103.957 118.933C103.957 118.278 103.425 117.746 102.77 117.746H50.8212C50.1662 117.746 49.6343 118.278 49.6343 118.933C49.6343 119.589 50.1662 120.121 50.8212 120.121Z" fill="#C7D3FE"/>
<path fill-rule="evenodd" clip-rule="evenodd" d="M50.8212 127.285H102.77C103.425 127.285 103.957 126.753 103.957 126.098C103.957 125.442 103.425 124.91 102.77 124.91H50.8212C50.1662 124.91 49.6343 125.442 49.6343 126.098C49.6343 126.753 50.1662 127.285 50.8212 127.285Z" fill="#C7D3FE"/>
<path fill-rule="evenodd" clip-rule="evenodd" d="M38.161 115.459C37.8721 115.226 37.5492 114.979 37.2164 114.738C36.9118 114.517 36.6118 114.317 36.317 114.133C35.5126 113.629 34.893 113.305 34.893 113.305C34.6021 113.027 34.1397 113.038 33.862 113.329C33.5836 113.62 33.5947 114.083 33.8862 114.36C33.8862 114.36 34.2393 114.964 34.7797 115.744C34.9781 116.029 35.191 116.32 35.4255 116.614C35.7838 117.062 36.1539 117.491 36.4736 117.836C36.9 118.296 37.2295 118.59 37.2295 118.59C37.523 118.871 37.9186 119.018 38.3241 118.999C38.7295 118.979 39.1088 118.794 39.3741 118.486C39.3741 118.486 40.5879 116.973 41.9097 115.206C43.6489 112.882 45.5668 110.159 45.5668 110.159C45.8295 109.854 45.7961 109.393 45.4909 109.13C45.1863 108.867 44.7251 108.901 44.4618 109.206C44.4618 109.206 42.0486 111.501 40.0042 113.562C39.3112 114.261 38.664 114.931 38.161 115.459Z" fill="#89A3F9"/>
<g filter="url(#filter0_f_1834_288953)">
<path fill-rule="evenodd" clip-rule="evenodd" d="M120.241 60.8891C120.241 59.1755 119.561 57.5313 118.348 56.3188C117.137 55.107 115.492 54.4258 113.778 54.4258H94.7538C93.0402 54.4258 91.3961 55.107 90.1836 56.3188C88.9718 57.5313 88.2905 59.1755 88.2905 60.8891V105.795C88.2905 106.969 88.9325 108.05 89.9635 108.613C90.9945 109.176 92.2509 109.131 93.2387 108.496C96.9495 106.11 101.797 102.994 104.266 101.407C105.308 100.737 106.522 100.381 107.761 100.381H113.778C115.492 100.381 117.137 99.6996 118.348 98.4877C119.561 97.2753 120.241 95.6311 120.241 93.9169V60.8891Z" fill="#B8C8FE"/>
</g>
<path fill-rule="evenodd" clip-rule="evenodd" d="M140.626 60.8891C140.626 59.1755 139.946 57.5313 138.733 56.3188C137.521 55.107 135.877 54.4258 134.163 54.4258H94.7538C93.0402 54.4258 91.3961 55.107 90.1836 56.3188C88.9718 57.5313 88.2905 59.1755 88.2905 60.8891V105.795C88.2905 106.969 88.9325 108.05 89.9635 108.613C90.9945 109.176 92.2509 109.131 93.2387 108.496C96.9495 106.11 101.797 102.994 104.266 101.407C105.308 100.737 106.522 100.381 107.761 100.381C113.485 100.381 124.644 100.381 134.163 100.381C135.877 100.381 137.521 99.6996 138.733 98.4877C139.946 97.2753 140.626 95.6311 140.626 93.9169V60.8891Z" fill="url(#paint3_linear_1834_288953)"/>
<path fill-rule="evenodd" clip-rule="evenodd" d="M121.865 69.1993C122.391 64.221 121.419 62.3659 119.75 61.6349C119.332 61.437 118.846 61.4514 118.441 61.6735C118.037 61.8949 117.763 62.2978 117.705 62.7556C117.481 64.7692 117.028 66.1815 116.02 68.1519C115.418 69.3925 114.26 70.2703 112.903 70.5146C112.134 70.6639 111.227 70.8224 110.508 70.9449C109.769 71.072 109.229 71.7127 109.229 72.462C109.229 75.6567 109.229 83.865 109.229 87.2915C109.229 88.1417 109.918 88.8308 110.768 88.8308C114.953 88.8308 126.226 88.8308 126.226 88.8308C129.987 88.2754 129.592 84.2324 127.868 83.8427C130.514 83.9285 131.214 79.505 128.363 79.0046C132.651 78.5375 131.678 74.2431 128.794 74.1933C132.729 73.7151 132.079 69.7312 129.818 69.344L121.865 69.1993ZM107.829 72.8839C107.829 71.9308 107.056 71.1585 106.103 71.1585C105.021 71.1585 103.619 71.1585 102.477 71.1585C101.929 71.1585 101.403 71.376 101.014 71.7644C100.626 72.1522 100.408 72.6788 100.408 73.2271C100.408 76.6281 100.408 83.3606 100.408 86.7616C100.408 87.3105 100.626 87.8365 101.014 88.2243C101.403 88.6127 101.929 88.8308 102.477 88.8308C103.619 88.8308 105.021 88.8308 106.103 88.8308C107.056 88.8308 107.829 88.0579 107.829 87.1048V72.8839Z" fill="#97AFFF"/>
<defs>
<filter id="filter0_f_1834_288953" x="74.6715" y="40.8067" width="59.1888" height="81.8182" filterUnits="userSpaceOnUse" color-interpolation-filters="sRGB">
<feFlood flood-opacity="0" result="BackgroundImageFix"/>
<feBlend mode="normal" in="SourceGraphic" in2="BackgroundImageFix" result="shape"/>
<feGaussianBlur stdDeviation="6.80952" result="effect1_foregroundBlur_1834_288953"/>
</filter>
<linearGradient id="paint0_linear_1834_288953" x1="44.667" y1="20.9179" x2="165.231" y2="49.7932" gradientUnits="userSpaceOnUse">
<stop stop-color="#DDE5FE"/>
<stop offset="1" stop-color="#A7B8F2"/>
</linearGradient>
<linearGradient id="paint1_linear_1834_288953" x1="41.7225" y1="23.0622" x2="162.119" y2="46.0025" gradientUnits="userSpaceOnUse">
<stop stop-color="white"/>
<stop offset="1" stop-color="#ECF0FE"/>
</linearGradient>
<linearGradient id="paint2_linear_1834_288953" x1="19.3888" y1="-5.18367" x2="21.7508" y2="44.3979" gradientUnits="userSpaceOnUse">
<stop stop-color="#DDE5FE"/>
<stop offset="1" stop-color="#A7B8F2"/>
</linearGradient>
<linearGradient id="paint3_linear_1834_288953" x1="85.1195" y1="56.3477" x2="152.122" y2="100.381" gradientUnits="userSpaceOnUse">
<stop stop-color="#F4F6FF"/>
<stop offset="1" stop-color="#D1DBFC"/>
</linearGradient>
</defs>
</svg>
