<svg width="156" height="156" viewBox="0 0 156 156" fill="none" xmlns="http://www.w3.org/2000/svg">
<path fill-rule="evenodd" clip-rule="evenodd" d="M121.404 60.222C121.404 57.8505 120.462 55.5768 118.786 53.9C117.109 52.2232 114.835 51.2812 112.464 51.2812C91.3711 51.2812 47.8101 51.2812 26.7171 51.2812C24.3461 51.2812 22.0719 52.2232 20.3951 53.9C18.7188 55.5768 17.7769 57.8505 17.7769 60.222C17.7769 76.079 17.7769 108.948 17.7769 124.806C17.7769 127.177 18.7188 129.451 20.3951 131.128C22.0719 132.804 24.3461 133.746 26.7171 133.746C47.8101 133.746 91.3711 133.746 112.464 133.746C114.835 133.746 117.109 132.804 118.786 131.128C120.462 129.451 121.404 127.177 121.404 124.806C121.404 108.948 121.404 76.079 121.404 60.222Z" fill="url(#paint0_linear_2319_311144)"/>
<path fill-rule="evenodd" clip-rule="evenodd" d="M121.404 60.222C121.404 57.8505 120.462 55.5768 118.786 53.9C117.109 52.2232 114.835 51.2812 112.464 51.2812C91.3711 51.2812 47.8101 51.2812 26.7171 51.2812C24.3461 51.2812 22.0719 52.2232 20.3951 53.9C18.7188 55.5768 17.7769 57.8505 17.7769 60.222C17.7769 64.9399 17.7769 69.7621 17.7769 69.7621H121.404V60.222Z" fill="url(#paint1_linear_2319_311144)"/>
<path fill-rule="evenodd" clip-rule="evenodd" d="M148 126.202C148 126.885 147.69 127.531 147.156 127.958C146.622 128.385 145.923 128.545 145.257 128.394C143.334 128.024 140.872 127.453 139.571 126.633C135.138 123.838 121.404 112.006 121.404 112.006V73.4177C121.404 73.4177 135.138 61.586 139.571 58.7912C140.872 57.9708 143.334 57.3998 145.262 57.0548C145.921 56.9057 146.612 57.0645 147.14 57.4859C147.668 57.9077 147.976 58.5469 147.976 59.2222C148 70.4392 148 114.985 148 126.202Z" fill="url(#paint2_linear_2319_311144)"/>
<path fill-rule="evenodd" clip-rule="evenodd" d="M148 126.202C148.001 126.885 147.69 127.531 147.156 127.958C146.622 128.385 145.923 128.545 145.257 128.394C143.334 128.024 140.872 127.453 139.571 126.633V58.7912C140.872 57.9708 143.334 57.3998 145.262 57.0548C145.921 56.9057 146.612 57.0645 147.141 57.4859C147.668 57.9077 147.976 58.5469 147.976 59.2222C148 70.4392 148 114.985 148 126.202Z" fill="url(#paint3_linear_2319_311144)"/>
<path fill-rule="evenodd" clip-rule="evenodd" d="M83.2737 102.951C81.3806 101.848 80.1074 99.7966 80.1074 97.4491C80.1074 93.9373 82.9587 91.0859 86.4705 91.0859C89.9824 91.0859 92.8337 93.9373 92.8337 97.4491C92.8337 99.7966 91.5605 101.848 89.6669 102.951C94.0215 104.313 97.1847 108.38 97.1847 113.18C97.1847 119.093 75.7563 119.093 75.7563 113.18C75.7563 108.38 78.9196 104.313 83.2737 102.951Z" fill="url(#paint4_linear_2319_311144)"/>
<path fill-rule="evenodd" clip-rule="evenodd" d="M49.5139 102.951C47.6208 101.848 46.3476 99.7966 46.3476 97.4491C46.3476 93.9373 49.1989 91.0859 52.7108 91.0859C56.2226 91.0859 59.0739 93.9373 59.0739 97.4491C59.0739 99.7966 57.8007 101.848 55.9076 102.951C60.2617 104.313 63.425 108.38 63.425 113.18C63.425 119.093 41.9966 119.093 41.9966 113.18C41.9966 108.38 45.1599 104.313 49.5139 102.951Z" fill="url(#paint5_linear_2319_311144)"/>
<path fill-rule="evenodd" clip-rule="evenodd" d="M65.4612 102.601C63.0908 101.219 61.4965 98.6506 61.4965 95.7123C61.4965 91.3155 65.0663 87.7461 69.4632 87.7461C73.86 87.7461 77.4293 91.3155 77.4293 95.7123C77.4293 98.6506 75.835 101.219 73.4651 102.601C78.9163 104.305 82.876 109.397 82.876 115.405C82.876 122.809 56.0498 122.809 56.0498 115.405C56.0498 109.397 60.0095 104.305 65.4612 102.601Z" fill="url(#paint6_linear_2319_311144)"/>
<g filter="url(#filter0_f_2319_311144)">
<path fill-rule="evenodd" clip-rule="evenodd" d="M60.2118 54.8435C60.2118 52.8761 58.6169 51.2812 56.6495 51.2812C48.7704 51.2812 29.9414 51.2812 22.0622 51.2812C20.0949 51.2812 18.5 52.8761 18.5 54.8435C18.5 60.7151 18.5 72.357 18.5 78.228C18.5 80.1954 20.0949 81.7903 22.0622 81.7903C29.9414 81.7903 48.7704 81.7903 56.6495 81.7903C58.6169 81.7903 60.2118 80.1954 60.2118 78.228C60.2118 72.357 60.2118 60.7151 60.2118 54.8435Z" fill="#A3B8FF"/>
</g>
<path fill-rule="evenodd" clip-rule="evenodd" d="M60.2117 43.6677C60.2117 41.7003 58.6168 40.1055 56.6495 40.1055C47.1159 40.1055 21.0958 40.1055 11.5622 40.1055C9.59486 40.1055 8 41.7003 8 43.6677C8 51.5423 8 70.3529 8 78.2275C8 80.1949 9.59486 81.7897 11.5622 81.7897C21.0958 81.7897 47.1159 81.7897 56.6495 81.7897C58.6168 81.7897 60.2117 80.1949 60.2117 78.2275C60.2117 70.3529 60.2117 51.5423 60.2117 43.6677Z" fill="url(#paint7_linear_2319_311144)"/>
<path fill-rule="evenodd" clip-rule="evenodd" d="M52.9895 37.4423C52.9895 36.8642 52.76 36.3095 52.3509 35.9004C51.9417 35.4912 51.3871 35.2617 50.809 35.2617C49.9189 35.2617 48.892 35.2617 48.0019 35.2617C47.4233 35.2617 46.8686 35.4912 46.46 35.9004C46.0508 36.3095 45.8208 36.8642 45.8208 37.4423C45.8208 39.8636 45.8208 43.435 45.8208 43.435H52.9895V37.4423Z" fill="url(#paint8_linear_2319_311144)"/>
<path fill-rule="evenodd" clip-rule="evenodd" d="M22.3909 37.4423C22.3909 36.8642 22.1609 36.3095 21.7517 35.9004C21.3431 35.4912 20.7879 35.2617 20.2098 35.2617C19.3198 35.2617 18.2928 35.2617 17.4028 35.2617C16.8247 35.2617 16.27 35.4912 15.8608 35.9004C15.4517 36.3095 15.2222 36.8642 15.2222 37.4423C15.2222 39.8636 15.2222 43.435 15.2222 43.435H22.3909V37.4423Z" fill="url(#paint9_linear_2319_311144)"/>
<path fill-rule="evenodd" clip-rule="evenodd" d="M60.2117 43.6677C60.2117 41.7003 58.6168 40.1055 56.6495 40.1055C47.1159 40.1055 21.0958 40.1055 11.5622 40.1055C9.59486 40.1055 8 41.7003 8 43.6677C8 45.8702 8 48.2788 8 48.2788H60.2117V43.6677Z" fill="url(#paint10_linear_2319_311144)"/>
<path fill-rule="evenodd" clip-rule="evenodd" d="M35.4254 60.5529H24.6084C23.2039 60.5529 22.064 61.6928 22.064 63.0973C22.064 64.5013 23.2039 65.6418 24.6084 65.6418H35.4254L32.8601 68.2066C31.8672 69.1999 31.8672 70.8121 32.8601 71.8049C33.8534 72.7983 35.4656 72.7983 36.4585 71.8049L43.3677 64.8962C44.361 63.9029 44.361 62.2917 43.3677 61.2979L36.4585 54.3892C35.4656 53.3963 33.8534 53.3963 32.8601 54.3892C31.8672 55.382 31.8672 56.9947 32.8601 57.9875L35.4254 60.5529Z" fill="url(#paint11_linear_2319_311144)"/>
<path fill-rule="evenodd" clip-rule="evenodd" d="M66.298 35.4331L77.5414 24.5454C78.1206 23.9846 78.1353 23.0589 77.5745 22.4798C77.0137 21.9002 76.088 21.8854 75.5089 22.4462L64.2655 33.3339C63.6864 33.8947 63.6716 34.8204 64.2324 35.3995C64.7932 35.9792 65.7189 35.9939 66.298 35.4331Z" fill="#9FB5FD"/>
<path fill-rule="evenodd" clip-rule="evenodd" d="M69.4658 42.2959L81.0823 38.1536C81.8416 37.8828 82.2385 37.0462 81.9673 36.287C81.6965 35.5277 80.8604 35.1307 80.1007 35.4015L68.4847 39.5439C67.7254 39.8146 67.3285 40.6507 67.5992 41.4105C67.87 42.1697 68.7066 42.5667 69.4658 42.2959Z" fill="#9FB5FD"/>
<path fill-rule="evenodd" clip-rule="evenodd" d="M60.0062 31.5753L61.9659 23.8188C62.1639 23.0371 61.6896 22.2422 60.9079 22.0448C60.1258 21.8473 59.3309 22.3216 59.1334 23.1033L57.1732 30.8598C56.9757 31.6414 57.45 32.4363 58.2317 32.6338C59.0133 32.8312 59.8082 32.3569 60.0062 31.5753Z" fill="#9FB5FD"/>
<defs>
<filter id="filter0_f_2319_311144" x="2.59524" y="35.3765" width="73.5214" height="62.3193" filterUnits="userSpaceOnUse" color-interpolation-filters="sRGB">
<feFlood flood-opacity="0" result="BackgroundImageFix"/>
<feBlend mode="normal" in="SourceGraphic" in2="BackgroundImageFix" result="shape"/>
<feGaussianBlur stdDeviation="7.95238" result="effect1_foregroundBlur_2319_311144"/>
</filter>
<linearGradient id="paint0_linear_2319_311144" x1="120.036" y1="48.5418" x2="14.1067" y2="129.665" gradientUnits="userSpaceOnUse">
<stop stop-color="#E3E9FE"/>
<stop offset="1" stop-color="#D5DEFE"/>
</linearGradient>
<linearGradient id="paint1_linear_2319_311144" x1="119.968" y1="52.5704" x2="8.66465" y2="68.0232" gradientUnits="userSpaceOnUse">
<stop stop-color="#D7E0FE"/>
<stop offset="1" stop-color="#B1C2FC"/>
</linearGradient>
<linearGradient id="paint2_linear_2319_311144" x1="144.886" y1="51.2801" x2="130.487" y2="122.287" gradientUnits="userSpaceOnUse">
<stop stop-color="#F6F8FF"/>
<stop offset="1" stop-color="#E4EAFD"/>
</linearGradient>
<linearGradient id="paint3_linear_2319_311144" x1="155.742" y1="49.9459" x2="127.604" y2="157.528" gradientUnits="userSpaceOnUse">
<stop stop-color="#E3E9FE"/>
<stop offset="1" stop-color="#B1C2FC"/>
</linearGradient>
<linearGradient id="paint4_linear_2319_311144" x1="82.8905" y1="92.9088" x2="92.2761" y2="115.753" gradientUnits="userSpaceOnUse">
<stop stop-color="#C7D3FE"/>
<stop offset="1" stop-color="#A0B5FC"/>
</linearGradient>
<linearGradient id="paint5_linear_2319_311144" x1="49.1306" y1="92.9088" x2="58.5163" y2="115.753" gradientUnits="userSpaceOnUse">
<stop stop-color="#C7D3FE"/>
<stop offset="1" stop-color="#A0B5FC"/>
</linearGradient>
<linearGradient id="paint6_linear_2319_311144" x1="63.6715" y1="66.6648" x2="104.185" y2="85.4596" gradientUnits="userSpaceOnUse">
<stop stop-color="#BECDFE"/>
<stop offset="1" stop-color="#7C99FB"/>
</linearGradient>
<linearGradient id="paint7_linear_2319_311144" x1="57.4612" y1="40.2759" x2="-30.5216" y2="80.9417" gradientUnits="userSpaceOnUse">
<stop stop-color="#F6F8FF"/>
<stop offset="0.44" stop-color="#EDF0FE"/>
<stop offset="1" stop-color="#D7DFFC"/>
</linearGradient>
<linearGradient id="paint8_linear_2319_311144" x1="59.5741" y1="34.4546" x2="59.5657" y2="47.5874" gradientUnits="userSpaceOnUse">
<stop stop-color="#E3E9FE"/>
<stop offset="1" stop-color="#B1C2FC"/>
</linearGradient>
<linearGradient id="paint9_linear_2319_311144" x1="28.9751" y1="34.4546" x2="28.9667" y2="47.5874" gradientUnits="userSpaceOnUse">
<stop stop-color="#E3E9FE"/>
<stop offset="1" stop-color="#B1C2FC"/>
</linearGradient>
<linearGradient id="paint10_linear_2319_311144" x1="59.5227" y1="39.8339" x2="59.3194" y2="60.2879" gradientUnits="userSpaceOnUse">
<stop stop-color="#E3E9FE"/>
<stop offset="1" stop-color="#D5DEFE"/>
</linearGradient>
<linearGradient id="paint11_linear_2319_311144" x1="28.3283" y1="41.6439" x2="46.848" y2="67.5053" gradientUnits="userSpaceOnUse">
<stop stop-color="#BECDFE"/>
<stop offset="1" stop-color="#7C99FB"/>
</linearGradient>
</defs>
</svg>
