<svg width="24" height="24" viewBox="0 0 24 24" fill="none" xmlns="http://www.w3.org/2000/svg">
<path d="M21 5C21 3.89543 20.1046 3 19 3L5 3C3.89543 3 3 3.89543 3 5L3 19C3 20.1046 3.89543 21 5 21L13.6716 21C14.202 21 14.7107 20.7893 15.0858 20.4142L20.4142 15.0858C20.7893 14.7107 21 14.202 21 13.6716L21 5Z" fill="#B2CCFF"/>
<path d="M21.7929 17.1798C22.4229 16.5498 21.9767 15.4727 21.0858 15.4727L16.5 15.4727C15.9477 15.4727 15.5 15.9204 15.5 16.4727L15.5 21.0584C15.5 21.9493 16.5771 22.3955 17.2071 21.7655L21.7929 17.1798Z" fill="#3663F2"/>
<rect x="6" y="6" width="6" height="2" rx="1" fill="#3663F2"/>
<rect x="6" y="9" width="9" height="2" rx="1" fill="#3663F2"/>
</svg>
