<svg width="56" height="56" viewBox="0 0 56 56" fill="none" xmlns="http://www.w3.org/2000/svg">
<path d="M22 19C22 22.866 18.866 26 15 26C11.134 26 8 22.866 8 19C8 13 15 8 15 8C15 8 22 13 22 19Z" fill="#6ABEFC"/>
<path d="M48 16.5556C48 19.5624 45.7614 22 43 22C40.2386 22 38 19.5624 38 16.5556C38 11.8889 43 8 43 8C43 8 48 11.8889 48 16.5556Z" fill="#6ABEFC"/>
<path d="M40 38.6667C40 43.8213 35.9706 48 31 48C26.0294 48 22 43.8213 22 38.6667C22 30.6667 31 24 31 24C31 24 40 30.6667 40 38.6667Z" fill="#6ABEFC"/>
</svg>
