<svg width="156" height="156" viewBox="0 0 156 156" fill="none" xmlns="http://www.w3.org/2000/svg">
<path fill-rule="evenodd" clip-rule="evenodd" d="M109.014 52.2662C109.014 50.5737 108.342 48.9509 107.145 47.7543C105.948 46.5582 104.325 45.8859 102.633 45.8859C86.7799 45.8859 41.262 45.8859 41.262 45.8859L33.9711 38.6367H14.3803C10.8564 38.6367 8 41.4937 8 45.0176C8 62.0738 8 108.862 8 130.016C8 132.836 9.1198 135.541 11.1145 137.536C13.1085 139.53 15.8136 140.65 18.6336 140.65C44.5779 140.65 109.014 140.65 109.014 140.65V52.2662Z" fill="url(#paint0_linear_2974_421970)"/>
<path fill-rule="evenodd" clip-rule="evenodd" d="M111.834 47.1689C111.796 46.6945 111.569 46.2553 111.205 45.9484C110.841 45.6415 110.37 45.4925 109.896 45.5342C97.7793 46.5974 27.9262 52.728 15.8736 53.7858C14.8938 53.8716 14.1673 54.7328 14.2478 55.7131C15.1197 66.3324 19.6424 121.442 20.519 132.117C20.5578 132.591 20.7842 133.031 21.1478 133.337C21.5119 133.644 21.9827 133.793 22.4571 133.752C34.5734 132.688 104.427 126.557 116.479 125.499C117.459 125.414 118.185 124.553 118.105 123.573C117.234 112.953 112.71 57.8443 111.834 47.1689Z" fill="#C4D1FD"/>
<path fill-rule="evenodd" clip-rule="evenodd" d="M119.761 51.3035C119.761 50.316 118.961 49.5156 117.973 49.5156C105.843 49.5156 35.7209 49.5156 23.5896 49.5156C22.6021 49.5156 21.8018 50.316 21.8018 51.3035C21.8018 61.9884 21.8018 117.298 21.8018 127.983C21.8018 128.97 22.6021 129.771 23.5896 129.771C35.7209 129.771 105.843 129.771 117.973 129.771C118.961 129.771 119.761 128.97 119.761 127.983C119.761 117.298 119.761 61.9884 119.761 51.3035Z" fill="url(#paint1_linear_2974_421970)"/>
<path fill-rule="evenodd" clip-rule="evenodd" d="M79.8239 65.9522C79.8239 64.7681 78.8644 63.8086 77.6809 63.8086C70.7857 63.8086 39.318 63.8086 32.4228 63.8086C31.2393 63.8086 30.2798 64.7681 30.2798 65.9522C30.2798 67.1358 31.2393 68.0953 32.4228 68.0953C39.318 68.0953 70.7857 68.0953 77.6809 68.0953C78.8644 68.0953 79.8239 67.1358 79.8239 65.9522Z" fill="url(#paint2_linear_2974_421970)"/>
<path fill-rule="evenodd" clip-rule="evenodd" d="M92.6436 75.311C92.6436 74.1275 91.6841 73.168 90.4999 73.168C85.6667 73.168 64.0568 73.168 59.2236 73.168C58.0401 73.168 57.0806 74.1275 57.0806 75.311C57.0806 76.4952 58.0401 77.4547 59.2236 77.4547C64.0568 77.4547 85.6667 77.4547 90.4999 77.4547C91.6841 77.4547 92.6436 76.4952 92.6436 75.311Z" fill="url(#paint3_linear_2974_421970)"/>
<path fill-rule="evenodd" clip-rule="evenodd" d="M103.871 84.671C103.87 83.4869 102.911 82.5273 101.727 82.5273C93.591 82.5273 54.761 82.5273 46.625 82.5273C45.4414 82.5273 44.4819 83.4869 44.4819 84.671C44.4819 85.8546 45.4414 86.8141 46.625 86.8141C54.761 86.8141 93.591 86.8141 101.727 86.8141C102.911 86.8141 103.87 85.8546 103.871 84.671Z" fill="#C4D1FD"/>
<path fill-rule="evenodd" clip-rule="evenodd" d="M106.933 84.4839L108.721 86.093C108.956 86.3052 109.317 86.2957 109.541 86.0716L112.521 83.0918C112.753 82.8588 112.753 82.4816 112.521 82.2485C112.288 82.0161 111.91 82.0161 111.678 82.2485L109.098 84.8284L107.73 83.5978C107.486 83.3779 107.109 83.3975 106.889 83.6419C106.668 83.8868 106.689 84.264 106.933 84.4839Z" fill="#9AB0FC"/>
<path fill-rule="evenodd" clip-rule="evenodd" d="M106.933 103.246L108.721 104.855C108.956 105.067 109.317 105.057 109.541 104.833L112.521 101.853C112.753 101.621 112.753 101.243 112.521 101.011C112.288 100.778 111.91 100.778 111.678 101.011L109.098 103.591L107.73 102.359C107.486 102.139 107.109 102.16 106.889 102.404C106.668 102.648 106.689 103.026 106.933 103.246Z" fill="#9AB0FC"/>
<path fill-rule="evenodd" clip-rule="evenodd" d="M91.0208 55.582C91.0208 54.8508 90.4279 54.2578 89.6966 54.2578C84.6697 54.2578 56.8935 54.2578 51.8672 54.2578C51.1359 54.2578 50.543 54.8508 50.543 55.582C50.543 56.3133 51.1359 56.9062 51.8672 56.9062C56.8935 56.9062 84.6697 56.9062 89.6966 56.9062C90.4279 56.9062 91.0208 56.3133 91.0208 55.582Z" fill="#C4D1FD"/>
<path fill-rule="evenodd" clip-rule="evenodd" d="M82.8111 94.0259C82.8111 92.8423 81.8516 91.8828 80.6681 91.8828C74.336 91.8828 45.8559 91.8828 39.5245 91.8828C38.3409 91.8828 37.3809 92.8423 37.3809 94.0259C37.3809 95.21 38.3409 96.1695 39.5245 96.1695C45.8559 96.1695 74.336 96.1695 80.6681 96.1695C81.8516 96.1695 82.8111 95.21 82.8111 94.0259Z" fill="url(#paint4_linear_2974_421970)"/>
<path fill-rule="evenodd" clip-rule="evenodd" d="M103.871 103.386C103.87 102.202 102.911 101.242 101.727 101.242C94.8321 101.242 63.3644 101.242 56.4692 101.242C55.2857 101.242 54.3262 102.202 54.3262 103.386C54.3262 104.569 55.2857 105.529 56.4692 105.529C63.3644 105.529 94.8321 105.529 101.727 105.529C102.911 105.529 103.87 104.569 103.871 103.386Z" fill="#C4D1FD"/>
<path fill-rule="evenodd" clip-rule="evenodd" d="M29.5116 130.017C29.5116 124.429 29.5116 114.134 29.5116 114.134C29.5116 110.61 32.3686 107.754 35.8919 107.754C54.0673 107.754 105.97 107.754 124.145 107.754C127.669 107.754 130.525 110.61 130.525 114.134C130.525 121.164 130.525 121.63 130.525 130.017C130.525 132.838 129.405 135.542 127.411 137.537C125.417 139.531 122.712 140.651 119.892 140.651H18.8779C21.698 140.651 24.403 139.531 26.3971 137.537C28.3912 135.542 29.5116 132.838 29.5116 130.017Z" fill="url(#paint5_linear_2974_421970)"/>
<g filter="url(#filter0_f_2974_421970)">
<path fill-rule="evenodd" clip-rule="evenodd" d="M103.674 63.2815C104.226 62.0026 103.968 60.5186 103.018 59.5001C100.348 56.6163 98.3273 53.1222 97.1878 49.2527C97.021 48.6853 95.8249 44.913 97.7719 46.466C102.404 50.1604 116.148 62.2129 120.095 66.8238C121.278 68.2047 118.25 67.5837 118.02 67.5473C116.084 67.2362 114.099 67.4836 112.299 68.2595C109.889 69.2571 105.31 72.3799 102.553 73.5689C101.8 73.8931 100.925 73.7256 100.345 73.1458C99.7654 72.5665 99.5979 71.6916 99.9227 70.9383C100.806 68.8882 102.966 64.9257 103.674 63.2815Z" fill="#CED9FF"/>
</g>
<path fill-rule="evenodd" clip-rule="evenodd" d="M103.674 63.2813C104.226 62.0024 103.968 60.5184 103.018 59.4999C98.745 54.8855 96.1377 48.7102 96.1377 41.9312C96.1377 27.6193 107.757 16 122.069 16C136.381 16 148 27.6193 148 41.9312C148 56.2425 136.381 67.8618 122.069 67.8618C120.692 67.8618 119.339 67.7545 118.02 67.5471C116.084 67.236 114.099 67.4834 112.299 68.2593C109.889 69.2569 106.47 70.7313 103.713 71.9202C102.961 72.2444 102.086 72.077 101.506 71.4977C100.926 70.9179 100.759 70.043 101.084 69.2897C101.967 67.2402 102.966 64.9255 103.674 63.2813Z" fill="url(#paint6_linear_2974_421970)"/>
<path fill-rule="evenodd" clip-rule="evenodd" d="M121.992 29.4381C128.309 29.4381 133.43 34.5591 133.43 40.8763C133.43 47.1934 128.309 52.3144 121.992 52.3144C119.062 52.3144 116.39 51.2131 114.367 49.402C113.778 48.8758 112.874 48.9258 112.347 49.5141C111.821 50.1023 111.871 51.0069 112.46 51.5331C114.989 53.7972 118.33 55.1738 121.992 55.1738C129.888 55.1738 136.289 48.7727 136.289 40.8763C136.289 32.9799 129.888 26.5781 121.992 26.5781C121.202 26.5781 120.562 27.2188 120.562 28.0084C120.562 28.7975 121.202 29.4381 121.992 29.4381Z" fill="#688AFA"/>
<path fill-rule="evenodd" clip-rule="evenodd" d="M110.744 49.7041C111.066 50.1154 111.416 50.5147 111.795 50.8997C112.349 51.4616 113.255 51.4694 113.817 50.9157C114.379 50.3621 114.387 49.4562 113.833 48.8937C113.532 48.5873 113.253 48.2697 112.997 47.9425C112.511 47.3209 111.611 47.2107 110.99 47.697C110.368 48.1833 110.259 49.0826 110.744 49.7041ZM107.89 42.3745C107.934 42.9013 108.008 43.427 108.111 43.9484C108.265 44.7226 109.018 45.2262 109.791 45.0724C110.566 44.9192 111.07 44.1659 110.916 43.3918C110.833 42.9758 110.775 42.5563 110.74 42.1355C110.674 41.3495 109.982 40.7642 109.195 40.8304C108.409 40.896 107.824 41.5879 107.89 42.3745ZM109.309 34.692C109.083 35.167 108.883 35.6539 108.707 36.1497C108.444 36.8941 108.834 37.7118 109.578 37.9746C110.322 38.238 111.14 37.8476 111.403 37.1033C111.545 36.701 111.709 36.3053 111.892 35.9197C112.231 35.207 111.927 34.3536 111.215 34.0145C110.502 33.6759 109.648 33.9793 109.309 34.692ZM114.443 28.7694C113.994 29.0603 113.565 29.3761 113.157 29.714C112.55 30.2176 112.464 31.1193 112.968 31.7272C113.471 32.335 114.373 32.4197 114.981 31.9167C115.304 31.6491 115.643 31.3988 115.998 31.1688C116.66 30.7397 116.849 29.8535 116.42 29.1914C115.991 28.5293 115.105 28.3403 114.443 28.7694ZM121.992 26.5781C121.453 26.5781 120.926 26.6073 120.411 26.6627C119.627 26.7474 119.059 27.453 119.143 28.2373C119.228 29.0221 119.933 29.5901 120.718 29.5054C121.132 29.4608 121.557 29.4381 121.992 29.4381C122.781 29.4381 123.422 28.7975 123.422 28.0084C123.422 27.2188 122.781 26.5781 121.992 26.5781Z" fill="#688AFA"/>
<path fill-rule="evenodd" clip-rule="evenodd" d="M121.277 35.8711V40.4057C121.277 40.7848 121.126 41.1483 120.858 41.4165L118.836 43.4386C118.278 43.997 118.278 44.9028 118.836 45.4606C119.394 46.0184 120.3 46.0184 120.858 45.4606L122.88 43.4386C123.685 42.634 124.136 41.5434 124.136 40.4057V35.8711C124.136 35.0821 123.496 34.4414 122.707 34.4414C121.918 34.4414 121.277 35.0821 121.277 35.8711Z" fill="#688AFA"/>
<defs>
<filter id="filter0_f_2974_421970" x="86.4814" y="35.9033" width="44.0772" height="48.0196" filterUnits="userSpaceOnUse" color-interpolation-filters="sRGB">
<feFlood flood-opacity="0" result="BackgroundImageFix"/>
<feBlend mode="normal" in="SourceGraphic" in2="BackgroundImageFix" result="shape"/>
<feGaussianBlur stdDeviation="5.09524" result="effect1_foregroundBlur_2974_421970"/>
</filter>
<linearGradient id="paint0_linear_2974_421970" x1="12.7403" y1="39.3256" x2="24.1872" y2="134.045" gradientUnits="userSpaceOnUse">
<stop stop-color="#B8C8FE"/>
<stop offset="1" stop-color="#87A2FB"/>
</linearGradient>
<linearGradient id="paint1_linear_2974_421970" x1="31.6232" y1="51.5562" x2="116.095" y2="142.258" gradientUnits="userSpaceOnUse">
<stop stop-color="#F9FBFF"/>
<stop offset="1" stop-color="#E1E8FD"/>
</linearGradient>
<linearGradient id="paint2_linear_2974_421970" x1="40.1872" y1="80.2265" x2="92.6434" y2="80.2265" gradientUnits="userSpaceOnUse">
<stop stop-color="#B8C8FE"/>
<stop offset="1" stop-color="#87A2FB"/>
</linearGradient>
<linearGradient id="paint3_linear_2974_421970" x1="40.1873" y1="80.2276" x2="92.6435" y2="80.2276" gradientUnits="userSpaceOnUse">
<stop stop-color="#B8C8FE"/>
<stop offset="1" stop-color="#87A2FB"/>
</linearGradient>
<linearGradient id="paint4_linear_2974_421970" x1="40.1875" y1="80.2265" x2="92.6437" y2="80.2265" gradientUnits="userSpaceOnUse">
<stop stop-color="#B8C8FE"/>
<stop offset="1" stop-color="#87A2FB"/>
</linearGradient>
<linearGradient id="paint5_linear_2974_421970" x1="59.1979" y1="97.8789" x2="61.8549" y2="133.628" gradientUnits="userSpaceOnUse">
<stop stop-color="#CFDAFE"/>
<stop offset="1" stop-color="#B4C4FD"/>
</linearGradient>
<linearGradient id="paint6_linear_2974_421970" x1="101.754" y1="10.3998" x2="133.684" y2="74.3595" gradientUnits="userSpaceOnUse">
<stop stop-color="white"/>
<stop offset="1" stop-color="#CBD5F6"/>
</linearGradient>
</defs>
</svg>
