<svg width="100" height="92" viewBox="0 0 100 92" fill="none" xmlns="http://www.w3.org/2000/svg">
<g filter="url(#filter0_f_1622_210528)">
<path d="M55.009 72.4096C69.104 72.4096 80.5302 60.9834 80.5302 46.8884C80.5302 32.7934 69.104 21.3672 55.009 21.3672C40.914 21.3672 29.4878 32.7934 29.4878 46.8884C29.4878 60.9834 40.914 72.4096 55.009 72.4096Z" fill="#D4DBF2"/>
</g>
<path d="M52.7488 69.6987C66.8438 69.6987 78.27 58.2725 78.27 44.1775C78.27 30.0825 66.8438 18.6562 52.7488 18.6562C38.6538 18.6562 27.2275 30.0825 27.2275 44.1775C27.2275 58.2725 38.6538 69.6987 52.7488 69.6987Z" fill="url(#paint0_linear_1622_210528)"/>
<path fill-rule="evenodd" clip-rule="evenodd" d="M52.7478 17.082C67.7017 17.082 79.8425 29.2228 79.8425 44.1767C79.8425 59.1306 67.7017 71.2714 52.7478 71.2714C37.7939 71.2714 25.6532 59.1306 25.6532 44.1767C25.6532 39.9482 26.6237 35.9447 28.3544 32.377L28.3435 32.3732C27.2943 32.0193 26.3806 31.8407 25.4533 31.7722C25.0128 31.7389 24.6311 31.454 24.4743 31.0409C24.3173 30.628 24.4131 30.1613 24.7206 29.844C27.243 27.2583 30.8464 25.3861 34.3852 24.5129C34.7229 24.4323 35.0788 24.5128 35.3488 24.731C35.6189 24.9492 35.7723 25.2804 35.7644 25.6275C35.6852 28.2392 35.5058 31.2924 35.5771 34.2841C35.594 34.7202 35.3622 35.1277 34.9788 35.336C34.5957 35.5444 34.1276 35.5173 33.771 35.2664C32.9562 34.7085 32.0793 34.2091 31.208 33.7427L31.2017 33.7549C29.673 36.9062 28.8156 40.4416 28.8156 44.1767C28.8156 57.3851 39.5391 68.1086 52.7478 68.1086C65.9563 68.1086 76.6798 57.3851 76.6798 44.1767C76.6798 30.9682 65.9563 20.2445 52.7478 20.2445C49.7921 20.1953 50.1269 17.082 52.7478 17.082Z" fill="url(#paint1_linear_1622_210528)"/>
<path d="M52.7486 46.5939C54.084 46.5939 55.1666 45.5113 55.1666 44.1759C55.1666 42.8404 54.084 41.7578 52.7486 41.7578C51.4132 41.7578 50.3306 42.8404 50.3306 44.1759C50.3306 45.5113 51.4132 46.5939 52.7486 46.5939Z" fill="#C2D0FC"/>
<g filter="url(#filter1_f_1622_210528)">
<path fill-rule="evenodd" clip-rule="evenodd" d="M51.3553 47.7045L66.5394 32.5206C66.8092 32.2505 66.8092 31.8123 66.5394 31.5422C66.2693 31.2724 65.8311 31.2724 65.5613 31.5422L50.3772 46.7263C50.1074 46.9961 50.1074 47.4344 50.3772 47.7045C50.6472 47.9743 51.0855 47.9743 51.3553 47.7045Z" fill="#A7B6E4"/>
</g>
<g filter="url(#filter2_f_1622_210528)">
<path fill-rule="evenodd" clip-rule="evenodd" d="M49.6328 43.1723L58.5898 51.3082C58.8724 51.5649 59.3104 51.5439 59.5668 51.2612C59.8235 50.9786 59.8025 50.5409 59.5201 50.2842L50.5629 42.1483C50.2805 41.8916 49.8425 41.9127 49.5858 42.1953C49.3291 42.4779 49.3502 42.9156 49.6328 43.1723Z" fill="#A7B6E4"/>
</g>
<path fill-rule="evenodd" clip-rule="evenodd" d="M53.4473 61.8534C53.4104 61.4952 53.1084 61.2229 52.7482 61.2227C52.7479 61.2227 52.7477 61.2227 52.7474 61.2227C52.3872 61.2229 52.0855 61.4952 52.0483 61.8534C51.9653 62.6546 51.8208 64.0522 51.7184 65.0429C51.6881 65.3346 51.7829 65.6251 51.9792 65.8427C52.1756 66.0604 52.4547 66.1844 52.7477 66.1844H52.7479C53.0409 66.1844 53.3203 66.0604 53.5163 65.8427C53.7127 65.6251 53.8074 65.3346 53.7774 65.0429C53.6747 64.0522 53.5303 62.6546 53.4473 61.8534Z" fill="url(#paint2_linear_1622_210528)"/>
<path fill-rule="evenodd" clip-rule="evenodd" d="M53.4473 26.4992C53.4104 26.8574 53.1084 27.1297 52.7482 27.1297C52.7479 27.1297 52.7477 27.1297 52.7474 27.1297C52.3872 27.1297 52.0855 26.8574 52.0483 26.4992C51.9653 25.698 51.8208 24.3001 51.7184 23.3094C51.6881 23.018 51.7829 22.7275 51.9792 22.5099C52.1756 22.2922 52.4547 22.168 52.7477 22.168H52.7479C53.0409 22.168 53.3203 22.2922 53.5163 22.5099C53.7127 22.7275 53.8074 23.018 53.7774 23.3094C53.6747 24.3001 53.5303 25.698 53.4473 26.4992Z" fill="url(#paint3_linear_1622_210528)"/>
<path fill-rule="evenodd" clip-rule="evenodd" d="M35.0704 44.875C35.4287 44.8381 35.701 44.5361 35.701 44.1759C35.701 44.1757 35.701 44.1754 35.701 44.1751C35.701 43.8149 35.4287 43.5132 35.0704 43.476C34.2693 43.3933 32.8714 43.2486 31.8807 43.1462C31.5893 43.1159 31.2988 43.2106 31.0811 43.4069C30.8635 43.6033 30.7393 43.8826 30.7393 44.1756C30.7393 44.4686 30.8635 44.748 31.0811 44.9443C31.2988 45.1404 31.5893 45.2352 31.8807 45.2051C32.8714 45.1027 34.2693 44.958 35.0704 44.875Z" fill="url(#paint4_linear_1622_210528)"/>
<path fill-rule="evenodd" clip-rule="evenodd" d="M70.4259 44.875C70.0677 44.8381 69.7954 44.5361 69.7954 44.1759C69.7954 44.1757 69.7954 44.1754 69.7954 44.1751C69.7954 43.8149 70.0677 43.5132 70.4259 43.476C71.2274 43.3933 72.625 43.2486 73.6157 43.1462C73.9073 43.1159 74.1979 43.2106 74.4155 43.4069C74.6329 43.6033 74.7571 43.8826 74.7571 44.1756C74.7571 44.4686 74.6329 44.748 74.4155 44.9443C74.1979 45.1404 73.9073 45.2352 73.6157 45.2051C72.625 45.1027 71.2274 44.958 70.4259 44.875Z" fill="url(#paint5_linear_1622_210528)"/>
<path fill-rule="evenodd" clip-rule="evenodd" d="M49.6328 42.1176L58.5898 50.2535C58.8724 50.5102 59.3104 50.4892 59.5668 50.2065C59.8235 49.9242 59.8025 49.4862 59.5201 49.2295L50.5629 41.0936C50.2805 40.8369 49.8425 40.858 49.5858 41.1406C49.3291 41.4232 49.3502 41.861 49.6328 42.1176Z" fill="#A7B6E4"/>
<path fill-rule="evenodd" clip-rule="evenodd" d="M50.5111 47.4935L65.6952 32.3096C65.965 32.0395 65.965 31.6013 65.6952 31.3315C65.4251 31.0614 64.9868 31.0614 64.7168 31.3315L49.5329 46.5153C49.2631 46.7851 49.2631 47.2234 49.5329 47.4935C49.803 47.7633 50.2413 47.7633 50.5111 47.4935Z" fill="#A7B6E4"/>
<g filter="url(#filter3_f_1622_210528)">
<path fill-rule="evenodd" clip-rule="evenodd" d="M80.5446 10.0236C80.668 9.75461 80.937 9.58203 81.2333 9.58203C81.5293 9.58203 81.7982 9.75461 81.9217 10.0236L84.0077 14.5746L88.5584 16.6603C88.8276 16.7837 89.0002 17.0527 89.0002 17.349C89.0002 17.645 88.8276 17.914 88.5584 18.0374L84.0077 20.1234L81.9217 24.6741C81.7982 24.9434 81.5293 25.1159 81.2333 25.1159C80.937 25.1159 80.668 24.9434 80.5446 24.6741L78.4589 20.1234L73.9079 18.0374C73.6389 17.914 73.4663 17.645 73.4663 17.349C73.4663 17.0527 73.6389 16.7837 73.9079 16.6603L78.4589 14.5746L80.5446 10.0236Z" fill="#D8E0F8"/>
</g>
<g filter="url(#filter4_f_1622_210528)">
<path fill-rule="evenodd" clip-rule="evenodd" d="M15.6338 36.1584C15.725 35.9596 15.9238 35.832 16.1425 35.832C16.3612 35.832 16.5598 35.9596 16.651 36.1584L18.1916 39.5199L21.5531 41.0605C21.7519 41.1517 21.8795 41.3505 21.8795 41.5693C21.8795 41.788 21.7519 41.9865 21.5531 42.0777L18.1916 43.6187L16.651 46.9799C16.5598 47.179 16.3612 47.3062 16.1425 47.3062C15.9238 47.3062 15.725 47.179 15.6338 46.9799L14.0931 43.6187L10.7316 42.0777C10.5328 41.9865 10.4053 41.788 10.4053 41.5693C10.4053 41.3505 10.5328 41.1517 10.7316 41.0605L14.0931 39.5199L15.6338 36.1584Z" fill="#D8E0F8"/>
</g>
<g filter="url(#filter5_f_1622_210528)">
<path fill-rule="evenodd" clip-rule="evenodd" d="M38.3652 8.70236C38.4359 8.54807 38.5899 8.44922 38.7595 8.44922C38.9293 8.44922 39.0833 8.54807 39.1541 8.70236L40.349 11.3094L42.956 12.5046C43.1103 12.575 43.2092 12.7293 43.2092 12.8989C43.2092 13.0685 43.1103 13.2228 42.956 13.2932L40.349 14.4885L39.1541 17.0955C39.0833 17.2498 38.9293 17.3486 38.7595 17.3486C38.5899 17.3486 38.4359 17.2498 38.3652 17.0955L37.1702 14.4885L34.5632 13.2932C34.4089 13.2228 34.3101 13.0685 34.3101 12.8989C34.3101 12.7293 34.4089 12.575 34.5632 12.5046L37.1702 11.3094L38.3652 8.70236Z" fill="#D8E0F8"/>
</g>
<path fill-rule="evenodd" clip-rule="evenodd" d="M79.5088 8.17558C79.6472 7.87329 79.949 7.67969 80.2816 7.67969C80.6139 7.67969 80.9156 7.87329 81.0543 8.17558L83.3957 13.2837L88.5037 15.625C88.8057 15.7634 88.9996 16.0654 88.9996 16.3978C88.9996 16.7301 88.8057 17.0321 88.5037 17.1705L83.3957 19.5119L81.0543 24.6199C80.9156 24.9219 80.6139 25.1158 80.2816 25.1158C79.949 25.1158 79.6472 24.9219 79.5088 24.6199L77.1672 19.5119L72.0594 17.1705C71.7571 17.0321 71.5635 16.7301 71.5635 16.3978C71.5635 16.0654 71.7571 15.7634 72.0594 15.625L77.1672 13.2837L79.5088 8.17558Z" fill="url(#paint6_linear_1622_210528)"/>
<path fill-rule="evenodd" clip-rule="evenodd" d="M14.8688 34.7959C14.971 34.5728 15.1941 34.4297 15.4396 34.4297C15.6851 34.4297 15.9082 34.5728 16.0103 34.7959L17.7399 38.5689L21.5129 40.2985C21.736 40.4007 21.8791 40.6238 21.8791 40.8693C21.8791 41.1148 21.736 41.3378 21.5129 41.44L17.7399 43.1696L16.0103 46.9426C15.9082 47.1657 15.6851 47.3088 15.4396 47.3088C15.1941 47.3088 14.971 47.1657 14.8688 46.9426L13.1392 43.1696L9.36619 41.44C9.14309 41.3378 9 41.1148 9 40.8693C9 40.6238 9.14309 40.4007 9.36619 40.2985L13.1392 38.5689L14.8688 34.7959Z" fill="url(#paint7_linear_1622_210528)"/>
<path fill-rule="evenodd" clip-rule="evenodd" d="M37.772 7.64337C37.8512 7.47024 38.0243 7.35938 38.2147 7.35938C38.405 7.35938 38.5781 7.47024 38.6573 7.64337L39.9987 10.5696L42.9252 11.9109C43.0983 11.9904 43.2092 12.1632 43.2092 12.3538C43.2092 12.5442 43.0983 12.717 42.9252 12.7965L39.9987 14.1378L38.6573 17.064C38.5781 17.2372 38.405 17.3483 38.2147 17.3483C38.0243 17.3483 37.8512 17.2372 37.772 17.064L36.4307 14.1378L33.5042 12.7965C33.3311 12.717 33.2202 12.5442 33.2202 12.3538C33.2202 12.1632 33.3311 11.9904 33.5042 11.9109L36.4307 10.5696L37.772 7.64337Z" fill="url(#paint8_linear_1622_210528)"/>
<defs>
<filter id="filter0_f_1622_210528" x="10.5354" y="2.41481" width="88.9472" height="88.9477" filterUnits="userSpaceOnUse" color-interpolation-filters="sRGB">
<feFlood flood-opacity="0" result="BackgroundImageFix"/>
<feBlend mode="normal" in="SourceGraphic" in2="BackgroundImageFix" result="shape"/>
<feGaussianBlur stdDeviation="9.47619" result="effect1_foregroundBlur_1622_210528"/>
</filter>
<filter id="filter1_f_1622_210528" x="44.0942" y="25.2592" width="28.7282" height="28.7277" filterUnits="userSpaceOnUse" color-interpolation-filters="sRGB">
<feFlood flood-opacity="0" result="BackgroundImageFix"/>
<feBlend mode="normal" in="SourceGraphic" in2="BackgroundImageFix" result="shape"/>
<feGaussianBlur stdDeviation="3.04032" result="effect1_foregroundBlur_1622_210528"/>
</filter>
<filter id="filter2_f_1622_210528" x="42.9681" y="35.5306" width="23.2166" height="22.3958" filterUnits="userSpaceOnUse" color-interpolation-filters="sRGB">
<feFlood flood-opacity="0" result="BackgroundImageFix"/>
<feBlend mode="normal" in="SourceGraphic" in2="BackgroundImageFix" result="shape"/>
<feGaussianBlur stdDeviation="3.21907" result="effect1_foregroundBlur_1622_210528"/>
</filter>
<filter id="filter3_f_1622_210528" x="64.0377" y="0.153451" width="34.3909" height="34.3904" filterUnits="userSpaceOnUse" color-interpolation-filters="sRGB">
<feFlood flood-opacity="0" result="BackgroundImageFix"/>
<feBlend mode="normal" in="SourceGraphic" in2="BackgroundImageFix" result="shape"/>
<feGaussianBlur stdDeviation="4.71429" result="effect1_foregroundBlur_1622_210528"/>
</filter>
<filter id="filter4_f_1622_210528" x="0.976693" y="26.4035" width="30.3313" height="30.3318" filterUnits="userSpaceOnUse" color-interpolation-filters="sRGB">
<feFlood flood-opacity="0" result="BackgroundImageFix"/>
<feBlend mode="normal" in="SourceGraphic" in2="BackgroundImageFix" result="shape"/>
<feGaussianBlur stdDeviation="4.71429" result="effect1_foregroundBlur_1622_210528"/>
</filter>
<filter id="filter5_f_1622_210528" x="30.9767" y="5.11588" width="15.5656" height="15.5651" filterUnits="userSpaceOnUse" color-interpolation-filters="sRGB">
<feFlood flood-opacity="0" result="BackgroundImageFix"/>
<feBlend mode="normal" in="SourceGraphic" in2="BackgroundImageFix" result="shape"/>
<feGaussianBlur stdDeviation="1.66667" result="effect1_foregroundBlur_1622_210528"/>
</filter>
<linearGradient id="paint0_linear_1622_210528" x1="37.8626" y1="18.4162" x2="67.8717" y2="71.3461" gradientUnits="userSpaceOnUse">
<stop stop-color="white"/>
<stop offset="1" stop-color="#C6D2FB"/>
</linearGradient>
<linearGradient id="paint1_linear_1622_210528" x1="69.4639" y1="20.5967" x2="22.1518" y2="79.6904" gradientUnits="userSpaceOnUse">
<stop stop-color="#D6DFFB"/>
<stop offset="0.45" stop-color="#C2D0F9"/>
<stop offset="1" stop-color="#9DB2F3"/>
</linearGradient>
<linearGradient id="paint2_linear_1622_210528" x1="51.2029" y1="59.1798" x2="56.2613" y2="62.6478" gradientUnits="userSpaceOnUse">
<stop stop-color="#D8E0FE"/>
<stop offset="1" stop-color="#B1C1FA"/>
</linearGradient>
<linearGradient id="paint3_linear_1622_210528" x1="51.4962" y1="22.3578" x2="55.1104" y2="23.3646" gradientUnits="userSpaceOnUse">
<stop stop-color="#D8E0FE"/>
<stop offset="1" stop-color="#B1C1FA"/>
</linearGradient>
<linearGradient id="paint4_linear_1622_210528" x1="32.0825" y1="42.2784" x2="32.4133" y2="45.1042" gradientUnits="userSpaceOnUse">
<stop stop-color="#D8E0FE"/>
<stop offset="1" stop-color="#B1C1FA"/>
</linearGradient>
<linearGradient id="paint5_linear_1622_210528" x1="69.8388" y1="42.4821" x2="70.535" y2="45.4534" gradientUnits="userSpaceOnUse">
<stop stop-color="#D8E0FE"/>
<stop offset="1" stop-color="#B1C1FA"/>
</linearGradient>
<linearGradient id="paint6_linear_1622_210528" x1="71.5635" y1="2.9744" x2="77.1" y2="30.7485" gradientUnits="userSpaceOnUse">
<stop stop-color="white"/>
<stop offset="1" stop-color="#C6D2FB"/>
</linearGradient>
<linearGradient id="paint7_linear_1622_210528" x1="9" y1="30.954" x2="13.0895" y2="51.4695" gradientUnits="userSpaceOnUse">
<stop stop-color="white"/>
<stop offset="1" stop-color="#C6D2FB"/>
</linearGradient>
<linearGradient id="paint8_linear_1622_210528" x1="33.2202" y1="4.66362" x2="36.392" y2="20.5751" gradientUnits="userSpaceOnUse">
<stop stop-color="white"/>
<stop offset="1" stop-color="#C6D2FB"/>
</linearGradient>
</defs>
</svg>
