<svg width="156" height="156" viewBox="0 0 156 156" fill="none" xmlns="http://www.w3.org/2000/svg">
<path fill-rule="evenodd" clip-rule="evenodd" d="M132.047 37.4535C132.047 37.1046 131.909 36.7671 131.662 36.5251C131.416 36.2775 131.082 36.1367 130.733 36.1367C119.72 36.1367 32.8272 36.1367 12.3053 36.1367C11.1586 36.1367 10.0596 36.5981 9.25154 37.4084C8.4435 38.2244 7.99277 39.3272 8.00009 40.4695C8.09969 56.0958 8.439 109.452 8.53803 124.988C8.55323 127.351 10.476 129.264 12.8433 129.264C31.2927 129.264 103.126 129.264 103.126 129.264C119.035 126.817 128.675 119.53 132.047 107.387V37.4535Z" fill="url(#paint0_linear_2974_421962)"/>
<path fill-rule="evenodd" clip-rule="evenodd" d="M132.047 107.387C128.645 119.749 118.872 126.935 103.126 129.265C103.126 129.265 110.524 121.105 113.228 109.547C113.442 108.602 114.273 107.921 115.243 107.904C120.439 107.781 126.025 107.617 132.047 107.387Z" fill="url(#paint1_linear_2974_421962)"/>
<path fill-rule="evenodd" clip-rule="evenodd" d="M65.3265 50.1572C65.3265 49.0262 64.8752 47.9345 64.0722 47.1298C63.2687 46.3308 62.1793 45.875 61.0438 45.875C49.5027 45.875 31.423 45.875 19.8819 45.875C18.7458 45.875 17.6564 46.3308 16.8534 47.1298C16.0504 47.9345 15.5991 49.0262 15.5991 50.1572C15.5991 51.2939 16.0504 52.3855 16.8534 53.1902C17.6564 53.9892 18.7458 54.445 19.8819 54.445C31.423 54.445 49.5027 54.445 61.0438 54.445C62.1793 54.445 63.2687 53.9892 64.0722 53.1902C64.8752 52.3855 65.3265 51.2939 65.3265 50.1572Z" fill="url(#paint2_linear_2974_421962)"/>
<path fill-rule="evenodd" clip-rule="evenodd" d="M78.2908 67.3505C78.2908 66.5289 77.6228 65.8594 76.7985 65.8594C68.9313 65.8594 41.3902 65.8594 33.5231 65.8594C32.6993 65.8594 32.0308 66.5289 32.0308 67.3505C32.0308 68.0876 32.0308 68.9712 32.0308 69.7027C32.0308 70.5299 32.6993 71.1938 33.5231 71.1938C41.3902 71.1938 68.9313 71.1938 76.7985 71.1938C77.6228 71.1938 78.2908 70.5299 78.2908 69.7027C78.2908 68.9712 78.2908 68.0876 78.2908 67.3505Z" fill="url(#paint3_linear_2974_421962)"/>
<path fill-rule="evenodd" clip-rule="evenodd" d="M66.2494 77.4444C66.2494 77.0505 66.0924 76.6678 65.8122 76.3864C65.5325 76.1107 65.1527 75.9531 64.7571 75.9531C59.1199 75.9531 39.1608 75.9531 33.5236 75.9531C33.1275 75.9531 32.7476 76.1107 32.468 76.3864C32.1878 76.6678 32.0308 77.0505 32.0308 77.4444C32.0308 78.1759 32.0308 79.0593 32.0308 79.7964C32.0308 80.1903 32.1878 80.5729 32.468 80.8486C32.7476 81.13 33.1275 81.2876 33.5236 81.2876C39.1608 81.2876 59.1199 81.2876 64.7571 81.2876C65.1527 81.2876 65.5325 81.13 65.8122 80.8486C66.0924 80.5729 66.2494 80.1903 66.2494 79.7964C66.2494 79.0593 66.2494 78.1759 66.2494 77.4444Z" fill="url(#paint4_linear_2974_421962)"/>
<path fill-rule="evenodd" clip-rule="evenodd" d="M104.464 87.5397C104.464 86.7125 103.795 86.043 102.971 86.043C93.593 86.043 42.9017 86.043 33.5236 86.043C32.6993 86.043 32.0308 86.7125 32.0308 87.5397C32.0308 88.2712 32.0308 89.1546 32.0308 89.8862C32.0308 90.7133 32.6993 91.383 33.5236 91.383C42.9017 91.383 93.593 91.383 102.971 91.383C103.795 91.383 104.464 90.7133 104.464 89.8862C104.464 89.1546 104.464 88.2712 104.464 87.5397Z" fill="url(#paint5_linear_2974_421962)"/>
<path d="M25.4442 71.1921C26.9179 71.1921 28.1126 69.9975 28.1126 68.5238C28.1126 67.0501 26.9179 65.8555 25.4442 65.8555C23.9705 65.8555 22.7759 67.0501 22.7759 68.5238C22.7759 69.9975 23.9705 71.1921 25.4442 71.1921Z" fill="#93ABFC"/>
<path d="M25.4442 81.2899C26.9179 81.2899 28.1126 80.0951 28.1126 78.6214C28.1126 77.1478 26.9179 75.9531 25.4442 75.9531C23.9705 75.9531 22.7759 77.1478 22.7759 78.6214C22.7759 80.0951 23.9705 81.2899 25.4442 81.2899Z" fill="#93ABFC"/>
<path d="M25.4442 91.3836C26.9179 91.3836 28.1126 90.189 28.1126 88.7153C28.1126 87.2416 26.9179 86.0469 25.4442 86.0469C23.9705 86.0469 22.7759 87.2416 22.7759 88.7153C22.7759 90.189 23.9705 91.3836 25.4442 91.3836Z" fill="#93ABFC"/>
<path d="M46.9738 118.325C51.0729 118.325 54.3959 115.002 54.3959 110.903C54.3959 106.803 51.0729 103.48 46.9738 103.48C42.8747 103.48 39.5518 106.803 39.5518 110.903C39.5518 115.002 42.8747 118.325 46.9738 118.325Z" fill="url(#paint6_linear_2974_421962)"/>
<path fill-rule="evenodd" clip-rule="evenodd" d="M46.9734 102.699C42.447 102.699 38.772 106.379 38.772 110.904C38.772 115.428 42.447 119.102 46.9734 119.102C51.4998 119.102 55.1748 115.428 55.1748 110.904C55.1748 106.379 51.4998 102.699 46.9734 102.699ZM46.9734 104.258C50.6394 104.258 53.6161 107.235 53.6161 110.904C53.6161 114.572 50.6394 117.549 46.9734 117.549C43.3074 117.549 40.3307 114.572 40.3307 110.904C40.3307 107.235 43.3074 104.258 46.9734 104.258Z" fill="#ECF0FE"/>
<path d="M36.2082 118.325C40.3073 118.325 43.6303 115.002 43.6303 110.903C43.6303 106.803 40.3073 103.48 36.2082 103.48C32.1091 103.48 28.7861 106.803 28.7861 110.903C28.7861 115.002 32.1091 118.325 36.2082 118.325Z" fill="#A3B8FF"/>
<path fill-rule="evenodd" clip-rule="evenodd" d="M36.2083 102.699C31.6819 102.699 28.0068 106.379 28.0068 110.904C28.0068 115.428 31.6819 119.102 36.2083 119.102C40.7347 119.102 44.4097 115.428 44.4097 110.904C44.4097 106.379 40.7347 102.699 36.2083 102.699ZM36.2083 104.258C39.8749 104.258 42.851 107.235 42.851 110.904C42.851 114.572 39.8749 117.549 36.2083 117.549C32.5422 117.549 29.5655 114.572 29.5655 110.904C29.5655 107.235 32.5422 104.258 36.2083 104.258Z" fill="#EDF1FE"/>
<path d="M25.4441 118.325C29.5432 118.325 32.8661 115.002 32.8661 110.903C32.8661 106.803 29.5432 103.48 25.4441 103.48C21.345 103.48 18.022 106.803 18.022 110.903C18.022 115.002 21.345 118.325 25.4441 118.325Z" fill="url(#paint7_linear_2974_421962)"/>
<path fill-rule="evenodd" clip-rule="evenodd" d="M25.4441 102.699C20.9171 102.699 17.2427 106.379 17.2427 110.904C17.2427 115.428 20.9171 119.102 25.4441 119.102C29.9705 119.102 33.645 115.428 33.645 110.904C33.645 106.379 29.9705 102.699 25.4441 102.699ZM25.4441 104.258C29.1101 104.258 32.0868 107.235 32.0868 110.904C32.0868 114.572 29.1101 117.549 25.4441 117.549C21.7775 117.549 18.8008 114.572 18.8008 110.904C18.8008 107.235 21.7775 104.258 25.4441 104.258Z" fill="#EDF2FE"/>
<g filter="url(#filter0_f_2974_421962)">
<path fill-rule="evenodd" clip-rule="evenodd" d="M100.098 39.0801C106.92 28.9514 141.738 74.6093 129.079 78.1994C126.796 78.8465 124.389 79.201 121.899 79.201C110.877 79.201 101.442 72.3586 97.6173 62.6857C97.1519 61.5096 83.6931 62.9107 83.4011 61.6615C82.9565 59.754 85.1899 57.5425 85.1899 55.4999C85.1899 54.7965 77.8629 41.1903 79.5285 40.38C82.6302 38.8607 94.8319 53.2379 96.4665 47.2113C97.2577 44.2909 98.4534 41.5222 100.098 39.0801Z" fill="#A4B7FC"/>
</g>
<path d="M121.899 79.2022C136.314 79.2022 148 67.5163 148 53.1011C148 38.6859 136.314 27 121.899 27C107.484 27 95.7979 38.6859 95.7979 53.1011C95.7979 67.5163 107.484 79.2022 121.899 79.2022Z" fill="url(#paint8_linear_2974_421962)"/>
<path d="M121.899 50.609C126.4 50.609 130.049 46.96 130.049 42.4588C130.049 37.9575 126.4 34.3086 121.899 34.3086C117.398 34.3086 113.749 37.9575 113.749 42.4588C113.749 46.96 117.398 50.609 121.899 50.609Z" fill="url(#paint9_linear_2974_421962)"/>
<path fill-rule="evenodd" clip-rule="evenodd" d="M121.899 48.8789C129.472 48.8789 135.621 55.0292 135.621 62.6032C135.621 70.1772 108.176 70.1772 108.176 62.6032C108.176 55.0292 114.325 48.8789 121.899 48.8789Z" fill="url(#paint10_linear_2974_421962)"/>
<path fill-rule="evenodd" clip-rule="evenodd" d="M85.7692 55.4926C80.6666 50.7208 77.1339 44.1765 78.1299 36.9964C78.2053 36.4618 78.598 36.0286 79.1219 35.8991C79.6452 35.7753 80.1933 35.9779 80.5056 36.4168C84.727 42.4265 89.1105 45.8365 92.7788 47.1758C92.7788 47.1758 94.3105 45.3582 95.7566 43.642C96.2203 43.0905 96.9586 42.8541 97.6552 43.0342C98.3518 43.2143 98.883 43.777 99.0209 44.486C99.8863 48.9089 101.281 56.044 101.99 59.6734C102.099 60.2305 101.95 60.8045 101.585 61.2378C101.22 61.6711 100.679 61.913 100.113 61.9017C96.4155 61.8173 89.1493 61.6542 84.6426 61.5529C83.9229 61.536 83.2769 61.1083 82.981 60.4499C82.685 59.7972 82.7913 59.0263 83.255 58.4804C84.5121 56.9836 85.7692 55.4926 85.7692 55.4926Z" fill="url(#paint11_linear_2974_421962)"/>
<defs>
<filter id="filter0_f_2974_421962" x="62.2346" y="20.5696" width="86.6387" height="75.6792" filterUnits="userSpaceOnUse" color-interpolation-filters="sRGB">
<feFlood flood-opacity="0" result="BackgroundImageFix"/>
<feBlend mode="normal" in="SourceGraphic" in2="BackgroundImageFix" result="shape"/>
<feGaussianBlur stdDeviation="8.52381" result="effect1_foregroundBlur_2974_421962"/>
</filter>
<linearGradient id="paint0_linear_2974_421962" x1="19.23" y1="32.2372" x2="120.056" y2="151.173" gradientUnits="userSpaceOnUse">
<stop stop-color="#F9FBFF"/>
<stop offset="1" stop-color="#E1E8FD"/>
</linearGradient>
<linearGradient id="paint1_linear_2974_421962" x1="113.57" y1="107.927" x2="121.401" y2="122.678" gradientUnits="userSpaceOnUse">
<stop stop-color="#CFDAFE"/>
<stop offset="1" stop-color="#B4C4FD"/>
</linearGradient>
<linearGradient id="paint2_linear_2974_421962" x1="15.5991" y1="45.875" x2="15.675" y2="64.7941" gradientUnits="userSpaceOnUse">
<stop stop-color="#DCE4FF"/>
<stop offset="0.54" stop-color="#C1CFFF"/>
<stop offset="1" stop-color="#B7C7FF"/>
</linearGradient>
<linearGradient id="paint3_linear_2974_421962" x1="32.0307" y1="65.8594" x2="32.0481" y2="77.8095" gradientUnits="userSpaceOnUse">
<stop stop-color="#DCE4FF"/>
<stop offset="0.54" stop-color="#C9D6FF"/>
<stop offset="1" stop-color="#C2D0FF"/>
</linearGradient>
<linearGradient id="paint4_linear_2974_421962" x1="32.0307" y1="75.9531" x2="32.1025" y2="87.6355" gradientUnits="userSpaceOnUse">
<stop stop-color="#DCE4FF"/>
<stop offset="0.54" stop-color="#C9D6FF"/>
<stop offset="1" stop-color="#C2D0FF"/>
</linearGradient>
<linearGradient id="paint5_linear_2974_421962" x1="32.0307" y1="86.043" x2="32.0385" y2="98.0663" gradientUnits="userSpaceOnUse">
<stop stop-color="#DCE4FF"/>
<stop offset="0.54" stop-color="#C9D6FF"/>
<stop offset="1" stop-color="#C2D0FF"/>
</linearGradient>
<linearGradient id="paint6_linear_2974_421962" x1="39.5518" y1="103.48" x2="57.1746" y2="114.36" gradientUnits="userSpaceOnUse">
<stop stop-color="#DCE4FF"/>
<stop offset="0.54" stop-color="#C9D6FF"/>
<stop offset="1" stop-color="#C2D0FF"/>
</linearGradient>
<linearGradient id="paint7_linear_2974_421962" x1="18.0217" y1="103.48" x2="35.6446" y2="114.36" gradientUnits="userSpaceOnUse">
<stop stop-color="#DCE4FF"/>
<stop offset="0.54" stop-color="#C9D6FF"/>
<stop offset="1" stop-color="#C2D0FF"/>
</linearGradient>
<linearGradient id="paint8_linear_2974_421962" x1="108.727" y1="30.5647" x2="128.119" y2="78.1288" gradientUnits="userSpaceOnUse">
<stop stop-color="#F1F4FF"/>
<stop offset="1" stop-color="#B1C3FF"/>
</linearGradient>
<linearGradient id="paint9_linear_2974_421962" x1="115.973" y1="38.2892" x2="128.705" y2="70.0082" gradientUnits="userSpaceOnUse">
<stop stop-color="#A5B9FD"/>
<stop offset="1" stop-color="#7C99FB"/>
</linearGradient>
<linearGradient id="paint10_linear_2974_421962" x1="115.974" y1="36.567" x2="128.705" y2="68.2859" gradientUnits="userSpaceOnUse">
<stop stop-color="#A5B9FD"/>
<stop offset="1" stop-color="#7C99FB"/>
</linearGradient>
<linearGradient id="paint11_linear_2974_421962" x1="82.5533" y1="62.0649" x2="94.1919" y2="41.6487" gradientUnits="userSpaceOnUse">
<stop stop-color="#A5B9FD"/>
<stop offset="1" stop-color="#7C99FB"/>
</linearGradient>
</defs>
</svg>
