<svg width="56" height="56" viewBox="0 0 56 56" fill="none" xmlns="http://www.w3.org/2000/svg">
<path d="M9.99422 18.5144C10.6017 16.9958 12.0725 16 13.7081 16H42.2919C43.9275 16 45.3983 16.9958 46.0058 18.5144L49 26H7L9.99422 18.5144Z" fill="#062B9D"/>
<path d="M11.6777 12C11.6777 10.8954 12.5732 10 13.6777 10H22.8161C23.2891 10 23.7469 10.1677 24.108 10.4732L27.812 13.6074C28.1731 13.913 28.6309 14.0806 29.1039 14.0806H42.3229C43.4275 14.0806 44.3229 14.9761 44.3229 16.0806V31.5161C44.3229 32.3356 43.6585 33 42.839 33H13.1616C12.3421 33 11.6777 32.3356 11.6777 31.5161V12Z" fill="#9EB4FF"/>
<path d="M6.39664 28.3621C6.18368 26.0197 8.02808 24 10.3802 24H45.6199C47.9721 24 49.8165 26.0197 49.6035 28.3621L48.3308 42.3621C48.1435 44.4225 46.416 46 44.3472 46H11.6529C9.58412 46 7.85666 44.4225 7.66936 42.3621L6.39664 28.3621Z" fill="#3663F2"/>
<rect x="20" y="27" width="16" height="3" rx="1.5" fill="#9EB4FF"/>
</svg>
