<svg width="32" height="32" viewBox="0 0 32 32" fill="none" xmlns="http://www.w3.org/2000/svg">
<path d="M5.71387 8.00056C5.71387 6.73819 6.73722 5.71484 7.99958 5.71484H23.9996C25.2619 5.71484 26.2853 6.73819 26.2853 8.00056V22.2863C26.2853 22.9175 25.7736 23.4291 25.1424 23.4291H6.85672C6.22554 23.4291 5.71387 22.9175 5.71387 22.2863V8.00056Z" fill="#062B9D"/>
<path d="M3.74943 10.5692C3.5789 9.20499 4.64264 8 6.0175 8H12.1525C12.4228 8 12.6844 8.09581 12.8907 8.27042L15.9658 10.8724C16.1722 11.047 16.4338 11.1429 16.7041 11.1429H25.9145C27.3128 11.1429 28.3833 12.3871 28.1746 13.7697L26.6523 23.855C26.4414 25.2525 25.2405 26.2857 23.8272 26.2857H8.23623C6.7953 26.2857 5.57987 25.2128 5.40115 23.783L3.74943 10.5692Z" fill="#3663F2"/>
<path d="M16.2856 18.7902C14.2342 18.7902 12.5713 19.914 12.5713 21.5398V21.849C12.5713 22.0904 12.7669 22.286 13.0083 22.286H19.5629C19.8042 22.286 19.9999 22.0904 19.9999 21.849V21.5398C19.9999 19.914 18.3369 18.7902 16.2856 18.7902Z" fill="#CFDDFF"/>
<path d="M14.5377 16.6053C14.5377 15.64 15.3202 14.8574 16.2856 14.8574C17.2509 14.8574 18.0335 15.64 18.0335 16.6053V17.2608C18.0335 18.2261 17.2509 19.0087 16.2856 19.0087C15.3202 19.0087 14.5377 18.2261 14.5377 17.2608V16.6053Z" fill="#CFDDFF"/>
</svg>
