<svg width="156" height="161" viewBox="0 0 156 161" fill="none" xmlns="http://www.w3.org/2000/svg">
<g filter="url(#filter0_f_1622_210756)">
<path d="M81.1995 148.001C111.375 148.001 135.837 146.366 135.837 144.348C135.837 142.331 111.375 140.695 81.1995 140.695C51.0243 140.695 26.5625 142.331 26.5625 144.348C26.5625 146.366 51.0243 148.001 81.1995 148.001Z" fill="#CBD6F9"/>
</g>
<path fill-rule="evenodd" clip-rule="evenodd" d="M18.7192 73.6186C18.7192 73.6186 23.9451 62.6011 26.6739 56.8484C27.6609 54.7678 29.7579 53.4414 32.0613 53.4414H123.295C125.598 53.4414 127.694 54.7678 128.682 56.8484C131.41 62.6011 136.636 73.6186 136.636 73.6186H18.7192Z" fill="url(#paint0_linear_1622_210756)"/>
<path fill-rule="evenodd" clip-rule="evenodd" d="M137.25 40.2831C137.462 39.4898 137.351 38.6447 136.94 37.9338C134.841 34.303 128.198 22.8072 126.101 19.1785C125.69 18.4681 125.015 17.9503 124.222 17.7376C118.733 16.2671 96.4928 10.3076 88.2864 8.10871C86.5958 7.65585 84.8577 8.65922 84.4048 10.3498C80.9619 23.1983 67.8579 72.1038 67.8579 72.1038L124.646 87.3201C124.646 87.3201 135.227 47.8318 137.25 40.2831Z" fill="url(#paint1_linear_1622_210756)"/>
<path fill-rule="evenodd" clip-rule="evenodd" d="M96.2596 17.5028C97.8826 17.9377 98.8474 19.6087 98.4125 21.2317C97.9776 22.8553 96.3071 23.8196 94.6835 23.3847C93.0605 22.9498 92.0957 21.2793 92.5306 19.6557C92.9655 18.0327 94.6366 17.0678 96.2596 17.5028Z" fill="url(#paint2_linear_1622_210756)"/>
<path fill-rule="evenodd" clip-rule="evenodd" d="M94.8717 22.6834C97.6047 23.416 99.2288 26.2292 98.4967 28.9623C97.7641 31.6947 87.8608 29.0414 88.5934 26.3084C89.3255 23.5754 92.1387 21.9513 94.8717 22.6834Z" fill="url(#paint3_linear_1622_210756)"/>
<path fill-rule="evenodd" clip-rule="evenodd" d="M126.101 19.1812C125.691 18.4702 125.015 17.9514 124.222 17.7392C123.466 17.537 122.645 17.3164 122.645 17.3164C122.645 17.3164 123.407 17.5529 124.306 17.8316C125.904 18.3277 126.819 20.004 126.37 21.6165C125.662 24.1627 124.635 27.8547 123.918 30.4331C123.457 32.0915 124.427 33.8105 126.086 34.2718C128.685 34.9944 132.416 36.0326 134.964 36.7409C136.551 37.1827 137.515 38.7904 137.155 40.3987C136.973 41.2089 136.824 41.875 136.824 41.875C136.824 41.875 137.044 41.0537 137.246 40.2979C137.459 39.5056 137.348 38.6606 136.937 37.9502C134.84 34.3178 128.198 22.813 126.101 19.1812Z" fill="url(#paint4_linear_1622_210756)"/>
<path fill-rule="evenodd" clip-rule="evenodd" d="M96.0609 41.2353L125.292 49.0681C125.854 49.2185 126.434 48.8844 126.584 48.3212C126.735 47.7586 126.401 47.1795 125.838 47.0286L96.6072 39.1964C96.0445 39.0454 95.465 39.3801 95.3145 39.9427C95.1636 40.5054 95.4982 41.0849 96.0609 41.2353Z" fill="#CAD5FD"/>
<path fill-rule="evenodd" clip-rule="evenodd" d="M84.7503 44.9075L123.616 55.3213C124.178 55.4722 124.758 55.1376 124.908 54.5749C125.059 54.0123 124.725 53.4328 124.162 53.2823L85.2971 42.8681C84.734 42.7177 84.155 43.0518 84.004 43.6149C83.853 44.1776 84.1877 44.7566 84.7503 44.9075Z" fill="#CAD5FD"/>
<path fill-rule="evenodd" clip-rule="evenodd" d="M83.0744 51.1615L121.94 61.5752C122.502 61.7261 123.082 61.3915 123.232 60.8289C123.383 60.2662 123.049 59.6867 122.486 59.5362L83.6212 49.122C83.058 48.9716 82.479 49.3057 82.328 49.8688C82.1776 50.4315 82.5117 51.0105 83.0744 51.1615Z" fill="#CAD5FD"/>
<path fill-rule="evenodd" clip-rule="evenodd" d="M81.3991 57.4154L120.264 67.8291C120.827 67.98 121.406 67.6454 121.557 67.0828C121.708 66.5201 121.373 65.9406 120.81 65.7901L81.9454 55.3759C81.3827 55.2255 80.8032 55.5596 80.6523 56.1222C80.5018 56.6854 80.8359 57.2644 81.3991 57.4154Z" fill="#CAD5FD"/>
<path fill-rule="evenodd" clip-rule="evenodd" d="M79.7233 63.6694L108.454 71.3676C109.017 71.5185 109.596 71.1839 109.747 70.6213C109.898 70.0586 109.563 69.4791 109.001 69.3286L80.2696 61.63C79.707 61.479 79.1274 61.8137 78.9765 62.3763C78.826 62.9395 79.1602 63.5185 79.7233 63.6694Z" fill="#CAD5FD"/>
<g filter="url(#filter1_f_1622_210756)">
<path fill-rule="evenodd" clip-rule="evenodd" d="M82.5264 38.9169C82.3137 38.1236 81.7948 37.4475 81.0833 37.0369C77.4604 34.9473 66.009 28.3428 62.3471 26.2305C61.6197 25.8108 60.7536 25.7048 59.9466 25.937C54.9144 27.3827 36.2066 32.7584 28.8569 34.8702C27.1958 35.3474 26.2236 37.067 26.6707 38.7364C29.961 51.016 42.2052 96.7118 42.2052 96.7118L94.2744 82.7602C94.2744 82.7602 84.4687 46.1649 82.5264 38.9169Z" fill="#BFCDFD"/>
</g>
<path fill-rule="evenodd" clip-rule="evenodd" d="M79.5598 34.1399C79.3471 33.3466 78.8283 32.6705 78.1168 32.2604C74.4844 30.165 62.9828 23.5314 59.352 21.4371C58.6416 21.0275 57.7976 20.9167 57.0053 21.1288C51.5161 22.5999 29.2757 28.5589 21.0693 30.7577C19.3781 31.2111 18.3748 32.9487 18.8282 34.6398C22.2706 47.4878 35.3751 96.3933 35.3751 96.3933L92.1634 81.177C92.1634 81.177 81.5824 41.6887 79.5598 34.1399Z" fill="url(#paint5_linear_1622_210756)"/>
<path fill-rule="evenodd" clip-rule="evenodd" d="M32.6708 34.9051C34.2939 34.4702 35.9649 35.435 36.3998 37.058C36.8347 38.6811 35.8699 40.3521 34.2469 40.787C32.6239 41.222 30.9528 40.2571 30.5179 38.6341C30.083 37.0111 31.0478 35.34 32.6708 34.9051Z" fill="url(#paint6_linear_1622_210756)"/>
<path fill-rule="evenodd" clip-rule="evenodd" d="M34.0594 40.0898C36.7919 39.3572 39.6056 40.9818 40.3377 43.7148C41.0698 46.4473 31.1665 49.1012 30.4344 46.3682C29.7023 43.6351 31.3264 40.8219 34.0594 40.0898Z" fill="url(#paint7_linear_1622_210756)"/>
<path fill-rule="evenodd" clip-rule="evenodd" d="M59.3521 21.438C58.6411 21.0279 57.7966 20.9165 57.0039 21.1287C56.2486 21.3314 55.4268 21.5515 55.4268 21.5515C55.4268 21.5515 56.2048 21.3752 57.1231 21.1672C58.7551 20.7972 60.3856 21.7921 60.8031 23.4125C61.4628 25.9714 62.4197 29.6824 63.0874 32.274C63.5176 33.9413 65.2171 34.9442 66.8845 34.5145C69.4966 33.841 73.2473 32.8741 75.8082 32.2138C77.4033 31.8026 79.0416 32.7136 79.5335 34.286C79.7816 35.0788 79.9853 35.7301 79.9853 35.7301C79.9853 35.7301 79.7652 34.9088 79.5631 34.1535C79.3504 33.3607 78.8321 32.6846 78.1211 32.2745C74.4892 30.1775 62.984 23.535 59.3521 21.438Z" fill="url(#paint8_linear_1622_210756)"/>
<path fill-rule="evenodd" clip-rule="evenodd" d="M44.3645 55.5602L73.5952 47.728C74.1579 47.5771 74.4925 46.9975 74.3416 46.4349C74.1911 45.8723 73.6116 45.5376 73.049 45.6886L43.8182 53.5208C43.2556 53.6717 42.9209 54.2507 43.0719 54.8139C43.2228 55.3766 43.8018 55.7107 44.3645 55.5602Z" fill="#CAD5FD"/>
<path fill-rule="evenodd" clip-rule="evenodd" d="M36.406 64.3957L75.2709 53.9814C75.8336 53.831 76.1682 53.2515 76.0173 52.6888C75.8668 52.1262 75.2873 51.7915 74.7247 51.9425L35.8592 62.3562C35.2966 62.5072 34.9619 63.0862 35.1129 63.6494C35.2638 64.212 35.8429 64.5461 36.406 64.3957Z" fill="#CAD5FD"/>
<path fill-rule="evenodd" clip-rule="evenodd" d="M38.0818 70.6496L76.9467 60.2353C77.5094 60.0849 77.844 59.5054 77.6931 58.9427C77.5426 58.3801 76.9631 58.0454 76.4004 58.1964L37.535 68.6101C36.9723 68.7611 36.6377 69.3401 36.7887 69.9027C36.9396 70.4659 37.5186 70.8 38.0818 70.6496Z" fill="#CAD5FD"/>
<path fill-rule="evenodd" clip-rule="evenodd" d="M39.7571 76.9035L78.6225 66.4892C79.1852 66.3388 79.5198 65.7593 79.3688 65.1966C79.2179 64.634 78.6389 64.2993 78.0762 64.4503L39.2108 74.864C38.6481 75.015 38.3135 75.594 38.4645 76.1566C38.6154 76.7198 39.1944 77.0539 39.7571 76.9035Z" fill="#CAD5FD"/>
<path fill-rule="evenodd" clip-rule="evenodd" d="M41.4328 83.1566L70.1643 75.4585C70.7269 75.3076 71.0616 74.7285 70.9106 74.1654C70.7597 73.6027 70.1807 73.2681 69.6175 73.419L40.8866 81.1177C40.3239 81.2681 39.9893 81.8477 40.1402 82.4103C40.2912 82.973 40.8702 83.3076 41.4328 83.1566Z" fill="#CAD5FD"/>
<g filter="url(#filter2_f_1622_210756)">
<path fill-rule="evenodd" clip-rule="evenodd" d="M132.83 75.707C133.283 73.4817 132.712 71.1704 131.275 69.4117C129.839 67.6531 127.688 66.6328 125.417 66.6328C104.018 66.6328 51.3367 66.6328 29.9382 66.6328C27.667 66.6328 25.5162 67.6531 24.0795 69.4117C22.6428 71.1704 22.0717 73.4817 22.5245 75.707C24.9287 87.5215 29.0657 107.851 31.1205 117.949C31.8378 121.474 34.9376 124.006 38.5341 124.006H116.821C120.417 124.006 123.517 121.474 124.234 117.949C126.289 107.851 130.426 87.5215 132.83 75.707Z" fill="#ACBDF6"/>
</g>
<path fill-rule="evenodd" clip-rule="evenodd" d="M137.253 78.0821C137.618 75.8885 136.999 73.6453 135.562 71.9484C134.125 70.252 132.014 69.2734 129.79 69.2734C107.228 69.2734 48.1274 69.2734 25.5655 69.2734C23.3418 69.2734 21.2306 70.252 19.7934 71.9484C18.3561 73.6453 17.7375 75.8885 18.1028 78.0821C20.6563 93.4124 25.8569 124.64 28.0863 138.026C28.6939 141.674 31.8502 144.348 35.5486 144.348H119.807C123.505 144.348 126.662 141.674 127.269 138.026C129.499 124.64 134.699 93.4124 137.253 78.0821Z" fill="url(#paint9_linear_1622_210756)"/>
<path fill-rule="evenodd" clip-rule="evenodd" d="M77.678 80.5469C92.1727 80.5469 103.941 92.315 103.941 106.81C103.941 107.967 103.866 109.107 103.72 110.225C98.1328 118.748 93.012 125.22 83.3108 132.466C81.4961 132.864 79.6108 133.073 77.678 133.073C63.1827 133.073 51.4146 121.305 51.4146 106.81C51.4146 92.315 63.1827 80.5469 77.678 80.5469Z" fill="url(#paint10_linear_1622_210756)"/>
<path fill-rule="evenodd" clip-rule="evenodd" d="M83.3074 132.466C83.2272 131.738 83.1865 131.001 83.1865 130.255C83.1865 119.192 92.1672 110.211 103.23 110.211C103.393 110.211 103.557 110.213 103.721 110.217L103.72 110.224C98.1326 118.746 93.0117 125.219 83.3106 132.465L83.3074 132.466Z" fill="url(#paint11_linear_1622_210756)"/>
<path d="M77.678 103.733C81.2556 103.733 84.1559 100.833 84.1559 97.2552C84.1559 93.6776 81.2556 90.7773 77.678 90.7773C74.1004 90.7773 71.2002 93.6776 71.2002 97.2552C71.2002 100.833 74.1004 103.733 77.678 103.733Z" fill="url(#paint12_linear_1622_210756)"/>
<path fill-rule="evenodd" clip-rule="evenodd" d="M77.6782 102.359C83.6979 102.359 88.5849 107.247 88.5849 113.267C88.5849 119.287 66.771 119.287 66.771 113.267C66.771 107.247 71.658 102.359 77.6782 102.359Z" fill="url(#paint13_linear_1622_210756)"/>
<defs>
<filter id="filter0_f_1622_210756" x="13.7054" y="127.838" width="134.988" height="33.0209" filterUnits="userSpaceOnUse" color-interpolation-filters="sRGB">
<feFlood flood-opacity="0" result="BackgroundImageFix"/>
<feBlend mode="normal" in="SourceGraphic" in2="BackgroundImageFix" result="shape"/>
<feGaussianBlur stdDeviation="6.42857" result="effect1_foregroundBlur_1622_210756"/>
</filter>
<filter id="filter1_f_1622_210756" x="15.2287" y="14.4831" width="90.3791" height="93.5612" filterUnits="userSpaceOnUse" color-interpolation-filters="sRGB">
<feFlood flood-opacity="0" result="BackgroundImageFix"/>
<feBlend mode="normal" in="SourceGraphic" in2="BackgroundImageFix" result="shape"/>
<feGaussianBlur stdDeviation="5.66667" result="effect1_foregroundBlur_1622_210756"/>
</filter>
<filter id="filter2_f_1622_210756" x="7.2297" y="51.49" width="140.896" height="87.6588" filterUnits="userSpaceOnUse" color-interpolation-filters="sRGB">
<feFlood flood-opacity="0" result="BackgroundImageFix"/>
<feBlend mode="normal" in="SourceGraphic" in2="BackgroundImageFix" result="shape"/>
<feGaussianBlur stdDeviation="7.57143" result="effect1_foregroundBlur_1622_210756"/>
</filter>
<linearGradient id="paint0_linear_1622_210756" x1="16.8163" y1="53.4412" x2="16.8241" y2="76.7451" gradientUnits="userSpaceOnUse">
<stop stop-color="#C7D3FE"/>
<stop offset="1" stop-color="#98ACF0"/>
</linearGradient>
<linearGradient id="paint1_linear_1622_210756" x1="117.276" y1="7.99998" x2="68.7884" y2="72.3529" gradientUnits="userSpaceOnUse">
<stop stop-color="#EEF2FF"/>
<stop offset="1" stop-color="#DFE6FD"/>
</linearGradient>
<linearGradient id="paint2_linear_1622_210756" x1="92.0978" y1="17.4303" x2="95.901" y2="31.6247" gradientUnits="userSpaceOnUse">
<stop stop-color="#A5B9FD"/>
<stop offset="1" stop-color="#7C99FB"/>
</linearGradient>
<linearGradient id="paint3_linear_1622_210756" x1="92.286" y1="16.729" x2="96.0892" y2="30.9234" gradientUnits="userSpaceOnUse">
<stop stop-color="#A5B9FD"/>
<stop offset="1" stop-color="#7C99FB"/>
</linearGradient>
<linearGradient id="paint4_linear_1622_210756" x1="128.024" y1="18.758" x2="128.779" y2="38.2817" gradientUnits="userSpaceOnUse">
<stop stop-color="#E3E9FE"/>
<stop offset="1" stop-color="#B1C2FC"/>
</linearGradient>
<linearGradient id="paint5_linear_1622_210756" x1="28.1221" y1="24.4967" x2="78.5529" y2="105.769" gradientUnits="userSpaceOnUse">
<stop stop-color="#F9FBFF"/>
<stop offset="1" stop-color="#E1E8FD"/>
</linearGradient>
<linearGradient id="paint6_linear_1622_210756" x1="29.0304" y1="36.9231" x2="39.4212" y2="47.3142" gradientUnits="userSpaceOnUse">
<stop stop-color="#A5B9FD"/>
<stop offset="1" stop-color="#7C99FB"/>
</linearGradient>
<linearGradient id="paint7_linear_1622_210756" x1="28.8426" y1="36.2259" x2="39.2335" y2="46.617" gradientUnits="userSpaceOnUse">
<stop stop-color="#A5B9FD"/>
<stop offset="1" stop-color="#7C99FB"/>
</linearGradient>
<linearGradient id="paint8_linear_1622_210756" x1="60.8061" y1="20.1101" x2="71.2221" y2="36.6405" gradientUnits="userSpaceOnUse">
<stop stop-color="#E3E9FE"/>
<stop offset="1" stop-color="#B1C2FC"/>
</linearGradient>
<linearGradient id="paint9_linear_1622_210756" x1="52.7882" y1="69.2734" x2="73.4831" y2="146.345" gradientUnits="userSpaceOnUse">
<stop stop-color="#DCE3FC"/>
<stop offset="1" stop-color="#ACBDF6"/>
</linearGradient>
<linearGradient id="paint10_linear_1622_210756" x1="64.4241" y1="84.1365" x2="83.9369" y2="131.995" gradientUnits="userSpaceOnUse">
<stop stop-color="#F1F4FF"/>
<stop offset="1" stop-color="#C9D5FB"/>
</linearGradient>
<linearGradient id="paint11_linear_1622_210756" x1="88.4229" y1="106.808" x2="94.6328" y2="125.907" gradientUnits="userSpaceOnUse">
<stop stop-color="#C7D3FE"/>
<stop offset="1" stop-color="#98ACF0"/>
</linearGradient>
<linearGradient id="paint12_linear_1622_210756" x1="72.9684" y1="93.9442" x2="83.0879" y2="119.156" gradientUnits="userSpaceOnUse">
<stop stop-color="#A5B9FD"/>
<stop offset="1" stop-color="#7C99FB"/>
</linearGradient>
<linearGradient id="paint13_linear_1622_210756" x1="72.9686" y1="92.5706" x2="83.0881" y2="117.782" gradientUnits="userSpaceOnUse">
<stop stop-color="#A5B9FD"/>
<stop offset="1" stop-color="#7C99FB"/>
</linearGradient>
</defs>
</svg>
