<svg width="56" height="56" viewBox="0 0 56 56" fill="none" xmlns="http://www.w3.org/2000/svg">
<path fill-rule="evenodd" clip-rule="evenodd" d="M28 8C29.1046 8 30 8.89543 30 10V46C30 47.1046 29.1046 48 28 48C26.8954 48 26 47.1046 26 46V10C26 8.89543 26.8954 8 28 8Z" fill="#6ABEFC"/>
<path fill-rule="evenodd" clip-rule="evenodd" d="M48 28C48 29.1046 47.1046 30 46 30L10 30C8.89543 30 8 29.1046 8 28C8 26.8954 8.89543 26 10 26L46 26C47.1046 26 48 26.8954 48 28Z" fill="#6ABEFC"/>
<path fill-rule="evenodd" clip-rule="evenodd" d="M18.4001 11.8001C19.0629 10.9165 20.3165 10.7374 21.2001 11.4001L28.0001 16.5001L34.8001 11.4001C35.6838 10.7374 36.9374 10.9165 37.6001 11.8001C38.2629 12.6838 38.0838 13.9374 37.2001 14.6001L28.0001 21.5001L18.8001 14.6001C17.9165 13.9374 17.7374 12.6838 18.4001 11.8001Z" fill="#6ABEFC"/>
<path fill-rule="evenodd" clip-rule="evenodd" d="M37.5999 44.1999C36.9371 45.0835 35.6835 45.2626 34.7999 44.5999L27.9999 39.4999L21.1999 44.5999C20.3162 45.2626 19.0626 45.0835 18.3999 44.1999C17.7371 43.3162 17.9162 42.0626 18.7999 41.3999L27.9999 34.4999L37.1999 41.3999C38.0835 42.0626 38.2626 43.3162 37.5999 44.1999Z" fill="#6ABEFC"/>
<path fill-rule="evenodd" clip-rule="evenodd" d="M44.1999 18.4001C45.0835 19.0629 45.2626 20.3165 44.5999 21.2001L39.4999 28.0001L44.5999 34.8001C45.2626 35.6838 45.0835 36.9374 44.1999 37.6001C43.3162 38.2629 42.0626 38.0838 41.3999 37.2001L34.4999 28.0001L41.3999 18.8001C42.0626 17.9165 43.3162 17.7374 44.1999 18.4001Z" fill="#6ABEFC"/>
<path fill-rule="evenodd" clip-rule="evenodd" d="M11.8001 37.5999C10.9165 36.9371 10.7374 35.6835 11.4001 34.7999L16.5001 27.9999L11.4001 21.1999C10.7374 20.3162 10.9165 19.0626 11.8001 18.3999C12.6838 17.7371 13.9374 17.9162 14.6001 18.7999L21.5001 27.9999L14.6001 37.1999C13.9374 38.0835 12.6838 38.2626 11.8001 37.5999Z" fill="#6ABEFC"/>
</svg>
