<svg width="80" height="82" viewBox="0 0 80 82" fill="none" xmlns="http://www.w3.org/2000/svg">
<path fill-rule="evenodd" clip-rule="evenodd" d="M75.1005 29.1358C75.1005 27.4818 73.7596 26.1406 72.1053 26.1406C65.2412 26.1406 48.9614 26.1406 48.9614 26.1406V70.2887C48.9614 71.1481 49.3029 71.9721 49.9106 72.5798C50.5183 73.1875 51.3423 73.5289 52.2017 73.5289H71.8605C72.7196 73.5289 73.5439 73.1875 74.1516 72.5798C74.7593 71.9721 75.1005 71.1481 75.1005 70.2887V29.1358Z" fill="url(#paint0_linear_1622_210554)"/>
<path fill-rule="evenodd" clip-rule="evenodd" d="M59.7023 50.1554C60.1181 50.044 60.4728 49.7719 60.6883 49.399C60.9035 49.026 60.962 48.5827 60.8505 48.1666C59.2627 42.2405 53.668 21.3616 52.6611 17.6044C52.5306 17.1168 52.2117 16.701 51.7747 16.4485C49.5357 15.1544 42.4281 11.0465 40.1875 9.75166C39.7503 9.49889 39.2302 9.43007 38.7421 9.56109C35.6074 10.4009 20.0865 14.5597 15.0675 15.9046C14.6514 16.016 14.2968 16.2881 14.0813 16.6613C13.8661 17.0342 13.8076 17.4773 13.9191 17.8934C15.7261 24.6371 22.8244 51.1279 24.6312 57.8716C24.7429 58.2877 25.015 58.6423 25.3879 58.8575C25.7608 59.073 26.2042 59.1312 26.62 59.0198C32.5752 57.4243 53.7471 51.7512 59.7023 50.1554Z" fill="url(#paint1_linear_1622_210554)"/>
<path fill-rule="evenodd" clip-rule="evenodd" d="M38.6929 9.57405C39.7087 9.30196 40.7527 9.90465 41.025 10.9205C41.4543 12.5229 42.0734 14.8342 42.5028 16.4363C42.7751 17.4522 43.8193 18.0549 44.8349 17.7828C46.4352 17.354 48.7422 16.7359 50.3422 16.3071C50.8301 16.1764 51.3499 16.2447 51.7872 16.4972C52.2247 16.7497 52.5439 17.1658 52.6744 17.6536L52.6611 17.6044C52.5307 17.1168 52.2117 16.701 51.7747 16.4485C49.5357 15.1544 42.4281 11.0465 40.1876 9.75166C39.7503 9.49889 39.2302 9.43007 38.7421 9.56109L38.6929 9.57405Z" fill="url(#paint2_linear_1622_210554)"/>
<g filter="url(#filter0_f_1622_210554)">
<path fill-rule="evenodd" clip-rule="evenodd" d="M41.7891 12.4141L50.1958 17.1157L43.5275 18.9026L41.7891 12.4141Z" fill="#C4D1F8"/>
</g>
<path fill-rule="evenodd" clip-rule="evenodd" d="M38.6929 9.57405C39.7087 9.30196 40.7527 9.90465 41.025 10.9205C41.4543 12.5229 42.0734 14.8342 42.5028 16.4363C42.7751 17.4522 43.8193 18.0549 44.8349 17.7828C46.4352 17.354 48.7422 16.7359 50.3422 16.3071C50.8301 16.1764 51.3499 16.2447 51.7872 16.4972C52.2247 16.7497 52.5439 17.1658 52.6744 17.6536L52.6611 17.6044C52.5307 17.1168 52.2117 16.701 51.7747 16.4485C49.5357 15.1544 42.4281 11.0465 40.1876 9.75166C39.7503 9.49889 39.2302 9.43007 38.7421 9.56109L38.6929 9.57405Z" fill="url(#paint3_linear_1622_210554)"/>
<path fill-rule="evenodd" clip-rule="evenodd" d="M22.1986 18.0554C22.27 17.7949 22.4744 17.5919 22.7353 17.522C22.9961 17.4521 23.2745 17.5257 23.4667 17.7158L25.2959 19.5228L27.8644 19.4037C28.1344 19.3912 28.3906 19.5228 28.5378 19.7494C28.685 19.9759 28.7008 20.2636 28.5796 20.505L27.4264 22.803L28.3332 25.2093C28.4285 25.4621 28.3824 25.7463 28.2125 25.9562C28.0426 26.1661 27.7739 26.2702 27.5068 26.2297L24.9648 25.8427L22.9566 27.4488C22.7457 27.6174 22.4611 27.6616 22.2089 27.565C21.9566 27.4681 21.7748 27.2447 21.7309 26.9782L21.3132 24.4412L19.1653 23.0275C18.9398 22.879 18.8095 22.622 18.8238 22.3523C18.8378 22.0826 18.994 21.8404 19.2341 21.7162L21.5178 20.5352L22.1986 18.0554Z" fill="url(#paint4_linear_1622_210554)"/>
<g filter="url(#filter1_f_1622_210554)">
<path fill-rule="evenodd" clip-rule="evenodd" d="M67.2704 67.1277C67.701 67.1277 68.1142 66.9567 68.4186 66.6521C68.7233 66.3474 68.8943 65.9345 68.8943 65.5039C68.8943 59.0169 68.8943 35.1232 68.8943 31.204C68.8943 30.6992 68.7063 30.2151 68.372 29.8581C66.6579 28.0286 61.2178 22.2211 59.5029 20.3905C59.1681 20.0329 58.7139 19.832 58.2401 19.832C55.2179 19.832 40.3368 19.832 35.3607 19.832C34.4639 19.832 33.7368 20.5591 33.7368 21.4561C33.7368 28.725 33.7368 58.2348 33.7368 65.5039C33.7368 65.9345 33.9081 66.3474 34.2125 66.6521C34.5171 66.9567 34.93 67.1277 35.3607 67.1277C41.2417 67.1277 61.3893 67.1277 67.2704 67.1277Z" fill="#CAD5F8"/>
</g>
<path fill-rule="evenodd" clip-rule="evenodd" d="M70.1478 66.6316C70.5787 66.6316 70.9916 66.4604 71.2962 66.156C71.6006 65.8513 71.7719 65.4384 71.7719 65.0078C71.7719 58.5206 71.7719 34.6271 71.7719 30.7079C71.7719 30.2032 71.5715 29.719 71.2147 29.362C69.3868 27.5325 63.5846 21.725 61.7557 19.8944C61.3986 19.5368 60.9139 19.3359 60.4087 19.3359C57.1634 19.3359 41.0948 19.3359 35.8987 19.3359C35.002 19.3359 34.2749 20.063 34.2749 20.9598C34.2749 28.2289 34.2749 57.7387 34.2749 65.0078C34.2749 65.4384 34.4462 65.8513 34.7505 66.156C35.0552 66.4604 35.4681 66.6316 35.8987 66.6316C42.0638 66.6316 63.983 66.6316 70.1478 66.6316Z" fill="url(#paint5_linear_1622_210554)"/>
<path fill-rule="evenodd" clip-rule="evenodd" d="M60.3574 19.3359C61.409 19.3359 62.2616 20.1885 62.2616 21.2401C62.2616 22.8989 62.2616 25.2916 62.2616 26.9504C62.2616 28.002 63.1141 28.8546 64.1657 28.8546C65.8224 28.8546 68.2109 28.8546 69.8676 28.8546C70.3726 28.8546 70.8567 29.0552 71.2138 29.4123C71.5711 29.7693 71.7717 30.2537 71.7717 30.7587V30.7079C71.7717 30.2032 71.5714 29.719 71.2146 29.362C69.3866 27.5325 63.5845 21.725 61.7555 19.8944C61.3984 19.5368 60.9138 19.3359 60.4085 19.3359H60.3574Z" fill="url(#paint6_linear_1622_210554)"/>
<g filter="url(#filter2_f_1622_210554)">
<path fill-rule="evenodd" clip-rule="evenodd" d="M62.6128 22.8828L69.5163 29.6H62.6128V22.8828Z" fill="#C4D1F8"/>
</g>
<path fill-rule="evenodd" clip-rule="evenodd" d="M60.3574 19.3359C61.409 19.3359 62.2616 20.1885 62.2616 21.2401C62.2616 22.8989 62.2616 25.2916 62.2616 26.9504C62.2616 28.002 63.1141 28.8546 64.1657 28.8546C65.8224 28.8546 68.2109 28.8546 69.8676 28.8546C70.3726 28.8546 70.8567 29.0552 71.2138 29.4123C71.5711 29.7693 71.7717 30.2537 71.7717 30.7587V30.7079C71.7717 30.2032 71.5714 29.719 71.2146 29.362C69.3866 27.5325 63.5845 21.725 61.7555 19.8944C61.3984 19.5368 60.9138 19.3359 60.4085 19.3359H60.3574Z" fill="url(#paint7_linear_1622_210554)"/>
<path fill-rule="evenodd" clip-rule="evenodd" d="M42.2303 23.2592C42.3669 23.026 42.6167 22.8828 42.887 22.8828C43.157 22.8828 43.4068 23.026 43.5434 23.2592L44.8425 25.4781L47.3543 26.0281C47.6182 26.0858 47.8318 26.2793 47.9152 26.536C47.9986 26.793 47.9396 27.0749 47.7601 27.2769L46.0513 29.198L46.3043 31.7569C46.3311 32.0256 46.213 32.2884 45.9947 32.4472C45.776 32.6061 45.4896 32.637 45.2422 32.5288L42.887 31.497L40.5315 32.5288C40.2841 32.637 39.9977 32.6061 39.7793 32.4472C39.5607 32.2884 39.4426 32.0256 39.4694 31.7569L39.7224 29.198L38.0136 27.2769C37.8341 27.0749 37.7751 26.793 37.8585 26.536C37.9421 26.2793 38.1554 26.0858 38.4193 26.0281L40.9312 25.4781L42.2303 23.2592Z" fill="url(#paint8_linear_1622_210554)"/>
<g style="mix-blend-mode:multiply" filter="url(#filter3_f_1622_210554)">
<path fill-rule="evenodd" clip-rule="evenodd" d="M21.8531 73.5275C34.0548 73.5275 69.6284 73.5275 69.6284 73.5275V42.4327C69.6284 41.6381 69.3129 40.8764 68.7512 40.3147C68.1893 39.7528 67.4275 39.4373 66.6332 39.4373C58.3834 39.4373 35.7592 39.4373 33.0022 39.4373C32.8283 39.4373 32.665 39.3544 32.5625 39.2141C32.003 38.4489 30.1645 35.9352 29.5896 35.1488C29.4813 35.0008 29.3058 34.9172 29.1224 34.9265C28.0385 34.981 24.1834 34.8555 21.4574 34.9929C19.8637 35.0734 18.6128 36.3889 18.6128 37.9844C18.6128 44.9186 18.6128 62.9647 18.6128 70.2872C18.6128 72.0767 20.0635 73.5275 21.8531 73.5275Z" fill="#D9E1FA"/>
</g>
<path fill-rule="evenodd" clip-rule="evenodd" d="M20.253 73.5281C32.4547 73.5281 72.6036 73.5281 71.7588 73.5281H71.7585C70.9136 73.5281 70.1034 73.1925 69.506 72.5951C68.9086 71.9977 68.573 71.1875 68.573 70.3426V42.9778C68.573 41.3235 67.2318 39.9826 65.5778 39.9826C57.4175 39.9826 35.2207 39.9826 32.4913 39.9826C32.3176 39.9826 32.1543 39.8998 32.0516 39.7595C31.4886 38.9895 29.6313 36.4499 29.0683 35.6802C28.9659 35.5399 28.8026 35.457 28.6287 35.457C27.4868 35.457 23.0552 35.457 20.0081 35.457C18.3539 35.457 17.0127 36.7979 17.0127 38.4522C17.0127 45.4868 17.0127 63.0164 17.0127 70.2878C17.0127 72.0774 18.4634 73.5281 20.253 73.5281Z" fill="url(#paint9_linear_1622_210554)"/>
<path fill-rule="evenodd" clip-rule="evenodd" d="M40.085 48.2417C40.3539 47.7824 40.8463 47.5 41.3785 47.5C41.9108 47.5 42.4034 47.7824 42.6723 48.2417L45.2321 52.614L50.1815 53.6976C50.7013 53.8114 51.1219 54.1923 51.2865 54.6987C51.4509 55.2047 51.3347 55.7603 50.9808 56.1579L47.6138 59.9437L48.1127 64.9857C48.1651 65.5153 47.9327 66.033 47.5021 66.3459C47.0714 66.6588 46.5071 66.7199 46.0195 66.5063L41.3785 64.4738L36.7378 66.5063C36.2502 66.7199 35.6859 66.6588 35.2553 66.3459C34.8246 66.033 34.5923 65.5153 34.6447 64.9857L35.1436 59.9437L31.7763 56.1579C31.4226 55.7603 31.3064 55.2047 31.4708 54.6987C31.6352 54.1923 32.0558 53.8114 32.5759 53.6976L37.5252 52.614L40.085 48.2417Z" fill="url(#paint10_linear_1622_210554)"/>
<path fill-rule="evenodd" clip-rule="evenodd" d="M57.5133 12.2648L58.4889 7.12325C58.5458 6.82415 58.3491 6.53538 58.0501 6.47847C57.751 6.42183 57.4622 6.61849 57.4055 6.91758L56.4296 12.0591C56.373 12.3582 56.5697 12.647 56.8688 12.7036C57.1676 12.7605 57.4566 12.5636 57.5133 12.2648Z" fill="#A7B6E4"/>
<path fill-rule="evenodd" clip-rule="evenodd" d="M12.9001 30.2019L8.47644 27.4058C8.21917 27.243 7.87825 27.3197 7.71573 27.577C7.55295 27.8343 7.62998 28.1752 7.88725 28.338L12.3107 31.1341C12.568 31.2966 12.9089 31.2199 13.0717 30.9626C13.2342 30.7053 13.1574 30.3644 12.9001 30.2019Z" fill="#A7B6E4"/>
<path fill-rule="evenodd" clip-rule="evenodd" d="M62.1805 15.0037L66.9279 11.8465C67.1815 11.6779 67.2503 11.3354 67.0817 11.0818C66.9134 10.8285 66.5706 10.7597 66.3173 10.9281L61.5699 14.0852C61.3163 14.2538 61.2475 14.5964 61.4158 14.8499C61.5844 15.1032 61.9269 15.1723 62.1805 15.0037Z" fill="#A7B6E4"/>
<path fill-rule="evenodd" clip-rule="evenodd" d="M10.8726 35.3392L5.32481 36.6539C5.02862 36.724 4.8452 37.0215 4.91534 37.3177C4.98548 37.6136 5.28299 37.797 5.57917 37.7269L11.127 36.4122C11.4232 36.3421 11.6066 36.0448 11.5362 35.7486C11.4661 35.4525 11.1688 35.269 10.8726 35.3392Z" fill="#A7B6E4"/>
<defs>
<filter id="filter0_f_1622_210554" x="35.4081" y="6.0331" width="21.1687" height="19.2502" filterUnits="userSpaceOnUse" color-interpolation-filters="sRGB">
<feFlood flood-opacity="0" result="BackgroundImageFix"/>
<feBlend mode="normal" in="SourceGraphic" in2="BackgroundImageFix" result="shape"/>
<feGaussianBlur stdDeviation="3.19048" result="effect1_foregroundBlur_1622_210554"/>
</filter>
<filter id="filter1_f_1622_210554" x="25.4511" y="11.5463" width="51.7287" height="63.8664" filterUnits="userSpaceOnUse" color-interpolation-filters="sRGB">
<feFlood flood-opacity="0" result="BackgroundImageFix"/>
<feBlend mode="normal" in="SourceGraphic" in2="BackgroundImageFix" result="shape"/>
<feGaussianBlur stdDeviation="4.14286" result="effect1_foregroundBlur_1622_210554"/>
</filter>
<filter id="filter2_f_1622_210554" x="56.2318" y="16.5019" width="19.6652" height="19.4787" filterUnits="userSpaceOnUse" color-interpolation-filters="sRGB">
<feFlood flood-opacity="0" result="BackgroundImageFix"/>
<feBlend mode="normal" in="SourceGraphic" in2="BackgroundImageFix" result="shape"/>
<feGaussianBlur stdDeviation="3.19048" result="effect1_foregroundBlur_1622_210554"/>
</filter>
<filter id="filter3_f_1622_210554" x="11.089" y="27.402" width="66.0632" height="53.6492" filterUnits="userSpaceOnUse" color-interpolation-filters="sRGB">
<feFlood flood-opacity="0" result="BackgroundImageFix"/>
<feBlend mode="normal" in="SourceGraphic" in2="BackgroundImageFix" result="shape"/>
<feGaussianBlur stdDeviation="3.7619" result="effect1_foregroundBlur_1622_210554"/>
</filter>
<linearGradient id="paint0_linear_1622_210554" x1="48.5398" y1="26.1406" x2="67.5107" y2="73.3228" gradientUnits="userSpaceOnUse">
<stop stop-color="#C7D3FE"/>
<stop offset="1" stop-color="#98ACF0"/>
</linearGradient>
<linearGradient id="paint1_linear_1622_210554" x1="19.9198" y1="11.6966" x2="55.294" y2="64.2775" gradientUnits="userSpaceOnUse">
<stop stop-color="white"/>
<stop offset="1" stop-color="#C6D2FB"/>
</linearGradient>
<linearGradient id="paint2_linear_1622_210554" x1="3.65698" y1="-42.7347" x2="18.7372" y2="-30.4424" gradientUnits="userSpaceOnUse">
<stop stop-color="white"/>
<stop offset="1" stop-color="#C6D2FB"/>
</linearGradient>
<linearGradient id="paint3_linear_1622_210554" x1="41.7548" y1="8.7538" x2="47.694" y2="18.1661" gradientUnits="userSpaceOnUse">
<stop stop-color="#E3E9FE"/>
<stop offset="1" stop-color="#B1C2FC"/>
</linearGradient>
<linearGradient id="paint4_linear_1622_210554" x1="19.9921" y1="17.5768" x2="23.3897" y2="28.2938" gradientUnits="userSpaceOnUse">
<stop stop-color="#D7E0FE"/>
<stop offset="1" stop-color="#92AAFC"/>
</linearGradient>
<linearGradient id="paint5_linear_1622_210554" x1="39.1946" y1="17.4961" x2="62.2349" y2="76.4721" gradientUnits="userSpaceOnUse">
<stop stop-color="white"/>
<stop offset="1" stop-color="#C6D2FB"/>
</linearGradient>
<linearGradient id="paint6_linear_1622_210554" x1="40.0542" y1="-40.2586" x2="51.4391" y2="-24.4821" gradientUnits="userSpaceOnUse">
<stop stop-color="white"/>
<stop offset="1" stop-color="#C6D2FB"/>
</linearGradient>
<linearGradient id="paint7_linear_1622_210554" x1="63.5276" y1="19.3359" x2="66.8283" y2="29.9647" gradientUnits="userSpaceOnUse">
<stop stop-color="#E3E9FE"/>
<stop offset="1" stop-color="#B1C2FC"/>
</linearGradient>
<linearGradient id="paint8_linear_1622_210554" x1="40.2229" y1="22.2259" x2="40.731" y2="33.457" gradientUnits="userSpaceOnUse">
<stop stop-color="#D7E0FE"/>
<stop offset="1" stop-color="#92AAFC"/>
</linearGradient>
<linearGradient id="paint9_linear_1622_210554" x1="30.5974" y1="33.0915" x2="33.2284" y2="73.5281" gradientUnits="userSpaceOnUse">
<stop stop-color="#E3E9FE"/>
<stop offset="1" stop-color="#B1C2FC"/>
</linearGradient>
<linearGradient id="paint10_linear_1622_210554" x1="36.1298" y1="46.2057" x2="37.1309" y2="68.3356" gradientUnits="userSpaceOnUse">
<stop stop-color="#A5B9FD"/>
<stop offset="1" stop-color="#7C99FB"/>
</linearGradient>
</defs>
</svg>
