<svg width="80" height="80" viewBox="0 0 80 80" fill="none" xmlns="http://www.w3.org/2000/svg">
<path fill-rule="evenodd" clip-rule="evenodd" d="M55.9045 26.8039C55.9045 25.936 55.5598 25.1038 54.9461 24.4901C54.3324 23.8767 53.5002 23.532 52.6322 23.532C44.5025 23.532 21.16 23.532 21.16 23.532L17.4211 19.8145H7.37448C5.56737 19.8145 4.10254 21.2796 4.10254 23.0867C4.10254 31.8335 4.10254 55.8273 4.10254 66.6755C4.10254 68.122 4.67679 69.5089 5.6997 70.5318C6.7223 71.5544 8.1095 72.1289 9.55568 72.1289C22.8605 72.1289 55.9045 72.1289 55.9045 72.1289V26.8039Z" fill="url(#paint0_linear_3636_438658)"/>
<path fill-rule="evenodd" clip-rule="evenodd" d="M57.3507 24.1895C57.3308 23.9462 57.2147 23.721 57.028 23.5636C56.8415 23.4062 56.5998 23.3298 56.3568 23.3512C50.143 23.8964 14.3209 27.0403 8.14007 27.5828C7.63763 27.6268 7.26509 28.0684 7.30634 28.5711C7.75346 34.0169 10.0728 62.2781 10.5224 67.7526C10.5422 67.9959 10.6584 68.2211 10.8448 68.3785C11.0315 68.5356 11.273 68.6123 11.5162 68.5909C17.7298 68.0454 53.5519 64.9015 59.7327 64.359C60.2351 64.315 60.6077 63.8734 60.5664 63.3709C60.1196 57.9251 57.7999 29.664 57.3507 24.1895Z" fill="#C4D1FD"/>
<path fill-rule="evenodd" clip-rule="evenodd" d="M61.4158 26.3094C61.4158 25.803 61.0054 25.3926 60.499 25.3926C54.2781 25.3926 18.3182 25.3926 12.097 25.3926C11.5906 25.3926 11.1802 25.803 11.1802 26.3094C11.1802 31.7889 11.1802 60.153 11.1802 65.6321C11.1802 66.1385 11.5906 66.5489 12.097 66.5489C18.3182 66.5489 54.2781 66.5489 60.499 66.5489C61.0054 66.5489 61.4158 66.1385 61.4158 65.6321C61.4158 60.153 61.4158 31.7889 61.4158 26.3094Z" fill="url(#paint1_linear_3636_438658)"/>
<path fill-rule="evenodd" clip-rule="evenodd" d="M40.9351 33.822C40.9351 33.2147 40.443 32.7227 39.8361 32.7227C36.3001 32.7227 20.1628 32.7227 16.6268 32.7227C16.0199 32.7227 15.5278 33.2147 15.5278 33.822C15.5278 34.4289 16.0199 34.921 16.6268 34.921C20.1628 34.921 36.3001 34.921 39.8361 34.921C40.443 34.921 40.9351 34.4289 40.9351 33.822Z" fill="url(#paint2_linear_3636_438658)"/>
<path fill-rule="evenodd" clip-rule="evenodd" d="M47.5094 38.6205C47.5094 38.0135 47.0174 37.5215 46.4101 37.5215C43.9315 37.5215 32.8495 37.5215 30.371 37.5215C29.764 37.5215 29.272 38.0135 29.272 38.6205C29.272 39.2277 29.764 39.7198 30.371 39.7198C32.8495 39.7198 43.9315 39.7198 46.4101 39.7198C47.0174 39.7198 47.5094 39.2277 47.5094 38.6205Z" fill="url(#paint3_linear_3636_438658)"/>
<path fill-rule="evenodd" clip-rule="evenodd" d="M53.2668 43.4216C53.2665 42.8143 52.7744 42.3223 52.1675 42.3223C47.9952 42.3223 28.0823 42.3223 23.91 42.3223C23.3031 42.3223 22.811 42.8143 22.811 43.4216C22.811 44.0285 23.3031 44.5206 23.91 44.5206C28.0823 44.5206 47.9952 44.5206 52.1675 44.5206C52.7744 44.5206 53.2665 44.0285 53.2668 43.4216Z" fill="#C4D1FD"/>
<path fill-rule="evenodd" clip-rule="evenodd" d="M54.8375 43.3256L55.7543 44.1508C55.875 44.2596 56.0599 44.2547 56.1748 44.1398L57.7029 42.6117C57.8221 42.4922 57.8221 42.2987 57.7029 42.1792C57.5837 42.06 57.39 42.06 57.2708 42.1792L55.9478 43.5022L55.2464 42.8711C55.1211 42.7584 54.9276 42.7685 54.8148 42.8938C54.7018 43.0194 54.7122 43.2128 54.8375 43.3256Z" fill="#9AB0FC"/>
<path fill-rule="evenodd" clip-rule="evenodd" d="M54.8375 52.9466L55.7543 53.7718C55.875 53.8806 56.0599 53.8757 56.1748 53.7608L57.7029 52.2327C57.8221 52.1135 57.8221 51.9198 57.7029 51.8006C57.5837 51.6811 57.39 51.6811 57.2708 51.8006L55.9478 53.1236L55.2464 52.4922C55.1211 52.3794 54.9276 52.3898 54.8148 52.5151C54.7018 52.6404 54.7122 52.8339 54.8375 52.9466Z" fill="#9AB0FC"/>
<path fill-rule="evenodd" clip-rule="evenodd" d="M46.6773 28.5033C46.6773 28.1283 46.3732 27.8242 45.9982 27.8242C43.4203 27.8242 29.1761 27.8242 26.5985 27.8242C26.2235 27.8242 25.9194 28.1283 25.9194 28.5033C25.9194 28.8783 26.2235 29.1824 26.5985 29.1824C29.1761 29.1824 43.4203 29.1824 45.9982 29.1824C46.3732 29.1824 46.6773 28.8783 46.6773 28.5033Z" fill="#C4D1FD"/>
<path fill-rule="evenodd" clip-rule="evenodd" d="M42.467 48.2181C42.467 47.6112 41.975 47.1191 41.368 47.1191C38.1208 47.1191 23.5156 47.1191 20.2687 47.1191C19.6618 47.1191 19.1694 47.6112 19.1694 48.2181C19.1694 48.8254 19.6618 49.3175 20.2687 49.3175C23.5156 49.3175 38.1208 49.3175 41.368 49.3175C41.975 49.3175 42.467 48.8254 42.467 48.2181Z" fill="url(#paint4_linear_3636_438658)"/>
<path fill-rule="evenodd" clip-rule="evenodd" d="M53.2669 53.0192C53.2666 52.4123 52.7746 51.9199 52.1676 51.9199C48.6316 51.9199 32.4944 51.9199 28.9584 51.9199C28.3514 51.9199 27.8594 52.4123 27.8594 53.0192C27.8594 53.6262 28.3514 54.1182 28.9584 54.1182C32.4944 54.1182 48.6316 54.1182 52.1676 54.1182C52.7746 54.1182 53.2666 53.6262 53.2669 53.0192Z" fill="#C4D1FD"/>
<path fill-rule="evenodd" clip-rule="evenodd" d="M15.1343 66.6748C15.1343 63.809 15.1343 58.5298 15.1343 58.5298C15.1343 56.7226 16.5994 55.2578 18.4062 55.2578C27.727 55.2578 54.3436 55.2578 63.6643 55.2578C65.4714 55.2578 66.9362 56.7226 66.9362 58.5298C66.9362 62.1348 66.9362 62.3735 66.9362 66.6748C66.9362 68.1213 66.3617 69.5082 65.3391 70.5311C64.3165 71.5537 62.9293 72.1282 61.4831 72.1282H9.68115C11.1273 72.1282 12.5145 71.5537 13.5371 70.5311C14.5597 69.5082 15.1343 68.1213 15.1343 66.6748Z" fill="url(#paint5_linear_3636_438658)"/>
<g filter="url(#filter0_f_3636_438658)">
<path fill-rule="evenodd" clip-rule="evenodd" d="M53.1661 32.4529C53.4491 31.7971 53.3168 31.0361 52.8297 30.5137C51.4602 29.0349 50.4241 27.243 49.8398 25.2586C49.7542 24.9677 49.1409 23.0331 50.1393 23.8296C52.5146 25.7241 59.5627 31.9049 61.5871 34.2695C62.1935 34.9776 60.6406 34.6592 60.523 34.6405C59.53 34.481 58.5123 34.6078 57.5891 35.0057C56.3531 35.5173 54.0051 37.1188 52.591 37.7285C52.205 37.8947 51.7563 37.8089 51.459 37.5115C51.1616 37.2144 51.0757 36.7658 51.2423 36.3795C51.6955 35.3281 52.8028 33.2961 53.1661 32.4529Z" fill="#CED9FF"/>
</g>
<path fill-rule="evenodd" clip-rule="evenodd" d="M53.1661 32.4519C53.4491 31.796 53.3168 31.035 52.8296 30.5127C50.6383 28.1463 49.3013 24.9795 49.3013 21.5031C49.3013 14.1637 55.2599 8.20508 62.5993 8.20508C69.9387 8.20508 75.8974 14.1637 75.8974 21.5031C75.8974 28.8422 69.9387 34.8009 62.5993 34.8009C61.893 34.8009 61.1996 34.7459 60.523 34.6395C59.53 34.48 58.5123 34.6068 57.589 35.0047C56.3531 35.5163 54.6001 36.2724 53.1863 36.8821C52.8003 37.0484 52.3516 36.9625 52.0543 36.6655C51.7569 36.3681 51.671 35.9194 51.8376 35.5331C52.2908 34.4821 52.8027 33.2951 53.1661 32.4519Z" fill="url(#paint6_linear_3636_438658)"/>
<path fill-rule="evenodd" clip-rule="evenodd" d="M57.0257 14.2709C57.1623 14.0377 57.4121 13.8945 57.6824 13.8945C57.9524 13.8945 58.2022 14.0377 58.3388 14.2709L59.6379 16.4898L62.1497 17.0398C62.4136 17.0975 62.6272 17.291 62.7106 17.5477C62.794 17.8047 62.735 18.0866 62.5555 18.2886L60.8467 20.2097L61.0997 22.7687C61.1265 23.0373 61.0084 23.3002 60.7901 23.459C60.5714 23.6178 60.285 23.6487 60.0376 23.5405L57.6824 22.5087L55.3269 23.5405C55.0795 23.6487 54.7931 23.6178 54.5747 23.459C54.3561 23.3002 54.238 23.0373 54.2648 22.7687L54.5178 20.2097L52.809 18.2886C52.6295 18.0866 52.5705 17.8047 52.6539 17.5477C52.7375 17.291 52.9509 17.0975 53.2147 17.0398L55.7266 16.4898L57.0257 14.2709Z" fill="url(#paint7_linear_3636_438658)"/>
<path fill-rule="evenodd" clip-rule="evenodd" d="M64.4827 23.8198C64.5612 23.6858 64.7048 23.6035 64.8601 23.6035C65.0152 23.6035 65.1588 23.6858 65.2373 23.8198L65.9837 25.0948L67.4271 25.4108C67.5787 25.444 67.7015 25.5552 67.7494 25.7027C67.7973 25.8504 67.7634 26.0124 67.6603 26.1284L66.6783 27.2323L66.8237 28.7028C66.8391 28.8571 66.7713 29.0082 66.6458 29.0994C66.5202 29.1907 66.3556 29.2085 66.2134 29.1463L64.8601 28.5534L63.5066 29.1463C63.3644 29.2085 63.1998 29.1907 63.0743 29.0994C62.9487 29.0082 62.8809 28.8571 62.8962 28.7028L63.0416 27.2323L62.0597 26.1284C61.9566 26.0124 61.9227 25.8504 61.9706 25.7027C62.0186 25.5552 62.1412 25.444 62.2929 25.4108L63.7362 25.0948L64.4827 23.8198Z" fill="url(#paint8_linear_3636_438658)"/>
<path fill-rule="evenodd" clip-rule="evenodd" d="M68.2204 14.7771C68.3245 14.5994 68.515 14.4902 68.721 14.4902C68.9267 14.4902 69.1172 14.5994 69.2213 14.7771L70.2114 16.4683L72.126 16.8876C72.3271 16.9315 72.49 17.079 72.5535 17.2747C72.6171 17.4706 72.5721 17.6855 72.4353 17.8394L71.1328 19.3037L71.3257 21.2541C71.3461 21.4589 71.2561 21.6592 71.0896 21.7803C70.923 21.9013 70.7047 21.9249 70.5161 21.8424L68.721 21.056L66.9256 21.8424C66.737 21.9249 66.5187 21.9013 66.3523 21.7803C66.1856 21.6592 66.0956 21.4589 66.116 21.2541L66.3089 19.3037L65.0064 17.8394C64.8696 17.6855 64.8247 17.4706 64.8882 17.2747C64.952 17.079 65.1146 16.9315 65.3157 16.8876L67.2303 16.4683L68.2204 14.7771Z" fill="url(#paint9_linear_3636_438658)"/>
<path fill-rule="evenodd" clip-rule="evenodd" d="M46.5357 17.4114L40.9879 18.7261C40.6917 18.7963 40.5083 19.0938 40.5784 19.39C40.6486 19.6859 40.9461 19.8693 41.2423 19.7992L46.7901 18.4845C47.0863 18.4143 47.2697 18.1171 47.1993 17.8209C47.1291 17.5247 46.8319 17.3413 46.5357 17.4114Z" fill="#A7B6E4"/>
<path fill-rule="evenodd" clip-rule="evenodd" d="M48.5632 12.2742L44.1395 9.47802C43.8823 9.31524 43.5413 9.39199 43.3788 9.64927C43.216 9.90654 43.2931 10.2475 43.5503 10.4102L47.9738 13.2064C48.231 13.3689 48.572 13.2921 48.7347 13.0349C48.8973 12.7776 48.8205 12.4367 48.5632 12.2742Z" fill="#A7B6E4"/>
<defs>
<filter id="filter0_f_3636_438658" x="39.3847" y="13.4482" width="32.5328" height="34.5548" filterUnits="userSpaceOnUse" color-interpolation-filters="sRGB">
<feFlood flood-opacity="0" result="BackgroundImageFix"/>
<feBlend mode="normal" in="SourceGraphic" in2="BackgroundImageFix" result="shape"/>
<feGaussianBlur stdDeviation="5.09524" result="effect1_foregroundBlur_3636_438658"/>
</filter>
<linearGradient id="paint0_linear_3636_438658" x1="6.53345" y1="20.1677" x2="12.4037" y2="68.7418" gradientUnits="userSpaceOnUse">
<stop stop-color="#B8C8FE"/>
<stop offset="1" stop-color="#87A2FB"/>
</linearGradient>
<linearGradient id="paint1_linear_3636_438658" x1="16.2168" y1="26.439" x2="59.5355" y2="72.9528" gradientUnits="userSpaceOnUse">
<stop stop-color="#F9FBFF"/>
<stop offset="1" stop-color="#E1E8FD"/>
</linearGradient>
<linearGradient id="paint2_linear_3636_438658" x1="20.6086" y1="41.1421" x2="47.5092" y2="41.1421" gradientUnits="userSpaceOnUse">
<stop stop-color="#B8C8FE"/>
<stop offset="1" stop-color="#87A2FB"/>
</linearGradient>
<linearGradient id="paint3_linear_3636_438658" x1="20.6088" y1="41.1418" x2="47.5094" y2="41.1418" gradientUnits="userSpaceOnUse">
<stop stop-color="#B8C8FE"/>
<stop offset="1" stop-color="#87A2FB"/>
</linearGradient>
<linearGradient id="paint4_linear_3636_438658" x1="20.6087" y1="41.1415" x2="47.5093" y2="41.1415" gradientUnits="userSpaceOnUse">
<stop stop-color="#B8C8FE"/>
<stop offset="1" stop-color="#87A2FB"/>
</linearGradient>
<linearGradient id="paint5_linear_3636_438658" x1="30.358" y1="50.1937" x2="31.7206" y2="68.5267" gradientUnits="userSpaceOnUse">
<stop stop-color="#CFDAFE"/>
<stop offset="1" stop-color="#B4C4FD"/>
</linearGradient>
<linearGradient id="paint6_linear_3636_438658" x1="52.1814" y1="5.33319" x2="68.5557" y2="38.133" gradientUnits="userSpaceOnUse">
<stop stop-color="white"/>
<stop offset="1" stop-color="#CBD5F6"/>
</linearGradient>
<linearGradient id="paint7_linear_3636_438658" x1="55.0183" y1="13.2376" x2="55.5264" y2="24.4688" gradientUnits="userSpaceOnUse">
<stop stop-color="#D7E0FE"/>
<stop offset="1" stop-color="#92AAFC"/>
</linearGradient>
<linearGradient id="paint8_linear_3636_438658" x1="63.3292" y1="23.226" x2="63.6212" y2="29.6797" gradientUnits="userSpaceOnUse">
<stop stop-color="#D7E0FE"/>
<stop offset="1" stop-color="#92AAFC"/>
</linearGradient>
<linearGradient id="paint9_linear_3636_438658" x1="66.6904" y1="13.9895" x2="67.0776" y2="22.55" gradientUnits="userSpaceOnUse">
<stop stop-color="#D7E0FE"/>
<stop offset="1" stop-color="#92AAFC"/>
</linearGradient>
</defs>
</svg>
