<svg width="156" height="156" viewBox="0 0 156 156" fill="none" xmlns="http://www.w3.org/2000/svg">
<path d="M124.908 104.996H17.5396V118.708H124.908V104.996Z" fill="url(#paint0_linear_1622_210729)"/>
<path fill-rule="evenodd" clip-rule="evenodd" d="M124.908 84.4818H17.5396V78.4593C17.5396 78.4593 33.8527 64.7126 38.8174 60.5293C39.7321 59.7583 40.8894 59.3359 42.0854 59.3359C51.2029 59.3359 91.2445 59.3359 100.362 59.3359C101.558 59.3359 102.715 59.7583 103.63 60.5293C108.595 64.7126 124.908 78.4593 124.908 78.4593V84.4818Z" fill="url(#paint1_linear_1622_210729)"/>
<path fill-rule="evenodd" clip-rule="evenodd" d="M127.448 84.6073C127.448 80.0327 123.74 76.3242 119.165 76.3242C98.36 76.3242 44.0877 76.3242 23.2825 76.3242C18.7079 76.3242 15 80.0327 15 84.6073C15 90.0096 15 97.0343 15 102.437C15 107.011 18.7079 110.72 23.2825 110.72C44.0877 110.72 98.36 110.72 119.165 110.72C123.74 110.72 127.448 107.011 127.448 102.437C127.448 97.0343 127.448 90.0096 127.448 84.6073Z" fill="url(#paint2_linear_1622_210729)"/>
<path fill-rule="evenodd" clip-rule="evenodd" d="M126.096 84.6073C126.096 80.0327 122.387 76.3242 117.813 76.3242C97.0076 76.3242 44.0877 76.3242 23.2825 76.3242C18.7079 76.3242 15 80.0327 15 84.6073C15 90.0096 15 95.0055 15 100.408C15 104.983 18.7079 108.691 23.2825 108.691C44.0877 108.691 97.0076 108.691 117.813 108.691C122.387 108.691 126.096 104.983 126.096 100.408C126.096 95.0055 126.096 90.0096 126.096 84.6073Z" fill="url(#paint3_linear_1622_210729)"/>
<path fill-rule="evenodd" clip-rule="evenodd" d="M127.448 121.889C127.448 117.314 123.74 113.605 119.165 113.605C98.36 113.605 44.0877 113.605 23.2825 113.605C18.7079 113.605 15 117.314 15 121.889C15 127.291 15 134.316 15 139.718C15 144.292 18.7079 148.001 23.2825 148.001C44.0877 148.001 98.36 148.001 119.165 148.001C123.74 148.001 127.448 144.292 127.448 139.718C127.448 134.316 127.448 127.291 127.448 121.889Z" fill="url(#paint4_linear_1622_210729)"/>
<path fill-rule="evenodd" clip-rule="evenodd" d="M126.096 121.889C126.096 117.314 122.387 113.605 117.813 113.605C97.0076 113.605 44.0877 113.605 23.2825 113.605C18.7079 113.605 15 117.314 15 121.889C15 127.291 15 132.287 15 137.69C15 142.264 18.7079 145.972 23.2825 145.972C44.0877 145.972 97.0076 145.972 117.813 145.972C122.387 145.972 126.096 142.264 126.096 137.69C126.096 132.287 126.096 127.291 126.096 121.889Z" fill="url(#paint5_linear_1622_210729)"/>
<path d="M31.9469 99.6574C35.3364 99.6574 38.0842 96.9096 38.0842 93.5201C38.0842 90.1306 35.3364 87.3828 31.9469 87.3828C28.5573 87.3828 25.8096 90.1306 25.8096 93.5201C25.8096 96.9096 28.5573 99.6574 31.9469 99.6574Z" fill="url(#paint6_linear_1622_210729)"/>
<path d="M31.9469 136.939C35.3364 136.939 38.0842 134.191 38.0842 130.801C38.0842 127.412 35.3364 124.664 31.9469 124.664C28.5573 124.664 25.8096 127.412 25.8096 130.801C25.8096 134.191 28.5573 136.939 31.9469 136.939Z" fill="url(#paint7_linear_1622_210729)"/>
<path d="M31.9469 135.142C34.343 135.142 36.2854 133.199 36.2854 130.803C36.2854 128.407 34.343 126.465 31.9469 126.465C29.5508 126.465 27.6084 128.407 27.6084 130.803C27.6084 133.199 29.5508 135.142 31.9469 135.142Z" fill="url(#paint8_linear_1622_210729)"/>
<path d="M31.9469 97.8606C34.343 97.8606 36.2854 95.9182 36.2854 93.5221C36.2854 91.126 34.343 89.1836 31.9469 89.1836C29.5508 89.1836 27.6084 91.126 27.6084 93.5221C27.6084 95.9182 29.5508 97.8606 31.9469 97.8606Z" fill="url(#paint9_linear_1622_210729)"/>
<path fill-rule="evenodd" clip-rule="evenodd" d="M116.638 89.6171C116.638 88.3833 115.638 87.3828 114.404 87.3828C114.403 87.3828 114.403 87.3828 114.402 87.3828C113.168 87.3828 112.168 88.3833 112.168 89.6171C112.168 91.8322 112.168 95.208 112.168 97.4231C112.168 98.6569 113.168 99.6569 114.402 99.6569C114.403 99.6569 114.403 99.6569 114.404 99.6569C115.638 99.6569 116.638 98.6569 116.638 97.4231C116.638 95.208 116.638 91.8322 116.638 89.6171Z" fill="url(#paint10_linear_1622_210729)"/>
<path fill-rule="evenodd" clip-rule="evenodd" d="M106.464 89.6171C106.464 88.3833 105.464 87.3828 104.23 87.3828C104.23 87.3828 104.229 87.3828 104.229 87.3828C102.995 87.3828 101.995 88.3833 101.995 89.6171C101.995 91.8322 101.995 95.208 101.995 97.4231C101.995 98.6569 102.995 99.6569 104.229 99.6569C104.229 99.6569 104.23 99.6569 104.23 99.6569C105.464 99.6569 106.464 98.6569 106.464 97.4231C106.464 95.208 106.464 91.8322 106.464 89.6171Z" fill="url(#paint11_linear_1622_210729)"/>
<path fill-rule="evenodd" clip-rule="evenodd" d="M106.464 89.2656L101.995 90.8639V92.5075L106.464 90.9092V89.2656Z" fill="#F6F8FE"/>
<path fill-rule="evenodd" clip-rule="evenodd" d="M106.464 92.3398L101.995 93.9381V96.5302L106.464 94.932V92.3398Z" fill="#F1F4FE"/>
<path fill-rule="evenodd" clip-rule="evenodd" d="M116.638 91.7266L112.168 93.3248V96.5322L116.638 94.934V91.7266Z" fill="#9DB3FD"/>
<path fill-rule="evenodd" clip-rule="evenodd" d="M116.638 126.898C116.638 125.665 115.638 124.664 114.404 124.664C114.403 124.664 114.403 124.664 114.402 124.664C113.168 124.664 112.168 125.665 112.168 126.898C112.168 129.113 112.168 132.489 112.168 134.704C112.168 135.938 113.168 136.938 114.402 136.938C114.403 136.938 114.403 136.938 114.404 136.938C115.638 136.938 116.638 135.938 116.638 134.704C116.638 132.489 116.638 129.113 116.638 126.898Z" fill="url(#paint12_linear_1622_210729)"/>
<path fill-rule="evenodd" clip-rule="evenodd" d="M106.464 126.898C106.464 125.665 105.464 124.664 104.23 124.664C104.23 124.664 104.229 124.664 104.229 124.664C102.995 124.664 101.995 125.665 101.995 126.898C101.995 129.113 101.995 132.489 101.995 134.704C101.995 135.938 102.995 136.938 104.229 136.938C104.229 136.938 104.23 136.938 104.23 136.938C105.464 136.938 106.464 135.938 106.464 134.704C106.464 132.489 106.464 129.113 106.464 126.898Z" fill="url(#paint13_linear_1622_210729)"/>
<path fill-rule="evenodd" clip-rule="evenodd" d="M94.2828 57.4147C94.8592 56.0782 94.5899 54.5275 93.597 53.4631C89.1312 48.6404 86.4062 42.1862 86.4062 35.1009C86.4062 20.1434 98.5497 8 113.507 8C128.465 8 140.609 20.1434 140.609 35.1009C140.609 50.0589 128.465 62.2024 113.507 62.2024C112.068 62.2024 110.654 62.0898 109.276 61.8735C107.252 61.5478 105.178 61.8062 103.296 62.6177C100.777 63.6602 97.205 65.2011 94.3237 66.4436C93.5369 66.7829 92.6222 66.6076 92.0168 66.0016C91.4108 65.3956 91.2354 64.4814 91.5748 63.6946C92.4987 61.5521 93.5418 59.1332 94.2828 57.4147Z" fill="url(#paint14_linear_1622_210729)"/>
<path fill-rule="evenodd" clip-rule="evenodd" d="M113.507 45.4923C114.673 45.4923 115.619 46.4392 115.619 47.6047C115.619 48.7707 114.673 49.7171 113.507 49.7171C112.341 49.7171 111.394 48.7707 111.394 47.6047C111.394 46.4392 112.341 45.4923 113.507 45.4923ZM113.507 22.7839C110.129 22.7839 107.597 25.3166 107.597 28.1945C107.597 29.1737 106.804 29.9676 105.824 29.9676C104.845 29.9676 104.051 29.1737 104.051 28.1945C104.051 23.138 108.399 19.2383 113.507 19.2383C118.615 19.2383 122.963 23.138 122.963 28.1945C122.963 32.6177 120.536 35.0716 118.51 36.83C118.242 37.0633 117.991 37.2759 117.756 37.4753C117.058 38.0671 116.502 38.5386 116.043 39.0643C115.496 39.6916 115.28 40.1959 115.28 40.7663V41.0767C115.28 42.0559 114.486 42.8498 113.507 42.8498C112.528 42.8498 111.734 42.0559 111.734 41.0767V40.7663C111.734 39.0577 112.479 37.7573 113.371 36.7333C114.023 35.9869 114.863 35.2755 115.607 34.6454C115.809 34.475 116.005 34.3099 116.187 34.1515C118.002 32.5773 119.417 31.0249 119.417 28.1945C119.417 25.3166 116.885 22.7839 113.507 22.7839Z" fill="#7D94DD"/>
<path fill-rule="evenodd" clip-rule="evenodd" d="M77.536 27.313L64.7204 23.275C64.0604 23.0669 63.6932 22.362 63.9008 21.7019C64.109 21.0413 64.8139 20.6747 65.4745 20.8823L78.29 24.9208C78.9501 25.1285 79.3173 25.8333 79.1091 26.4939C78.9014 27.154 78.1966 27.5212 77.536 27.313Z" fill="#7D94DD"/>
<path fill-rule="evenodd" clip-rule="evenodd" d="M77.7405 33.7963L67.2303 35.0798C66.5434 35.164 65.9172 34.6744 65.8336 33.987C65.7495 33.3001 66.2391 32.674 66.9265 32.5904L77.4361 31.3063C78.1235 31.2221 78.7492 31.7117 78.8333 32.3991C78.9174 33.0859 78.4273 33.7121 77.7405 33.7963Z" fill="#7D94DD"/>
<path fill-rule="evenodd" clip-rule="evenodd" d="M80.8838 21.9311L76.3983 16.7293C75.9464 16.2053 76.0049 15.4124 76.5289 14.9606C77.0535 14.5081 77.8458 14.5672 78.2982 15.0912L82.7837 20.293C83.2356 20.817 83.1771 21.6098 82.6531 22.0617C82.1285 22.5136 81.3362 22.4552 80.8838 21.9311Z" fill="#7D94DD"/>
<path fill-rule="evenodd" clip-rule="evenodd" d="M116.638 127.168L112.168 128.766V130.41L116.638 128.812V127.168Z" fill="#F6F8FE"/>
<path fill-rule="evenodd" clip-rule="evenodd" d="M116.638 130.246L112.168 131.844V134.437L116.638 132.838V130.246Z" fill="#F1F4FE"/>
<path fill-rule="evenodd" clip-rule="evenodd" d="M106.464 127.5L101.995 129.098V132.306L106.464 130.707V127.5Z" fill="#9DB3FD"/>
<defs>
<linearGradient id="paint0_linear_1622_210729" x1="78.0934" y1="108.258" x2="78.0934" y2="116.089" gradientUnits="userSpaceOnUse">
<stop stop-color="#A5B9FD"/>
<stop offset="1" stop-color="#7C99FB"/>
</linearGradient>
<linearGradient id="paint1_linear_1622_210729" x1="43.0925" y1="51.2704" x2="47.9243" y2="88.958" gradientUnits="userSpaceOnUse">
<stop stop-color="#E3E9FE"/>
<stop offset="1" stop-color="#B1C2FC"/>
</linearGradient>
<linearGradient id="paint2_linear_1622_210729" x1="71.2241" y1="76.3242" x2="71.2241" y2="110.72" gradientUnits="userSpaceOnUse">
<stop stop-color="#D8E1FF"/>
<stop offset="1" stop-color="#A3B7FC"/>
</linearGradient>
<linearGradient id="paint3_linear_1622_210729" x1="42.8959" y1="74.1872" x2="43.0991" y2="110.849" gradientUnits="userSpaceOnUse">
<stop stop-color="#E3E9FE"/>
<stop offset="1" stop-color="#B1C2FC"/>
</linearGradient>
<linearGradient id="paint4_linear_1622_210729" x1="71.2241" y1="113.605" x2="71.2241" y2="148.001" gradientUnits="userSpaceOnUse">
<stop stop-color="#D8E1FF"/>
<stop offset="1" stop-color="#A3B7FC"/>
</linearGradient>
<linearGradient id="paint5_linear_1622_210729" x1="42.8959" y1="111.468" x2="43.0991" y2="148.13" gradientUnits="userSpaceOnUse">
<stop stop-color="#E3E9FE"/>
<stop offset="1" stop-color="#B1C2FC"/>
</linearGradient>
<linearGradient id="paint6_linear_1622_210729" x1="36.4658" y1="98.1039" x2="27.6095" y2="88.5198" gradientUnits="userSpaceOnUse">
<stop stop-color="#A5B9FD"/>
<stop offset="1" stop-color="#7C99FB"/>
</linearGradient>
<linearGradient id="paint7_linear_1622_210729" x1="36.4658" y1="135.385" x2="27.6095" y2="125.801" gradientUnits="userSpaceOnUse">
<stop stop-color="#A5B9FD"/>
<stop offset="1" stop-color="#7C99FB"/>
</linearGradient>
<linearGradient id="paint8_linear_1622_210729" x1="29.4348" y1="126.744" x2="34.6727" y2="134.178" gradientUnits="userSpaceOnUse">
<stop stop-color="#A5B9FD"/>
<stop offset="1" stop-color="#7C99FB"/>
</linearGradient>
<linearGradient id="paint9_linear_1622_210729" x1="29.4348" y1="89.4623" x2="34.6727" y2="96.8965" gradientUnits="userSpaceOnUse">
<stop stop-color="#A5B9FD"/>
<stop offset="1" stop-color="#7C99FB"/>
</linearGradient>
<linearGradient id="paint10_linear_1622_210729" x1="119.234" y1="85.6097" x2="121.187" y2="95.9847" gradientUnits="userSpaceOnUse">
<stop stop-color="#A5B9FD"/>
<stop offset="1" stop-color="#7C99FB"/>
</linearGradient>
<linearGradient id="paint11_linear_1622_210729" x1="102.581" y1="86.9052" x2="113.175" y2="89.5327" gradientUnits="userSpaceOnUse">
<stop stop-color="white"/>
<stop offset="1" stop-color="#C6D2FB"/>
</linearGradient>
<linearGradient id="paint12_linear_1622_210729" x1="112.755" y1="124.186" x2="123.348" y2="126.814" gradientUnits="userSpaceOnUse">
<stop stop-color="white"/>
<stop offset="1" stop-color="#C6D2FB"/>
</linearGradient>
<linearGradient id="paint13_linear_1622_210729" x1="109.06" y1="122.891" x2="111.013" y2="133.266" gradientUnits="userSpaceOnUse">
<stop stop-color="#A5B9FD"/>
<stop offset="1" stop-color="#7C99FB"/>
</linearGradient>
<linearGradient id="paint14_linear_1622_210729" x1="92.2758" y1="2.14739" x2="125.646" y2="68.9932" gradientUnits="userSpaceOnUse">
<stop stop-color="white"/>
<stop offset="1" stop-color="#D4DDFC"/>
</linearGradient>
</defs>
</svg>
