<svg width="56" height="56" viewBox="0 0 56 56" fill="none" xmlns="http://www.w3.org/2000/svg">
<path d="M27.2864 8.72687C27.6784 8.32762 28.3216 8.32762 28.7136 8.72687L32.5173 12.6014C32.7462 12.8345 33.0744 12.9411 33.3965 12.887L38.7512 11.9883C39.3029 11.8957 39.8233 12.2738 39.9058 12.8272L40.7057 18.1975C40.7538 18.5205 40.9566 18.7997 41.249 18.9453L46.1093 21.3656C46.6102 21.615 46.8089 22.2268 46.5503 22.7229L44.0409 27.5378C43.8899 27.8274 43.8899 28.1726 44.0409 28.4622L46.5503 33.2771C46.8089 33.7732 46.6102 34.385 46.1093 34.6344L41.249 37.0547C40.9566 37.2003 40.7538 37.4795 40.7057 37.8025L39.9058 43.1728C39.8233 43.7262 39.3029 44.1043 38.7512 44.0117L33.3965 43.113C33.0744 43.0589 32.7462 43.1655 32.5173 43.3986L28.7136 47.2731C28.3216 47.6724 27.6784 47.6724 27.2864 47.2731L23.4827 43.3986C23.2538 43.1655 22.9256 43.0589 22.6035 43.113L17.2488 44.0117C16.6971 44.1043 16.1767 43.7262 16.0942 43.1728L15.2943 37.8025C15.2462 37.4795 15.0434 37.2003 14.751 37.0547L9.89068 34.6344C9.38984 34.385 9.19106 33.7732 9.44965 33.2771L11.9591 28.4622C12.1101 28.1726 12.1101 27.8274 11.9591 27.5378L9.44965 22.7229C9.19106 22.2268 9.38984 21.615 9.89068 21.3656L14.751 18.9453C15.0434 18.7997 15.2462 18.5205 15.2943 18.1975L16.0942 12.8272C16.1767 12.2738 16.6971 11.8957 17.2488 11.9883L22.6035 12.887C22.9256 12.9411 23.2538 12.8345 23.4827 12.6014L27.2864 8.72687Z" fill="#FFCD4F"/>
<circle cx="28.0002" cy="28.0007" r="12.7273" fill="#FFA134"/>
</svg>
