<svg width="165" height="176" viewBox="0 0 165 176" fill="none" xmlns="http://www.w3.org/2000/svg">
<g filter="url(#filter0_f_1622_210879)">
<path d="M82.5486 148.002C112.675 148.002 137.097 143.53 137.097 138.015C137.097 132.499 112.675 128.027 82.5486 128.027C52.4223 128.027 28 132.499 28 138.015C28 143.53 52.4223 148.002 82.5486 148.002Z" fill="#D4DDFC"/>
</g>
<path fill-rule="evenodd" clip-rule="evenodd" d="M140.573 46.9492C136.938 86.0884 129.376 132.565 128.04 135.379C126.48 138.67 115.556 143.21 98.6112 143.21C81.6668 143.21 70.7433 138.67 69.1828 135.379C67.8473 132.565 60.2848 86.0884 56.6504 46.9492H140.573Z" fill="url(#paint0_linear_1622_210879)"/>
<path fill-rule="evenodd" clip-rule="evenodd" d="M133.408 47.6912L140.573 46.9492C136.939 86.0884 129.376 132.565 128.041 135.379C126.48 138.67 115.557 143.21 98.6119 143.21C81.6675 143.21 70.7439 138.67 69.1834 135.379C68.4273 133.786 65.6747 118.195 62.7695 97.8638C68.608 79.2051 77.204 64.2145 83.2297 71.9718C90.117 80.8385 104.127 119.395 104.778 129.287C105.097 134.133 115.494 129.902 117.431 127.019C122.103 120.066 125.263 105.874 129.445 76.1078C130.975 65.2163 87.3402 64.8555 74.9173 48.2376C72.6504 45.205 116.447 56.9567 133.408 47.6912Z" fill="url(#paint1_linear_1622_210879)"/>
<path fill-rule="evenodd" clip-rule="evenodd" d="M141.302 37.4219C142.862 39.2852 142.739 44.5233 142.739 45.464C142.739 50.6097 122.966 56.4794 98.6119 56.4794C74.2579 56.4794 54.4857 50.6097 54.4857 45.464C54.4857 44.5233 54.3622 39.2852 55.9227 37.4219H141.302Z" fill="url(#paint2_linear_1622_210879)"/>
<path fill-rule="evenodd" clip-rule="evenodd" d="M98.6119 27.8672C122.449 27.8672 141.801 33.7373 141.801 38.8826C141.801 44.0283 122.449 49.898 98.6119 49.898C74.7753 49.898 55.4229 44.0283 55.4229 38.8826C55.4229 33.7373 74.7753 27.8672 98.6119 27.8672Z" fill="url(#paint3_linear_1622_210879)"/>
<path fill-rule="evenodd" clip-rule="evenodd" d="M82.4701 28.7852C91.3536 33.4456 101.608 49.8972 98.6119 49.8972C74.7753 49.8972 55.4229 44.0275 55.4229 38.8818C55.4229 34.9683 66.6185 30.6358 82.4701 28.7852Z" fill="url(#paint4_linear_1622_210879)"/>
<path fill-rule="evenodd" clip-rule="evenodd" d="M57.8643 42.172C56.2827 41.0844 55.4229 39.9675 55.4229 38.8826C55.4229 33.7373 74.7753 27.8672 98.6119 27.8672C122.449 27.8672 141.801 33.7373 141.801 38.8826C141.801 39.9675 140.942 41.0844 139.36 42.172C133.443 38.1019 117.424 34.4459 98.6119 34.4459C79.8001 34.4459 63.781 38.1019 57.8643 42.172Z" fill="url(#paint5_linear_1622_210879)"/>
<path fill-rule="evenodd" clip-rule="evenodd" d="M115.52 13.2633C116.163 13.4985 116.494 14.2106 116.258 14.8537L113.214 23.1771C112.979 23.8203 112.267 24.151 111.624 23.9158C110.981 23.6805 110.65 22.9685 110.885 22.3253L113.929 14.0019C114.165 13.3588 114.877 13.0281 115.52 13.2633Z" fill="#7D94DD"/>
<path fill-rule="evenodd" clip-rule="evenodd" d="M81.7041 13.2633C82.3472 13.0281 83.0593 13.3588 83.2945 14.0019L86.3386 22.3253C86.5738 22.9685 86.2431 23.6805 85.5999 23.9158C84.9568 24.151 84.2447 23.8203 84.0095 23.1771L80.9654 14.8537C80.7302 14.2106 81.0609 13.4985 81.7041 13.2633Z" fill="#7D94DD"/>
<path fill-rule="evenodd" clip-rule="evenodd" d="M98.612 8C99.2969 8 99.852 8.55515 99.852 9.23997V20.9323C99.852 21.6171 99.2969 22.1723 98.612 22.1723C97.9272 22.1723 97.3721 21.6171 97.3721 20.9323V9.23997C97.3721 8.55515 97.9272 8 98.612 8Z" fill="#7D94DD"/>
<path fill-rule="evenodd" clip-rule="evenodd" d="M76.3195 29.6641C76.8774 30.4364 80.1896 34.9109 80.6098 35.5957C70.0375 36.991 61.7607 39.4917 57.8643 42.1718C56.2827 41.0843 55.4229 39.9673 55.4229 38.8825C55.4229 35.4973 63.799 31.7987 76.3195 29.6641Z" fill="url(#paint6_linear_1622_210879)"/>
<path fill-rule="evenodd" clip-rule="evenodd" d="M102.35 72.6279C102.35 71.5733 101.956 70.5623 101.255 69.8168C100.554 69.0713 99.6034 68.6523 98.6117 68.6523H98.6108C97.6195 68.6523 96.6687 69.0713 95.968 69.8168C95.2669 70.5623 94.873 71.5733 94.873 72.6279V128.047C94.873 129.101 95.2669 130.112 95.968 130.858C96.6687 131.604 97.6195 132.023 98.6108 132.023H98.6117C99.6034 132.023 100.554 131.604 101.255 130.858C101.956 130.112 102.35 129.101 102.35 128.047V72.6279Z" fill="url(#paint7_linear_1622_210879)"/>
<path fill-rule="evenodd" clip-rule="evenodd" d="M118.426 69.0292C118.479 67.9505 118.206 66.9614 117.67 66.2787C117.134 65.5961 116.377 65.2765 115.566 65.3895L115.565 65.3899C114.754 65.5029 113.956 66.0401 113.346 66.8827C112.735 67.725 112.363 68.8041 112.311 69.8828C111.746 81.529 110.128 114.919 109.563 126.565C109.511 127.643 109.783 128.633 110.319 129.315C110.856 129.998 111.612 130.318 112.423 130.204C112.423 130.204 112.424 130.204 112.424 130.204C113.235 130.091 114.033 129.554 114.644 128.712C115.254 127.869 115.626 126.79 115.678 125.712C116.243 114.065 117.862 80.6754 118.426 69.0292Z" fill="url(#paint8_linear_1622_210879)"/>
<path fill-rule="evenodd" clip-rule="evenodd" d="M78.7984 69.0292C78.746 67.9505 79.0181 66.9614 79.5544 66.2787C80.0907 65.5961 80.8477 65.2765 81.6583 65.3895C81.6587 65.3895 81.6591 65.3899 81.6591 65.3899C82.4702 65.5029 83.2684 66.0401 83.8786 66.8827C84.4891 67.725 84.861 68.8041 84.9133 69.8828C85.4782 81.529 87.0967 114.919 87.6616 126.565C87.7134 127.643 87.4418 128.633 86.9055 129.315C86.3688 129.998 85.6123 130.318 84.8012 130.204C84.8008 130.204 84.8008 130.204 84.8004 130.204C83.9898 130.091 83.1915 129.554 82.5809 128.712C81.9708 127.869 81.5985 126.79 81.5462 125.712C80.9817 114.065 79.3628 80.6754 78.7984 69.0292Z" fill="url(#paint9_linear_1622_210879)"/>
<path fill-rule="evenodd" clip-rule="evenodd" d="M132.11 67.1538C132.217 66.0856 132.049 65.1357 131.644 64.5137C131.239 63.8913 130.631 63.6473 129.951 63.8354C129.951 63.8354 129.951 63.8354 129.951 63.8359C129.272 64.024 128.578 64.6289 128.023 65.5173C127.467 66.4057 127.095 67.505 126.989 68.5732C125.838 80.1104 122.538 113.188 121.387 124.725C121.28 125.793 121.448 126.743 121.853 127.365C122.258 127.988 122.866 128.231 123.546 128.043C123.546 128.043 123.546 128.043 123.546 128.043C124.225 127.855 124.919 127.25 125.474 126.362C126.03 125.473 126.402 124.374 126.509 123.305C127.66 111.768 130.959 78.691 132.11 67.1538Z" fill="url(#paint10_linear_1622_210879)"/>
<path fill-rule="evenodd" clip-rule="evenodd" d="M65.1143 67.1538C65.0079 66.0856 65.1754 65.1357 65.5802 64.5137C65.9851 63.8913 66.5939 63.6473 67.273 63.8354C67.273 63.8354 67.2735 63.8354 67.2735 63.8359C67.9526 64.024 68.6463 64.6289 69.2019 65.5173C69.7571 66.4057 70.1294 67.505 70.2358 68.5732C71.3866 80.1104 74.6865 113.188 75.8374 124.725C75.9442 125.793 75.7767 126.743 75.3718 127.365C74.967 127.988 74.3582 128.231 73.679 128.043C73.6786 128.043 73.6786 128.043 73.6781 128.043C72.9994 127.855 72.3058 127.25 71.7501 126.362C71.1945 125.473 70.8226 124.374 70.7158 123.305C69.565 111.768 66.2651 78.691 65.1143 67.1538Z" fill="url(#paint11_linear_1622_210879)"/>
<path fill-rule="evenodd" clip-rule="evenodd" d="M98.6119 27.8672C122.449 27.8672 141.801 33.7373 141.801 38.8826C141.801 44.0283 122.449 49.898 98.6119 49.898C74.7753 49.898 55.4229 44.0283 55.4229 38.8826C55.4229 33.7373 74.7753 27.8672 98.6119 27.8672ZM98.6119 29.2778C115.028 29.2778 129.287 32.0691 136.362 35.5031C137.745 36.1743 138.836 36.8592 139.572 37.5617C140.052 38.0188 140.391 38.4311 140.391 38.8826C140.391 39.334 140.052 39.7464 139.572 40.204C138.836 40.906 137.745 41.5908 136.362 42.2625C129.287 45.6965 115.028 48.4878 98.6119 48.4878C82.1967 48.4878 67.9372 45.6965 60.8622 42.2625C59.4788 41.5908 58.3887 40.906 57.652 40.204C57.1719 39.7464 56.833 39.334 56.833 38.8826C56.833 38.4311 57.1719 38.0188 57.652 37.5617C58.3887 36.8592 59.4788 36.1743 60.8622 35.5031C67.9372 32.0691 82.1967 29.2778 98.6119 29.2778Z" fill="url(#paint12_linear_1622_210879)"/>
<path fill-rule="evenodd" clip-rule="evenodd" d="M74.2563 67.5719C77.1074 67.444 80.5563 69.576 81.6078 70.183C87.3592 73.5036 84.1899 94.1458 72.2043 114.905C60.2188 135.665 43.9267 148.731 38.1752 145.41C37.1238 144.803 33.5531 142.882 32.2383 140.349L74.2563 67.5719Z" fill="url(#paint13_linear_1622_210879)"/>
<path fill-rule="evenodd" clip-rule="evenodd" d="M42.5706 97.7945C54.3016 77.4758 70.3867 64.7676 76.1381 68.0882C81.8896 71.4088 78.9268 91.6931 67.1958 112.012C55.4648 132.33 39.3797 145.039 33.6283 141.718C27.8768 138.397 30.8396 118.113 42.5706 97.7945Z" fill="url(#paint14_linear_1622_210879)"/>
<path fill-rule="evenodd" clip-rule="evenodd" d="M62.3057 95.582C61.9136 95.6801 61.5817 95.9289 61.3206 96.3698C61.0424 96.8392 60.849 97.51 60.7267 98.3778L61.9228 100.843C62.7919 102.635 62.7866 105.247 61.9589 106.681L54.7832 119.11C53.9555 120.544 52.5778 120.326 51.7088 118.535L50.5167 116.078C49.7768 116.382 49.2586 117.328 48.9482 118.894C48.9482 118.894 50.1136 121.297 50.1136 121.297C51.9312 125.044 54.8061 125.724 56.5371 122.726L63.7132 110.296C65.4443 107.298 65.3353 101.828 63.5176 98.0806L62.3057 95.582Z" fill="url(#paint15_linear_1622_210879)"/>
<path fill-rule="evenodd" clip-rule="evenodd" d="M59.8767 95.7025C60.7511 94.1881 62.0135 93.2782 62.4984 93.5582C62.9832 93.8378 62.8263 95.3864 61.952 96.9008C61.0777 98.4151 59.8148 99.3255 59.3303 99.0455C58.8455 98.7655 59.0024 97.2168 59.8767 95.7025Z" fill="url(#paint16_linear_1622_210879)"/>
<path fill-rule="evenodd" clip-rule="evenodd" d="M48.0045 115.992C48.8788 114.478 50.1417 113.567 50.6266 113.847C51.111 114.127 50.9545 115.676 50.0802 117.19C49.2059 118.704 47.9429 119.615 47.4581 119.335C46.9737 119.055 47.1302 117.506 48.0045 115.992Z" fill="url(#paint17_linear_1622_210879)"/>
<path fill-rule="evenodd" clip-rule="evenodd" d="M61.6314 94.8353C61.6653 95.4063 61.573 95.9206 61.3198 96.3712C61.0508 96.8504 60.6112 97.2477 60.0081 97.5809C60.0076 97.5809 57.8761 96.3501 57.8761 96.3501C56.327 95.4556 54.4127 95.947 53.585 97.3809L46.4088 109.81C45.5811 111.244 46.113 113.147 47.6621 114.042L49.7861 115.268C49.7628 116.369 49.2098 117.275 48.1447 118.004L46.0673 116.804C42.8272 114.934 41.5511 111.003 43.2821 108.005L50.4582 95.5756C52.1893 92.5772 56.2312 91.7174 59.4714 93.5878L61.6314 94.8349V94.8353Z" fill="url(#paint18_linear_1622_210879)"/>
<defs>
<filter id="filter0_f_1622_210879" x="0.190399" y="100.218" width="164.717" height="75.5938" filterUnits="userSpaceOnUse" color-interpolation-filters="sRGB">
<feFlood flood-opacity="0" result="BackgroundImageFix"/>
<feBlend mode="normal" in="SourceGraphic" in2="BackgroundImageFix" result="shape"/>
<feGaussianBlur stdDeviation="13.9048" result="effect1_foregroundBlur_1622_210879"/>
</filter>
<linearGradient id="paint0_linear_1622_210879" x1="77.4697" y1="40.9684" x2="105.651" y2="137.422" gradientUnits="userSpaceOnUse">
<stop stop-color="#E3E9FE"/>
<stop offset="1" stop-color="#B1C2FC"/>
</linearGradient>
<linearGradient id="paint1_linear_1622_210879" x1="94.8737" y1="48.0112" x2="116.914" y2="162.899" gradientUnits="userSpaceOnUse">
<stop stop-color="#D2DCFE"/>
<stop offset="1" stop-color="#A3B7FC"/>
</linearGradient>
<linearGradient id="paint2_linear_1622_210879" x1="87.3591" y1="33.0773" x2="93.9379" y2="61.2693" gradientUnits="userSpaceOnUse">
<stop stop-color="#EBEFFF"/>
<stop offset="1" stop-color="#B1C1FA"/>
</linearGradient>
<linearGradient id="paint3_linear_1622_210879" x1="95.2267" y1="25.6624" x2="101.214" y2="50.8107" gradientUnits="userSpaceOnUse">
<stop stop-color="#A5B9FD"/>
<stop offset="1" stop-color="#87A2FB"/>
</linearGradient>
<linearGradient id="paint4_linear_1622_210879" x1="81.7448" y1="25.3819" x2="90.2366" y2="48.0522" gradientUnits="userSpaceOnUse">
<stop stop-color="#A5B9FD"/>
<stop offset="1" stop-color="#7F9BFB"/>
</linearGradient>
<linearGradient id="paint5_linear_1622_210879" x1="97.5925" y1="28.5151" x2="99.6198" y2="44.8133" gradientUnits="userSpaceOnUse">
<stop stop-color="#B3C4FD"/>
<stop offset="1" stop-color="#A0B5FC"/>
</linearGradient>
<linearGradient id="paint6_linear_1622_210879" x1="66.3437" y1="29.6639" x2="74.3879" y2="49.8979" gradientUnits="userSpaceOnUse">
<stop stop-color="#B3C4FD"/>
<stop offset="1" stop-color="#87A2FB"/>
</linearGradient>
<linearGradient id="paint7_linear_1622_210879" x1="103.089" y1="83.4741" x2="84.1773" y2="84.7953" gradientUnits="userSpaceOnUse">
<stop stop-color="#B3C4FD"/>
<stop offset="1" stop-color="#87A2FB"/>
</linearGradient>
<linearGradient id="paint8_linear_1622_210879" x1="119.894" y1="84.8509" x2="102.96" y2="83.5489" gradientUnits="userSpaceOnUse">
<stop stop-color="#B3C4FD"/>
<stop offset="1" stop-color="#87A2FB"/>
</linearGradient>
<linearGradient id="paint9_linear_1622_210879" x1="77.3306" y1="79.9896" x2="109.557" y2="92.2434" gradientUnits="userSpaceOnUse">
<stop stop-color="#B3C4FD"/>
<stop offset="1" stop-color="#87A2FB"/>
</linearGradient>
<linearGradient id="paint10_linear_1622_210879" x1="133.441" y1="84.0877" x2="118.433" y2="82.932" gradientUnits="userSpaceOnUse">
<stop stop-color="#B3C4FD"/>
<stop offset="1" stop-color="#87A2FB"/>
</linearGradient>
<linearGradient id="paint11_linear_1622_210879" x1="65.2637" y1="68.6541" x2="94.8735" y2="80.4094" gradientUnits="userSpaceOnUse">
<stop stop-color="#B3C4FD"/>
<stop offset="1" stop-color="#87A2FB"/>
</linearGradient>
<linearGradient id="paint12_linear_1622_210879" x1="84.7801" y1="17.2792" x2="91.8266" y2="53.044" gradientUnits="userSpaceOnUse">
<stop stop-color="white"/>
<stop offset="1" stop-color="#D7DFFC"/>
</linearGradient>
<linearGradient id="paint13_linear_1622_210879" x1="74.1231" y1="70.1632" x2="42.3745" y2="145.924" gradientUnits="userSpaceOnUse">
<stop stop-color="#CBD7FF"/>
<stop offset="1" stop-color="#A9BBF9"/>
</linearGradient>
<linearGradient id="paint14_linear_1622_210879" x1="37.0433" y1="76.8033" x2="65.9972" y2="118.985" gradientUnits="userSpaceOnUse">
<stop stop-color="white"/>
<stop offset="1" stop-color="#C6D2FB"/>
</linearGradient>
<linearGradient id="paint15_linear_1622_210879" x1="54.5269" y1="98.2749" x2="63.4805" y2="127.099" gradientUnits="userSpaceOnUse">
<stop stop-color="#C8D5FF"/>
<stop offset="1" stop-color="#C7D3FA"/>
</linearGradient>
<linearGradient id="paint16_linear_1622_210879" x1="60.0693" y1="96.1016" x2="61.8538" y2="97.1206" gradientUnits="userSpaceOnUse">
<stop stop-color="#C4D1FE"/>
<stop offset="1" stop-color="#A3B7FC"/>
</linearGradient>
<linearGradient id="paint17_linear_1622_210879" x1="48.1973" y1="116.391" x2="49.9818" y2="117.41" gradientUnits="userSpaceOnUse">
<stop stop-color="#C4D1FE"/>
<stop offset="1" stop-color="#A3B7FC"/>
</linearGradient>
<linearGradient id="paint18_linear_1622_210879" x1="47.6568" y1="100.428" x2="55.5846" y2="105.723" gradientUnits="userSpaceOnUse">
<stop stop-color="#A5B9FD"/>
<stop offset="1" stop-color="#7190FA"/>
</linearGradient>
</defs>
</svg>
