<svg width="32" height="32" viewBox="0 0 32 32" fill="none" xmlns="http://www.w3.org/2000/svg">
<path d="M5.71436 5.71345C5.71436 4.45108 6.7377 3.42773 8.00007 3.42773H17.7228C18.6321 3.42773 19.5042 3.78896 20.1471 4.43194L25.2816 9.56639C25.9246 10.2094 26.2858 11.0814 26.2858 11.9908V26.2849C26.2858 27.5472 25.2624 28.5706 24.0001 28.5706H8.00007C6.7377 28.5706 5.71436 27.5472 5.71436 26.2849V5.71345Z" fill="#96A3B4"/>
<path d="M18.3449 3.53282C19.0497 3.6503 19.7003 3.98508 20.2056 4.49037L25.2231 9.50795C25.7284 10.0132 26.0632 10.6638 26.1807 11.3687L26.2858 11.9992L26.1051 11.4571C25.8717 10.757 25.2166 10.2849 24.4788 10.2849H21.1429C20.1962 10.2849 19.4286 9.51736 19.4286 8.57059V5.23475C19.4286 4.49687 18.9565 3.84177 18.2565 3.60844L17.7144 3.42773L18.3449 3.53282Z" fill="#DEE0E3"/>
<path d="M17 23.8574C17 24.4097 16.5523 24.8574 16 24.8574C15.4477 24.8574 15 24.4097 15 23.8574C15 23.3051 15.4477 22.8574 16 22.8574C16.5523 22.8574 17 23.3051 17 23.8574Z" fill="#DEE0E3"/>
<path fill-rule="evenodd" clip-rule="evenodd" d="M15.9999 13.9994C14.8494 13.9994 13.9999 14.8698 13.9999 15.8436C13.9999 16.317 13.6162 16.7007 13.1428 16.7007C12.6694 16.7007 12.2856 16.317 12.2856 15.8436C12.2856 13.8337 13.9945 12.2852 15.9999 12.2852C18.0053 12.2852 19.7142 13.8337 19.7142 15.8436C19.7142 17.5883 18.7604 18.5589 17.9938 19.2314C17.8881 19.3241 17.7915 19.407 17.7025 19.4833C17.4476 19.702 17.2555 19.8668 17.0953 20.0525C16.9108 20.2664 16.8571 20.4144 16.8571 20.5709V21.1423C16.8571 21.6157 16.4733 21.9994 15.9999 21.9994C15.5265 21.9994 15.1428 21.6157 15.1428 21.1423V20.5709C15.1428 19.8702 15.4462 19.3396 15.7974 18.9326C16.0504 18.6394 16.3789 18.3584 16.6566 18.1209C16.7298 18.0583 16.7994 17.9987 16.8632 17.9428C17.5252 17.3621 17.9999 16.8261 17.9999 15.8436C17.9999 14.8698 17.1504 13.9994 15.9999 13.9994Z" fill="#DEE0E3"/>
</svg>
