<svg width="32" height="32" viewBox="0 0 32 32" fill="none" xmlns="http://www.w3.org/2000/svg">
<path d="M3.42871 8.57199C3.42871 6.99403 4.7079 5.71484 6.28585 5.71484H25.7144C27.2924 5.71484 28.5716 6.99403 28.5716 8.57199V23.4291C28.5716 25.0071 27.2924 26.2863 25.7144 26.2863H6.28585C4.7079 26.2863 3.42871 25.0071 3.42871 23.4291V8.57199Z" fill="#F77850"/>
<path d="M19.9433 15.0032L14.2744 11.8145C13.5126 11.3859 12.5713 11.9364 12.5713 12.8105V19.188C12.5713 20.0621 13.5126 20.6126 14.2744 20.1841L19.9433 16.9954C20.7201 16.5585 20.7201 15.4401 19.9433 15.0032Z" fill="#FFD3C6"/>
<path d="M5.14307 8.57199C5.14307 8.0986 5.52682 7.71484 6.00021 7.71484C6.4736 7.71484 6.85735 8.0986 6.85735 8.57199V9.71484C6.85735 10.1882 6.4736 10.572 6.00021 10.572C5.52682 10.572 5.14307 10.1882 5.14307 9.71484V8.57199Z" fill="#FFD3C6"/>
<path d="M25.1431 8.57199C25.1431 8.0986 25.5268 7.71484 26.0002 7.71484C26.4736 7.71484 26.8574 8.0986 26.8574 8.57199V9.71484C26.8574 10.1882 26.4736 10.572 26.0002 10.572C25.5268 10.572 25.1431 10.1882 25.1431 9.71484V8.57199Z" fill="#FFD3C6"/>
<path d="M5.14307 13.1423C5.14307 12.6689 5.52682 12.2852 6.00021 12.2852C6.4736 12.2852 6.85735 12.6689 6.85735 13.1423V14.2852C6.85735 14.7585 6.4736 15.1423 6.00021 15.1423C5.52682 15.1423 5.14307 14.7585 5.14307 14.2852V13.1423Z" fill="#FFD3C6"/>
<path d="M25.1431 13.1423C25.1431 12.6689 25.5268 12.2852 26.0002 12.2852C26.4736 12.2852 26.8574 12.6689 26.8574 13.1423V14.2852C26.8574 14.7585 26.4736 15.1423 26.0002 15.1423C25.5268 15.1423 25.1431 14.7585 25.1431 14.2852V13.1423Z" fill="#FFD3C6"/>
<path d="M5.14307 17.7146C5.14307 17.2412 5.52682 16.8574 6.00021 16.8574C6.4736 16.8574 6.85735 17.2412 6.85735 17.7146V18.8574C6.85735 19.3308 6.4736 19.7146 6.00021 19.7146C5.52682 19.7146 5.14307 19.3308 5.14307 18.8574V17.7146Z" fill="#FFD3C6"/>
<path d="M25.1431 17.7146C25.1431 17.2412 25.5268 16.8574 26.0002 16.8574C26.4736 16.8574 26.8574 17.2412 26.8574 17.7146V18.8574C26.8574 19.3308 26.4736 19.7146 26.0002 19.7146C25.5268 19.7146 25.1431 19.3308 25.1431 18.8574V17.7146Z" fill="#FFD3C6"/>
<path d="M5.14307 22.2849C5.14307 21.8115 5.52682 21.4277 6.00021 21.4277C6.4736 21.4277 6.85735 21.8115 6.85735 22.2849V23.4277C6.85735 23.9011 6.4736 24.2849 6.00021 24.2849C5.52682 24.2849 5.14307 23.9011 5.14307 23.4277V22.2849Z" fill="#FFD3C6"/>
<path d="M25.1431 22.2849C25.1431 21.8115 25.5268 21.4277 26.0002 21.4277C26.4736 21.4277 26.8574 21.8115 26.8574 22.2849V23.4277C26.8574 23.9011 26.4736 24.2849 26.0002 24.2849C25.5268 24.2849 25.1431 23.9011 25.1431 23.4277V22.2849Z" fill="#FFD3C6"/>
</svg>
