<svg width="56" height="56" viewBox="0 0 56 56" fill="none" xmlns="http://www.w3.org/2000/svg">
<path fill-rule="evenodd" clip-rule="evenodd" d="M12 36C12 34.8954 12.8954 34 14 34H26C29.3137 34 32 36.6863 32 40C32 43.3137 29.3137 46 26 46C24.8954 46 24 45.1046 24 44C24 42.8954 24.8954 42 26 42C27.1046 42 28 41.1046 28 40C28 38.8954 27.1046 38 26 38H14C12.8954 38 12 37.1046 12 36Z" fill="#BFC8CF"/>
<path fill-rule="evenodd" clip-rule="evenodd" d="M8 28C8 26.8954 8.89543 26 10 26H38.4938C43.6101 26 48 29.9002 48 35C48 37.5663 46.866 39.8591 45.0962 41.4764C44.2809 42.2215 43.0158 42.1646 42.2707 41.3492C41.5255 40.5338 41.5825 39.2687 42.3979 38.5236C43.4087 37.5998 44 36.351 44 35C44 32.3678 41.6686 30 38.4938 30H10C8.89543 30 8 29.1046 8 28Z" fill="#A7B5BF"/>
<path fill-rule="evenodd" clip-rule="evenodd" d="M12 20C12 21.1046 12.8954 22 14 22H38C41.3137 22 44 19.3137 44 16C44 12.6863 41.3137 10 38 10C36.8954 10 36 10.8954 36 12C36 13.1046 36.8954 14 38 14C39.1046 14 40 14.8954 40 16C40 17.1046 39.1046 18 38 18H14C12.8954 18 12 18.8954 12 20Z" fill="#BFC8CF"/>
</svg>
