<svg width="32" height="32" viewBox="0 0 32 32" fill="none" xmlns="http://www.w3.org/2000/svg">
<path d="M5.71436 5.71345C5.71436 4.45108 6.7377 3.42773 8.00007 3.42773H17.7228C18.6321 3.42773 19.5042 3.78896 20.1471 4.43194L25.2816 9.56639C25.9246 10.2094 26.2858 11.0814 26.2858 11.9908V26.2849C26.2858 27.5472 25.2624 28.5706 24.0001 28.5706H8.00007C6.7377 28.5706 5.71436 27.5472 5.71436 26.2849V5.71345Z" fill="#4CC182"/>
<path d="M18.3449 3.53282C19.0497 3.6503 19.7003 3.98508 20.2056 4.49037L25.2231 9.50795C25.7284 10.0132 26.0632 10.6638 26.1807 11.3687L26.2858 11.9992L26.1051 11.4571C25.8717 10.757 25.2166 10.2849 24.4788 10.2849H21.1429C20.1962 10.2849 19.4286 9.51736 19.4286 8.57059V5.23475C19.4286 4.49687 18.9565 3.84177 18.2565 3.60844L17.7144 3.42773L18.3449 3.53282Z" fill="#B8F8D5"/>
<rect x="8.57129" y="19.4277" width="14.8571" height="1.71428" fill="#B8F8D5"/>
<rect x="12.5713" y="14.8574" width="1.71429" height="10.8571" fill="#B8F8D5"/>
<path fill-rule="evenodd" clip-rule="evenodd" d="M9.71415 14.8574C9.08296 14.8574 8.57129 15.3691 8.57129 16.0003V24.5717C8.57129 25.2029 9.08296 25.7146 9.71415 25.7146H22.2856C22.9168 25.7146 23.4284 25.2029 23.4284 24.5717V16.0003C23.4284 15.3691 22.9168 14.8574 22.2856 14.8574H9.71415ZM21.7141 16.5717H10.2856V24.0003H21.7141V16.5717Z" fill="#B8F8D5"/>
</svg>
