<svg width="32" height="32" viewBox="0 0 32 32" fill="none" xmlns="http://www.w3.org/2000/svg">
<path d="M5.71436 5.71345C5.71436 4.45108 6.7377 3.42773 8.00007 3.42773H17.7228C18.6321 3.42773 19.5042 3.78896 20.1471 4.43194L25.2816 9.56639C25.9246 10.2094 26.2858 11.0814 26.2858 11.9908V26.2849C26.2858 27.5472 25.2624 28.5706 24.0001 28.5706H8.00007C6.7377 28.5706 5.71436 27.5472 5.71436 26.2849V5.71345Z" fill="#FBA43F"/>
<path d="M18.3449 3.53282C19.0497 3.6503 19.7003 3.98508 20.2056 4.49037L25.2231 9.50795C25.7284 10.0132 26.0632 10.6638 26.1807 11.3687L26.2858 11.9992L26.1051 11.4571C25.8717 10.757 25.2166 10.2849 24.4788 10.2849H21.1429C20.1962 10.2849 19.4286 9.51736 19.4286 8.57059V5.23475C19.4286 4.49687 18.9565 3.84177 18.2565 3.60844L17.7144 3.42773L18.3449 3.53282Z" fill="#FFE29A"/>
<path fill-rule="evenodd" clip-rule="evenodd" d="M8.85693 15.7146C8.85693 15.2412 9.24069 14.8574 9.71408 14.8574H22.2855C22.7589 14.8574 23.1426 15.2412 23.1426 15.7146V22.5717C23.1426 23.0451 22.7589 23.4289 22.2855 23.4289H9.71408C9.24069 23.4289 8.85693 23.0451 8.85693 22.5717V15.7146ZM10.5712 16.5717V21.7146H21.4284V16.5717H10.5712Z" fill="#FFE29A"/>
<path fill-rule="evenodd" clip-rule="evenodd" d="M10 13.1423C10 12.6689 10.3838 12.2852 10.8571 12.2852H20.5714C21.0448 12.2852 21.4286 12.6689 21.4286 13.1423C21.4286 13.6157 21.0448 13.9994 20.5714 13.9994H10.8571C10.3838 13.9994 10 13.6157 10 13.1423Z" fill="#FFE29A"/>
<path fill-rule="evenodd" clip-rule="evenodd" d="M10 25.1423C10 24.6689 10.3838 24.2852 10.8571 24.2852H20.5714C21.0448 24.2852 21.4286 24.6689 21.4286 25.1423C21.4286 25.6157 21.0448 25.9994 20.5714 25.9994H10.8571C10.3838 25.9994 10 25.6157 10 25.1423Z" fill="#FFE29A"/>
</svg>
