<svg width="32" height="32" viewBox="0 0 32 32" fill="none" xmlns="http://www.w3.org/2000/svg">
<path d="M3.42871 8.00056C3.42871 6.73819 4.45206 5.71484 5.71443 5.71484H10.2481C10.4596 5.71484 10.6669 5.77353 10.8471 5.88438L14.0104 7.83102C14.1905 7.94187 14.3978 8.00056 14.6093 8.00056H26.2859C27.5482 8.00056 28.5716 9.02391 28.5716 10.2863V24.0006C28.5716 25.2629 27.5482 26.2863 26.2859 26.2863H5.71442C4.45206 26.2863 3.42871 25.2629 3.42871 24.0006V8.00056Z" fill="#96A3B4"/>
<path d="M16.0001 8H17.7144C18.0299 8 18.2858 8.25584 18.2858 8.57143V9.14286C18.2858 9.45845 18.0299 9.71429 17.7144 9.71429H16.0001V8Z" fill="#DEE0E3"/>
<path d="M16.0001 11.4286H17.7144C18.0299 11.4286 18.2858 11.6844 18.2858 12V12.5714C18.2858 12.887 18.0299 13.1429 17.7144 13.1429H16.0001V11.4286Z" fill="#DEE0E3"/>
<path d="M16.0001 14.8571H17.7144C18.0299 14.8571 18.2858 15.113 18.2858 15.4286V16C18.2858 16.3156 18.0299 16.5714 17.7144 16.5714H16.0001V14.8571Z" fill="#DEE0E3"/>
<path d="M13.7144 10.2857C13.7144 9.97012 13.9702 9.71429 14.2858 9.71429H16.0001V11.4286H14.2858C13.9702 11.4286 13.7144 11.1727 13.7144 10.8571V10.2857Z" fill="#DEE0E3"/>
<path d="M13.7144 13.7143C13.7144 13.3987 13.9702 13.1429 14.2858 13.1429H16.0001V14.8571H14.2858C13.9702 14.8571 13.7144 14.6013 13.7144 14.2857V13.7143Z" fill="#DEE0E3"/>
<path d="M13.7144 17.1429C13.7144 16.8273 13.9702 16.5714 14.2858 16.5714H16.0001V18.2857H14.2858C13.9702 18.2857 13.7144 18.0299 13.7144 17.7143V17.1429Z" fill="#DEE0E3"/>
<path d="M14.4744 19.3091C14.5308 19.0457 14.7637 18.8574 15.0331 18.8574H16.9664C17.2358 18.8574 17.4686 19.0457 17.5251 19.3091L17.8411 20.7839C18.0698 21.8511 17.2563 22.8574 16.1649 22.8574H15.8346C14.7432 22.8574 13.9297 21.8511 14.1583 20.7839L14.4744 19.3091Z" fill="#DEE0E3"/>
</svg>
