<svg width="24" height="24" viewBox="0 0 24 24" fill="none" xmlns="http://www.w3.org/2000/svg">
<path fill-rule="evenodd" clip-rule="evenodd" d="M4.5 12L4.5 20L19.5 20L19.5 12L4.5 12ZM2.5 20L2.5 12C2.5 10.8954 3.39543 10 4.5 10L19.5 10C20.6046 10 21.5 10.8954 21.5 12L21.5 20C21.5 21.1046 20.6046 22 19.5 22L4.5 22C3.39543 22 2.5 21.1046 2.5 20Z" fill="#9AA1B4"/>
<path fill-rule="evenodd" clip-rule="evenodd" d="M3 16C3 15.4477 3.44772 15 4 15L20 15C20.5523 15 21 15.4477 21 16C21 16.5523 20.5523 17 20 17L4 17C3.44772 17 3 16.5523 3 16Z" fill="#9AA1B4"/>
<path fill-rule="evenodd" clip-rule="evenodd" d="M12 22C11.4477 22 11 21.5523 11 21L11 11C11 10.4477 11.4477 10 12 10C12.5523 10 13 10.4477 13 11L13 21C13 21.5523 12.5523 22 12 22Z" fill="#9AA1B4"/>
<path fill-rule="evenodd" clip-rule="evenodd" d="M12 2C12.5523 2 13 2.44772 13 3V8C13 8.55228 12.5523 9 12 9C11.4477 9 11 8.55228 11 8V3C11 2.44772 11.4477 2 12 2Z" fill="#9AA1B4"/>
<path fill-rule="evenodd" clip-rule="evenodd" d="M15.5 5.5C15.5 6.05228 15.0523 6.5 14.5 6.5L9.5 6.5C8.94772 6.5 8.5 6.05228 8.5 5.5C8.5 4.94771 8.94772 4.5 9.5 4.5L14.5 4.5C15.0523 4.5 15.5 4.94772 15.5 5.5Z" fill="#9AA1B4"/>
</svg>
