<svg width="16" height="16" viewBox="0 0 16 16" fill="none" xmlns="http://www.w3.org/2000/svg">
<path fill-rule="evenodd" clip-rule="evenodd" d="M8.00008 2.66797C8.42087 2.66797 8.76199 3.00909 8.76199 3.42987V7.2394L12.5715 7.2394C12.9923 7.2394 13.3334 7.58051 13.3334 8.0013C13.3334 8.42209 12.9923 8.76321 12.5715 8.76321H8.76199V12.5727C8.76199 12.9935 8.42087 13.3346 8.00008 13.3346C7.57929 13.3346 7.23818 12.9935 7.23818 12.5727V8.76321H3.42865C3.00786 8.76321 2.66675 8.42209 2.66675 8.0013C2.66675 7.58051 3.00786 7.2394 3.42865 7.2394L7.23818 7.2394V3.42987C7.23818 3.00909 7.57929 2.66797 8.00008 2.66797Z" fill="#9AA1B4"/>
</svg>
