<?xml version="1.0" encoding="utf-8"?>
<!-- Generator: Adobe Illustrator 22.1.0, SVG Export Plug-In . SVG Version: 6.00 Build 0)  -->
<svg version="1.1" id="Layer_1" xmlns="http://www.w3.org/2000/svg" xmlns:xlink="http://www.w3.org/1999/xlink" x="0px" y="0px"
	 viewBox="0 0 25 24" style="enable-background:new 0 0 25 24;" xml:space="preserve">
<style type="text/css">
	.st0{fill:#9AA1B4;}
</style>
<path class="st0" d="M11.5,7c0-0.6,0.4-1,1-1H13c0.6,0,1,0.4,1,1s-0.4,1-1,1h-0.5C11.9,8,11.5,7.6,11.5,7z"/>
<path class="st0" d="M15,7c0-0.6,0.4-1,1-1h0.5c0.6,0,1,0.4,1,1s-0.4,1-1,1H16C15.4,8,15,7.6,15,7z"/>
<path class="st0" d="M11.5,10.5c0-0.6,0.4-1,1-1H13c0.6,0,1,0.4,1,1c0,0.6-0.4,1-1,1h-0.5C11.9,11.5,11.5,11.1,11.5,10.5z"/>
<path class="st0" d="M15,10.5c0-0.6,0.4-1,1-1h0.5c0.6,0,1,0.4,1,1c0,0.6-0.4,1-1,1H16C15.4,11.5,15,11.1,15,10.5z"/>
<path class="st0" d="M15,14c0-0.6,0.4-1,1-1h0.5c0.6,0,1,0.4,1,1s-0.4,1-1,1H16C15.4,15,15,14.6,15,14z"/>
<path class="st0" d="M20,2.5H9c-0.6,0-1,0.4-1,1V12c-0.2,0-0.4,0.1-0.6,0.2l-4.5,3.5c-0.4,0.3-0.5,1-0.2,1.4C3,17.5,3.6,17.6,4,17.4
	v3.1c0,0.6,0.4,1,1,1h15c0.6,0,1-0.4,1-1v-17C21,2.9,20.5,2.5,20,2.5z M10,19.5H6v-3.7l2-1.6l2,1.6V19.5z M19,19.5h-7v-2.1
	c0.4,0.2,1,0.1,1.3-0.3c0.3-0.4,0.3-1.1-0.2-1.4L10,13.3V4.5h9V19.5z"/>
</svg>
