<?xml version="1.0" encoding="utf-8"?>
<!-- Generator: Adobe Illustrator 22.1.0, SVG Export Plug-In . SVG Version: 6.00 Build 0)  -->
<svg version="1.1" id="Layer_1" xmlns="http://www.w3.org/2000/svg" xmlns:xlink="http://www.w3.org/1999/xlink" x="0px" y="0px"
	 viewBox="0 0 25 24" style="enable-background:new 0 0 25 24;" xml:space="preserve">
<style type="text/css">
	.st0{fill:#9AA1B4;}
</style>
<path class="st0" d="M15.9,10.8c0.4-0.5,0.6-1.1,0.6-1.8c0-1.7-1.3-3-3-3c-1.7,0-3,1.3-3,3c0,0.7,0.2,1.3,0.6,1.8
	c-1,0.7-1.6,1.9-1.6,3.2c0,0.6,0.4,1,1,1c0.6,0,1-0.4,1-1c0-1.1,0.9-2,2-2c1.1,0,2,0.9,2,2c0,0.6,0.4,1,1,1c0.6,0,1-0.4,1-1
	C17.5,12.7,16.8,11.5,15.9,10.8z M13.5,10c-0.6,0-1-0.4-1-1s0.4-1,1-1c0.6,0,1,0.4,1,1S14,10,13.5,10z"/>
<path class="st0" d="M17.5,2h-12c-0.6,0-1,0.4-1,1v3h-1c-0.6,0-1,0.4-1,1s0.4,1,1,1h1v3h-1c-0.6,0-1,0.4-1,1s0.4,1,1,1h1v3h-1
	c-0.6,0-1,0.4-1,1s0.4,1,1,1h1v3c0,0.6,0.4,1,1,1h12c2.2,0,4-1.8,4-4V6C21.5,3.8,19.7,2,17.5,2z M19.5,18c0,1.1-0.9,2-2,2h-11v-2
	c0.6,0,1-0.4,1-1s-0.4-1-1-1v-3c0.6,0,1-0.4,1-1s-0.4-1-1-1V8c0.6,0,1-0.4,1-1S7,6,6.5,6V4h11c1.1,0,2,0.9,2,2V18z"/>
</svg>
