<svg width="24" height="24" viewBox="0 0 24 24" fill="none" xmlns="http://www.w3.org/2000/svg">
<path d="M3 4C2.44772 4 2 4.44772 2 5C2 5.55228 2.44772 6 3 6H21C21.5523 6 22 5.55228 22 5C22 4.44772 21.5523 4 21 4H3Z" fill="#9AA1B4"/>
<path d="M2 9.5C2 8.94772 2.44772 8.5 3 8.5H11.5C12.0523 8.5 12.5 8.94772 12.5 9.5C12.5 10.0523 12.0523 10.5 11.5 10.5H3C2.44772 10.5 2 10.0523 2 9.5Z" fill="#9AA1B4"/>
<path fill-rule="evenodd" clip-rule="evenodd" d="M16.65 14.85H16.0572C14.5747 14.85 13.15 13.617 13.15 12C13.15 10.383 14.5747 9.15 16.0572 9.15H21.5C21.9694 9.15 22.35 9.53056 22.35 10C22.35 10.4694 21.9694 10.85 21.5 10.85H20.85V18.5C20.85 18.9694 20.4694 19.35 20 19.35C19.5306 19.35 19.15 18.9694 19.15 18.5V10.85H18.35V18.5C18.35 18.9694 17.9694 19.35 17.5 19.35C17.0306 19.35 16.65 18.9694 16.65 18.5V14.85ZM14.85 12C14.85 11.4078 15.4253 10.85 16.0572 10.85H16.65V13.15H16.0572C15.4253 13.15 14.85 12.5922 14.85 12Z" fill="#9AA1B4"/>
<path d="M2 18.5C2 17.9477 2.44772 17.5 3 17.5H11C11.5523 17.5 12 17.9477 12 18.5C12 19.0523 11.5523 19.5 11 19.5H3C2.44772 19.5 2 19.0523 2 18.5Z" fill="#9AA1B4"/>
<path d="M3 13C2.44772 13 2 13.4477 2 14C2 14.5523 2.44772 15 3 15H11C11.5523 15 12 14.5523 12 14C12 13.4477 11.5523 13 11 13H3Z" fill="#9AA1B4"/>
</svg>
