<svg width="32" height="32" viewBox="0 0 32 32" fill="none" xmlns="http://www.w3.org/2000/svg">
<path d="M26.2199 22.4154C25.8507 23.276 25.3945 24.0967 24.8585 24.8647C24.1425 25.8874 23.5545 26.594 23.1039 26.9873C22.4039 27.63 21.6519 27.9607 20.8479 27.9793C20.2719 27.9793 19.5759 27.8153 18.7652 27.482C17.9519 27.15 17.2052 26.9873 16.5212 26.9873C15.8052 26.9873 15.0372 27.15 14.2145 27.482C13.3932 27.8153 12.7292 27.99 12.2212 28.006C11.4519 28.0393 10.6825 27.7007 9.91586 26.9873C9.42653 26.5607 8.81453 25.8273 8.07986 24.79C7.2932 23.6847 6.64653 22.398 6.13986 20.9354C5.5972 19.3527 5.3252 17.822 5.3252 16.3393C5.3252 14.642 5.69186 13.1767 6.42653 11.95C6.98219 10.9866 7.77659 10.1826 8.7332 9.61535C9.67649 9.04957 10.7533 8.74493 11.8532 8.73268C12.4665 8.73268 13.2705 8.92202 14.2665 9.29535C15.2625 9.66868 15.9025 9.85802 16.1812 9.85802C16.3919 9.85802 17.0999 9.63535 18.3052 9.19402C19.4425 8.78468 20.4025 8.61535 21.1892 8.68202C23.3225 8.85402 24.9239 9.69402 25.9892 11.2087C24.0825 12.3647 23.1399 13.982 23.1585 16.058C23.1745 17.6754 23.7625 19.0207 24.9145 20.0887C25.4238 20.5761 26.0181 20.9661 26.6679 21.2393C26.5265 21.6487 26.3772 22.0394 26.2199 22.4154ZM21.3305 3.17402C21.3305 4.44068 20.8665 5.62468 19.9452 6.71935C18.8305 8.02068 17.4839 8.77402 16.0239 8.65535C16.0048 8.49607 15.9954 8.33577 15.9959 8.17535C15.9959 6.95802 16.5239 5.65668 17.4665 4.59135C17.9359 4.05268 18.5332 3.60335 19.2572 3.24602C19.9799 2.89402 20.6625 2.69935 21.3052 2.66602C21.3225 2.83668 21.3305 3.00602 21.3305 3.17402Z" fill="#9AA1B4"/>
</svg>
