<?xml version="1.0" encoding="utf-8"?>
<!-- Generator: Adobe Illustrator 26.4.1, SVG Export Plug-In . SVG Version: 6.00 Build 0)  -->
<svg version="1.1" id="Layer_1" xmlns="http://www.w3.org/2000/svg" xmlns:xlink="http://www.w3.org/1999/xlink" x="0px" y="0px"
	 viewBox="0 0 32 32" style="enable-background:new 0 0 32 32;" xml:space="preserve">
<style type="text/css">
	.st0{fill:#9AA1B4;}
</style>
<path class="st0" d="M25.7,15.3l-2.5-2.5c-0.4-0.4-1-0.4-1.4,0s-0.4,1,0,1.4l0.8,0.8H17V9.4l0.8,0.8c0.2,0.2,0.5,0.3,0.7,0.3
	c0.3,0,0.5-0.1,0.7-0.3c0.4-0.4,0.4-1,0-1.4l-2.5-2.5C16.5,6.1,16.3,6,16,6c-0.3,0-0.5,0.1-0.7,0.3l-2.5,2.5c-0.4,0.4-0.4,1,0,1.4
	c0.2,0.2,0.5,0.3,0.7,0.3c0.3,0,0.5-0.1,0.7-0.3L15,9.4V15H9.4l0.8-0.8c0.4-0.4,0.4-1,0-1.4s-1-0.4-1.4,0l-2.5,2.5
	c-0.4,0.4-0.4,1,0,1.4l2.5,2.5c0.4,0.4,1,0.4,1.4,0s0.4-1,0-1.4L9.4,17H15v5.6l-0.8-0.8c-0.4-0.4-1-0.4-1.4,0s-0.4,1,0,1.4l2.5,2.5
	c0.2,0.2,0.4,0.3,0.7,0.3c0.3,0,0.5-0.1,0.7-0.3l2.5-2.5c0.4-0.4,0.4-1,0-1.4s-1-0.4-1.4,0L17,22.6V17h5.6l-0.8,0.8
	c-0.4,0.4-0.4,1,0,1.4s1,0.4,1.4,0l2.5-2.5C26.1,16.3,26.1,15.7,25.7,15.3z"/>
</svg>
