<svg width="25" height="24" viewBox="0 0 25 24" fill="none" xmlns="http://www.w3.org/2000/svg">
<path fill-rule="evenodd" clip-rule="evenodd" d="M4.24658 3C3.6943 3 3.24658 3.44772 3.24658 4C3.24658 4.55228 3.6943 5 4.24658 5H10.2466C10.7989 5 11.2466 4.55228 11.2466 4C11.2466 3.44772 10.7989 3 10.2466 3H4.24658ZM14.2466 3C13.6943 3 13.2466 3.44772 13.2466 4C13.2466 4.55228 13.6943 5 14.2466 5H20.2466C20.7989 5 21.2466 4.55228 21.2466 4C21.2466 3.44772 20.7989 3 20.2466 3H14.2466ZM6.24658 9C5.6943 9 5.24658 9.44772 5.24658 10V18C5.24658 18.5523 5.6943 19 6.24658 19H8.24658C8.79887 19 9.24658 18.5523 9.24658 18V10C9.24658 9.44772 8.79887 9 8.24658 9H6.24658ZM3.24658 10C3.24658 8.34315 4.58973 7 6.24658 7H8.24658C9.90344 7 11.2466 8.34315 11.2466 10V18C11.2466 19.6569 9.90344 21 8.24658 21H6.24658C4.58973 21 3.24658 19.6569 3.24658 18V10ZM15.2466 10C15.2466 9.44772 15.6943 9 16.2466 9H18.2466C18.7989 9 19.2466 9.44772 19.2466 10V12C19.2466 12.5523 18.7989 13 18.2466 13H16.2466C15.6943 13 15.2466 12.5523 15.2466 12V10ZM16.2466 7C14.5897 7 13.2466 8.34315 13.2466 10V12C13.2466 13.6569 14.5897 15 16.2466 15H18.2466C19.9034 15 21.2466 13.6569 21.2466 12V10C21.2466 8.34315 19.9034 7 18.2466 7H16.2466Z" fill="#9AA1B4"/>
</svg>
