<svg width="24" height="24" viewBox="0 0 24 24" fill="none" xmlns="http://www.w3.org/2000/svg">
<path fill-rule="evenodd" clip-rule="evenodd" d="M4.5 4C4.5 3.17157 5.17157 2.5 6 2.5H13C16.0376 2.5 18.5 4.96243 18.5 8C18.5 9.15703 18.1427 10.2306 17.5325 11.1165C19.2956 12.0326 20.5 13.8757 20.5 16C20.5 19.0376 18.0376 21.5 15 21.5H6C5.17157 21.5 4.5 20.8284 4.5 20V4ZM7.5 5.5V10.5H13C14.3807 10.5 15.5 9.38071 15.5 8C15.5 6.61929 14.3807 5.5 13 5.5H7.5ZM7.5 13.5V18.5H15C16.3807 18.5 17.5 17.3807 17.5 16C17.5 14.6193 16.3807 13.5 15 13.5H7.5Z" fill="#9AA1B4"/>
</svg>
