<?xml version="1.0" encoding="utf-8"?>
<!-- Generator: Adobe Illustrator 26.5.0, SVG Export Plug-In . SVG Version: 6.00 Build 0)  -->
<svg version="1.1" id="Layer_1" xmlns="http://www.w3.org/2000/svg" xmlns:xlink="http://www.w3.org/1999/xlink" x="0px" y="0px"
	 viewBox="0 0 16 16" style="enable-background:new 0 0 16 16;" xml:space="preserve">
<style type="text/css">
	.st0{fill-rule:evenodd;clip-rule:evenodd;fill:#3663F2;}
</style>
<path class="st0" d="M12,2.7V2c0-0.4-0.3-0.7-0.7-0.7S10.7,1.6,10.7,2v0.7H5.3V2c0-0.4-0.3-0.7-0.7-0.7C4.3,1.3,4,1.6,4,2v0.7
	c-1.5,0-2.7,1.2-2.7,2.7v6C1.3,12.8,2.5,14,4,14h8c1.5,0,2.7-1.2,2.7-2.7v-6C14.7,3.9,13.5,2.7,12,2.7z M13.3,11.3
	c0,0.7-0.6,1.3-1.3,1.3H4c-0.7,0-1.3-0.6-1.3-1.3V6.7h10.7V11.3z M2.7,5.3C2.7,4.6,3.3,4,4,4h8c0.7,0,1.3,0.6,1.3,1.3H2.7z"/>
</svg>
