<svg width="25" height="24" viewBox="0 0 25 24" fill="none" xmlns="http://www.w3.org/2000/svg">
<path fill-rule="evenodd" clip-rule="evenodd" d="M15.7798 7.26285C16.1869 7.63604 16.2144 8.26861 15.8412 8.67573L8.50786 16.6757C8.31139 16.8901 8.03137 17.0083 7.74074 16.9996C7.45012 16.9908 7.17768 16.8561 6.9944 16.6304L3.32774 12.1148C2.9796 11.6861 3.04493 11.0563 3.47367 10.7081C3.90241 10.36 4.5322 10.4253 4.88034 10.8541L7.81656 14.4701L14.3669 7.32428C14.7401 6.91716 15.3726 6.88966 15.7798 7.26285Z" fill="#9AA1B4"/>
<path fill-rule="evenodd" clip-rule="evenodd" d="M20.7625 7.24744C21.1782 7.61112 21.2203 8.24288 20.8566 8.65852L13.8566 16.6585C13.4929 17.0742 12.8611 17.1163 12.4455 16.7526C12.0299 16.3889 11.9878 15.7571 12.3514 15.3415L19.3514 7.34151C19.7151 6.92587 20.3469 6.88375 20.7625 7.24744Z" fill="#9AA1B4"/>
</svg>
