<?xml version="1.0" encoding="utf-8"?>
<!-- Generator: Adobe Illustrator 22.1.0, SVG Export Plug-In . SVG Version: 6.00 Build 0)  -->
<svg version="1.1" id="Layer_1" xmlns="http://www.w3.org/2000/svg" xmlns:xlink="http://www.w3.org/1999/xlink" x="0px" y="0px"
	 viewBox="0 0 24 24" style="enable-background:new 0 0 24 24;" xml:space="preserve">
<style type="text/css">
	.st0{fill:#2A2ADD;}
</style>
<path class="st0" d="M12,2C6.5,2,2,6.5,2,12s4.5,10,10,10s10-4.5,10-10S17.5,2,12,2z M16.2,10.3l-3.9,4.8c-0.2,0.2-0.5,0.4-0.8,0.4
	c-0.3,0-0.6-0.1-0.8-0.4l-2.4-2.7c-0.4-0.4-0.4-1.1,0.1-1.5c0.4-0.4,1.1-0.4,1.5,0.1l1.6,1.8l3.1-3.8c0.4-0.5,1.1-0.5,1.5-0.1
	C16.6,9.2,16.6,9.8,16.2,10.3z"/>
</svg>
