<?xml version="1.0" encoding="utf-8"?>
<!-- Generator: Adobe Illustrator 26.4.1, SVG Export Plug-In . SVG Version: 6.00 Build 0)  -->
<svg version="1.1" id="Layer_1" xmlns="http://www.w3.org/2000/svg" xmlns:xlink="http://www.w3.org/1999/xlink" x="0px" y="0px"
	 viewBox="0 0 32 32" style="enable-background:new 0 0 32 32;" xml:space="preserve">
<style type="text/css">
	.st0{fill:#9AA1B4;}
</style>
<g>
	<path class="st0" d="M27.6,15l-4.3-4.3c-0.5-0.5-1.2-0.5-1.7,0c-0.5,0.5-0.5,1.2,0,1.7l3.6,3.6l-3.6,3.6c-0.5,0.5-0.5,1.2,0,1.7
		c0.2,0.2,0.5,0.4,0.8,0.4c0.3,0,0.6-0.1,0.8-0.4l4.3-4.3C28.1,16.4,28.1,15.6,27.6,15z"/>
	<path class="st0" d="M6.8,16l3.6-3.6c0.5-0.5,0.5-1.2,0-1.7c-0.5-0.5-1.2-0.5-1.7,0L4.4,15c-0.5,0.5-0.5,1.4,0,2l4.3,4.3
		c0.2,0.2,0.5,0.4,0.8,0.4s0.6-0.1,0.8-0.4c0.2-0.2,0.4-0.5,0.4-0.8c0-0.3-0.1-0.6-0.4-0.8L6.8,16z"/>
	<path class="st0" d="M18.2,7.8c-0.6-0.2-1.3,0.2-1.5,0.8l-3.8,14c-0.1,0.3,0,0.6,0.1,0.9c0.2,0.3,0.4,0.5,0.7,0.6
		c0.1,0,0.2,0,0.3,0c0.5,0,1-0.4,1.2-0.9l3.8-14C19.2,8.7,18.8,8,18.2,7.8z"/>
</g>
</svg>
