<svg width="24" height="24" viewBox="0 0 24 24" fill="none" xmlns="http://www.w3.org/2000/svg">
<path fill-rule="evenodd" clip-rule="evenodd" d="M12.4942 8.25C10.285 8.25 8.49418 10.0409 8.49418 12.25C8.49418 14.4591 10.285 16.25 12.4942 16.25C14.7033 16.25 16.4942 14.4591 16.4942 12.25C16.4942 10.0409 14.7033 8.25 12.4942 8.25ZM10.4942 12.25C10.4942 11.1454 11.3896 10.25 12.4942 10.25C13.5987 10.25 14.4942 11.1454 14.4942 12.25C14.4942 13.3546 13.5987 14.25 12.4942 14.25C11.3896 14.25 10.4942 13.3546 10.4942 12.25Z" fill="#9AA1B4"/>
<path fill-rule="evenodd" clip-rule="evenodd" d="M12.3313 2C10.4566 2 8.8333 3.30213 8.4266 5.13228L8.415 5.18448L8.36399 5.16843C6.57569 4.60556 4.63638 5.36028 3.69899 6.9839L3.53606 7.2661C2.59866 8.88972 2.91471 10.9466 4.29632 12.2139L4.33572 12.25L4.2963 12.2862C2.91469 13.5534 2.59864 15.6103 3.53604 17.2339L3.69897 17.5161C4.63637 19.1397 6.57567 19.8944 8.36398 19.3316L8.41499 19.3155L8.4266 19.3677C8.8333 21.1979 10.4566 22.5 12.3313 22.5H12.6572C14.532 22.5 16.1553 21.1979 16.562 19.3677L16.5736 19.3155L16.6246 19.3316C18.4129 19.8944 20.3522 19.1397 21.2896 17.5161L21.4525 17.2339C22.3899 15.6103 22.0739 13.5534 20.6923 12.2861L20.6528 12.25L20.6922 12.2139C22.0738 10.9466 22.3899 8.88972 21.4525 7.2661L21.2896 6.9839C20.3522 5.36028 18.4129 4.60556 16.6246 5.16843L16.5736 5.18447L16.562 5.13228C16.1553 3.30213 14.532 2 12.6572 2H12.3313ZM10.379 5.56613C10.5823 4.65106 11.3939 4 12.3313 4H12.6572C13.5946 4 14.4062 4.65106 14.6096 5.56614L14.6212 5.61835C14.8755 6.76298 16.0555 7.44425 17.174 7.09222L17.225 7.07616C18.1192 6.79473 19.0888 7.17209 19.5575 7.9839L19.7204 8.2661C20.1891 9.07791 20.0311 10.1063 19.3403 10.74L19.3009 10.7761C18.4368 11.5687 18.4368 12.9313 19.3009 13.7239L19.3403 13.76C20.0311 14.3937 20.1892 15.4221 19.7205 16.2339L19.5575 16.5161C19.0888 17.3279 18.1192 17.7053 17.225 17.4238L17.174 17.4078C16.0555 17.0557 14.8755 17.737 14.6212 18.8817L14.6096 18.9339C14.4062 19.8489 13.5946 20.5 12.6572 20.5H12.3313C11.3939 20.5 10.5823 19.8489 10.379 18.9339L10.3674 18.8817C10.113 17.737 8.93301 17.0557 7.81454 17.4078L7.76353 17.4238C6.86937 17.7053 5.89972 17.3279 5.43102 16.5161L5.26809 16.2339C4.79939 15.4221 4.95742 14.3937 5.64822 13.76L5.68764 13.7239C6.55174 12.9313 6.55174 11.5687 5.68764 10.7761L5.64824 10.74C4.95743 10.1063 4.79941 9.07791 5.26811 8.2661L5.43104 7.9839C5.89974 7.17209 6.86939 6.79473 7.76354 7.07616L7.81455 7.09222C8.93301 7.44425 10.113 6.76298 10.3674 5.61834L10.379 5.56613Z" fill="#9AA1B4"/>
</svg>
