<svg width="32" height="32" viewBox="0 0 32 32" fill="none" xmlns="http://www.w3.org/2000/svg">
<path fill-rule="evenodd" clip-rule="evenodd" d="M23.7057 10.7274L18.462 16L23.7057 21.2726C24.0987 21.6678 24.0987 22.3085 23.7058 22.7036C23.3129 23.0988 22.676 23.0988 22.2831 22.7036L16.2709 16.657C15.9102 16.2941 15.9102 15.7059 16.2709 15.343L22.2831 9.29635C22.676 8.90122 23.3129 8.90122 23.7058 9.29635C24.0987 9.69152 24.0987 10.3322 23.7057 10.7274Z" fill="#9AA1B4"/>
<path fill-rule="evenodd" clip-rule="evenodd" d="M15.7059 10.7274L10.4634 16L15.7059 21.2725C16.0988 21.6677 16.0988 22.3084 15.7059 22.7036C15.313 23.0987 14.6759 23.0987 14.283 22.7036L8.27095 16.657C7.91017 16.2941 7.91017 15.7058 8.27095 15.343L14.283 9.29638C14.6759 8.90121 15.313 8.90121 15.7059 9.29638C16.0988 9.69155 16.0988 10.3322 15.7059 10.7274Z" fill="#9AA1B4"/>
</svg>
