<?xml version="1.0" encoding="utf-8"?>
<!-- Generator: Adobe Illustrator 26.2.1, SVG Export Plug-In . SVG Version: 6.00 Build 0)  -->
<svg version="1.1" id="Layer_1" xmlns="http://www.w3.org/2000/svg" xmlns:xlink="http://www.w3.org/1999/xlink" x="0px" y="0px"
	 viewBox="0 0 16 16" style="enable-background:new 0 0 16 16;" xml:space="preserve">
<style type="text/css">
	.st0{fill-rule:evenodd;clip-rule:evenodd;fill:#3663F2;}
</style>
<path class="st0" d="M12.3,4V3.7c0-1-1-1.6-1.9-1.2L10,2.8C9.9,2,9.2,1.3,8.3,1.3h-3C4.4,1.3,3.7,2.1,3.7,3v1c-1.1,0-2,0.9-2,2v4.7
	c0,1.1,0.9,2,2,2h2.1l1.7,1.7c0.3,0.3,0.7,0.3,0.9,0l1.7-1.7h2.2c1.1,0,2-0.9,2-2V6C14.3,4.9,13.4,4,12.3,4z M10,4.2l1-0.5v1.8
	l-1-0.5V4.2z M5,3c0-0.2,0.1-0.3,0.3-0.3h3c0.2,0,0.3,0.1,0.3,0.3v3.3c0,0.2-0.1,0.3-0.3,0.3h-3C5.1,6.7,5,6.5,5,6.3V3z M13,10.7
	c0,0.4-0.3,0.7-0.7,0.7H9.8c-0.2,0-0.3,0.1-0.5,0.2l-1.4,1.4l-1.4-1.4c-0.1-0.1-0.3-0.2-0.5-0.2H3.7C3.3,11.3,3,11,3,10.7V6
	c0-0.4,0.3-0.7,0.7-0.7v1C3.7,7.3,4.4,8,5.3,8h3C9.2,8,9.9,7.4,10,6.6l0.4,0.2c0.9,0.4,1.9-0.2,1.9-1.2V5.3C12.7,5.3,13,5.6,13,6
	V10.7z"/>
</svg>
