<?xml version="1.0" encoding="utf-8"?>
<!-- Generator: Adobe Illustrator 26.2.1, SVG Export Plug-In . SVG Version: 6.00 Build 0)  -->
<svg version="1.1" id="Layer_1" xmlns="http://www.w3.org/2000/svg" xmlns:xlink="http://www.w3.org/1999/xlink" x="0px" y="0px"
	 viewBox="0 0 24 24" style="enable-background:new 0 0 24 24;" xml:space="preserve">
<style type="text/css">
	.st0{fill-rule:evenodd;clip-rule:evenodd;fill:#9AA1B4;}
</style>
<g>
	<path class="st0" d="M21,16h-1V8h1c0.6,0,1-0.4,1-1s-0.4-1-1-1h-1c-0.2-2-1.9-3.5-4-3.5H6c-2.2,0-4,1.8-4,4v11c0,2.2,1.8,4,4,4h10
		c2,0,3.7-1.5,4-3.5h1c0.6,0,1-0.4,1-1S21.6,16,21,16z M18,16h-0.5c-0.6,0-1,0.4-1,1s0.4,1,1,1h0.4c-0.2,0.9-1,1.5-1.9,1.5H6
		c-1.1,0-2-0.9-2-2v-11c0-1.1,0.9-2,2-2h10c0.9,0,1.7,0.6,1.9,1.5h-0.4c-0.6,0-1,0.4-1,1s0.4,1,1,1H18V16z"/>
	<path class="st0" d="M12.4,12.3c0.4-0.5,0.6-1.1,0.6-1.8c0-1.7-1.3-3-3-3c-1.7,0-3,1.3-3,3c0,0.7,0.2,1.3,0.6,1.8
		C6.6,13,6,14.2,6,15.5c0,0.6,0.4,1,1,1s1-0.4,1-1c0-1.1,0.9-2,2-2c1.1,0,2,0.9,2,2c0,0.6,0.4,1,1,1s1-0.4,1-1
		C14,14.2,13.4,13,12.4,12.3z M10,11.5c-0.6,0-1-0.4-1-1s0.4-1,1-1s1,0.4,1,1S10.6,11.5,10,11.5z"/>
</g>
</svg>
