<?xml version="1.0" encoding="utf-8"?>
<!-- Generator: Adobe Illustrator 22.1.0, SVG Export Plug-In . SVG Version: 6.00 Build 0)  -->
<svg version="1.1" id="Layer_1" xmlns="http://www.w3.org/2000/svg" xmlns:xlink="http://www.w3.org/1999/xlink" x="0px" y="0px"
	 viewBox="0 0 24 24" style="enable-background:new 0 0 24 24;" xml:space="preserve">
<style type="text/css">
	.st0{fill:#9AA1B4;}
</style>
<path class="st0" d="M18,3H8C5.8,3,4,4.8,4,7v2.5c0,0.6,0.4,1,1,1s1-0.4,1-1V7c0-1.1,0.9-2,2-2h10c1.1,0,2,0.9,2,2v7h-3
	c-1.1,0-2,0.9-2,2v3h-3c-0.6,0-1,0.4-1,1s0.4,1,1,1h4.5c0.3,0,0.5-0.1,0.7-0.3l4.5-4.5c0.2-0.2,0.3-0.4,0.3-0.7V15v0v0V7
	C22,4.8,20.2,3,18,3z M17,18.1V16h2.1L17,18.1z"/>
<path class="st0" d="M9,8c0-0.6,0.4-1,1-1h6c0.6,0,1,0.4,1,1c0,0.6-0.4,1-1,1h-6C9.4,9,9,8.6,9,8z"/>
<path class="st0" d="M2,18c0-2.2,1.8-4,4-4h0.5v-1c0-0.4,0.2-0.7,0.6-0.9c0.3-0.2,0.8-0.1,1.1,0.1l2.5,2c0.2,0.2,0.4,0.5,0.4,0.8
	s-0.1,0.6-0.4,0.8l-2.5,2c-0.3,0.2-0.7,0.3-1.1,0.1c-0.3-0.2-0.6-0.5-0.6-0.9v-1H6c-1.1,0-2,0.9-2,2s0.9,2,2,2h1.5c0.6,0,1,0.4,1,1
	s-0.4,1-1,1H6C3.8,22,2,20.2,2,18z"/>
</svg>
