<svg width="24" height="24" viewBox="0 0 24 24" fill="none" xmlns="http://www.w3.org/2000/svg">
<path fill-rule="evenodd" clip-rule="evenodd" d="M6 2C3.79086 2 2 3.79086 2 6V14.5C2 16.7091 3.79086 18.5 6 18.5H14.5C16.7091 18.5 18.5 16.7091 18.5 14.5V6C18.5 3.79086 16.7091 2 14.5 2H6ZM4 6C4 4.89543 4.89543 4 6 4H14.5C15.6046 4 16.5 4.89543 16.5 6V14.5C16.5 15.6046 15.6046 16.5 14.5 16.5H6C4.89543 16.5 4 15.6046 4 14.5V6Z" fill="#9AA1B4"/>
<path d="M22 7.5C22 6.39543 21.1046 5.5 20 5.5V18C20 19.1046 19.1046 20 18 20H5.5C5.5 21.1046 6.39543 22 7.5 22H18C20.2091 22 22 20.2091 22 18V7.5Z" fill="#9AA1B4"/>
</svg>
