<?xml version="1.0" encoding="utf-8"?>
<!-- Generator: Adobe Illustrator 27.0.0, SVG Export Plug-In . SVG Version: 6.00 Build 0)  -->
<svg version="1.1" id="Layer_1" xmlns="http://www.w3.org/2000/svg" xmlns:xlink="http://www.w3.org/1999/xlink" x="0px" y="0px"
	 viewBox="0 0 24 24" style="enable-background:new 0 0 24 24;" xml:space="preserve">
<style type="text/css">
	.st0{fill:#DE3F3F;}
</style>
<path class="st0" d="M14.7,23c-0.6,0-1-0.4-1-1v-2.6h-3.5V22c0,0.6-0.4,1-1,1s-1-0.4-1-1v-2.6H7.5c-0.7,0-1.5-0.3-2-0.8
	c-0.5-0.5-0.8-1.2-0.8-2v-0.8H2c-0.6,0-1-0.4-1-1s0.4-1,1-1h2.6v-3.5H2c-0.6,0-1-0.4-1-1s0.4-1,1-1h2.6V7.5c0-0.8,0.3-1.5,0.8-2
	c0.5-0.5,1.2-0.8,2-0.8h0.8V2c0-0.6,0.4-1,1-1s1,0.4,1,1v2.6h3.5V2c0-0.6,0.4-1,1-1s1,0.4,1,1v2.6h0.8c0.8,0,1.5,0.3,2,0.8
	s0.8,1.2,0.8,2v0.8H22c0.6,0,1,0.4,1,1s-0.4,1-1,1h-2.6v3.5H22c0.6,0,1,0.4,1,1s-0.4,1-1,1h-2.6v0.8c0,0.7-0.3,1.5-0.8,2
	c-0.5,0.5-1.2,0.8-2,0.8h-0.8V22C15.7,22.5,15.3,23,14.7,23z M6.6,14.7v1.8c0,0.2,0.1,0.4,0.2,0.6c0.2,0.2,0.4,0.2,0.6,0.2h9.1
	c0.2,0,0.4-0.1,0.6-0.2c0.2-0.2,0.2-0.4,0.2-0.6V7.5c0-0.2-0.1-0.4-0.2-0.6s-0.4-0.2-0.6-0.2H7.5C7.2,6.6,7,6.7,6.9,6.9
	C6.7,7,6.6,7.2,6.6,7.5V14.7z M14.7,15.7H9.3c-0.6,0-1-0.4-1-1V9.3c0-0.6,0.4-1,1-1h5.5c0.6,0,1,0.4,1,1v5.5
	C15.7,15.3,15.3,15.7,14.7,15.7z M10.3,13.7h3.5v-3.5h-3.5V13.7z"/>
</svg>
