<?xml version="1.0" encoding="utf-8"?>
<!-- Generator: Adobe Illustrator 27.0.0, SVG Export Plug-In . SVG Version: 6.00 Build 0)  -->
<svg version="1.1" id="Layer_1" xmlns="http://www.w3.org/2000/svg" xmlns:xlink="http://www.w3.org/1999/xlink" x="0px" y="0px"
	 viewBox="0 0 24 24" style="enable-background:new 0 0 24 24;" xml:space="preserve">
<style type="text/css">
	.st0{fill:#EB6363;}
</style>
<path class="st0" d="M22,10.6L13.4,2c-0.8-0.8-2-0.8-2.7,0L2,10.6c-0.8,0.8-0.8,2,0,2.7l8.6,8.6c0.7,0.8,2,0.8,2.7,0l8.6-8.6
	C22.7,12.6,22.7,11.4,22,10.6z M11.8,6.8c0.7,0,1.2,0.6,1.2,1.2l-0.2,6c-1,0-1.7-0.8-1.8-1.7l-0.2-4.5C10.9,7.2,11.3,6.8,11.8,6.8z
	 M13.1,16.6c0,0.1-0.1,0.2-0.2,0.3c-0.1,0.1-0.2,0.2-0.4,0.2c-0.1,0-0.3,0.1-0.5,0.1c-0.2,0-0.3,0-0.5-0.1c-0.1,0-0.2-0.1-0.4-0.2
	c-0.1-0.1-0.2-0.2-0.2-0.3c0-0.1-0.1-0.2-0.1-0.4c0-0.1,0-0.3,0.1-0.4c0-0.1,0.1-0.2,0.2-0.3c0.1-0.1,0.2-0.2,0.4-0.2
	c0.1,0,0.3-0.1,0.5-0.1c0.2,0,0.3,0,0.5,0.1c0.1,0,0.3,0.1,0.4,0.2c0.1,0.1,0.2,0.2,0.2,0.3c0,0.1,0.1,0.3,0.1,0.4
	C13.2,16.3,13.2,16.5,13.1,16.6z"/>
</svg>
