<?xml version="1.0" encoding="utf-8"?>
<!-- Generator: Adobe Illustrator 26.1.0, SVG Export Plug-In . SVG Version: 6.00 Build 0)  -->
<svg version="1.1" id="Layer_1" xmlns="http://www.w3.org/2000/svg" xmlns:xlink="http://www.w3.org/1999/xlink" x="0px" y="0px"
	 viewBox="0 0 24 24" style="enable-background:new 0 0 24 24;" xml:space="preserve">
<style type="text/css">
	.st0{fill-rule:evenodd;clip-rule:evenodd;fill:#9AA1B4;}
</style>
<g>
	<path class="st0" d="M14.9,15.8c-0.4-0.4-1-0.4-1.4,0l-1.4,1.4l-1.4-1.4c-0.4-0.4-1-0.4-1.4,0c-0.4,0.4-0.4,1,0,1.4l1.4,1.4L9.3,20
		c-0.4,0.4-0.4,1,0,1.4c0.4,0.4,1,0.4,1.4,0l1.4-1.4l1.4,1.4c0.4,0.4,1,0.4,1.4,0c0.4-0.4,0.4-1,0-1.4l-1.4-1.4l1.4-1.4
		C15.3,16.8,15.3,16.2,14.9,15.8z"/>
	<path class="st0" d="M19.5,2h-15c-1.1,0-2,0.9-2,2v8c0,1.1,0.9,2,2,2h15c1.1,0,2-0.9,2-2V4C21.5,2.9,20.6,2,19.5,2z M11,12H4.5V9
		H11V12z M11,7H4.5V4H11V7z M19.5,12H13V9h6.5V12z M19.5,7H13V4h6.5V7z"/>
</g>
</svg>
