<?xml version="1.0" encoding="utf-8"?>
<!-- Generator: Adobe Illustrator 26.1.0, SVG Export Plug-In . SVG Version: 6.00 Build 0)  -->
<svg version="1.1" id="Layer_1" xmlns="http://www.w3.org/2000/svg" xmlns:xlink="http://www.w3.org/1999/xlink" x="0px" y="0px"
	viewBox="0 0 24 24" style="enable-background:new 0 0 24 24;" xml:space="preserve">
<style type="text/css">
	.st0{fill:#9AA1B4;}
</style>
<g>
	<path class="st0" d="M12,2.5H4c-1.1,0-2,0.9-2,2v15c0,1.1,0.9,2,2,2h8c1.1,0,2-0.9,2-2v-15C14,3.4,13.1,2.5,12,2.5z M7,19.5H4v-15
		h3V19.5z M12,19.5H9v-15h3V19.5z"/>
	<path class="st0" d="M19.9,12l1.4-1.4c0.4-0.4,0.4-1,0-1.4c-0.4-0.4-1-0.4-1.4,0l-1.4,1.4l-1.4-1.4c-0.4-0.4-1-0.4-1.4,0
		c-0.4,0.4-0.4,1,0,1.4l1.4,1.4l-1.4,1.4c-0.4,0.4-0.4,1,0,1.4c0.4,0.4,1,0.4,1.4,0l1.4-1.4l1.4,1.4c0.4,0.4,1,0.4,1.4,0
		c0.4-0.4,0.4-1,0-1.4L19.9,12z"/>
</g>
</svg>
