<svg width="24" height="24" viewBox="0 0 24 24" fill="none" xmlns="http://www.w3.org/2000/svg">
<path fill-rule="evenodd" clip-rule="evenodd" d="M3 4C3 3.44772 3.44772 3 4 3H20C20.5523 3 21 3.44772 21 4V9C21 9.55228 20.5523 10 20 10H4C3.44772 10 3 9.55228 3 9V4ZM5 5V8H19V5H5Z" fill="#9AA1B4"/>
<path fill-rule="evenodd" clip-rule="evenodd" d="M3 9C3 8.44772 3.44772 8 4 8H20C20.5523 8 21 8.44772 21 9V13C21 13.5523 20.5523 14 20 14C19.4477 14 19 13.5523 19 13V10H5V19H12C12.5523 19 13 19.4477 13 20C13 20.5523 12.5523 21 12 21H4C3.44772 21 3 20.5523 3 20V9Z" fill="#9AA1B4"/>
<path fill-rule="evenodd" clip-rule="evenodd" d="M10 3C10.5523 3 11 3.44772 11 4V20C11 20.5523 10.5523 21 10 21C9.44772 21 9 20.5523 9 20V4C9 3.44772 9.44772 3 10 3Z" fill="#9AA1B4"/>
<path fill-rule="evenodd" clip-rule="evenodd" d="M15 8C15.5523 8 16 8.44772 16 9V13C16 13.5523 15.5523 14 15 14C14.4477 14 14 13.5523 14 13V9C14 8.44772 14.4477 8 15 8Z" fill="#9AA1B4"/>
<path fill-rule="evenodd" clip-rule="evenodd" d="M15.2929 16.2929C15.6834 15.9024 16.3166 15.9024 16.7071 16.2929L18.1215 17.7073L19.5355 16.2933C19.9261 15.9028 20.5592 15.9028 20.9497 16.2933C21.3403 16.6839 21.3403 17.317 20.9497 17.7076L19.5358 19.1215L20.9497 20.5355C21.3403 20.9261 21.3403 21.5592 20.9497 21.9497C20.5592 22.3403 19.9261 22.3403 19.5355 21.9497L18.1215 20.5358L16.7071 21.9502C16.3166 22.3407 15.6834 22.3407 15.2929 21.9502C14.9024 21.5597 14.9024 20.9265 15.2929 20.536L16.7073 19.1215L15.2929 17.7071C14.9024 17.3166 14.9024 16.6834 15.2929 16.2929Z" fill="#9AA1B4"/>
</svg>
