<?xml version="1.0" encoding="utf-8"?>
<!-- Generator: Adobe Illustrator 22.1.0, SVG Export Plug-In . SVG Version: 6.00 Build 0)  -->
<svg version="1.1" id="Layer_1" xmlns="http://www.w3.org/2000/svg" xmlns:xlink="http://www.w3.org/1999/xlink" x="0px" y="0px"
	 viewBox="0 0 25 24" style="enable-background:new 0 0 25 24;" xml:space="preserve">
<style type="text/css">
	.st0{fill:#9AA1B4;}
</style>
<path class="st0" d="M14.6,4c0.6,0,1-0.4,1-1c0-0.6-0.4-1-1-1h-5c-0.6,0-1,0.4-1,1s0.4,1,1,1H14.6z"/>
<path class="st0" d="M20.6,5h-17c-0.6,0-1,0.4-1,1s0.4,1,1,1h1v11c0,2.2,1.8,4,4,4h7c2.2,0,4-1.8,4-4V7h1c0.6,0,1-0.4,1-1
	S21.2,5,20.6,5z M17.6,18c0,1.1-0.9,2-2,2h-7c-1.1,0-2-0.9-2-2V7h11V18z"/>
<path class="st0" d="M14.9,11.5c0.3-0.3,0.3-0.8,0-1.1c-0.3-0.3-0.8-0.3-1.1,0l-1.8,1.8l-1.8-1.8c-0.3-0.3-0.8-0.3-1.1,0
	c-0.3,0.3-0.3,0.8,0,1.1l1.8,1.8L9.3,15c-0.3,0.3-0.3,0.8,0,1.1c0.3,0.3,0.8,0.3,1.1,0l1.8-1.8l1.8,1.8c0.3,0.3,0.8,0.3,1.1,0
	c0.3-0.3,0.3-0.8,0-1.1l-1.8-1.8L14.9,11.5z"/>
</svg>
