<svg width="24" height="24" viewBox="0 0 24 24" fill="none" xmlns="http://www.w3.org/2000/svg">
<path fill-rule="evenodd" clip-rule="evenodd" d="M12 4C7.58172 4 4 7.58172 4 12C4 16.4183 7.58172 20 12 20C16.4183 20 20 16.4183 20 12C20 7.58172 16.4183 4 12 4ZM2 12C2 6.47715 6.47715 2 12 2C17.5228 2 22 6.47715 22 12C22 17.5228 17.5228 22 12 22C6.47715 22 2 17.5228 2 12Z" fill="#9AA1B4"/>
<path fill-rule="evenodd" clip-rule="evenodd" d="M6 10.5C6 9.94772 6.44772 9.5 7 9.5H17C17.5523 9.5 18 9.94772 18 10.5V13.5C18 14.0523 17.5523 14.5 17 14.5H7C6.44772 14.5 6 14.0523 6 13.5V10.5ZM8 11.5V12.5H16V11.5H8Z" fill="#9AA1B4"/>
</svg>
