<svg width="25" height="24" viewBox="0 0 25 24" fill="none" xmlns="http://www.w3.org/2000/svg">
<path d="M12.104 2C12.6563 2 13.104 2.44772 13.104 3V12.5858L17.3969 8.29289C17.7874 7.90237 18.4206 7.90237 18.8111 8.29289C19.2016 8.68342 19.2016 9.31658 18.8111 9.70711L12.8118 15.7064C12.6308 15.8878 12.3805 16 12.104 16C11.8275 16 11.5772 15.8878 11.3962 15.7064L5.3969 9.70711C5.00637 9.31658 5.00637 8.68342 5.3969 8.29289C5.78742 7.90237 6.42059 7.90237 6.81111 8.29289L11.104 12.5858V3C11.104 2.44772 11.5517 2 12.104 2Z" fill="#9AA1B4"/>
<path d="M4.104 16C4.104 15.4477 3.65629 15 3.104 15C2.55172 15 2.104 15.4477 2.104 16V18C2.104 20.2091 3.89487 22 6.104 22H18.104C20.3131 22 22.104 20.2091 22.104 18V16C22.104 15.4477 21.6563 15 21.104 15C20.5517 15 20.104 15.4477 20.104 16V18C20.104 19.1046 19.2086 20 18.104 20H6.104C4.99943 20 4.104 19.1046 4.104 18V16Z" fill="#9AA1B4"/>
</svg>
