<svg width="24" height="24" viewBox="0 0 24 24" fill="none" xmlns="http://www.w3.org/2000/svg">
<path fill-rule="evenodd" clip-rule="evenodd" d="M11.9995 20C12.5518 20 12.9995 19.5523 12.9995 19L12.9995 5C12.9995 4.44771 12.5518 4 11.9995 4C11.4472 4 10.9995 4.44771 10.9995 5L10.9995 19C10.9995 19.5523 11.4472 20 11.9995 20Z" fill="#9AA1B4"/>
<path fill-rule="evenodd" clip-rule="evenodd" d="M19.7066 11.2929C19.3161 10.9024 18.6829 10.9024 18.2924 11.2929L11.9995 17.5858L5.70662 11.2929C5.31609 10.9024 4.68293 10.9024 4.2924 11.2929C3.90188 11.6834 3.90188 12.3166 4.2924 12.7071L11.2924 19.7071C11.6829 20.0976 12.3161 20.0976 12.7066 19.7071L19.7066 12.7071C20.0971 12.3166 20.0971 11.6834 19.7066 11.2929Z" fill="#9AA1B4"/>
</svg>
