<svg width="24" height="24" viewBox="0 0 24 24" fill="none" xmlns="http://www.w3.org/2000/svg">
<path fill-rule="evenodd" clip-rule="evenodd" d="M16 2C18.2091 2 20 3.79086 20 6V9.5C20 10.0523 19.5523 10.5 19 10.5C18.4477 10.5 18 10.0523 18 9.5V6C18 4.89543 17.1046 4 16 4H12V8C12 9.10457 11.1046 10 10 10H6V18C6 19.1046 6.89543 20 8 20H9C9.55229 20 10 20.4477 10 21C10 21.5523 9.55229 22 9 22H8C5.79086 22 4 20.2091 4 18V7.5C4 7.23478 4.10536 6.98043 4.29289 6.79289L8.79289 2.29289C8.98043 2.10536 9.23478 2 9.5 2H16ZM6 8H10V4H9.91421L6 7.91421V8Z" fill="#9AA1B4"/>
<path fill-rule="evenodd" clip-rule="evenodd" d="M16.5858 13C17.3668 12.219 18.6332 12.219 19.4142 13L21 14.5858C21.781 15.3668 21.781 16.6332 21 17.4142L16.7071 21.7071C16.5196 21.8946 16.2652 22 16 22H13C12.7348 22 12.4804 21.8946 12.2929 21.7071C12.1054 21.5196 12 21.2652 12 21V18C12 17.7348 12.1054 17.4804 12.2929 17.2929L16.5858 13ZM19.5858 16L18 14.4142L14 18.4142V20H15.5858L19.5858 16Z" fill="#9AA1B4"/>
</svg>
