<svg width="24" height="24" viewBox="0 0 24 24" fill="none" xmlns="http://www.w3.org/2000/svg">
<path fill-rule="evenodd" clip-rule="evenodd" d="M15.5 3C15.8978 3 16.2794 3.15804 16.5607 3.43934C16.842 3.72064 17 4.10218 17 4.5C17 4.89782 16.842 5.27936 16.5607 5.56066C16.2794 5.84196 15.8978 6 15.5 6C15.1022 6 14.7206 5.84196 14.4393 5.56066C14.158 5.27936 14 4.89782 14 4.5C14 4.10218 14.158 3.72064 14.4393 3.43934C14.7206 3.15804 15.1022 3 15.5 3Z" fill="#9AA1B4"/>
<path fill-rule="evenodd" clip-rule="evenodd" d="M15.5 10C15.8978 10 16.2794 10.158 16.5607 10.4393C16.842 10.7206 17 11.1022 17 11.5C17 11.8978 16.842 12.2794 16.5607 12.5607C16.2794 12.842 15.8978 13 15.5 13C15.1022 13 14.7206 12.842 14.4393 12.5607C14.158 12.2794 14 11.8978 14 11.5C14 11.1022 14.158 10.7206 14.4393 10.4393C14.7206 10.158 15.1022 10 15.5 10Z" fill="#9AA1B4"/>
<path fill-rule="evenodd" clip-rule="evenodd" d="M8.5 17C8.89782 17 9.27936 17.158 9.56066 17.4393C9.84196 17.7206 10 18.1022 10 18.5C10 18.8978 9.84196 19.2794 9.56066 19.5607C9.27936 19.842 8.89782 20 8.5 20C8.10218 20 7.72064 19.842 7.43934 19.5607C7.15804 19.2794 7 18.8978 7 18.5C7 18.1022 7.15804 17.7206 7.43934 17.4393C7.72064 17.158 8.10218 17 8.5 17Z" fill="#9AA1B4"/>
<path fill-rule="evenodd" clip-rule="evenodd" d="M15.5 17C15.8978 17 16.2794 17.158 16.5607 17.4393C16.842 17.7206 17 18.1022 17 18.5C17 18.8978 16.842 19.2794 16.5607 19.5607C16.2794 19.842 15.8978 20 15.5 20C15.1022 20 14.7206 19.842 14.4393 19.5607C14.158 19.2794 14 18.8978 14 18.5C14 18.1022 14.158 17.7206 14.4393 17.4393C14.7206 17.158 15.1022 17 15.5 17Z" fill="#9AA1B4"/>
<path fill-rule="evenodd" clip-rule="evenodd" d="M8.5 3C8.89782 3 9.27936 3.15804 9.56066 3.43934C9.84196 3.72064 10 4.10218 10 4.5C10 4.89782 9.84196 5.27936 9.56066 5.56066C9.27936 5.84196 8.89782 6 8.5 6C8.10218 6 7.72064 5.84196 7.43934 5.56066C7.15804 5.27936 7 4.89782 7 4.5C7 4.10218 7.15804 3.72064 7.43934 3.43934C7.72064 3.15804 8.10218 3 8.5 3Z" fill="#9AA1B4"/>
<path fill-rule="evenodd" clip-rule="evenodd" d="M8.5 10C8.89782 10 9.27936 10.158 9.56066 10.4393C9.84196 10.7206 10 11.1022 10 11.5C10 11.8978 9.84196 12.2794 9.56066 12.5607C9.27936 12.842 8.89782 13 8.5 13C8.10218 13 7.72064 12.842 7.43934 12.5607C7.15804 12.2794 7 11.8978 7 11.5C7 11.1022 7.15804 10.7206 7.43934 10.4393C7.72064 10.158 8.10218 10 8.5 10Z" fill="#9AA1B4"/>
</svg>
