<svg width="16" height="16" viewBox="0 0 16 16" fill="none" xmlns="http://www.w3.org/2000/svg">
<path fill-rule="evenodd" clip-rule="evenodd" d="M5.35407 3.25C4.84294 3.25 4.3833 3.56119 4.19347 4.03576L2.8394 7.42093C2.78034 7.56858 2.75 7.72614 2.75 7.88516V11.5C2.75 12.1904 3.30964 12.75 4 12.75H12C12.6904 12.75 13.25 12.1904 13.25 11.5V7.88516C13.25 7.72614 13.2197 7.56858 13.1606 7.42093L11.8065 4.03576C11.6167 3.56119 11.1571 3.25 10.6459 3.25H5.35407ZM2.80075 3.47868C3.21838 2.43462 4.22958 1.75 5.35407 1.75H10.6459C11.7704 1.75 12.7816 2.43462 13.1992 3.47868L14.5533 6.86384C14.6832 7.18867 14.75 7.53531 14.75 7.88516V11.5C14.75 13.0188 13.5188 14.25 12 14.25H4C2.48122 14.25 1.25 13.0188 1.25 11.5V7.88516C1.25 7.53531 1.31676 7.18867 1.44669 6.86384L2.80075 3.47868Z" fill="#9AA1B4"/>
<path fill-rule="evenodd" clip-rule="evenodd" d="M14 8.25H2V6.75H14V8.25Z" fill="#9AA1B4"/>
<path fill-rule="evenodd" clip-rule="evenodd" d="M4.25 10.5C4.25 10.0858 4.58579 9.75 5 9.75H6.5C6.91421 9.75 7.25 10.0858 7.25 10.5C7.25 10.9142 6.91421 11.25 6.5 11.25H5C4.58579 11.25 4.25 10.9142 4.25 10.5Z" fill="#9AA1B4"/>
</svg>
