<svg width="24" height="24" viewBox="0 0 24 24" fill="none" xmlns="http://www.w3.org/2000/svg">
<path d="M10.25 6C10.8023 6 11.25 6.44772 11.25 7V9.25H13.5C14.0523 9.25 14.5 9.69772 14.5 10.25C14.5 10.8023 14.0523 11.25 13.5 11.25H11.25V13.5C11.25 14.0523 10.8023 14.5 10.25 14.5C9.69772 14.5 9.25 14.0523 9.25 13.5V11.25H7C6.44772 11.25 6 10.8023 6 10.25C6 9.69771 6.44772 9.25 7 9.25H9.25V7C9.25 6.44772 9.69772 6 10.25 6Z" fill="#9AA1B4"/>
<path fill-rule="evenodd" clip-rule="evenodd" d="M6 2C3.79086 2 2 3.79086 2 6V14.5C2 16.7091 3.79086 18.5 6 18.5H14.5C16.7091 18.5 18.5 16.7091 18.5 14.5V6C18.5 3.79086 16.7091 2 14.5 2H6ZM4 6C4 4.89543 4.89543 4 6 4H14.5C15.6046 4 16.5 4.89543 16.5 6V14.5C16.5 15.6046 15.6046 16.5 14.5 16.5H6C4.89543 16.5 4 15.6046 4 14.5V6Z" fill="#9AA1B4"/>
<path d="M22 7.5C22 6.39543 21.1046 5.5 20 5.5V18C20 19.1046 19.1046 20 18 20H5.5C5.5 21.1046 6.39543 22 7.5 22H18C20.2091 22 22 20.2091 22 18V7.5Z" fill="#9AA1B4"/>
</svg>
