<?xml version="1.0" encoding="utf-8"?>
<!-- Generator: Adobe Illustrator 26.4.1, SVG Export Plug-In . SVG Version: 6.00 Build 0)  -->
<svg version="1.1" id="Layer_1" xmlns="http://www.w3.org/2000/svg" xmlns:xlink="http://www.w3.org/1999/xlink" x="0px" y="0px"
	 viewBox="0 0 32 32" style="enable-background:new 0 0 32 32;" xml:space="preserve">
<style type="text/css">
	.st0{fill:#9AA1B4;}
</style>
<g>
	<path class="st0" d="M10.3,22L10.3,22L10.3,22h0.1h6.4h0h0.1h0l7-7c0.1-0.1,0.1-0.1,0.2-0.2l0,0c0,0,0,0,0,0c0,0,0,0,0,0
		c0,0,0-0.1,0.1-0.1c0.1-0.1,0.2-0.2,0.3-0.4c0.1-0.2,0.1-0.4,0.1-0.6c0-0.2,0-0.4-0.1-0.6c-0.1-0.2-0.2-0.4-0.3-0.5l-5.3-5.3
		c-0.1-0.1-0.3-0.3-0.5-0.3c-0.2-0.1-0.4-0.1-0.6-0.1c-0.2,0-0.4,0-0.6,0.1c-0.2,0.1-0.4,0.2-0.5,0.3l-9.3,9.3
		C7.1,16.9,7,17,6.9,17.2c-0.1,0.2-0.1,0.4-0.1,0.6c0,0.2,0,0.4,0.1,0.6c0.1,0.2,0.2,0.4,0.3,0.5c0,0,0,0,0,0L10.3,22L10.3,22z
		 M22.4,13.6l-3.7,3.6L14,12.5l3.6-3.6L22.4,13.6z M11.1,20l-2.3-2.3l3.6-3.6l4.7,4.7L16.1,20H11.1z"/>
	<polygon class="st0" points="25.6,23 10.3,23 10,23 10,23.7 10,24 10,25 10.3,25 25,25 25.6,25 26,25 26,23.7 26,23 	"/>
</g>
</svg>
