<svg width="25" height="24" viewBox="0 0 25 24" fill="none" xmlns="http://www.w3.org/2000/svg">
<path d="M9.55317 5.38268C9.39839 5.00901 9.48395 4.57889 9.76994 4.29289L11.7699 2.29289C11.9575 2.10536 12.2118 2 12.4771 2C12.7423 2 12.9966 2.10536 13.1842 2.29289L15.1842 4.29289C15.4702 4.57889 15.5557 5.00901 15.4009 5.38268C15.2462 5.75636 14.8815 6 14.4771 6H13.4771V14C13.4771 14.5523 13.0293 15 12.4771 15C11.9248 15 11.4771 14.5523 11.4771 14L11.4771 6H10.4771C10.0726 6 9.70795 5.75636 9.55317 5.38268Z" fill="#9AA1B4"/>
<path d="M6.47705 19C6.47705 19.5523 6.92477 20 7.47705 20H17.477C18.0293 20 18.4771 19.5523 18.4771 19V10.1306C18.4771 9.66539 18.1563 9.26165 17.7032 9.15647L16.9176 8.9741C16.3796 8.84921 16.0447 8.31185 16.1696 7.77387C16.2945 7.23589 16.8319 6.90101 17.3698 7.0259L18.1554 7.20827C19.5148 7.52384 20.4771 8.73506 20.4771 10.1306V19C20.4771 20.6569 19.1339 22 17.4771 22H7.47705C5.8202 22 4.47705 20.6569 4.47705 19V10.1306C4.47705 8.73506 5.4393 7.52384 6.79866 7.20827L7.58425 7.0259C8.12223 6.90101 8.65959 7.23589 8.78448 7.77387C8.90937 8.31185 8.57449 8.84921 8.03651 8.9741L7.25092 9.15647C6.7978 9.26165 6.47705 9.66539 6.47705 10.1306L6.47705 19Z" fill="#9AA1B4"/>
</svg>
