<?xml version="1.0" encoding="utf-8"?>
<!-- Generator: Adobe Illustrator 22.1.0, SVG Export Plug-In . SVG Version: 6.00 Build 0)  -->
<svg version="1.1" id="Layer_1" xmlns="http://www.w3.org/2000/svg" xmlns:xlink="http://www.w3.org/1999/xlink" x="0px" y="0px"
	 viewBox="0 0 25 24" style="enable-background:new 0 0 25 24;" xml:space="preserve">
<style type="text/css">
	.st0{fill:#9AA1B4;}
</style>
<path class="st0" d="M12.1,10c-1.1,0-2,0.9-2,2c0,0.5,0.2,1,0.5,1.3l-1.5,1.3c-0.6-0.7-1-1.6-1-2.7c0-2.2,1.8-4,4-4
	c0.7,0,1.4,0.2,2,0.5l-1,1.7C12.8,10.1,12.5,10,12.1,10z"/>
<g>
	<path class="st0" d="M22.1,11.7c-0.5-1.6-1.3-3-2.3-4.1l-1.3,1.5c0.7,0.8,1.3,1.8,1.6,2.9c-1.2,3.5-4.3,6-7.9,6
		c-0.5,0-0.9,0-1.4-0.1l-1.5,1.7c0.9,0.3,1.9,0.4,2.9,0.4c4.7,0,8.6-3.3,10-7.7C22.1,12.1,22.1,11.9,22.1,11.7z"/>
	<path class="st0" d="M20.8,2.3c-0.4-0.4-1-0.3-1.4,0.1l-2.5,2.9c-1.4-0.8-3-1.2-4.7-1.2c-4.7,0-8.6,3.3-10,7.7
		c-0.1,0.2-0.1,0.4,0,0.6c0.7,2.1,1.9,4,3.6,5.4l-2.4,2.7c-0.4,0.4-0.3,1,0.1,1.4c0.4,0.4,1,0.3,1.4-0.1l16-18
		C21.2,3.3,21.2,2.6,20.8,2.3z M4.2,12c1.2-3.5,4.3-6,7.9-6c1.2,0,2.3,0.3,3.3,0.7l-8.4,9.4C5.8,15.1,4.7,13.7,4.2,12z"/>
</g>
</svg>
