<?xml version="1.0" encoding="utf-8"?>
<!-- Generator: Adobe Illustrator 22.1.0, SVG Export Plug-In . SVG Version: 6.00 Build 0)  -->
<svg version="1.1" id="Layer_1" xmlns="http://www.w3.org/2000/svg" xmlns:xlink="http://www.w3.org/1999/xlink" x="0px" y="0px"
	 viewBox="0 0 25 24" style="enable-background:new 0 0 25 24;" xml:space="preserve">
<style type="text/css">
	.st0{fill:#9AA1B4;}
</style>
<g>
	<path class="st0" d="M22.1,11.7c-0.5-1.6-1.3-3-2.3-4.1l-1.3,1.5c0.7,0.8,1.3,1.8,1.6,2.9c-1.2,3.5-4.3,6-7.9,6
		c-0.5,0-0.9,0-1.4-0.1l-1.5,1.7c0.9,0.3,1.9,0.4,2.9,0.4c4.7,0,8.6-3.3,10-7.7C22.2,12.1,22.2,12.1,22.1,11.7z"/>
	<path class="st0" d="M20.8,2.3c-0.4-0.4-1-0.3-1.4,0.1l-2.5,2.9c-1.4-0.8-3-1.2-4.7-1.2c-4.7,0-8.6,3.3-10,7.7
		c-0.1,0.2-0.1,0.4,0,0.6c0.7,2.1,1.9,4,3.6,5.4l-2.4,2.7c-0.4,0.4-0.3,1,0.1,1.4c0.4,0.4,1,0.3,1.4-0.1l16-18
		C21.2,3.3,21.2,2.6,20.8,2.3z M10.1,12c0-1.1,0.9-2,2-2c0.1,0,0.2,0,0.3,0l-2.2,2.5C10.1,12.4,10.1,12.2,10.1,12z M13.9,8.3
		c-0.6-0.3-1.2-0.4-1.8-0.4c-2.2,0-4,1.8-4,4c0,0.9,0.3,1.6,0.7,2.2l-1.8,2c-1.2-1-2.3-2.4-2.8-4.1c1.2-3.5,4.3-6,7.9-6
		c1.2,0,2.3,0.3,3.3,0.7L13.9,8.3z"/>
</g>
</svg>
