<svg width="25" height="24" viewBox="0 0 25 24" fill="none" xmlns="http://www.w3.org/2000/svg">
<path fill-rule="evenodd" clip-rule="evenodd" d="M12.104 18C8.50513 18 5.37245 15.5441 4.15557 12C5.37245 8.45595 8.50513 6 12.104 6C15.7029 6 18.8356 8.45595 20.0524 12C18.8356 15.5441 15.7029 18 12.104 18ZM12.104 4C7.42045 4 3.51458 7.27308 2.14837 11.7054C2.08921 11.8974 2.08921 12.1026 2.14837 12.2946C3.51458 16.7269 7.42045 20 12.104 20C16.7876 20 20.6934 16.7269 22.0596 12.2946C22.1188 12.1026 22.1188 11.8974 22.0596 11.7054C20.6934 7.27309 16.7876 4 12.104 4ZM10.604 12C10.604 11.1716 11.2756 10.5 12.104 10.5C12.9324 10.5 13.604 11.1716 13.604 12C13.604 12.8284 12.9324 13.5 12.104 13.5C11.2756 13.5 10.604 12.8284 10.604 12ZM12.104 8.5C10.171 8.5 8.604 10.067 8.604 12C8.604 13.933 10.171 15.5 12.104 15.5C14.037 15.5 15.604 13.933 15.604 12C15.604 10.067 14.037 8.5 12.104 8.5Z" fill="#9AA1B4"/>
</svg>
