<svg width="24" height="24" viewBox="0 0 24 24" fill="none" xmlns="http://www.w3.org/2000/svg">
<path fill-rule="evenodd" clip-rule="evenodd" d="M3 7C3 4.79086 4.79086 3 7 3H17C19.2091 3 21 4.79086 21 7V7.35907C21 7.98434 20.8046 8.59398 20.4412 9.10278L16.1863 15.0597C16.0651 15.2293 16 15.4325 16 15.6409V19.5C16 19.9589 15.6877 20.3589 15.2425 20.4701L9.24254 21.9701C8.94379 22.0448 8.6273 21.9777 8.38459 21.7882C8.14187 21.5987 8 21.3079 8 21V15.6409C8 15.4325 7.93488 15.2293 7.81373 15.0597L3.5588 9.10278C3.19537 8.59398 3 7.98434 3 7.35907V7ZM7 5C5.89543 5 5 5.89543 5 7V7.35907C5 7.56749 5.06512 7.77071 5.18627 7.94031L9.4412 13.8972C9.80463 14.406 10 15.0157 10 15.6409V19.7192L14 18.7192V15.6409C14 15.0157 14.1954 14.406 14.5588 13.8972L18.8137 7.94031C18.9349 7.77071 19 7.56749 19 7.35907V7C19 5.89543 18.1046 5 17 5H7Z" fill="#9AA1B4"/>
</svg>
