<?xml version="1.0" encoding="utf-8"?>
<!-- Generator: Adobe Illustrator 22.1.0, SVG Export Plug-In . SVG Version: 6.00 Build 0)  -->
<svg version="1.1" id="Layer_1" xmlns="http://www.w3.org/2000/svg" xmlns:xlink="http://www.w3.org/1999/xlink" x="0px" y="0px"
	 viewBox="0 0 24 24" style="enable-background:new 0 0 24 24;" xml:space="preserve">
<style type="text/css">
	.st0{fill:#9AA1B4;}
</style>
<path class="st0" d="M21.4,7.8c-0.2-0.4-0.6-0.6-1-0.5c-1.1,0.2-2.2,0-3.4-0.5c-0.8-0.3-1.5-0.7-2.3-1.1c-0.5-0.3-1-0.5-1.5-0.8
	C12,4.3,10.5,3.7,8.9,3.6c-1.1,0-2.2,0.2-3.3,0.8V3.3c0-0.6-0.4-1-1-1s-1,0.4-1,1v3v15c0,0.6,0.4,1,1,1s1-0.4,1-1v-4.6
	c2.3-1.9,4.5-2.4,6.9-3l0,0c0.2,0,0.3-0.1,0.5-0.1c2.8-0.6,5.6-1.5,8.4-4.7C21.6,8.6,21.7,8.2,21.4,7.8z M12.5,11.7
	c-0.2,0-0.4,0.1-0.6,0.1l0,0c-2,0.5-4.2,1-6.4,2.4V6.8c1.2-0.9,2.3-1.2,3.3-1.1c1.1,0,2.3,0.4,3.5,1.1c0.4,0.2,0.8,0.4,1.3,0.7
	c0.8,0.4,1.7,0.9,2.6,1.3c0.6,0.3,1.3,0.5,2,0.6C16.4,10.7,14.6,11.2,12.5,11.7z"/>
</svg>
