<svg width="24" height="24" viewBox="0 0 24 24" fill="none" xmlns="http://www.w3.org/2000/svg">
<path d="M11.11 23.0001C10.9941 23 10.879 22.9797 10.77 22.9401C10.5598 22.8631 10.3815 22.7178 10.2636 22.5274C10.1457 22.337 10.0952 22.1126 10.12 21.8901L10.89 14.8001H5.00004C4.81837 14.8004 4.64006 14.7512 4.48426 14.6577C4.32845 14.5643 4.20104 14.4302 4.11571 14.2698C4.03038 14.1094 3.99035 13.9288 3.99992 13.7474C4.0095 13.566 4.06831 13.3906 4.17004 13.2401L12.06 1.4401C12.1848 1.25544 12.3677 1.11775 12.5797 1.04891C12.7917 0.980061 13.0206 0.983999 13.23 1.0601C13.4314 1.13486 13.6034 1.27248 13.7204 1.45259C13.8375 1.63269 13.8935 1.84571 13.88 2.0601L13.11 9.2001H19C19.1817 9.19982 19.36 9.24904 19.5158 9.34247C19.6716 9.4359 19.799 9.57001 19.8844 9.73039C19.9697 9.89077 20.0097 10.0714 20.0002 10.2528C19.9906 10.4342 19.9318 10.6096 19.83 10.7601L11.94 22.5601C11.8483 22.6958 11.7247 22.8069 11.5799 22.8836C11.4352 22.9603 11.2738 23.0003 11.11 23.0001V23.0001Z" fill="#F1AE04"/>
</svg>
