<svg width="32" height="32" viewBox="0 0 32 32" fill="none" xmlns="http://www.w3.org/2000/svg">
<path fill-rule="evenodd" clip-rule="evenodd" d="M15.5054 19.9996V21.7726C15.5054 23.4986 17.5444 24.4145 18.8344 23.2675L24.4884 18.2415C25.8304 17.0485 25.8304 14.9506 24.4884 13.7576L18.8344 8.73155C17.5444 7.58555 15.5054 8.50055 15.5054 10.2266V11.9996H15.4414C10.5064 11.9996 6.50537 16.0005 6.50537 20.9355C6.50537 22.6055 8.43737 23.5345 9.74137 22.4915L11.4864 21.0956C12.3734 20.3866 13.4744 19.9996 14.6104 19.9996H15.5054ZM8.50537 20.9185C8.51437 17.0955 11.6164 13.9996 15.4414 13.9996H16.5054C17.0574 13.9996 17.5054 13.5516 17.5054 12.9996V10.2266L23.1594 15.2525C23.6074 15.6495 23.6074 16.3495 23.1594 16.7465L17.5054 21.7726V18.9996C17.5054 18.4476 17.0574 17.9996 16.5054 17.9996H14.6104C13.0204 17.9996 11.4784 18.5405 10.2374 19.5335L8.50537 20.9185Z" fill="#9AA1B4"/>
</svg>
