<?xml version="1.0" encoding="utf-8"?>
<!-- Generator: Adobe Illustrator 26.5.0, SVG Export Plug-In . SVG Version: 6.00 Build 0)  -->
<svg version="1.1" id="Layer_1" xmlns="http://www.w3.org/2000/svg" xmlns:xlink="http://www.w3.org/1999/xlink" x="0px" y="0px"
	 viewBox="0 0 32 32" style="enable-background:new 0 0 32 32;" xml:space="preserve">
<style type="text/css">
	.st0{fill-rule:evenodd;clip-rule:evenodd;fill:#9AA1B4;}
</style>
<path class="st0" d="M15.3,21.9v2.6c0,2.5,3,3.9,4.9,2.2l8.3-7.4c2-1.8,2-4.9,0-6.6l-8.3-7.4c-1.9-1.7-4.9-0.3-4.9,2.2v2.6h-0.1
	C7.9,10.1,2,16,2,23.3c0,2.5,2.8,3.8,4.8,2.3l2.6-2.1c1.3-1,2.9-1.6,4.6-1.6H15.3z M4.9,23.3c0-5.6,4.6-10.2,10.2-10.2h1.6
	c0.8,0,1.5-0.7,1.5-1.5V7.5l8.3,7.4c0.7,0.6,0.7,1.6,0,2.2l-8.3,7.4v-4.1c0-0.8-0.7-1.5-1.5-1.5H14c-2.3,0-4.6,0.8-6.4,2.3L4.9,23.3
	z"/>
</svg>
