<?xml version="1.0" encoding="utf-8"?>
<!-- Generator: Adobe Illustrator 22.1.0, SVG Export Plug-In . SVG Version: 6.00 Build 0)  -->
<svg version="1.1" id="Layer_1" xmlns="http://www.w3.org/2000/svg" xmlns:xlink="http://www.w3.org/1999/xlink" x="0px" y="0px"
	 viewBox="0 0 25 24" style="enable-background:new 0 0 25 24;" xml:space="preserve">
<style type="text/css">
	.st0{fill:#9AA1B4;}
</style>
<g>
	<path class="st0" d="M21.5,16h-1V8h1c0.6,0,1-0.4,1-1s-0.4-1-1-1h-1c-0.2-2-1.9-3.5-4-3.5h-10c-2.2,0-4,1.8-4,4v11c0,2.2,1.8,4,4,4
		h10c2,0,3.7-1.5,4-3.5h1c0.6,0,1-0.4,1-1S22,16,21.5,16z M18.5,16H18c-0.6,0-1,0.4-1,1s0.4,1,1,1h0.4c-0.2,0.9-1,1.5-1.9,1.5h-10
		c-1.1,0-2-0.9-2-2v-11c0-1.1,0.9-2,2-2h10c0.9,0,1.7,0.6,1.9,1.5H18c-0.6,0-1,0.4-1,1s0.4,1,1,1h0.5L18.5,16z"/>
	<path class="st0" d="M11.5,7c-1.1,0-2.2,0.4-3,1V7.5c0-0.6-0.4-1-1-1s-1,0.4-1,1V10c0,0.5,0.3,0.9,0.8,1l2.5,0.5
		c0.5,0.1,1.1-0.2,1.2-0.8c0.1-0.5-0.2-1.1-0.8-1.2L9.9,9.5c0.5-0.3,1-0.5,1.6-0.5c1.7,0,3,1.3,3,3s-1.3,3-3,3
		c-1.1,0-2.1-0.6-2.6-1.5C8.6,13,8,12.9,7.5,13.1C7,13.4,6.8,14,7.1,14.5C8,16,9.6,17,11.5,17c2.8,0,5-2.2,5-5S14.2,7,11.5,7z"/>
</g>
</svg>
