<?xml version="1.0" encoding="utf-8"?>
<!-- Generator: Adobe Illustrator 26.5.0, SVG Export Plug-In . SVG Version: 6.00 Build 0)  -->
<svg version="1.1" id="Layer_1" xmlns="http://www.w3.org/2000/svg" xmlns:xlink="http://www.w3.org/1999/xlink" x="0px" y="0px"
	 viewBox="0 0 24 24" style="enable-background:new 0 0 24 24;" xml:space="preserve">
<path d="M9.6,10.7c-0.9,0-1.5-0.6-1.5-1.5c0-0.9,0.6-1.5,1.5-1.5l0,0c0.9,0,1.5,0.6,1.5,1.5C11.1,10.1,10.5,10.7,9.6,10.7z"/>
<path d="M14.4,10.7c-0.9,0-1.5-0.6-1.5-1.5c0-0.9,0.6-1.5,1.5-1.5l0,0c0.9,0,1.5,0.6,1.5,1.5C16,10.1,15.2,10.7,14.4,10.7z"/>
<path d="M12,22c-0.4,0-0.9-0.1-1.3-0.3c-0.4-0.2-0.7-0.5-1-0.8c-0.1-0.1-0.2-0.2-0.3-0.2c-0.2-0.1-0.5-0.1-0.8,0
	c-0.1,0.1-0.2,0.1-0.3,0.2c-0.5,0.5-1,0.9-1.7,1C6,22,5.4,22,4.8,21.7S3.7,21,3.4,20.4C3.1,19.9,3,19.3,3,18.7v-7.8
	c0-2.4,1-4.6,2.7-6.3C7.3,2.9,9.6,2,12,2s4.7,0.9,6.3,2.6C20,6.3,21,8.5,21,10.9v7.8c0.1,0.6-0.1,1.2-0.4,1.8
	c-0.3,0.6-0.8,1-1.4,1.3C18.6,22,18,22,17.3,21.9c-0.6-0.1-1.2-0.5-1.6-0.9c-0.1-0.1-0.2-0.2-0.3-0.3c-0.2-0.1-0.5-0.1-0.8,0
	c-0.1,0.1-0.2,0.1-0.3,0.2c-0.3,0.3-0.6,0.6-1,0.8C12.9,21.9,12.4,22,12,22z M9,18.6c0.4,0,0.9,0.1,1.3,0.3c0.4,0.2,0.7,0.5,1,0.8
	c0.1,0.1,0.2,0.2,0.3,0.2c0.2,0.1,0.5,0.1,0.8,0c0.1-0.1,0.2-0.1,0.3-0.2c0.3-0.3,0.6-0.6,1-0.8c0.8-0.4,1.7-0.4,2.5,0
	c0.4,0.2,0.7,0.5,1,0.8c0.1,0.1,0.3,0.2,0.5,0.3c0.2,0,0.4,0,0.6-0.1s0.4-0.2,0.5-0.4c0.1-0.2,0.1-0.4,0.1-0.6v-0.1v-7.9
	c0-1.8-0.7-3.5-2-4.8s-3.1-2-4.9-2c-1.9,0-3.6,0.7-4.9,2s-2,3-2,4.8v7.9v0.1c0,0.2,0,0.4,0.1,0.6s0.3,0.3,0.5,0.4
	C5.8,20,6,20,6.2,19.9c0.2,0,0.4-0.2,0.6-0.3c0.2-0.3,0.6-0.6,1-0.8C8.2,18.7,8.6,18.6,9,18.6z M4,18.7L4,18.7L4,18.7z"/>
</svg>
