<?xml version="1.0" encoding="utf-8"?>
<!-- Generator: Adobe Illustrator 27.0.0, SVG Export Plug-In . SVG Version: 6.00 Build 0)  -->
<svg version="1.1" id="Layer_1" xmlns="http://www.w3.org/2000/svg" xmlns:xlink="http://www.w3.org/1999/xlink" x="0px" y="0px"
	 viewBox="0 0 24 24" style="enable-background:new 0 0 24 24;" xml:space="preserve">
<style type="text/css">
	.st0{fill:#111111;}
</style>
<g>
	<circle class="st0" cx="12" cy="9.9" r="1"/>
	<path class="st0" d="M18.6,9.9c0-3.7-3-6.7-6.7-6.7s-6.7,3-6.7,6.7s3,6.7,6.7,6.7c0.5,0,1.1-0.1,1.6-0.2l1,3.8
		c0.1,0.3,0.4,0.4,0.7,0.3l3.1-1.8c0.3-0.1,0.3-0.5,0.1-0.7l-2.6-2.6C17.5,14.1,18.6,12.1,18.6,9.9z M14.8,14.2c0,0-1-0.9-1.3-1.2
		c-0.6-0.6-0.9-0.4-0.7,0.4c0.1,0.4,0.4,1.5,0.4,1.5c-0.4,0.1-0.8,0.2-1.2,0.2c-2.9,0-5.2-2.3-5.2-5.2S9.1,4.7,12,4.7
		s5.2,2.3,5.2,5.2C17.1,11.7,16.2,13.3,14.8,14.2z"/>
	<path class="st0" d="M18.1,1.1H5.8C4.3,1.1,3,2.3,3,3.9V20c0,1.5,1.2,2.8,2.8,2.8h12.3c1.5,0,2.8-1.2,2.8-2.8V3.9
		C20.8,2.4,19.6,1.1,18.1,1.1z M19.3,19.9c0,0.7-0.6,1.2-1.2,1.2H5.8c-0.7,0-1.2-0.6-1.2-1.2v-16c0-0.7,0.6-1.2,1.2-1.2h12.3
		c0.7,0,1.2,0.6,1.2,1.2C19.3,3.9,19.3,19.9,19.3,19.9z"/>
	<circle class="st0" cx="7" cy="18.8" r="1.5"/>
</g>
</svg>
