<?xml version="1.0" encoding="utf-8"?>
<!-- Generator: Adobe Illustrator 22.1.0, SVG Export Plug-In . SVG Version: 6.00 Build 0)  -->
<svg version="1.1" id="Layer_1" xmlns="http://www.w3.org/2000/svg" xmlns:xlink="http://www.w3.org/1999/xlink" x="0px" y="0px"
	 viewBox="0 0 24 24" style="enable-background:new 0 0 24 24;" xml:space="preserve">
<style type="text/css">
	.st0{fill:#9AA1B4;}
</style>
<path class="st0" d="M13.3,17.6l1.8-1.1c1,0.3,2.2,0,3-0.8l3.6-3.6c0.4-0.4,0.4-1,0-1.4l-8-8c-0.2-0.2-0.4-0.3-0.7-0.3
	s-0.5,0.1-0.7,0.3L8.7,6.4c-0.8,0.8-1.1,1.9-0.8,3l-1.1,1.8c-0.4,0.7-0.5,1.4-0.3,2.1l-2.9,3c-0.2,0.2-0.3,0.4-0.3,0.7l0,2
	c0,1.1,0.9,2,2,2h1.9c0,0,0.1,0,0.1,0c0,0,0.1,0,0.1,0H18c0.6,0,1-0.4,1-1s-0.4-1-1-1H9.8l1.2-1.1C11.7,18.1,12.6,18,13.3,17.6z
	 M10.1,7.8L13,4.9l6.6,6.6l-2.9,2.9c-0.4,0.4-1,0.4-1.4,0l-5.2-5.2C9.7,8.8,9.7,8.2,10.1,7.8z M6.9,19H5.4l0-1.6l2.2-2.3l1.6,1.6
	L6.9,19z M8.8,13.4c-0.3-0.3-0.4-0.8-0.2-1.2l0.6-1l4.1,4.1l-1,0.6c-0.4,0.2-0.9,0.2-1.2-0.2L8.8,13.4z"/>
<path class="st0" d="M18,19H9.8l-2.3,2H18c0.6,0,1-0.4,1-1S18.6,19,18,19z"/>
</svg>
