<svg width="25" height="24" viewBox="0 0 25 24" fill="none" xmlns="http://www.w3.org/2000/svg">
<path d="M13.104 3C13.104 2.63121 12.901 2.29235 12.5759 2.11833C12.2507 1.94431 11.8562 1.96338 11.5493 2.16795L5.5493 6.16795C5.27111 6.35342 5.104 6.66565 5.104 7C5.104 7.33435 5.27111 7.64659 5.5493 7.83205L11.5493 11.8321C11.8562 12.0366 12.2507 12.0557 12.5759 11.8817C12.901 11.7077 13.104 11.3688 13.104 11V9C13.104 8.44772 12.6563 8 12.104 8C11.5517 8 11.104 8.44772 11.104 9V9.13148L7.90678 7L11.104 4.86852V5C11.104 5.55229 11.5517 6 12.104 6C15.6305 6 18.5479 8.60771 19.0331 12H17.604C17.0517 12 16.604 12.4477 16.604 13C16.604 13.5523 17.0517 14 17.604 14H19.0331C18.5946 17.0657 16.1697 19.4906 13.104 19.9291V18.5C13.104 17.9477 12.6563 17.5 12.104 17.5C11.5517 17.5 11.104 17.9477 11.104 18.5V19.9291C8.03831 19.4906 5.61341 17.0657 5.17489 14H6.604C7.15629 14 7.604 13.5523 7.604 13C7.604 12.4477 7.15629 12 6.604 12H5.16968C5.20953 11.6991 5.26712 11.4041 5.34128 11.1159C5.47894 10.5811 5.15695 10.0359 4.6221 9.89823C4.08725 9.76057 3.54207 10.0826 3.4044 10.6174C3.20812 11.38 3.104 12.1786 3.104 13C3.104 17.9706 7.13344 22 12.104 22C17.0746 22 21.104 17.9706 21.104 13C21.104 8.36745 17.604 4.55237 13.104 4.05493V3Z" fill="#9AA1B4"/>
</svg>
