<svg width="25" height="24" viewBox="0 0 25 24" fill="none" xmlns="http://www.w3.org/2000/svg">
<path d="M13.4771 3C13.4771 2.44772 13.0293 2 12.4771 2C11.9248 2 11.4771 2.44772 11.4771 3L11.4771 11H10.4771C10.0726 11 9.70795 11.2436 9.55317 11.6173C9.39839 11.991 9.48395 12.4211 9.76994 12.7071L11.7699 14.7071C11.9575 14.8946 12.2118 15 12.4771 15C12.7423 15 12.9966 14.8946 13.1842 14.7071L15.1842 12.7071C15.4702 12.4211 15.5557 11.991 15.4009 11.6173C15.2461 11.2436 14.8815 11 14.4771 11H13.4771V3Z" fill="#9AA1B4"/>
<path d="M18.4771 19C18.4771 19.5523 18.0293 20 17.4771 20H7.47705C6.92477 20 6.47705 19.5523 6.47705 19L6.47705 10.1306C6.47705 9.66539 6.7978 9.26165 7.25092 9.15647L8.03651 8.9741C8.57449 8.84921 8.90937 8.31185 8.78448 7.77387C8.65959 7.23589 8.12223 6.90101 7.58426 7.0259L6.79866 7.20827C5.4393 7.52384 4.47705 8.73506 4.47705 10.1306V19C4.47705 20.6569 5.8202 22 7.47705 22H17.4771C19.1339 22 20.4771 20.6569 20.4771 19V10.1306C20.4771 8.73506 19.5148 7.52384 18.1554 7.20827L17.3698 7.0259C16.8319 6.90101 16.2945 7.23589 16.1696 7.77387C16.0447 8.31185 16.3796 8.84921 16.9176 8.9741L17.7032 9.15647C18.1563 9.26165 18.4771 9.66539 18.4771 10.1306V19Z" fill="#9AA1B4"/>
</svg>
