<?xml version="1.0" encoding="utf-8"?>
<!-- Generator: Adobe Illustrator 27.0.0, SVG Export Plug-In . SVG Version: 6.00 Build 0)  -->
<svg version="1.1" id="Layer_1" xmlns="http://www.w3.org/2000/svg" xmlns:xlink="http://www.w3.org/1999/xlink" x="0px" y="0px"
	 viewBox="0 0 24 24" style="enable-background:new 0 0 24 24;" xml:space="preserve">
<style type="text/css">
	.st0{fill:#394C66;}
</style>
<path class="st0" d="M17.2,7c-1.7-0.1-3.2,0.6-4.1,1.7l-3.7,4.5c-0.7,0.8-1.9,1.3-3.1,1C5.7,14,5.3,13.8,5,13.5
	c-0.3-0.3-0.6-0.7-0.7-1.2c-0.1-0.4-0.1-0.8,0-1.2c0.1-0.4,0.3-0.7,0.5-1.1c0.3-0.3,0.6-0.6,1-0.7C6.2,9.1,6.6,9,7,9
	c0.9,0,1.5,0.3,2,0.7c0.5,0.4,1.2,0.3,1.6-0.1c0.3-0.4,0.3-1-0.1-1.3C8.2,6.3,3.9,6.8,2.6,9.4c-1.8,3.5,0.9,6.9,4.5,6.9
	c1.6,0,3-0.6,3.9-1.7l0.3-0.4l3.4-4.2c0.6-0.8,1.7-1.2,2.9-1c1,0.2,1.9,0.9,2.2,1.9c0.5,1.7-0.9,3.3-2.8,3.3c-0.9,0-1.5-0.4-2-0.6
	c-0.4-0.2-1.1-0.4-1.5,0c-0.3,0.4-0.3,1,0.1,1.4c0.7,0.5,1.8,1.2,3.4,1.2c3,0,5.4-2.4,5-5.3C21.6,8.8,19.6,7.1,17.2,7z"/>
</svg>
