<svg width="24" height="24" viewBox="0 0 24 24" fill="none" xmlns="http://www.w3.org/2000/svg">
<path d="M14.5 17C14.5 17.5523 14.0523 18 13.5 18H10.5C9.94772 18 9.5 17.5523 9.5 17C9.5 16.4477 9.94772 16 10.5 16H11V11.5C10.4477 11.5 10 11.0523 10 10.5C10 9.94772 10.4477 9.5 11 9.5H12C12.5523 9.5 13 9.94772 13 10.5V16H13.5C14.0523 16 14.5 16.4477 14.5 17Z" fill="#9AA1B4"/>
<path d="M11.75 6C12.4404 6 13 6.55964 13 7.25C13 7.94036 12.4404 8.5 11.75 8.5C11.0596 8.5 10.5 7.94036 10.5 7.25C10.5 6.55964 11.0596 6 11.75 6Z" fill="#9AA1B4"/>
<path fill-rule="evenodd" clip-rule="evenodd" d="M2 12C2 6.47715 6.47715 2 12 2C17.5228 2 22 6.47715 22 12C22 17.5228 17.5228 22 12 22C6.47715 22 2 17.5228 2 12ZM12 4C7.58172 4 4 7.58172 4 12C4 16.4183 7.58172 20 12 20C16.4183 20 20 16.4183 20 12C20 7.58172 16.4183 4 12 4Z" fill="#9AA1B4"/>
</svg>
