<?xml version="1.0" encoding="utf-8"?>
<!-- Generator: Adobe Illustrator 22.1.0, SVG Export Plug-In . SVG Version: 6.00 Build 0)  -->
<svg version="1.1" id="Layer_1" xmlns="http://www.w3.org/2000/svg" xmlns:xlink="http://www.w3.org/1999/xlink" x="0px" y="0px"
	 viewBox="0 0 25 24" style="enable-background:new 0 0 25 24;" xml:space="preserve">
<style type="text/css">
	.st0{fill:#9AA1B4;}
</style>
<g>
	<path class="st0" d="M19.7,6.1l-2,1.2c-0.3-1.9-2-3.3-3.9-3.3h-7c-2.2,0-4,1.8-4,4v3c0,0.6,0.4,1,1,1s1-0.4,1-1V8c0-1.1,0.9-2,2-2
		h7c1.1,0,2,0.9,2,2v8c0,1.1-0.9,2-2,2h-0.5c-0.6,0-1,0.4-1,1s0.4,1,1,1h0.5c2,0,3.6-1.4,3.9-3.3l2,1.2c1.3,0.8,3-0.2,3-1.7V7.8
		C22.7,6.2,21,5.3,19.7,6.1z M20.7,16.2l-3-1.8V9.6l3-1.8V16.2z"/>
	<path class="st0" d="M9.1,17.8c0.4-0.5,0.6-1.1,0.6-1.8c0-1.7-1.3-3-3-3s-3,1.3-3,3c0,0.7,0.2,1.3,0.6,1.8c-1,0.7-1.6,1.9-1.6,3.2
		c0,0.6,0.4,1,1,1s1-0.4,1-1c0-1.1,0.9-2,2-2s2,0.9,2,2c0,0.6,0.4,1,1,1s1-0.4,1-1C10.7,19.7,10.1,18.5,9.1,17.8z M6.7,17
		c-0.6,0-1-0.4-1-1s0.4-1,1-1s1,0.4,1,1S7.3,17,6.7,17z"/>
</g>
</svg>
