<svg width="24" height="24" viewBox="0 0 24 24" fill="none" xmlns="http://www.w3.org/2000/svg">
<path d="M13.5214 2.25021H17.5C18.1904 2.25021 18.75 2.80985 18.75 3.50021C18.75 4.19057 18.1904 4.75021 17.5 4.75021H14.5487L11.9899 19.2502H14.5C15.1904 19.2502 15.75 19.8099 15.75 20.5002C15.75 21.1906 15.1904 21.7502 14.5 21.7502H10.5243C10.5091 21.7505 10.4939 21.7505 10.4786 21.7502H6.5C5.80964 21.7502 5.25 21.1906 5.25 20.5002C5.25 19.8099 5.80964 19.2502 6.5 19.2502H9.45127L12.0101 4.75021H9.5C8.80964 4.75021 8.25 4.19057 8.25 3.50021C8.25 2.80985 8.80964 2.25021 9.5 2.25021H13.4757C13.4909 2.24993 13.5061 2.24993 13.5214 2.25021Z" fill="#9AA1B4"/>
</svg>
