<svg width="25" height="24" viewBox="0 0 25 24" fill="none" xmlns="http://www.w3.org/2000/svg">
<path fill-rule="evenodd" clip-rule="evenodd" d="M2.47705 8C2.47705 6.34315 3.8202 5 5.47705 5H15.8903C17.1333 5 18.3056 5.57781 19.0627 6.56357L22.3023 10.7818C22.8541 11.5002 22.8541 12.4998 22.3023 13.2182L19.0627 17.4364C18.3056 18.4222 17.1333 19 15.8903 19H5.47705C3.82019 19 2.47705 17.6569 2.47705 16V8ZM5.47705 7C4.92477 7 4.47705 7.44772 4.47705 8V16C4.47705 16.5523 4.92477 17 5.47705 17H15.8903C16.5118 17 17.098 16.7111 17.4765 16.2182L20.7162 12L17.4765 7.78179C17.0979 7.2889 16.5118 7 15.8903 7H5.47705Z" fill="#9AA1B4"/>
</svg>
