<svg width="24" height="24" viewBox="0 0 24 24" fill="none" xmlns="http://www.w3.org/2000/svg">
<path d="M2.6089 11.5775C2.20297 11.9844 2 12.4617 2 13.0094C2 13.5571 2.20297 14.0188 2.6089 14.3944L9.58782 21.4366C9.99376 21.8122 10.4699 22 11.0164 22C11.5628 22 12.0234 21.8122 12.3981 21.4366L21.3911 12.4225C21.797 12.0156 22 11.5462 22 11.0141V3.97183C22 3.43975 21.8048 2.97809 21.4145 2.58685C21.0242 2.19562 20.548 2 19.9859 2H13.007C12.445 2 11.9766 2.18779 11.6019 2.56338L2.6089 11.5775ZM18.5105 6.97653C18.089 6.97653 17.7299 6.83568 17.4333 6.55399C17.1366 6.2723 16.9883 5.92019 16.9883 5.49765C16.9883 5.07512 17.1366 4.71518 17.4333 4.41784C17.7299 4.1205 18.089 3.97183 18.5105 3.97183C18.9321 3.97183 19.2834 4.1205 19.5644 4.41784C19.8454 4.71518 19.9859 5.07512 19.9859 5.49765C19.9859 5.92019 19.8454 6.2723 19.5644 6.55399C19.2834 6.83568 18.9321 6.97653 18.5105 6.97653Z" fill="#9AA1B4"/>
</svg>
