<?xml version="1.0" encoding="utf-8"?>
<!-- Generator: Adobe Illustrator 22.1.0, SVG Export Plug-In . SVG Version: 6.00 Build 0)  -->
<svg version="1.1" id="Layer_1" xmlns="http://www.w3.org/2000/svg" xmlns:xlink="http://www.w3.org/1999/xlink" x="0px" y="0px"
	 viewBox="0 0 24 24" style="enable-background:new 0 0 24 24;" xml:space="preserve">
<style type="text/css">
	.st0{fill:#9AA1B4;}
</style>
<path class="st0" d="M18,2H6C3.8,2,2,3.8,2,6v12c0,2.2,1.8,4,4,4h12c2.2,0,4-1.8,4-4V6C22,3.8,20.2,2,18,2z M7,20H6
	c-1.1,0-2-0.9-2-2V6c0-1.1,0.9-2,2-2h1V20z M20,18c0,1.1-0.9,2-2,2H9V9h11V18z M20,7H9V4h9c1.1,0,2,0.9,2,2V7z"/>
</svg>
