<?xml version="1.0" encoding="utf-8"?>
<!-- Generator: Adobe Illustrator 27.0.0, SVG Export Plug-In . SVG Version: 6.00 Build 0)  -->
<svg version="1.1" id="Layer_1" xmlns="http://www.w3.org/2000/svg" xmlns:xlink="http://www.w3.org/1999/xlink" x="0px" y="0px"
	 viewBox="0 0 24 24" style="enable-background:new 0 0 24 24;" xml:space="preserve">
<style type="text/css">
	.st0{fill-rule:evenodd;clip-rule:evenodd;fill:#9AA1B4;}
</style>
<g>
	<path class="st0" d="M5,7c1.1,0,2.1-1,2.1-2.1c0-1.1-0.9-2.1-2.1-2.1c-1.1,0-2.1,1-2.1,2.1C2.9,6,3.9,7,5,7z M5,3.7
		c0.6,0,1.2,0.6,1.2,1.2c0,0.6-0.6,1.2-1.2,1.2c-0.6,0-1.2-0.5-1.2-1.2S4.4,3.7,5,3.7z"/>
	<path class="st0" d="M8.8,10.5v-0.2c0-0.9-0.5-1.6-1.2-2.1C6.9,7.7,6,7.4,5,7.4S3.2,7.7,2.4,8.2s-1.2,1.2-1.2,2.1v0.2
		c0,0.5,0.4,0.9,0.9,0.9h5.9C8.4,11.3,8.8,11,8.8,10.5z M2.1,10.1c0-0.5,0.2-1,0.9-1.3c0.5-0.4,1.2-0.6,2.2-0.6
		c0.9,0,1.6,0.2,2.2,0.6c0.5,0.4,0.9,0.9,0.9,1.3v0.2H2.1V10.1z"/>
	<path class="st0" d="M12.1,10.6c1.3,0,2.4-1.1,2.4-2.4c0-1.3-1-2.4-2.4-2.4c-1.3,0-2.4,1.1-2.4,2.4C9.7,9.4,10.8,10.6,12.1,10.6z
		 M12.1,6.7c0.9,0,1.4,0.7,1.4,1.4s-0.7,1.4-1.4,1.4c-0.7,0-1.4-0.6-1.4-1.4C10.7,7.3,11.4,6.7,12.1,6.7z"/>
	<path class="st0" d="M7.7,14.7c0,0.6,0.4,1,1,1h6.9c0.6,0,1-0.4,1-1v-0.4c0-1-0.6-1.9-1.4-2.4c-0.7-0.4-1.9-0.7-3-0.7
		s-2.3,0.3-3,0.9c-0.9,0.6-1.4,1.4-1.4,2.4V14.7z M8.7,14.3c0-0.6,0.3-1.1,1-1.6c0.6-0.4,1.4-0.7,2.6-0.7c1,0,1.9,0.3,2.6,0.7
		c0.4,0.4,0.7,1,0.7,1.6v0.3H8.7V14.3z"/>
	<path class="st0" d="M19,6.9c1.1,0,2.1-1,2.1-2.1c0-1.1-0.9-2.1-2.1-2.1c-1.1,0-2.1,1-2.1,2.1C16.9,6,17.9,6.9,19,6.9z M19,3.7
		c0.7,0,1.2,0.6,1.2,1.2c0,0.6-0.6,1.2-1.2,1.2c-0.6,0.1-1.2-0.5-1.2-1.2C17.8,4.1,18.4,3.7,19,3.7z"/>
	<path class="st0" d="M16.7,18.5H7.4c-0.2,0-0.4,0.2-0.4,0.4v2c0,0.2,0.2,0.4,0.4,0.4h9.3c0.2,0,0.4-0.2,0.4-0.4v-2
		C17,18.6,16.9,18.5,16.7,18.5z M14,20.6c-0.4,0-0.7-0.3-0.7-0.7c0-0.4,0.3-0.7,0.7-0.7c0.4,0,0.7,0.3,0.7,0.7
		C14.7,20.2,14.3,20.6,14,20.6z M15.8,20.6c-0.4,0-0.7-0.3-0.7-0.7c0-0.4,0.3-0.7,0.7-0.7c0.4,0,0.7,0.3,0.7,0.7
		C16.5,20.2,16.1,20.6,15.8,20.6z"/>
	<path class="st0" d="M21.6,8C21,7.6,20,7.4,19,7.4s-2,0.2-2.6,0.7c-0.7,0.5-1.2,1.2-1.2,2.1v0.2c0,0.5,0.4,0.8,0.9,0.8h5.9
		c0.5,0,0.9-0.4,0.9-0.8v-0.4C22.8,9.2,22.3,8.5,21.6,8z M21.9,10.3h-5.9v-0.2c0-0.5,0.2-1,0.9-1.3c0.5-0.4,1.2-0.6,2.2-0.6
		c0.9,0,1.6,0.2,2.2,0.6c0.4,0.4,0.6,0.8,0.6,1.3V10.3z"/>
	<path class="st0" d="M11.7,16.6l-1.2,0.8c-0.2,0.1-0.1,0.4,0.1,0.4H13c0.2,0,0.3-0.3,0.1-0.4l-1.2-0.8
		C11.9,16.6,11.8,16.6,11.7,16.6z"/>
	<path class="st0" d="M20.3,12c-0.1-0.1-0.2-0.1-0.2,0l-1.5,1.3c-0.1,0.1,0,0.3,0.1,0.3h1.1v6.8h-1.6c-0.2,0-0.3,0.1-0.3,0.3v0.1
		c0,0.2,0.1,0.3,0.3,0.3h1.9c0.1,0,0.2,0,0.2-0.1c0.1-0.1,0.1-0.1,0.1-0.3v-7.2h1.1c0.2,0,0.2-0.2,0.1-0.3L20.3,12z"/>
	<path class="st0" d="M5.7,20.4H4.1v-6.8h1.1c0.2,0,0.2-0.2,0.1-0.3L3.9,12c-0.1-0.1-0.2-0.1-0.2,0l-1.5,1.3c-0.1,0.1,0,0.3,0.1,0.3
		h1.1v7.2c0,0.1,0.1,0.2,0.1,0.3c0.1,0.1,0.1,0.1,0.2,0.1h1.9C5.9,21.1,6,21,6,20.8v-0.1C6,20.5,5.9,20.4,5.7,20.4z"/>
</g>
</svg>
