<svg width="25" height="24" viewBox="0 0 25 24" fill="none" xmlns="http://www.w3.org/2000/svg">
<path d="M3.604 8.5C4.43243 8.5 5.104 7.82843 5.104 7C5.104 6.17157 4.43243 5.5 3.604 5.5C2.77558 5.5 2.104 6.17157 2.104 7C2.104 7.82843 2.77558 8.5 3.604 8.5Z" fill="#9AA1B4"/>
<path d="M21.104 8C21.6563 8 22.104 7.55228 22.104 7C22.104 6.44772 21.6563 6 21.104 6L9.104 6C8.55172 6 8.104 6.44771 8.104 7C8.104 7.55228 8.55172 8 9.104 8L21.104 8Z" fill="#9AA1B4"/>
<path d="M21.104 13C21.6563 13 22.104 12.5523 22.104 12C22.104 11.4477 21.6563 11 21.104 11L9.104 11C8.55172 11 8.104 11.4477 8.104 12C8.104 12.5523 8.55172 13 9.104 13L21.104 13Z" fill="#9AA1B4"/>
<path d="M22.104 17C22.104 17.5523 21.6563 18 21.104 18L9.104 18C8.55172 18 8.104 17.5523 8.104 17C8.104 16.4477 8.55172 16 9.104 16L21.104 16C21.6563 16 22.104 16.4477 22.104 17Z" fill="#9AA1B4"/>
<path d="M3.604 18.5C4.43243 18.5 5.104 17.8284 5.104 17C5.104 16.1716 4.43243 15.5 3.604 15.5C2.77558 15.5 2.104 16.1716 2.104 17C2.104 17.8284 2.77558 18.5 3.604 18.5Z" fill="#9AA1B4"/>
<path d="M5.104 12C5.104 12.8284 4.43243 13.5 3.604 13.5C2.77558 13.5 2.104 12.8284 2.104 12C2.104 11.1716 2.77558 10.5 3.604 10.5C4.43243 10.5 5.104 11.1716 5.104 12Z" fill="#9AA1B4"/>
</svg>
