<svg width="24" height="24" viewBox="0 0 24 24" fill="none" xmlns="http://www.w3.org/2000/svg">
<path fill-rule="evenodd" clip-rule="evenodd" d="M12 4C9.28399 4 7 6.32635 7 9.3C7 11.3241 7.88812 14.0839 9.08309 16.3751C9.67494 17.5099 10.3141 18.475 10.9057 19.1401C11.202 19.4732 11.464 19.7057 11.6791 19.8481C11.8901 19.9878 11.992 19.9991 11.9997 19.9999C12.0002 20 12.0003 20 12 20C11.9997 20 11.9998 20 12.0003 19.9999C12.008 19.9991 12.1099 19.9878 12.3209 19.8481C12.536 19.7057 12.798 19.4732 13.0943 19.1401C13.6859 18.475 14.3251 17.5099 14.9169 16.3751C16.1119 14.0839 17 11.3241 17 9.3C17 6.32635 14.716 4 12 4ZM5 9.3C5 5.31486 8.08859 2 12 2C15.9114 2 19 5.31486 19 9.3C19 11.7759 17.9596 14.8661 16.6902 17.2999C16.0499 18.5276 15.3231 19.6437 14.5887 20.4693C14.2221 20.8815 13.8312 21.2467 13.4252 21.5156C13.0287 21.7782 12.5404 22 12 22C11.4596 22 10.9713 21.7782 10.5748 21.5156C10.1688 21.2467 9.77792 20.8815 9.41129 20.4693C8.67694 19.6437 7.95006 18.5276 7.30977 17.2999C6.04045 14.8661 5 11.7759 5 9.3Z" fill="#9AA1B4"/>
<path fill-rule="evenodd" clip-rule="evenodd" d="M12 8C11.4477 8 11 8.44772 11 9C11 9.55228 11.4477 10 12 10C12.5523 10 13 9.55228 13 9C13 8.44772 12.5523 8 12 8ZM9 9C9 7.34315 10.3431 6 12 6C13.6569 6 15 7.34315 15 9C15 10.6569 13.6569 12 12 12C10.3431 12 9 10.6569 9 9Z" fill="#9AA1B4"/>
</svg>
