<?xml version="1.0" encoding="utf-8"?>
<!-- Generator: Adobe Illustrator 22.1.0, SVG Export Plug-In . SVG Version: 6.00 Build 0)  -->
<svg version="1.1" id="Layer_1" xmlns="http://www.w3.org/2000/svg" xmlns:xlink="http://www.w3.org/1999/xlink" x="0px" y="0px"
	 viewBox="0 0 24 24" style="enable-background:new 0 0 24 24;" xml:space="preserve">
<style type="text/css">
	.st0{fill:#9AA1B4;}
</style>
<g>
	<path class="st0" d="M17,8.1V7c0-2.8-2.2-5-5-5S7,4.2,7,7v1.1c-1.7,0.4-3,2-3,3.9v6c0,2.2,1.8,4,4,4h8c2.2,0,4-1.8,4-4v-6
		C20,10.1,18.7,8.6,17,8.1z M9,7c0-1.7,1.3-3,3-3s3,1.3,3,3v1H9V7z M18,18c0,1.1-0.9,2-2,2H8c-1.1,0-2-0.9-2-2v-6c0-1.1,0.9-2,2-2h8
		c1.1,0,2,0.9,2,2V18z"/>
	<path class="st0" d="M12,13c-0.6,0-1,0.4-1,1v2c0,0.6,0.4,1,1,1s1-0.4,1-1v-2C13,13.4,12.6,13,12,13z"/>
</g>
</svg>
