<svg width="24" height="24" viewBox="0 0 24 24" fill="none" xmlns="http://www.w3.org/2000/svg">
<path d="M2 7.5C2 5.29086 3.79086 3.5 6 3.5H18C20.2091 3.5 22 5.29086 22 7.5V16.5C22 18.7091 20.2091 20.5 18 20.5H12C11.4477 20.5 11 20.0523 11 19.5C11 18.9477 11.4477 18.5 12 18.5H18C19.1046 18.5 20 17.6046 20 16.5V7.5C20 6.39543 19.1046 5.5 18 5.5H6C4.89543 5.5 4 6.39543 4 7.5V12C4 12.5523 3.55228 13 3 13C2.44772 13 2 12.5523 2 12V7.5Z" fill="#9AA1B4"/>
<path d="M5.69126 7.91183C6.0161 7.46518 6.64152 7.36643 7.08817 7.69126L11.4118 10.8357C11.7625 11.0908 12.2375 11.0908 12.5882 10.8357L16.9118 7.69126C17.3585 7.36643 17.9839 7.46518 18.3087 7.91183C18.6336 8.35848 18.5348 8.9839 18.0882 9.30874L13.7645 12.4532C12.7126 13.2183 11.2874 13.2183 10.2355 12.4532L5.91183 9.30874C5.46518 8.9839 5.36643 8.35848 5.69126 7.91183Z" fill="#9AA1B4"/>
<path d="M3 15C2.44772 15 2 15.4477 2 16C2 16.5523 2.44772 17 3 17H8C8.55228 17 9 16.5523 9 16C9 15.4477 8.55228 15 8 15H3Z" fill="#9AA1B4"/>
<path d="M5.5 18.5C4.94772 18.5 4.5 18.9477 4.5 19.5C4.5 20.0523 4.94772 20.5 5.5 20.5H8C8.55228 20.5 9 20.0523 9 19.5C9 18.9477 8.55228 18.5 8 18.5H5.5Z" fill="#9AA1B4"/>
</svg>
