<svg width="24" height="24" viewBox="0 0 24 24" fill="none" xmlns="http://www.w3.org/2000/svg">
<path d="M4 7.5C4 6.39543 4.89543 5.5 6 5.5H18C19.1046 5.5 20 6.39543 20 7.5V12C20 12.5523 20.4477 13 21 13C21.5523 13 22 12.5523 22 12V7.5C22 5.29086 20.2091 3.5 18 3.5H6C3.79086 3.5 2 5.29086 2 7.5V16.5C2 18.7091 3.79086 20.5 6 20.5H12.5C13.0523 20.5 13.5 20.0523 13.5 19.5C13.5 18.9477 13.0523 18.5 12.5 18.5H6C4.89543 18.5 4 17.6046 4 16.5V7.5Z" fill="#9AA1B4"/>
<path d="M7.08817 7.69126C6.64152 7.36643 6.0161 7.46518 5.69126 7.91183C5.36643 8.35848 5.46518 8.9839 5.91183 9.30874L10.2355 12.4532C11.2874 13.2183 12.7126 13.2183 13.7645 12.4532L18.0882 9.30874C18.5348 8.9839 18.6336 8.35848 18.3087 7.91183C17.9839 7.46518 17.3585 7.36643 16.9118 7.69126L12.5882 10.8357C12.2375 11.0908 11.7625 11.0908 11.4118 10.8357L7.08817 7.69126Z" fill="#9AA1B4"/>
<path d="M18.5 14C19.0523 14 19.5 14.4477 19.5 15V16.5H21C21.5523 16.5 22 16.9477 22 17.5C22 18.0523 21.5523 18.5 21 18.5H19.5V20C19.5 20.5523 19.0523 21 18.5 21C17.9477 21 17.5 20.5523 17.5 20V18.5H16C15.4477 18.5 15 18.0523 15 17.5C15 16.9477 15.4477 16.5 16 16.5H17.5V15C17.5 14.4477 17.9477 14 18.5 14Z" fill="#9AA1B4"/>
</svg>
