<?xml version="1.0" encoding="utf-8"?>
<!-- Generator: Adobe Illustrator 22.1.0, SVG Export Plug-In . SVG Version: 6.00 Build 0)  -->
<svg version="1.1" id="Layer_1" xmlns="http://www.w3.org/2000/svg" xmlns:xlink="http://www.w3.org/1999/xlink" x="0px" y="0px"
	 viewBox="0 0 24 24" style="enable-background:new 0 0 24 24;" xml:space="preserve">
<style type="text/css">
	.st0{fill:#9AA1B4;}
</style>
<g>
	<path class="st0" d="M19,7V6c0-1.7-1.3-3-3-3H5C3.3,3,2,4.3,2,6v8c0,1.7,1.3,3,3,3v1c0,1.7,1.3,3,3,3h11c1.7,0,3-1.3,3-3v-8
		C22,8.3,20.7,7,19,7z M5,15c-0.6,0-1-0.4-1-1V6c0-0.6,0.4-1,1-1h11c0.6,0,1,0.4,1,1v8c0,0.6-0.4,1-1,1H5z M20,18c0,0.6-0.4,1-1,1H8
		c-0.6,0-1-0.4-1-1v-1h9c1.7,0,3-1.3,3-3V9c0.6,0,1,0.4,1,1V18z"/>
	<path class="st0" d="M14.4,6.2l-3.4,2.3c-0.3,0.2-0.8,0.2-1.1,0L6.6,6.2C6.1,5.9,5.5,6,5.2,6.4C4.9,6.9,5,7.5,5.4,7.8l3.4,2.3
		c1,0.7,2.3,0.7,3.3,0l3.4-2.3c0.5-0.3,0.6-0.9,0.3-1.4C15.5,6,14.9,5.9,14.4,6.2z"/>
</g>
</svg>
