<?xml version="1.0" encoding="utf-8"?>
<!-- Generator: Adobe Illustrator 27.0.0, SVG Export Plug-In . SVG Version: 6.00 Build 0)  -->
<svg version="1.1" id="Layer_1" xmlns="http://www.w3.org/2000/svg" xmlns:xlink="http://www.w3.org/1999/xlink" x="0px" y="0px"
	 viewBox="0 0 24 24" style="enable-background:new 0 0 24 24;" xml:space="preserve">
<g>
	<g>
		<path d="M16.4,8.8h0.7c0.6,0,1.1,0.3,1.1,0.8V12c0,0.4-0.5,0.8-1.1,0.8h-0.7c-0.6,0-1.1-0.3-1.1-0.8V9.5
			C15.3,9.1,15.8,8.8,16.4,8.8z"/>
		<path d="M11.5,8.8h0.7c0.6,0,1.1,0.3,1.1,0.8V12c0,0.4-0.5,0.8-1.1,0.8h-0.7c-0.6,0-1.1-0.3-1.1-0.8V9.5
			C10.4,9.1,10.9,8.8,11.5,8.8z"/>
		<path d="M6.6,8.8h0.7c0.6,0,1.1,0.3,1.1,0.8V12c0,0.4-0.5,0.8-1.1,0.8H6.6c-0.6,0-1.1-0.3-1.1-0.8V9.5C5.6,9.1,6,8.8,6.6,8.8z"/>
	</g>
	<path d="M20.9,18.2h-5.1c-0.8,0-1.3-0.6-1.3-1.3v-0.5h-0.7v0.5c0,0.8-0.6,1.3-1.4,1.3H2.9c-0.9,0-1.6-0.7-1.6-1.7V13
		c0-0.7,0.5-1.3,1.2-1.3V9.9C1.8,9.9,1.2,9.3,1.2,8.6V7.3c0-0.9,0.7-1.6,1.6-1.6h18.2c0.9,0,1.7,0.7,1.7,1.6v1.3
		c0,0.8-0.6,1.4-1.3,1.4c0,0,0,0-0.1,0v1.7c0.7,0.1,1.2,0.6,1.2,1.3v3.6C22.5,17.5,21.8,18.2,20.9,18.2z M16,16.8h5
		c0.1,0,0.1-0.1,0.1-0.2v-3.5c-0.7-0.1-1.2-0.6-1.2-1.3l0-2.2c0.2-0.6,0.8-1,1.4-1.1V7.3c0-0.1-0.1-0.1-0.2-0.1H2.9
		c-0.1,0-0.1,0.1-0.1,0.1v1.2C3.4,8.5,4,9.1,4,9.8v2c0,0.7-0.5,1.3-1.2,1.3v3.5c0,0.1,0.1,0.2,0.1,0.2h9.4v-0.5
		c0-0.8,0.6-1.3,1.3-1.3h1c0.8,0,1.4,0.6,1.4,1.3V16.8z M21.4,8.5v0.8V8.5L21.4,8.5z"/>
</g>
</svg>
