<?xml version="1.0" encoding="utf-8"?>
<!-- Generator: Adobe Illustrator 26.1.0, SVG Export Plug-In . SVG Version: 6.00 Build 0)  -->
<svg version="1.1" id="Layer_1" xmlns="http://www.w3.org/2000/svg" xmlns:xlink="http://www.w3.org/1999/xlink" x="0px" y="0px"
	 viewBox="0 0 24 24" style="enable-background:new 0 0 24 24;" xml:space="preserve">
<style type="text/css">
	.st0{fill-rule:evenodd;clip-rule:evenodd;fill:#9AA1B4;}
</style>
<g>
	<path class="st0" d="M21,3H3C2.4,3,2,3.4,2,4v16c0,0.6,0.4,1,1,1h18c0.6,0,1-0.4,1-1V4C22,3.4,21.6,3,21,3z M20,19H4V9h16V19z
		 M20,7H4V5h16V7z"/>
	<path class="st0" d="M8.7,17.1c0.3,0.4,1,0.5,1.4,0.2c0.4-0.3,0.5-1,0.2-1.4L9.6,15h4.8l-0.7,0.9c-0.3,0.4-0.3,1.1,0.2,1.4
		c0.4,0.3,1.1,0.3,1.4-0.2l2-2.5c0.3-0.4,0.3-0.9,0-1.2l-2-2.5c-0.3-0.4-1-0.5-1.4-0.2c-0.4,0.3-0.5,1-0.2,1.4l0.7,0.9H9.6l0.7-0.9
		c0.3-0.4,0.3-1.1-0.2-1.4c-0.4-0.3-1.1-0.3-1.4,0.2l-2,2.5c-0.3,0.4-0.3,0.9,0,1.2L8.7,17.1z"/>
</g>
</svg>
