<svg width="24" height="24" viewBox="0 0 24 24" fill="none" xmlns="http://www.w3.org/2000/svg">
<path d="M10.2071 6.20711C9.81658 6.59763 9.18342 6.59763 8.79289 6.20711C8.40237 5.81658 8.40237 5.18342 8.79289 4.79289L11.2929 2.29289C11.6834 1.90237 12.3166 1.90237 12.7071 2.29289L15.2071 4.79289C15.5976 5.18342 15.5976 5.81658 15.2071 6.20711C14.8166 6.59763 14.1834 6.59763 13.7929 6.20711L13 5.41421V11H18.5858L17.7929 10.2071C17.4024 9.81658 17.4024 9.18342 17.7929 8.79289C18.1834 8.40237 18.8166 8.40237 19.2071 8.79289L21.7071 11.2929C22.0976 11.6834 22.0976 12.3166 21.7071 12.7071L19.2071 15.2071C18.8166 15.5976 18.1834 15.5976 17.7929 15.2071C17.4024 14.8166 17.4024 14.1834 17.7929 13.7929L18.5858 13H13V18.5858L13.7929 17.7929C14.1834 17.4024 14.8166 17.4024 15.2071 17.7929C15.5976 18.1834 15.5976 18.8166 15.2071 19.2071L12.7071 21.7071C12.5142 21.9 12.2621 21.9976 12.0092 22L11 17.0444V13H10.1763L11 17.0444V17.0757L10.1723 13H5.41421L6.20711 13.7929C6.59763 14.1834 6.59763 14.8166 6.20711 15.2071C5.81658 15.5976 5.18342 15.5976 4.79289 15.2071L2.29289 12.7071C2.19702 12.6112 2.12468 12.5007 2.07588 12.3828C2.02699 12.2649 2 12.1356 2 12C2 11.7272 2.10925 11.4799 2.2864 11.2995C2.28885 11.297 2.29131 11.2945 2.29379 11.292L4.79289 8.79289C5.18342 8.40237 5.81658 8.40237 6.20711 8.79289C6.59763 9.18342 6.59763 9.81658 6.20711 10.2071L5.41421 11H9.7662L8.79289 6.20711L9.769 11H11V5.41421L10.2071 6.20711Z" fill="#9AA1B4"/>
<path d="M11 17.0757L12 22C11.984 22 11.968 21.9996 11.952 21.9989C11.7123 21.9874 11.476 21.8902 11.2929 21.7071L8.79289 19.2071C8.40237 18.8166 8.40237 18.1834 8.79289 17.7929C9.18342 17.4024 9.81658 17.4024 10.2071 17.7929L11 18.5858V17.0757Z" fill="#9AA1B4"/>
</svg>
