<?xml version="1.0" encoding="utf-8"?>
<!-- Generator: Adobe Illustrator 22.1.0, SVG Export Plug-In . SVG Version: 6.00 Build 0)  -->
<svg version="1.1" id="Layer_1" xmlns="http://www.w3.org/2000/svg" xmlns:xlink="http://www.w3.org/1999/xlink" x="0px" y="0px"
	 viewBox="0 0 24 24" style="enable-background:new 0 0 24 24;" xml:space="preserve">
<style type="text/css">
	.st0{fill:#9AA1B4;}
</style>
<g>
	<path class="st0" d="M18,4V3c0-0.6-0.4-1-1-1s-1,0.4-1,1v1H8V3c0-0.6-0.4-1-1-1S6,2.4,6,3v1C3.8,4,2,5.8,2,8v10c0,2.2,1.8,4,4,4h12
		c2.2,0,4-1.8,4-4V8C22,5.8,20.2,4,18,4z M6,6h12c0.9,0,1.7,0.6,1.9,1.5H4.1C4.3,6.6,5.1,6,6,6z M20,18c0,1.1-0.9,2-2,2H6
		c-1.1,0-2-0.9-2-2V9.5h16V18z"/>
	<path class="st0" d="M8.8,18.9c0.5,0.2,1.1-0.1,1.3-0.6c0.3-0.8,1-1.3,1.9-1.3c0.9,0,1.6,0.6,1.9,1.3c0.2,0.5,0.8,0.8,1.3,0.6
		c0.5-0.2,0.8-0.8,0.6-1.3c-0.3-0.7-0.7-1.4-1.4-1.9c0.4-0.5,0.6-1.1,0.6-1.8c0-1.7-1.3-3-3-3s-3,1.3-3,3c0,0.7,0.2,1.3,0.6,1.8
		c-0.6,0.5-1.1,1.1-1.4,1.9C8,18.2,8.3,18.8,8.8,18.9z M12,13c0.6,0,1,0.4,1,1s-0.4,1-1,1s-1-0.4-1-1S11.4,13,12,13z"/>
</g>
</svg>
