<?xml version="1.0" encoding="utf-8"?>
<!-- Generator: Adobe Illustrator 22.1.0, SVG Export Plug-In . SVG Version: 6.00 Build 0)  -->
<svg version="1.1" id="Layer_1" xmlns="http://www.w3.org/2000/svg" xmlns:xlink="http://www.w3.org/1999/xlink" x="0px" y="0px"
	 viewBox="0 0 25 24" style="enable-background:new 0 0 25 24;" xml:space="preserve">
<style type="text/css">
	.st0{fill:#9AA1B4;}
</style>
<path class="st0" d="M12.3,6.8c-0.5-1.1-2.1-1.1-2.6,0L8.9,8.5L7.2,8.7C6,8.9,5.6,10.4,6.4,11.2l1.2,1.3l-0.3,1.8
	c-0.2,1.1,1,2.2,2.1,1.5L11,15l1.5,0.8c1.2,0.6,2.3-0.4,2.1-1.5l-0.3-1.8l1.2-1.3c0.8-0.8,0.4-2.3-0.8-2.5l-1.7-0.3L12.3,6.8z
	 M10.6,9.6L11,8.7l0.4,0.8c0.2,0.4,0.6,0.7,1.1,0.8l1,0.1l-0.7,0.7c-0.3,0.3-0.5,0.8-0.4,1.3l0.2,1l-0.8-0.4c-0.4-0.2-1-0.2-1.4,0
	l-0.8,0.4l0.2-1c0.1-0.5-0.1-0.9-0.4-1.3l-0.7-0.7l1-0.1C10,10.3,10.4,10,10.6,9.6z"/>
<path class="st0" d="M21.5,15.5h-1v-8h1c0.6,0,1-0.4,1-1s-0.4-1-1-1h-1c-0.2-2-1.9-3.5-4-3.5h-10c-2.2,0-4,1.8-4,4v11
	c0,2.2,1.8,4,4,4h10c2,0,3.7-1.5,4-3.5h1c0.6,0,1-0.4,1-1S22,15.5,21.5,15.5z M18.5,15.5H18c-0.6,0-1,0.4-1,1s0.4,1,1,1h0.4
	c-0.2,0.9-1,1.5-1.9,1.5h-10c-1.1,0-2-0.9-2-2V6c0-1.1,0.9-2,2-2h10c0.9,0,1.7,0.6,1.9,1.5H18c-0.6,0-1,0.4-1,1s0.4,1,1,1h0.5
	L18.5,15.5z"/>
</svg>
