<?xml version="1.0" encoding="utf-8"?>
<!-- Generator: Adobe Illustrator 22.1.0, SVG Export Plug-In . SVG Version: 6.00 Build 0)  -->
<svg version="1.1" id="Layer_1" xmlns="http://www.w3.org/2000/svg" xmlns:xlink="http://www.w3.org/1999/xlink" x="0px" y="0px"
	 viewBox="0 0 24 24" style="enable-background:new 0 0 24 24;" xml:space="preserve">
<style type="text/css">
	.st0{fill:#9AA1B4;}
</style>
<g>
	<path class="st0" d="M17,3H7C4.8,3,3,4.8,3,7v10c0,2.2,1.8,4,4,4h8.5c0.3,0,0.5-0.1,0.7-0.3l4.5-4.5c0.2-0.2,0.3-0.4,0.3-0.7V7
		C21,4.8,19.2,3,17,3z M16,18.1V16h2.1L16,18.1z M19,14h-3c-1.1,0-2,0.9-2,2v3H7c-1.1,0-2-0.9-2-2V7c0-1.1,0.9-2,2-2h10
		c1.1,0,2,0.9,2,2V14z"/>
	<path class="st0" d="M15,7H9C8.4,7,8,7.4,8,8s0.4,1,1,1h6c0.6,0,1-0.4,1-1S15.6,7,15,7z"/>
	<path class="st0" d="M11,11H9c-0.6,0-1,0.4-1,1s0.4,1,1,1h2c0.6,0,1-0.4,1-1S11.6,11,11,11z"/>
</g>
</svg>
