<svg width="24" height="24" viewBox="0 0 24 24" fill="none" xmlns="http://www.w3.org/2000/svg">
<path fill-rule="evenodd" clip-rule="evenodd" d="M12 2C8.13401 2 5 5.13401 5 9V11.5858L4.17157 12.4142C3.42143 13.1644 3 14.1818 3 15.2426V16C3 17.6569 4.34315 19 6 19H18C19.6569 19 21 17.6569 21 16V15.2426C21 14.1818 20.5786 13.1644 19.8284 12.4142L19 11.5858V9C19 5.13401 15.866 2 12 2ZM7 9C7 6.23858 9.23858 4 12 4C14.7614 4 17 6.23858 17 9V12C17 12.2652 17.1054 12.5196 17.2929 12.7071L18.4142 13.8284C18.7893 14.2035 19 14.7122 19 15.2426V16C19 16.5523 18.5523 17 18 17H6C5.44772 17 5 16.5523 5 16V15.2426C5 14.7122 5.21071 14.2035 5.58579 13.8284L6.70711 12.7071C6.89464 12.5196 7 12.2652 7 12V9Z" fill="#9AA1B4"/>
<path d="M9 20C8.44772 20 8 20.4477 8 21C8 21.5523 8.44772 22 9 22H15C15.5523 22 16 21.5523 16 21C16 20.4477 15.5523 20 15 20H9Z" fill="#9AA1B4"/>
</svg>
