<svg width="25" height="24" viewBox="0 0 25 24" fill="none" xmlns="http://www.w3.org/2000/svg">
<path fill-rule="evenodd" clip-rule="evenodd" d="M4.10399 6.5C4.10399 5.39543 4.99942 4.5 6.10399 4.5H8.09817L10.7203 7.19708C10.9086 7.39074 11.1672 7.5 11.4373 7.5H20.104C20.104 6.39543 19.2086 5.5 18.104 5.5H11.8598L9.23765 2.80292C9.04937 2.60926 8.79075 2.5 8.52065 2.5H6.10399C3.89485 2.5 2.10399 4.29086 2.10399 6.5V16.8902C1.73989 19.2095 3.51544 21.5 6.06206 21.5H16.5365C18.1963 21.5 19.6836 20.475 20.2745 18.924L21.9888 14.424C22.9861 11.8058 21.0525 9 18.2508 9H8.41921C6.93127 9 5.5663 9.82591 4.87588 11.144L4.10399 12.6176V6.5ZM4.07855 17.2251C4.08695 17.1886 4.09335 17.1513 4.09763 17.1134C4.13419 16.9311 4.19756 16.7492 4.2904 16.572L6.64754 12.072C6.99275 11.413 7.67524 11 8.41921 11H18.2508C19.6517 11 20.6185 12.4029 20.1198 13.712L18.4055 18.212C18.1101 18.9875 17.3664 19.5 16.5365 19.5H6.06206C4.79973 19.5 3.91632 18.3744 4.07855 17.2251Z" fill="#9AA1B4"/>
</svg>
