<svg width="24" height="24" viewBox="0 0 24 24" fill="none" xmlns="http://www.w3.org/2000/svg">
<path fill-rule="evenodd" clip-rule="evenodd" d="M12.0001 4C8.68641 4 6.00012 6.68629 6.00012 10C6.00012 10.0818 5.99009 10.1632 5.97026 10.2425C5.7394 11.166 5.41307 11.8934 5.10239 12.5631C5.07833 12.615 5.0544 12.6665 5.03062 12.7176C4.76048 13.2984 4.50883 13.8395 4.29299 14.5H5.30012C5.8524 14.5 6.30012 14.9477 6.30012 15.5V17.5H8.50012C8.9768 17.5 9.38721 17.8365 9.4807 18.3039L9.9807 20.8039C10.089 21.3454 9.73779 21.8723 9.19623 21.9806C8.65467 22.0889 8.12785 21.7377 8.01954 21.1961L7.68031 19.5H6.30012C5.19555 19.5 4.30012 18.6046 4.30012 17.5V16.5H4.21992C2.9962 16.5 1.93246 15.3415 2.34711 14.0187C2.61217 13.1732 2.92998 12.4907 3.21216 11.8848C3.23779 11.8298 3.26312 11.7753 3.2881 11.7215C3.57502 11.103 3.82116 10.5464 4.00116 9.86919C4.07103 5.51124 7.62552 2 12.0001 2C12.5524 2 13.0001 2.44772 13.0001 3C13.0001 3.55228 12.5524 4 12.0001 4Z" fill="#9AA1B4"/>
<path fill-rule="evenodd" clip-rule="evenodd" d="M17 4C16.4477 4 16 4.44772 16 5.00001L16.0001 14.487C16.0001 14.7396 16.0957 14.9828 16.2677 15.1678L18.0001 17.0313L19.7324 15.1679C19.9044 14.9828 20 14.7396 20 14.487L20 4.99999C20 4.44771 19.5522 4 19 4L17 4ZM17.0001 18.893L14.8029 16.5296C14.2869 15.9746 14.0001 15.2448 14.0001 14.487L14 5.00002C14 3.34316 15.3431 2 17 2L19 2C20.6568 2 21.9999 3.34313 22 4.99998L22 14.487C22 15.2448 21.7132 15.9746 21.1972 16.5296L19.0001 18.893L19.0001 20.9999C19.0001 21.5522 18.5523 21.9999 18.0001 21.9999C17.4478 21.9999 17.0001 21.5522 17.0001 20.9999L17.0001 18.893Z" fill="#9AA1B4"/>
<path fill-rule="evenodd" clip-rule="evenodd" d="M18 10C18 9.44772 18.4477 9 19 9H21C21.5523 9 22 9.44772 22 10C22 10.5523 21.5523 11 21 11H19C18.4477 11 18 10.5523 18 10Z" fill="#9AA1B4"/>
<path fill-rule="evenodd" clip-rule="evenodd" d="M18 6.5C18 5.94772 18.4477 5.5 19 5.5H21C21.5523 5.5 22 5.94772 22 6.5C22 7.05228 21.5523 7.5 21 7.5H19C18.4477 7.5 18 7.05228 18 6.5Z" fill="#9AA1B4"/>
<path fill-rule="evenodd" clip-rule="evenodd" d="M18 13.5C18 12.9477 18.4477 12.5 19 12.5H21C21.5523 12.5 22 12.9477 22 13.5C22 14.0523 21.5523 14.5 21 14.5H19C18.4477 14.5 18 14.0523 18 13.5Z" fill="#9AA1B4"/>
</svg>
