<?xml version="1.0" encoding="utf-8"?>
<!-- Generator: Adobe Illustrator 22.1.0, SVG Export Plug-In . SVG Version: 6.00 Build 0)  -->
<svg version="1.1" id="Layer_1" xmlns="http://www.w3.org/2000/svg" xmlns:xlink="http://www.w3.org/1999/xlink" x="0px" y="0px"
	 viewBox="0 0 24 24" style="enable-background:new 0 0 24 24;" xml:space="preserve">
<style type="text/css">
	.st0{fill:#9AA1B4;}
</style>
<path class="st0" d="M14.6,2.2C14.9,2.4,15,2.7,15,3v12c0,0.6-0.4,1-1,1s-1-0.4-1-1V4.3L5,6.7V20h6.5c0.6,0,1,0.4,1,1s-0.4,1-1,1H4
	c-0.6,0-1-0.4-1-1V6c0-0.4,0.3-0.8,0.7-1l10-3C14,2,14.3,2,14.6,2.2z"/>
<path class="st0" d="M13.1,4.6c0.2-0.5,0.8-0.7,1.3-0.4l6,3C20.8,7.3,21,7.6,21,8v5c0,0.6-0.4,1-1,1s-1-0.4-1-1V8.6l-5.4-2.7
	C13.1,5.6,12.9,5,13.1,4.6z"/>
<path class="st0" d="M7,13c0-0.6,0.4-1,1-1h2c0.6,0,1,0.4,1,1s-0.4,1-1,1H8C7.4,14,7,13.6,7,13z"/>
<path class="st0" d="M7,17c0-0.6,0.4-1,1-1h2c0.6,0,1,0.4,1,1s-0.4,1-1,1H8C7.4,18,7,17.6,7,17z"/>
<path class="st0" d="M7,9c0-0.6,0.4-1,1-1h2c0.6,0,1,0.4,1,1s-0.4,1-1,1H8C7.4,10,7,9.6,7,9z"/>
<path class="st0" d="M21.6,18.2l-2.5-2c-0.3-0.2-0.7-0.3-1.1-0.1c-0.3,0.2-0.6,0.5-0.6,0.9v1H15c-0.6,0-1,0.4-1,1s0.4,1,1,1h2.5v1
	c0,0.4,0.2,0.7,0.6,0.9c0.3,0.2,0.8,0.1,1.1-0.1l2.5-2c0.2-0.2,0.4-0.5,0.4-0.8S21.9,18.4,21.6,18.2z"/>
</svg>
