<svg width="24" height="24" viewBox="0 0 24 24" fill="none" xmlns="http://www.w3.org/2000/svg">
<path fill-rule="evenodd" clip-rule="evenodd" d="M12 4C7.58172 4 4 7.58172 4 12C4 16.3746 7.5112 19.929 11.8691 19.999L11.153 18.0894C10.1677 15.4619 12.3351 12.7309 15.1178 13.0939L18.2186 13.4983C19.2622 13.6344 19.9657 13.005 19.9932 12.3338C19.9977 12.2231 20 12.1119 20 12C20 7.58172 16.4183 4 12 4ZM2 12C2 6.47715 6.47715 2 12 2C17.5228 2 22 6.47715 22 12C22 12.1392 21.9972 12.2777 21.9915 12.4156C21.9011 14.6239 19.7741 15.7181 17.96 15.4815L14.8591 15.0771C13.5723 14.9092 12.57 16.1721 13.0257 17.3872L13.7646 19.3575C14.2015 20.5226 13.4658 22 12 22C6.47715 22 2 17.5228 2 12ZM17.5 8.25C17.5 8.94036 16.9404 9.5 16.25 9.5C15.5596 9.5 15 8.94036 15 8.25C15 7.55964 15.5596 7 16.25 7C16.9404 7 17.5 7.55964 17.5 8.25ZM12.25 8C12.9404 8 13.5 7.44036 13.5 6.75C13.5 6.05964 12.9404 5.5 12.25 5.5C11.5596 5.5 11 6.05964 11 6.75C11 7.44036 11.5596 8 12.25 8ZM9.5 8.25C9.5 8.94036 8.94036 9.5 8.25 9.5C7.55964 9.5 7 8.94036 7 8.25C7 7.55964 7.55964 7 8.25 7C8.94036 7 9.5 7.55964 9.5 8.25ZM6.75 13.5C7.44036 13.5 8 12.9404 8 12.25C8 11.5596 7.44036 11 6.75 11C6.05964 11 5.5 11.5596 5.5 12.25C5.5 12.9404 6.05964 13.5 6.75 13.5Z" fill="#9AA1B4"/>
</svg>
