<?xml version="1.0" encoding="utf-8"?>
<!-- Generator: Adobe Illustrator 26.5.0, SVG Export Plug-In . SVG Version: 6.00 Build 0)  -->
<svg version="1.1" id="Layer_1" xmlns="http://www.w3.org/2000/svg" xmlns:xlink="http://www.w3.org/1999/xlink" x="0px" y="0px"
	 viewBox="0 0 32 32" style="enable-background:new 0 0 32 32;" xml:space="preserve">
<style type="text/css">
	.st0{fill:#9AA1B4;}
</style>
<g>
	<path class="st0" d="M4.8,7.4h22.2c0.8,0,1.4-0.6,1.4-1.4s-0.6-1.4-1.4-1.4H4.8C4,4.6,3.5,5.2,3.5,6S4,7.4,4.8,7.4z"/>
	<path class="st0" d="M27.1,10.8H4.8c-0.8,0-1.4,0.6-1.4,1.4s0.6,1.4,1.4,1.4h22.2c0.8,0,1.4-0.6,1.4-1.4S27.8,10.8,27.1,10.8z"/>
	<path class="st0" d="M4.8,19.7h11c0.8,0,1.4-0.6,1.4-1.4c0-0.8-0.6-1.4-1.4-1.4h-11c-0.8,0-1.4,0.6-1.4,1.4
		C3.5,19.2,4,19.7,4.8,19.7z"/>
	<path class="st0" d="M11,23.1H4.8c-0.8,0-1.4,0.6-1.4,1.4c0,0.8,0.6,1.4,1.4,1.4H11c0.8,0,1.4-0.6,1.4-1.4
		C12.4,23.6,11.8,23.1,11,23.1z"/>
	<path class="st0" d="M24,16.9h-3.1c-0.8,0-1.4,0.6-1.4,1.4c0,0.8,0.6,1.4,1.4,1.4H24c1,0,1.7,0.7,1.7,1.7c0,1-0.7,1.7-1.7,1.7h-4.6
		l0.1-0.1c0.6-0.6,0.6-1.4,0-2s-1.4-0.6-2,0L15,23.5l0,0l0,0l0,0c-0.1,0.1-0.3,0.3-0.3,0.4c0,0.1-0.1,0.3-0.1,0.6l0,0l0,0l0,0l0,0
		l0,0c0,0.1,0,0.3,0.1,0.6l0,0c0,0.1,0.1,0.3,0.3,0.4l2.5,2.5c0.3,0.3,0.7,0.4,1,0.4s0.7-0.1,1-0.4c0.6-0.6,0.6-1.4,0-2l-0.1-0.1H24
		c2.5,0,4.5-2,4.5-4.5S26.4,16.9,24,16.9z"/>
</g>
</svg>
