<?xml version="1.0" encoding="utf-8"?>
<!-- Generator: Adobe Illustrator 26.4.1, SVG Export Plug-In . SVG Version: 6.00 Build 0)  -->
<svg version="1.1" id="Layer_1" xmlns="http://www.w3.org/2000/svg" xmlns:xlink="http://www.w3.org/1999/xlink" x="0px" y="0px"
	 viewBox="0 0 32 32" style="enable-background:new 0 0 32 32;" xml:space="preserve">
<style type="text/css">
	.st0{fill:#9AA1B4;}
</style>
<g>
	<path class="st0" d="M8,10h15.9c0.6,0,1-0.4,1-1s-0.4-1-1-1H8C7.4,8,7,8.4,7,9S7.4,10,8,10z"/>
	<path class="st0" d="M23.9,12.4H8c-0.6,0-1,0.4-1,1s0.4,1,1,1h15.9c0.6,0,1-0.4,1-1S24.4,12.4,23.9,12.4z"/>
	<path class="st0" d="M8,18.8h7.9c0.6,0,1-0.4,1-1s-0.4-1-1-1H8c-0.6,0-1,0.4-1,1S7.4,18.8,8,18.8z"/>
	<path class="st0" d="M12.4,21.2H8c-0.6,0-1,0.4-1,1s0.4,1,1,1h4.4c0.6,0,1-0.4,1-1S13,21.2,12.4,21.2z"/>
	<path class="st0" d="M21.7,16.8h-2.2c-0.6,0-1,0.4-1,1s0.4,1,1,1h2.2c0.7,0,1.2,0.5,1.2,1.2s-0.5,1.2-1.2,1.2h-3.3l0.1-0.1
		c0.4-0.4,0.4-1,0-1.4s-1-0.4-1.4,0l-1.8,1.8c0,0,0,0,0,0c0,0,0,0,0,0c0,0,0,0,0,0c-0.1,0.1-0.2,0.2-0.2,0.3c0,0.1-0.1,0.2-0.1,0.4
		c0,0,0,0,0,0c0,0,0,0,0,0s0,0,0,0c0,0,0,0,0,0c0,0,0,0,0,0c0,0.1,0,0.2,0.1,0.4l0,0c0,0.1,0.1,0.2,0.2,0.3l1.8,1.8
		c0.2,0.2,0.5,0.3,0.7,0.3s0.5-0.1,0.7-0.3c0.4-0.4,0.4-1,0-1.4l-0.1-0.1h3.3c1.8,0,3.2-1.4,3.2-3.2S23.4,16.8,21.7,16.8z"/>
</g>
</svg>
