<svg width="24" height="24" viewBox="0 0 24 24" fill="none" xmlns="http://www.w3.org/2000/svg">
<path d="M9 4C8.44772 4 8 4.44772 8 5C8 5.55228 8.44772 6 9 6H21C21.5523 6 22 5.55228 22 5C22 4.44772 21.5523 4 21 4H9Z" fill="#9AA1B4"/>
<path d="M2 9.5C2 8.94772 2.44772 8.5 3 8.5H21C21.5523 8.5 22 8.94772 22 9.5C22 10.0523 21.5523 10.5 21 10.5H3C2.44772 10.5 2 10.0523 2 9.5Z" fill="#9AA1B4"/>
<path d="M9 13C8.44772 13 8 13.4477 8 14C8 14.5523 8.44772 15 9 15H21C21.5523 15 22 14.5523 22 14C22 13.4477 21.5523 13 21 13H9Z" fill="#9AA1B4"/>
<path d="M3 17.5C2.44772 17.5 2 17.9477 2 18.5C2 19.0523 2.44772 19.5 3 19.5H21C21.5523 19.5 22 19.0523 22 18.5C22 17.9477 21.5523 17.5 21 17.5H3Z" fill="#9AA1B4"/>
</svg>
