<?xml version="1.0" encoding="utf-8"?>
<!-- Generator: Adobe Illustrator 22.1.0, SVG Export Plug-In . SVG Version: 6.00 Build 0)  -->
<svg version="1.1" id="Layer_1" xmlns="http://www.w3.org/2000/svg" xmlns:xlink="http://www.w3.org/1999/xlink" x="0px" y="0px"
	 viewBox="0 0 17 16" style="enable-background:new 0 0 17 16;" xml:space="preserve">
<style type="text/css">
	.st0{fill:#9AA1B4;}
</style>
<path class="st0" d="M12.6,10.8c-1,0-1.8,0.6-2.1,1.5H7.6c-0.1,0-0.3-0.1-0.3-0.3v-1.8h2.8c1,0,1.8-0.8,1.8-1.8v-4
	c0-1-0.8-1.8-1.8-1.8H8c-0.1,0-0.1,0-0.2-0.1l-1.2-1C6.3,1.4,5.9,1.3,5.5,1.3H3.6C2.6,1.3,1.9,2,1.9,3v5.5c0,1,0.8,1.8,1.8,1.8h2.3
	V12c0,1,0.8,1.8,1.8,1.8h2.9c0.3,0.9,1.1,1.5,2.1,1.5c1.2,0,2.3-1,2.3-2.3S13.8,10.8,12.6,10.8z M3.6,8.8c-0.1,0-0.3-0.1-0.3-0.3V3
	c0-0.1,0.1-0.3,0.3-0.3h1.9c0.1,0,0.1,0,0.2,0.1l1.2,1C7.2,4.1,7.6,4.3,8,4.3h2.1c0.1,0,0.3,0.1,0.3,0.3v4c0,0.1-0.1,0.3-0.3,0.3
	H3.6z M12.6,13.8c-0.4,0-0.8-0.3-0.8-0.8s0.3-0.8,0.8-0.8s0.8,0.3,0.8,0.8S13,13.8,12.6,13.8z"/>
</svg>
