<?xml version="1.0" encoding="utf-8"?>
<!-- Generator: Adobe Illustrator 27.0.0, SVG Export Plug-In . SVG Version: 6.00 Build 0)  -->
<svg version="1.1" id="Layer_1" xmlns="http://www.w3.org/2000/svg" xmlns:xlink="http://www.w3.org/1999/xlink" x="0px" y="0px"
	 viewBox="0 0 24 24" style="enable-background:new 0 0 24 24;" xml:space="preserve">
<style type="text/css">
	.st0{fill:#9AA1B4;}
</style>
<g>
	<path class="st0" d="M20,5.8l-8-3.6c-0.3-0.1-0.6-0.1-0.8,0l-8,3.6C2.9,5.9,2.6,6.3,2.6,6.7v5.4c0,3.6,2.3,6.1,4.4,7.6
		c1.1,0.8,2.1,1.4,2.9,1.7c0.4,0.2,0.7,0.3,1,0.4c0.1,0,0.2,0.1,0.3,0.1l0,0l0,0l0,0l0,0l0,0c0.2,0.1,0.5,0.1,0.7,0l0,0l0,0l0,0l0,0
		c0,0,0,0,0.1,0c0.1,0,0.2-0.1,0.3-0.1c0.2-0.1,0.6-0.2,1-0.4c0.8-0.4,1.8-1,2.9-1.7c2.1-1.6,4.4-4.1,4.4-7.6V6.7
		C20.6,6.3,20.4,5.9,20,5.8z M18.6,12.1c0,2.6-1.7,4.6-3.6,6c-0.9,0.7-1.9,1.2-2.6,1.6c-0.3,0.2-0.6,0.3-0.8,0.4
		c-0.2-0.1-0.5-0.2-0.8-0.4c-0.7-0.3-1.7-0.9-2.6-1.6c-1.9-1.4-3.6-3.4-3.6-6V7.3l7-3.2l7,3.2V12.1z"/>
	<path class="st0" d="M9.6,10.1c0,0.7,0.4,1.4,1,1.7v2.3c0,0.6,0.4,1,1,1s1-0.4,1-1v-2.3c0.6-0.3,1-1,1-1.7c0-1.1-0.9-2-2-2
		S9.6,9,9.6,10.1z"/>
</g>
</svg>
