<svg width="16" height="16" viewBox="0 0 16 16" fill="none" xmlns="http://www.w3.org/2000/svg">
<path fill-rule="evenodd" clip-rule="evenodd" d="M14.8532 6.49456C14.8298 6.41229 14.7922 6.33323 14.7402 6.26131C14.713 6.22341 14.6826 6.18865 14.6496 6.1572L9.72464 1.23221C9.69319 1.19926 9.65842 1.16888 9.62053 1.14164C9.54876 1.08978 9.46988 1.05218 9.3878 1.02883C9.27984 0.997892 9.16867 0.992383 9.06196 1.00976C8.9551 1.02699 8.85125 1.06738 8.75851 1.13095C8.68803 1.17905 8.62509 1.23967 8.5734 1.31156C8.54607 1.34939 8.52269 1.3892 8.50328 1.43041L7.75216 2.93264C7.40839 3.62018 6.83205 4.16361 6.12551 4.46641L2.53816 6.00385C2.48936 6.02346 2.44216 6.0484 2.39746 6.07869C2.22986 6.19191 2.11866 6.36626 2.08146 6.55781C2.04476 6.74882 2.08276 6.95135 2.19546 7.11852C2.22606 7.16402 2.26106 7.20539 2.29966 7.24228L4.93186 9.87447L1.21956 13.5868C0.926661 13.8797 0.926661 14.3545 1.21956 14.6474C1.51246 14.9403 1.98736 14.9403 2.28026 14.6474L5.99252 10.9351L8.63956 13.5821C8.67645 13.6208 8.71782 13.6558 8.76332 13.6863C8.93044 13.799 9.13288 13.837 9.32385 13.8004C9.51543 13.7633 9.68982 13.6521 9.80308 13.4844C9.8334 13.4397 9.85837 13.3925 9.87799 13.3437L11.4154 9.75632C11.7182 9.04978 12.2617 8.47344 12.9492 8.12967L14.4514 7.37856C14.4926 7.35915 14.5324 7.33577 14.5703 7.30843C14.6423 7.25664 14.703 7.19354 14.7512 7.12287C14.8146 7.0303 14.8548 6.92668 14.872 6.82005C14.8894 6.71346 14.884 6.60242 14.8532 6.49456ZM12.8656 6.49445L12.2784 6.78803C11.2735 7.29046 10.4793 8.13281 10.0367 9.16544L8.92894 11.7502L4.13166 6.95289L6.71639 5.84513C7.74903 5.40257 8.59137 4.60832 9.0938 3.60346L9.38739 3.01629L12.8656 6.49445Z" fill="#9AA1B4"/>
</svg>
