<?xml version="1.0" encoding="utf-8"?>
<!-- Generator: Adobe Illustrator 22.1.0, SVG Export Plug-In . SVG Version: 6.00 Build 0)  -->
<svg version="1.1" id="Layer_1" xmlns="http://www.w3.org/2000/svg" xmlns:xlink="http://www.w3.org/1999/xlink" x="0px" y="0px"
	 viewBox="0 0 24 24" style="enable-background:new 0 0 24 24;" xml:space="preserve">
<style type="text/css">
	.st0{fill:#9AA1B4;}
</style>
<path class="st0" d="M18,7V3c0-0.6-0.4-1-1-1H7C6.4,2,6,2.4,6,3v4c-2.2,0-4,1.8-4,4v4c0,1.1,0.9,2,2,2h1.6L5,20.9
	c0,0.3,0,0.6,0.2,0.8S5.7,22,6,22h12c0.3,0,0.6-0.1,0.8-0.3c0.2-0.2,0.3-0.5,0.2-0.8L18.4,17H20c1.1,0,2-0.9,2-2v-4
	C22,8.8,20.2,7,18,7z M8,4h8v3H8V4z M7.2,20l0.7-5h8.3l0.7,5H7.2z M20,15h-1.8L18,13.9c-0.1-0.5-0.5-0.9-1-0.9H7
	c-0.5,0-0.9,0.4-1,0.9L5.8,15H4v-4c0-1.1,0.9-2,2-2h12c1.1,0,2,0.9,2,2V15z"/>
</svg>
