<?xml version="1.0" encoding="utf-8"?>
<!-- Generator: Adobe Illustrator 27.0.0, SVG Export Plug-In . SVG Version: 6.00 Build 0)  -->
<svg version="1.1" id="Layer_1" xmlns="http://www.w3.org/2000/svg" xmlns:xlink="http://www.w3.org/1999/xlink" x="0px" y="0px"
	 viewBox="0 0 24 24" style="enable-background:new 0 0 24 24;" xml:space="preserve">
<path d="M20.6,2h-7.2C12.6,2,12,2.6,12,3.4v2.2C12,6.4,11.4,7,10.6,7H8.4C7.6,7,7,7.6,7,8.4v2.2C7,11.4,6.4,12,5.6,12H3.4
	C2.6,12,2,12.6,2,13.4v7.2C2,21.4,2.6,22,3.4,22h7.2c0.8,0,1.4-0.6,1.4-1.4v-2.2c0-0.8,0.6-1.4,1.4-1.4h2.2c0.8,0,1.4-0.6,1.4-1.4
	v-2.2c0-0.8,0.6-1.4,1.4-1.4h2.2c0.8,0,1.4-0.6,1.4-1.4V3.4C22,2.6,21.4,2,20.6,2z M10.7,14.6v4.7c0,0.8-0.6,1.4-1.4,1.4H4.6
	c-0.8,0-1.4-0.6-1.4-1.4v-4.7c0-0.8,0.6-1.4,1.4-1.4h4.8C10.1,13.2,10.8,13.9,10.7,14.6z M15.8,14.4c0,0.8-0.6,1.4-1.4,1.4h-1
	c-0.8,0-1.4-0.6-1.4-1.4v-1c0-0.8-0.6-1.4-1.4-1.4h-1c-0.8,0-1.4-0.6-1.4-1.4v-1c0-0.8,0.6-1.4,1.4-1.4h4.8c0.7,0,1.4,0.7,1.4,1.4
	V14.4z M20.8,9.4c0,0.8-0.6,1.4-1.4,1.4h-1c-0.8,0-1.4-0.6-1.4-1.4v-1C17,7.6,16.4,7,15.7,7h-1c-0.8,0-1.4-0.6-1.4-1.4v-1
	c0-0.8,0.6-1.4,1.4-1.4h4.7c0.7,0,1.4,0.7,1.4,1.4V9.4z"/>
</svg>
