<svg width="24" height="24" viewBox="0 0 24 24" fill="none" xmlns="http://www.w3.org/2000/svg">
<path fill-rule="evenodd" clip-rule="evenodd" d="M5.99979 5.5C5.70786 5.5 5.4305 5.62757 5.24051 5.84923L2.72217 8.78747C2.37957 9.1872 2.15041 9.66731 2.05305 10.1781C2.0186 10.2794 2 10.3877 2 10.5V15.5C2 16.8807 3.11929 18 4.5 18H8C9.933 18 11.5 16.433 11.5 14.5V11.5C11.5 10.1193 10.3807 8.99997 9 8.99997H8.32552L8.96131 6.77472C9.04752 6.47301 8.9871 6.14832 8.79814 5.89781C8.60918 5.64729 8.31358 5.5 7.99979 5.5H5.99979ZM4.24072 10.089L6.45974 7.5H6.67406L6.03827 9.72524C5.95206 10.027 6.01248 10.3516 6.20144 10.6022C6.3904 10.8527 6.686 11 6.99979 11H9C9.27614 11 9.5 11.2238 9.5 11.5V14.5C9.5 15.3284 8.82843 16 8 16H4.5C4.22386 16 4 15.7761 4 15.5V10.6687C4.00285 10.6522 4.00529 10.6356 4.00733 10.6189C4.03106 10.424 4.11181 10.2394 4.24072 10.089Z" fill="#9AA1B4"/>
<path fill-rule="evenodd" clip-rule="evenodd" d="M16.4998 5.5C16.2079 5.5 15.9305 5.62757 15.7405 5.84923L13.2222 8.78747C12.8796 9.1872 12.6504 9.66731 12.553 10.1781C12.5186 10.2794 12.5 10.3877 12.5 10.5V15.5C12.5 16.8807 13.6193 18 15 18H18.5C20.433 18 22 16.433 22 14.5V11.5C22 10.1193 20.8807 8.99997 19.5 8.99997H18.8255L19.4613 6.77472C19.5475 6.47301 19.4871 6.14832 19.2981 5.89781C19.1092 5.64729 18.8136 5.5 18.4998 5.5H16.4998ZM14.7407 10.089L16.9597 7.5H17.1741L16.5383 9.72524C16.4521 10.027 16.5125 10.3516 16.7014 10.6022C16.8904 10.8527 17.186 11 17.4998 11H19.5C19.7761 11 20 11.2238 20 11.5V14.5C20 15.3284 19.3284 16 18.5 16H15C14.7239 16 14.5 15.7761 14.5 15.5V10.6687C14.5028 10.6522 14.5053 10.6356 14.5073 10.6189C14.5311 10.424 14.6118 10.2394 14.7407 10.089Z" fill="#9AA1B4"/>
</svg>
