<svg width="25" height="24" viewBox="0 0 25 24" fill="none" xmlns="http://www.w3.org/2000/svg">
<path fill-rule="evenodd" clip-rule="evenodd" d="M12.8887 4C9.85111 4 7.38867 6.46243 7.38867 9.5V10C7.38867 10.544 6.95385 10.9882 6.40999 10.9998C5.29777 11.0235 4.38867 11.9378 4.38867 13C4.38867 13.99 5.10898 14.8137 6.05413 14.9723C6.5988 15.0637 6.96627 15.5793 6.87489 16.124C6.78351 16.6686 6.26789 17.0361 5.72322 16.9447C3.83065 16.6272 2.38867 14.983 2.38867 13C2.38867 11.1351 3.69955 9.59958 5.39716 9.13999C5.58502 5.16503 8.86723 2 12.8887 2C16.1249 2 18.8801 4.04898 19.9322 6.9183C21.4112 7.9026 22.3887 9.58658 22.3887 11.5C22.3887 14.284 20.3211 16.5835 17.6373 16.9494C17.0901 17.024 16.586 16.6408 16.5114 16.0936C16.4368 15.5464 16.8199 15.0423 17.3671 14.9677C19.0734 14.7351 20.3887 13.2703 20.3887 11.5C20.3887 10.1936 19.6734 9.05295 18.6083 8.45065C18.386 8.32499 18.2203 8.11909 18.145 7.87516C17.4518 5.62972 15.3593 4 12.8887 4Z" fill="#9AA1B4"/>
<path fill-rule="evenodd" clip-rule="evenodd" d="M8.38867 13C8.94096 13 9.38867 13.4477 9.38867 14V15C9.38867 15.5523 8.94096 16 8.38867 16C7.83639 16 7.38867 15.5523 7.38867 15V14C7.38867 13.4477 7.83639 13 8.38867 13Z" fill="#9AA1B4"/>
<path fill-rule="evenodd" clip-rule="evenodd" d="M14.3887 13C14.941 13 15.3887 13.4477 15.3887 14V15C15.3887 15.5523 14.941 16 14.3887 16C13.8364 16 13.3887 15.5523 13.3887 15V14C13.3887 13.4477 13.8364 13 14.3887 13Z" fill="#9AA1B4"/>
<path fill-rule="evenodd" clip-rule="evenodd" d="M8.38867 17C8.94096 17 9.38867 17.4477 9.38867 18V19C9.38867 19.5523 8.94096 20 8.38867 20C7.83639 20 7.38867 19.5523 7.38867 19V18C7.38867 17.4477 7.83639 17 8.38867 17Z" fill="#9AA1B4"/>
<path fill-rule="evenodd" clip-rule="evenodd" d="M14.3887 17C14.941 17 15.3887 17.4477 15.3887 18V19C15.3887 19.5523 14.941 20 14.3887 20C13.8364 20 13.3887 19.5523 13.3887 19V18C13.3887 17.4477 13.8364 17 14.3887 17Z" fill="#9AA1B4"/>
<path fill-rule="evenodd" clip-rule="evenodd" d="M11.3887 19C11.941 19 12.3887 19.4477 12.3887 20V21C12.3887 21.5523 11.941 22 11.3887 22C10.8364 22 10.3887 21.5523 10.3887 21V20C10.3887 19.4477 10.8364 19 11.3887 19Z" fill="#9AA1B4"/>
<path fill-rule="evenodd" clip-rule="evenodd" d="M11.3887 15C11.941 15 12.3887 15.4477 12.3887 16V17C12.3887 17.5523 11.941 18 11.3887 18C10.8364 18 10.3887 17.5523 10.3887 17V16C10.3887 15.4477 10.8364 15 11.3887 15Z" fill="#9AA1B4"/>
</svg>
