<svg width="24" height="24" viewBox="0 0 24 24" fill="none" xmlns="http://www.w3.org/2000/svg">
<path fill-rule="evenodd" clip-rule="evenodd" d="M14.2929 5.29289C14.6834 4.90237 15.3166 4.90237 15.7071 5.29289L19.7071 9.29289C20.0976 9.68342 20.0976 10.3166 19.7071 10.7071L15.7071 14.7071C15.3166 15.0976 14.6834 15.0976 14.2929 14.7071C13.9024 14.3166 13.9024 13.6834 14.2929 13.2929L16.5858 11H9C7.34315 11 6 12.3431 6 14C6 15.6569 7.34315 17 9 17H11C11.5523 17 12 17.4477 12 18C12 18.5523 11.5523 19 11 19H9C6.23858 19 4 16.7614 4 14C4 11.2386 6.23858 9 9 9H16.5858L14.2929 6.70711C13.9024 6.31658 13.9024 5.68342 14.2929 5.29289Z" fill="#9AA1B4"/>
</svg>
