<?xml version="1.0" encoding="utf-8"?>
<!-- Generator: Adobe Illustrator 27.0.0, SVG Export Plug-In . SVG Version: 6.00 Build 0)  -->
<svg version="1.1" id="Layer_1" xmlns="http://www.w3.org/2000/svg" xmlns:xlink="http://www.w3.org/1999/xlink" x="0px" y="0px"
	 viewBox="0 0 24 24" style="enable-background:new 0 0 24 24;" xml:space="preserve">
<style type="text/css">
	.st0{fill-rule:evenodd;clip-rule:evenodd;fill:#9AA1B4;}
</style>
<g>
	<path class="st0" d="M21,9h-5c-0.6,0-1,0.4-1,1s0.4,1,1,1h5c0.6,0,1-0.4,1-1S21.6,9,21,9z"/>
	<path class="st0" d="M13.6,13.8c-0.5-0.4-1-0.8-1.6-1.1c0.8-0.8,1.3-2,1.3-3.3V7.6C13.5,5.1,11.5,3,9,3S4.5,5.1,4.5,7.6v1.8
		c0,1.3,0.5,2.4,1.3,3.3c-0.6,0.3-1.1,0.6-1.6,1.1c-1.2,1.1-2,2.8-2.2,4.7c-0.1,1.2,0.9,2.1,1.9,2.1h10c1.1,0,2.1-0.9,1.9-2.1
		C15.6,16.6,14.8,15,13.6,13.8z M6.5,7.6C6.5,6.1,7.6,5,9,5s2.5,1.1,2.5,2.6v1.8c0,1.5-1.1,2.6-2.5,2.6s-2.5-1.1-2.5-2.6V7.6z
		 M4,18.5c0.2-1.5,0.8-2.6,1.6-3.3C6.4,14.4,7.6,14,9,14s2.6,0.4,3.3,1.2c0.9,0.7,1.4,1.8,1.6,3.3H4z"/>
</g>
</svg>
