<?xml version="1.0" encoding="utf-8"?>
<!-- Generator: Adobe Illustrator 26.5.0, SVG Export Plug-In . SVG Version: 6.00 Build 0)  -->
<svg version="1.1" id="Layer_1" xmlns="http://www.w3.org/2000/svg" xmlns:xlink="http://www.w3.org/1999/xlink" x="0px" y="0px"
	 viewBox="0 0 32 32" style="enable-background:new 0 0 32 32;" xml:space="preserve">
<style type="text/css">
	.st0{fill-rule:evenodd;clip-rule:evenodd;}
</style>
<g>
	<path class="st0" d="M19.4,21.4h1.1c1.5,0,2.9,0.5,4.1,1.4l2.3,1.9c1.7,1.3,4.2,0.2,4.2-2c0-6.4-5.2-11.6-11.6-11.6h-0.1V8.7
		c0-2.2-2.6-3.4-4.3-1.9l-7.3,6.5c-1.8,1.6-1.8,4.3,0,5.8l7.3,6.5c1.7,1.5,4.3,0.3,4.3-1.9C19.4,23.7,19.4,21.4,19.4,21.4z
		 M28.5,22.6l-2.3-1.8c-1.6-1.3-3.6-2-5.6-2h-2.5c-0.7,0-1.3,0.6-1.3,1.3v3.6l-7.3-6.5c-0.6-0.5-0.6-1.4,0-1.9l7.3-6.5v3.6
		c0,0.7,0.6,1.3,1.3,1.3h1.4C24.5,13.6,28.5,17.6,28.5,22.6z"/>
	<path class="st0" d="M12.4,24.4c1.3,1.1-0.3,3.2-1.7,2.3c-0.1-0.1-0.2-0.2-0.3-0.3l-8-7.2c-1.9-1.6-1.9-4.6,0-6.4l8-7.2
		c0.1-0.1,0.2-0.2,0.3-0.3c1.5-1,3.1,1.3,1.7,2.5L4.2,15c-0.7,0.6-0.7,1.5,0,2.1L12.4,24.4z"/>
</g>
</svg>
