<svg width="32" height="32" viewBox="0 0 32 32" fill="none" xmlns="http://www.w3.org/2000/svg">
<path fill-rule="evenodd" clip-rule="evenodd" d="M16.4951 19.9996H17.3901C18.5251 19.9996 19.6271 20.3866 20.5141 21.0956L22.2581 22.4916C23.5631 23.5346 25.4951 22.6056 25.4951 20.9356C25.4951 16.0006 21.4941 11.9995 16.5591 11.9995H16.4951V10.2265C16.4951 8.50055 14.4561 7.58555 13.1661 8.73155L7.51213 13.7575C6.16913 14.9505 6.16913 17.0486 7.51213 18.2416L13.1661 23.2676C14.4561 24.4146 16.4951 23.4986 16.4951 21.7726V19.9996ZM23.4941 20.9186L21.7631 19.5336C20.5221 18.5406 18.9791 17.9996 17.3901 17.9996H15.4951C14.9421 17.9996 14.4951 18.4476 14.4951 18.9996V21.7726L8.84113 16.7466C8.39313 16.3496 8.39313 15.6496 8.84113 15.2526L14.4951 10.2265V12.9995C14.4951 13.5515 14.9421 13.9995 15.4951 13.9995H16.5591C20.3841 13.9995 23.4851 17.0956 23.4941 20.9186Z" fill="#9AA1B4"/>
</svg>
