<?xml version="1.0" encoding="utf-8"?>
<!-- Generator: Adobe Illustrator 26.5.0, SVG Export Plug-In . SVG Version: 6.00 Build 0)  -->
<svg version="1.1" id="Layer_1" xmlns="http://www.w3.org/2000/svg" xmlns:xlink="http://www.w3.org/1999/xlink" x="0px" y="0px"
	 viewBox="0 0 32 32" style="enable-background:new 0 0 32 32;" xml:space="preserve">
<style type="text/css">
	.st0{fill-rule:evenodd;clip-rule:evenodd;fill:#9AA1B4;}
</style>
<path class="st0" d="M16.7,21.9H18c1.7,0,3.3,0.6,4.6,1.6l2.6,2.1c1.9,1.5,4.8,0.2,4.8-2.3c0-7.3-5.9-13.2-13.2-13.2h-0.1V7.5
	c0-2.5-3-3.9-4.9-2.2l-8.3,7.4c-2,1.8-2,4.9,0,6.6l8.3,7.4c1.9,1.7,4.9,0.3,4.9-2.2V21.9z M27,23.3l-2.6-2c-1.8-1.5-4.1-2.3-6.4-2.3
	h-2.8c-0.8,0-1.5,0.7-1.5,1.5v4.1l-8.3-7.4c-0.7-0.6-0.7-1.6,0-2.2l8.3-7.4v4.1c0,0.8,0.7,1.5,1.5,1.5h1.6
	C22.5,13.1,27,17.6,27,23.3z"/>
</svg>
