<?xml version="1.0" encoding="utf-8"?>
<!-- Generator: Adobe Illustrator 22.1.0, SVG Export Plug-In . SVG Version: 6.00 Build 0)  -->
<svg version="1.1" id="Layer_1" xmlns="http://www.w3.org/2000/svg" xmlns:xlink="http://www.w3.org/1999/xlink" x="0px" y="0px"
	 viewBox="0 0 16 16" style="enable-background:new 0 0 16 16;" xml:space="preserve">
<style type="text/css">
	.st0{fill:#9AA1B4;}
</style>
<g>
	<path class="st0" d="M14.8,4c0-1.2-1-2.3-2.3-2.3h-9c-1.2,0-2.3,1-2.3,2.3v2.5c0,0.6,0.2,1.1,0.6,1.5C1.5,8.4,1.3,8.9,1.3,9.5V12
		c0,1.2,1,2.3,2.3,2.3h9c1.2,0,2.3-1,2.3-2.3V9.5c0-0.6-0.2-1.1-0.6-1.5c0.4-0.4,0.6-0.9,0.6-1.5V4z M13.3,12c0,0.4-0.3,0.8-0.8,0.8
		h-9c-0.4,0-0.8-0.3-0.8-0.8V9.5c0-0.4,0.3-0.8,0.8-0.8h9c0.4,0,0.8,0.3,0.8,0.8V12z M13.3,6.5c0,0.4-0.3,0.8-0.8,0.8h-9
		c-0.4,0-0.8-0.3-0.8-0.8V4c0-0.4,0.3-0.8,0.8-0.8h9c0.4,0,0.8,0.3,0.8,0.8V6.5z"/>
	<path class="st0" d="M11.3,4.5H9.6c-0.4,0-0.8,0.3-0.8,0.8S9.2,6,9.6,6h1.7C11.7,6,12,5.7,12,5.3S11.7,4.5,11.3,4.5z"/>
	<circle class="st0" cx="4.8" cy="5.3" r="0.8"/>
	<path class="st0" d="M11.3,10H9.6c-0.4,0-0.8,0.3-0.8,0.8s0.3,0.8,0.8,0.8h1.7c0.4,0,0.8-0.3,0.8-0.8S11.7,10,11.3,10z"/>
	<circle class="st0" cx="4.8" cy="10.8" r="0.8"/>
</g>
</svg>
