<?xml version="1.0" encoding="utf-8"?>
<!-- Generator: Adobe Illustrator 27.0.0, SVG Export Plug-In . SVG Version: 6.00 Build 0)  -->
<svg version="1.1" id="Layer_1" xmlns="http://www.w3.org/2000/svg" xmlns:xlink="http://www.w3.org/1999/xlink" x="0px" y="0px"
	 viewBox="0 0 24 24" style="enable-background:new 0 0 24 24;" xml:space="preserve">
<style type="text/css">
	.st0{fill:#9AA1B4;}
</style>
<g>
	<path class="st0" d="M16.5,13c-1.1,0-2.1,0.5-2.8,1.3l-0.2,0.3h1c0.3,0,0.5,0.2,0.5,0.5s-0.2,0.5-0.5,0.5h-2
		c-0.3,0-0.5-0.2-0.5-0.5v-2c0-0.3,0.2-0.5,0.5-0.5c0.3,0,0.5,0.2,0.5,0.5v0.9l0.2-0.2c0,0,0,0,0,0c0.8-1,2.1-1.6,3.5-1.6
		c2.5,0,4.5,2,4.5,4.5c0,2.5-2,4.5-4.5,4.5c-2.3,0-4.3-1.8-4.5-4c0-0.2,0.2-0.5,0.4-0.5c0.2,0,0.5,0.2,0.5,0.4
		c0.2,1.8,1.7,3.2,3.6,3.2c2,0,3.6-1.6,3.6-3.6C20.1,14.6,18.5,13,16.5,13z"/>
	<g>
		<path class="st0" d="M8.3,8.9c0,0.6,0.3,1.1,0.8,1.3V12c0,0.4,0.3,0.8,0.8,0.8c0.4,0,0.8-0.3,0.8-0.8v-1.7
			c0.5-0.3,0.8-0.8,0.8-1.3c0-0.8-0.7-1.5-1.5-1.5C9,7.4,8.3,8.1,8.3,8.9z"/>
		<path class="st0" d="M9.4,16.3c-0.1,0-0.1-0.1-0.2-0.1c-0.5-0.3-1.3-0.7-2-1.2c-1.5-1.1-2.7-2.6-2.7-4.6V6.9l5.3-2.4l5.3,2.4v3.6
			c0.5,0,1,0.2,1.5,0.4c0-0.1,0-0.2,0-0.3V6.4c0-0.3-0.2-0.6-0.4-0.7l-6.1-2.8c-0.2-0.1-0.4-0.1-0.6,0L3.4,5.7C3.2,5.8,3,6.1,3,6.4
			v4.1c0,2.7,1.8,4.6,3.4,5.8c0.8,0.6,1.6,1,2.2,1.3c0.3,0.1,0.6,0.3,0.7,0.3C9.4,18,9.5,18,9.5,18l0,0l0,0l0,0l0,0l0,0
			c0.1,0,0.2,0,0.3,0C9.7,17.5,9.5,16.9,9.4,16.3z"/>
	</g>
</g>
</svg>
