<svg width="24" height="24" viewBox="0 0 24 24" fill="none" xmlns="http://www.w3.org/2000/svg">
<path d="M5.47958 4.89379C4.57683 5.6272 4 6.74624 4 8C4 8.55228 3.55228 9 3 9C2.44772 9 2 8.55228 2 8C2 4.68629 4.68629 2 8 2C8.34658 2 8.66844 2.17945 8.85065 2.47427C9.03286 2.76909 9.04942 3.13723 8.89443 3.44721L7.89443 5.44721C7.75067 5.73472 7.47748 5.9356 7.16018 5.98709C6.84289 6.03858 6.52019 5.9344 6.29289 5.70711L5.47958 4.89379Z" fill="#9AA1B4"/>
<path fill-rule="evenodd" clip-rule="evenodd" d="M12.3284 3.11522C13.5 1.94365 15.3995 1.94365 16.5711 3.11522L20.8137 7.35786C21.9853 8.52944 21.9853 10.4289 20.8137 11.6005L11.6213 20.7929C10.4497 21.9645 8.55025 21.9645 7.37868 20.7929L3.13604 16.5503C1.96447 15.3787 1.96447 13.4792 3.13604 12.3076L12.3284 3.11522ZM15.1569 4.52944C14.7663 4.13891 14.1332 4.13891 13.7426 4.52944L4.55025 13.7218C4.15973 14.1123 4.15973 14.7455 4.55025 15.136L8.79289 19.3787C9.18342 19.7692 9.81658 19.7692 10.2071 19.3787L19.3995 10.1863C19.79 9.79577 19.79 9.1626 19.3995 8.77208L15.1569 4.52944Z" fill="#9AA1B4"/>
<path d="M20 16C20 17.2538 19.4232 18.3728 18.5204 19.1062L17.7071 18.2929C17.4798 18.0656 17.1571 17.9614 16.8398 18.0129C16.5225 18.0644 16.2493 18.2653 16.1056 18.5528L15.1056 20.5528C14.9506 20.8628 14.9671 21.2309 15.1493 21.5257C15.3316 21.8205 15.6534 22 16 22C19.3137 22 22 19.3137 22 16C22 15.4477 21.5523 15 21 15C20.4477 15 20 15.4477 20 16Z" fill="#9AA1B4"/>
</svg>
