<?xml version="1.0" encoding="utf-8"?>
<!-- Generator: Adobe Illustrator 27.0.0, SVG Export Plug-In . SVG Version: 6.00 Build 0)  -->
<svg version="1.1" id="Layer_1" xmlns="http://www.w3.org/2000/svg" xmlns:xlink="http://www.w3.org/1999/xlink" x="0px" y="0px"
	 viewBox="0 0 24 24" style="enable-background:new 0 0 24 24;" xml:space="preserve">
<path d="M3,9.4V18c0,0.8,0.3,1.6,0.9,2.1S5.2,21,6,21h12c0.8,0,1.6-0.3,2.1-0.9S21,18.8,21,18V6c0-0.8-0.3-1.6-0.9-2.1S18.8,3,18,3
	h-0.5h-3H9.4C8,3,6.6,3.6,5.7,4.5L4.5,5.7C3.6,6.6,3,8,3,9.4z M16,6.8c0,0.2-0.1,0.4-0.2,0.5c-0.1,0.1-0.3,0.2-0.5,0.2h-4
	c-0.2,0-0.4-0.1-0.5-0.2c-0.1-0.1-0.2-0.3-0.2-0.5v0c0-1.2,1-2.2,2.2-2.2h1.8h0.6c0.5,0,0.9,0.4,0.9,0.9V6.8z M7.5,14.2
	c0-0.2,0.1-0.4,0.2-0.5c0.1-0.1,0.3-0.2,0.5-0.2h7.5c0.2,0,0.4,0.1,0.5,0.2c0.1,0.1,0.2,0.3,0.2,0.5v3c0,1.2-1,2.2-2.2,2.2H9.7
	c-1.2,0-2.2-1-2.2-2.2V14.2z M4.5,9.4c0-1,0.4-1.9,1.1-2.7L7,5.3c0.2-0.2,0.5-0.4,0.8-0.5C8.3,4.5,9,4.9,9,5.6v1.2
	c0,0.6,0.2,1.2,0.7,1.6c0.4,0.4,1,0.7,1.6,0.7h4c0.6,0,1.2-0.2,1.6-0.7c0.4-0.4,0.7-1,0.7-1.6V5.9V4.6c0.1-0.1,0.4-0.1,0.4-0.1H18
	c0.4,0,0.8,0.2,1.1,0.4c0.3,0.3,0.4,0.7,0.4,1.1v12c0,0.4-0.2,0.8-0.4,1.1c-0.3,0.3-0.7,0.4-1.1,0.4v-5.2c0-0.6-0.2-1.2-0.7-1.6
	c-0.4-0.4-1-0.7-1.6-0.7H8.2c-0.6,0-1.2,0.2-1.6,0.7c-0.4,0.4-0.7,1-0.7,1.6v5.2c-0.4,0-0.8-0.2-1.1-0.4c-0.3-0.3-0.4-0.7-0.4-1.1
	V9.4z"/>
</svg>
