<svg width="24" height="24" viewBox="0 0 24 24" fill="none" xmlns="http://www.w3.org/2000/svg">
<path d="M20 7.5C20 6.39543 19.1046 5.5 18 5.5H6C4.89543 5.5 4 6.39543 4 7.5V12C4 12.5523 3.55228 13 3 13C2.44772 13 2 12.5523 2 12V7.5C2 5.29086 3.79086 3.5 6 3.5H18C20.2091 3.5 22 5.29086 22 7.5V16.5C22 18.7091 20.2091 20.5 18 20.5H12C11.4477 20.5 11 20.0523 11 19.5C11 18.9477 11.4477 18.5 12 18.5H18C19.1046 18.5 20 17.6046 20 16.5V7.5Z" fill="#9AA1B4"/>
<path d="M7.08817 7.69126C6.64152 7.36643 6.0161 7.46518 5.69126 7.91183C5.36643 8.35848 5.46518 8.9839 5.91183 9.30874L10.2355 12.4532C11.2874 13.2183 12.7126 13.2183 13.7645 12.4532L18.0882 9.30874C18.5348 8.9839 18.6336 8.35848 18.3087 7.91183C17.9839 7.46518 17.3585 7.36643 16.9118 7.69126L12.5882 10.8357C12.2375 11.0908 11.7625 11.0908 11.4118 10.8357L7.08817 7.69126Z" fill="#9AA1B4"/>
<path d="M6.58579 19L5.29289 20.2929C4.90237 20.6834 4.90237 21.3166 5.29289 21.7071C5.68342 22.0976 6.31658 22.0976 6.70711 21.7071L9.70711 18.7071C10.0976 18.3166 10.0976 17.6834 9.70711 17.2929L6.70711 14.2929C6.31658 13.9024 5.68342 13.9024 5.29289 14.2929C4.90237 14.6834 4.90237 15.3166 5.29289 15.7071L6.58579 17H3C2.44772 17 2 17.4477 2 18C2 18.5523 2.44772 19 3 19H6.58579Z" fill="#9AA1B4"/>
</svg>
