<svg width="16" height="16" viewBox="0 0 16 16" fill="none" xmlns="http://www.w3.org/2000/svg">
<path fill-rule="evenodd" clip-rule="evenodd" d="M3.3335 5.06667C3.3335 3.39082 4.65906 2 6.3335 2C8.0079 2 9.3335 3.39082 9.3335 5.06667V6.26667C9.3335 7.94253 8.0079 9.33333 6.3335 9.33333C4.65906 9.33333 3.3335 7.94253 3.3335 6.26667V5.06667ZM6.3335 3.33333C5.4306 3.33333 4.66683 4.09155 4.66683 5.06667V6.26667C4.66683 7.2418 5.4306 8 6.3335 8C7.23636 8 8.00016 7.2418 8.00016 6.26667V5.06667C8.00016 4.09155 7.23636 3.33333 6.3335 3.33333Z" fill="#9AA1B4"/>
<path fill-rule="evenodd" clip-rule="evenodd" d="M8.23367 4.85717C8.77407 4.32762 9.51607 4 10.3333 4C11.9901 4 13.3333 5.34314 13.3333 7C13.3333 8.65687 11.9901 10 10.3333 10C9.13554 10 8.10301 9.29807 7.62227 8.28607C7.46427 7.95347 7.60581 7.5558 7.93841 7.3978C8.27094 7.23987 8.66867 7.38133 8.82661 7.71393C9.09487 8.2786 9.66941 8.66667 10.3333 8.66667C11.2537 8.66667 11.9999 7.92047 11.9999 7C11.9999 6.07953 11.2537 5.33333 10.3333 5.33333C9.87887 5.33333 9.46814 5.51426 9.16687 5.80949C8.90387 6.06719 8.48181 6.06291 8.22407 5.79993C7.96641 5.53696 7.97067 5.11487 8.23367 4.85717Z" fill="#9AA1B4"/>
<path fill-rule="evenodd" clip-rule="evenodd" d="M2.71716 12.6667H9.94924C9.65324 10.7386 8.11357 9.33333 6.33319 9.33333C4.55281 9.33333 3.01314 10.7386 2.71716 12.6667ZM1.38262 12.5808C1.72057 10.0299 3.77373 8 6.33319 8C8.89264 8 10.9458 10.0299 11.2838 12.5808C11.3929 13.4047 10.7086 14 9.99984 14H2.66652C1.9577 14 1.27347 13.4047 1.38262 12.5808Z" fill="#9AA1B4"/>
<path fill-rule="evenodd" clip-rule="evenodd" d="M9.99982 10.0013C9.71102 10.0013 9.43175 10.0378 9.16602 10.1063C8.80942 10.198 8.44595 9.98337 8.35422 9.62684C8.26242 9.27024 8.47709 8.90684 8.83362 8.81504C9.20709 8.7189 9.59802 8.66797 9.99982 8.66797C12.314 8.66797 14.2335 10.3517 14.6026 12.5609C14.7437 13.4059 14.0332 14.0013 13.3332 14.0013H9.99982C9.63162 14.0013 9.33315 13.7028 9.33315 13.3346C9.33315 12.9664 9.63162 12.668 9.99982 12.668H13.2666C12.9581 11.1466 11.6121 10.0013 9.99982 10.0013Z" fill="#9AA1B4"/>
</svg>
