<?xml version="1.0" encoding="utf-8"?>
<!-- Generator: Adobe Illustrator 22.1.0, SVG Export Plug-In . SVG Version: 6.00 Build 0)  -->
<svg version="1.1" id="Layer_1" xmlns="http://www.w3.org/2000/svg" xmlns:xlink="http://www.w3.org/1999/xlink" x="0px" y="0px"
	 viewBox="0 0 25 24" style="enable-background:new 0 0 25 24;" xml:space="preserve">
<style type="text/css">
	.st0{fill:#9AA1B4;}
</style>
<path class="st0" d="M17.7,4.5c1.1,0,2,0.9,2,2V12c0,0.6,0.4,1,1,1c0.6,0,1-0.4,1-1V6.5c0-2.2-1.8-4-4-4h-11c-2.2,0-4,1.8-4,4v11
	c0,2.2,1.8,4,4,4h5c0.6,0,1-0.4,1-1s-0.4-1-1-1h-5c-1.1,0-2-0.9-2-2v-11c0-1.1,0.9-2,2-2H17.7z"/>
<path class="st0" d="M15.2,10c0,0.6,0.4,1,1,1c0.6,0,1-0.4,1-1V8c0-0.6-0.4-1-1-1c-0.6,0-1,0.4-1,1V10z"/>
<path class="st0" d="M12.2,15c-0.6,0-1-0.4-1-1V8c0-0.6,0.4-1,1-1c0.6,0,1,0.4,1,1v6C13.2,14.6,12.8,15,12.2,15z"/>
<path class="st0" d="M7.2,12c0,0.6,0.4,1,1,1c0.6,0,1-0.4,1-1V8c0-0.6-0.4-1-1-1c-0.6,0-1,0.4-1,1V12z"/>
<path class="st0" d="M21.8,20.7c-0.3-0.7-0.7-1.4-1.4-1.9c0.4-0.5,0.6-1.1,0.6-1.8c0-1.7-1.3-3-3-3c-1.7,0-3,1.3-3,3
	c0,0.7,0.2,1.3,0.6,1.8c-0.6,0.5-1.1,1.1-1.4,1.9c-0.2,0.5,0.1,1.1,0.6,1.3c0.5,0.2,1.1-0.1,1.3-0.6c0.3-0.8,1-1.3,1.9-1.3
	c0.9,0,1.6,0.6,1.9,1.3c0.2,0.5,0.8,0.8,1.3,0.6C21.8,21.8,22,21.2,21.8,20.7z M18.1,18c-0.6,0-1-0.4-1-1s0.4-1,1-1s1,0.4,1,1
	S18.6,18,18.1,18z"/>
</svg>
