<svg width="25" height="24" viewBox="0 0 25 24" fill="none" xmlns="http://www.w3.org/2000/svg">
<path d="M12.104 7C12.6563 7 13.104 7.44772 13.104 8V13C13.104 13.5523 12.6563 14 12.104 14C11.5517 14 11.104 13.5523 11.104 13V8C11.104 7.44772 11.5517 7 12.104 7Z" fill="#9AA1B4"/>
<path d="M13.104 16.5C13.104 17.0523 12.6563 17.5 12.104 17.5C11.5517 17.5 11.104 17.0523 11.104 16.5C11.104 15.9477 11.5517 15.5 12.104 15.5C12.6563 15.5 13.104 15.9477 13.104 16.5Z" fill="#9AA1B4"/>
<path fill-rule="evenodd" clip-rule="evenodd" d="M8.93243 2C8.13678 2 7.37372 2.31607 6.81111 2.87868L2.98268 6.70711C2.42007 7.26971 2.104 8.03278 2.104 8.82843V15.1716C2.104 15.9672 2.42007 16.7303 2.98268 17.2929L6.81111 21.1213C7.37372 21.6839 8.13678 22 8.93243 22H15.2756C16.0712 22 16.8343 21.6839 17.3969 21.1213L21.2253 17.2929C21.7879 16.7303 22.104 15.9672 22.104 15.1716V8.82843C22.104 8.03278 21.7879 7.26972 21.2253 6.70711L17.3969 2.87868C16.8343 2.31607 16.0712 2 15.2756 2H8.93243ZM8.22532 4.29289C8.41286 4.10536 8.66721 4 8.93243 4H15.2756C15.5408 4 15.7951 4.10536 15.9827 4.29289L19.8111 8.12132C19.9986 8.30886 20.104 8.56321 20.104 8.82843V15.1716C20.104 15.4368 19.9986 15.6911 19.8111 15.8787L15.9827 19.7071C15.7951 19.8946 15.5408 20 15.2756 20H8.93243C8.66721 20 8.41286 19.8946 8.22532 19.7071L4.3969 15.8787C4.20936 15.6911 4.104 15.4368 4.104 15.1716V8.82843C4.104 8.56321 4.20936 8.30886 4.3969 8.12132L8.22532 4.29289Z" fill="#9AA1B4"/>
</svg>
