<svg width="16" height="16" viewBox="0 0 16 16" fill="none" xmlns="http://www.w3.org/2000/svg">
<path d="M7.39123 2.39559C7.64025 1.86814 8.35975 1.86814 8.60877 2.39559L9.93695 5.20888C10.0358 5.41833 10.227 5.56351 10.4481 5.5971L13.418 6.04823C13.9748 6.13281 14.1972 6.84813 13.7942 7.2587L11.6452 9.44854C11.4852 9.61158 11.4122 9.84648 11.45 10.0767L11.9573 13.1688C12.0524 13.7485 11.4703 14.1906 10.9723 13.9169L8.31591 12.457C8.11813 12.3483 7.88186 12.3483 7.68409 12.457L5.02772 13.9169C4.52969 14.1906 3.9476 13.7485 4.04272 13.1688L4.55004 10.0767C4.58781 9.84648 4.5148 9.61158 4.3548 9.44854L2.20575 7.2587C1.80283 6.84813 2.02517 6.13281 2.58199 6.04823L5.5519 5.5971C5.77302 5.56351 5.96416 5.41833 6.06305 5.20888L7.39123 2.39559Z" fill="#F1AE04" stroke="#F1AE04" stroke-width="1.5" stroke-linecap="round" stroke-linejoin="round"/>
</svg>
