<?xml version="1.0" encoding="utf-8"?>
<!-- Generator: Adobe Illustrator 26.5.0, SVG Export Plug-In . SVG Version: 6.00 Build 0)  -->
<svg version="1.1" id="Layer_1" xmlns="http://www.w3.org/2000/svg" xmlns:xlink="http://www.w3.org/1999/xlink" x="0px" y="0px"
	 viewBox="0 0 16 16" style="enable-background:new 0 0 16 16;" xml:space="preserve">
<style type="text/css">
	.st0{fill:#F1AE04;}
</style>
<path class="st0" d="M14.9,6.2c-0.2-0.5-0.6-0.9-1.2-1l-3-0.4L9.3,1.9C9.1,1.3,8.6,1,8,1S6.9,1.3,6.7,1.9L5.3,4.7L2.3,5.2
	c-0.6,0.1-1,0.5-1.2,1C0.9,6.8,1,7.4,1.4,7.8L3.7,10l-0.5,3.2c-0.1,0.6,0.1,1.2,0.6,1.5c0.5,0.3,1.1,0.4,1.5,0.1L8,13.3l2.8,1.5
	c0.2,0.1,0.5,0.2,0.7,0.2c0.3,0,0.6-0.1,0.8-0.3c0.5-0.3,0.7-0.9,0.6-1.5L12.3,10l2.2-2.3C15,7.4,15.1,6.8,14.9,6.2z M7.4,2.2
	L7.4,2.2L7.4,2.2L7.4,2.2z"/>
</svg>
