<svg width="24" height="24" viewBox="0 0 24 24" fill="none" xmlns="http://www.w3.org/2000/svg">
<path d="M5.25 7.14983C5.25 4.44373 7.44373 2.25 10.1498 2.25H17C17.6904 2.25 18.25 2.80964 18.25 3.5C18.25 4.19036 17.6904 4.75 17 4.75H10.1498C8.82444 4.75 7.75 5.82444 7.75 7.14983C7.75 8.0909 8.30005 8.94513 9.15677 9.33455L9.52076 9.5H5.85039C5.4639 8.79314 5.25 7.98837 5.25 7.14983Z" fill="#9AA1B4"/>
<path d="M16.8811 13H19.5C20.0523 13 20.5 12.5523 20.5 12C20.5 11.4477 20.0523 11 19.5 11H4.5C3.94772 11 3.5 11.4477 3.5 12C3.5 12.5523 3.94772 13 4.5 13H11.1792L14.8432 14.6655C15.7 15.0549 16.25 15.9091 16.25 16.8502C16.25 18.1756 15.1756 19.25 13.8502 19.25H7C6.30964 19.25 5.75 19.8096 5.75 20.5C5.75 21.1904 6.30964 21.75 7 21.75H13.8502C16.5563 21.75 18.75 19.5563 18.75 16.8502C18.75 15.3273 18.0446 13.9159 16.8811 13Z" fill="#9AA1B4"/>
</svg>
