<?xml version="1.0" encoding="utf-8"?>
<!-- Generator: Adobe Illustrator 27.0.0, SVG Export Plug-In . SVG Version: 6.00 Build 0)  -->
<svg version="1.1" id="Layer_1" xmlns="http://www.w3.org/2000/svg" xmlns:xlink="http://www.w3.org/1999/xlink" x="0px" y="0px"
	 viewBox="0 0 24 24" style="enable-background:new 0 0 24 24;" xml:space="preserve">
<path d="M9.4,4l0,0.4c0,0.4-0.2,0.7-0.5,0.8c-2.2,1-3.7,3.2-3.7,5.7c0,1.9,0.8,3.5,2.1,4.7v-1.7c0-0.5,0.4-0.9,0.9-0.9h0.3
	c0.5,0,0.9,0.4,0.9,0.9v4.6c0,0.5-0.4,0.9-0.9,0.9H3.9C3.4,19.4,3,19,3,18.5v-0.3c0-0.5,0.4-0.9,0.9-0.9l1.9,0c0,0,0.1-0.1,0-0.1
	c-0.9-0.8-1.6-1.7-2-2.8C3.3,13.3,3,12.1,3,10.9c0-3.5,2.1-6.5,5.1-7.8C8.7,2.9,9.4,3.4,9.4,4z M19,2.5h-4.6c-0.5,0-0.9,0.4-0.9,0.9
	v4.6c0,0.5,0.4,0.9,0.9,0.9h0.3c0.5,0,0.9-0.4,0.9-0.9V6.3c1.1,1,1.9,2.4,2.1,3.9c0.1,0.4,0.4,0.8,0.9,0.8l0.3,0c0.6,0,1-0.5,0.9-1
	c-0.2-2.1-1.3-3.9-2.7-5.2c0,0,0-0.1,0-0.1l1.9,0c0.5,0,0.9-0.4,0.9-0.9V3.4C19.9,2.9,19.5,2.5,19,2.5z M19.9,16.2l0-0.8
	c0-1.1-0.7-2.1-1.8-2.3c-1.3-0.2-2.4,0.8-2.4,2.1v1.1c-0.6,0-1.1,0.5-1.1,1.1v3.2c0,0.6,0.5,1.1,1.1,1.1h3.2c1.2,0,2.1-0.9,2.1-2.1
	v-2.1C21,16.7,20.5,16.2,19.9,16.2C19.9,16.2,19.9,16.2,19.9,16.2z M18.9,16.2h-2.1v-1.1c0-0.6,0.5-1.1,1.1-1.1s1.1,0.5,1.1,1.1
	V16.2z"/>
</svg>
