<svg width="24" height="24" viewBox="0 0 24 24" fill="none" xmlns="http://www.w3.org/2000/svg">
<path fill-rule="evenodd" clip-rule="evenodd" d="M10.1163 3.79998C10.7484 2.03022 13.2512 2.03021 13.8833 3.79998L17.9415 15.1631C18.1273 15.6832 17.8562 16.2554 17.3361 16.4412C16.816 16.6269 16.2438 16.3559 16.058 15.8358L15.0451 12.9994H8.9545L7.94153 15.8358C7.75577 16.3559 7.18356 16.6269 6.66345 16.4412C6.14334 16.2554 5.87229 15.6832 6.05804 15.1631L10.1163 3.79998ZM9.66879 10.9994H14.3308L11.9998 4.47266L9.66879 10.9994Z" fill="#9AA1B4"/>
<path fill-rule="evenodd" clip-rule="evenodd" d="M4 20C4 18.8954 4.89543 18 6 18H18C19.1046 18 20 18.8954 20 20C20 21.1046 19.1046 22 18 22H6C4.89543 22 4 21.1046 4 20Z" fill="#9AA1B4"/>
</svg>
