<svg width="24" height="24" viewBox="0 0 24 24" fill="none" xmlns="http://www.w3.org/2000/svg">
<path d="M2 4C2 3.44772 2.44772 3 3 3H16C16.5523 3 17 3.44772 17 4V5C17 5.55228 16.5523 6 16 6C15.4477 6 15 5.55228 15 5H10.5V19H11C11.5523 19 12 19.4477 12 20C12 20.5523 11.5523 21 11 21H8C7.44772 21 7 20.5523 7 20C7 19.4477 7.44772 19 8 19H8.5V5H4C4 5.55228 3.55228 6 3 6C2.44772 6 2 5.55228 2 5V4Z" fill="#9AA1B4"/>
<path d="M14 11C14 11.5523 13.5523 12 13 12C12.4477 12 12 11.5523 12 11V10C12 9.44772 12.4477 9 13 9H21C21.5523 9 22 9.44772 22 10V11C22 11.5523 21.5523 12 21 12C20.4477 12 20 11.5523 20 11H18V19C18.5523 19 19 19.4477 19 20C19 20.5523 18.5523 21 18 21H16C15.4477 21 15 20.5523 15 20C15 19.4477 15.4477 19 16 19V11H14Z" fill="#9AA1B4"/>
</svg>
