<svg width="24" height="24" viewBox="0 0 24 24" fill="none" xmlns="http://www.w3.org/2000/svg">
<path fill-rule="evenodd" clip-rule="evenodd" d="M12 3.81818C7.48131 3.81818 3.81818 7.48131 3.81818 12C3.81818 16.5187 7.48131 20.1818 12 20.1818C16.5187 20.1818 20.1818 16.5187 20.1818 12C20.1818 7.48131 16.5187 3.81818 12 3.81818ZM2 12C2 6.47715 6.47715 2 12 2C17.5228 2 22 6.47715 22 12C22 17.5228 17.5228 22 12 22C6.47715 22 2 17.5228 2 12Z" fill="#9AA1B4"/>
<path fill-rule="evenodd" clip-rule="evenodd" d="M11.9655 7C12.4988 7 12.931 7.42495 12.931 7.94915V11.6238L14.7172 13.3797C15.0943 13.7504 15.0943 14.3513 14.7172 14.722C14.3401 15.0927 13.7288 15.0927 13.3518 14.722L11.2828 12.6881C11.1017 12.5101 11 12.2687 11 12.0169V7.94915C11 7.42495 11.4323 7 11.9655 7Z" fill="#9AA1B4"/>
</svg>
