<svg width="16" height="16" viewBox="0 0 16 16" fill="none" xmlns="http://www.w3.org/2000/svg">
<path d="M3.86128 3.19526C4.12163 2.93491 4.54374 2.93491 4.80409 3.19526C5.06444 3.45561 5.06444 3.87772 4.80409 4.13807L3.47075 5.4714C3.2104 5.73175 2.78829 5.73175 2.52794 5.4714L1.86128 4.80474C1.60093 4.54439 1.60093 4.12228 1.86128 3.86193C2.12163 3.60158 2.54374 3.60158 2.80409 3.86193L2.99935 4.05719L3.86128 3.19526Z" fill="#9AA1B4"/>
<path d="M13.9993 5.33333C14.3675 5.33333 14.666 5.03486 14.666 4.66667C14.666 4.29848 14.3675 4 13.9993 4L6.66602 4C6.29783 4 5.99935 4.29848 5.99935 4.66667C5.99935 5.03486 6.29783 5.33333 6.66602 5.33333L13.9993 5.33333Z" fill="#9AA1B4"/>
<path d="M13.9993 8.66667C14.3675 8.66667 14.666 8.36819 14.666 8C14.666 7.63181 14.3675 7.33333 13.9993 7.33333L6.66602 7.33333C6.29783 7.33333 5.99935 7.63181 5.99935 8C5.99935 8.36819 6.29783 8.66667 6.66602 8.66667L13.9993 8.66667Z" fill="#9AA1B4"/>
<path d="M14.666 11.3333C14.666 11.7015 14.3675 12 13.9993 12H6.66602C6.29783 12 5.99935 11.7015 5.99935 11.3333C5.99935 10.9651 6.29783 10.6667 6.66602 10.6667L13.9993 10.6667C14.3675 10.6667 14.666 10.9651 14.666 11.3333Z" fill="#9AA1B4"/>
<path d="M2.66602 10.3333C2.29783 10.3333 1.99935 10.6318 1.99935 11V11.6667C1.99935 12.0349 2.29783 12.3333 2.66602 12.3333H3.33268C3.70087 12.3333 3.99935 12.0349 3.99935 11.6667V11C3.99935 10.6318 3.70087 10.3333 3.33268 10.3333H2.66602Z" fill="#9AA1B4"/>
<path d="M4.80409 6.86193C4.54374 6.60158 4.12163 6.60158 3.86128 6.86193L2.99935 7.72386L2.80409 7.5286C2.54374 7.26825 2.12163 7.26825 1.86128 7.5286C1.60093 7.78894 1.60093 8.21105 1.86128 8.4714L2.52794 9.13807C2.78829 9.39842 3.2104 9.39842 3.47075 9.13807L4.80409 7.80474C5.06444 7.54439 5.06444 7.12228 4.80409 6.86193Z" fill="#9AA1B4"/>
</svg>
