<?xml version="1.0" encoding="utf-8"?>
<!-- Generator: Adobe Illustrator 26.5.0, SVG Export Plug-In . SVG Version: 6.00 Build 0)  -->
<svg version="1.1" id="Layer_1" xmlns="http://www.w3.org/2000/svg" xmlns:xlink="http://www.w3.org/1999/xlink" x="0px" y="0px"
	 viewBox="0 0 24 24" style="enable-background:new 0 0 24 24;" xml:space="preserve">
<style type="text/css">
	.st0{fill:#9AA1B4;}
</style>
<g>
	<path class="st0" d="M18.6,5.4h-5.1L10,2.3C9.8,2.2,9.5,2.1,9.2,2.1H5.4C3,2.1,1,4.1,1,6.5v11c0,2.4,2,4.4,4.4,4.4h13.2
		c2.4,0,4.4-2,4.4-4.4V9.8C23,7.4,21,5.4,18.6,5.4z M20.8,17.5c0,1.2-1,2.2-2.2,2.2H5.4c-1.2,0-2.2-1-2.2-2.2V8.7h4.4
		c0.7,0,1.1-0.4,1.1-1.1S8.3,6.5,7.6,6.5H3.2c0-1.2,1-2.2,2.2-2.2h3.4l3.5,3.1c0.2,0.1,0.6,0.2,0.8,0.2h5.5c1.2,0,2.2,1,2.2,2.2
		V17.5z"/>
	<path class="st0" d="M14.4,10.7c-0.3-0.3-0.8-0.4-1.2-0.2c-0.4,0.2-0.7,0.6-0.7,1v1.1H9.8c-0.7,0-1.1,0.4-1.1,1.1
		c0,0.7,0.4,1.1,1.1,1.1h2.8v1.1c0,0.4,0.2,0.9,0.7,1c0.4,0.1,0.9,0.1,1.2-0.2l2.2-2.2c0.2-0.2,0.3-0.4,0.3-0.8
		c0-0.3-0.1-0.6-0.3-0.8L14.4,10.7z"/>
</g>
</svg>
