<svg width="16" height="16" viewBox="0 0 16 16" fill="none" xmlns="http://www.w3.org/2000/svg">
<path fill-rule="evenodd" clip-rule="evenodd" d="M3.5 4.25C3.91421 4.25 4.25 4.58579 4.25 5V12C4.25 12.6904 4.80964 13.25 5.5 13.25H10.5C11.1904 13.25 11.75 12.6904 11.75 12V5C11.75 4.58579 12.0858 4.25 12.5 4.25C12.9142 4.25 13.25 4.58579 13.25 5V12C13.25 13.5188 12.0188 14.75 10.5 14.75H5.5C3.98122 14.75 2.75 13.5188 2.75 12V5C2.75 4.58579 3.08579 4.25 3.5 4.25Z" fill="#9AA1B4"/>
<path fill-rule="evenodd" clip-rule="evenodd" d="M1.25 4.5C1.25 4.08579 1.58579 3.75 2 3.75H14C14.4142 3.75 14.75 4.08579 14.75 4.5C14.75 4.91421 14.4142 5.25 14 5.25H2C1.58579 5.25 1.25 4.91421 1.25 4.5Z" fill="#9AA1B4"/>
<path fill-rule="evenodd" clip-rule="evenodd" d="M4.25 2C4.25 1.58579 4.58579 1.25 5 1.25L11 1.25C11.4142 1.25 11.75 1.58579 11.75 2C11.75 2.41421 11.4142 2.75 11 2.75L5 2.75C4.58579 2.75 4.25 2.41421 4.25 2Z" fill="#9AA1B4"/>
<path fill-rule="evenodd" clip-rule="evenodd" d="M6.5 6.75C6.91421 6.75 7.25 7.08579 7.25 7.5V11C7.25 11.4142 6.91421 11.75 6.5 11.75C6.08579 11.75 5.75 11.4142 5.75 11V7.5C5.75 7.08579 6.08579 6.75 6.5 6.75ZM9.5 6.75C9.91421 6.75 10.25 7.08579 10.25 7.5V11C10.25 11.4142 9.91421 11.75 9.5 11.75C9.08579 11.75 8.75 11.4142 8.75 11V7.5C8.75 7.08579 9.08579 6.75 9.5 6.75Z" fill="#9AA1B4"/>
</svg>
