<?xml version="1.0" encoding="utf-8"?>
<!-- Generator: Adobe Illustrator 22.1.0, SVG Export Plug-In . SVG Version: 6.00 Build 0)  -->
<svg version="1.1" id="Layer_1" xmlns="http://www.w3.org/2000/svg" xmlns:xlink="http://www.w3.org/1999/xlink" x="0px" y="0px"
	 viewBox="0 0 24 24" style="enable-background:new 0 0 24 24;" xml:space="preserve">
<style type="text/css">
	.st0{fill:#9AA1B4;}
</style>
<g>
	<path class="st0" d="M20.9,6.4l-1.7-2.3c-0.8-1-1.9-1.6-3.2-1.6H8c-1.3,0-2.4,0.6-3.2,1.6L3.1,6.4C2.7,6.9,2.5,7.5,2.5,8.2v9.3
		c0,2.2,1.8,4,4,4h11c2.2,0,4-1.8,4-4V8.2C21.5,7.5,21.3,6.9,20.9,6.4z M6.4,5.3c0.4-0.5,1-0.8,1.6-0.8h8c0.6,0,1.2,0.3,1.6,0.8
		l0.9,1.2h-13L6.4,5.3z M19.5,17.5c0,1.1-0.9,2-2,2h-11c-1.1,0-2-0.9-2-2v-9h15V17.5z"/>
	<path class="st0" d="M10,14.5h1v2c0,0.6,0.4,1,1,1s1-0.4,1-1v-2h1c0.4,0,0.7-0.2,0.9-0.6c0.2-0.3,0.1-0.8-0.1-1.1l-2-2.5
		C12.6,10.1,12.3,10,12,10s-0.6,0.1-0.8,0.4l-2,2.5c-0.2,0.3-0.3,0.7-0.1,1.1C9.3,14.3,9.6,14.5,10,14.5z"/>
</g>
</svg>
