<?xml version="1.0" encoding="utf-8"?>
<!-- Generator: Adobe Illustrator 22.1.0, SVG Export Plug-In . SVG Version: 6.00 Build 0)  -->
<svg version="1.1" id="Layer_1" xmlns="http://www.w3.org/2000/svg" xmlns:xlink="http://www.w3.org/1999/xlink" x="0px" y="0px"
	 viewBox="0 0 25 24" style="enable-background:new 0 0 25 24;" xml:space="preserve">
<style type="text/css">
	.st0{fill:#9AA1B4;}
</style>
<g>
	<path class="st0" d="M12.2,2c-5.5,0-10,4.5-10,10s4.5,10,10,10s10-4.5,10-10S17.8,2,12.2,2z M12.2,20c-4.4,0-8-3.6-8-8s3.6-8,8-8
		c4.4,0,8,3.6,8,8S16.7,20,12.2,20z"/>
	<path class="st0" d="M14.8,8.9l-3.1,3.8L10.1,11c-0.4-0.5-1.1-0.5-1.5-0.1c-0.4,0.4-0.5,1.1-0.1,1.5l2.4,2.7
		c0.2,0.2,0.5,0.4,0.8,0.4c0.3,0,0.6-0.2,0.8-0.4l3.9-4.8c0.4-0.5,0.3-1.1-0.1-1.5C15.9,8.4,15.2,8.4,14.8,8.9z M16,9.1
		C16,9.1,15.9,9.1,15.8,9C15.9,9.1,16,9.1,16,9.1C16.1,9.2,16.1,9.2,16,9.1C16.1,9.2,16.1,9.2,16,9.1z"/>
</g>
</svg>
