<svg width="24" height="24" viewBox="0 0 24 24" fill="none" xmlns="http://www.w3.org/2000/svg">
<path d="M3.5 7.5C4.32843 7.5 5 6.82843 5 6C5 5.17157 4.32843 4.5 3.5 4.5C2.67157 4.5 2 5.17157 2 6C2 6.82843 2.67157 7.5 3.5 7.5Z" fill="#9AA1B4"/>
<path d="M21 7C21.5523 7 22 6.55228 22 6C22 5.44772 21.5523 5 21 5L9 5C8.44771 5 8 5.44771 8 6C8 6.55228 8.44771 7 9 7L21 7Z" fill="#9AA1B4"/>
<path d="M21 13C21.5523 13 22 12.5523 22 12C22 11.4477 21.5523 11 21 11L9 11C8.44771 11 8 11.4477 8 12C8 12.5523 8.44771 13 9 13L21 13Z" fill="#9AA1B4"/>
<path d="M22 18C22 18.5523 21.5523 19 21 19L9 19C8.44771 19 8 18.5523 8 18C8 17.4477 8.44771 17 9 17L21 17C21.5523 17 22 17.4477 22 18Z" fill="#9AA1B4"/>
<path d="M3.5 19.5C4.32843 19.5 5 18.8284 5 18C5 17.1716 4.32843 16.5 3.5 16.5C2.67157 16.5 2 17.1716 2 18C2 18.8284 2.67157 19.5 3.5 19.5Z" fill="#9AA1B4"/>
<path d="M5 12C5 12.8284 4.32843 13.5 3.5 13.5C2.67157 13.5 2 12.8284 2 12C2 11.1716 2.67157 10.5 3.5 10.5C4.32843 10.5 5 11.1716 5 12Z" fill="#9AA1B4"/>
</svg>
