<svg width="17" height="16" viewBox="0 0 17 16" fill="none" xmlns="http://www.w3.org/2000/svg">
<path d="M12.5756 6.4701C12.8359 6.20975 12.8359 5.78764 12.5756 5.52729L8.57596 1.52768C8.45093 1.40266 8.28098 1.33203 8.10417 1.33203C7.92736 1.33203 7.75779 1.40227 7.63276 1.52729L3.63276 5.52729C3.37241 5.78764 3.37241 6.20975 3.63276 6.4701C3.89311 6.73045 4.31522 6.73045 4.57557 6.4701L7.4375 3.60817V9.9987C7.4375 10.3669 7.73598 10.6654 8.10417 10.6654C8.47236 10.6654 8.77083 10.3669 8.77083 9.9987V3.60817L11.6328 6.4701C11.8931 6.73045 12.3152 6.73045 12.5756 6.4701Z" fill="#9AA1B4"/>
<path d="M2.77083 10.6654C2.77083 10.2972 2.47236 9.9987 2.10417 9.9987C1.73598 9.9987 1.4375 10.2972 1.4375 10.6654V11.9987C1.4375 13.4715 2.63141 14.6654 4.10417 14.6654H12.1042C13.5769 14.6654 14.7708 13.4715 14.7708 11.9987V10.6654C14.7708 10.2972 14.4724 9.9987 14.1042 9.9987C13.736 9.9987 13.4375 10.2972 13.4375 10.6654V11.9987C13.4375 12.7351 12.8405 13.332 12.1042 13.332H4.10417C3.36779 13.332 2.77083 12.7351 2.77083 11.9987V10.6654Z" fill="#9AA1B4"/>
</svg>
