<svg width="25" height="24" viewBox="0 0 25 24" fill="none" xmlns="http://www.w3.org/2000/svg">
<path fill-rule="evenodd" clip-rule="evenodd" d="M12.4771 2C9.71563 2 7.47705 4.23858 7.47705 7C7.47705 9.76142 9.71563 12 12.4771 12C15.2385 12 17.4771 9.76142 17.4771 7C17.4771 4.23858 15.2385 2 12.4771 2ZM9.47705 7C9.47705 5.34315 10.8202 4 12.4771 4C14.1339 4 15.4771 5.34315 15.4771 7C15.4771 8.65685 14.1339 10 12.4771 10C10.8202 10 9.47705 8.65685 9.47705 7Z" fill="#9AA1B4"/>
<path fill-rule="evenodd" clip-rule="evenodd" d="M12.4771 13C10.1106 13 7.90704 13.6007 6.26376 14.7012C4.61001 15.8087 3.47705 17.467 3.47705 19.5058V20C3.47705 21.1046 4.37248 22 5.47705 22H19.4771C20.5816 22 21.4771 21.1046 21.4771 20V19.5058C21.4771 17.467 20.3441 15.8087 18.6903 14.7012C17.0471 13.6007 14.8435 13 12.4771 13ZM5.47705 19.5058C5.47705 18.2891 6.13495 17.1945 7.37663 16.363C8.62878 15.5244 10.4252 15 12.4771 15C14.5289 15 16.3253 15.5244 17.5775 16.363C18.8192 17.1945 19.4771 18.2891 19.4771 19.5058V20H5.47705V19.5058Z" fill="#9AA1B4"/>
</svg>
