<?xml version="1.0" encoding="utf-8"?>
<!-- Generator: Adobe Illustrator 27.0.0, SVG Export Plug-In . SVG Version: 6.00 Build 0)  -->
<svg version="1.1" id="Layer_1" xmlns="http://www.w3.org/2000/svg" xmlns:xlink="http://www.w3.org/1999/xlink" x="0px" y="0px"
	 viewBox="0 0 24 24" style="enable-background:new 0 0 24 24;" xml:space="preserve">
<style type="text/css">
	.st0{fill:#9AA1B4;}
	.st1{fill-rule:evenodd;clip-rule:evenodd;fill:#9AA1B4;}
</style>
<g>
	<path class="st0" d="M10.8,10.7c2.7,0,4.7-2.1,4.7-4.7s-2.1-4.7-4.7-4.7S6.1,3.3,6.1,6S8.1,10.7,10.8,10.7z M10.8,3.1
		c1.6,0,2.8,1.2,2.8,2.8s-1.2,2.8-2.8,2.8S8,7.6,8,6S9.3,3.1,10.8,3.1z"/>
	<g>
		<path class="st0" d="M21,18h-7.9c-0.7,0-1.1,0.6-1.1,1.1s0.6,1.1,1.1,1.1h5l-1.6,2v0.1c0,0.1,0.1,0.3,0.3,0.3h2
			c0.4,0,0.9-0.1,1.1-0.6l2-2.6c0.1-0.1,0.3-0.4,0.3-0.7C22.2,18.5,21.6,18,21,18z"/>
		<path class="st0" d="M13,16h7.9c0.7,0,1.1-0.6,1.1-1.1s-0.6-1.1-1.1-1.1h-5l1.6-2v-0.1c0-0.1-0.1-0.3-0.3-0.3h-2
			c-0.4,0-0.9,0.1-1.1,0.6l-1.9,2.4c-0.1,0.1-0.3,0.4-0.3,0.7C11.8,15.6,12.4,16,13,16z"/>
	</g>
	<path class="st1" d="M10,18.7H3.7v-0.5c0-1.2,0.6-2.3,1.9-3.1c1.2-0.8,2.9-1.3,4.9-1.3c0.5-0.7,1.5-2,1.5-2s-0.8,0-1.4,0
		c-2.3,0-4.5,0.6-6.1,1.7c-1.6,1.1-2.7,2.7-2.7,4.7v0.5c0,1.1,0.9,2,2,2h7.5C10,20.4,10,19.3,10,18.7z"/>
</g>
</svg>
