<?xml version="1.0" encoding="utf-8"?>
<!-- Generator: Adobe Illustrator 27.0.0, SVG Export Plug-In . SVG Version: 6.00 Build 0)  -->
<svg version="1.1" id="Layer_1" xmlns="http://www.w3.org/2000/svg" xmlns:xlink="http://www.w3.org/1999/xlink" x="0px" y="0px"
	 viewBox="0 0 24 24" style="enable-background:new 0 0 24 24;" xml:space="preserve">
<style type="text/css">
	.st0{fill-rule:evenodd;clip-rule:evenodd;fill:#9AA1B4;}
</style>
<g>
	<path class="st0" d="M20.4,1.8c-0.3-0.3-0.6-0.4-1-0.4H4.6c-0.4,0-0.7,0.1-1,0.4C3.4,2,3.3,2.4,3.3,2.7v12.9c0,0.9,0.2,1.7,0.7,2.5
		c0.5,0.8,1.1,1.4,1.9,1.8l5.5,2.8c0.2,0.1,0.4,0.1,0.6,0.1s0.4,0,0.6-0.1l5.5-2.8c0.8-0.4,1.5-1,1.9-1.8c0.5-0.8,0.7-1.6,0.7-2.5
		V2.7C20.8,2.4,20.6,2,20.4,1.8z M19.3,15.6c0,0.6-0.2,1.2-0.5,1.7c-0.3,0.5-0.8,0.9-1.3,1.2l-5.1,2.5c-0.2,0.1-0.5,0.1-0.7,0
		l-5.1-2.5c-0.5-0.3-1-0.7-1.3-1.2c-0.3-0.5-0.5-1.1-0.5-1.7v-12c0-0.4,0.4-0.8,0.8-0.8h12.9c0.4,0,0.8,0.4,0.8,0.8V15.6z"/>
	<path class="st0" d="M12,10.6c1.8,0,3.2-1.4,3.2-3.2c0-1.8-1.4-3.2-3.2-3.2S8.8,5.6,8.8,7.4C8.8,9.1,10.2,10.6,12,10.6z M12,5.4
		c1.1,0,1.9,0.9,1.9,1.9S13.1,9.3,12,9.3c-1.1,0-1.9-0.9-1.9-1.9S11,5.4,12,5.4z"/>
	<path class="st0" d="M16,12.3c-1.1-0.7-2.5-1.1-4-1.1c-1.5,0-2.9,0.4-4,1.1C7,13,6.2,14.1,6.2,15.4v0.3c0,0.7,0.6,1.3,1.3,1.3h9
		c0.7,0,1.3-0.6,1.3-1.3v-0.3C17.8,14.1,17.1,13,16,12.3z M16.5,15.7h-9v-0.3c0-0.8,0.4-1.5,1.2-2c0.8-0.5,2-0.9,3.3-0.9
		s2.5,0.3,3.3,0.9c0.8,0.5,1.2,1.2,1.2,2V15.7z"/>
</g>
</svg>
