<?xml version="1.0" encoding="utf-8"?>
<!-- Generator: Adobe Illustrator 22.1.0, SVG Export Plug-In . SVG Version: 6.00 Build 0)  -->
<svg version="1.1" id="Layer_1" xmlns="http://www.w3.org/2000/svg" xmlns:xlink="http://www.w3.org/1999/xlink" x="0px" y="0px"
	 viewBox="0 0 24 24" style="enable-background:new 0 0 24 24;" xml:space="preserve">
<style type="text/css">
	.st0{fill:#9AA1B4;}
</style>
<path class="st0" d="M11.8,2C7.1,2,3,5.3,3,9.7c0,0.4,0.2,0.7,0.5,0.9c0.3,0.2,0.7,0.2,1,0C5.1,10.2,5.6,10,6.1,10
	c0.5,0,1,0.2,1.8,0.5c0.2,0.1,0.3,0.1,0.5,0.1c0.2,0,0.4,0,0.5-0.1c0.7-0.3,1.3-0.5,1.9-0.7V16h2V9.9c0.6,0.1,1.3,0.3,1.9,0.6
	c0.2,0.1,0.3,0.1,0.5,0.1c0.2,0,0.4,0,0.5-0.1c0.7-0.4,1.2-0.5,1.7-0.5c0.5,0,1,0.1,1.6,0.5c0.3,0.2,0.7,0.2,1,0
	c0.3-0.2,0.5-0.5,0.5-0.9C20.6,5.3,16.5,2,11.8,2z M7.5,8.3C7,8.1,6.6,8,6.1,8c-0.3,0-0.6,0-0.8,0.1c0.5-1.4,1.6-2.6,3.1-3.4
	C8,5.7,7.6,6.9,7.5,8.3z M11.9,7.8c-0.8,0-1.6,0.1-2.4,0.3c0.1-1.1,0.4-2,0.8-2.7C10.9,4.3,11.4,4,11.8,4c0.3,0,0.9,0.3,1.5,1.4
	c0.4,0.7,0.6,1.7,0.8,2.8C13.3,8,12.7,7.8,11.9,7.8z M17.4,8C17,8,16.5,8.1,16,8.2c-0.1-1.3-0.4-2.5-0.9-3.5c1.5,0.7,2.7,2,3.1,3.4
	C18,8.1,17.7,8,17.4,8z"/>
<path class="st0" d="M21.7,12.3c0.4,0.4,0.4,1,0,1.4L18.4,17l3.3,3.3c0.4,0.4,0.4,1,0,1.4c-0.4,0.4-1,0.4-1.4,0L17,18.4l-0.8,0.8
	c-0.2,0.2-0.4,0.3-0.7,0.3H5.9l-2.2,2.2c-0.4,0.4-1,0.4-1.4,0c-0.4-0.4-0.4-1,0-1.4l2.5-2.5c0.2-0.2,0.4-0.3,0.7-0.3h9.6l5.2-5.2
	C20.7,11.9,21.3,11.9,21.7,12.3z"/>
</svg>
