<?xml version="1.0" encoding="utf-8"?>
<!-- Generator: Adobe Illustrator 22.1.0, SVG Export Plug-In . SVG Version: 6.00 Build 0)  -->
<svg version="1.1" id="Layer_1" xmlns="http://www.w3.org/2000/svg" xmlns:xlink="http://www.w3.org/1999/xlink" x="0px" y="0px"
	 viewBox="0 0 25 24" style="enable-background:new 0 0 25 24;" xml:space="preserve">
<style type="text/css">
	.st0{fill:#9AA1B4;}
</style>
<path class="st0" d="M21.4,2.3c-0.4-0.4-1-0.3-1.4,0.1l-3,3.4C16.2,4.7,15,4,13.7,4h-7c-2.2,0-4,1.8-4,4v8c0,1.5,0.8,2.8,2,3.5
	L4,20.3c-0.4,0.4-0.3,1,0.1,1.4c0.4,0.4,1,0.3,1.4-0.1l16-18C21.8,3.3,21.8,2.6,21.4,2.3z M6.1,17.9c-0.8-0.3-1.4-1-1.4-1.9V8
	c0-1.1,0.9-2,2-2h7c0.8,0,1.6,0.5,1.9,1.3L6.1,17.9z"/>
<path class="st0" d="M13.7,18h-2.6l-1.8,2h4.3c2,0,3.6-1.4,3.9-3.3l2,1.2c1.3,0.8,3-0.2,3-1.7V6c0-0.3-0.1-0.5-0.3-0.7l-1.7,1.9v9
	l-3-1.8v-3.8l-2,2.3V16C15.7,17.1,14.8,18,13.7,18z"/>
</svg>
