<?xml version="1.0" encoding="utf-8"?>
<!-- Generator: Adobe Illustrator 22.1.0, SVG Export Plug-In . SVG Version: 6.00 Build 0)  -->
<svg version="1.1" id="Layer_1" xmlns="http://www.w3.org/2000/svg" xmlns:xlink="http://www.w3.org/1999/xlink" x="0px" y="0px"
	 viewBox="0 0 25 24" style="enable-background:new 0 0 25 24;" xml:space="preserve">
<style type="text/css">
	.st0{fill:#9AA1B4;}
</style>
<path class="st0" d="M19.7,6.1l-2,1.2c-0.3-1.9-2-3.3-3.9-3.3h-7c-2.2,0-4,1.8-4,4v8c0,2.2,1.8,4,4,4h7c2,0,3.6-1.4,3.9-3.3l2,1.2
	c1.3,0.8,3-0.2,3-1.7V7.8C22.7,6.2,21,5.3,19.7,6.1z M15.7,16c0,1.1-0.9,2-2,2h-7c-1.1,0-2-0.9-2-2V8c0-1.1,0.9-2,2-2h7
	c1.1,0,2,0.9,2,2V16z M20.7,16.2l-3-1.8V9.6l3-1.8V16.2z"/>
</svg>
