<svg width="25" height="24" viewBox="0 0 25 24" fill="none" xmlns="http://www.w3.org/2000/svg">
<path d="M2.104 7C2.104 4.79086 3.89487 3 6.104 3H9.604C9.84272 3 10.0736 3.08539 10.2548 3.24074L13.4739 6H18.104C20.3131 6 22.104 7.79086 22.104 10V17C22.104 19.2091 20.3131 21 18.104 21H11.604C11.0517 21 10.604 20.5523 10.604 20C10.604 19.4477 11.0517 19 11.604 19H18.104C19.2086 19 20.104 18.1046 20.104 17V10C20.104 8.89543 19.2086 8 18.104 8H13.104C12.8653 8 12.6345 7.91461 12.4532 7.75926L9.23408 5H6.104C4.99943 5 4.104 5.89543 4.104 7L8.104 7C8.65629 7 9.104 7.44772 9.104 8C9.104 8.55228 8.65629 9 8.104 9H4.104V12.5C4.104 13.0523 3.65629 13.5 3.104 13.5C2.55172 13.5 2.104 13.0523 2.104 12.5V7Z" fill="#9AA1B4"/>
<path d="M4.104 15C3.55172 15 3.104 15.4477 3.104 16C3.104 16.5523 3.55172 17 4.104 17H5.68979L2.3969 20.2929C2.00637 20.6834 2.00637 21.3166 2.3969 21.7071C2.78742 22.0976 3.42059 22.0976 3.81111 21.7071L7.104 18.4142V20C7.104 20.5523 7.55172 21 8.104 21C8.65629 21 9.104 20.5523 9.104 20V16C9.104 15.4477 8.65629 15 8.104 15H4.104Z" fill="#9AA1B4"/>
</svg>
