<svg width="24" height="24" viewBox="0 0 24 24" fill="none" xmlns="http://www.w3.org/2000/svg">
<path fill-rule="evenodd" clip-rule="evenodd" d="M4 16C4 15.4477 4.44772 15 5 15H11C12.6569 15 14 16.3431 14 18C14 19.6569 12.6569 21 11 21C10.4477 21 10 20.5523 10 20C10 19.4477 10.4477 19 11 19C11.5523 19 12 18.5523 12 18C12 17.4477 11.5523 17 11 17H5C4.44772 17 4 16.5523 4 16Z" fill="#9AA1B4"/>
<path fill-rule="evenodd" clip-rule="evenodd" d="M2 12C2 11.4477 2.44772 11 3 11H17.2469C19.8051 11 22 12.9501 22 15.5C22 16.7832 21.433 17.9296 20.5481 18.7382C20.1404 19.1108 19.5079 19.0823 19.1353 18.6746C18.7628 18.2669 18.7912 17.6344 19.1989 17.2618C19.7044 16.7999 20 16.1755 20 15.5C20 14.1839 18.8343 13 17.2469 13H3C2.44772 13 2 12.5523 2 12Z" fill="#9AA1B4"/>
<path fill-rule="evenodd" clip-rule="evenodd" d="M4 8C4 8.55228 4.44772 9 5 9H17C18.6569 9 20 7.65685 20 6C20 4.34315 18.6569 3 17 3C16.4477 3 16 3.44772 16 4C16 4.55228 16.4477 5 17 5C17.5523 5 18 5.44772 18 6C18 6.55228 17.5523 7 17 7H5C4.44772 7 4 7.44772 4 8Z" fill="#9AA1B4"/>
</svg>
