<svg width="24" height="24" viewBox="0 0 24 24" fill="none" xmlns="http://www.w3.org/2000/svg">
<path fill-rule="evenodd" clip-rule="evenodd" d="M4.00003 12.5C4.00003 11.3954 4.89546 10.5 6.00003 10.5H18C19.1046 10.5 20 11.3954 20 12.5V19.5858L20.7071 20.2929C20.9931 20.5789 21.0787 21.009 20.9239 21.3827C20.7691 21.7564 20.4045 22 20 22H4.00003C3.59557 22 3.23093 21.7564 3.07615 21.3827C2.92137 21.009 3.00692 20.5789 3.29292 20.2929L4.00003 19.5858V12.5ZM6.00003 20H18V12.5H6.00003V20Z" fill="#9AA1B4"/>
<path fill-rule="evenodd" clip-rule="evenodd" d="M12 4C11.0335 4 10.25 4.7835 10.25 5.75C10.25 6.7165 11.0335 7.5 12 7.5C12.9665 7.5 13.75 6.7165 13.75 5.75C13.75 4.7835 12.9665 4 12 4ZM8.25 5.75C8.25 3.67893 9.92893 2 12 2C14.0711 2 15.75 3.67893 15.75 5.75C15.75 7.82107 14.0711 9.5 12 9.5C9.92893 9.5 8.25 7.82107 8.25 5.75Z" fill="#9AA1B4"/>
<path d="M13.25 16C13.25 16.6904 12.6904 17.25 12 17.25C11.3096 17.25 10.75 16.6904 10.75 16C10.75 15.3096 11.3096 14.75 12 14.75C12.6904 14.75 13.25 15.3096 13.25 16Z" fill="#9AA1B4"/>
</svg>
