<svg width="25" height="24" viewBox="0 0 25 24" fill="none" xmlns="http://www.w3.org/2000/svg">
<path fill-rule="evenodd" clip-rule="evenodd" d="M2.24658 6C2.24658 4.34315 3.58973 3 5.24658 3H7.24658C8.90344 3 10.2466 4.34315 10.2466 6V8C10.2466 9.65685 8.90344 11 7.24658 11V14C7.24658 15.1046 8.14201 16 9.24658 16H14.2466C14.2466 14.3431 15.5897 13 17.2466 13H19.2466C20.9034 13 22.2466 14.3431 22.2466 16V18C22.2466 19.6569 20.9034 21 19.2466 21H17.2466C15.5897 21 14.2466 19.6569 14.2466 18H9.24658C7.03744 18 5.24658 16.2091 5.24658 14V11C3.58973 11 2.24658 9.65685 2.24658 8V6ZM6.24658 9H7.24658C7.79887 9 8.24658 8.55228 8.24658 8V6C8.24658 5.44772 7.79887 5 7.24658 5H5.24658C4.6943 5 4.24658 5.44772 4.24658 6V8C4.24658 8.55228 4.6943 9 5.24658 9H6.24658ZM17.2466 15C16.6943 15 16.2466 15.4477 16.2466 16V18C16.2466 18.5523 16.6943 19 17.2466 19H19.2466C19.7989 19 20.2466 18.5523 20.2466 18V16C20.2466 15.4477 19.7989 15 19.2466 15H17.2466Z" fill="#9AA1B4"/>
</svg>
