<?xml version="1.0" encoding="utf-8"?>
<!-- Generator: Adobe Illustrator 22.1.0, SVG Export Plug-In . SVG Version: 6.00 Build 0)  -->
<svg version="1.1" id="Layer_1" xmlns="http://www.w3.org/2000/svg" xmlns:xlink="http://www.w3.org/1999/xlink" x="0px" y="0px"
	 viewBox="0 0 24 24" style="enable-background:new 0 0 24 24;" xml:space="preserve">
<style type="text/css">
	.st0{fill:#9AA1B4;}
</style>
<g>
	<path class="st0" d="M21.6,9.2l-9-7c-0.4-0.3-0.9-0.3-1.2,0l-9,7c-0.4,0.3-0.5,1-0.2,1.4c0.3,0.4,0.9,0.5,1.3,0.2v9.7
		c0,0.6,0.4,1,1,1h15c0.6,0,1-0.4,1-1v-9.7c0.4,0.3,1,0.2,1.3-0.2C22.1,10.2,22,9.5,21.6,9.2z M5.5,19.5V9.3L12,4.3l6.5,5.1v10.2
		H5.5z"/>
	<path class="st0" d="M15,10h-0.5c0-0.6-0.4-1-1-1h-3c-0.6,0-1,0.4-1,1H9c-1.1,0-2,0.9-2,2v4c0,1.1,0.9,2,2,2h6c1.1,0,2-0.9,2-2v-4
		C17,10.9,16.1,10,15,10z M15,16H9v-3.5h1.5c0,0.6,0.4,1,1,1h1c0.6,0,1-0.4,1-1H15V16z"/>
</g>
</svg>
