<svg width="24" height="24" viewBox="0 0 24 24" fill="none" xmlns="http://www.w3.org/2000/svg">
<path fill-rule="evenodd" clip-rule="evenodd" d="M21.7071 16.2929C22.0976 16.6834 22.0976 17.3166 21.7071 17.7071L17.7071 21.7071C17.3166 22.0976 16.6834 22.0976 16.2929 21.7071L14.2929 19.7071C13.9024 19.3166 13.9024 18.6834 14.2929 18.2929C14.6834 17.9024 15.3166 17.9024 15.7071 18.2929L17 19.5858L20.2929 16.2929C20.6834 15.9024 21.3166 15.9024 21.7071 16.2929Z" fill="#9AA1B4"/>
<path fill-rule="evenodd" clip-rule="evenodd" d="M2 9C2 6.79086 3.79086 5 6 5H18C20.2091 5 22 6.79086 22 9V13C22 13.5523 21.5523 14 21 14C20.4477 14 20 13.5523 20 13V9C20 7.89543 19.1046 7 18 7H6C4.89543 7 4 7.89543 4 9V17C4 18.1046 4.89543 19 6 19H11C11.5523 19 12 19.4477 12 20C12 20.5523 11.5523 21 11 21H6C3.79086 21 2 19.2091 2 17V9Z" fill="#9AA1B4"/>
<path fill-rule="evenodd" clip-rule="evenodd" d="M7.59542 4.05132C8.00376 2.82629 9.15018 2 10.4415 2H13.5584C14.8497 2 15.9961 2.82629 16.4045 4.05132L16.9486 5.68377L15.0513 6.31623L14.5071 4.68377C14.371 4.27543 13.9889 4 13.5584 4H10.4415C10.011 4 9.6289 4.27543 9.49279 4.68377L8.94864 6.31623L7.05127 5.68377L7.59542 4.05132Z" fill="#9AA1B4"/>
<path fill-rule="evenodd" clip-rule="evenodd" d="M2.34151 9.24744C2.75715 8.88375 3.38891 8.92587 3.75259 9.34151L6.35616 12.317C6.73594 12.7511 7.28459 13 7.86132 13H16.1387C16.7154 13 17.2641 12.7511 17.6439 12.317L20.2474 9.34151C20.6111 8.92587 21.2429 8.88375 21.6585 9.24744C22.0742 9.61112 22.1163 10.2429 21.7526 10.6585L19.149 13.634C18.3895 14.5021 17.2922 15 16.1387 15H7.86132C6.70787 15 5.61056 14.5021 4.85101 13.634L2.24744 10.6585C1.88375 10.2429 1.92587 9.61112 2.34151 9.24744Z" fill="#9AA1B4"/>
</svg>
