<svg width="161" height="156" viewBox="0 0 161 156" fill="none" xmlns="http://www.w3.org/2000/svg">
<g filter="url(#filter0_f_1622_210861)">
<path d="M80.1841 121.091C117.289 121.091 147.368 119.597 147.368 117.754C147.368 115.912 117.289 114.418 80.1841 114.418C43.0793 114.418 13 115.912 13 117.754C13 119.597 43.0793 121.091 80.1841 121.091Z" fill="#CBD6F9"/>
</g>
<path fill-rule="evenodd" clip-rule="evenodd" d="M145.101 113.039C145.313 112.551 145.266 111.988 144.974 111.542C144.682 111.097 144.185 110.828 143.652 110.828C127.33 110.828 33.1649 110.828 16.843 110.828C16.3103 110.828 15.8133 111.097 15.5211 111.542C15.2295 111.988 15.1813 112.551 15.3939 113.039C15.6344 113.591 15.8967 114.194 16.1536 114.784C17.0078 116.746 18.9438 118.015 21.0842 118.015H139.411C141.551 118.015 143.487 116.746 144.342 114.784C144.599 114.194 144.861 113.591 145.101 113.039Z" fill="url(#paint0_linear_1622_210861)"/>
<path fill-rule="evenodd" clip-rule="evenodd" d="M93.0205 110.828H67.4756C67.4756 110.828 67.7629 111.528 68.0435 112.21C68.3631 112.988 69.1209 113.496 69.9621 113.496C74.1127 113.496 86.3833 113.496 90.5339 113.496C91.3751 113.496 92.1329 112.988 92.4526 112.21C92.7331 111.528 93.0205 110.828 93.0205 110.828Z" fill="#A1B6FC"/>
<path fill-rule="evenodd" clip-rule="evenodd" d="M137.341 37.819C137.341 35.7094 135.631 34 133.522 34C116.114 34 44.3817 34 26.9737 34C24.8642 34 23.1543 35.7094 23.1543 37.819C23.1543 53.3348 23.1543 110.827 23.1543 110.827H137.341V37.819Z" fill="url(#paint1_linear_1622_210861)"/>
<path fill-rule="evenodd" clip-rule="evenodd" d="M133.967 37.8195V107.025C133.967 107.262 133.775 107.453 133.539 107.453C126.469 107.453 34.0274 107.453 26.9574 107.453C26.7212 107.453 26.5293 107.262 26.5293 107.025C26.5293 101.2 26.5293 37.8195 26.5293 37.8195C26.5293 37.7014 26.5765 37.5886 26.6599 37.5052C26.7433 37.4218 26.8561 37.375 26.9742 37.375H133.522C133.64 37.375 133.753 37.4218 133.836 37.5052C133.92 37.5886 133.967 37.7014 133.967 37.8195Z" fill="url(#paint2_linear_1622_210861)"/>
<path fill-rule="evenodd" clip-rule="evenodd" d="M67.775 37.375H48.2522L31.4473 107.453H40.2773L67.775 37.375Z" fill="#F5F7FF"/>
<path fill-rule="evenodd" clip-rule="evenodd" d="M113.272 37.375H83.1037L55.7207 107.453H75.1958L113.272 37.375Z" fill="#EBF0FE"/>
<g filter="url(#filter1_f_1622_210861)">
<path fill-rule="evenodd" clip-rule="evenodd" d="M136.676 46.0989C136.676 45.2905 136.355 44.5153 135.783 43.9436C135.212 43.3718 134.437 43.0508 133.628 43.0508C130.255 43.0508 124.851 43.0508 121.478 43.0508C120.67 43.0508 119.895 43.3718 119.323 43.9436C118.752 44.5153 118.431 45.2905 118.431 46.0989C118.431 56.2956 118.431 89.1472 118.431 99.3439C118.431 100.152 118.752 100.928 119.323 101.499C119.895 102.071 120.67 102.392 121.478 102.392C124.851 102.392 130.255 102.392 133.628 102.392C134.437 102.392 135.212 102.071 135.783 101.499C136.355 100.928 136.676 100.152 136.676 99.3439C136.676 89.1472 136.676 56.2956 136.676 46.0989Z" fill="#A0B5FC"/>
</g>
<path fill-rule="evenodd" clip-rule="evenodd" d="M153 46.0989C153 45.2905 152.679 44.5153 152.107 43.9436C151.535 43.3718 150.76 43.0508 149.952 43.0508C143.398 43.0508 128.032 43.0508 121.478 43.0508C120.67 43.0508 119.895 43.3718 119.323 43.9436C118.752 44.5153 118.431 45.2905 118.431 46.0989C118.431 56.2956 118.431 89.1472 118.431 99.3439C118.431 100.152 118.752 100.928 119.323 101.499C119.895 102.071 120.67 102.392 121.478 102.392C128.032 102.392 143.398 102.392 149.952 102.392C150.76 102.392 151.535 102.071 152.107 101.499C152.679 100.928 153 100.152 153 99.3439C153 89.1472 153 56.2956 153 46.0989Z" fill="url(#paint3_linear_1622_210861)"/>
<path fill-rule="evenodd" clip-rule="evenodd" d="M141.682 44.4961H149.952C150.377 44.4961 150.784 44.6648 151.085 44.9651C151.385 45.2655 151.554 45.6728 151.554 46.098V99.343C151.554 99.7677 151.385 100.175 151.085 100.475C150.784 100.776 150.377 100.944 149.952 100.944C149.952 100.944 121.478 100.944 121.478 100.944C121.054 100.944 120.646 100.776 120.346 100.475C120.046 100.175 119.877 99.7677 119.877 99.343V46.098C119.877 45.6728 120.046 45.2655 120.346 44.9651C120.646 44.6648 121.054 44.4961 121.478 44.4961H129.749L130.391 46.004C130.61 46.5169 131.113 46.8496 131.671 46.8496C133.561 46.8496 137.869 46.8496 139.76 46.8496C140.317 46.8496 140.821 46.5169 141.039 46.004L141.682 44.4961Z" fill="url(#paint4_linear_1622_210861)"/>
<path fill-rule="evenodd" clip-rule="evenodd" d="M143.537 44.4961H149.952C150.377 44.4961 150.784 44.6648 151.085 44.9651C151.385 45.2655 151.554 45.6728 151.554 46.098V61.005L119.877 97.2489V80.6344L143.537 44.4961Z" fill="#E6EBFF"/>
<path fill-rule="evenodd" clip-rule="evenodd" d="M139.108 96.9405C139.108 95.9792 138.329 95.1992 137.367 95.1992C136.352 95.1992 135.075 95.1992 134.06 95.1992C133.098 95.1992 132.318 95.9792 132.318 96.9405C132.318 96.9414 132.318 96.9419 132.318 96.9424C132.318 97.9041 133.098 98.6836 134.06 98.6836C135.075 98.6836 136.352 98.6836 137.367 98.6836C138.329 98.6836 139.108 97.9041 139.108 96.9424C139.108 96.9419 139.108 96.9414 139.108 96.9405Z" fill="#A1B6FC"/>
<path fill-rule="evenodd" clip-rule="evenodd" d="M86.2767 54.6146L90.906 48.5689C91.6339 47.6183 92.9968 47.4375 93.9474 48.1654C94.898 48.8934 95.0788 50.2562 94.3509 51.2068L64.9176 89.6461C64.1897 90.5967 62.8269 90.7775 61.8763 90.0496C60.9256 89.3216 60.7449 87.9588 61.4728 87.0082L64.6077 82.914C59.6968 82.228 55.9121 78.0065 55.9121 72.9081C55.9121 67.332 60.4397 62.8049 66.0158 62.8049C66.0852 62.8049 66.1551 62.8054 66.2245 62.8069C68.3707 57.2341 73.779 53.2749 80.1052 53.2749C82.3064 53.2749 84.3966 53.7546 86.2767 54.6146ZM92.6598 60.1786C94.1243 62.481 94.9737 65.2138 94.9737 68.1434C94.9737 69.0839 94.886 70.0037 94.7187 70.896C97.655 71.3308 99.9111 73.8646 99.9111 76.9209C99.9111 80.2824 97.1821 83.0118 93.8201 83.0118H75.1761L92.6598 60.1786Z" fill="url(#paint5_linear_1622_210861)"/>
<path fill-rule="evenodd" clip-rule="evenodd" d="M138.955 63.0185L140.749 60.6771C141.031 60.3088 141.559 60.2388 141.926 60.5204C142.295 60.8024 142.365 61.3303 142.083 61.6986L130.682 76.5878C130.4 76.9561 129.872 77.026 129.504 76.7439C129.136 76.4619 129.066 75.9341 129.348 75.5658L130.562 73.9802C128.66 73.7141 127.194 72.0794 127.194 70.1044C127.194 67.9447 128.948 66.191 131.108 66.191C131.135 66.191 131.161 66.1914 131.189 66.1919C132.02 64.0332 134.114 62.4998 136.565 62.4998C137.418 62.4998 138.227 62.6854 138.955 63.0185ZM141.428 65.1738C141.995 66.0656 142.324 67.1242 142.324 68.259C142.324 68.623 142.29 68.9792 142.225 69.3249C143.363 69.4936 144.236 70.4746 144.236 71.6586C144.236 72.9607 143.179 74.0178 141.877 74.0178H134.656L141.428 65.1738Z" fill="url(#paint6_linear_1622_210861)"/>
<defs>
<filter id="filter0_f_1622_210861" x="0.14286" y="101.561" width="160.082" height="32.3862" filterUnits="userSpaceOnUse" color-interpolation-filters="sRGB">
<feFlood flood-opacity="0" result="BackgroundImageFix"/>
<feBlend mode="normal" in="SourceGraphic" in2="BackgroundImageFix" result="shape"/>
<feGaussianBlur stdDeviation="6.42857" result="effect1_foregroundBlur_1622_210861"/>
</filter>
<filter id="filter1_f_1622_210861" x="106.716" y="31.3365" width="41.6737" height="82.7684" filterUnits="userSpaceOnUse" color-interpolation-filters="sRGB">
<feFlood flood-opacity="0" result="BackgroundImageFix"/>
<feBlend mode="normal" in="SourceGraphic" in2="BackgroundImageFix" result="shape"/>
<feGaussianBlur stdDeviation="5.85714" result="effect1_foregroundBlur_1622_210861"/>
</filter>
<linearGradient id="paint0_linear_1622_210861" x1="53.4113" y1="106.016" x2="53.4113" y2="117.332" gradientUnits="userSpaceOnUse">
<stop stop-color="#DCE3FC"/>
<stop offset="1" stop-color="#ACBDF6"/>
</linearGradient>
<linearGradient id="paint1_linear_1622_210861" x1="26.1195" y1="66.1767" x2="70.8006" y2="129.391" gradientUnits="userSpaceOnUse">
<stop stop-color="#A5B9FD"/>
<stop offset="1" stop-color="#7C99FB"/>
</linearGradient>
<linearGradient id="paint2_linear_1622_210861" x1="26.5293" y1="37.375" x2="133.539" y2="107.453" gradientUnits="userSpaceOnUse">
<stop stop-color="#FAFBFF"/>
<stop offset="1" stop-color="#CCD7FB"/>
</linearGradient>
<linearGradient id="paint3_linear_1622_210861" x1="119.328" y1="67.9039" x2="149.227" y2="70.451" gradientUnits="userSpaceOnUse">
<stop stop-color="#A5B9FD"/>
<stop offset="1" stop-color="#7C99FB"/>
</linearGradient>
<linearGradient id="paint4_linear_1622_210861" x1="119.877" y1="44.4961" x2="151.428" y2="100.944" gradientUnits="userSpaceOnUse">
<stop stop-color="#F1F4FF"/>
<stop offset="1" stop-color="#C9D5FB"/>
</linearGradient>
<linearGradient id="paint5_linear_1622_210861" x1="75.1206" y1="50.3584" x2="92.8965" y2="83.0115" gradientUnits="userSpaceOnUse">
<stop stop-color="#C9D5FE"/>
<stop offset="1" stop-color="#A0B5FC"/>
</linearGradient>
<linearGradient id="paint6_linear_1622_210861" x1="134.634" y1="61.3703" x2="141.519" y2="74.0181" gradientUnits="userSpaceOnUse">
<stop stop-color="#C9D5FE"/>
<stop offset="1" stop-color="#A0B5FC"/>
</linearGradient>
</defs>
</svg>
