<svg width="16" height="16" viewBox="0 0 16 16" fill="none" xmlns="http://www.w3.org/2000/svg">
<path d="M9.03035 5.3741C8.63983 4.98357 8.63982 4.35041 9.03035 3.95989L10.4544 2.53586C10.8449 2.14534 11.4781 2.14534 11.8686 2.53586L13.2926 3.95989C13.6831 4.35041 13.6831 4.98357 13.2926 5.3741L11.8686 6.79812C11.4781 7.18865 10.8449 7.18865 10.4544 6.79813L9.03035 5.3741Z" fill="#3663F2"/>
<path fill-rule="evenodd" clip-rule="evenodd" d="M8.79535 5.6098C8.27465 5.0891 8.27465 4.24488 8.79535 3.72418L10.2194 2.30016C10.7401 1.77946 11.5843 1.77946 12.105 2.30016L13.529 3.72418C14.0497 4.24488 14.0497 5.0891 13.529 5.6098L12.105 7.03383C11.5843 7.55453 10.7401 7.55453 10.2194 7.03383L8.79535 5.6098ZM9.26675 4.19559C9.0064 4.45594 9.0064 4.87805 9.26675 5.1384L10.6908 6.56242C10.9511 6.82277 11.3732 6.82277 11.6336 6.56242L13.0576 5.1384C13.318 4.87805 13.318 4.45594 13.0576 4.19559L11.6336 2.77156C11.3732 2.51121 10.9511 2.51121 10.6908 2.77156L9.26675 4.19559Z" fill="#3663F2"/>
<path d="M2.66699 10.333C2.66699 9.78072 3.11471 9.33301 3.66699 9.33301H5.66699C6.21928 9.33301 6.66699 9.78072 6.66699 10.333V12.333C6.66699 12.8853 6.21928 13.333 5.66699 13.333H3.66699C3.11471 13.333 2.66699 12.8853 2.66699 12.333V10.333Z" fill="#3663F2"/>
<path fill-rule="evenodd" clip-rule="evenodd" d="M2.33301 10.3333C2.33301 9.59695 2.92996 9 3.66634 9H5.66634C6.40272 9 6.99967 9.59695 6.99967 10.3333V12.3333C6.99967 13.0697 6.40272 13.6667 5.66634 13.6667H3.66634C2.92996 13.6667 2.33301 13.0697 2.33301 12.3333V10.3333ZM3.66634 9.66667C3.29815 9.66667 2.99967 9.96514 2.99967 10.3333V12.3333C2.99967 12.7015 3.29815 13 3.66634 13H5.66634C6.03453 13 6.33301 12.7015 6.33301 12.3333V10.3333C6.33301 9.96514 6.03453 9.66667 5.66634 9.66667H3.66634Z" fill="#3663F2"/>
<rect x="9.33301" y="9.33301" width="4" height="4" rx="1.5" fill="#B2CCFF" stroke="#B2CCFF" stroke-linejoin="round"/>
<rect x="2.66699" y="2.66699" width="4" height="4" rx="1.5" fill="#B2CCFF" stroke="#B2CCFF" stroke-linejoin="round"/>
</svg>
