<svg width="56" height="56" viewBox="0 0 56 56" fill="none" xmlns="http://www.w3.org/2000/svg">
<path d="M16.4613 9.26981C16.8145 8.91006 17.3941 8.91006 17.7473 9.26981L19.1949 10.7444C19.4011 10.9544 19.6968 11.0505 19.987 11.0018L22.0249 10.6597C22.5221 10.5763 22.991 10.9169 23.0653 11.4156L23.3697 13.4594C23.4131 13.7505 23.5959 14.0021 23.8593 14.1332L25.709 15.0544C26.1603 15.2791 26.3394 15.8303 26.1064 16.2774L25.1514 18.1098C25.0153 18.3708 25.0153 18.6817 25.1514 18.9427L26.1064 20.7752C26.3394 21.2222 26.1603 21.7734 25.709 21.9982L23.8593 22.9193C23.5959 23.0505 23.4131 23.302 23.3697 23.5931L23.0653 25.637C22.991 26.1356 22.5221 26.4763 22.0249 26.3928L19.987 26.0508C19.6968 26.002 19.4011 26.0981 19.1949 26.3081L17.7473 27.7827C17.3941 28.1424 16.8145 28.1424 16.4613 27.7827L15.0137 26.3081C14.8075 26.0981 14.5118 26.002 14.2216 26.0508L12.1837 26.3928C11.6865 26.4763 11.2176 26.1356 11.1433 25.637L10.8389 23.5931C10.7955 23.302 10.6128 23.0505 10.3493 22.9193L8.49959 21.9982C8.04832 21.7734 7.86922 21.2222 8.10221 20.7752L9.05727 18.9427C9.19329 18.6817 9.19329 18.3708 9.05727 18.1098L8.10221 16.2774C7.86922 15.8303 8.04832 15.2791 8.49959 15.0544L10.3493 14.1332C10.6128 14.0021 10.7955 13.7505 10.8389 13.4594L11.1433 11.4156C11.2176 10.9169 11.6865 10.5763 12.1837 10.6597L14.2216 11.0018C14.5118 11.0505 14.8075 10.9544 15.0137 10.7444L16.4613 9.26981Z" fill="#FFCD4F"/>
<circle cx="17.1041" cy="18.526" r="6.30725" fill="#FFA134"/>
<path d="M37.9256 46.9995C37.9503 46.9997 37.9751 46.9998 38 46.9998C43.5228 46.9998 48 42.2988 48 36.4998C48 31.2815 44.3745 26.9522 39.624 26.1376C37.3379 21.8772 32.9888 19 27.9996 19C21.3736 19 15.8764 24.075 14.8414 30.725C10.9874 31.2105 8 34.6555 8 38.833C8 43.3434 11.4822 46.9997 15.7778 46.9997C15.7948 46.9997 15.8117 46.9997 15.8286 46.9995H27.8909C27.9271 46.9998 27.9634 47 27.9996 47C28.0359 47 28.0721 46.9998 28.1083 46.9995H37.9256Z" fill="#D9E0E5"/>
<path d="M34.2174 47C38.5156 47 42 43.4183 42 39C42 34.5817 38.5156 31 34.2174 31C30.3222 31 27.018 34.0171 26.4472 37.8571C23.9911 37.8571 22 39.9038 22 42.4286C22 44.9533 23.9911 47 26.4472 47H34.2174Z" fill="#B9C6D0"/>
</svg>
