<svg width="156" height="156" viewBox="0 0 156 156" fill="none" xmlns="http://www.w3.org/2000/svg">
<g filter="url(#filter0_f_1622_210693)">
<path d="M86.9397 149.439C106.898 149.439 123.077 148.013 123.077 146.255C123.077 144.496 106.898 143.07 86.9397 143.07C66.9818 143.07 50.8027 144.496 50.8027 146.255C50.8027 148.013 66.9818 149.439 86.9397 149.439Z" fill="#D4DDFC"/>
</g>
<path fill-rule="evenodd" clip-rule="evenodd" d="M94.9629 124.832C93.3088 125.032 91.5598 124.054 91.5598 124.054C91.1816 123.846 90.7055 123.984 90.4975 124.362C90.2891 124.74 90.4273 125.216 90.8058 125.425C90.8058 125.425 93.0426 126.64 95.151 126.385C95.5799 126.333 95.8855 125.943 95.8337 125.514C95.7819 125.085 95.3917 124.779 94.9629 124.832Z" fill="#A7B6E4"/>
<path fill-rule="evenodd" clip-rule="evenodd" d="M61.0214 124.473C61.3984 124.748 61.9308 124.916 62.4415 124.996C63.1058 125.101 63.7156 125.07 63.7156 125.07C64.147 125.049 64.4797 124.681 64.4583 124.25C64.4369 123.819 64.0693 123.486 63.6382 123.508C63.6382 123.508 63.182 123.529 62.6852 123.451C62.422 123.41 62.1381 123.351 61.9436 123.209C61.5951 122.954 61.1051 123.031 60.8505 123.38C60.5959 123.728 60.6725 124.218 61.0214 124.473Z" fill="#A7B6E4"/>
<path fill-rule="evenodd" clip-rule="evenodd" d="M111.389 95.7266C111.6 95.8641 111.713 96.1235 111.797 96.3883C111.911 96.7442 111.951 97.1299 111.945 97.4333C111.935 97.8647 112.278 98.223 112.71 98.2327C113.141 98.2421 113.499 97.8993 113.509 97.4678C113.521 96.9215 113.426 96.1975 113.167 95.5854C112.961 95.098 112.651 94.6816 112.244 94.4161C111.883 94.1803 111.398 94.2821 111.162 94.6437C110.926 95.0053 111.028 95.4904 111.389 95.7266Z" fill="#A7B6E4"/>
<path fill-rule="evenodd" clip-rule="evenodd" d="M78.773 93.1349C77.8936 94.2126 78.0738 95.4611 78.0738 95.4611C78.1317 95.8892 78.5255 96.19 78.9536 96.1322C79.3813 96.0747 79.6821 95.6808 79.6246 95.2527C79.6246 95.2527 79.5559 94.6497 79.9851 94.1244C80.2581 93.7898 80.2082 93.2968 79.8736 93.0238C79.539 92.7508 79.046 92.8007 78.773 93.1349Z" fill="#A7B6E4"/>
<path fill-rule="evenodd" clip-rule="evenodd" d="M41.1838 19.2724C51.7943 14.1859 67.2164 17.1914 69.0376 28.0576C72.4021 48.1333 71.8689 65.5121 68.9434 67.1005C67.1526 68.0727 44.0474 63.9793 34.1838 49.9984C26.5942 39.2411 30.5737 24.3585 41.1838 19.2724Z" fill="url(#paint0_radial_1622_210693)"/>
<path fill-rule="evenodd" clip-rule="evenodd" d="M112.556 19.3387C102.485 16.9017 90.7653 22.3243 90.1761 32.0077C89.0023 51.2907 94.5991 64.7843 97.4097 65.6164C99.1299 66.1256 118.28 58.367 124.213 44.5193C128.779 33.8638 122.625 21.7753 112.556 19.3387Z" fill="url(#paint1_radial_1622_210693)"/>
<path fill-rule="evenodd" clip-rule="evenodd" d="M56.0116 98.543L69.3122 109.777V129.81L56.0116 118.577C55.1746 112.592 55.2415 105.858 56.0116 98.543Z" fill="url(#paint2_linear_1622_210693)"/>
<path fill-rule="evenodd" clip-rule="evenodd" d="M69.3138 109.778L56.0132 98.5443L103.424 90.043C106.062 90.7373 114.486 97.3641 116.724 101.277L69.3138 109.778Z" fill="url(#paint3_linear_1622_210693)"/>
<path fill-rule="evenodd" clip-rule="evenodd" d="M116.724 101.277C117.632 108.015 117.567 114.689 116.724 121.311L69.3135 129.812V109.779L116.724 101.277Z" fill="url(#paint4_linear_1622_210693)"/>
<path fill-rule="evenodd" clip-rule="evenodd" d="M79.9683 94.1424C79.9683 94.1424 83.513 90.0123 85.2294 85.7365C87.5549 91.9682 93.4795 104.335 94.0247 105.47C94.9946 109.971 95.8808 117.186 95.5278 121.664C95.4426 122.746 95.289 123.659 95.0311 124.311C94.9135 124.607 94.7934 124.841 94.6146 124.963C94.2571 125.204 94.1633 125.691 94.4051 126.049C94.6473 126.406 95.1339 126.5 95.4914 126.258C95.8834 125.993 96.2289 125.535 96.4854 124.887C96.788 124.123 96.9874 123.056 97.0873 121.787C97.4527 117.153 96.539 109.667 95.5342 105.048C95.5211 104.988 95.5008 104.93 95.4741 104.875C95.4741 104.875 87.1591 87.6508 85.9612 82.975C85.8708 82.6213 85.5474 82.3772 85.1821 82.387C84.8171 82.3971 84.5073 82.6585 84.4363 83.0167C83.51 87.6763 78.7836 93.1203 78.7836 93.1203C78.5016 93.447 78.538 93.9415 78.8647 94.2235C79.1917 94.5055 79.6863 94.4691 79.9683 94.1424Z" fill="#A7B6E4"/>
<path fill-rule="evenodd" clip-rule="evenodd" d="M62.1423 123.425C61.6065 122.577 61.2745 121.11 61.0845 119.321C60.6227 114.97 61.0973 108.788 62.3969 104.404C64.3135 102.975 78.887 92.008 85.3189 84.2678C91.2991 88.992 98.5861 91.7402 104.044 93.4548C107.689 94.6001 110.494 95.2606 111.451 95.7649C111.833 95.9665 112.306 95.8201 112.507 95.4382C112.709 95.0563 112.563 94.5824 112.181 94.3811C111.189 93.8581 108.29 93.1487 104.513 91.9622C99.0235 90.2379 91.6217 87.4554 85.7015 82.5657C85.5393 82.432 85.3302 82.3689 85.121 82.3911C84.9119 82.4132 84.7204 82.5187 84.5901 82.6836C78.1063 90.8755 61.258 103.301 61.258 103.301C61.1236 103.4 61.0245 103.54 60.9753 103.7C59.5641 108.277 59.0388 114.871 59.5288 119.486C59.7504 121.575 60.1946 123.272 60.8198 124.261C61.0507 124.626 61.5344 124.735 61.899 124.504C62.264 124.273 62.3729 123.789 62.1423 123.425Z" fill="#A7B6E4"/>
<path fill-rule="evenodd" clip-rule="evenodd" d="M68.2979 66.4766C65.0934 68.4025 64.1261 73.0899 66.978 73.3163C69.8296 73.5427 69.4807 68.3154 68.2979 66.4766Z" fill="#C6D2FB"/>
<path fill-rule="evenodd" clip-rule="evenodd" d="M97.9986 64.9531C101.111 66.0248 102.803 69.8846 100.388 70.6021C97.9738 71.3193 97.3166 66.7533 97.9986 64.9531Z" fill="#C7D3FB"/>
<path fill-rule="evenodd" clip-rule="evenodd" d="M68.3276 66.4777C71.5716 64.6193 76.1358 66.0601 74.9428 68.6605C73.7502 71.2604 69.3561 68.407 68.3276 66.4777Z" fill="#C6D2FB"/>
<path fill-rule="evenodd" clip-rule="evenodd" d="M97.9712 64.9614C94.8369 63.9547 91.1701 66.0319 92.6737 68.0529C94.1772 70.0738 97.4388 66.8115 97.9712 64.9614Z" fill="#C7D3FB"/>
<path fill-rule="evenodd" clip-rule="evenodd" d="M79.2941 6.5625C91.0604 6.5625 100.786 16.1167 100.613 27.8819C100.31 48.5313 89.9004 64.3729 83.6518 65.4393C80.2614 66.0183 62.2509 53.4706 58.4689 29.4702C56.2838 15.6045 67.5274 6.5625 79.2941 6.5625Z" fill="url(#paint5_radial_1622_210693)"/>
<path fill-rule="evenodd" clip-rule="evenodd" d="M83.5711 64.5742C79.8488 64.9261 76.9507 68.7348 79.4245 70.1718C81.8979 71.6085 83.843 66.7439 83.5711 64.5742Z" fill="#C6D2FB"/>
<path fill-rule="evenodd" clip-rule="evenodd" d="M83.5938 64.5904C87.3225 64.3166 90.815 67.5891 88.6157 69.4182C86.416 71.2472 83.6872 66.775 83.5938 64.5904Z" fill="#C6D2FB"/>
<path fill-rule="evenodd" clip-rule="evenodd" d="M67.5669 67.8514C68.2965 67.0163 70.3066 66.4928 70.3066 66.4928C70.7223 66.376 70.9652 65.9438 70.8484 65.5282C70.7317 65.1125 70.2995 64.8695 69.8838 64.9863C69.8838 64.9863 67.3307 65.7441 66.389 66.8218C66.1047 67.1469 66.1382 67.6415 66.463 67.9257C66.7882 68.2096 67.2831 68.1766 67.5669 67.8514Z" fill="#A7B6E4"/>
<path fill-rule="evenodd" clip-rule="evenodd" d="M81.9721 65.6388C82.8691 64.9959 84.4004 64.8589 85.3358 65.335C85.7207 65.5306 86.1919 65.3771 86.388 64.9925C86.5836 64.6077 86.43 64.136 86.0455 63.9404C84.6603 63.2356 82.3896 63.4151 81.0607 64.367C80.71 64.6182 80.6293 65.1074 80.8805 65.4585C81.1321 65.8093 81.621 65.8904 81.9721 65.6388Z" fill="#A7B6E4"/>
<path fill-rule="evenodd" clip-rule="evenodd" d="M95.9789 65.334C96.464 65.3426 97.0795 65.3516 97.6713 65.4485C98.1478 65.5266 98.6153 65.649 98.9311 65.9318C99.2525 66.2198 99.7474 66.1928 100.035 65.871C100.324 65.5495 100.296 65.0546 99.975 64.7662C99.5491 64.3847 98.9765 64.1346 98.3498 63.9886C97.5564 63.8031 96.6743 63.7813 96.0063 63.7697C95.5748 63.7618 95.2181 64.1061 95.2106 64.5379C95.2027 64.9698 95.547 65.3265 95.9789 65.334Z" fill="#A7B6E4"/>
<path fill-rule="evenodd" clip-rule="evenodd" d="M68.0347 67.5304C69.3907 70.7597 72.3564 74.0438 75.4456 76.8079C79.9997 80.8828 84.7933 83.8335 84.7933 83.8335C85.1609 84.0599 85.6431 83.945 85.8695 83.5774C86.0959 83.2098 85.9814 82.7276 85.6134 82.5012C85.6134 82.5012 80.9347 79.6196 76.4891 75.6419C73.5786 73.0379 70.7549 69.9674 69.4774 66.9247C69.3103 66.5267 68.8511 66.3393 68.453 66.5064C68.055 66.6735 67.8676 67.1324 68.0347 67.5304Z" fill="#A7B6E4"/>
<path fill-rule="evenodd" clip-rule="evenodd" d="M97.1804 64.8591C94.7202 72.2324 84.6429 82.6248 84.6429 82.6248C84.3429 82.9353 84.3515 83.431 84.6617 83.731C84.9722 84.031 85.4679 84.0224 85.7679 83.7122C85.7679 83.7122 96.126 72.962 98.6644 65.3544C98.8011 64.9447 98.5795 64.5013 98.1699 64.3646C97.7606 64.2279 97.3171 64.4495 97.1804 64.8591Z" fill="#A7B6E4"/>
<path fill-rule="evenodd" clip-rule="evenodd" d="M82.7162 64.7826C83.4905 69.556 84.4247 83.22 84.4247 83.22C84.454 83.6507 84.8276 83.9766 85.2583 83.947C85.6894 83.9177 86.015 83.5441 85.9857 83.113C85.9857 83.113 85.0409 69.3431 84.2606 64.5322C84.1916 64.106 83.7894 63.8161 83.3632 63.8852C82.937 63.9543 82.6471 64.3564 82.7162 64.7826Z" fill="#A7B6E4"/>
<defs>
<filter id="filter0_f_1622_210693" x="44.4218" y="136.689" width="85.0358" height="19.1311" filterUnits="userSpaceOnUse" color-interpolation-filters="sRGB">
<feFlood flood-opacity="0" result="BackgroundImageFix"/>
<feBlend mode="normal" in="SourceGraphic" in2="BackgroundImageFix" result="shape"/>
<feGaussianBlur stdDeviation="3.19048" result="effect1_foregroundBlur_1622_210693"/>
</filter>
<radialGradient id="paint0_radial_1622_210693" cx="0" cy="0" r="1" gradientUnits="userSpaceOnUse" gradientTransform="translate(34.1676 27.845) rotate(70.7732) scale(55.0363 34.2193)">
<stop stop-color="white"/>
<stop offset="1" stop-color="#C6D2FB"/>
</radialGradient>
<radialGradient id="paint1_radial_1622_210693" cx="0" cy="0" r="1" gradientUnits="userSpaceOnUse" gradientTransform="translate(120.219 25.4488) rotate(97.2559) scale(48.4572 29.9531)">
<stop stop-color="white"/>
<stop offset="1" stop-color="#C6D2FB"/>
</radialGradient>
<linearGradient id="paint2_linear_1622_210693" x1="55.4086" y1="107.858" x2="69.7575" y2="107.924" gradientUnits="userSpaceOnUse">
<stop stop-color="#DCE3FB"/>
<stop offset="1" stop-color="#BCCAF7"/>
</linearGradient>
<linearGradient id="paint3_linear_1622_210693" x1="56.0132" y1="95.9229" x2="82.8457" y2="136.381" gradientUnits="userSpaceOnUse">
<stop stop-color="#DCE3FB"/>
<stop offset="1" stop-color="#D3DDFA"/>
</linearGradient>
<linearGradient id="paint4_linear_1622_210693" x1="69.3135" y1="109.779" x2="116.243" y2="121.397" gradientUnits="userSpaceOnUse">
<stop stop-color="#C6D3FA"/>
<stop offset="1" stop-color="#9DB2F3"/>
</linearGradient>
<radialGradient id="paint5_radial_1622_210693" cx="0" cy="0" r="1" gradientUnits="userSpaceOnUse" gradientTransform="translate(68.2352 11.5812) rotate(96.0844) scale(58.7636 34.8469)">
<stop stop-color="white"/>
<stop offset="1" stop-color="#C6D2FB"/>
</radialGradient>
</defs>
</svg>
