<svg width="156" height="156" viewBox="0 0 156 156" fill="none" xmlns="http://www.w3.org/2000/svg">
<path fill-rule="evenodd" clip-rule="evenodd" d="M128.36 43.7852C128.863 44.6359 128.582 45.7333 127.731 46.2363L74.399 77.7723L127.731 109.308C128.582 109.811 128.863 110.909 128.36 111.759C127.857 112.61 126.76 112.892 125.909 112.389L69.9724 79.3126C69.4278 78.9906 69.0938 78.4049 69.0938 77.7723C69.0938 77.1396 69.4278 76.554 69.9724 76.2319L125.909 43.1557C126.76 42.6526 127.857 42.9345 128.36 43.7852Z" fill="#8AA4FC"/>
<path fill-rule="evenodd" clip-rule="evenodd" d="M78.6927 57.9914C78.6927 56.883 78.252 55.8207 77.4684 55.0371C73.4647 51.0371 60.7893 38.3726 56.7878 34.3747C56.0047 33.5921 54.9429 33.1523 53.8361 33.1523C46.167 33.1523 23.7431 33.1523 12.2771 33.1523C11.1428 33.1523 10.0546 33.6035 9.25288 34.4052C8.4506 35.2075 8 36.2952 8 37.43C8 54.5176 8 101.03 8 118.112C8 119.245 8.45008 120.332 9.25185 121.134C10.0531 121.935 11.1402 122.386 12.274 122.386C26.0634 122.386 60.6293 122.386 74.4188 122.386C75.5525 122.386 76.6391 121.935 77.4409 121.134C78.2421 120.332 78.6927 119.245 78.6927 118.112C78.6927 102.841 78.6927 68.1015 78.6927 57.9914Z" fill="url(#paint0_linear_1586_331567)"/>
<path fill-rule="evenodd" clip-rule="evenodd" d="M70.8831 84.4871C70.8831 83.2824 70.4046 82.1274 69.5526 81.2759C68.7011 80.4239 67.5461 79.9453 66.3414 79.9453C55.9169 79.9453 30.3719 79.9453 19.948 79.9453C18.7433 79.9453 17.5883 80.4239 16.7363 81.2759C15.8848 82.1274 15.4062 83.2824 15.4062 84.4871C15.4062 90.8696 15.4062 102.425 15.4062 108.807C15.4062 110.011 15.8848 111.166 16.7363 112.018C17.5883 112.87 18.7433 113.348 19.948 113.348C30.3719 113.348 55.9169 113.348 66.3414 113.348C67.5461 113.348 68.7011 112.87 69.5526 112.018C70.4046 111.166 70.8831 110.011 70.8831 108.807C70.8831 102.425 70.8831 90.8696 70.8831 84.4871Z" fill="url(#paint1_linear_1586_331567)"/>
<path fill-rule="evenodd" clip-rule="evenodd" d="M38.6128 94.9443C37.3449 97.5987 37.8095 100.875 40.0086 103.073C42.7977 105.862 47.3193 105.862 50.1083 103.073L53.3221 99.8594C56.1112 97.0704 56.1112 92.5488 53.3221 89.7597C51.3395 87.7771 48.4815 87.2037 45.9923 88.0402C45.3133 88.2681 44.9471 89.0051 45.175 89.6846C45.4034 90.3636 46.1405 90.7298 46.82 90.5019C48.4043 89.9695 50.2238 90.3341 51.4855 91.5958C53.2605 93.3708 53.2605 96.2484 51.4855 98.0234L48.2723 101.237C46.4973 103.012 43.6197 103.012 41.8447 101.237C40.4453 99.8377 40.149 97.753 40.9559 96.0635C41.2652 95.4171 40.9906 94.6413 40.3443 94.3321C39.6974 94.0234 38.9215 94.2974 38.6128 94.9443Z" fill="url(#paint2_linear_1586_331567)"/>
<path fill-rule="evenodd" clip-rule="evenodd" d="M45.077 98.3458C46.3454 95.6914 45.8803 92.4154 43.6817 90.2168C40.8926 87.4277 36.3705 87.4277 33.5815 90.2168L30.3677 93.4306C27.5786 96.2197 27.5786 100.742 30.3677 103.53C32.3218 105.484 35.1265 106.07 37.5897 105.285C38.2729 105.068 38.6505 104.337 38.4329 103.654C38.2159 102.971 37.4846 102.593 36.802 102.811C35.2337 103.31 33.4483 102.938 32.2043 101.694C30.4293 99.9193 30.4293 97.0416 32.2043 95.2667L35.4181 92.0534C37.1925 90.2784 40.0701 90.2784 41.8451 92.0534C43.2445 93.4523 43.5408 95.537 42.7339 97.2265C42.4247 97.8734 42.6992 98.6493 43.3455 98.958C43.9924 99.2667 44.7683 98.9927 45.077 98.3458Z" fill="url(#paint3_linear_1586_331567)"/>
<path d="M24.9727 53.1447C28.1107 53.1447 30.6545 50.6009 30.6545 47.463C30.6545 44.325 28.1107 41.7812 24.9727 41.7812C21.8348 41.7812 19.291 44.325 19.291 47.463C19.291 50.6009 21.8348 53.1447 24.9727 53.1447Z" fill="url(#paint4_linear_1586_331567)"/>
<path fill-rule="evenodd" clip-rule="evenodd" d="M24.9725 51.793C30.2523 51.793 34.5387 56.0794 34.5387 61.3592C34.5387 66.639 15.4062 66.639 15.4062 61.3592C15.4062 56.0794 19.6927 51.793 24.9725 51.793Z" fill="url(#paint5_linear_1586_331567)"/>
<path fill-rule="evenodd" clip-rule="evenodd" d="M56.7879 34.3757C56.0047 33.5926 54.9425 33.1523 53.8351 33.1523C52.7796 33.1523 51.6318 33.1523 51.6318 33.1523C51.6318 33.1523 52.7076 33.1943 53.9765 33.244C56.2337 33.3321 58.0112 35.1982 57.99 37.4564C57.9558 41.0229 57.9071 46.1944 57.8724 49.8055C57.8507 52.1289 59.7163 54.0302 62.0397 54.0525C65.6803 54.0872 70.9062 54.1369 74.4753 54.1706C76.6988 54.1918 78.5157 55.9513 78.6079 58.1732C78.6545 59.293 78.6928 60.2133 78.6928 60.2133V58.01C78.6928 56.9027 78.2526 55.8404 77.4695 55.0573C73.4674 51.0552 60.7899 38.3778 56.7879 34.3757Z" fill="url(#paint6_linear_1586_331567)"/>
<path d="M126.82 65.3597C138.518 65.3597 148 55.8772 148 44.1799C148 32.4825 138.518 23 126.82 23C115.123 23 105.641 32.4825 105.641 44.1799C105.641 55.8772 115.123 65.3597 126.82 65.3597Z" fill="url(#paint7_linear_1586_331567)"/>
<path d="M126.82 61.7867C136.545 61.7867 144.428 53.9032 144.428 44.1785C144.428 34.4538 136.545 26.5703 126.82 26.5703C117.095 26.5703 109.212 34.4538 109.212 44.1785C109.212 53.9032 117.095 61.7867 126.82 61.7867Z" fill="url(#paint8_linear_1586_331567)"/>
<path fill-rule="evenodd" clip-rule="evenodd" d="M124.334 43.0895C122.861 42.2313 121.871 40.635 121.871 38.8093C121.871 36.0772 124.089 33.8594 126.82 33.8594C129.552 33.8594 131.77 36.0772 131.77 38.8093C131.77 40.635 130.78 42.2313 129.307 43.0895C132.694 44.1486 135.155 47.3122 135.155 51.046C135.155 55.6457 118.486 55.6457 118.486 51.046C118.486 47.3122 120.947 44.1486 124.334 43.0895Z" fill="url(#paint9_linear_1586_331567)"/>
<path d="M126.82 132.539C138.518 132.539 148 123.057 148 111.36C148 99.6622 138.518 90.1797 126.82 90.1797C115.123 90.1797 105.641 99.6622 105.641 111.36C105.641 123.057 115.123 132.539 126.82 132.539Z" fill="url(#paint10_linear_1586_331567)"/>
<path d="M126.82 128.97C136.545 128.97 144.428 121.087 144.428 111.362C144.428 101.637 136.545 93.7539 126.82 93.7539C117.095 93.7539 109.212 101.637 109.212 111.362C109.212 121.087 117.095 128.97 126.82 128.97Z" fill="url(#paint11_linear_1586_331567)"/>
<path fill-rule="evenodd" clip-rule="evenodd" d="M124.334 110.273C122.861 109.415 121.871 107.819 121.871 105.993C121.871 103.261 124.089 101.043 126.82 101.043C129.552 101.043 131.77 103.261 131.77 105.993C131.77 107.819 130.78 109.415 129.307 110.273C132.694 111.332 135.155 114.496 135.155 118.23C135.155 122.829 118.486 122.829 118.486 118.23C118.486 114.496 120.947 111.332 124.334 110.273Z" fill="url(#paint12_linear_1586_331567)"/>
<defs>
<linearGradient id="paint0_linear_1586_331567" x1="15.4063" y1="33.1526" x2="67.8689" y2="131.505" gradientUnits="userSpaceOnUse">
<stop stop-color="#EEF2FF"/>
<stop offset="1" stop-color="#B9C8FA"/>
</linearGradient>
<linearGradient id="paint1_linear_1586_331567" x1="26.3545" y1="78.1496" x2="27.5187" y2="120.204" gradientUnits="userSpaceOnUse">
<stop stop-color="#F9FBFF"/>
<stop offset="1" stop-color="#E1E8FD"/>
</linearGradient>
<linearGradient id="paint2_linear_1586_331567" x1="34.539" y1="86.6076" x2="50.3321" y2="105.624" gradientUnits="userSpaceOnUse">
<stop stop-color="#8BA5FD"/>
<stop offset="1" stop-color="#5F82F8"/>
</linearGradient>
<linearGradient id="paint3_linear_1586_331567" x1="34.5393" y1="86.6058" x2="50.3325" y2="105.622" gradientUnits="userSpaceOnUse">
<stop stop-color="#8BA5FD"/>
<stop offset="1" stop-color="#5F82F8"/>
</linearGradient>
<linearGradient id="paint4_linear_1586_331567" x1="17.4359" y1="43.6602" x2="31.147" y2="67.4091" gradientUnits="userSpaceOnUse">
<stop stop-color="#A5B9FD"/>
<stop offset="1" stop-color="#7C99FB"/>
</linearGradient>
<linearGradient id="paint5_linear_1586_331567" x1="17.4356" y1="42.3088" x2="31.1467" y2="66.0576" gradientUnits="userSpaceOnUse">
<stop stop-color="#A5B9FD"/>
<stop offset="1" stop-color="#7C99FB"/>
</linearGradient>
<linearGradient id="paint6_linear_1586_331567" x1="59.1472" y1="33.1526" x2="66.9728" y2="58.3324" gradientUnits="userSpaceOnUse">
<stop stop-color="#CFDAFE"/>
<stop offset="1" stop-color="#B1C2FC"/>
</linearGradient>
<linearGradient id="paint7_linear_1586_331567" x1="117.405" y1="23" x2="129.655" y2="62.415" gradientUnits="userSpaceOnUse">
<stop stop-color="#CFDAFE"/>
<stop offset="1" stop-color="#B1C2FC"/>
</linearGradient>
<linearGradient id="paint8_linear_1586_331567" x1="116.162" y1="24.3545" x2="133.092" y2="57.2291" gradientUnits="userSpaceOnUse">
<stop stop-color="#F0F3FF"/>
<stop offset="1" stop-color="#CCD7FB"/>
</linearGradient>
<linearGradient id="paint9_linear_1586_331567" x1="124.035" y1="35.2772" x2="131.336" y2="53.0476" gradientUnits="userSpaceOnUse">
<stop stop-color="#A5B9FD"/>
<stop offset="1" stop-color="#7C99FB"/>
</linearGradient>
<linearGradient id="paint10_linear_1586_331567" x1="117.405" y1="90.1797" x2="129.655" y2="129.595" gradientUnits="userSpaceOnUse">
<stop stop-color="#CFDAFE"/>
<stop offset="1" stop-color="#B1C2FC"/>
</linearGradient>
<linearGradient id="paint11_linear_1586_331567" x1="116.162" y1="91.5382" x2="133.092" y2="124.413" gradientUnits="userSpaceOnUse">
<stop stop-color="#F0F3FF"/>
<stop offset="1" stop-color="#CCD7FB"/>
</linearGradient>
<linearGradient id="paint12_linear_1586_331567" x1="124.035" y1="102.461" x2="131.336" y2="120.231" gradientUnits="userSpaceOnUse">
<stop stop-color="#A5B9FD"/>
<stop offset="1" stop-color="#7C99FB"/>
</linearGradient>
</defs>
</svg>
