<svg width="56" height="56" viewBox="0 0 56 56" fill="none" xmlns="http://www.w3.org/2000/svg">
<path d="M37.9256 41.9995C37.9503 41.9997 37.9751 41.9998 38 41.9998C43.5228 41.9998 48 37.2988 48 31.4998C48 26.2815 44.3745 21.9522 39.624 21.1376C37.3379 16.8772 32.9888 14 27.9996 14C21.3736 14 15.8764 19.075 14.8414 25.725C10.9874 26.2105 8 29.6555 8 33.833C8 38.3434 11.4822 41.9997 15.7778 41.9997C15.7948 41.9997 15.8117 41.9997 15.8286 41.9995H27.8909C27.9271 41.9998 27.9634 42 27.9996 42C28.0359 42 28.0721 41.9998 28.1083 41.9995H37.9256Z" fill="#D9E0E5"/>
<path d="M31.8826 42C37.4703 42 42 37.5228 42 32C42 26.4772 37.4703 22 31.8826 22C26.8188 22 22.5234 25.7714 21.7814 30.5714C18.5884 30.5714 16 33.1298 16 36.2857C16 39.4416 18.5884 42 21.7814 42H31.8826Z" fill="#B9C6D0"/>
</svg>
