<svg width="56" height="56" viewBox="0 0 56 56" fill="none" xmlns="http://www.w3.org/2000/svg">
<path d="M10 14C10 11.7909 11.7909 10 14 10H42C44.2091 10 46 11.7909 46 14V39C46 40.1046 45.1046 41 44 41H12C10.8954 41 10 40.1046 10 39V14Z" fill="#062B9D"/>
<path d="M6.56224 18.4961C6.26381 16.1087 8.12536 14 10.5314 14H21.2676C21.7406 14 22.1984 14.1677 22.5595 14.4732L27.941 19.0268C28.3021 19.3323 28.7598 19.5 29.2328 19.5H45.3511C47.7981 19.5 49.6716 21.6775 49.3063 24.097L46.5139 42.597C46.2186 44.5534 44.5373 46 42.5587 46H13.5314C11.5141 46 9.81245 44.4979 9.56224 42.4961L6.56224 18.4961Z" fill="#3663F2"/>
</svg>
