<svg width="156" height="156" viewBox="0 0 156 156" fill="none" xmlns="http://www.w3.org/2000/svg">
<path d="M17.2676 44.3055C17.2676 37.2161 23.0233 31.4688 30.1231 31.4688H120.112C127.211 31.4688 132.967 37.2161 132.967 44.3055V124.535C132.967 128.08 130.09 130.953 126.539 130.953H23.6957C20.1458 130.953 17.2676 128.08 17.2676 124.535V44.3055Z" fill="url(#paint0_linear_1622_210930)"/>
<path d="M6.40725 58.7331C5.4485 51.0717 11.4314 44.3047 19.1638 44.3047H53.6689C55.1887 44.3047 56.6604 44.8428 57.8209 45.8229L75.1167 60.4366C76.2772 61.4167 77.7489 61.9548 79.2693 61.9548H131.07C138.934 61.9548 144.954 68.9429 143.781 76.7076L135.219 133.347C134.033 141.196 127.278 146.998 119.33 146.998H31.6425C23.5384 146.998 16.7022 140.972 15.6973 132.943L6.40725 58.7331Z" fill="url(#paint1_linear_1622_210930)"/>
<path d="M74.9995 134C92.1203 134 106 120.345 106 103.5C106 86.6553 92.1203 73 74.9995 73C57.8787 73 43.9995 86.6553 43.9995 103.5C43.9995 120.345 57.8787 134 74.9995 134Z" fill="url(#paint2_linear_1622_210930)"/>
<path fill-rule="evenodd" clip-rule="evenodd" d="M75.1159 116.206C76.4304 116.206 77.4971 117.271 77.4971 118.583C77.4971 119.896 76.4304 120.961 75.1159 120.961C73.8018 120.961 72.7351 119.896 72.7351 118.583C72.7351 117.271 73.8018 116.206 75.1159 116.206ZM75.1159 90.6474C71.3087 90.6474 68.455 93.4978 68.455 96.7373C68.455 97.8391 67.5599 98.7328 66.4565 98.7328C65.3531 98.7328 64.458 97.8391 64.458 96.7373C64.458 91.0454 69.3582 86.6562 75.1159 86.6562C80.8735 86.6562 85.7737 91.0454 85.7737 96.7373C85.7737 101.715 83.0396 104.478 80.7553 106.456C80.4527 106.718 80.1701 106.958 79.9051 107.182C79.1187 107.849 78.4914 108.38 77.975 108.971C77.3581 109.677 77.1144 110.244 77.1144 110.887V111.236C77.1144 112.338 76.2198 113.232 75.1159 113.232C74.0124 113.232 73.1178 112.338 73.1178 111.236V110.887C73.1178 108.963 73.9563 107.5 74.9632 106.347C75.6975 105.507 76.6442 104.707 77.4835 103.998C77.7109 103.805 77.9306 103.62 78.1363 103.442C80.1819 101.67 81.7772 99.9224 81.7772 96.7373C81.7772 93.4978 78.9235 90.6474 75.1159 90.6474Z" fill="#F4F7FE"/>
<path fill-rule="evenodd" clip-rule="evenodd" d="M133.266 26.2834L142.435 11.4793C142.908 10.717 142.671 9.71478 141.907 9.24293C141.144 8.77108 140.14 9.00766 139.668 9.77003L130.497 24.5741C130.026 25.3371 130.262 26.3393 131.025 26.8105C131.789 27.2824 132.793 27.0465 133.266 26.2834Z" fill="#7D94DD"/>
<path fill-rule="evenodd" clip-rule="evenodd" d="M138.558 32.8176L149.972 25.1854C150.719 24.6869 150.918 23.6763 150.419 22.9315C149.919 22.1867 148.908 21.9865 148.161 22.4856L136.747 30.1178C136.002 30.6163 135.801 31.6262 136.301 32.3717C136.801 33.1165 137.812 33.3167 138.558 32.8176Z" fill="#7D94DD"/>
<path fill-rule="evenodd" clip-rule="evenodd" d="M125.418 23.8355V14.9373C125.418 14.0404 124.689 13.3125 123.791 13.3125C122.893 13.3125 122.164 14.0404 122.164 14.9373V23.8355C122.164 24.7324 122.893 25.4603 123.791 25.4603C124.689 25.4603 125.418 24.7324 125.418 23.8355Z" fill="#7D94DD"/>
<defs>
<linearGradient id="paint0_linear_1622_210930" x1="99.3715" y1="31.4688" x2="99.3715" y2="83.5904" gradientUnits="userSpaceOnUse">
<stop stop-color="#C7D3FE"/>
<stop offset="1" stop-color="#98ACF0"/>
</linearGradient>
<linearGradient id="paint1_linear_1622_210930" x1="47.0596" y1="44.3047" x2="47.0596" y2="146.998" gradientUnits="userSpaceOnUse">
<stop stop-color="#E3E9FE"/>
<stop offset="1" stop-color="#B1C2FC"/>
</linearGradient>
<linearGradient id="paint2_linear_1622_210930" x1="59.6217" y1="68.7654" x2="86.6896" y2="140.067" gradientUnits="userSpaceOnUse">
<stop stop-color="#C7D3FE"/>
<stop offset="1" stop-color="#98ACF0"/>
</linearGradient>
</defs>
</svg>
