<svg width="95" height="83" viewBox="0 0 95 83" fill="none" xmlns="http://www.w3.org/2000/svg">
<g filter="url(#filter0_f_1622_210497)">
<path fill-rule="evenodd" clip-rule="evenodd" d="M11.8466 41.6756C21.039 37.1061 30.6359 37.2679 40.1684 41.7611C40.4302 41.8847 40.7431 41.7722 40.8665 41.5104C40.9898 41.2486 40.8775 40.936 40.6157 40.8126C30.7754 36.1741 20.8688 36.0193 11.3799 40.7363C11.1206 40.8652 11.0149 41.1804 11.1438 41.4394C11.2724 41.6987 11.5876 41.8044 11.8466 41.6756Z" fill="#A7B6E4"/>
<path fill-rule="evenodd" clip-rule="evenodd" d="M47.1404 45.8245C53.1823 50.0209 59.0412 53.5178 64.6103 54.895C70.2933 56.3002 75.6844 55.5289 80.6869 51.1217C83.6317 48.5276 84.2533 46.1502 83.7835 44.376C83.4165 42.9899 82.3758 41.9294 81.1214 41.3501C79.869 40.7719 78.4112 40.6792 77.2258 41.1857C76.0268 41.6983 75.0463 42.4857 74.4962 43.5468C73.9442 44.6111 73.8123 45.9599 74.3721 47.6131C74.465 47.8872 74.7631 48.0342 75.0372 47.9416C75.3114 47.8487 75.4586 47.5506 75.3657 47.2765C74.9187 45.9569 74.9869 44.8792 75.4274 44.0296C75.8697 43.1765 76.674 42.5622 77.6379 42.1504C78.5645 41.7544 79.7026 41.8503 80.6816 42.3024C81.6581 42.7535 82.4838 43.5654 82.7695 44.6446C83.1703 46.158 82.5055 48.1218 79.9936 50.3348C74.3326 55.322 68.1392 55.3431 61.5812 52.8361C57.1172 51.1293 52.488 48.2615 47.7385 44.963C47.5009 44.7979 47.1739 44.8568 47.0087 45.0944C46.8436 45.3323 46.9025 45.6593 47.1404 45.8245Z" fill="#A7B6E4"/>
<path fill-rule="evenodd" clip-rule="evenodd" d="M14.4159 35.6274C21.8562 31.326 29.614 31.6341 36.4939 30.3764C36.7786 30.3243 36.9674 30.0509 36.9156 29.7662C36.8635 29.4815 36.5901 29.2925 36.3054 29.3446C29.3177 30.6221 21.4479 30.3503 13.8908 34.7194C13.6403 34.8641 13.5545 35.1853 13.6992 35.4358C13.8442 35.6866 14.1652 35.7724 14.4159 35.6274Z" fill="#A7B6E4"/>
<path fill-rule="evenodd" clip-rule="evenodd" d="M43.7726 28.0399C48.9352 25.3436 52.65 21.3893 53.7456 17.9539C54.5325 15.4859 54.0268 13.2633 51.8931 11.8219C49.4419 10.1665 46.9742 11.1032 45.5508 12.8995C44.6109 14.0862 44.1429 15.6495 44.4314 17.0668C44.489 17.3502 44.7662 17.5338 45.0499 17.4761C45.3333 17.4185 45.5169 17.1413 45.4592 16.8576C45.2299 15.7308 45.6256 14.4943 46.373 13.551C47.4809 12.1529 49.3981 11.4025 51.306 12.6911C53.0211 13.8499 53.3788 15.6513 52.7462 17.6352C51.7121 20.8781 48.1601 24.5652 43.287 27.1103C43.0305 27.2442 42.931 27.5614 43.065 27.8179C43.1989 28.0744 43.5161 28.1741 43.7726 28.0399Z" fill="#A7B6E4"/>
<path fill-rule="evenodd" clip-rule="evenodd" d="M16.0324 48.8434C17.7616 47.4622 21.7564 46.1589 26.4643 45.947C26.7536 45.9339 26.9776 45.6884 26.9645 45.3994C26.9517 45.1102 26.7062 44.8859 26.417 44.899C21.4281 45.1238 17.2103 46.5602 15.3779 48.024C15.1516 48.2045 15.1146 48.5348 15.2953 48.7611C15.4761 48.9872 15.8063 49.0242 16.0324 48.8434Z" fill="#A7B6E4"/>
<path fill-rule="evenodd" clip-rule="evenodd" d="M33.8702 46.5866C37.3535 47.3841 40.8189 48.9597 43.7637 51.6651C49.2427 56.6996 49.5314 62.0235 47.7139 64.7649C47.1571 65.6047 46.4029 66.1868 45.55 66.3927C44.7062 66.5963 43.7742 66.4244 42.8594 65.8036C41.9675 65.1984 41.4913 64.477 41.339 63.7505C41.1174 62.6929 41.5801 61.6467 42.3351 61.0345C42.8516 60.6153 43.5109 60.3996 44.1841 60.5552C44.466 60.6201 44.748 60.4442 44.8129 60.162C44.8781 59.88 44.7021 59.5981 44.4199 59.5331C42.1372 59.006 39.9088 61.3061 40.2749 63.756C40.4269 64.7735 41.019 65.8222 42.2704 66.6716C43.4669 67.4837 44.6923 67.6788 45.7962 67.4122C46.8905 67.1479 47.8738 66.4221 48.5882 65.3444C50.5842 62.3339 50.4906 56.4214 44.4733 50.8928C41.3863 48.0565 37.7558 46.4001 34.1043 45.5641C33.8221 45.4996 33.5407 45.6761 33.4762 45.9583C33.4115 46.2405 33.5883 46.5219 33.8702 46.5866Z" fill="#A7B6E4"/>
</g>
<path fill-rule="evenodd" clip-rule="evenodd" d="M66.937 43.7432C68.8953 43.1752 66.1916 42.6063 64.3638 39.3277C63.419 37.6323 63.4077 36.0637 62.5936 34.1332C61.7792 32.2028 59.0922 29.7459 55.978 30.8684C51.9054 32.3363 52.5579 36.7739 53.9535 39.3954C55.9372 43.1221 61.2443 45.3945 66.937 43.7432Z" fill="url(#paint0_linear_1622_210497)"/>
<path fill-rule="evenodd" clip-rule="evenodd" d="M55.8168 26.2382C55.3637 28.8102 54.3734 35.706 61.4064 41.0435C61.637 41.2185 61.9663 41.1732 62.1412 40.9426C62.3162 40.712 62.2711 40.383 62.0405 40.2077C55.4931 35.239 56.4278 28.8144 56.8497 26.4202C56.9001 26.1352 56.7095 25.8628 56.4243 25.8127C56.1393 25.7624 55.8672 25.9532 55.8168 26.2382Z" fill="#A7B6E4"/>
<path fill-rule="evenodd" clip-rule="evenodd" d="M70.7087 80.1225C69.6531 81.8673 69.8034 79.1083 67.1094 76.4942C65.7165 75.1427 64.2041 74.726 62.5502 73.4399C60.8963 72.1536 59.2187 68.9225 61.109 66.2045C63.5808 62.6508 67.6982 64.4296 69.8691 66.456C72.9557 69.3369 73.7771 75.0513 70.7087 80.1225Z" fill="url(#paint1_linear_1622_210497)"/>
<path fill-rule="evenodd" clip-rule="evenodd" d="M56.585 65.8944C59.007 66.1066 65.4547 66.8664 68.5596 74.4768C68.6688 74.7447 68.9752 74.8736 69.2433 74.7643C69.5112 74.6548 69.64 74.3485 69.5308 74.0806C66.1955 65.9057 59.2781 65.0775 56.6767 64.8497C56.3884 64.8243 56.1337 65.038 56.1085 65.3262C56.0831 65.6147 56.2968 65.8692 56.585 65.8944Z" fill="#A7B6E4"/>
<path fill-rule="evenodd" clip-rule="evenodd" d="M36.7295 5.86712C38.688 6.43529 35.9841 7.00396 34.1565 10.2828C33.2115 11.9783 33.2004 13.5468 32.3861 15.4771C31.5717 17.4077 28.8849 19.8644 25.7705 18.7421C21.6979 17.2743 22.3504 12.8367 23.746 10.2151C25.7299 6.48815 31.0368 4.21599 36.7295 5.86712Z" fill="url(#paint2_linear_1622_210497)"/>
<path fill-rule="evenodd" clip-rule="evenodd" d="M26.6425 23.1909C26.2205 20.7966 25.2856 14.3718 31.833 9.40307C32.0636 9.22811 32.1086 8.89884 31.9337 8.66825C31.7587 8.43766 31.4295 8.3926 31.1989 8.56756C24.1659 13.9049 25.1562 20.8009 25.6093 23.3729C25.6597 23.6578 25.9318 23.8484 26.217 23.7983C26.502 23.748 26.6925 23.4758 26.6425 23.1909Z" fill="#A7B6E4"/>
<path fill-rule="evenodd" clip-rule="evenodd" d="M31.8613 53.0602C31.2934 51.1019 30.7245 53.8056 27.4459 55.6332C25.7504 56.5782 24.1819 56.5893 22.2513 57.4036C20.321 58.218 17.8641 60.9048 18.9866 64.0192C20.4544 68.0918 24.892 67.4393 27.5134 66.0437C31.2403 64.06 33.5127 58.7529 31.8613 53.0602Z" fill="url(#paint3_linear_1622_210497)"/>
<path fill-rule="evenodd" clip-rule="evenodd" d="M14.3544 64.181C16.9261 64.6341 23.8222 65.6244 29.1595 58.5914C29.3344 58.3608 29.2894 58.0316 29.0588 57.8566C28.8282 57.6817 28.4989 57.7267 28.324 57.9573C23.3552 64.5047 16.9307 63.5698 14.5364 63.1478C14.2514 63.0978 13.9791 63.2883 13.929 63.5735C13.8786 63.8585 14.0694 64.1306 14.3544 64.181Z" fill="#A7B6E4"/>
<path fill-rule="evenodd" clip-rule="evenodd" d="M70.5073 10.3776C68.5272 9.89049 70.5846 11.735 70.528 15.4883C70.4985 17.429 69.7239 18.7931 69.4639 20.872C69.2039 22.9508 70.3024 26.422 73.5609 27.0073C77.8215 27.7723 79.4752 23.603 79.5774 20.6348C79.7229 16.4155 76.263 11.7941 70.5073 10.3776Z" fill="url(#paint4_linear_1622_210497)"/>
<path fill-rule="evenodd" clip-rule="evenodd" d="M71.3846 31.0979C73.063 29.0971 77.3686 23.6201 73.9465 15.4815C73.8343 15.2146 73.5266 15.089 73.2598 15.2013C72.993 15.3133 72.8674 15.6212 72.9796 15.888C76.1656 23.4647 72.1436 28.5611 70.5811 30.4237C70.3951 30.6453 70.424 30.9765 70.6458 31.1626C70.8676 31.3486 71.1986 31.3194 71.3846 31.0979Z" fill="#A7B6E4"/>
<path fill-rule="evenodd" clip-rule="evenodd" d="M12.6196 42.7601C21.5667 38.3124 30.9074 38.4798 40.1859 42.8535C40.8804 43.1808 41.7101 42.8827 42.0374 42.1882C42.3649 41.4936 42.0668 40.6642 41.3723 40.3366C31.2777 35.5783 21.1151 35.4295 11.381 40.2684C10.6935 40.6103 10.4126 41.446 10.7544 42.1335C11.0963 42.821 11.9321 43.1017 12.6196 42.7601Z" fill="url(#paint5_linear_1622_210497)"/>
<path fill-rule="evenodd" clip-rule="evenodd" d="M47.0329 46.8426C53.1713 51.1057 59.1314 54.6434 64.7894 56.0425C70.749 57.5165 76.4009 56.7001 81.6471 52.0785C84.9504 49.1681 85.5357 46.4509 85.0085 44.4604C84.5743 42.8206 83.3559 41.5549 81.8719 40.8694C80.3934 40.1867 78.6718 40.0971 77.2724 40.695C75.8791 41.2903 74.7531 42.221 74.1139 43.454C73.47 44.696 73.2852 46.2684 73.9384 48.1972C74.1846 48.9245 74.9751 49.3149 75.7024 49.0687C76.4296 48.8222 76.8201 48.032 76.5739 47.3048C76.2202 46.2603 76.2353 45.4072 76.5839 44.7348C76.9371 44.0536 77.5959 43.5826 78.3657 43.2536C79.0784 42.9493 79.9524 43.0479 80.7054 43.3956C81.4525 43.7407 82.1002 44.3471 82.319 45.1726C82.6628 46.4713 81.9633 48.0917 79.8077 49.9906C74.4195 54.7373 68.5198 54.7189 62.2778 52.3327C57.8724 50.6483 53.3072 47.8125 48.6201 44.5573C47.9895 44.1193 47.122 44.2756 46.684 44.9062C46.246 45.5368 46.4023 46.4046 47.0329 46.8426Z" fill="url(#paint6_linear_1622_210497)"/>
<path fill-rule="evenodd" clip-rule="evenodd" d="M15.2365 36.6861C22.5804 32.4403 30.2458 32.7786 37.0366 31.5373C37.7918 31.3991 38.293 30.6739 38.1548 29.9187C38.0168 29.1632 37.2916 28.6622 36.5361 28.8002C29.4593 30.0941 21.4972 29.8524 13.8439 34.2772C13.1791 34.6616 12.9515 35.5132 13.3357 36.1781C13.7201 36.8426 14.5717 37.0705 15.2365 36.6861Z" fill="url(#paint7_linear_1622_210497)"/>
<path fill-rule="evenodd" clip-rule="evenodd" d="M44.5608 29.1152C49.9625 26.2938 53.8118 22.119 54.9582 18.5242C55.8728 15.6562 55.2444 13.0854 52.7651 11.4106C49.8651 9.45188 46.9422 10.5429 45.2583 12.6683C44.159 14.0559 43.6316 15.8893 43.9689 17.5464C44.122 18.2989 44.8571 18.7855 45.6095 18.6324C46.3619 18.4794 46.8485 17.7443 46.6952 16.9919C46.515 16.105 46.8508 15.1388 47.4391 14.3962C48.2864 13.3271 49.7485 12.731 51.2076 13.7165C52.5773 14.6417 52.8127 16.0944 52.3072 17.6789C51.3239 20.7626 47.9063 24.2288 43.2726 26.649C42.5919 27.0044 42.3281 27.8457 42.6836 28.5261C43.039 29.2068 43.8801 29.4707 44.5608 29.1152Z" fill="url(#paint8_linear_1622_210497)"/>
<path fill-rule="evenodd" clip-rule="evenodd" d="M16.9605 49.8286C18.6043 48.5156 22.4146 47.3223 26.8905 47.1207C27.6575 47.0862 28.2521 46.4355 28.2176 45.6684C28.1829 44.9014 27.5322 44.3066 26.7651 44.3413C21.5436 44.5764 17.1418 46.1228 15.2238 47.6549C14.6239 48.1339 14.526 49.0102 15.0053 49.6101C15.4843 50.21 16.3606 50.3079 16.9605 49.8286Z" fill="url(#paint9_linear_1622_210497)"/>
<path fill-rule="evenodd" clip-rule="evenodd" d="M34.064 47.7397C37.408 48.5055 40.737 50.0142 43.5642 52.6118C48.5999 57.2385 49.049 62.0748 47.3785 64.5942C46.9518 65.2376 46.3869 65.7006 45.7334 65.8584C45.1043 66.0105 44.4151 65.8577 43.7331 65.3947C42.8168 64.7729 42.4576 64.0051 42.5533 63.2872C42.6779 62.3538 43.4733 61.4996 44.3761 61.708C45.1242 61.8807 45.8719 61.4135 46.0446 60.6654C46.2173 59.9172 45.75 59.1695 45.0021 58.9969C42.1671 58.3423 39.3502 61.1497 39.8046 64.1924C39.9866 65.4103 40.673 66.6806 42.1706 67.6971C44.3255 69.1594 46.5508 68.9492 48.2588 67.6724C49.3592 66.85 50.2493 65.543 50.6969 63.8868C51.624 60.4572 50.6647 55.3573 45.4467 50.563C42.2421 47.6187 38.4754 45.8955 34.6848 45.0275C33.9363 44.8561 33.1897 45.3248 33.0183 46.0732C32.8468 46.8217 33.3156 47.5683 34.064 47.7397Z" fill="url(#paint10_linear_1622_210497)"/>
<defs>
<filter id="filter0_f_1622_210497" x="0.136487" y="0.00855732" width="94.7407" height="78.4673" filterUnits="userSpaceOnUse" color-interpolation-filters="sRGB">
<feFlood flood-opacity="0" result="BackgroundImageFix"/>
<feBlend mode="normal" in="SourceGraphic" in2="BackgroundImageFix" result="shape"/>
<feGaussianBlur stdDeviation="5.47619" result="effect1_foregroundBlur_1622_210497"/>
</filter>
<linearGradient id="paint0_linear_1622_210497" x1="65.3053" y1="33.2586" x2="55.2287" y2="40.4607" gradientUnits="userSpaceOnUse">
<stop stop-color="#E3E9FE"/>
<stop offset="1" stop-color="#B1C2FC"/>
</linearGradient>
<linearGradient id="paint1_linear_1622_210497" x1="61.0035" y1="75.8329" x2="70.5681" y2="67.9637" gradientUnits="userSpaceOnUse">
<stop stop-color="#E3E9FE"/>
<stop offset="1" stop-color="#B1C2FC"/>
</linearGradient>
<linearGradient id="paint2_linear_1622_210497" x1="35.0978" y1="16.3518" x2="25.0212" y2="9.14977" gradientUnits="userSpaceOnUse">
<stop stop-color="#E3E9FE"/>
<stop offset="1" stop-color="#B1C2FC"/>
</linearGradient>
<linearGradient id="paint3_linear_1622_210497" x1="21.3768" y1="54.6919" x2="28.5788" y2="64.7685" gradientUnits="userSpaceOnUse">
<stop stop-color="#E3E9FE"/>
<stop offset="1" stop-color="#B1C2FC"/>
</linearGradient>
<linearGradient id="paint4_linear_1622_210497" x1="66.6782" y1="20.2735" x2="79.0058" y2="19.0746" gradientUnits="userSpaceOnUse">
<stop stop-color="#E3E9FE"/>
<stop offset="1" stop-color="#B1C2FC"/>
</linearGradient>
<linearGradient id="paint5_linear_1622_210497" x1="33.3064" y1="35.5824" x2="28.8587" y2="50.3789" gradientUnits="userSpaceOnUse">
<stop stop-color="#E3E9FE" stop-opacity="0.5"/>
<stop offset="1" stop-color="#B1C2FC" stop-opacity="0.5"/>
</linearGradient>
<linearGradient id="paint6_linear_1622_210497" x1="33.3065" y1="35.5804" x2="28.8588" y2="50.377" gradientUnits="userSpaceOnUse">
<stop stop-color="#E3E9FE" stop-opacity="0.5"/>
<stop offset="1" stop-color="#B1C2FC" stop-opacity="0.5"/>
</linearGradient>
<linearGradient id="paint7_linear_1622_210497" x1="31.6709" y1="13.8073" x2="41.5338" y2="35.8999" gradientUnits="userSpaceOnUse">
<stop stop-color="#E3E9FE" stop-opacity="0.5"/>
<stop offset="1" stop-color="#B1C2FC" stop-opacity="0.5"/>
</linearGradient>
<linearGradient id="paint8_linear_1622_210497" x1="31.6709" y1="13.8044" x2="41.5339" y2="35.8969" gradientUnits="userSpaceOnUse">
<stop stop-color="#E3E9FE" stop-opacity="0.5"/>
<stop offset="1" stop-color="#B1C2FC" stop-opacity="0.5"/>
</linearGradient>
<linearGradient id="paint9_linear_1622_210497" x1="42.9693" y1="47.5826" x2="31.7451" y2="64.3253" gradientUnits="userSpaceOnUse">
<stop stop-color="#E3E9FE" stop-opacity="0.5"/>
<stop offset="1" stop-color="#B1C2FC" stop-opacity="0.5"/>
</linearGradient>
<linearGradient id="paint10_linear_1622_210497" x1="42.9691" y1="47.5814" x2="31.7449" y2="64.3241" gradientUnits="userSpaceOnUse">
<stop stop-color="#E3E9FE" stop-opacity="0.5"/>
<stop offset="1" stop-color="#B1C2FC" stop-opacity="0.5"/>
</linearGradient>
</defs>
</svg>
