<svg width="56" height="56" viewBox="0 0 56 56" fill="none" xmlns="http://www.w3.org/2000/svg">
<path d="M37.9256 37.3589C37.9503 37.3591 37.9751 37.3592 38 37.3592C43.5228 37.3592 48 32.6582 48 26.8592C48 21.6409 44.3745 17.3116 39.624 16.497C37.3379 12.2366 32.9888 9.35938 27.9996 9.35938C21.3736 9.35938 15.8764 14.4344 14.8414 21.0843C10.9874 21.5699 8 25.0149 8 29.1924C8 33.7027 11.4822 37.3591 15.7778 37.3591C15.7948 37.3591 15.8117 37.359 15.8286 37.3589H27.8909C27.9271 37.3592 27.9634 37.3594 27.9996 37.3594C28.0359 37.3594 28.0721 37.3592 28.1083 37.3589H37.9256Z" fill="#D9E0E5"/>
<path d="M35.6669 29.994C35.2222 31.6536 33.5643 32.6514 31.9639 32.2226C30.3635 31.7938 29.4267 30.1007 29.8714 28.4411C30.4294 26.3583 32.8068 25.0639 33.6966 24.6447C33.8956 24.5509 34.1269 24.6129 34.2524 24.7936C34.8133 25.6016 36.225 27.9112 35.6669 29.994Z" fill="#6ABEFC"/>
<path d="M32.6005 41.6346C32.1558 43.2943 30.4979 44.2921 28.8975 43.8632C27.2971 43.4344 26.3603 41.7414 26.805 40.0817C27.363 37.999 29.7404 36.7045 30.6302 36.2853C30.8292 36.1915 31.0605 36.2535 31.186 36.4342C31.7469 37.2422 33.1586 39.5519 32.6005 41.6346Z" fill="#6ABEFC"/>
<path d="M26.6005 33.6346C26.1558 35.2943 24.4979 36.2921 22.8975 35.8632C21.2971 35.4344 20.3603 33.7414 20.805 32.0817C21.363 29.999 23.7404 28.7045 24.6302 28.2853C24.8292 28.1915 25.0605 28.2535 25.186 28.4342C25.7469 29.2422 27.1586 31.5519 26.6005 33.6346Z" fill="#6ABEFC"/>
<path d="M22.6005 43.6346C22.1558 45.2943 20.4979 46.2921 18.8975 45.8632C17.2971 45.4344 16.3603 43.7414 16.805 42.0817C17.363 39.999 19.7404 38.7045 20.6302 38.2853C20.8292 38.1915 21.0605 38.2535 21.186 38.4342C21.7469 39.2422 23.1586 41.5519 22.6005 43.6346Z" fill="#6ABEFC"/>
</svg>
