<svg width="24" height="24" viewBox="0 0 24 24" fill="none" xmlns="http://www.w3.org/2000/svg">
<path d="M2 4C2 2.89543 2.89543 2 4 2H9C10.1046 2 11 2.89543 11 4V6C11 7.10457 10.1046 8 9 8H4C2.89543 8 2 7.10457 2 6V4Z" fill="#3663F2"/>
<path d="M13 20C13 21.1046 13.8954 22 15 22H20C21.1046 22 22 21.1046 22 20V16C22 14.8954 21.1046 14 20 14H15C13.8954 14 13 14.8954 13 16V20Z" fill="#3663F2"/>
<path d="M2 12C2 10.8954 2.89543 10 4 10H9C10.1046 10 11 10.8954 11 12V20C11 21.1046 10.1046 22 9 22H4C2.89543 22 2 21.1046 2 20V12Z" fill="#B2CCFF"/>
<path d="M13 10C13 11.1046 13.8954 12 15 12H20C21.1046 12 22 11.1046 22 10V4C22 2.89543 21.1046 2 20 2H15C13.8954 2 13 2.89543 13 4V10Z" fill="#B2CCFF"/>
</svg>
