<svg width="32" height="32" viewBox="0 0 32 32" fill="none" xmlns="http://www.w3.org/2000/svg">
<path d="M3.42871 8.57199C3.42871 6.99403 4.7079 5.71484 6.28585 5.71484H25.7144C27.2924 5.71484 28.5716 6.99403 28.5716 8.57199V23.4291C28.5716 25.0071 27.2924 26.2863 25.7144 26.2863H6.28585C4.7079 26.2863 3.42871 25.0071 3.42871 23.4291V8.57199Z" fill="#2EAAF0"/>
<path fill-rule="evenodd" clip-rule="evenodd" d="M26.8574 18.2865V22.8578C26.8574 23.8046 26.0898 24.5721 25.1431 24.5721H6.85735C5.91058 24.5721 5.14307 23.8046 5.14307 22.8578V21.7149L8.26555 18.5924C9.38134 17.4767 11.1904 17.4766 12.3062 18.5924L14.8573 21.1435L20.2656 15.7353C21.3813 14.6195 23.1904 14.6195 24.3062 15.7353L26.8574 18.2865Z" fill="#B8EBF6"/>
<ellipse cx="13.1426" cy="12.0006" rx="2.28571" ry="2.28571" fill="#B8EBF6"/>
</svg>
