<svg width="156" height="156" viewBox="0 0 156 156" fill="none" xmlns="http://www.w3.org/2000/svg">
<path fill-rule="evenodd" clip-rule="evenodd" d="M69.5812 147.805C68.8509 148.065 68.0518 148.065 67.3215 147.805C22.9552 131.75 6.7614 89.5998 10.0038 29.4455C10.0792 28.077 10.9838 26.8953 12.2848 26.4614C21.8664 23.2838 60.5164 10.4533 67.4003 8.17023C68.0826 7.94326 68.8202 7.94326 69.5031 8.17023C76.3864 10.4533 115.036 23.2838 124.619 26.4614C125.92 26.8953 126.825 28.077 126.9 29.4455C130.141 89.5998 113.948 131.75 69.5812 147.805Z" fill="url(#paint0_linear_3636_435766)"/>
<path fill-rule="evenodd" clip-rule="evenodd" d="M68.4507 140.821C28.4015 125.647 14.3259 86.8281 16.8079 32.2681L68.4514 15.125L120.094 32.2681C122.576 86.8281 108.501 125.647 68.4514 140.821H68.4507Z" fill="url(#paint1_linear_3636_435766)"/>
<path fill-rule="evenodd" clip-rule="evenodd" d="M47.0014 72.6093C47.0014 72.6093 50.3246 77.7362 54.1017 82.783C55.3881 84.5053 56.7199 86.1408 57.9402 87.5827C60.2119 90.2663 62.0176 92.1356 62.0176 92.1356C63.0684 93.177 64.503 93.7378 65.9803 93.6777C67.457 93.6176 68.8442 92.95 69.8095 91.8352C69.8095 91.8352 71.3122 90.193 73.5091 87.496C75.0085 85.6535 76.8169 83.3237 78.7615 80.7335C87.2202 69.4583 98.3392 53.7039 98.3392 53.7039C99.0701 52.8561 98.9754 51.5744 98.1289 50.8467C97.2817 50.1124 96.0014 50.2059 95.2704 51.0537C95.2704 51.0537 81.3149 64.365 71.4009 74.3851C69.1219 76.6882 67.0831 78.8176 65.4816 80.5666C65.4089 80.6467 65.3368 80.7269 65.266 80.807C65.1559 80.7136 65.0437 80.6201 64.9309 80.5267C63.4776 79.3184 61.8301 78.0032 60.0971 76.7348C55.0102 73.0031 49.854 69.7321 49.854 69.7321C49.0589 68.9443 47.7745 68.951 46.9874 69.7454C46.2004 70.5398 46.207 71.8216 47.0014 72.6093Z" fill="#839FFF"/>
<g filter="url(#filter0_f_3636_435766)">
<path fill-rule="evenodd" clip-rule="evenodd" d="M99.9646 92.0633C101.214 92.7308 102.74 92.5973 103.854 91.7228C108.031 88.4651 113.195 86.4624 118.749 86.1954C119.902 86.142 102.65 133.786 98.3238 127.538C94.9592 122.671 93.2002 116.656 93.7389 110.314C93.8577 108.919 94.0827 107.557 94.4065 106.236C94.8885 104.3 94.809 102.27 94.1775 100.374C93.3738 97.8444 90.606 92.2568 89.6387 89.3596C89.3744 88.5719 89.6194 87.6973 90.2569 87.1633C90.8944 86.6226 91.7956 86.529 92.5306 86.9229C94.532 87.9977 98.3598 91.2021 99.9646 92.0633Z" fill="#A4B7FC"/>
</g>
<path fill-rule="evenodd" clip-rule="evenodd" d="M99.9649 92.0644C101.214 92.7319 102.74 92.5984 103.854 91.7239C108.898 87.792 115.382 85.6823 122.252 86.2631C136.758 87.4981 147.534 100.275 146.301 114.781C145.07 129.281 132.293 140.055 117.788 138.827C103.283 137.592 92.5076 124.815 93.7392 110.315C93.8581 108.92 94.083 107.559 94.4068 106.237C94.8888 104.301 94.8093 102.271 94.1778 100.376C93.3741 97.8455 92.1745 94.2606 91.2065 91.3634C90.9421 90.569 91.1878 89.6945 91.8253 89.1604C92.4622 88.6197 93.3634 88.5262 94.0984 88.92C96.1004 89.9948 98.3601 91.2032 99.9649 92.0644Z" fill="url(#paint2_linear_3636_435766)"/>
<path fill-rule="evenodd" clip-rule="evenodd" d="M116.847 109.638C115.712 106.434 116.425 102.722 118.986 100.159C122.533 96.6138 128.294 96.6138 131.842 100.159C135.39 103.71 135.39 109.471 131.842 113.016C129.245 115.619 125.461 116.314 122.228 115.105L119.591 117.742C119.349 117.983 119.033 118.143 118.693 118.19C118.429 118.223 118.095 118.27 117.764 118.316C116.986 118.423 116.407 119.084 116.407 119.872V120.125C116.407 120.539 116.241 120.94 115.947 121.234C115.652 121.527 115.252 121.694 114.836 121.694H114.774C113.911 121.694 113.212 122.395 113.212 123.256V123.263C113.212 123.684 113.037 124.097 112.73 124.391C112.423 124.685 112.008 124.838 111.583 124.825C110.79 124.785 109.846 124.745 109.08 124.712C108.264 124.678 107.612 124.031 107.577 123.21C107.53 122.108 107.467 120.626 107.431 119.772C107.412 119.331 107.578 118.904 107.889 118.59L116.847 109.638ZM126.014 105.986C124.865 104.838 124.865 102.976 126.014 101.821C127.164 100.673 129.03 100.673 130.179 101.821C131.329 102.976 131.329 104.838 130.179 105.986C129.03 107.141 127.164 107.141 126.014 105.986Z" fill="#839FFF"/>
<defs>
<filter id="filter0_f_3636_435766" x="75.5337" y="72.1953" width="57.2705" height="69.9082" filterUnits="userSpaceOnUse" color-interpolation-filters="sRGB">
<feFlood flood-opacity="0" result="BackgroundImageFix"/>
<feBlend mode="normal" in="SourceGraphic" in2="BackgroundImageFix" result="shape"/>
<feGaussianBlur stdDeviation="7" result="effect1_foregroundBlur_3636_435766"/>
</filter>
<linearGradient id="paint0_linear_3636_435766" x1="13.8025" y1="25.9608" x2="108.36" y2="122.558" gradientUnits="userSpaceOnUse">
<stop stop-color="#B0C2FD"/>
<stop offset="1" stop-color="#A3B7FC"/>
</linearGradient>
<linearGradient id="paint1_linear_3636_435766" x1="27.7773" y1="2.57479" x2="116.98" y2="129.966" gradientUnits="userSpaceOnUse">
<stop stop-color="white"/>
<stop offset="1" stop-color="#D4DDFC"/>
</linearGradient>
<linearGradient id="paint2_linear_3636_435766" x1="92.7052" y1="88.7264" x2="140.519" y2="135.55" gradientUnits="userSpaceOnUse">
<stop stop-color="white"/>
<stop offset="1" stop-color="#CBD5F6"/>
</linearGradient>
</defs>
</svg>
