<svg width="156" height="156" viewBox="0 0 156 156" fill="none" xmlns="http://www.w3.org/2000/svg">
<path d="M68.8196 148.002C96.8864 148.002 119.639 141.327 119.639 133.093C119.639 124.859 96.8864 118.184 68.8196 118.184C40.7527 118.184 18 124.859 18 133.093C18 141.327 40.7527 148.002 68.8196 148.002Z" fill="url(#paint0_linear_2974_421971)"/>
<path fill-rule="evenodd" clip-rule="evenodd" d="M112.94 80.6915C118.724 78.8298 123.09 79.329 125.641 81.8367C128.001 84.1598 128.465 87.9051 127.322 91.6828C124.49 101.019 115.628 109.405 103.394 107.57C100.641 107.152 98.0706 109.052 97.6575 111.809C97.2444 114.561 99.1436 117.128 101.897 117.541C119.749 120.222 132.843 108.238 136.974 94.6084C139.313 86.8954 137.538 79.3942 132.717 74.6503C128.086 70.0909 120.344 67.7082 109.846 71.0897C107.197 71.9473 105.739 74.7915 106.593 77.4402C107.447 80.089 110.291 81.5437 112.94 80.6915Z" fill="url(#paint1_linear_2974_421971)"/>
<path fill-rule="evenodd" clip-rule="evenodd" d="M117.193 64.1068C117.5 76.8133 110.882 120.757 100.85 130.679C96.1368 135.499 83.5676 138.951 68.8197 138.951C54.0897 138.951 83.5671 138.951 68.8371 138.951C54.0892 138.951 41.52 135.499 36.8064 130.679C26.7748 120.757 20.1572 76.8133 20.4638 64.1068C20.7879 50.6675 116.869 50.6675 117.193 64.1068Z" fill="url(#paint2_linear_2974_421971)"/>
<path d="M68.8191 75.2108C95.5355 75.2108 117.193 70.2405 117.193 64.1093C117.193 57.9781 95.5355 53.0078 68.8191 53.0078C42.1027 53.0078 20.4448 57.9781 20.4448 64.1093C20.4448 70.2405 42.1027 75.2108 68.8191 75.2108Z" fill="url(#paint3_linear_2974_421971)"/>
<path fill-rule="evenodd" clip-rule="evenodd" d="M25.3237 68.9651C32.9243 65.1982 49.5508 62.582 68.8195 62.582C88.0877 62.582 104.714 65.1982 112.315 68.9651C104.454 72.6615 87.9222 75.2071 68.8195 75.2071C49.7169 75.2071 33.1854 72.6615 25.3237 68.9651Z" fill="url(#paint4_linear_2974_421971)"/>
<path fill-rule="evenodd" clip-rule="evenodd" d="M44.9983 21.3791C43.0003 24.6303 42.0076 27.252 41.4458 29.6945C41.0908 31.236 41.0696 32.6092 41.1315 33.939C41.2656 36.794 42.1639 39.1551 43.2554 41.3913C43.8519 42.6126 44.5771 43.7471 45.2198 44.9792C45.9004 46.2819 46.6809 47.5683 47.0017 49.3649C47.1901 50.4179 47.4028 51.5197 47.4131 52.8604C47.4272 54.7384 47.3529 56.7684 46.8986 59.3303C46.7227 59.7591 46.9295 60.2476 47.3594 60.4267C47.7893 60.6004 48.2805 60.3942 48.4564 59.9655C50.2085 57.3981 51.3016 55.2649 52.0767 53.2186C52.842 51.1994 53.0695 49.4301 53.1449 47.7637C53.2811 44.7459 52.5288 42.2653 51.4688 39.9585C50.8614 38.6395 50.0581 37.4454 49.3199 36.1699C48.6702 35.0463 47.9315 33.9662 47.4674 32.555C47.1938 31.7245 46.8709 30.8885 46.7064 29.8681C46.3558 27.697 46.1588 25.26 46.5854 21.9381C46.7395 21.4985 46.5099 21.0209 46.0719 20.8634C45.6339 20.7115 45.153 20.9394 44.9983 21.3791Z" fill="url(#paint5_linear_2974_421971)"/>
<path fill-rule="evenodd" clip-rule="evenodd" d="M89.9678 25.5927C88.4915 28.4912 87.6854 30.7437 87.147 32.8931C86.8224 34.1903 86.7225 35.3248 86.6748 36.4375C86.5667 38.9668 86.9999 41.0186 87.6029 42.9889C87.9498 44.1233 88.4133 45.198 88.8616 46.3541C89.5054 48.0204 90.2843 49.7248 90.6175 52.3301C90.8737 54.3276 91.1625 56.4879 91.0859 59.4298C90.9649 59.8748 91.2303 60.3362 91.6787 60.461C92.127 60.5804 92.5894 60.3144 92.7105 59.8639C94.5277 56.5203 95.5091 53.9747 96.0795 51.5865C96.6788 49.0788 96.587 47.0326 96.3645 45.1274C96.2131 43.8356 95.9216 42.6469 95.514 41.5071C95.0178 40.123 94.3209 38.8529 93.7591 37.3168C93.3157 36.1064 92.7811 34.8689 92.4532 33.208C92.0575 31.1997 91.6445 29.0231 91.6065 25.9781C91.7123 25.5221 91.4306 25.0717 90.9785 24.9686C90.5263 24.86 90.0737 25.1422 89.9678 25.5927Z" fill="url(#paint6_linear_2974_421971)"/>
<path fill-rule="evenodd" clip-rule="evenodd" d="M69.057 8.62566C67.1317 12.9353 66.0809 16.4091 65.5256 19.5518C65.1913 21.4407 65.1174 23.1287 65.1614 24.7354C65.2607 28.372 66.0917 31.3357 67.1295 34.1581C67.7608 35.8787 68.5169 37.5125 69.2046 39.2874C70.2098 41.8819 71.1879 44.6826 71.3915 48.7317C71.5407 51.6953 71.5483 55.0769 70.9513 59.4029C70.8156 59.848 71.0658 60.3147 71.5103 60.4504C71.9543 60.5861 72.4249 60.3364 72.5606 59.8913C74.2763 56.4175 75.4113 53.5082 76.1712 50.8106C76.8817 48.2921 77.1569 46.0884 77.2378 44.0476C77.3876 40.2861 76.7265 37.2248 75.7419 34.3752C75.1144 32.5569 74.2785 30.8688 73.5132 29.0668C72.8076 27.4004 72.0509 25.6962 71.5489 23.5956C71.2617 22.3961 70.9632 21.1421 70.7873 19.6929C70.4318 16.7619 70.2657 13.4076 70.6837 9.05447C70.802 8.60397 70.5339 8.14253 70.085 8.02854C69.6361 7.90913 69.1753 8.17515 69.057 8.62566Z" fill="url(#paint7_linear_2974_421971)"/>
<defs>
<linearGradient id="paint0_linear_2974_421971" x1="20.4453" y1="121.07" x2="109.238" y2="169.867" gradientUnits="userSpaceOnUse">
<stop stop-color="#D5DEFE"/>
<stop offset="1" stop-color="#A8BCFC"/>
</linearGradient>
<linearGradient id="paint1_linear_2974_421971" x1="98.5726" y1="74.189" x2="141.775" y2="74.537" gradientUnits="userSpaceOnUse">
<stop stop-color="#D5DEFE"/>
<stop offset="1" stop-color="#A8BCFC"/>
</linearGradient>
<linearGradient id="paint2_linear_2974_421971" x1="11.7196" y1="53.0069" x2="84.7585" y2="119.38" gradientUnits="userSpaceOnUse">
<stop stop-color="#F9FBFF"/>
<stop offset="1" stop-color="#C9D5FB"/>
</linearGradient>
<linearGradient id="paint3_linear_2974_421971" x1="22.7724" y1="55.1589" x2="79.4633" y2="120.247" gradientUnits="userSpaceOnUse">
<stop stop-color="#D5DEFE"/>
<stop offset="1" stop-color="#A8BCFC"/>
</linearGradient>
<linearGradient id="paint4_linear_2974_421971" x1="65.4103" y1="61.3173" x2="66.0688" y2="76.3309" gradientUnits="userSpaceOnUse">
<stop stop-color="#A5B9FD"/>
<stop offset="1" stop-color="#87A2FB"/>
</linearGradient>
<linearGradient id="paint5_linear_2974_421971" x1="40.0163" y1="20.3369" x2="55.7724" y2="20.6087" gradientUnits="userSpaceOnUse">
<stop stop-color="#F9FBFF" stop-opacity="0.5"/>
<stop offset="1" stop-color="#C9D5FB" stop-opacity="0.5"/>
</linearGradient>
<linearGradient id="paint6_linear_2974_421971" x1="85.7667" y1="24.5181" x2="98.7777" y2="24.6896" gradientUnits="userSpaceOnUse">
<stop stop-color="#F9FBFF" stop-opacity="0.5"/>
<stop offset="1" stop-color="#C9D5FB" stop-opacity="0.5"/>
</linearGradient>
<linearGradient id="paint7_linear_2974_421971" x1="64.0569" y1="7.36635" x2="80.2223" y2="7.48833" gradientUnits="userSpaceOnUse">
<stop stop-color="#F9FBFF" stop-opacity="0.5"/>
<stop offset="1" stop-color="#C9D5FB" stop-opacity="0.5"/>
</linearGradient>
</defs>
</svg>
