<svg width="156" height="156" viewBox="0 0 156 156" fill="none" xmlns="http://www.w3.org/2000/svg">
<path fill-rule="evenodd" clip-rule="evenodd" d="M93.866 22C123.744 22 148 40.0618 148 62.3117C148 93.211 111.251 117.9 81.3775 118.404C77.3844 118.469 87.8042 102.429 84.8819 102.062C59.2744 98.8742 39.7324 82.2804 39.7324 62.3117C39.7324 40.0618 63.9885 22 93.866 22Z" fill="url(#paint0_linear_2974_421964)"/>
<path fill-rule="evenodd" clip-rule="evenodd" d="M44.9713 73.5859C26.1683 73.5859 10.9028 84.9483 10.9028 98.9516C10.9028 118.402 34.0306 133.938 52.8307 134.248C55.3435 134.291 48.7858 124.202 50.6251 123.972C66.7411 121.964 79.039 111.516 79.039 98.9516C79.039 84.9483 63.7735 73.5859 44.9713 73.5859Z" fill="url(#paint1_linear_2974_421964)"/>
<path d="M60.034 66.1617C62.6653 66.1617 64.7984 64.0286 64.7984 61.3973C64.7984 58.766 62.6653 56.6328 60.034 56.6328C57.4026 56.6328 55.2695 58.766 55.2695 61.3973C55.2695 64.0286 57.4026 66.1617 60.034 66.1617Z" fill="#F7F9FF"/>
<path d="M79.0388 66.1617C81.6702 66.1617 83.8033 64.0286 83.8033 61.3973C83.8033 58.766 81.6702 56.6328 79.0388 56.6328C76.4075 56.6328 74.2744 58.766 74.2744 61.3973C74.2744 64.0286 76.4075 66.1617 79.0388 66.1617Z" fill="#F7F9FF"/>
<path d="M102.473 70.5887C107.55 70.5887 111.666 66.473 111.666 61.396C111.666 56.3189 107.55 52.2031 102.473 52.2031C97.396 52.2031 93.2803 56.3189 93.2803 61.396C93.2803 66.473 97.396 70.5887 102.473 70.5887Z" fill="#F7F9FF"/>
<path d="M125.908 66.1617C128.539 66.1617 130.672 64.0286 130.672 61.3973C130.672 58.766 128.539 56.6328 125.908 56.6328C123.277 56.6328 121.144 58.766 121.144 61.3973C121.144 64.0286 123.277 66.1617 125.908 66.1617Z" fill="#F7F9FF"/>
<path fill-rule="evenodd" clip-rule="evenodd" d="M43.9139 111.523C45.0984 111.523 46.0598 112.487 46.0598 113.667C46.0598 114.855 45.0984 115.819 43.9139 115.819C42.7295 115.819 41.7674 114.855 41.7674 113.667C41.7674 112.487 42.7295 111.523 43.9139 111.523ZM43.9139 88.4528C40.4815 88.4528 37.9096 91.029 37.9096 93.9505C37.9096 94.9436 37.103 95.7495 36.1085 95.7495C35.1133 95.7495 34.3066 94.9436 34.3066 93.9505C34.3066 88.8126 38.7242 84.8477 43.9139 84.8477C49.1036 84.8477 53.5205 88.8126 53.5205 93.9505C53.5205 98.4408 51.0559 100.938 48.9972 102.722C48.7237 102.96 48.469 103.176 48.2308 103.377C47.5213 103.982 46.9564 104.457 46.4908 104.996C45.9346 105.63 45.7151 106.14 45.7151 106.723V107.04C45.7151 108.033 44.9084 108.839 43.9139 108.839C42.9187 108.839 42.1128 108.033 42.1128 107.04V106.723C42.1128 104.989 42.8684 103.665 43.7758 102.629C44.4378 101.866 45.2912 101.146 46.0475 100.506C46.2526 100.333 46.4505 100.161 46.6362 100.002C48.4798 98.4048 49.9182 96.8289 49.9182 93.9505C49.9182 91.029 47.3457 88.4528 43.9139 88.4528Z" fill="#8CA8FF"/>
<path fill-rule="evenodd" clip-rule="evenodd" d="M27.535 51.8697L9.25225 46.1057C8.3103 45.8107 7.78643 44.8033 8.08291 43.8606C8.3801 42.9179 9.38538 42.3926 10.3273 42.6948L28.6108 48.4516C29.5527 48.7466 30.0766 49.7541 29.7794 50.6967C29.4829 51.6394 28.4769 52.1647 27.535 51.8697Z" fill="#86A3FF"/>
<path fill-rule="evenodd" clip-rule="evenodd" d="M27.8272 61.1162L12.8337 62.9511C11.8536 63.0663 10.9606 62.3683 10.8404 61.3897C10.721 60.411 11.4197 59.5187 12.3998 59.3964L27.3933 57.5686C28.3734 57.4463 29.2664 58.1443 29.3865 59.1229C29.506 60.1088 28.8073 61.0011 27.8272 61.1162Z" fill="#86A3FF"/>
<path fill-rule="evenodd" clip-rule="evenodd" d="M32.3106 44.1923L25.9119 36.7732C25.2665 36.0248 25.3499 34.8879 26.0983 34.2475C26.846 33.5999 27.9764 33.6861 28.6219 34.4345L35.0213 41.8536C35.666 42.602 35.5826 43.7317 34.8342 44.3794C34.0865 45.0198 32.956 44.9406 32.3106 44.1923Z" fill="#86A3FF"/>
<defs>
<linearGradient id="paint0_linear_2974_421964" x1="55.2699" y1="29.2607" x2="130.673" y2="97.6841" gradientUnits="userSpaceOnUse">
<stop stop-color="#D2DCFE"/>
<stop offset="1" stop-color="#C2CFFD"/>
</linearGradient>
<linearGradient id="paint1_linear_2974_421964" x1="26.4964" y1="46.2629" x2="52.6676" y2="130.863" gradientUnits="userSpaceOnUse">
<stop stop-color="#F9FBFF"/>
<stop offset="1" stop-color="#D7DFFC"/>
</linearGradient>
</defs>
</svg>
