<svg width="156" height="156" viewBox="0 0 156 156" fill="none" xmlns="http://www.w3.org/2000/svg">
<path fill-rule="evenodd" clip-rule="evenodd" d="M121.404 53.9602C121.404 51.5893 120.462 49.3151 118.785 47.6383C117.108 45.9615 114.835 45.0195 112.463 45.0195C91.3709 45.0195 47.81 45.0195 26.717 45.0195C24.3456 45.0195 22.0719 45.9615 20.3951 47.6383C18.7183 49.3151 17.7764 51.5893 17.7764 53.9602C17.7764 69.8172 17.7764 102.687 17.7764 118.544C17.7764 120.915 18.7183 123.189 20.3951 124.866C22.0719 126.542 24.3456 127.484 26.717 127.484C47.81 127.484 91.3709 127.484 112.463 127.484C114.835 127.484 117.108 126.542 118.785 124.866C120.462 123.189 121.404 120.915 121.404 118.544C121.404 102.687 121.404 69.8172 121.404 53.9602Z" fill="url(#paint0_linear_2319_311142)"/>
<path fill-rule="evenodd" clip-rule="evenodd" d="M121.404 53.9602C121.404 51.5893 120.462 49.3151 118.785 47.6383C117.108 45.9615 114.835 45.0195 112.463 45.0195C91.3709 45.0195 47.81 45.0195 26.717 45.0195C24.3456 45.0195 22.0719 45.9615 20.3951 47.6383C18.7183 49.3151 17.7764 51.5893 17.7764 53.9602C17.7764 58.6781 17.7764 63.5009 17.7764 63.5009H121.404V53.9602Z" fill="url(#paint1_linear_2319_311142)"/>
<path fill-rule="evenodd" clip-rule="evenodd" d="M148 119.94C148 120.623 147.689 121.27 147.156 121.696C146.622 122.123 145.923 122.283 145.256 122.132C143.333 121.762 140.872 121.191 139.571 120.371C135.138 117.576 121.404 105.745 121.404 105.745V67.1559C121.404 67.1559 135.138 55.3242 139.571 52.5294C140.872 51.7091 143.333 51.1381 145.262 50.7931C145.921 50.644 146.612 50.8028 147.14 51.2241C147.668 51.646 147.975 52.2852 147.975 52.961C148 64.1774 148 108.723 148 119.94Z" fill="url(#paint2_linear_2319_311142)"/>
<path fill-rule="evenodd" clip-rule="evenodd" d="M148 119.94C148 120.623 147.689 121.27 147.155 121.696C146.621 122.123 145.922 122.283 145.256 122.132C143.333 121.762 140.872 121.191 139.57 120.371V52.5294C140.872 51.7091 143.333 51.1381 145.262 50.7931C145.921 50.644 146.612 50.8028 147.14 51.2241C147.668 51.646 147.975 52.2852 147.975 52.961C148 64.1774 148 108.723 148 119.94Z" fill="url(#paint3_linear_2319_311142)"/>
<path fill-rule="evenodd" clip-rule="evenodd" d="M83.2742 96.69C81.3811 95.5867 80.1073 93.5349 80.1073 91.1874C80.1073 87.6755 82.9586 84.8242 86.4705 84.8242C89.9828 84.8242 92.8342 87.6755 92.8342 91.1874C92.8342 93.5349 91.5604 95.5867 89.6673 96.69C94.0219 98.0513 97.1846 102.118 97.1846 106.918C97.1846 112.831 75.7568 112.831 75.7568 106.918C75.7568 102.118 78.9196 98.0513 83.2742 96.69Z" fill="url(#paint4_linear_2319_311142)"/>
<path fill-rule="evenodd" clip-rule="evenodd" d="M49.5144 96.69C47.6213 95.5867 46.3476 93.5349 46.3476 91.1874C46.3476 87.6755 49.1989 84.8242 52.7112 84.8242C56.2231 84.8242 59.0744 87.6755 59.0744 91.1874C59.0744 93.5349 57.8006 95.5867 55.9076 96.69C60.2621 98.0513 63.4249 102.118 63.4249 106.918C63.4249 112.831 41.9971 112.831 41.9971 106.918C41.9971 102.118 45.1598 98.0513 49.5144 96.69Z" fill="url(#paint5_linear_2319_311142)"/>
<path fill-rule="evenodd" clip-rule="evenodd" d="M65.4607 96.3389C63.0908 94.9577 61.4964 92.3889 61.4964 89.4505C61.4964 85.0537 65.0658 81.4844 69.4626 81.4844C73.8594 81.4844 77.4293 85.0537 77.4293 89.4505C77.4293 92.3889 75.8349 94.9577 73.4645 96.3389C78.9162 98.0436 82.8759 103.135 82.8759 109.144C82.8759 116.547 56.0498 116.547 56.0498 109.144C56.0498 103.135 60.0095 98.0436 65.4607 96.3389Z" fill="url(#paint6_linear_2319_311142)"/>
<g filter="url(#filter0_f_2319_311142)">
<path fill-rule="evenodd" clip-rule="evenodd" d="M60.2116 48.5818C60.2116 46.6149 58.6168 45.0195 56.6494 45.0195C48.7703 45.0195 29.9414 45.0195 22.0622 45.0195C20.0949 45.0195 18.5 46.6149 18.5 48.5818C18.5 54.4533 18.5 66.0952 18.5 71.9662C18.5 73.9336 20.0949 75.5285 22.0622 75.5285C29.9414 75.5285 48.7703 75.5285 56.6494 75.5285C58.6168 75.5285 60.2116 73.9336 60.2116 71.9662C60.2116 66.0952 60.2116 54.4533 60.2116 48.5818Z" fill="#A3B8FF"/>
</g>
<path fill-rule="evenodd" clip-rule="evenodd" d="M60.212 37.406C60.212 35.4386 58.6172 33.8438 56.6498 33.8438C47.1158 33.8438 21.0963 33.8438 11.5622 33.8438C9.59486 33.8438 8 35.4386 8 37.406C8 45.2805 8 64.0916 8 71.9657C8 73.933 9.59486 75.5279 11.5622 75.5279C21.0963 75.5279 47.1158 75.5279 56.6498 75.5279C58.6172 75.5279 60.212 73.933 60.212 71.9657C60.212 64.0916 60.212 45.2805 60.212 37.406Z" fill="url(#paint7_linear_2319_311142)"/>
<path fill-rule="evenodd" clip-rule="evenodd" d="M52.989 31.1811C52.989 30.6025 52.759 30.0478 52.3504 29.6387C51.9412 29.2295 51.3866 29 50.8079 29C49.9179 29 48.891 29 48.0014 29C47.4228 29 46.8681 29.2295 46.459 29.6387C46.0498 30.0478 45.8203 30.6025 45.8203 31.1811C45.8203 33.6019 45.8203 37.1733 45.8203 37.1733H52.989V31.1811Z" fill="url(#paint8_linear_2319_311142)"/>
<path fill-rule="evenodd" clip-rule="evenodd" d="M22.3904 31.1811C22.3904 30.6025 22.1609 30.0478 21.7517 29.6387C21.3426 29.2295 20.7879 29 20.2093 29C19.3198 29 18.2928 29 17.4028 29C16.8242 29 16.2695 29.2295 15.8603 29.6387C15.4517 30.0478 15.2217 30.6025 15.2217 31.1811C15.2217 33.6019 15.2217 37.1733 15.2217 37.1733H22.3904V31.1811Z" fill="url(#paint9_linear_2319_311142)"/>
<path fill-rule="evenodd" clip-rule="evenodd" d="M60.212 37.406C60.212 35.4386 58.6172 33.8438 56.6498 33.8438C47.1158 33.8438 21.0963 33.8438 11.5622 33.8438C9.59486 33.8438 8 35.4386 8 37.406C8 39.6084 8 42.017 8 42.017H60.212V37.406Z" fill="url(#paint10_linear_2319_311142)"/>
<path fill-rule="evenodd" clip-rule="evenodd" d="M34.106 54.1674L28.8283 48.8892C27.8355 47.8963 26.2228 47.8963 25.23 48.8892C24.2371 49.8825 24.2371 51.4947 25.23 52.4875L30.5077 57.7657L25.23 63.0434C24.2371 64.0363 24.2371 65.6489 25.23 66.6418C26.2228 67.6346 27.8355 67.6346 28.8283 66.6418L34.106 61.3641L39.3837 66.6418C40.3771 67.6346 41.9892 67.6346 42.9821 66.6418C43.9754 65.6489 43.9754 64.0363 42.9821 63.0434L37.7044 57.7657L42.9821 52.4875C43.9754 51.4947 43.9754 49.8825 42.9821 48.8892C41.9892 47.8963 40.3771 47.8963 39.3837 48.8892L34.106 54.1674Z" fill="#8AA4FC"/>
<defs>
<filter id="filter0_f_2319_311142" x="2.59524" y="29.1148" width="73.5214" height="62.3193" filterUnits="userSpaceOnUse" color-interpolation-filters="sRGB">
<feFlood flood-opacity="0" result="BackgroundImageFix"/>
<feBlend mode="normal" in="SourceGraphic" in2="BackgroundImageFix" result="shape"/>
<feGaussianBlur stdDeviation="7.95238" result="effect1_foregroundBlur_2319_311142"/>
</filter>
<linearGradient id="paint0_linear_2319_311142" x1="120.036" y1="42.2802" x2="14.1063" y2="123.403" gradientUnits="userSpaceOnUse">
<stop stop-color="#E3E9FE"/>
<stop offset="1" stop-color="#D5DEFE"/>
</linearGradient>
<linearGradient id="paint1_linear_2319_311142" x1="119.967" y1="46.3085" x2="8.6647" y2="61.7613" gradientUnits="userSpaceOnUse">
<stop stop-color="#D7E0FE"/>
<stop offset="1" stop-color="#B1C2FC"/>
</linearGradient>
<linearGradient id="paint2_linear_2319_311142" x1="144.885" y1="45.0182" x2="130.487" y2="116.025" gradientUnits="userSpaceOnUse">
<stop stop-color="#F6F8FF"/>
<stop offset="1" stop-color="#E4EAFD"/>
</linearGradient>
<linearGradient id="paint3_linear_2319_311142" x1="155.741" y1="43.6844" x2="127.603" y2="151.267" gradientUnits="userSpaceOnUse">
<stop stop-color="#E3E9FE"/>
<stop offset="1" stop-color="#B1C2FC"/>
</linearGradient>
<linearGradient id="paint4_linear_2319_311142" x1="82.8904" y1="86.6471" x2="92.276" y2="109.491" gradientUnits="userSpaceOnUse">
<stop stop-color="#C7D3FE"/>
<stop offset="1" stop-color="#A0B5FC"/>
</linearGradient>
<linearGradient id="paint5_linear_2319_311142" x1="49.1307" y1="86.6471" x2="58.5163" y2="109.491" gradientUnits="userSpaceOnUse">
<stop stop-color="#C7D3FE"/>
<stop offset="1" stop-color="#A0B5FC"/>
</linearGradient>
<linearGradient id="paint6_linear_2319_311142" x1="63.6714" y1="60.4031" x2="104.185" y2="79.1979" gradientUnits="userSpaceOnUse">
<stop stop-color="#BECDFE"/>
<stop offset="1" stop-color="#7C99FB"/>
</linearGradient>
<linearGradient id="paint7_linear_2319_311142" x1="57.4615" y1="34.0142" x2="-30.521" y2="74.6798" gradientUnits="userSpaceOnUse">
<stop stop-color="#F6F8FF"/>
<stop offset="0.44" stop-color="#EDF0FE"/>
<stop offset="1" stop-color="#D7DFFC"/>
</linearGradient>
<linearGradient id="paint8_linear_2319_311142" x1="59.5736" y1="28.1929" x2="59.5652" y2="41.3257" gradientUnits="userSpaceOnUse">
<stop stop-color="#E3E9FE"/>
<stop offset="1" stop-color="#B1C2FC"/>
</linearGradient>
<linearGradient id="paint9_linear_2319_311142" x1="28.9749" y1="28.1929" x2="28.9666" y2="41.3257" gradientUnits="userSpaceOnUse">
<stop stop-color="#E3E9FE"/>
<stop offset="1" stop-color="#B1C2FC"/>
</linearGradient>
<linearGradient id="paint10_linear_2319_311142" x1="59.5225" y1="33.572" x2="59.3192" y2="54.0259" gradientUnits="userSpaceOnUse">
<stop stop-color="#E3E9FE"/>
<stop offset="1" stop-color="#D5DEFE"/>
</linearGradient>
</defs>
</svg>
