<svg width="161" height="156" viewBox="0 0 161 156" fill="none" xmlns="http://www.w3.org/2000/svg">
<path fill-rule="evenodd" clip-rule="evenodd" d="M129.295 64.3213C129.295 60.0211 127.145 56.0052 123.567 53.6203C112.798 46.4439 89.5787 30.9694 78.001 23.2541C73.8506 20.4882 68.4441 20.4882 64.2943 23.2541C52.7165 30.9694 29.4972 46.4439 18.7279 53.6203C15.1498 56.0052 13 60.0211 13 64.3213C13 79.3415 13 114.803 13 128.462C13 131.498 15.4614 133.959 18.4972 133.959C38.0675 133.959 104.227 133.959 123.798 133.959C126.834 133.959 129.295 131.498 129.295 128.462C129.295 114.803 129.295 79.3415 129.295 64.3213Z" fill="url(#paint0_linear_2308_287189)"/>
<g filter="url(#filter0_f_2308_287189)">
<path fill-rule="evenodd" clip-rule="evenodd" d="M118.381 58.0397L83.1676 32.7109H60.2008L23.9131 57.4783V101.719H118.381V58.0397Z" fill="#8FA8FB"/>
</g>
<path fill-rule="evenodd" clip-rule="evenodd" d="M118.381 36.2939C118.381 34.3152 116.777 32.7109 114.798 32.7109C99.8386 32.7109 42.4551 32.7109 27.4961 32.7109C25.5168 32.7109 23.9131 34.3152 23.9131 36.2939C23.9131 49.7378 23.9131 101.719 23.9131 101.719H118.381V36.2939Z" fill="url(#paint1_linear_2308_287189)"/>
<path fill-rule="evenodd" clip-rule="evenodd" d="M86.0811 64.2312C86.0811 66.1334 84.537 67.6776 82.6348 67.6776C80.7331 67.6776 79.189 66.1334 79.189 64.2312V58.4875C79.189 57.2188 78.1602 56.1901 76.8916 56.1901H71.1478C66.7066 56.1901 63.1067 59.7906 63.1067 64.2312C63.1067 68.6724 66.7066 72.2724 71.1478 72.2724C73.3982 72.2724 75.4332 71.3481 76.8927 69.858L76.9162 69.8821C77.6459 70.6162 78.5095 71.2114 79.4612 71.6208C80.3024 71.9832 81.2049 72.1981 82.1188 72.256C82.9994 72.3123 83.8881 72.2243 84.7398 71.9936C85.4804 71.793 86.1916 71.4847 86.8448 71.0824C88.3616 70.1477 89.5472 68.7107 90.1709 67.0414C90.4999 66.1591 90.6672 65.2244 90.6759 64.2832V64.2312C90.6759 53.4532 81.9258 44.7031 71.1478 44.7031C60.3698 44.7031 51.6191 53.4532 51.6191 64.2312C51.6191 75.0092 60.3698 83.7599 71.1478 83.7599C73.4299 83.7599 75.6212 83.3669 77.6579 82.6459C78.8533 82.2228 79.4803 80.9093 79.0572 79.7139C78.6341 78.5185 77.3201 77.8915 76.1247 78.3146C74.5679 78.8656 72.8926 79.1651 71.1478 79.1651C62.9055 79.1651 56.2139 72.4735 56.2139 64.2312C56.2139 55.9895 62.9055 49.2979 71.1478 49.2979C79.3896 49.2979 86.0811 55.9895 86.0811 64.2312ZM71.1478 67.6776C69.2445 67.6776 67.7014 66.1345 67.7014 64.2312C67.7014 62.3279 69.2445 60.7854 71.1478 60.7854H74.5936V64.2312C74.5936 66.1345 73.0511 67.6776 71.1478 67.6776Z" fill="url(#paint2_linear_2308_287189)"/>
<g filter="url(#filter1_f_2308_287189)">
<path fill-rule="evenodd" clip-rule="evenodd" d="M126.525 71.8516L81.1806 96.9196L71.1476 94.6511L61.1141 96.9196L15.2744 72.0467L23.9136 127.459H118.382L126.525 71.8516Z" fill="#CAD6FD"/>
</g>
<path fill-rule="evenodd" clip-rule="evenodd" d="M123.457 133.959C128.992 133.959 129.295 128.795 129.295 128.795V64.7969C128.419 60.6104 125.191 61.0936 121.241 63.6419C117.818 65.8496 76.8223 98.639 76.8223 98.639C76.8223 98.639 112.982 133.959 123.457 133.959Z" fill="url(#paint3_linear_2308_287189)"/>
<path fill-rule="evenodd" clip-rule="evenodd" d="M18.8383 133.959C13.3028 133.959 13 128.795 13 128.795V64.7969C13.8762 60.6104 17.1039 61.0936 21.0543 63.6419C24.4777 65.8496 65.4733 98.639 65.4733 98.639C65.4733 98.639 29.313 133.959 18.8383 133.959Z" fill="url(#paint4_linear_2308_287189)"/>
<g filter="url(#filter2_f_2308_287189)">
<path fill-rule="evenodd" clip-rule="evenodd" d="M27.5068 120.386C20.8305 125.535 121.464 125.535 114.788 120.386C102.657 111.031 85.1083 99.2392 76.0855 93.8556C73.1272 92.095 69.1671 92.095 66.2094 93.8556C57.1865 99.2392 39.6371 111.031 27.5068 120.386Z" fill="#B9C8FA"/>
</g>
<path fill-rule="evenodd" clip-rule="evenodd" d="M13.4541 131.181C14.2997 132.816 16.2396 133.959 18.4977 133.959C38.0679 133.959 104.228 133.959 123.798 133.959C126.056 133.959 127.996 132.816 128.842 131.181C127.73 128.117 124.424 125.535 117.355 120.386C104.511 111.031 85.109 99.2392 76.0861 93.8556C73.1279 92.095 69.1677 92.095 66.21 93.8556C57.1871 99.2392 37.7847 111.031 24.9411 120.386C17.8718 125.535 14.5659 128.117 13.4541 131.181Z" fill="url(#paint5_linear_2308_287189)"/>
<path fill-rule="evenodd" clip-rule="evenodd" d="M153 82.4083C153 81.5283 152.65 80.6843 152.028 80.0617C151.406 79.4391 150.562 79.0898 149.682 79.0898C137.556 79.0898 95.73 79.0898 83.6046 79.0898C82.7246 79.0898 81.8806 79.4391 81.258 80.0617C80.636 80.6843 80.2861 81.5283 80.2861 82.4083C80.2861 91.0841 80.2861 114.367 80.2861 123.043C80.2861 123.923 80.636 124.767 81.258 125.389C81.8806 126.012 82.7246 126.362 83.6046 126.362C95.73 126.362 137.556 126.362 149.682 126.362C150.562 126.362 151.406 126.012 152.028 125.389C152.65 124.767 153 123.923 153 123.043C153 114.367 153 91.0841 153 82.4083Z" fill="url(#paint6_linear_2308_287189)"/>
<path d="M96.9438 110.413C103.289 110.413 108.433 105.269 108.433 98.9233C108.433 92.5777 103.289 87.4336 96.9438 87.4336C90.5982 87.4336 85.4541 92.5777 85.4541 98.9233C85.4541 105.269 90.5982 110.413 96.9438 110.413Z" fill="url(#paint7_linear_2308_287189)"/>
<path fill-rule="evenodd" clip-rule="evenodd" d="M95.3212 98.2145C94.3603 97.6542 93.7142 96.6129 93.7142 95.4213C93.7142 93.6388 95.1616 92.1914 96.9441 92.1914C98.7266 92.1914 100.174 93.6388 100.174 95.4213C100.174 96.6129 99.5279 97.6542 98.5664 98.2145C100.777 98.9054 102.382 100.97 102.382 103.406C102.382 106.408 91.5059 106.408 91.5059 103.406C91.5059 100.97 93.1113 98.9054 95.3212 98.2145Z" fill="url(#paint8_linear_2308_287189)"/>
<path fill-rule="evenodd" clip-rule="evenodd" d="M135.555 98.2688C135.555 97.785 135.294 97.3216 134.83 96.9794C134.365 96.6377 133.735 96.4453 133.078 96.4453C128.62 96.4453 119.295 96.4453 114.837 96.4453C114.18 96.4453 113.55 96.6377 113.086 96.9794C112.621 97.3216 112.36 97.785 112.36 98.2688C112.36 98.2693 112.36 98.2699 112.36 98.2705C112.36 98.7537 112.621 99.2177 113.086 99.5599C113.55 99.9015 114.18 100.094 114.837 100.094C119.295 100.094 128.62 100.094 133.078 100.094C133.735 100.094 134.365 99.9015 134.83 99.5599C135.294 99.2177 135.555 98.7537 135.555 98.2705C135.555 98.2699 135.555 98.2693 135.555 98.2688Z" fill="url(#paint9_linear_2308_287189)"/>
<path fill-rule="evenodd" clip-rule="evenodd" d="M107.16 115.883C107.16 115.399 106.968 114.935 106.626 114.593C106.284 114.251 105.82 114.059 105.336 114.059C101.458 114.059 92.4292 114.059 88.551 114.059C88.0673 114.059 87.6038 114.251 87.2616 114.593C86.9194 114.935 86.7275 115.399 86.7275 115.883C86.7275 115.883 86.7275 115.883 86.7275 115.884C86.7275 116.367 86.9194 116.831 87.2616 117.173C87.6038 117.515 88.0673 117.707 88.551 117.707C92.4292 117.707 101.458 117.707 105.336 117.707C105.82 117.707 106.284 117.515 106.626 117.173C106.968 116.831 107.16 116.367 107.16 115.884C107.16 115.883 107.16 115.883 107.16 115.883Z" fill="url(#paint10_linear_2308_287189)"/>
<path fill-rule="evenodd" clip-rule="evenodd" d="M146.43 105.253C146.43 104.246 145.477 103.43 144.301 103.43H114.489C113.314 103.43 112.36 104.246 112.36 105.253C112.36 105.254 112.36 105.254 112.36 105.254C112.36 106.262 113.314 107.078 114.489 107.078C120.606 107.078 138.184 107.078 144.301 107.078C145.477 107.078 146.43 106.262 146.43 105.254C146.43 105.254 146.43 105.254 146.43 105.253Z" fill="url(#paint11_linear_2308_287189)"/>
<path fill-rule="evenodd" clip-rule="evenodd" d="M146.43 112.238C146.43 111.23 145.477 110.414 144.301 110.414H114.489C113.314 110.414 112.36 111.23 112.36 112.238C112.36 112.238 112.36 112.238 112.36 112.239C112.36 113.246 113.314 114.062 114.489 114.062H144.301C145.477 114.062 146.43 113.246 146.43 112.239V112.238Z" fill="url(#paint12_linear_2308_287189)"/>
<defs>
<filter id="filter0_f_2308_287189" x="9.91309" y="18.7109" width="122.468" height="97.0078" filterUnits="userSpaceOnUse" color-interpolation-filters="sRGB">
<feFlood flood-opacity="0" result="BackgroundImageFix"/>
<feBlend mode="normal" in="SourceGraphic" in2="BackgroundImageFix" result="shape"/>
<feGaussianBlur stdDeviation="7" result="effect1_foregroundBlur_2308_287189"/>
</filter>
<filter id="filter1_f_2308_287189" x="0.131554" y="56.7087" width="141.537" height="85.8931" filterUnits="userSpaceOnUse" color-interpolation-filters="sRGB">
<feFlood flood-opacity="0" result="BackgroundImageFix"/>
<feBlend mode="normal" in="SourceGraphic" in2="BackgroundImageFix" result="shape"/>
<feGaussianBlur stdDeviation="7.57143" result="effect1_foregroundBlur_2308_287189"/>
</filter>
<filter id="filter2_f_2308_287189" x="13.5694" y="78.9161" width="115.155" height="58.951" filterUnits="userSpaceOnUse" color-interpolation-filters="sRGB">
<feFlood flood-opacity="0" result="BackgroundImageFix"/>
<feBlend mode="normal" in="SourceGraphic" in2="BackgroundImageFix" result="shape"/>
<feGaussianBlur stdDeviation="6.80952" result="effect1_foregroundBlur_2308_287189"/>
</filter>
<linearGradient id="paint0_linear_2308_287189" x1="71.1476" y1="11.2139" x2="71.1476" y2="74.7364" gradientUnits="userSpaceOnUse">
<stop stop-color="#DDE5FE"/>
<stop offset="1" stop-color="#B6C5FB"/>
</linearGradient>
<linearGradient id="paint1_linear_2308_287189" x1="33.3842" y1="30.0429" x2="92.4944" y2="123.22" gradientUnits="userSpaceOnUse">
<stop stop-color="#F9FBFF"/>
<stop offset="1" stop-color="#E1E8FD"/>
</linearGradient>
<linearGradient id="paint2_linear_2308_287189" x1="51.6191" y1="46.2544" x2="51.6191" y2="83.7598" gradientUnits="userSpaceOnUse">
<stop stop-color="#E5EBFF"/>
<stop offset="1" stop-color="#B9C8FA"/>
</linearGradient>
<linearGradient id="paint3_linear_2308_287189" x1="65.4736" y1="64.5585" x2="65.4736" y2="133.959" gradientUnits="userSpaceOnUse">
<stop stop-color="#E5EBFF"/>
<stop offset="1" stop-color="#B9C8FA"/>
</linearGradient>
<linearGradient id="paint4_linear_2308_287189" x1="65.4733" y1="64.5585" x2="65.4733" y2="133.959" gradientUnits="userSpaceOnUse">
<stop stop-color="#E5EBFF"/>
<stop offset="1" stop-color="#B9C8FA"/>
</linearGradient>
<linearGradient id="paint5_linear_2308_287189" x1="71.1819" y1="92.535" x2="70.9257" y2="133.961" gradientUnits="userSpaceOnUse">
<stop stop-color="#C7D3FE"/>
<stop offset="1" stop-color="#9DB3FF"/>
</linearGradient>
<linearGradient id="paint6_linear_2308_287189" x1="87.5762" y1="77.262" x2="119.258" y2="148.111" gradientUnits="userSpaceOnUse">
<stop stop-color="#F9FBFF"/>
<stop offset="1" stop-color="#E1E8FD"/>
</linearGradient>
<linearGradient id="paint7_linear_2308_287189" x1="89.9893" y1="85.9873" x2="101.037" y2="107.439" gradientUnits="userSpaceOnUse">
<stop stop-color="#FCFDFF"/>
<stop offset="1" stop-color="#D4DDFC"/>
</linearGradient>
<linearGradient id="paint8_linear_2308_287189" x1="95.1266" y1="93.1163" x2="99.8907" y2="104.712" gradientUnits="userSpaceOnUse">
<stop stop-color="#A5B9FD"/>
<stop offset="1" stop-color="#7C99FB"/>
</linearGradient>
<linearGradient id="paint9_linear_2308_287189" x1="110.281" y1="97.2767" x2="140.017" y2="120.269" gradientUnits="userSpaceOnUse">
<stop stop-color="#C2D0FF"/>
<stop offset="1" stop-color="#97ADFA"/>
</linearGradient>
<linearGradient id="paint10_linear_2308_287189" x1="84.8959" y1="114.89" x2="115.299" y2="130.959" gradientUnits="userSpaceOnUse">
<stop stop-color="#C2D0FF"/>
<stop offset="1" stop-color="#97ADFA"/>
</linearGradient>
<linearGradient id="paint11_linear_2308_287189" x1="110.281" y1="97.2776" x2="140.017" y2="120.27" gradientUnits="userSpaceOnUse">
<stop stop-color="#C2D0FF"/>
<stop offset="1" stop-color="#97ADFA"/>
</linearGradient>
<linearGradient id="paint12_linear_2308_287189" x1="110.281" y1="97.2785" x2="140.017" y2="120.271" gradientUnits="userSpaceOnUse">
<stop stop-color="#C2D0FF"/>
<stop offset="1" stop-color="#97ADFA"/>
</linearGradient>
</defs>
</svg>
