<svg width="156" height="156" viewBox="0 0 156 156" fill="none" xmlns="http://www.w3.org/2000/svg">
<path fill-rule="evenodd" clip-rule="evenodd" d="M135.324 33.9372C135.324 31.8881 133.662 30.2266 131.612 30.2266C114.438 30.2266 42.7952 30.2266 25.6208 30.2266C23.5707 30.2266 21.9092 31.8881 21.9092 33.9372C21.9092 48.8804 21.9092 104.545 21.9092 119.488C21.9092 121.537 23.5707 123.199 25.6208 123.199C42.7952 123.199 114.438 123.199 131.612 123.199C133.662 123.199 135.324 121.537 135.324 119.488C135.324 104.545 135.324 48.8804 135.324 33.9372Z" fill="url(#paint0_linear_2974_421968)"/>
<path fill-rule="evenodd" clip-rule="evenodd" d="M118.06 130.826C116.253 133.815 116.51 129.09 111.899 124.615C109.514 122.306 106.926 121.59 104.095 119.387C101.264 117.189 98.392 111.658 101.628 107.002C105.859 100.919 112.906 103.966 116.623 107.437C121.906 112.364 123.312 122.147 118.06 130.826Z" fill="url(#paint1_linear_2974_421968)"/>
<path fill-rule="evenodd" clip-rule="evenodd" d="M93.8838 106.476C98.0292 106.837 109.066 108.137 114.381 121.164C114.568 121.621 115.092 121.844 115.551 121.658C116.01 121.467 116.23 120.947 116.043 120.485C110.334 106.492 98.4937 105.075 94.0404 104.687C93.5472 104.645 93.1114 105.006 93.0679 105.499C93.0249 105.993 93.3901 106.434 93.8838 106.476Z" fill="#A8BCF7"/>
<path fill-rule="evenodd" clip-rule="evenodd" d="M55.6688 122.827C58.2211 120.448 53.6516 121.669 48.3267 118.07C45.5732 116.212 44.3438 113.823 41.6083 111.509C38.8729 109.189 32.8701 107.512 28.9811 111.631C23.8951 117.019 28.3213 123.294 32.4783 126.219C38.3888 130.38 48.2503 129.749 55.6688 122.827Z" fill="url(#paint2_linear_2974_421968)"/>
<path fill-rule="evenodd" clip-rule="evenodd" d="M26.8741 104.162C28.0797 108.143 31.6167 118.68 45.4569 121.207C45.9442 121.297 46.2675 121.764 46.1788 122.253C46.0896 122.741 45.6214 123.065 45.1341 122.975C30.2673 120.257 26.4511 108.96 25.1553 104.682C25.0119 104.209 25.2805 103.705 25.7546 103.562C26.2286 103.419 26.7303 103.689 26.8741 104.162Z" fill="#A8BCF7"/>
<path fill-rule="evenodd" clip-rule="evenodd" d="M143.951 44.16C142.144 41.1714 142.402 45.896 137.79 50.371C135.406 52.6855 132.817 53.3968 129.986 55.5998C127.155 57.8028 124.284 63.3342 127.519 67.9844C131.75 74.0679 138.798 71.0208 142.514 67.5544C147.797 62.6228 149.204 52.8393 143.951 44.16Z" fill="url(#paint3_linear_2974_421968)"/>
<path fill-rule="evenodd" clip-rule="evenodd" d="M119.775 68.5164C123.921 68.1501 134.958 66.8495 140.272 53.8226C140.459 53.3661 140.984 53.1431 141.442 53.3342C141.902 53.52 142.122 54.0456 141.935 54.5021C136.226 68.4952 124.385 69.9124 119.932 70.3052C119.438 70.3477 119.003 69.9815 118.96 69.4878C118.916 68.9942 119.282 68.5588 119.775 68.5164Z" fill="#A8BCF7"/>
<path fill-rule="evenodd" clip-rule="evenodd" d="M135.324 33.9372C135.324 32.9498 134.933 32.0102 134.237 31.3095C133.541 30.6141 132.597 30.2266 131.612 30.2266C114.438 30.2266 42.7952 30.2266 25.6208 30.2266C24.6367 30.2266 23.6923 30.6141 22.9963 31.3095C22.2999 32.0102 21.9092 32.9498 21.9092 33.9372C21.9092 39.4261 21.9092 49.0662 21.9092 49.0662H135.324V33.9372Z" fill="url(#paint4_linear_2974_421968)"/>
<path fill-rule="evenodd" clip-rule="evenodd" d="M104.389 40.5077C104.389 39.4035 103.495 38.5117 102.391 38.5117H54.8418C53.7387 38.5117 52.8442 39.4035 52.8442 40.5077V41.1553C52.8442 42.2595 53.7387 43.1566 54.8418 43.1566H102.391C103.495 43.1566 104.389 42.2595 104.389 41.1553V40.5077Z" fill="url(#paint5_linear_2974_421968)"/>
<path fill-rule="evenodd" clip-rule="evenodd" d="M45.0775 25.996C45.0775 24.8971 44.183 24 43.0794 24C41.4295 24 39.0991 24 37.4498 24C36.3461 24 35.4517 24.8971 35.4517 25.996C35.4517 28.4432 35.4517 32.5572 35.4517 34.9991C35.4517 36.1032 36.3461 36.9951 37.4498 36.9951C39.0991 36.9951 41.4295 36.9951 43.0794 36.9951C44.183 36.9951 45.0775 36.1032 45.0775 34.9991C45.0775 32.5572 45.0775 28.4432 45.0775 25.996Z" fill="url(#paint6_linear_2974_421968)"/>
<path fill-rule="evenodd" clip-rule="evenodd" d="M121.78 25.996C121.78 24.8971 120.886 24 119.782 24C118.133 24 115.802 24 114.153 24C113.049 24 112.155 24.8971 112.155 25.996C112.155 28.4432 112.155 32.5572 112.155 34.9991C112.155 36.1032 113.049 36.9951 114.153 36.9951C115.802 36.9951 118.133 36.9951 119.782 36.9951C120.886 36.9951 121.78 36.1032 121.78 34.9991C121.78 32.5572 121.78 28.4432 121.78 25.996Z" fill="url(#paint7_linear_2974_421968)"/>
<path fill-rule="evenodd" clip-rule="evenodd" d="M20.1578 70.2056C32.8917 65.1413 48.3759 64.0371 61.3885 68.8784C62.2118 69.1863 63.1296 68.767 63.4365 67.9442C63.7433 67.1213 63.3234 66.2031 62.5001 65.8952C48.7655 60.7831 32.4214 61.8979 18.9804 67.2435C18.1639 67.5673 17.7647 68.4963 18.0896 69.3138C18.4145 70.1313 19.3414 70.5294 20.1578 70.2056Z" fill="#C8D5FF"/>
<path fill-rule="evenodd" clip-rule="evenodd" d="M73.307 74.4612C80.6603 78.4001 87.8617 82.7212 95.827 85.3595C106.434 88.8683 117.374 90.5724 126.893 90.0575C127.77 90.0097 128.444 89.2611 128.398 88.3852C128.35 87.504 127.599 86.83 126.722 86.8777C117.561 87.3714 107.037 85.7151 96.8282 82.3337C89.037 79.7538 82.0039 75.507 74.8115 71.653C74.0364 71.239 73.0708 71.5309 72.6557 72.306C72.2406 73.081 72.5325 74.0472 73.307 74.4612Z" fill="#C8D5FF"/>
<path fill-rule="evenodd" clip-rule="evenodd" d="M135.038 88.9951C139.849 87.9388 144.056 86.1497 147.381 83.5857C148.076 83.0443 148.205 82.0463 147.668 81.3509C147.131 80.6555 146.13 80.5228 145.434 81.0642C142.454 83.3628 138.67 84.9394 134.358 85.879C133.499 86.0701 132.954 86.9195 133.142 87.7795C133.33 88.6341 134.18 89.1809 135.038 88.9951Z" fill="#C8D5FF"/>
<path fill-rule="evenodd" clip-rule="evenodd" d="M10.3707 92.802C13.4804 91.0608 16.9935 89.256 20.6691 87.6688C21.4765 87.3237 21.8486 86.384 21.5004 85.5772C21.1522 84.7703 20.2142 84.3988 19.4073 84.7491C15.6271 86.3788 12.0131 88.2314 8.81427 90.0204C8.04774 90.4504 7.77382 91.4219 8.20274 92.1916C8.6322 92.956 9.60364 93.232 10.3707 92.802Z" fill="#C8D5FF"/>
<path fill-rule="evenodd" clip-rule="evenodd" d="M28.6849 84.7164C31.9034 83.7502 35.1124 83.0919 38.1583 82.9327C52.644 82.1576 61.8765 84.8809 71.3011 91.0174C75.2022 93.5548 78.0131 97.4088 78.6474 100.743C78.9829 102.505 78.6777 104.113 77.2831 105.042C76.7024 105.425 75.8499 105.425 75.1693 105.164C74.691 104.984 74.2664 104.634 74.3348 104.05C74.4373 103.179 73.8114 102.388 72.9387 102.282C72.0655 102.181 71.2735 102.808 71.1715 103.678C70.912 105.892 72.2115 107.442 74.0317 108.137C75.6492 108.758 77.6659 108.61 79.0461 107.691C81.5283 106.04 82.3734 103.291 81.7762 100.148C81.0123 96.1295 77.7381 91.4049 73.039 88.3472C63.0687 81.855 53.3123 78.9301 37.9879 79.7529C34.7041 79.9281 31.2425 80.6235 27.7724 81.664C26.9304 81.9135 26.4511 82.8 26.7027 83.644C26.9543 84.4881 27.8424 84.9659 28.6849 84.7164Z" fill="#C8D5FF"/>
<defs>
<linearGradient id="paint0_linear_2974_421968" x1="20.6227" y1="25.8736" x2="133.105" y2="122.886" gradientUnits="userSpaceOnUse">
<stop stop-color="#F5F7FF"/>
<stop offset="1" stop-color="#E3E9FE"/>
</linearGradient>
<linearGradient id="paint1_linear_2974_421968" x1="101.447" y1="123.485" x2="117.819" y2="110.015" gradientUnits="userSpaceOnUse">
<stop stop-color="#E3E9FE"/>
<stop offset="1" stop-color="#B1C2FC"/>
</linearGradient>
<linearGradient id="paint2_linear_2974_421968" x1="45.0742" y1="108.074" x2="35.2496" y2="126.862" gradientUnits="userSpaceOnUse">
<stop stop-color="#E3E9FE"/>
<stop offset="1" stop-color="#B1C2FC"/>
</linearGradient>
<linearGradient id="paint3_linear_2974_421968" x1="127.339" y1="51.5016" x2="143.711" y2="64.9715" gradientUnits="userSpaceOnUse">
<stop stop-color="#E3E9FE"/>
<stop offset="1" stop-color="#B1C2FC"/>
</linearGradient>
<linearGradient id="paint4_linear_2974_421968" x1="133.752" y1="31.5377" x2="12.7485" y2="52.3244" gradientUnits="userSpaceOnUse">
<stop stop-color="#D2DCFE"/>
<stop offset="1" stop-color="#C2CFFD"/>
</linearGradient>
<linearGradient id="paint5_linear_2974_421968" x1="58.0121" y1="38.3153" x2="58.0264" y2="47.7752" gradientUnits="userSpaceOnUse">
<stop stop-color="#F9FBFF"/>
<stop offset="1" stop-color="#E1E8FD"/>
</linearGradient>
<linearGradient id="paint6_linear_2974_421968" x1="47.6319" y1="18.3306" x2="31.3657" y2="33.0229" gradientUnits="userSpaceOnUse">
<stop stop-color="#E8EDFF"/>
<stop offset="0.54" stop-color="#B3C4FD"/>
<stop offset="1" stop-color="#9EB4FC"/>
</linearGradient>
<linearGradient id="paint7_linear_2974_421968" x1="124.335" y1="18.3306" x2="108.069" y2="33.0229" gradientUnits="userSpaceOnUse">
<stop stop-color="#E8EDFF"/>
<stop offset="0.54" stop-color="#B3C4FD"/>
<stop offset="1" stop-color="#9EB4FC"/>
</linearGradient>
</defs>
</svg>
