<svg width="156" height="156" viewBox="0 0 156 156" fill="none" xmlns="http://www.w3.org/2000/svg">
<path fill-rule="evenodd" clip-rule="evenodd" d="M131.254 72.1343C131.254 67.8726 129.124 63.8929 125.577 61.5294C114.904 54.417 91.8929 39.0813 80.419 31.4348C76.3057 28.6936 70.948 28.6936 66.8346 31.4348C55.3608 39.0813 32.3491 54.417 21.677 61.5294C18.1306 63.8929 16 67.8726 16 72.1343C16 87.02 16 122.164 16 135.701C16 138.709 18.4391 141.149 21.4476 141.149C40.843 141.149 106.411 141.149 125.806 141.149C128.815 141.149 131.254 138.709 131.254 135.701C131.254 122.164 131.254 87.02 131.254 72.1343Z" fill="url(#paint0_linear_1622_211007)"/>
<g filter="url(#filter0_f_1622_211007)">
<path fill-rule="evenodd" clip-rule="evenodd" d="M120.438 63.3574L88.0849 40.8086H60.1686L26.8159 65.3534V103.936H120.438V63.3574Z" fill="#8FA8FB"/>
</g>
<path fill-rule="evenodd" clip-rule="evenodd" d="M120.438 44.3594C120.438 42.3983 118.849 40.8086 116.888 40.8086C102.062 40.8086 45.1925 40.8086 30.3672 40.8086C28.4056 40.8086 26.8159 42.3983 26.8159 44.3594C26.8159 57.6824 26.8159 103.936 26.8159 103.936H120.438V44.3594Z" fill="url(#paint1_linear_1622_211007)"/>
<path fill-rule="evenodd" clip-rule="evenodd" d="M73.126 84.6579C74.5467 84.6579 75.7002 85.8108 75.7002 87.2316C75.7002 88.6523 74.5467 89.8053 73.126 89.8053C71.7053 89.8053 70.5523 88.6523 70.5523 87.2316C70.5523 85.8108 71.7053 84.6579 73.126 84.6579ZM73.126 56.9886C69.0102 56.9886 65.9251 60.0747 65.9251 63.5813C65.9251 64.7741 64.9583 65.7414 63.7651 65.7414C62.5723 65.7414 61.605 64.7741 61.605 63.5813C61.605 57.4199 66.9022 52.668 73.126 52.668C79.3503 52.668 84.6471 57.4199 84.6471 63.5813C84.6471 68.9704 81.6911 71.9607 79.2221 74.1031C78.8949 74.3871 78.5893 74.646 78.3029 74.8891C77.453 75.6103 76.7751 76.1851 76.2165 76.8252C75.5499 77.5896 75.2861 78.2042 75.2861 78.8993V79.2771C75.2861 80.4704 74.3193 81.4376 73.126 81.4376C71.9332 81.4376 70.966 80.4704 70.966 79.2771V78.8993C70.966 76.8169 71.8723 75.2325 72.961 73.9852C73.7543 73.0754 74.7781 72.2093 75.6855 71.4415C75.9311 71.2332 76.1689 71.0323 76.3909 70.8397C78.6021 68.9208 80.3269 67.0295 80.3269 63.5813C80.3269 60.0747 77.2418 56.9886 73.126 56.9886Z" fill="url(#paint2_linear_1622_211007)"/>
<g filter="url(#filter1_f_1622_211007)">
<path fill-rule="evenodd" clip-rule="evenodd" d="M128.508 67.8438L83.5704 97.4314L73.6268 90.6142L63.6832 97.4314L18.2539 68.0742L26.8156 133.477H120.438L128.508 67.8438Z" fill="#CAD6FD"/>
</g>
<path fill-rule="evenodd" clip-rule="evenodd" d="M125.467 141.152C130.953 141.152 131.253 136.034 131.253 136.034V72.6086C130.385 68.4599 127.186 68.9389 123.271 71.464C119.879 73.652 79.25 100.509 79.25 100.509C79.25 100.509 115.086 141.152 125.467 141.152Z" fill="url(#paint3_linear_1622_211007)"/>
<path fill-rule="evenodd" clip-rule="evenodd" d="M21.7861 141.152C16.3002 141.152 16 136.034 16 136.034V72.6086C16.8681 68.4599 20.0676 68.9389 23.9825 71.464C27.3746 73.652 68.0034 100.509 68.0034 100.509C68.0034 100.509 32.1669 141.152 21.7861 141.152Z" fill="url(#paint4_linear_1622_211007)"/>
<g filter="url(#filter2_f_1622_211007)">
<path fill-rule="evenodd" clip-rule="evenodd" d="M30.3775 125.13C23.7607 131.208 123.493 131.208 116.877 125.13C104.855 114.088 87.4629 100.171 78.521 93.8163C75.5892 91.7383 71.665 91.7383 68.7331 93.8163C59.7912 100.171 42.3991 114.088 30.3775 125.13Z" fill="#B9C8FA"/>
</g>
<path fill-rule="evenodd" clip-rule="evenodd" d="M16.4497 137.872C17.2878 139.801 19.2106 141.15 21.4478 141.15C40.8432 141.15 106.411 141.15 125.806 141.15C128.043 141.15 129.966 139.801 130.804 137.872C129.702 134.255 126.426 131.208 119.42 125.13C106.691 114.088 87.4629 100.171 78.5209 93.8163C75.5891 91.7383 71.6649 91.7383 68.7331 93.8163C59.7912 100.171 40.5627 114.088 27.8337 125.13C20.8283 131.208 17.5521 134.255 16.4497 137.872Z" fill="url(#paint5_linear_1622_211007)"/>
<path fill-rule="evenodd" clip-rule="evenodd" d="M131.132 50.3398L126.5 54.9724L131.076 59.5485L135.708 54.9154L131.132 50.3398Z" fill="url(#paint6_linear_1622_211007)"/>
<path fill-rule="evenodd" clip-rule="evenodd" d="M137.861 53.9943C137.286 53.4186 136.353 53.4186 135.777 53.9943C134.304 55.4676 131.627 58.1445 130.154 59.6178C129.578 60.193 129.578 61.1264 130.154 61.7017C133.575 65.1233 144.439 75.9876 147.861 79.4087C148.436 79.9844 149.369 79.9844 149.945 79.4087C151.418 77.9354 154.095 75.259 155.568 73.7852C156.144 73.21 156.144 72.2766 155.568 71.7013C152.147 68.2802 141.283 57.4155 137.861 53.9943Z" fill="url(#paint7_linear_1622_211007)"/>
<path fill-rule="evenodd" clip-rule="evenodd" d="M99.4933 23.3327C107.984 14.8422 121.77 14.8422 130.26 23.3327C138.751 31.8231 138.751 45.6094 130.26 54.0998C121.77 62.5903 107.984 62.5903 99.4933 54.0998C91.0029 45.6094 91.0029 31.8231 99.4933 23.3327Z" fill="url(#paint8_linear_1622_211007)"/>
<path fill-rule="evenodd" clip-rule="evenodd" d="M101.684 25.5271C108.965 18.2462 120.788 18.2462 128.068 25.5271C135.349 32.8081 135.349 44.6308 128.068 51.9117C120.788 59.1927 108.965 59.1927 101.684 51.9117C94.4029 44.6308 94.4029 32.8081 101.684 25.5271Z" fill="url(#paint9_linear_1622_211007)"/>
<path fill-rule="evenodd" clip-rule="evenodd" d="M114.877 46.7187C115.724 46.7187 116.411 47.4065 116.411 48.2539C116.411 49.1008 115.724 49.7886 114.877 49.7886C114.03 49.7886 113.342 49.1008 113.342 48.2539C113.342 47.4065 114.03 46.7187 114.877 46.7187ZM114.877 30.2207C112.423 30.2207 110.583 32.0605 110.583 34.1518C110.583 34.8631 110.006 35.4399 109.295 35.4399C108.584 35.4399 108.007 34.8631 108.007 34.1518C108.007 30.4776 111.166 27.6445 114.877 27.6445C118.588 27.6445 121.746 30.4776 121.746 34.1518C121.746 37.3651 119.984 39.1479 118.511 40.4252C118.316 40.5946 118.134 40.7494 117.964 40.8938C117.457 41.3242 117.052 41.6671 116.719 42.0488C116.322 42.5047 116.165 42.8707 116.165 43.2853V43.5108C116.165 44.2221 115.588 44.7989 114.877 44.7989C114.165 44.7989 113.589 44.2221 113.589 43.5108V43.2853C113.589 42.0439 114.129 41.0992 114.778 40.3549C115.251 39.8126 115.862 39.2962 116.402 38.8384C116.549 38.7141 116.691 38.5942 116.823 38.4793C118.142 37.3356 119.17 36.2077 119.17 34.1518C119.17 32.0605 117.331 30.2207 114.877 30.2207Z" fill="#7D94DD"/>
<path fill-rule="evenodd" clip-rule="evenodd" d="M51.5046 30.5994V19.5407C51.5046 18.8627 50.9544 18.3125 50.2765 18.3125C49.599 18.3125 49.0483 18.8627 49.0483 19.5407V30.5994C49.0483 31.2774 49.599 31.8276 50.2765 31.8276C50.9544 31.8276 51.5046 31.2774 51.5046 30.5994Z" fill="#9FB0E6"/>
<path fill-rule="evenodd" clip-rule="evenodd" d="M41.2008 31.164L34.9957 14.7928C34.7555 14.1591 34.0456 13.8397 33.4119 14.08C32.7781 14.3202 32.4583 15.0296 32.6986 15.6638L38.9042 32.0345C39.1444 32.6683 39.8543 32.9881 40.488 32.7479C41.1217 32.5076 41.441 31.7978 41.2008 31.164Z" fill="#9FB0E6"/>
<path fill-rule="evenodd" clip-rule="evenodd" d="M31.3545 33.4272L26.2655 25.9144C25.8853 25.3533 25.1209 25.206 24.5599 25.5862C23.9988 25.9664 23.8515 26.7308 24.2317 27.2918L29.3212 34.8047C29.7009 35.3657 30.4653 35.5131 31.0263 35.1329C31.5878 34.7526 31.7347 33.9882 31.3545 33.4272Z" fill="#9FB0E6"/>
<defs>
<filter id="filter0_f_1622_211007" x="12.8159" y="26.8086" width="121.623" height="91.127" filterUnits="userSpaceOnUse" color-interpolation-filters="sRGB">
<feFlood flood-opacity="0" result="BackgroundImageFix"/>
<feBlend mode="normal" in="SourceGraphic" in2="BackgroundImageFix" result="shape"/>
<feGaussianBlur stdDeviation="7" result="effect1_foregroundBlur_1622_211007"/>
</filter>
<filter id="filter1_f_1622_211007" x="3.11105" y="52.7009" width="140.54" height="95.9185" filterUnits="userSpaceOnUse" color-interpolation-filters="sRGB">
<feFlood flood-opacity="0" result="BackgroundImageFix"/>
<feBlend mode="normal" in="SourceGraphic" in2="BackgroundImageFix" result="shape"/>
<feGaussianBlur stdDeviation="7.57143" result="effect1_foregroundBlur_1622_211007"/>
</filter>
<filter id="filter2_f_1622_211007" x="16.443" y="78.6388" width="114.368" height="64.6678" filterUnits="userSpaceOnUse" color-interpolation-filters="sRGB">
<feFlood flood-opacity="0" result="BackgroundImageFix"/>
<feBlend mode="normal" in="SourceGraphic" in2="BackgroundImageFix" result="shape"/>
<feGaussianBlur stdDeviation="6.80952" result="effect1_foregroundBlur_1622_211007"/>
</filter>
<linearGradient id="paint0_linear_1622_211007" x1="73.6268" y1="19.5026" x2="73.6268" y2="82.4566" gradientUnits="userSpaceOnUse">
<stop stop-color="#DDE5FE"/>
<stop offset="1" stop-color="#B6C5FB"/>
</linearGradient>
<linearGradient id="paint1_linear_1622_211007" x1="36.2024" y1="38.1642" x2="94.7832" y2="130.507" gradientUnits="userSpaceOnUse">
<stop stop-color="#F9FBFF"/>
<stop offset="1" stop-color="#E1E8FD"/>
</linearGradient>
<linearGradient id="paint2_linear_1622_211007" x1="56.6216" y1="54.1432" x2="70.2113" y2="105.34" gradientUnits="userSpaceOnUse">
<stop stop-color="#E5EBFF"/>
<stop offset="1" stop-color="#B9C8FA"/>
</linearGradient>
<linearGradient id="paint3_linear_1622_211007" x1="68.0031" y1="72.3723" x2="68.0031" y2="141.152" gradientUnits="userSpaceOnUse">
<stop stop-color="#E5EBFF"/>
<stop offset="1" stop-color="#B9C8FA"/>
</linearGradient>
<linearGradient id="paint4_linear_1622_211007" x1="68.0033" y1="72.3723" x2="68.0033" y2="141.152" gradientUnits="userSpaceOnUse">
<stop stop-color="#E5EBFF"/>
<stop offset="1" stop-color="#B9C8FA"/>
</linearGradient>
<linearGradient id="paint5_linear_1622_211007" x1="73.6609" y1="92.2576" x2="73.15" y2="141.15" gradientUnits="userSpaceOnUse">
<stop stop-color="#C7D3FE"/>
<stop offset="1" stop-color="#9DB3FF"/>
</linearGradient>
<linearGradient id="paint6_linear_1622_211007" x1="125.504" y1="55.9675" x2="133.392" y2="57.232" gradientUnits="userSpaceOnUse">
<stop stop-color="#A5B9FD"/>
<stop offset="1" stop-color="#6E8EFA"/>
</linearGradient>
<linearGradient id="paint7_linear_1622_211007" x1="134.827" y1="54.9445" x2="156.501" y2="80.1615" gradientUnits="userSpaceOnUse">
<stop stop-color="#B3C4FD"/>
<stop offset="1" stop-color="#A0B5FC"/>
</linearGradient>
<linearGradient id="paint8_linear_1622_211007" x1="92.1136" y1="35.095" x2="137.646" y2="43.8261" gradientUnits="userSpaceOnUse">
<stop stop-color="#CBD7FF"/>
<stop offset="1" stop-color="#A9BBF9"/>
</linearGradient>
<linearGradient id="paint9_linear_1622_211007" x1="96.9707" y1="33.4764" x2="132.859" y2="43.692" gradientUnits="userSpaceOnUse">
<stop stop-color="white"/>
<stop offset="1" stop-color="#C6D2FB"/>
</linearGradient>
</defs>
</svg>
