<svg width="156" height="156" viewBox="0 0 156 156" fill="none" xmlns="http://www.w3.org/2000/svg">
<path fill-rule="evenodd" clip-rule="evenodd" d="M122.769 50.2781C122.769 48.0289 121.876 45.8714 120.285 44.2807C118.694 42.6905 116.537 41.7969 114.288 41.7969C94.2777 41.7969 52.9532 41.7969 32.9436 41.7969C30.6939 41.7969 28.5369 42.6905 26.9462 44.2807C25.3555 45.8714 24.4619 48.0289 24.4619 50.2781C24.4619 65.3215 24.4619 96.5032 24.4619 111.546C24.4619 113.796 25.3555 115.953 26.9462 117.543C28.5369 119.134 30.6939 120.028 32.9436 120.028C52.9532 120.028 94.2777 120.028 114.288 120.028C116.537 120.028 118.694 119.134 120.285 117.543C121.876 115.953 122.769 113.796 122.769 111.546C122.769 96.5032 122.769 65.3215 122.769 50.2781Z" fill="url(#paint0_linear_2319_311143)"/>
<path fill-rule="evenodd" clip-rule="evenodd" d="M122.769 50.2781C122.769 48.0289 121.876 45.8714 120.285 44.2807C118.694 42.6905 116.537 41.7969 114.288 41.7969C94.2777 41.7969 52.9532 41.7969 32.9436 41.7969C30.6939 41.7969 28.5369 42.6905 26.9462 44.2807C25.3555 45.8714 24.4619 48.0289 24.4619 50.2781C24.4619 54.7543 24.4619 59.3289 24.4619 59.3289H122.769V50.2781Z" fill="url(#paint1_linear_2319_311143)"/>
<path fill-rule="evenodd" clip-rule="evenodd" d="M148 112.871C148 113.52 147.705 114.133 147.199 114.537C146.692 114.942 146.029 115.094 145.397 114.951C143.573 114.6 141.238 114.059 140.003 113.28C135.798 110.629 122.77 99.4052 122.77 99.4052V62.7972C122.77 62.7972 135.798 51.5735 140.003 48.9216C141.238 48.1434 143.573 47.6022 145.402 47.2749C146.028 47.133 146.683 47.2836 147.184 47.6838C147.685 48.0836 147.977 48.6899 147.977 49.331C148 59.9721 148 102.23 148 112.871Z" fill="url(#paint2_linear_2319_311143)"/>
<path fill-rule="evenodd" clip-rule="evenodd" d="M148 112.871C148 113.52 147.706 114.133 147.2 114.537C146.693 114.942 146.03 115.094 145.398 114.951C143.573 114.6 141.238 114.059 140.004 113.28V48.9216C141.238 48.1434 143.573 47.6022 145.403 47.2749C146.028 47.133 146.684 47.2836 147.185 47.6838C147.686 48.0836 147.977 48.6899 147.977 49.331C148 59.9721 148 102.23 148 112.871Z" fill="url(#paint3_linear_2319_311143)"/>
<path fill-rule="evenodd" clip-rule="evenodd" d="M86.5972 90.8152C84.8009 89.7686 83.593 87.8221 83.593 85.5956C83.593 82.2635 86.2979 79.5586 89.6295 79.5586C92.9615 79.5586 95.6664 82.2635 95.6664 85.5956C95.6664 87.8221 94.4581 89.7686 92.6622 90.8152C96.7932 92.1071 99.7935 95.9648 99.7935 100.518C99.7935 106.128 79.4658 106.128 79.4658 100.518C79.4658 95.9648 82.4662 92.1071 86.5972 90.8152Z" fill="url(#paint4_linear_2319_311143)"/>
<path fill-rule="evenodd" clip-rule="evenodd" d="M54.5698 90.8152C52.774 89.7686 51.5656 87.8221 51.5656 85.5956C51.5656 82.2635 54.2705 79.5586 57.6026 79.5586C60.9341 79.5586 63.639 82.2635 63.639 85.5956C63.639 87.8221 62.4307 89.7686 60.6348 90.8152C64.7658 92.1071 67.7662 95.9648 67.7662 100.518C67.7662 106.128 47.4385 106.128 47.4385 100.518C47.4385 95.9648 50.4388 92.1071 54.5698 90.8152Z" fill="url(#paint5_linear_2319_311143)"/>
<path fill-rule="evenodd" clip-rule="evenodd" d="M69.6982 90.4825C67.45 89.1728 65.9375 86.7358 65.9375 83.9483C65.9375 79.7772 69.3236 76.3906 73.4947 76.3906C77.6658 76.3906 81.0524 79.7772 81.0524 83.9483C81.0524 86.7358 79.5399 89.1728 77.2912 90.4825C82.4625 92.0998 86.2194 96.9298 86.2194 102.63C86.2194 109.653 60.7705 109.653 60.7705 102.63C60.7705 96.9298 64.5269 92.0998 69.6982 90.4825Z" fill="url(#paint6_linear_2319_311143)"/>
<g filter="url(#filter0_f_2319_311143)">
<path fill-rule="evenodd" clip-rule="evenodd" d="M26.3838 80.6717C26.3838 80.6717 45.255 40.8708 45.6181 41.7972L47.1161 44.7628L50.4723 46.0783C51.3982 46.4414 52.1735 47.1085 52.6712 47.9703C53.1685 48.8315 53.3587 49.8366 53.21 50.82L52.6712 54.3848L54.9199 57.2022C55.5403 57.9794 55.8782 58.9449 55.8782 59.9399C55.8782 60.9344 55.5403 61.8999 54.9199 62.6772L52.6712 65.4951L53.21 69.0593C53.3587 70.0427 53.1685 71.0478 52.6712 71.9096C52.1735 72.7708 51.3982 73.438 50.4723 73.801L47.1161 75.1166L45.8006 78.4727C45.437 79.3992 44.7703 80.1745 43.9086 80.6717C43.0474 81.169 42.0422 81.3592 41.0588 81.2105L37.4941 80.6717L34.6767 82.9204C33.899 83.5413 32.9339 83.8792 31.939 83.8792C30.9445 83.8792 29.9789 83.5413 29.2017 82.9204L26.3838 80.6717Z" fill="#99B0FD"/>
</g>
<path fill-rule="evenodd" clip-rule="evenodd" d="M29.202 36.9588C29.9793 36.3384 30.9448 36 31.9393 36C32.9343 36 33.8993 36.3384 34.677 36.9588L37.4945 39.2075L41.0592 38.6687C42.0426 38.52 43.0477 38.7102 43.9089 39.2075C44.7707 39.7047 45.4374 40.48 45.8009 41.4065L47.1164 44.7626L50.4726 46.0782C51.3985 46.4412 52.1738 47.1084 52.6716 47.9701C53.1688 48.8314 53.359 49.8365 53.2103 50.8199L52.6716 54.3846L54.9203 57.202C55.5406 57.9793 55.8786 58.9448 55.8786 59.9398C55.8786 60.9343 55.5406 61.8998 54.9203 62.677L52.6716 65.4949L53.2103 69.0592C53.359 70.0426 53.1688 71.0477 52.6716 71.9094C52.1738 72.7707 51.3985 73.4378 50.4726 73.8009L47.1164 75.1164L45.8009 78.4726C45.4374 79.399 44.7707 80.1743 43.9089 80.6716C43.0477 81.1688 42.0426 81.359 41.0592 81.2103L37.4945 80.6716L34.677 82.9203C33.8993 83.5411 32.9343 83.879 31.9393 83.879C30.9448 83.879 29.9793 83.5411 29.202 82.9203L26.3841 80.6716L22.8199 81.2103C21.836 81.359 20.8314 81.1688 19.9696 80.6716C19.1084 80.1743 18.4412 79.399 18.0782 78.4726L16.7626 75.1164L13.4065 73.8009C12.4801 73.4378 11.7047 72.7707 11.2075 71.9094C10.7097 71.0477 10.52 70.0426 10.6687 69.0592L11.2075 65.4949L8.95878 62.677C8.33795 61.8998 8 60.9343 8 59.9398C8 58.9448 8.33795 57.9793 8.95878 57.202L11.2075 54.3846L10.6687 50.8199C10.52 49.8365 10.7097 48.8314 11.2075 47.9701C11.7047 47.1084 12.4801 46.4412 13.4065 46.0782L16.7626 44.7626L18.0782 41.4065C18.4412 40.48 19.1084 39.7047 19.9696 39.2075C20.8314 38.7102 21.836 38.52 22.8199 38.6687L26.3841 39.2075L29.202 36.9588Z" fill="url(#paint7_linear_2319_311143)"/>
<path d="M31.939 76.7706C41.2332 76.7706 48.7677 69.2361 48.7677 59.9419C48.7677 50.6477 41.2332 43.1133 31.939 43.1133C22.6448 43.1133 15.1104 50.6477 15.1104 59.9419C15.1104 69.2361 22.6448 76.7706 31.939 76.7706Z" fill="url(#paint8_linear_2319_311143)"/>
<path fill-rule="evenodd" clip-rule="evenodd" d="M22.4799 60.7559L28.2427 66.5187C29.0446 67.3205 30.3442 67.3205 31.146 66.5187L41.399 56.2657C42.1999 55.4648 42.1999 54.1638 41.399 53.3624C40.5976 52.5615 39.2965 52.5615 38.4956 53.3624L29.6944 62.1637L25.3833 57.8526C24.5819 57.0512 23.2809 57.0512 22.4799 57.8526C21.6786 58.6535 21.6786 59.9545 22.4799 60.7559Z" fill="url(#paint9_linear_2319_311143)"/>
<defs>
<filter id="filter0_f_2319_311143" x="2.38379" y="17.7812" width="77.4941" height="90.0977" filterUnits="userSpaceOnUse" color-interpolation-filters="sRGB">
<feFlood flood-opacity="0" result="BackgroundImageFix"/>
<feBlend mode="normal" in="SourceGraphic" in2="BackgroundImageFix" result="shape"/>
<feGaussianBlur stdDeviation="12" result="effect1_foregroundBlur_2319_311143"/>
</filter>
<linearGradient id="paint0_linear_2319_311143" x1="121.471" y1="39.1978" x2="20.9802" y2="116.156" gradientUnits="userSpaceOnUse">
<stop stop-color="#E3E9FE"/>
<stop offset="1" stop-color="#D5DEFE"/>
</linearGradient>
<linearGradient id="paint1_linear_2319_311143" x1="44.9214" y1="38.0488" x2="122.769" y2="62.7976" gradientUnits="userSpaceOnUse">
<stop stop-color="#D7E0FE"/>
<stop offset="1" stop-color="#B1C2FC"/>
</linearGradient>
<linearGradient id="paint2_linear_2319_311143" x1="145.045" y1="41.7964" x2="131.386" y2="109.157" gradientUnits="userSpaceOnUse">
<stop stop-color="#F6F8FF"/>
<stop offset="1" stop-color="#E4EAFD"/>
</linearGradient>
<linearGradient id="paint3_linear_2319_311143" x1="155.345" y1="40.5306" x2="128.651" y2="142.59" gradientUnits="userSpaceOnUse">
<stop stop-color="#E3E9FE"/>
<stop offset="1" stop-color="#B1C2FC"/>
</linearGradient>
<linearGradient id="paint4_linear_2319_311143" x1="86.2332" y1="81.2879" x2="95.137" y2="102.959" gradientUnits="userSpaceOnUse">
<stop stop-color="#C7D3FE"/>
<stop offset="1" stop-color="#A0B5FC"/>
</linearGradient>
<linearGradient id="paint5_linear_2319_311143" x1="54.2059" y1="81.2879" x2="63.1096" y2="102.959" gradientUnits="userSpaceOnUse">
<stop stop-color="#C7D3FE"/>
<stop offset="1" stop-color="#A0B5FC"/>
</linearGradient>
<linearGradient id="paint6_linear_2319_311143" x1="68.0009" y1="56.3916" x2="106.434" y2="74.2215" gradientUnits="userSpaceOnUse">
<stop stop-color="#BECDFE"/>
<stop offset="1" stop-color="#7C99FB"/>
</linearGradient>
<linearGradient id="paint7_linear_2319_311143" x1="39.0818" y1="34.7541" x2="25.5703" y2="82.6975" gradientUnits="userSpaceOnUse">
<stop stop-color="#D2DCFE"/>
<stop offset="1" stop-color="#ABBEFC"/>
</linearGradient>
<linearGradient id="paint8_linear_2319_311143" x1="44.8269" y1="40.4185" x2="44.4645" y2="75.069" gradientUnits="userSpaceOnUse">
<stop stop-color="#F6F8FF"/>
<stop offset="1" stop-color="#E4EAFD"/>
</linearGradient>
<linearGradient id="paint9_linear_2319_311143" x1="27.5958" y1="43.6476" x2="37.2339" y2="66.9955" gradientUnits="userSpaceOnUse">
<stop stop-color="#BECDFE"/>
<stop offset="1" stop-color="#7C99FB"/>
</linearGradient>
</defs>
</svg>
