<svg width="124" height="124" viewBox="0 0 124 124" fill="none" xmlns="http://www.w3.org/2000/svg">
<path fill-rule="evenodd" clip-rule="evenodd" d="M110.638 64.4721C110.638 61.4228 109.114 58.5757 106.576 56.8848C98.9414 51.7964 82.4785 40.8254 74.2699 35.3546C71.3271 33.3935 67.4941 33.3935 64.5514 35.3546C56.3428 40.8254 39.8798 51.7964 32.2448 56.8848C29.7076 58.5757 28.1833 61.4228 28.1833 64.4721C28.1833 75.1216 28.1833 100.264 28.1833 109.949C28.1833 112.101 29.9283 113.846 32.0807 113.846C45.9565 113.846 92.8647 113.846 106.741 113.846C108.893 113.846 110.638 112.101 110.638 109.949C110.638 100.264 110.638 75.1216 110.638 64.4721Z" fill="url(#paint0_linear_2901_378183)"/>
<g filter="url(#filter0_f_2901_378183)">
<path fill-rule="evenodd" clip-rule="evenodd" d="M102.9 53.6458L81.1877 42.0586H59.7822L35.9211 59.6188V87.2212H102.9V53.6458Z" fill="#8FA8FB"/>
</g>
<path fill-rule="evenodd" clip-rule="evenodd" d="M102.9 44.5993C102.9 43.1963 101.763 42.0586 100.36 42.0586C89.7534 42.0586 49.0681 42.0586 38.4615 42.0586C37.0585 42.0586 35.9211 43.1963 35.9211 44.5993C35.9211 54.1308 35.9211 87.2212 35.9211 87.2212H102.9V44.5993Z" fill="url(#paint1_linear_2901_378183)"/>
<g filter="url(#filter1_f_2901_378183)">
<path fill-rule="evenodd" clip-rule="evenodd" d="M108.674 61.4008L76.5245 82.5686L69.4107 77.6915L62.2969 82.5686L29.7959 61.5659L35.9211 108.356H102.9L108.674 61.4008Z" fill="#CAD6FD"/>
</g>
<path fill-rule="evenodd" clip-rule="evenodd" d="M41.1713 76.2371H93.4066C94.229 76.2371 94.8964 75.5697 94.8964 74.7473C94.8964 73.9249 94.229 73.2571 93.4066 73.2571H41.1713C40.3489 73.2571 39.6812 73.9249 39.6812 74.7473C39.6812 75.5697 40.3489 76.2371 41.1713 76.2371ZM58.7944 70.6458H96.9675C97.7899 70.6458 98.4574 69.9784 98.4574 69.156C98.4574 68.3336 97.7899 67.6662 96.9675 67.6662H58.7944C57.972 67.6662 57.3042 68.3336 57.3042 69.156C57.3042 69.9784 57.972 70.6458 58.7944 70.6458ZM44.8448 60.3225H49.8548C50.6772 60.3225 51.3446 59.6547 51.3446 58.8323C51.3446 58.0102 50.6772 57.3425 49.8548 57.3425H44.8448C44.0223 57.3425 43.3549 58.0102 43.3549 58.8323C43.3549 59.6547 44.0223 60.3225 44.8448 60.3225ZM44.8448 54.6317H54.8648C55.6872 54.6317 56.355 53.9639 56.355 53.1415C56.355 52.3195 55.6872 51.6517 54.8648 51.6517H44.8448C44.0223 51.6517 43.3549 52.3195 43.3549 53.1415C43.3549 53.9639 44.0223 54.6317 44.8448 54.6317Z" fill="url(#paint2_linear_2901_378183)"/>
<path fill-rule="evenodd" clip-rule="evenodd" d="M106.499 113.846C110.423 113.846 110.638 110.185 110.638 110.185V64.8092C110.017 61.8408 107.728 62.1834 104.928 63.9903C102.5 65.5557 73.4338 84.7698 73.4338 84.7698C73.4338 84.7698 99.0719 113.846 106.499 113.846Z" fill="url(#paint3_linear_2901_378183)"/>
<path fill-rule="evenodd" clip-rule="evenodd" d="M32.3228 113.846C28.3981 113.846 28.1833 110.185 28.1833 110.185V64.8092C28.8044 61.8408 31.0931 62.1834 33.8938 63.9903C36.321 65.5557 65.3875 84.7698 65.3875 84.7698C65.3875 84.7698 39.7494 113.846 32.3228 113.846Z" fill="url(#paint4_linear_2901_378183)"/>
<g filter="url(#filter2_f_2901_378183)">
<path fill-rule="evenodd" clip-rule="evenodd" d="M38.4694 102.385C33.7356 106.733 105.086 106.733 100.352 102.385C91.752 94.4854 79.3093 84.529 72.9121 79.9829C70.8146 78.4963 68.0072 78.4959 65.9097 79.9829C59.5125 84.529 47.0699 94.4854 38.4694 102.385Z" fill="#B9C8FA"/>
</g>
<path fill-rule="evenodd" clip-rule="evenodd" d="M28.5051 111.501C29.1047 112.881 30.4803 113.846 32.0808 113.846C45.9567 113.846 92.8649 113.846 106.741 113.846C108.341 113.846 109.717 112.881 110.317 111.501C109.528 108.913 107.184 106.733 102.172 102.385C93.0656 94.4854 79.3092 84.529 72.912 79.9829C70.8145 78.4963 68.0071 78.4959 65.9096 79.9829C59.5124 84.529 45.756 94.4854 36.6494 102.385C31.6377 106.733 29.2938 108.913 28.5051 111.501Z" fill="url(#paint5_linear_2901_378183)"/>
<path fill-rule="evenodd" clip-rule="evenodd" d="M43.9592 31.2507L53.1576 22.2133L52.5133 17.8138L44.983 22.9327L43.9592 31.2507Z" fill="url(#paint6_linear_2901_378183)"/>
<path fill-rule="evenodd" clip-rule="evenodd" d="M70.6978 6.15384C70.6978 6.15384 42.6118 13.7042 33.8286 16.0656C33.4353 16.1714 33.1506 16.5123 33.1169 16.9183C33.0831 17.3242 33.3081 17.7076 33.6785 17.8767C39.4835 20.5242 53.9983 27.1446 59.073 29.4589C59.5397 29.6719 60.0732 29.6853 60.5502 29.4962C61.0271 29.3068 61.406 28.9314 61.6 28.4562C63.8897 22.8431 70.6978 6.15384 70.6978 6.15384Z" fill="url(#paint7_linear_2901_378183)"/>
<path fill-rule="evenodd" clip-rule="evenodd" d="M42.1877 21.7578L43.9594 31.2507L47.3412 24.108L70.6979 6.15384L42.1877 21.7578Z" fill="url(#paint8_linear_2901_378183)"/>
<path fill-rule="evenodd" clip-rule="evenodd" d="M30.7568 102.354C30.5501 102.221 30.3452 102.087 30.1418 101.953C29.7991 101.725 29.3366 101.819 29.1092 102.162C28.8821 102.505 28.9756 102.967 29.3183 103.195C29.5274 103.333 29.7383 103.471 29.9509 103.608C30.2967 103.83 30.7579 103.73 30.9803 103.384C31.2028 103.038 31.1026 102.577 30.7568 102.354ZM27.742 100.261C27.5455 100.113 27.3508 99.965 27.1579 99.816C26.8328 99.5643 26.3643 99.6244 26.113 99.9499C25.8617 100.275 25.9215 100.743 26.2469 100.995C26.4455 101.148 26.6462 101.301 26.8483 101.453C27.1776 101.699 27.6447 101.632 27.8914 101.303C28.1381 100.974 28.071 100.507 27.742 100.261ZM24.8917 97.9526C24.7068 97.7909 24.5241 97.6285 24.3434 97.4654C24.038 97.1899 23.5667 97.2142 23.2912 97.5192C23.0156 97.8246 23.0399 98.2959 23.3449 98.5715C23.5316 98.7398 23.7199 98.9071 23.9104 99.0737C24.2201 99.3447 24.691 99.3131 24.9616 99.0038C25.2326 98.6941 25.201 98.2232 24.8917 97.9526ZM22.2301 95.433C22.059 95.2576 21.8899 95.0812 21.723 94.9044C21.4407 94.6053 20.9687 94.5916 20.67 94.8738C20.3709 95.156 20.3572 95.6277 20.6394 95.9268C20.812 96.1095 20.9867 96.2919 21.1634 96.4733C21.4506 96.7675 21.9226 96.7734 22.2168 96.4866C22.5113 96.1995 22.5173 95.7275 22.2301 95.433ZM19.7847 92.7078C19.629 92.5187 19.4754 92.3293 19.3243 92.1388C19.0684 91.8172 18.5992 91.7638 18.2773 92.0196C17.9557 92.2755 17.9023 92.7443 18.1581 93.0663C18.3149 93.2631 18.4737 93.4595 18.6351 93.6553C18.8965 93.9727 19.3661 94.018 19.6835 93.7565C20.0008 93.495 20.0462 93.0251 19.7847 92.7078ZM17.5846 89.7858C17.4461 89.584 17.3101 89.3816 17.1765 89.1788C16.9505 88.8354 16.488 88.7405 16.1446 88.9665C15.8013 89.1929 15.7064 89.655 15.9324 89.9984C16.0708 90.2089 16.2121 90.4187 16.3555 90.6282C16.5878 90.9674 17.0521 91.0538 17.3913 90.8215C17.7304 90.5892 17.8169 90.1249 17.5846 89.7858ZM15.661 86.6796C15.5422 86.4659 15.4263 86.2519 15.3124 86.0375C15.1198 85.6744 14.6685 85.536 14.3055 85.7286C13.9421 85.9211 13.8036 86.3724 13.9962 86.7355C14.1143 86.9583 14.2352 87.1808 14.3585 87.4032C14.5582 87.7624 15.0122 87.8921 15.3714 87.6925C15.731 87.4929 15.8607 87.0391 15.661 86.6796ZM14.0493 83.4061C13.953 83.1819 13.8591 82.9577 13.7681 82.7334C13.6131 82.3525 13.1783 82.1686 12.7974 82.3236C12.4164 82.4783 12.2329 82.913 12.3876 83.294C12.4825 83.5281 12.5802 83.7618 12.681 83.9955C12.8438 84.3733 13.2824 84.5477 13.6598 84.3853C14.0377 84.2226 14.212 83.7839 14.0493 83.4061ZM12.7893 79.9889C12.7179 79.7559 12.6491 79.5232 12.5833 79.2909C12.4716 78.8952 12.0597 78.6646 11.6639 78.7764C11.2685 78.8881 11.038 79.3001 11.1497 79.6958C11.2183 79.9394 11.2903 80.1829 11.3652 80.4268C11.4861 80.8198 11.9033 81.0408 12.2962 80.9199C12.6891 80.799 12.9102 80.3818 12.7893 79.9889ZM11.9265 76.4589C11.8832 76.2195 11.8432 75.9809 11.8063 75.7426C11.743 75.3363 11.362 75.058 10.9557 75.1209C10.5494 75.1838 10.2707 75.5648 10.3337 75.9711C10.3727 76.2216 10.4148 76.4726 10.4605 76.7246C10.5336 77.1291 10.9216 77.398 11.3262 77.3245C11.731 77.2514 11.9999 76.8634 11.9265 76.4589ZM11.5135 72.8589C11.5022 72.6168 11.4942 72.3757 11.4899 72.1356C11.4826 71.7248 11.1427 71.3968 10.7315 71.4042C10.3203 71.412 9.99274 71.7518 10.0001 72.1627C10.005 72.4171 10.0131 72.6723 10.0251 72.9285C10.0444 73.3394 10.3934 73.6571 10.8039 73.6381C11.2148 73.6188 11.5325 73.2698 11.5135 72.8589ZM11.6098 69.2505C11.6344 69.0105 11.6632 68.7722 11.6955 68.5349C11.7514 68.1276 11.4657 67.7515 11.0584 67.696C10.651 67.6405 10.275 67.9259 10.2194 68.3332C10.185 68.5863 10.1544 68.8407 10.1277 69.0969C10.0852 69.506 10.3829 69.8722 10.792 69.9148C11.2007 69.9573 11.5673 69.6596 11.6098 69.2505ZM19.6996 66.3324C19.5162 66.3137 19.3408 66.2726 19.1791 66.2079C18.7974 66.0551 18.3634 66.241 18.2109 66.6227C18.058 67.0043 18.2439 67.4384 18.6256 67.5913C18.9124 67.7059 19.2234 67.7814 19.5488 67.8148C19.9579 67.8563 20.3238 67.5582 20.3653 67.1491C20.4071 66.7401 20.1087 66.3742 19.6996 66.3324ZM22.2343 65.0966C22.1106 65.266 21.976 65.4175 21.8333 65.5518C21.5342 65.8336 21.5198 66.3056 21.8017 66.6051C22.0836 66.9042 22.5556 66.9186 22.855 66.6367C23.062 66.4417 23.2574 66.2213 23.4374 65.9753C23.6799 65.6432 23.6071 65.1768 23.2753 64.9343C22.9432 64.6918 22.4768 64.7645 22.2343 65.0966ZM12.286 65.7359C12.3549 65.5075 12.428 65.2826 12.506 65.0608C12.6427 64.6731 12.4389 64.2472 12.0509 64.1108C11.6632 63.9741 11.2372 64.1783 11.1009 64.5659C11.0151 64.8095 10.9346 65.0566 10.8591 65.3072C10.741 65.7011 10.9645 66.1166 11.3582 66.235C11.7521 66.3534 12.1679 66.1296 12.286 65.7359ZM17.1976 64.5659C17.0563 64.3888 16.9228 64.2053 16.7969 64.0163C16.5692 63.6739 16.1067 63.5812 15.7644 63.8089C15.422 64.0366 15.3289 64.4995 15.5567 64.8418C15.7064 65.0668 15.8652 65.285 16.0336 65.4959C16.2901 65.8171 16.7593 65.8695 17.0806 65.6129C17.4018 65.3564 17.4542 64.8872 17.1976 64.5659ZM23.0522 62.0309C23.0585 62.214 23.0557 62.4045 23.0434 62.602C23.0416 62.6329 23.0395 62.6639 23.0374 62.6944C23.0065 63.1042 23.3144 63.4624 23.7242 63.4929C24.1343 63.5239 24.4921 63.216 24.523 62.8058C24.5258 62.7686 24.5283 62.731 24.5307 62.693C24.5459 62.4467 24.549 62.2091 24.5413 61.9806C24.5276 61.5698 24.1825 61.2475 23.7716 61.2612C23.3607 61.2749 23.0385 61.62 23.0522 62.0309ZM13.9473 60.9206C13.9333 60.909 13.9185 60.8978 13.903 60.8872C13.5657 60.6521 13.101 60.7351 12.8659 61.0721C12.7169 61.2865 12.5728 61.5069 12.4343 61.7336C12.2199 62.0847 12.3306 62.5433 12.6817 62.7577C13.0325 62.9721 13.4915 62.8614 13.7059 62.5103C13.8285 62.3096 13.9561 62.1138 14.0883 61.9244C14.1094 61.8942 14.1276 61.8629 14.1434 61.8309L14.1923 61.9813C14.3216 62.3714 14.7437 62.583 15.1339 62.4537C15.5243 62.3243 15.7359 61.9022 15.6066 61.5121C15.5317 61.2868 15.4635 61.0612 15.402 60.8366C15.2931 60.4398 14.8829 60.2065 14.4865 60.3154C14.1944 60.3956 13.9906 60.6395 13.9473 60.9206ZM15.9573 59.8996C16.1359 59.7573 16.3193 59.6231 16.507 59.4979C16.8493 59.2698 16.9417 58.807 16.714 58.465C16.4859 58.1227 16.023 58.0302 15.6807 58.258C15.4579 58.4067 15.24 58.5659 15.0281 58.7353C14.7065 58.9918 14.6538 59.461 14.9103 59.7823C15.1669 60.1035 15.6361 60.1562 15.9573 59.8996ZM21.8435 59.2804C21.995 59.4073 22.1366 59.5496 22.2656 59.7085C22.525 60.0272 22.9945 60.0757 23.3137 59.8164C23.6328 59.557 23.6813 59.0874 23.4219 58.7683C23.2314 58.5346 23.0226 58.3244 22.7991 58.1374C22.4839 57.8739 22.0136 57.9157 21.7497 58.2309C21.4861 58.5465 21.5279 59.0168 21.8435 59.2804ZM14.9209 58.0461C14.9029 57.8064 14.891 57.5709 14.8854 57.3393C14.8752 56.9281 14.5332 56.603 14.122 56.6132C13.7112 56.6234 13.3857 56.9653 13.3959 57.3762C13.4022 57.632 13.4152 57.8925 13.4349 58.1571C13.4655 58.5673 13.8233 58.8752 14.2334 58.8446C14.6436 58.814 14.9514 58.4562 14.9209 58.0461ZM18.9282 58.4917C19.132 58.4639 19.3418 58.4527 19.5534 58.4576C19.9643 58.4678 20.3062 58.1424 20.3161 57.7312C20.3263 57.32 20.0005 56.9783 19.5896 56.9681C19.2983 56.9611 19.0097 56.9773 18.7285 57.0152C18.3212 57.0701 18.0351 57.4458 18.09 57.8531C18.1451 58.2605 18.5205 58.5465 18.9282 58.4917ZM15.1353 54.5557C15.1852 54.327 15.2421 54.1027 15.3061 53.8831C15.4206 53.488 15.1932 53.0744 14.7982 52.9598C14.4035 52.8452 13.9899 53.0726 13.8753 53.4673C13.8022 53.7193 13.7368 53.9762 13.6795 54.2384C13.592 54.6401 13.8468 55.0372 14.2485 55.1251C14.6502 55.2126 15.0477 54.9575 15.1353 54.5557ZM16.4353 51.3547C16.558 51.1565 16.6866 50.9625 16.8215 50.772C17.0588 50.4363 16.979 49.971 16.6434 49.7334C16.3077 49.4962 15.8424 49.576 15.6052 49.9116C15.4526 50.127 15.3068 50.3467 15.1683 50.5709C14.9521 50.9206 15.0604 51.38 15.4101 51.5961C15.7598 51.8126 16.2191 51.7044 16.4353 51.3547ZM18.6902 48.6523C18.8632 48.4896 19.0403 48.3297 19.2216 48.1715C19.5316 47.9013 19.564 47.4303 19.294 47.1203C19.0238 46.8103 18.5528 46.778 18.2428 47.0483C18.0471 47.2187 17.8559 47.3917 17.6696 47.567C17.3702 47.8489 17.3554 48.3206 17.6373 48.62C17.9191 48.9194 18.3908 48.9342 18.6902 48.6523ZM21.5163 46.4044C21.7152 46.2666 21.9166 46.1299 22.1208 45.9939C22.4631 45.7662 22.5559 45.3033 22.3282 44.961C22.1001 44.6187 21.6372 44.5259 21.2952 44.7536C21.083 44.8949 20.8738 45.0369 20.6672 45.1803C20.3294 45.4144 20.2451 45.879 20.4795 46.2167C20.7139 46.5548 21.1782 46.6388 21.5163 46.4044ZM24.6147 44.4296C24.8256 44.3031 25.0379 44.1769 25.2512 44.0507C25.6052 43.8416 25.7229 43.3843 25.5134 43.0304C25.3043 42.6765 24.8471 42.5591 24.4931 42.7682C24.277 42.8958 24.0623 43.0238 23.8489 43.1513C23.4964 43.3629 23.3815 43.8205 23.5931 44.1734C23.8043 44.5259 24.2622 44.6408 24.6147 44.4296ZM27.8207 42.5482C28.0351 42.4228 28.2502 42.2966 28.4653 42.1697C28.8196 41.9609 28.9373 41.5037 28.7285 41.1494C28.5198 40.7955 28.0625 40.6774 27.7083 40.8862C27.4946 41.0124 27.2812 41.1375 27.0683 41.2622C26.7133 41.47 26.5938 41.9265 26.8015 42.2815C27.0092 42.6364 27.4658 42.7559 27.8207 42.5482ZM31.0313 40.6117C31.2436 40.4778 31.4551 40.3425 31.6664 40.2061C32.0115 39.9826 32.1106 39.5211 31.8871 39.176C31.6639 38.8305 31.2021 38.7318 30.857 38.9553C30.6507 39.0885 30.4437 39.2206 30.2363 39.3514C29.8887 39.571 29.7843 40.0314 30.004 40.379C30.2233 40.7266 30.6837 40.831 31.0313 40.6117ZM34.1582 38.49C34.3617 38.3399 34.5638 38.1877 34.7648 38.0331C35.0906 37.7825 35.1518 37.3143 34.9012 36.9885C34.6506 36.6624 34.1825 36.6012 33.8567 36.8518C33.6634 37.0005 33.4686 37.147 33.2729 37.2915C32.9422 37.5358 32.8719 38.0025 33.1161 38.3332C33.3604 38.6639 33.8275 38.7342 34.1582 38.49ZM37.096 36.0695C37.2827 35.8962 37.4672 35.7201 37.6496 35.5416C37.943 35.2537 37.948 34.7817 37.6601 34.4879C37.3723 34.1945 36.8999 34.1899 36.6065 34.4777C36.4339 34.6468 36.2589 34.8137 36.0821 34.9779C35.7809 35.2576 35.7633 35.7296 36.0431 36.0308C36.3228 36.332 36.7948 36.3492 37.096 36.0695Z" fill="#CAD5FE"/>
<g filter="url(#filter3_f_2901_378183)">
<path fill-rule="evenodd" clip-rule="evenodd" d="M86.401 56.3668C86.6779 55.7244 86.5486 54.9786 86.0713 54.4668C83.9239 52.1479 82.3986 49.0157 82.614 43.9365C82.9184 36.7513 105.873 54.2644 101.564 57.1295C99.7057 58.3652 97.3488 58.6685 95.6443 58.6685C94.9519 58.6685 94.2725 58.6144 93.6093 58.5104C92.6365 58.354 91.6394 58.478 90.7348 58.8685C89.5237 59.3697 87.8061 60.1102 86.4206 60.7077C86.0425 60.8707 85.6028 60.7867 85.3115 60.4954C85.0201 60.204 84.9361 59.7644 85.0992 59.3862C85.5434 58.3561 86.0449 57.1931 86.401 56.3668Z" fill="#C9D4FC"/>
</g>
<path fill-rule="evenodd" clip-rule="evenodd" d="M86.401 55.7841C86.6779 55.1416 86.5486 54.3959 86.0713 53.8841C83.9239 51.5656 82.614 48.4626 82.614 45.0559C82.614 37.8644 88.4524 32.0256 95.6443 32.0256C102.836 32.0256 108.674 37.8644 108.674 45.0559C108.674 52.2474 102.836 58.0861 95.6443 58.0861C94.9519 58.0861 94.2725 58.032 93.6093 57.9276C92.6365 57.7712 91.6394 57.8957 90.7348 58.2858C89.5237 58.7869 87.8061 59.5275 86.4206 60.1249C86.0425 60.288 85.6028 60.204 85.3114 59.9127C85.0201 59.6213 84.9361 59.1816 85.0992 58.8035C85.5434 57.7734 86.0449 56.6104 86.401 55.7841Z" fill="url(#paint9_linear_2901_378183)"/>
<path d="M89.597 46.849C90.6893 46.849 91.5747 45.9635 91.5747 44.8713C91.5747 43.7791 90.6893 42.8937 89.597 42.8937C88.5048 42.8937 87.6194 43.7791 87.6194 44.8713C87.6194 45.9635 88.5048 46.849 89.597 46.849Z" fill="url(#paint10_linear_2901_378183)"/>
<path d="M95.6441 46.849C96.7364 46.849 97.6218 45.9635 97.6218 44.8713C97.6218 43.7791 96.7364 42.8937 95.6441 42.8937C94.5519 42.8937 93.6665 43.7791 93.6665 44.8713C93.6665 45.9635 94.5519 46.849 95.6441 46.849Z" fill="url(#paint11_linear_2901_378183)"/>
<path d="M101.691 46.849C102.783 46.849 103.669 45.9635 103.669 44.8713C103.669 43.7791 102.783 42.8937 101.691 42.8937C100.599 42.8937 99.7134 43.7791 99.7134 44.8713C99.7134 45.9635 100.599 46.849 101.691 46.849Z" fill="url(#paint12_linear_2901_378183)"/>
<defs>
<filter id="filter0_f_2901_378183" x="21.9211" y="28.0586" width="94.9792" height="73.1625" filterUnits="userSpaceOnUse" color-interpolation-filters="sRGB">
<feFlood flood-opacity="0" result="BackgroundImageFix"/>
<feBlend mode="normal" in="SourceGraphic" in2="BackgroundImageFix" result="shape"/>
<feGaussianBlur stdDeviation="7" result="effect1_foregroundBlur_2901_378183"/>
</filter>
<filter id="filter1_f_2901_378183" x="14.653" y="46.2579" width="109.164" height="77.2414" filterUnits="userSpaceOnUse" color-interpolation-filters="sRGB">
<feFlood flood-opacity="0" result="BackgroundImageFix"/>
<feBlend mode="normal" in="SourceGraphic" in2="BackgroundImageFix" result="shape"/>
<feGaussianBlur stdDeviation="7.57143" result="effect1_foregroundBlur_2901_378183"/>
</filter>
<filter id="filter2_f_2901_378183" x="24.6246" y="65.2488" width="89.5726" height="54.0163" filterUnits="userSpaceOnUse" color-interpolation-filters="sRGB">
<feFlood flood-opacity="0" result="BackgroundImageFix"/>
<feBlend mode="normal" in="SourceGraphic" in2="BackgroundImageFix" result="shape"/>
<feGaussianBlur stdDeviation="6.80952" result="effect1_foregroundBlur_2901_378183"/>
</filter>
<filter id="filter3_f_2901_378183" x="77.7366" y="37.3627" width="29.2228" height="28.2843" filterUnits="userSpaceOnUse" color-interpolation-filters="sRGB">
<feFlood flood-opacity="0" result="BackgroundImageFix"/>
<feBlend mode="normal" in="SourceGraphic" in2="BackgroundImageFix" result="shape"/>
<feGaussianBlur stdDeviation="2.42857" result="effect1_foregroundBlur_2901_378183"/>
</filter>
<linearGradient id="paint0_linear_2901_378183" x1="69.4106" y1="26.8183" x2="69.4106" y2="71.8567" gradientUnits="userSpaceOnUse">
<stop stop-color="#DDE5FE"/>
<stop offset="1" stop-color="#B6C5FB"/>
</linearGradient>
<linearGradient id="paint1_linear_2901_378183" x1="42.6364" y1="40.167" x2="84.5462" y2="106.231" gradientUnits="userSpaceOnUse">
<stop stop-color="#F9FBFF"/>
<stop offset="1" stop-color="#E1E8FD"/>
</linearGradient>
<linearGradient id="paint2_linear_2901_378183" x1="43.3999" y1="51.6158" x2="93.6628" y2="75.9647" gradientUnits="userSpaceOnUse">
<stop stop-color="#DDE5FE"/>
<stop offset="1" stop-color="#AEC0FC"/>
</linearGradient>
<linearGradient id="paint3_linear_2901_378183" x1="65.3876" y1="64.6401" x2="65.3876" y2="113.846" gradientUnits="userSpaceOnUse">
<stop stop-color="#E5EBFF"/>
<stop offset="1" stop-color="#B9C8FA"/>
</linearGradient>
<linearGradient id="paint4_linear_2901_378183" x1="65.3875" y1="64.6401" x2="65.3875" y2="113.846" gradientUnits="userSpaceOnUse">
<stop stop-color="#E5EBFF"/>
<stop offset="1" stop-color="#B9C8FA"/>
</linearGradient>
<linearGradient id="paint5_linear_2901_378183" x1="69.4351" y1="78.8678" x2="69.0696" y2="113.846" gradientUnits="userSpaceOnUse">
<stop stop-color="#C7D3FE"/>
<stop offset="1" stop-color="#9DB3FF"/>
</linearGradient>
<linearGradient id="paint6_linear_2901_378183" x1="42.1877" y1="18.4139" x2="42.4072" y2="39.5425" gradientUnits="userSpaceOnUse">
<stop stop-color="#A5B9FD"/>
<stop offset="1" stop-color="#7C99FB"/>
</linearGradient>
<linearGradient id="paint7_linear_2901_378183" x1="22.7013" y1="7.11195" x2="22.7013" y2="30.2735" gradientUnits="userSpaceOnUse">
<stop stop-color="#E5EBFF"/>
<stop offset="1" stop-color="#B9C8FA"/>
</linearGradient>
<linearGradient id="paint8_linear_2901_378183" x1="56.4513" y1="6.15384" x2="53.0161" y2="33.6636" gradientUnits="userSpaceOnUse">
<stop stop-color="#C7D3FE"/>
<stop offset="1" stop-color="#9DB3FF"/>
</linearGradient>
<linearGradient id="paint9_linear_2901_378183" x1="88.232" y1="34.3405" x2="110.638" y2="69.4351" gradientUnits="userSpaceOnUse">
<stop stop-color="#E8EDFF"/>
<stop offset="1" stop-color="#B9C8FA"/>
</linearGradient>
<linearGradient id="paint10_linear_2901_378183" x1="87.6194" y1="43.0399" x2="87.6429" y2="48.2053" gradientUnits="userSpaceOnUse">
<stop stop-color="#A5B9FD"/>
<stop offset="1" stop-color="#7C99FB"/>
</linearGradient>
<linearGradient id="paint11_linear_2901_378183" x1="93.6662" y1="43.0399" x2="93.6897" y2="48.2053" gradientUnits="userSpaceOnUse">
<stop stop-color="#A5B9FD"/>
<stop offset="1" stop-color="#7C99FB"/>
</linearGradient>
<linearGradient id="paint12_linear_2901_378183" x1="99.7134" y1="43.0399" x2="99.7369" y2="48.2053" gradientUnits="userSpaceOnUse">
<stop stop-color="#A5B9FD"/>
<stop offset="1" stop-color="#7C99FB"/>
</linearGradient>
</defs>
</svg>
