<svg width="156" height="156" viewBox="0 0 156 156" fill="none" xmlns="http://www.w3.org/2000/svg">
<path fill-rule="evenodd" clip-rule="evenodd" d="M96.3558 143.718C95.5305 146.797 92.3656 148.624 89.2866 147.799C73.0293 143.443 26.1951 130.893 16.3201 128.247C15.133 127.929 14.1208 127.153 13.5065 126.089C12.8922 125.025 12.7255 123.76 13.0436 122.573C17.8344 104.693 29.1024 62.6407 33.8915 44.7675C34.2096 43.5815 34.9855 42.5699 36.0487 41.9562C37.1118 41.3424 38.3759 41.1758 39.5619 41.4939C53.9897 45.36 99.207 57.4757 113.635 61.3419C114.821 61.6594 115.832 62.4354 116.446 63.4985C117.06 64.5623 117.227 65.8257 116.909 67.0118C113.385 80.1649 100.723 127.417 96.3558 143.718Z" fill="url(#paint0_linear_1834_288954)"/>
<g filter="url(#filter0_f_1834_288954)">
<path fill-rule="evenodd" clip-rule="evenodd" d="M104.228 104.244C104.228 105.444 103.751 106.596 102.902 107.444C98.5651 111.777 99.4392 123.812 95.1046 128.144C94.2569 128.991 93.1068 129.467 91.9078 129.467C83.6004 129.467 51.0627 129.467 38.6424 129.467C37.4137 129.467 36.2355 128.979 35.3664 128.11C34.4974 127.241 34.0093 126.063 34.0093 124.834C34.0093 106.323 34.0093 74.7311 34.0093 56.2274C34.0093 54.9998 34.4974 53.8222 35.3653 52.9537C36.2333 52.0858 37.4109 51.5977 38.639 51.5977C53.5762 51.5977 84.6614 51.5977 99.5986 51.5977C100.827 51.5977 102.004 52.0858 102.872 52.9537C103.74 53.8222 104.228 54.9998 104.228 56.2274C104.228 72.7697 104.228 93.2921 104.228 104.244Z" fill="#A5B6FA"/>
</g>
<path fill-rule="evenodd" clip-rule="evenodd" d="M118.833 104.246C118.833 105.447 118.356 106.598 117.507 107.446C113.17 111.779 99.4393 125.498 95.1047 129.829C94.2569 130.676 93.1068 131.153 91.9078 131.153C83.6005 131.153 49.9407 131.153 37.5203 131.153C36.2916 131.153 35.1134 130.665 34.2444 129.796C33.3753 128.927 32.8872 127.748 32.8872 126.52C32.8872 108.009 32.8872 64.4728 32.8872 45.969C32.8872 44.7415 33.3753 43.5638 34.2432 42.6959C35.1112 41.8274 36.2888 41.3398 37.5169 41.3398C52.4541 41.3398 99.2665 41.3398 114.204 41.3398C115.431 41.3398 116.609 41.8274 117.477 42.6959C118.345 43.5638 118.833 44.7415 118.833 45.969C118.833 62.5114 118.833 93.2947 118.833 104.246Z" fill="url(#paint1_linear_1834_288954)"/>
<path fill-rule="evenodd" clip-rule="evenodd" d="M95.1053 129.828C94.257 130.676 93.1063 131.153 91.9068 131.153C90.7634 131.153 89.5195 131.153 89.5195 131.153C89.5195 131.153 90.6854 131.108 92.0599 131.054C94.5044 130.959 96.4305 128.937 96.4069 126.491C96.3704 122.628 96.3171 117.026 96.2801 113.114C96.256 110.597 98.2769 108.538 100.794 108.513C104.737 108.476 110.399 108.423 114.265 108.386C116.673 108.363 118.642 106.457 118.741 104.05C118.792 102.837 118.833 101.84 118.833 101.84V104.227C118.833 105.426 118.357 106.577 117.508 107.425C113.173 111.76 99.4405 125.493 95.1053 129.828Z" fill="url(#paint2_linear_1834_288954)"/>
<path fill-rule="evenodd" clip-rule="evenodd" d="M47.2089 41.3383V39.9211C47.2089 37.7577 45.4551 36.0039 43.2917 36.0039C43.2912 36.0039 43.2906 36.0039 43.2895 36.0039C40.882 36.0039 38.9302 37.9558 38.9302 40.3638C38.9302 44.3758 38.9302 50.8132 38.9302 54.18C38.9302 55.8682 40.2986 57.2366 41.9867 57.2366C41.9873 57.2366 41.9884 57.2366 41.989 57.2366C43.6772 57.2366 45.0455 55.8682 45.0455 54.18C45.0455 50.2847 45.0455 42.6158 45.0455 42.6158C45.0455 42.1513 44.6685 41.7742 44.204 41.7742C43.7394 41.7742 43.3624 42.1513 43.3624 42.6158V54.18C43.3624 54.9386 42.7475 55.5535 41.989 55.5535H41.9867C41.2282 55.5535 40.6133 54.9386 40.6133 54.18V40.3638C40.6133 38.8854 41.8117 37.687 43.2895 37.687H43.2917C44.5255 37.687 45.5258 38.6874 45.5258 39.9211V41.3383H47.2089Z" fill="#93AAFA"/>
<path fill-rule="evenodd" clip-rule="evenodd" d="M75.8603 107.772C77.4823 107.772 78.7996 109.09 78.7996 110.712C78.7996 112.334 77.4823 113.651 75.8603 113.651C74.2378 113.651 72.9204 112.334 72.9204 110.712C72.9204 109.09 74.2378 107.772 75.8603 107.772ZM75.8603 76.1727C71.1599 76.1727 67.6365 79.6971 67.6365 83.7019C67.6365 85.0646 66.5318 86.1693 65.1696 86.1693C63.8068 86.1693 62.7021 85.0646 62.7021 83.7019C62.7021 76.6653 68.7519 71.2383 75.8603 71.2383C82.9682 71.2383 89.0179 76.6653 89.0179 83.7019C89.0179 89.8565 85.6421 93.2716 82.8223 95.7183C82.4486 96.0426 82.0997 96.3388 81.7726 96.6159C80.8014 97.4396 80.0272 98.096 79.3898 98.827C78.6279 99.7006 78.3272 100.402 78.3272 101.196V101.628C78.3272 102.99 77.2225 104.095 75.8603 104.095C74.4975 104.095 73.3928 102.99 73.3928 101.628V101.196C73.3928 98.818 74.4285 97.0087 75.6712 95.5836C76.5779 94.5446 77.7471 93.5555 78.7828 92.6785C79.0639 92.4407 79.3354 92.2112 79.589 91.9913C82.1142 89.8004 84.0835 87.6404 84.0835 83.7019C84.0835 79.6971 80.5607 76.1727 75.8603 76.1727Z" fill="url(#paint3_linear_1834_288954)"/>
<g filter="url(#filter1_f_1834_288954)">
<path fill-rule="evenodd" clip-rule="evenodd" d="M72.0177 45.1962C70.0293 37.0426 125.946 44.1925 116.25 53.889C116.017 54.1219 119.819 60.116 120.167 62.335C120.311 63.2495 118.158 70.0774 117.051 70.0942C116.119 70.1082 113.116 66.5551 112.882 66.3223C111.089 64.5483 113.184 63.1193 113.184 63.1193C111.78 61.7734 111.089 59.1494 110.88 59.2913C100.333 66.4474 87.5771 65.8454 78.5802 56.8485C75.247 53.5154 73.0595 49.4674 72.0177 45.1962Z" fill="#A3B8FF"/>
</g>
<path fill-rule="evenodd" clip-rule="evenodd" d="M114.714 52.5547L109.423 57.8459L114.649 63.072L119.94 57.7808L114.714 52.5547Z" fill="#98AFFB"/>
<path fill-rule="evenodd" clip-rule="evenodd" d="M122.399 56.7275C121.741 56.07 120.676 56.07 120.018 56.7275C118.336 58.4101 115.279 61.4667 113.597 63.1498C112.939 63.8068 112.939 64.8728 113.597 65.5297C117.504 69.4374 129.911 81.8449 133.818 85.752C134.476 86.4095 135.541 86.4095 136.199 85.752C137.881 84.0694 140.938 81.0128 142.621 79.3297C143.278 78.6727 143.278 77.6068 142.621 76.9498C138.714 73.0421 126.306 60.6346 122.399 56.7275Z" fill="url(#paint4_linear_1834_288954)"/>
<path fill-rule="evenodd" clip-rule="evenodd" d="M119.087 13.786L124.618 8.25415C124.958 7.91528 125.508 7.91528 125.847 8.25415C126.186 8.59358 126.186 9.14397 125.847 9.48284L120.316 15.0147C119.976 15.3536 119.426 15.3536 119.087 15.0147C118.748 14.6753 118.748 14.1249 119.087 13.786Z" fill="#93AAFA"/>
<path fill-rule="evenodd" clip-rule="evenodd" d="M123.958 19.224L135.251 14.1392C135.689 13.9423 136.203 14.1376 136.4 14.5746C136.597 15.0117 136.402 15.5267 135.965 15.7236L124.672 20.8084C124.234 21.0053 123.72 20.81 123.523 20.373C123.326 19.9354 123.521 19.4209 123.958 19.224Z" fill="#93AAFA"/>
<path fill-rule="evenodd" clip-rule="evenodd" d="M127.752 25.2789L134.056 24.0665C134.527 23.9762 134.982 24.2847 135.073 24.756C135.163 25.2267 134.855 25.6823 134.384 25.7732L128.08 26.9856C127.61 27.0759 127.153 26.7673 127.063 26.2961C126.973 25.8254 127.281 25.3698 127.752 25.2789Z" fill="#93AAFA"/>
<path fill-rule="evenodd" clip-rule="evenodd" d="M78.5805 21.7099C88.277 12.0134 104.022 12.0134 113.718 21.7099C123.415 31.4064 123.415 47.1509 113.718 56.8475C104.022 66.544 88.277 66.544 78.5805 56.8475C68.884 47.1509 68.884 31.4064 78.5805 21.7099Z" fill="url(#paint5_linear_1834_288954)"/>
<path fill-rule="evenodd" clip-rule="evenodd" d="M81.0826 24.2134C89.3978 15.8976 102.9 15.8976 111.215 24.2134C119.53 32.5286 119.53 46.0301 111.215 54.3459C102.9 62.6611 89.3978 62.6611 81.0826 54.3459C72.7674 46.0301 72.7674 32.5286 81.0826 24.2134Z" fill="url(#paint6_linear_1834_288954)"/>
<path fill-rule="evenodd" clip-rule="evenodd" d="M96.1488 48.4203C97.1161 48.4203 97.9015 49.2058 97.9015 50.173C97.9015 51.1408 97.1161 51.9263 96.1488 51.9263C95.1816 51.9263 94.3962 51.1408 94.3962 50.173C94.3962 49.2058 95.1816 48.4203 96.1488 48.4203ZM96.1488 29.5788C93.3464 29.5788 91.2453 31.6799 91.2453 34.0683C91.2453 34.8807 90.5867 35.5394 89.7743 35.5394C88.9619 35.5394 88.3032 34.8807 88.3032 34.0683C88.3032 29.8723 91.9107 26.6367 96.1488 26.6367C100.388 26.6367 103.994 29.8723 103.994 34.0683C103.994 37.7381 101.981 39.7741 100.3 41.2328C100.077 41.4264 99.8691 41.6031 99.6744 41.7681C99.0954 42.2595 98.6337 42.6511 98.2533 43.0871C97.7994 43.6077 97.6199 44.0257 97.6199 44.4992V44.7567C97.6199 45.5691 96.9612 46.2278 96.1488 46.2278C95.3365 46.2278 94.6778 45.5691 94.6778 44.7567V44.4992C94.6778 43.0815 95.2955 42.0026 96.0366 41.1526C96.5769 40.5332 97.2737 39.9435 97.892 39.4206C98.0592 39.2787 98.2208 39.1418 98.3723 39.0105C99.8781 37.7044 101.052 36.4163 101.052 34.0683C101.052 31.6799 98.9518 29.5788 96.1488 29.5788Z" fill="#93AAFA"/>
<defs>
<filter id="filter0_f_1834_288954" x="19.6283" y="37.2167" width="98.9812" height="106.631" filterUnits="userSpaceOnUse" color-interpolation-filters="sRGB">
<feFlood flood-opacity="0" result="BackgroundImageFix"/>
<feBlend mode="normal" in="SourceGraphic" in2="BackgroundImageFix" result="shape"/>
<feGaussianBlur stdDeviation="7.19048" result="effect1_foregroundBlur_1834_288954"/>
</filter>
<filter id="filter1_f_1834_288954" x="58.3468" y="28.0255" width="75.4461" height="55.6873" filterUnits="userSpaceOnUse" color-interpolation-filters="sRGB">
<feFlood flood-opacity="0" result="BackgroundImageFix"/>
<feBlend mode="normal" in="SourceGraphic" in2="BackgroundImageFix" result="shape"/>
<feGaussianBlur stdDeviation="6.80952" result="effect1_foregroundBlur_1834_288954"/>
</filter>
<linearGradient id="paint0_linear_1834_288954" x1="49.0815" y1="38.9772" x2="41.1079" y2="134.889" gradientUnits="userSpaceOnUse">
<stop stop-color="#EEF2FF"/>
<stop offset="1" stop-color="#D7DFFC"/>
</linearGradient>
<linearGradient id="paint1_linear_1834_288954" x1="115.252" y1="37.0903" x2="37.1652" y2="132.498" gradientUnits="userSpaceOnUse">
<stop stop-color="white"/>
<stop offset="1" stop-color="#ECF0FE"/>
</linearGradient>
<linearGradient id="paint2_linear_1834_288954" x1="110.588" y1="90.7447" x2="102.579" y2="125.867" gradientUnits="userSpaceOnUse">
<stop stop-color="#E3E9FE"/>
<stop offset="1" stop-color="#B1C2FC"/>
</linearGradient>
<linearGradient id="paint3_linear_1834_288954" x1="57.0109" y1="72.9231" x2="72.531" y2="131.392" gradientUnits="userSpaceOnUse">
<stop stop-color="#E5EBFF"/>
<stop offset="1" stop-color="#B9C8FA"/>
</linearGradient>
<linearGradient id="paint4_linear_1834_288954" x1="128.109" y1="71.2395" x2="143.686" y2="86.6114" gradientUnits="userSpaceOnUse">
<stop stop-color="#C1CFFE"/>
<stop offset="1" stop-color="#A0B5FC"/>
</linearGradient>
<linearGradient id="paint5_linear_1834_288954" x1="70.1525" y1="35.143" x2="122.153" y2="45.1142" gradientUnits="userSpaceOnUse">
<stop stop-color="#CBD7FF"/>
<stop offset="1" stop-color="#A9BBF9"/>
</linearGradient>
<linearGradient id="paint6_linear_1834_288954" x1="75.7" y1="33.2918" x2="116.686" y2="44.9585" gradientUnits="userSpaceOnUse">
<stop stop-color="white"/>
<stop offset="1" stop-color="#C6D2FB"/>
</linearGradient>
</defs>
</svg>
