<svg width="156" height="156" viewBox="0 0 156 156" fill="none" xmlns="http://www.w3.org/2000/svg">
<path fill-rule="evenodd" clip-rule="evenodd" d="M121.573 62.1055C121.573 59.7494 120.637 57.4904 118.974 55.8245C117.305 54.1585 115.045 53.2227 112.694 53.2227C91.7372 53.2227 48.458 53.2227 27.501 53.2227C25.1449 53.2227 22.8849 54.1585 21.2215 55.8245C19.553 57.4904 18.6177 59.7494 18.6177 62.1055C18.6177 77.8599 18.6177 110.516 18.6177 126.271C18.6177 128.627 19.553 130.886 21.2215 132.552C22.8849 134.218 25.1449 135.154 27.501 135.154C48.458 135.154 91.7372 135.154 112.694 135.154C115.045 135.154 117.305 134.218 118.974 132.552C120.637 130.886 121.573 128.627 121.573 126.271C121.573 110.516 121.573 77.8599 121.573 62.1055Z" fill="url(#paint0_linear_2319_311145)"/>
<path fill-rule="evenodd" clip-rule="evenodd" d="M121.573 62.1055C121.573 59.7494 120.637 57.4904 118.974 55.8245C117.305 54.1585 115.045 53.2227 112.694 53.2227C91.7372 53.2227 48.458 53.2227 27.501 53.2227C25.1449 53.2227 22.8849 54.1585 21.2215 55.8245C19.553 57.4904 18.6177 59.7494 18.6177 62.1055C18.6177 66.7929 18.6177 71.5839 18.6177 71.5839H121.573V62.1055Z" fill="url(#paint1_linear_2319_311145)"/>
<path fill-rule="evenodd" clip-rule="evenodd" d="M148 127.66C148 128.339 147.691 128.981 147.161 129.405C146.63 129.829 145.937 129.988 145.27 129.838C143.364 129.471 140.916 128.904 139.622 128.089C135.218 125.312 121.572 113.557 121.572 113.557V75.2175C121.572 75.2175 135.218 63.4628 139.622 60.6861C140.916 59.8711 143.363 59.3038 145.28 58.961C145.932 58.8124 146.62 58.9701 147.145 59.3892C147.666 59.8084 147.975 60.4429 147.975 61.1143C148 72.2587 148 116.516 148 127.66Z" fill="url(#paint2_linear_2319_311145)"/>
<path fill-rule="evenodd" clip-rule="evenodd" d="M148 127.66C148 128.339 147.691 128.981 147.161 129.405C146.63 129.829 145.937 129.988 145.27 129.838C143.364 129.471 140.916 128.904 139.622 128.089V60.6861C140.916 59.8711 143.363 59.3038 145.28 58.961C145.932 58.8124 146.62 58.9701 147.145 59.3892C147.666 59.8084 147.975 60.4429 147.975 61.1143C148 72.2587 148 116.516 148 127.66Z" fill="url(#paint3_linear_2319_311145)"/>
<path fill-rule="evenodd" clip-rule="evenodd" d="M83.693 104.558C81.8071 103.462 80.5431 101.423 80.5431 99.0915C80.5431 95.6024 83.3795 92.7695 86.8681 92.7695C90.3568 92.7695 93.1881 95.6024 93.1881 99.0915C93.1881 101.423 91.9241 103.462 90.0432 104.558C94.3712 105.911 97.5109 109.951 97.5109 114.72C97.5109 120.595 76.2202 120.595 76.2202 114.72C76.2202 109.951 79.365 105.911 83.693 104.558Z" fill="url(#paint4_linear_2319_311145)"/>
<path fill-rule="evenodd" clip-rule="evenodd" d="M50.1519 104.558C48.2711 103.462 47.0021 101.423 47.0021 99.0915C47.0021 95.6024 49.8334 92.7695 53.3271 92.7695C56.8157 92.7695 59.647 95.6024 59.647 99.0915C59.647 101.423 58.383 103.462 56.5022 104.558C60.8251 105.911 63.9699 109.951 63.9699 114.72C63.9699 120.595 42.6792 120.595 42.6792 114.72C42.6792 109.951 45.824 105.911 50.1519 104.558Z" fill="url(#paint5_linear_2319_311145)"/>
<path fill-rule="evenodd" clip-rule="evenodd" d="M65.9921 104.208C63.636 102.836 62.0534 100.284 62.0534 97.3644C62.0534 92.996 65.6027 89.4492 69.9711 89.4492C74.3395 89.4492 77.8837 92.996 77.8837 97.3644C77.8837 100.284 76.3012 102.836 73.9451 104.208C79.36 105.901 83.2936 110.96 83.2936 116.93C83.2936 124.285 56.6436 124.285 56.6436 116.93C56.6436 110.96 60.5771 105.901 65.9921 104.208Z" fill="url(#paint6_linear_2319_311145)"/>
<g filter="url(#filter0_f_2319_311145)">
<path fill-rule="evenodd" clip-rule="evenodd" d="M88.0763 54.8555L20.6953 75.23L74.0814 76.5193L90.4425 82.907L88.0763 54.8555Z" fill="#B1C3FF"/>
</g>
<path fill-rule="evenodd" clip-rule="evenodd" d="M88.0766 51.4434C88.0766 48.4199 85.6244 45.9688 82.6009 45.9688C67.974 45.9688 28.1026 45.9688 13.4756 45.9688C10.4522 45.9688 8 48.4199 8 51.4434C8 56.6768 8 64.5242 8 69.7576C8 71.2092 8.57637 72.6016 9.60274 73.6285C10.6291 74.6554 12.0246 75.2322 13.4756 75.2322C29.5587 75.2322 75.5529 75.2322 75.5529 75.2322C75.5529 75.2322 83.2026 77.4346 86.5446 78.3973C86.9036 78.5014 87.298 78.4296 87.5963 78.2031C87.8996 77.9761 88.0766 77.6212 88.0766 77.244C88.0766 72.6309 88.0766 59.1123 88.0766 51.4434Z" fill="url(#paint7_linear_2319_311145)"/>
<path fill-rule="evenodd" clip-rule="evenodd" d="M56.5978 36.8036L55.1771 21.3192C55.1063 20.5214 54.3985 19.9329 53.5996 20.0062C52.8008 20.0795 52.2143 20.7863 52.2851 21.5841L53.7058 37.0686C53.7816 37.8664 54.4895 38.4544 55.2832 38.3816C56.0821 38.3083 56.6737 37.6015 56.5978 36.8036Z" fill="#9FB5FD"/>
<path fill-rule="evenodd" clip-rule="evenodd" d="M63.8837 38.6285L67.9134 27.0584C68.1763 26.302 67.7768 25.4739 67.0235 25.2099C66.2651 24.9465 65.4359 25.3465 65.173 26.1033L61.1434 37.6734C60.8754 38.4298 61.2799 39.258 62.0333 39.5219C62.7917 39.7853 63.6208 39.3854 63.8837 38.6285Z" fill="#9FB5FD"/>
<path fill-rule="evenodd" clip-rule="evenodd" d="M49.6915 39.2676L44.9086 32.9178C44.4283 32.2782 43.5182 32.1497 42.8761 32.6316C42.239 33.1134 42.1075 34.024 42.5929 34.6641L47.3709 41.0139C47.8562 41.654 48.7663 41.7824 49.4034 41.3001C50.0455 40.8182 50.1718 39.9076 49.6915 39.2676Z" fill="#9FB5FD"/>
<path d="M25.4888 70.7647C31.103 70.7647 35.6543 66.2134 35.6543 60.5991C35.6543 54.9849 31.103 50.4336 25.4888 50.4336C19.8745 50.4336 15.3232 54.9849 15.3232 60.5991C15.3232 66.2134 19.8745 70.7647 25.4888 70.7647Z" fill="#DDE5FE"/>
<path d="M25.4887 67.3533C29.2192 67.3533 32.2434 64.3291 32.2434 60.5985C32.2434 56.868 29.2192 53.8438 25.4887 53.8438C21.7581 53.8438 18.7339 56.868 18.7339 60.5985C18.7339 64.3291 21.7581 67.3533 25.4887 67.3533Z" fill="#BFCDFD"/>
<path d="M25.4889 64.5814C27.6882 64.5814 29.471 62.7985 29.471 60.5993C29.471 58.4 27.6882 56.6172 25.4889 56.6172C23.2897 56.6172 21.5068 58.4 21.5068 60.5993C21.5068 62.7985 23.2897 64.5814 25.4889 64.5814Z" fill="#7C99FB"/>
<path d="M42.9418 67.2414C42.5728 67.2414 42.2946 67.1408 42.0924 66.9401C41.8902 66.7388 41.7891 66.4628 41.7891 66.1109V55.0696C41.7891 54.7051 41.9003 54.4129 42.1177 54.1934C42.3402 53.9735 42.6334 53.8633 42.9974 53.8633C43.3716 53.8633 43.6699 53.9735 43.8924 54.1934C44.1098 54.4129 44.221 54.7051 44.221 55.0696V65.2443H49.5146C50.268 65.2443 50.6471 65.577 50.6471 66.2428C50.6471 66.9087 50.268 67.2414 49.5146 67.2414H42.9418Z" fill="#7C99FB"/>
<path d="M53.453 67.3547C53.0889 67.3547 52.7957 67.2414 52.5783 67.0154C52.3558 66.7894 52.2446 66.4941 52.2446 66.1296V55.0696C52.2446 54.7051 52.3558 54.4129 52.5783 54.1934C52.7957 53.9735 53.0889 53.8633 53.453 53.8633C53.8322 53.8633 54.1254 53.9735 54.3479 54.1934C54.5703 54.4129 54.6765 54.7051 54.6765 55.0696V66.1296C54.6765 66.4941 54.5703 66.7894 54.3479 67.0154C54.1254 67.2414 53.8322 67.3547 53.453 67.3547Z" fill="#7C99FB"/>
<path d="M67.2105 54.4843C67.4077 54.0576 67.7414 53.8438 68.2066 53.8438C68.52 53.8438 68.8032 53.9444 69.056 54.1451C69.3037 54.3463 69.4301 54.5976 69.4301 54.8989C69.4301 55.037 69.3947 55.1942 69.3188 55.3701L64.1011 66.6C63.9848 66.8386 63.8129 67.0237 63.5803 67.1556C63.3477 67.2876 63.1 67.3538 62.8371 67.3538C62.5742 67.3538 62.3265 67.2876 62.0939 67.1556C61.8613 67.0237 61.6894 66.8386 61.5731 66.6L56.3756 55.3701C56.2997 55.1942 56.2593 55.0435 56.2593 54.9176C56.2593 54.6037 56.3907 54.3463 56.6486 54.1451C56.9065 53.9444 57.1946 53.8438 57.5233 53.8438C57.7356 53.8438 57.9328 53.8973 58.1148 54.004C58.2969 54.1107 58.4384 54.271 58.5395 54.4843L62.8725 64.1129L67.2105 54.4843Z" fill="#7C99FB"/>
<path d="M72.1655 67.2406C71.8014 67.2406 71.5133 67.14 71.306 66.9393C71.0987 66.738 70.9976 66.4554 70.9976 66.0914V55.1063C70.9976 54.7422 71.0987 54.4596 71.306 54.2584C71.5133 54.0576 71.8014 53.957 72.1655 53.957H78.9658C79.3298 53.957 79.6129 54.0384 79.8152 54.2017C80.0123 54.365 80.1135 54.5976 80.1135 54.899C80.1135 55.2129 80.0123 55.4551 79.8152 55.6245C79.6129 55.7939 79.3298 55.8788 78.9658 55.8788H73.3688V59.5343H78.5866C78.9506 59.5343 79.2337 59.6157 79.436 59.779C79.6382 59.9423 79.7394 60.1809 79.7394 60.4949C79.7394 60.7968 79.6382 61.0288 79.436 61.1921C79.2337 61.3554 78.9506 61.4373 78.5866 61.4373H73.3688V65.3188H78.9658C79.3298 65.3188 79.6129 65.4038 79.8152 65.5731C80.0123 65.7425 80.1135 65.9847 80.1135 66.2987C80.1135 66.6 80.0123 66.8326 79.8152 66.9959C79.6129 67.1592 79.3298 67.2406 78.9658 67.2406H72.1655Z" fill="#7C99FB"/>
<defs>
<filter id="filter0_f_2319_311145" x="2.69531" y="36.8555" width="105.747" height="64.0508" filterUnits="userSpaceOnUse" color-interpolation-filters="sRGB">
<feFlood flood-opacity="0" result="BackgroundImageFix"/>
<feBlend mode="normal" in="SourceGraphic" in2="BackgroundImageFix" result="shape"/>
<feGaussianBlur stdDeviation="9" result="effect1_foregroundBlur_2319_311145"/>
</filter>
<linearGradient id="paint0_linear_2319_311145" x1="120.218" y1="50.5008" x2="14.9733" y2="131.099" gradientUnits="userSpaceOnUse">
<stop stop-color="#E3E9FE"/>
<stop offset="1" stop-color="#D5DEFE"/>
</linearGradient>
<linearGradient id="paint1_linear_2319_311145" x1="120.147" y1="54.5033" x2="9.56394" y2="69.8561" gradientUnits="userSpaceOnUse">
<stop stop-color="#D7E0FE"/>
<stop offset="1" stop-color="#B1C2FC"/>
</linearGradient>
<linearGradient id="paint2_linear_2319_311145" x1="144.906" y1="53.2235" x2="130.601" y2="123.771" gradientUnits="userSpaceOnUse">
<stop stop-color="#F6F8FF"/>
<stop offset="1" stop-color="#E4EAFD"/>
</linearGradient>
<linearGradient id="paint3_linear_2319_311145" x1="155.69" y1="51.8978" x2="127.733" y2="158.784" gradientUnits="userSpaceOnUse">
<stop stop-color="#E3E9FE"/>
<stop offset="1" stop-color="#B1C2FC"/>
</linearGradient>
<linearGradient id="paint4_linear_2319_311145" x1="83.3087" y1="94.5801" x2="92.6336" y2="117.277" gradientUnits="userSpaceOnUse">
<stop stop-color="#C7D3FE"/>
<stop offset="1" stop-color="#A0B5FC"/>
</linearGradient>
<linearGradient id="paint5_linear_2319_311145" x1="49.7677" y1="94.5801" x2="59.0926" y2="117.277" gradientUnits="userSpaceOnUse">
<stop stop-color="#C7D3FE"/>
<stop offset="1" stop-color="#A0B5FC"/>
</linearGradient>
<linearGradient id="paint6_linear_2319_311145" x1="64.2174" y1="68.5044" x2="104.468" y2="87.1776" gradientUnits="userSpaceOnUse">
<stop stop-color="#BECDFE"/>
<stop offset="1" stop-color="#7C99FB"/>
</linearGradient>
<linearGradient id="paint7_linear_2319_311145" x1="87.7429" y1="45.9689" x2="70.3231" y2="110.45" gradientUnits="userSpaceOnUse">
<stop stop-color="#F6F8FF"/>
<stop offset="1" stop-color="#E7ECFD"/>
</linearGradient>
</defs>
</svg>
