<svg width="120" height="120" viewBox="0 0 120 120" fill="none" xmlns="http://www.w3.org/2000/svg">
<path d="M15.1557 43.1448C16.6688 39.3629 20.3317 36.8828 24.4057 36.8828H95.595C99.6685 36.8828 103.331 39.3629 104.845 43.1448L112.301 61.7882H7.69873L15.1557 43.1448Z" fill="url(#paint0_linear_1586_331132)"/>
<path d="M6.1955 67.6688C5.66538 61.835 10.2589 56.8047 16.1169 56.8047H103.883C109.741 56.8047 114.335 61.835 113.804 67.6688L110.634 102.536C110.168 107.668 105.866 111.597 100.713 111.597H19.287C14.1341 111.597 9.83166 107.668 9.3656 102.536L6.1955 67.6688Z" fill="url(#paint1_linear_1586_331132)"/>
<path fill-rule="evenodd" clip-rule="evenodd" d="M79.9246 66.648C79.9246 65.3396 78.8624 64.2773 77.5535 64.2773H42.4468C41.1384 64.2773 40.0757 65.3396 40.0757 66.648V69.3778C40.0757 70.6867 41.1384 71.7489 42.4468 71.7489H77.5535C78.8624 71.7489 79.9246 70.6867 79.9246 69.3778V66.648Z" fill="#9EB4FF"/>
<path fill-rule="evenodd" clip-rule="evenodd" d="M81.6554 13.5621C81.6554 12.2921 81.151 11.074 80.2532 10.1756C79.3549 9.27783 78.1367 8.77344 76.8667 8.77344H43.132C41.8619 8.77344 40.6438 9.27783 39.7455 10.1756C38.8477 11.074 38.3428 12.2921 38.3428 13.5621V46.8323C38.3428 47.7029 38.8184 48.5039 39.5821 48.921C40.3462 49.3381 41.2768 49.3048 42.0092 48.8342C44.7586 47.0668 48.3499 44.7582 50.1793 43.582C50.9515 43.0852 51.8504 42.8214 52.7689 42.8214C57.0098 42.8214 69.8138 42.8214 76.8667 42.8214C78.1367 42.8214 79.3549 42.317 80.2532 41.4187C81.151 40.5209 81.6554 39.3027 81.6554 38.0327V13.5621Z" fill="url(#paint2_linear_1586_331132)"/>
<path d="M57.9195 33.5C57.9195 33.7761 58.1434 34 58.4195 34H61.6195C61.8957 34 62.1195 33.7761 62.1195 33.5V27.58C62.1195 27.3039 62.3434 27.08 62.6195 27.08H68.4995C68.7757 27.08 68.9995 26.8561 68.9995 26.58V23.38C68.9995 23.1039 68.7757 22.88 68.4995 22.88H62.6195C62.3434 22.88 62.1195 22.6561 62.1195 22.38V16.5C62.1195 16.2239 61.8957 16 61.6195 16H58.4195C58.1434 16 57.9195 16.2239 57.9195 16.5V22.38C57.9195 22.6561 57.6957 22.88 57.4195 22.88H51.4995C51.2234 22.88 50.9995 23.1039 50.9995 23.38V26.58C50.9995 26.8561 51.2234 27.08 51.4995 27.08H57.4195C57.6957 27.08 57.9195 27.3039 57.9195 27.58V33.5Z" fill="#7D94DD"/>
<defs>
<linearGradient id="paint0_linear_1586_331132" x1="81.9285" y1="36.8826" x2="81.9285" y2="66.7692" gradientUnits="userSpaceOnUse">
<stop stop-color="#C7D3FE"/>
<stop offset="1" stop-color="#98ACF0"/>
</linearGradient>
<linearGradient id="paint1_linear_1586_331132" x1="38.0443" y1="56.8049" x2="38.0443" y2="111.597" gradientUnits="userSpaceOnUse">
<stop stop-color="#E3E9FE"/>
<stop offset="1" stop-color="#B1C2FC"/>
</linearGradient>
<linearGradient id="paint2_linear_1586_331132" x1="40.5298" y1="10.197" x2="90.1724" y2="42.8213" gradientUnits="userSpaceOnUse">
<stop stop-color="#F4F6FF"/>
<stop offset="1" stop-color="#D1DBFC"/>
</linearGradient>
</defs>
</svg>
