<svg width="156" height="156" viewBox="0 0 156 156" fill="none" xmlns="http://www.w3.org/2000/svg">
<path fill-rule="evenodd" clip-rule="evenodd" d="M111.748 30.176C111.423 28.8668 110.593 27.7465 109.44 27.0479C103.547 23.5045 84.8923 12.2699 79.0031 8.72648C77.8507 8.03415 76.4698 7.82643 75.1645 8.14741C66.1189 10.3943 29.4697 19.4827 15.9461 22.8373C14.6086 23.1709 13.4568 24.0205 12.7456 25.1975C12.0344 26.3807 11.8211 27.7969 12.1527 29.1312C17.1513 49.2904 35.6604 123.911 40.6571 144.057C40.9887 145.398 41.8378 146.543 43.0179 147.255C44.1974 147.966 45.6116 148.18 46.9484 147.846C63.2124 143.812 114.183 131.174 130.447 127.139C131.783 126.806 132.934 125.956 133.645 124.779C134.356 123.596 134.569 122.186 134.237 120.845C129.769 102.839 114.705 42.0965 111.748 30.176Z" fill="url(#paint0_linear_2974_421965)"/>
<path fill-rule="evenodd" clip-rule="evenodd" d="M79.0037 8.7283C77.8507 8.03598 76.4692 7.82826 75.1632 8.15554C73.9183 8.46394 72.5645 8.79753 72.5645 8.79753C72.5645 8.79753 73.8453 8.53316 75.3571 8.21846C78.0445 7.6646 80.6873 9.34508 81.3224 12.0137C82.3256 16.2306 83.7808 22.3419 84.7966 26.6154C85.4505 29.3596 88.2072 31.0589 90.9539 30.4044C95.2576 29.3785 101.436 27.9057 105.656 26.905C108.285 26.2756 110.942 27.8239 111.701 30.417C112.084 31.7261 112.398 32.7961 112.398 32.7961C112.398 32.7961 112.062 31.4429 111.753 30.1967C111.429 28.8939 110.6 27.7673 109.447 27.0749C103.555 23.5252 84.8948 12.278 79.0037 8.7283Z" fill="url(#paint1_linear_2974_421965)"/>
<path fill-rule="evenodd" clip-rule="evenodd" d="M125.698 45.2323C125.698 43.8854 125.163 42.5951 124.211 41.6448C119.345 36.7796 103.942 21.3912 99.0797 16.5323C98.1281 15.5819 96.8378 15.0469 95.4928 15.0469C86.1735 15.0469 48.414 15.0469 34.4807 15.0469C33.1023 15.0469 31.78 15.5945 30.8051 16.57C29.8308 17.5456 29.2832 18.8673 29.2832 20.2456C29.2832 41.0091 29.2832 117.895 29.2832 138.652C29.2832 140.031 29.8302 141.352 30.8044 142.322C31.7781 143.297 33.0992 143.845 34.4763 143.845C51.2331 143.845 103.748 143.845 120.505 143.845C121.882 143.845 123.203 143.297 124.177 142.322C125.151 141.352 125.698 140.031 125.698 138.652C125.698 120.098 125.698 57.518 125.698 45.2323Z" fill="url(#paint2_linear_2974_421965)"/>
<path fill-rule="evenodd" clip-rule="evenodd" d="M60.856 111.782H110.484C111.439 111.782 112.215 111.008 112.215 110.051C112.215 109.094 111.439 108.32 110.484 108.32H60.856C59.8999 108.32 59.1245 109.094 59.1245 110.051C59.1245 111.008 59.8999 111.782 60.856 111.782Z" fill="#CAD5FD"/>
<path fill-rule="evenodd" clip-rule="evenodd" d="M44.498 121.141H110.484C111.439 121.141 112.214 120.367 112.214 119.411C112.214 118.454 111.439 117.68 110.484 117.68H44.498C43.5426 117.68 42.7666 118.454 42.7666 119.411C42.7666 120.367 43.5426 121.141 44.498 121.141Z" fill="#CAD5FD"/>
<path fill-rule="evenodd" clip-rule="evenodd" d="M44.498 130.509H85.6694C86.6248 130.509 87.4008 129.734 87.4008 128.778C87.4008 127.821 86.6248 127.047 85.6694 127.047H44.498C43.5426 127.047 42.7666 127.821 42.7666 128.778C42.7666 129.734 43.5426 130.509 44.498 130.509Z" fill="#CAD5FD"/>
<path fill-rule="evenodd" clip-rule="evenodd" d="M99.08 16.5323C98.1284 15.5819 96.8381 15.0469 95.4919 15.0469C94.2092 15.0469 92.8145 15.0469 92.8145 15.0469C92.8145 15.0469 94.1217 15.0973 95.6643 15.1602C98.4066 15.2672 100.567 17.533 100.541 20.2771C100.5 24.6136 100.44 30.8949 100.399 35.2817C100.371 38.1076 102.639 40.4175 105.462 40.4427C109.886 40.4868 116.237 40.5497 120.574 40.5875C123.276 40.6126 125.483 42.7525 125.595 45.4526C125.652 46.8121 125.699 47.9323 125.699 47.9323V45.2575C125.699 43.9106 125.164 42.6141 124.212 41.6637C119.349 36.8048 103.944 21.3975 99.08 16.5323Z" fill="url(#paint3_linear_2974_421965)"/>
<path fill-rule="evenodd" clip-rule="evenodd" d="M52.6157 53.5565C55.0697 50.6362 58.7491 48.7732 62.8596 48.7732C63.5715 48.7732 64.2701 48.8298 64.9517 48.9368L66.6838 37.9037C65.4376 37.7085 64.1606 37.6016 62.8596 37.6016C55.3183 37.6016 48.5656 41.0128 44.063 46.3752L52.6157 53.5565Z" fill="#BBC9F8"/>
<path fill-rule="evenodd" clip-rule="evenodd" d="M72.0513 52.4346C74.6236 54.8767 76.231 58.3257 76.231 62.1461C76.231 63.2601 76.0945 64.349 75.8352 65.3875L86.6732 68.0875C87.1478 66.1867 87.4008 64.1916 87.4008 62.1461C87.4008 55.1347 84.4552 48.8031 79.7336 44.3281L72.0513 52.4346Z" fill="#8BA3F4"/>
<path fill-rule="evenodd" clip-rule="evenodd" d="M64.9517 48.9355C67.6794 49.3635 70.1334 50.6222 72.0511 52.4349L79.7335 44.3284C76.2101 40.9926 71.6968 38.6891 66.6837 37.9023L64.9517 48.9355Z" fill="#D8E0FB"/>
<path fill-rule="evenodd" clip-rule="evenodd" d="M75.8352 65.3888C74.3857 71.2044 69.1216 75.5156 62.8598 75.5156C55.4802 75.5156 49.4884 69.5239 49.4884 62.1475C49.4884 58.8747 50.6642 55.8788 52.6159 53.5563L44.0631 46.375C40.4788 50.6422 38.3193 56.1431 38.3193 62.1475C38.3193 75.6919 49.3154 86.6873 62.8598 86.6873C74.3543 86.6873 84.0116 78.7633 86.6733 68.0889L75.8352 65.3888Z" fill="#A8BAF7"/>
<path fill-rule="evenodd" clip-rule="evenodd" d="M143.656 67.5227C143.656 66.2136 143.136 64.9549 142.209 64.0297C141.284 63.1045 140.027 62.582 138.718 62.582C129.26 62.582 108.693 62.582 99.2355 62.582C97.9258 62.582 96.6695 63.1045 95.7437 64.0297C94.8172 64.9549 94.2974 66.2136 94.2974 67.5227C94.2974 75.5914 94.2974 91.5024 94.2974 99.5711C94.2974 100.88 94.8172 102.133 95.7437 103.058C96.6695 103.983 97.9258 104.505 99.2355 104.505H138.718C140.027 104.505 141.284 103.983 142.209 103.058C143.136 102.133 143.656 100.88 143.656 99.5711C143.656 91.5024 143.656 75.5914 143.656 67.5227Z" fill="url(#paint4_linear_2974_421965)"/>
<path fill-rule="evenodd" clip-rule="evenodd" d="M108.056 85.7259C108.056 84.5489 107.096 83.5859 105.913 83.5859C104.908 83.5859 103.713 83.5859 102.708 83.5859C101.525 83.5859 100.566 84.5489 100.566 85.7259C100.566 88.363 100.566 92.8065 100.566 95.4373C100.566 96.6206 101.525 97.5772 102.708 97.5772C103.713 97.5772 104.908 97.5772 105.913 97.5772C107.096 97.5772 108.056 96.6206 108.056 95.4373C108.056 92.8065 108.056 88.363 108.056 85.7259Z" fill="#EBEFFF"/>
<path fill-rule="evenodd" clip-rule="evenodd" d="M121.791 70.8157C121.791 69.6388 120.832 68.6758 119.649 68.6758C118.643 68.6758 117.449 68.6758 116.444 68.6758C115.26 68.6758 114.301 69.6388 114.301 70.8157C114.301 76.1718 114.301 90.0812 114.301 95.4373C114.301 96.6206 115.26 97.5772 116.444 97.5772C117.449 97.5772 118.643 97.5772 119.649 97.5772C120.832 97.5772 121.791 96.6206 121.791 95.4373C121.791 90.0812 121.791 76.1718 121.791 70.8157Z" fill="white"/>
<path fill-rule="evenodd" clip-rule="evenodd" d="M135.527 77.9392C135.527 76.756 134.568 75.793 133.385 75.793C132.38 75.793 131.185 75.793 130.18 75.793C128.997 75.793 128.038 76.756 128.038 77.9392C128.038 82.1057 128.038 91.2634 128.038 95.4362C128.038 96.6194 128.997 97.576 130.18 97.576C131.185 97.576 132.38 97.576 133.385 97.576C134.568 97.576 135.527 96.6194 135.527 95.4362C135.527 91.2634 135.527 82.1057 135.527 77.9392Z" fill="#F5F7FF"/>
<defs>
<linearGradient id="paint0_linear_2974_421965" x1="27.7024" y1="12.786" x2="107.902" y2="147.59" gradientUnits="userSpaceOnUse">
<stop stop-color="#E5EBFF"/>
<stop offset="1" stop-color="#D1DBFC"/>
</linearGradient>
<linearGradient id="paint1_linear_2974_421965" x1="81.4287" y1="6.60096" x2="98.0011" y2="34.0243" gradientUnits="userSpaceOnUse">
<stop stop-color="#D2DCFE"/>
<stop offset="1" stop-color="#B1C2FC"/>
</linearGradient>
<linearGradient id="paint2_linear_2974_421965" x1="52.276" y1="29.9571" x2="94.7978" y2="158.113" gradientUnits="userSpaceOnUse">
<stop stop-color="#F5F7FF"/>
<stop offset="1" stop-color="#E1E8FD"/>
</linearGradient>
<linearGradient id="paint3_linear_2974_421965" x1="101.947" y1="15.0469" x2="111.43" y2="45.6532" gradientUnits="userSpaceOnUse">
<stop stop-color="#E3E9FE"/>
<stop offset="1" stop-color="#C7D4FD"/>
</linearGradient>
<linearGradient id="paint4_linear_2974_421965" x1="94.2974" y1="62.582" x2="150.579" y2="82.3602" gradientUnits="userSpaceOnUse">
<stop stop-color="#CCD8FE"/>
<stop offset="1" stop-color="#B1C3FF"/>
</linearGradient>
</defs>
</svg>
