<svg width="156" height="156" viewBox="0 0 156 156" fill="none" xmlns="http://www.w3.org/2000/svg">
<path fill-rule="evenodd" clip-rule="evenodd" d="M125.254 61.1252H17.6914V30.7413C17.6914 28.3107 18.6569 25.979 20.3761 24.2598C22.0945 22.5407 23.8761 21.7267 26.2724 21.317C36.7493 19.5256 105.645 10.212 121.847 8.02698C122.706 7.9112 123.573 8.17151 124.227 8.74198C124.879 9.31246 125.254 10.1376 125.254 11.0042C125.254 22.8305 125.254 61.1252 125.254 61.1252Z" fill="url(#paint0_linear_1834_288951)"/>
<path fill-rule="evenodd" clip-rule="evenodd" d="M138.309 98.9514C138.309 96.1299 137.035 93.4593 134.843 91.684C130.818 88.424 124.723 83.4883 124.723 83.4883V137.32H135.4C137.006 137.32 138.309 136.017 138.309 134.411V98.9514Z" fill="url(#paint1_linear_1834_288951)"/>
<path fill-rule="evenodd" clip-rule="evenodd" d="M138.309 122.666C138.309 119.845 137.035 117.174 134.843 115.399C130.818 112.139 124.723 107.203 124.723 107.203V137.319H135.4C136.171 137.319 136.911 137.012 137.457 136.466C138.003 135.921 138.309 135.181 138.309 134.41C138.309 131.286 138.309 126.286 138.309 122.666Z" fill="#DAE2FF"/>
<path fill-rule="evenodd" clip-rule="evenodd" d="M120.072 21.5742H26.8576C24.4262 21.5742 22.0945 22.5397 20.3761 24.2589C18.6569 25.978 17.6914 28.3097 17.6914 30.7404C17.6914 30.7411 17.6914 30.7418 17.6914 30.7425C17.6914 33.1732 18.6569 35.5049 20.3761 37.224C22.0945 38.9431 24.4262 39.9087 26.8576 39.9087C51.9787 39.9087 120.072 39.9087 120.072 39.9087V21.5742Z" fill="url(#paint2_linear_1834_288951)"/>
<path fill-rule="evenodd" clip-rule="evenodd" d="M129.12 42.913C129.12 42.1158 128.803 41.3517 128.24 40.7882C127.676 40.2248 126.912 39.9083 126.115 39.9083C111.655 39.9083 49.0176 39.9083 26.8576 39.9083C24.4262 39.9083 22.0945 38.9428 20.3761 37.2237C18.6569 35.5045 17.6914 33.1728 17.6914 30.7422V138.832C17.6914 141.263 18.6569 143.595 20.3761 145.314C22.0945 147.032 24.4262 147.999 26.8576 147.999C49.0176 147.999 111.655 147.999 126.115 147.999C126.912 147.999 127.676 147.681 128.24 147.118C128.803 146.554 129.12 145.79 129.12 144.994C129.12 129.466 129.12 58.4399 129.12 42.913Z" fill="url(#paint3_linear_1834_288951)"/>
<path fill-rule="evenodd" clip-rule="evenodd" d="M31.2775 147.999V39.9083H26.8576C24.4262 39.9083 22.0945 38.9428 20.3761 37.2237C18.6569 35.5045 17.6914 33.1728 17.6914 30.7422V138.832C17.6914 141.263 18.6569 143.595 20.3761 145.314C22.0945 147.032 24.4262 147.999 26.8576 147.999H31.2775Z" fill="url(#paint4_linear_1834_288951)"/>
<path fill-rule="evenodd" clip-rule="evenodd" d="M78.1431 32.5338C78.1431 32.5338 75.8269 32.4089 72.1837 32.2475C69.7067 32.138 66.6263 32.0033 63.2442 31.8854C61.9559 31.8412 60.6269 31.8006 59.2712 31.7711C57.3191 31.7283 55.3158 31.689 53.3111 31.6841C51.9814 31.6806 50.6524 31.6967 49.3381 31.7212C47.2941 31.7591 45.2908 31.8251 43.3787 31.8883C41.2469 31.9591 39.2366 32.0377 37.4185 32.1142C32.1081 32.3401 28.479 32.5338 28.479 32.5338H28.2783V32.9352H28.479C28.479 32.9352 32.1081 33.1295 37.4185 33.3548C39.2366 33.432 41.2469 33.5106 43.3787 33.5807C45.2908 33.6439 47.2941 33.7099 49.3381 33.7485C50.6524 33.773 51.9814 33.7891 53.3111 33.7856C55.3158 33.78 57.3191 33.7407 59.2712 33.6986C60.6269 33.6691 61.9559 33.6284 63.2442 33.5835C66.6263 33.4663 69.7067 33.3316 72.1837 33.2215C75.8269 33.0608 78.1431 32.9352 78.1431 32.9352H78.3438V32.5338H78.1431Z" fill="#E3E9FE"/>
<path fill-rule="evenodd" clip-rule="evenodd" d="M70.257 26.4331L119.92 27.3551H120.973V25.25H119.92L70.257 26.1727H70.1265V26.4331H70.257Z" fill="#E3E9FE"/>
<path fill-rule="evenodd" clip-rule="evenodd" d="M90.7794 29.6941L119.921 30.6168H120.973V28.5117H119.921L90.7794 29.4338H90.6489V29.6941H90.7794Z" fill="#E3E9FE"/>
<path fill-rule="evenodd" clip-rule="evenodd" d="M80.5136 35.3464L119.92 36.2691H120.973V34.1641H119.92L80.5136 35.0861H80.3838V35.3464H80.5136Z" fill="#E3E9FE"/>
<path fill-rule="evenodd" clip-rule="evenodd" d="M60.7119 32.8086H45.1597V56.7748L52.9358 48.9257L60.7119 56.7748V32.8086Z" fill="url(#paint5_linear_1834_288951)"/>
<path fill-rule="evenodd" clip-rule="evenodd" d="M77.0135 78.6602C62.0135 78.6602 49.8364 90.838 49.8364 105.837C49.8364 107.035 49.9136 108.215 50.0645 109.372C55.8464 118.19 61.1448 124.888 71.1839 132.386C73.0623 132.798 75.0123 133.014 77.0135 133.014C92.0128 133.014 104.19 120.837 104.19 105.837C104.19 90.838 92.0128 78.6602 77.0135 78.6602Z" fill="url(#paint6_linear_1834_288951)"/>
<path d="M76.3517 102.126C80.8653 102.126 84.5243 98.4674 84.5243 93.9538C84.5243 89.4402 80.8653 85.7812 76.3517 85.7812C71.8382 85.7812 68.1792 89.4402 68.1792 93.9538C68.1792 98.4674 71.8382 102.126 76.3517 102.126Z" fill="url(#paint7_linear_1834_288951)"/>
<path fill-rule="evenodd" clip-rule="evenodd" d="M76.3521 100.395C83.9465 100.395 90.1122 106.561 90.1122 114.155C90.1122 121.75 62.5913 121.75 62.5913 114.155C62.5913 106.561 68.757 100.395 76.3521 100.395Z" fill="url(#paint8_linear_1834_288951)"/>
<path fill-rule="evenodd" clip-rule="evenodd" d="M86.5425 111.666C82.9639 114.59 80.3438 118.75 80.6834 123.533C80.7094 123.888 80.9494 124.192 81.289 124.299C81.6293 124.406 81.9998 124.295 82.2251 124.02C85.2767 120.243 88.3199 118.187 90.7997 117.465C90.7997 117.465 91.7301 118.732 92.6079 119.929C92.89 120.313 93.3665 120.501 93.8345 120.412C94.3018 120.324 94.6772 119.975 94.7993 119.515C95.5662 116.634 96.8019 111.989 97.4306 109.625C97.5268 109.263 97.4538 108.877 97.2328 108.576C97.011 108.274 96.6644 108.089 96.2911 108.072C93.8471 107.964 89.0454 107.75 86.0668 107.618C85.5917 107.597 85.1462 107.851 84.9216 108.271C84.6971 108.691 84.7336 109.201 85.0157 109.585C85.7791 110.625 86.5425 111.666 86.5425 111.666Z" fill="url(#paint9_linear_1834_288951)"/>
<path fill-rule="evenodd" clip-rule="evenodd" d="M71.1876 132.388C71.2704 131.636 71.3125 130.873 71.3125 130.101C71.3125 118.653 62.0193 109.359 50.572 109.359C50.4022 109.359 50.2338 109.361 50.064 109.366L50.0647 109.373C55.8466 118.192 61.145 124.889 71.1841 132.387L71.1876 132.388Z" fill="url(#paint10_linear_1834_288951)"/>
<defs>
<linearGradient id="paint0_linear_1834_288951" x1="123.98" y1="6.30012" x2="121.274" y2="53.4341" gradientUnits="userSpaceOnUse">
<stop stop-color="#D4DEFF"/>
<stop offset="1" stop-color="#89A4FF"/>
</linearGradient>
<linearGradient id="paint1_linear_1834_288951" x1="130.048" y1="70.2292" x2="95.1709" y2="70.4468" gradientUnits="userSpaceOnUse">
<stop stop-color="#F3F6FF"/>
<stop offset="1" stop-color="#D7DFFC"/>
</linearGradient>
<linearGradient id="paint2_linear_1834_288951" x1="58.1592" y1="21.5742" x2="58.249" y2="41.2217" gradientUnits="userSpaceOnUse">
<stop stop-color="white"/>
<stop offset="1" stop-color="#ECF0FE"/>
</linearGradient>
<linearGradient id="paint3_linear_1834_288951" x1="34.2155" y1="38.051" x2="87.0713" y2="149.645" gradientUnits="userSpaceOnUse">
<stop stop-color="#D4DEFF"/>
<stop offset="1" stop-color="#C1CEFB"/>
</linearGradient>
<linearGradient id="paint4_linear_1834_288951" x1="20.6476" y1="30.7422" x2="20.6476" y2="155.082" gradientUnits="userSpaceOnUse">
<stop stop-color="#CBD7FF"/>
<stop offset="1" stop-color="#8FA8FF"/>
</linearGradient>
<linearGradient id="paint5_linear_1834_288951" x1="48.5439" y1="32.8086" x2="48.5439" y2="58.2221" gradientUnits="userSpaceOnUse">
<stop stop-color="#CBD7FF"/>
<stop offset="1" stop-color="#8FA8FF"/>
</linearGradient>
<linearGradient id="paint6_linear_1834_288951" x1="86.1586" y1="68.7593" x2="46.5633" y2="116.263" gradientUnits="userSpaceOnUse">
<stop stop-color="white"/>
<stop offset="1" stop-color="#ECF0FE"/>
</linearGradient>
<linearGradient id="paint7_linear_1834_288951" x1="70.4099" y1="88.0463" x2="83.1768" y2="119.853" gradientUnits="userSpaceOnUse">
<stop stop-color="#C4D1FE"/>
<stop offset="1" stop-color="#9AB1FF"/>
</linearGradient>
<linearGradient id="paint8_linear_1834_288951" x1="70.4102" y1="88.0448" x2="83.1772" y2="119.852" gradientUnits="userSpaceOnUse">
<stop stop-color="#C4D1FE"/>
<stop offset="1" stop-color="#9AB1FF"/>
</linearGradient>
<linearGradient id="paint9_linear_1834_288951" x1="84.7111" y1="107.185" x2="91.4877" y2="121.172" gradientUnits="userSpaceOnUse">
<stop stop-color="#D2DCFE"/>
<stop offset="1" stop-color="#A0B5FC"/>
</linearGradient>
<linearGradient id="paint10_linear_1834_288951" x1="65.8941" y1="105.838" x2="67.1123" y2="133.015" gradientUnits="userSpaceOnUse">
<stop stop-color="#F1F4FF"/>
<stop offset="1" stop-color="#C8D4FC"/>
</linearGradient>
</defs>
</svg>
