<svg width="156" height="156" viewBox="0 0 156 156" fill="none" xmlns="http://www.w3.org/2000/svg">
<path fill-rule="evenodd" clip-rule="evenodd" d="M109.013 52.2622C109.013 50.5697 108.341 48.9488 107.144 47.7509C105.948 46.5531 104.325 45.8796 102.633 45.8796C86.7802 45.8796 41.2619 45.8796 41.2619 45.8796L33.9716 38.6328H14.3803C10.8564 38.6328 8 41.4875 8 45.0155C8 62.0717 8 108.86 8 130.01C8 132.829 9.12039 135.535 11.1144 137.531C13.1091 139.528 15.8135 140.642 18.6342 140.642C44.5784 140.642 109.013 140.642 109.013 140.642V52.2622Z" fill="url(#paint0_linear_2974_421963)"/>
<path fill-rule="evenodd" clip-rule="evenodd" d="M111.834 47.1692C111.795 46.6924 111.569 46.2514 111.205 45.9475C110.841 45.6376 110.37 45.4886 109.896 45.5303C97.7794 46.5971 27.9266 52.7294 15.874 53.7843C14.8943 53.8736 14.1678 54.7318 14.2483 55.7092C15.1202 66.329 19.6428 121.437 20.5189 132.116C20.5582 132.587 20.7847 133.028 21.1482 133.338C21.5123 133.642 21.9831 133.791 22.4575 133.749C34.5738 132.688 104.427 126.556 116.479 125.501C117.459 125.412 118.185 124.554 118.105 123.57C117.233 112.95 112.71 57.8427 111.834 47.1692Z" fill="#C4D1FD"/>
<path fill-rule="evenodd" clip-rule="evenodd" d="M119.762 51.3035C119.762 50.3142 118.961 49.5156 117.974 49.5156C105.843 49.5156 35.7218 49.5156 23.5906 49.5156C22.6031 49.5156 21.8027 50.3142 21.8027 51.3035C21.8027 61.983 21.8027 117.293 21.8027 127.979C21.8027 128.968 22.6031 129.767 23.5906 129.767C35.7218 129.767 105.843 129.767 117.974 129.767C118.961 129.767 119.762 128.968 119.762 127.979C119.762 117.293 119.762 61.983 119.762 51.3035Z" fill="url(#paint1_linear_2974_421963)"/>
<path fill-rule="evenodd" clip-rule="evenodd" d="M79.8252 65.9502C79.8252 64.7642 78.8657 63.8047 77.6821 63.8047C70.787 63.8047 39.3195 63.8047 32.4243 63.8047C31.2407 63.8047 30.2812 64.7642 30.2812 65.9502C30.2812 67.1302 31.2407 68.0896 32.4243 68.0896C39.3195 68.0896 70.787 68.0896 77.6821 68.0896C78.8657 68.0896 79.8252 67.1302 79.8252 65.9502Z" fill="url(#paint2_linear_2974_421963)"/>
<path fill-rule="evenodd" clip-rule="evenodd" d="M92.6445 75.3095C92.6445 74.1235 91.6844 73.1641 90.5009 73.1641C85.6677 73.1641 64.0579 73.1641 59.2247 73.1641C58.0411 73.1641 57.0811 74.1235 57.0811 75.3095C57.0811 76.4954 58.0411 77.4549 59.2247 77.4549C64.0579 77.4549 85.6677 77.4549 90.5009 77.4549C91.6844 77.4549 92.6445 76.4954 92.6445 75.3095Z" fill="url(#paint3_linear_2974_421963)"/>
<path fill-rule="evenodd" clip-rule="evenodd" d="M103.871 84.6668C103.871 83.4868 102.912 82.5273 101.728 82.5273C93.5923 82.5273 54.7624 82.5273 46.6264 82.5273C45.4429 82.5273 44.4834 83.4868 44.4834 84.6668C44.4834 85.8527 45.4429 86.8123 46.6264 86.8123C54.7624 86.8123 93.5923 86.8123 101.728 86.8123C102.912 86.8123 103.871 85.8527 103.871 84.6668Z" fill="#C4D1FD"/>
<path fill-rule="evenodd" clip-rule="evenodd" d="M106.934 84.4795L108.722 86.0885C108.957 86.303 109.318 86.2912 109.542 86.0647L112.521 83.0849C112.754 82.8525 112.754 82.4771 112.521 82.2446C112.289 82.0122 111.911 82.0122 111.679 82.2446L109.098 84.8251L107.731 83.5915C107.486 83.371 107.11 83.3948 106.889 83.6391C106.669 83.8835 106.689 84.2589 106.934 84.4795Z" fill="#9AB0FC"/>
<path fill-rule="evenodd" clip-rule="evenodd" d="M91.0207 55.5769C91.0207 54.8498 90.4283 54.2539 89.6971 54.2539C84.6702 54.2539 56.894 54.2539 51.8672 54.2539C51.1359 54.2539 50.543 54.8498 50.543 55.5769C50.543 56.3099 51.1359 56.9059 51.8672 56.9059C56.894 56.9059 84.6702 56.9059 89.6971 56.9059C90.4283 56.9059 91.0207 56.3099 91.0207 55.5769Z" fill="#C4D1FD"/>
<path fill-rule="evenodd" clip-rule="evenodd" d="M29.5121 130.011C29.5121 124.421 29.5121 100.267 29.5121 100.267C29.5121 96.7453 32.3685 93.8906 35.8924 93.8906C54.0677 93.8906 105.97 93.8906 124.145 93.8906C127.669 93.8906 130.525 96.7453 130.525 100.267C130.525 107.3 130.525 121.626 130.525 130.011C130.525 132.83 129.405 135.536 127.411 137.532C125.416 139.529 122.712 140.643 119.891 140.643H18.8779C21.6986 140.643 24.403 139.529 26.3977 137.532C28.3917 135.536 29.5121 132.83 29.5121 130.011Z" fill="url(#paint4_linear_2974_421963)"/>
<path fill-rule="evenodd" clip-rule="evenodd" d="M79.3867 100.582C88.5959 100.582 96.0727 108.055 96.0727 117.269C96.0727 118.002 96.0251 118.729 95.9327 119.438C92.3826 124.849 89.1293 128.961 82.9659 133.568C81.8128 133.818 80.6155 133.955 79.3867 133.955C70.1774 133.955 62.7012 126.476 62.7012 117.269C62.7012 108.055 70.1774 100.582 79.3867 100.582Z" fill="url(#paint5_linear_2974_421963)"/>
<path fill-rule="evenodd" clip-rule="evenodd" d="M82.9636 133.57C82.9129 133.111 82.8867 132.64 82.8867 132.163C82.8867 125.137 88.593 119.434 95.6216 119.434C95.7253 119.434 95.829 119.434 95.9333 119.434L95.9327 119.44C92.3826 124.851 89.1293 128.963 82.966 133.57H82.9636Z" fill="url(#paint6_linear_2974_421963)"/>
<path d="M79.3862 115.313C81.6592 115.313 83.5018 113.471 83.5018 111.198C83.5018 108.925 81.6592 107.082 79.3862 107.082C77.1131 107.082 75.2705 108.925 75.2705 111.198C75.2705 113.471 77.1131 115.313 79.3862 115.313Z" fill="url(#paint7_linear_2974_421963)"/>
<path fill-rule="evenodd" clip-rule="evenodd" d="M79.3868 114.441C83.2116 114.441 86.3171 117.546 86.3171 121.372C86.3171 125.198 72.457 125.198 72.457 121.372C72.457 117.546 75.5625 114.441 79.3868 114.441Z" fill="url(#paint8_linear_2974_421963)"/>
<g filter="url(#filter0_f_2974_421963)">
<path fill-rule="evenodd" clip-rule="evenodd" d="M103.674 63.2788C104.226 62.0035 103.968 60.5196 103.018 59.5005C100.348 56.6161 98.3276 53.1239 97.1881 49.2502C97.0212 48.684 95.8246 44.9116 97.7721 46.467C102.404 50.1619 116.148 62.2121 120.095 66.8248C121.277 68.2015 118.25 67.5816 118.02 67.5459C116.084 67.236 114.099 67.4804 112.298 68.2611C109.889 69.2563 105.31 72.379 102.553 73.571C101.8 73.8928 100.925 73.7259 100.345 73.1479C99.7656 72.5638 99.5981 71.6878 99.9229 70.9369C100.807 68.8868 102.966 64.9237 103.674 63.2788Z" fill="#CED9FF"/>
</g>
<path fill-rule="evenodd" clip-rule="evenodd" d="M103.674 63.2769C104.225 62.0016 103.968 60.5177 103.018 59.4986C98.745 54.8859 96.1377 48.7059 96.1377 41.9299C96.1377 27.6151 107.757 16 122.069 16C136.381 16 148 27.6151 148 41.9299C148 56.2387 136.381 67.8598 122.069 67.8598C120.692 67.8598 119.339 67.7525 118.02 67.5439C116.084 67.234 114.099 67.4784 112.298 68.2591C109.889 69.2544 106.47 70.7263 103.713 71.9182C102.96 72.24 102.085 72.0732 101.506 71.4951C100.926 70.917 100.759 70.041 101.084 69.2901C101.967 67.24 102.966 64.9217 103.674 63.2769Z" fill="url(#paint9_linear_2974_421963)"/>
<path fill-rule="evenodd" clip-rule="evenodd" d="M122.069 51.0958C123.096 51.0958 123.93 51.9301 123.93 52.9552C123.93 53.9862 123.096 54.8205 122.069 54.8205C121.041 54.8205 120.207 53.9862 120.207 52.9552C120.207 51.9301 121.041 51.0958 122.069 51.0958ZM122.069 31.0837C119.091 31.0837 116.86 33.3126 116.86 35.8513C116.86 36.7155 116.16 37.4127 115.297 37.4127C114.434 37.4127 113.735 36.7155 113.735 35.8513C113.735 31.3936 117.567 27.9609 122.069 27.9609C126.57 27.9609 130.402 31.3936 130.402 35.8513C130.402 39.7489 128.263 41.9121 126.478 43.4616C126.241 43.6642 126.02 43.855 125.813 44.0278C125.198 44.5522 124.707 44.9694 124.304 45.4283C123.821 45.9825 123.631 46.4295 123.631 46.9301V47.2042C123.631 48.0683 122.931 48.7656 122.069 48.7656C121.206 48.7656 120.506 48.0683 120.506 47.2042V46.9301C120.506 45.4223 121.162 44.2781 121.949 43.3782C122.523 42.7167 123.263 42.0909 123.92 41.5367C124.097 41.3877 124.269 41.2387 124.43 41.1016C126.029 39.7131 127.277 38.3484 127.277 35.8513C127.277 33.3126 125.045 31.0837 122.069 31.0837Z" fill="#7F9CFB"/>
<defs>
<filter id="filter0_f_2974_421963" x="86.4814" y="35.9033" width="44.0772" height="48.0196" filterUnits="userSpaceOnUse" color-interpolation-filters="sRGB">
<feFlood flood-opacity="0" result="BackgroundImageFix"/>
<feBlend mode="normal" in="SourceGraphic" in2="BackgroundImageFix" result="shape"/>
<feGaussianBlur stdDeviation="5.09524" result="effect1_foregroundBlur_2974_421963"/>
</filter>
<linearGradient id="paint0_linear_2974_421963" x1="12.7406" y1="39.3241" x2="24.1875" y2="134.043" gradientUnits="userSpaceOnUse">
<stop stop-color="#B8C8FE"/>
<stop offset="1" stop-color="#87A2FB"/>
</linearGradient>
<linearGradient id="paint1_linear_2974_421963" x1="31.6239" y1="51.5538" x2="116.095" y2="142.255" gradientUnits="userSpaceOnUse">
<stop stop-color="#F9FBFF"/>
<stop offset="1" stop-color="#E1E8FD"/>
</linearGradient>
<linearGradient id="paint2_linear_2974_421963" x1="40.1885" y1="80.2233" x2="92.6444" y2="80.2233" gradientUnits="userSpaceOnUse">
<stop stop-color="#B8C8FE"/>
<stop offset="1" stop-color="#87A2FB"/>
</linearGradient>
<linearGradient id="paint3_linear_2974_421963" x1="40.1883" y1="80.2261" x2="92.6442" y2="80.2261" gradientUnits="userSpaceOnUse">
<stop stop-color="#B8C8FE"/>
<stop offset="1" stop-color="#87A2FB"/>
</linearGradient>
<linearGradient id="paint4_linear_2974_421963" x1="59.1983" y1="97.8716" x2="61.8553" y2="133.621" gradientUnits="userSpaceOnUse">
<stop stop-color="#CFDAFE"/>
<stop offset="1" stop-color="#B4C4FD"/>
</linearGradient>
<linearGradient id="paint5_linear_2974_421963" x1="70.9664" y1="102.859" x2="83.3637" y2="133.265" gradientUnits="userSpaceOnUse">
<stop stop-color="#F1F4FF"/>
<stop offset="1" stop-color="#C9D5FB"/>
</linearGradient>
<linearGradient id="paint6_linear_2974_421963" x1="86.2139" y1="117.27" x2="90.1593" y2="129.405" gradientUnits="userSpaceOnUse">
<stop stop-color="#C7D3FE"/>
<stop offset="1" stop-color="#98ACF0"/>
</linearGradient>
<linearGradient id="paint7_linear_2974_421963" x1="76.3945" y1="109.094" x2="82.8239" y2="125.112" gradientUnits="userSpaceOnUse">
<stop stop-color="#A5B9FD"/>
<stop offset="1" stop-color="#7C99FB"/>
</linearGradient>
<linearGradient id="paint8_linear_2974_421963" x1="76.3951" y1="108.226" x2="82.8245" y2="124.243" gradientUnits="userSpaceOnUse">
<stop stop-color="#A5B9FD"/>
<stop offset="1" stop-color="#7C99FB"/>
</linearGradient>
<linearGradient id="paint9_linear_2974_421963" x1="101.754" y1="10.398" x2="133.684" y2="74.3575" gradientUnits="userSpaceOnUse">
<stop stop-color="white"/>
<stop offset="1" stop-color="#CBD5F6"/>
</linearGradient>
</defs>
</svg>
