<svg width="156" height="156" viewBox="0 0 156 156" fill="none" xmlns="http://www.w3.org/2000/svg">
<path fill-rule="evenodd" clip-rule="evenodd" d="M148 109.548C148 107.829 147.317 106.178 146.101 104.961C144.886 103.744 143.236 103.062 141.517 103.062C121.778 103.062 62.5698 103.062 42.832 103.062C39.2506 103.062 36.3483 105.964 36.3483 109.548C36.3483 113.565 36.3483 117.96 36.3483 117.96C36.3483 119.577 35.0619 121.071 32.9631 121.899C32.0384 122.265 31.2856 122.558 31.2856 122.558H141.517C143.236 122.558 144.886 121.876 146.101 120.659C147.317 119.442 148 117.797 148 116.073C148 113.977 148 111.644 148 109.548Z" fill="url(#paint0_linear_2974_421966)"/>
<path fill-rule="evenodd" clip-rule="evenodd" d="M148 84.208C148 82.4895 147.317 80.8386 146.101 79.6215C144.885 78.4044 143.236 77.7227 141.516 77.7227C121.778 77.7227 62.5697 77.7227 42.8318 77.7227C41.1122 77.7227 39.4629 78.4044 38.247 79.6215C37.0311 80.8386 36.3481 82.4895 36.3481 84.208C36.3481 86.3097 36.3481 88.6368 36.3481 90.7385C36.3481 94.3164 39.2505 97.2182 42.8313 97.2182H141.516C143.236 97.2182 144.885 96.5364 146.101 95.3193C147.317 94.1023 148 92.457 148 90.7385C148 88.6368 148 86.3097 148 84.208Z" fill="url(#paint1_linear_2974_421966)"/>
<path fill-rule="evenodd" clip-rule="evenodd" d="M148 40.4797C148 38.7612 147.317 37.1103 146.101 35.8988C144.885 34.6818 143.236 34 141.516 34H42.8318C41.1122 34 39.4629 34.6818 38.247 35.8988C37.0311 37.1103 36.3481 38.7612 36.3481 40.4797V65.4013C36.3481 67.1199 37.0311 68.7708 38.247 69.9822C39.4629 71.1993 41.1122 71.8811 42.8313 71.8811C62.5697 71.8811 121.778 71.8811 141.516 71.8811C143.236 71.8811 144.885 71.1993 146.101 69.9822C147.317 68.7708 148 67.1199 148 65.4013V40.4797Z" fill="url(#paint2_linear_2974_421966)"/>
<path d="M17.7478 122.558C23.1313 122.558 27.4955 118.194 27.4955 112.81C27.4955 107.427 23.1313 103.062 17.7478 103.062C12.3642 103.062 8 107.427 8 112.81C8 118.194 12.3642 122.558 17.7478 122.558Z" fill="url(#paint3_linear_2974_421966)"/>
<path fill-rule="evenodd" clip-rule="evenodd" d="M14.2358 42.5265H10.2894C9.77494 42.5265 9.35742 42.9435 9.35742 43.4562C9.35742 43.9746 9.77494 44.3915 10.2894 44.3915H13.8859L13.1867 48.1216H10.2894C9.77494 48.1216 9.35742 48.5385 9.35742 49.0513C9.35742 49.5697 9.77494 49.9866 10.2894 49.9866H12.8373L12.1702 53.542C12.0755 54.0491 12.4091 54.5337 12.9145 54.6295C13.4205 54.7253 13.9079 54.3928 14.0025 53.8857L14.7345 49.9866H19.3633L18.6961 53.542C18.6015 54.0491 18.935 54.5337 19.4405 54.6295C19.9464 54.7253 20.4338 54.3928 20.529 53.8857L21.2604 49.9866H25.2063C25.7207 49.9866 26.1382 49.5697 26.1382 49.0513C26.1382 48.5385 25.7207 48.1216 25.2063 48.1216H21.6098L22.309 44.3915H25.2063C25.7207 44.3915 26.1382 43.9746 26.1382 43.4562C26.1382 42.9435 25.7207 42.5265 25.2063 42.5265H22.6589L23.3255 38.9711C23.4207 38.464 23.0871 37.9738 22.5811 37.8836C22.0752 37.7878 21.5878 38.1203 21.4931 38.6274L20.7618 42.5265H16.1324L16.7995 38.9711C16.8942 38.464 16.5606 37.9738 16.0552 37.8836C15.5492 37.7878 15.0618 38.1203 14.9672 38.6274L14.2358 42.5265ZM15.7831 44.3915L15.0838 48.1216H19.7126L20.4118 44.3915H15.7831Z" fill="#8BA5FB"/>
<path d="M17.7478 112.584C19.2284 112.584 20.4287 111.384 20.4287 109.904C20.4287 108.423 19.2284 107.223 17.7478 107.223C16.2672 107.223 15.0669 108.423 15.0669 109.904C15.0669 111.384 16.2672 112.584 17.7478 112.584Z" fill="url(#paint4_linear_2974_421966)"/>
<path fill-rule="evenodd" clip-rule="evenodd" d="M17.7477 112.016C20.2393 112.016 22.2616 114.038 22.2616 116.529C22.2616 119.019 13.2339 119.019 13.2339 116.529C13.2339 114.038 15.2567 112.016 17.7477 112.016Z" fill="url(#paint5_linear_2974_421966)"/>
<path fill-rule="evenodd" clip-rule="evenodd" d="M16.7222 97.8279V99.3435C16.7222 99.9126 17.1819 100.369 17.7477 100.369C18.3139 100.369 18.7731 99.9126 18.7731 99.3435V97.8279C18.7731 97.2588 18.3139 96.8023 17.7477 96.8023C17.1819 96.8023 16.7222 97.2588 16.7222 97.8279ZM16.7222 90.0352V92.0862C16.7222 92.6497 17.1819 93.1118 17.7477 93.1118C18.3139 93.1118 18.7731 92.6497 18.7731 92.0862V90.0352C18.7731 89.4662 18.3139 89.0098 17.7477 89.0098C17.1819 89.0098 16.7222 89.4662 16.7222 90.0352ZM16.7222 82.237V84.288C16.7222 84.8571 17.1819 85.3135 17.7477 85.3135C18.3139 85.3135 18.7731 84.8571 18.7731 84.288V82.237C18.7731 81.6736 18.3139 81.2115 17.7477 81.2115C17.1819 81.2115 16.7222 81.6736 16.7222 82.237ZM16.7222 74.4445V76.4954C16.7222 77.0645 17.1819 77.5209 17.7477 77.5209C18.3139 77.5209 18.7731 77.0645 18.7731 76.4954V74.4445C18.7731 73.881 18.3139 73.419 17.7477 73.419C17.1819 73.419 16.7222 73.881 16.7222 74.4445ZM16.7222 66.6519V68.7028C16.7222 69.2663 17.1819 69.7284 17.7477 69.7284C18.3139 69.7284 18.7731 69.2663 18.7731 68.7028V66.6519C18.7731 66.0828 18.3139 65.6264 17.7477 65.6264C17.1819 65.6264 16.7222 66.0828 16.7222 66.6519ZM16.7222 58.8593V60.9046C16.7222 61.4737 17.1819 61.9301 17.7477 61.9301C18.3139 61.9301 18.7731 61.4737 18.7731 60.9046V58.8593C18.7731 58.2902 18.3139 57.8281 17.7477 57.8281C17.1819 57.8281 16.7222 58.2902 16.7222 58.8593Z" fill="#A3B8FF"/>
<path fill-rule="evenodd" clip-rule="evenodd" d="M137.65 43.1463C137.65 42.6505 137.453 42.1772 137.104 41.8279C136.755 41.4785 136.28 41.2812 135.786 41.2812C123.738 41.2812 56.9914 41.2812 44.943 41.2812C44.4489 41.2812 43.975 41.4785 43.6251 41.8279C43.2757 42.1772 43.0791 42.6505 43.0791 43.1463C43.0791 43.6422 43.2757 44.1154 43.6251 44.4648C43.975 44.8141 44.4489 45.0113 44.943 45.0113C56.9914 45.0113 123.738 45.0113 135.786 45.0113C136.28 45.0113 136.755 44.8141 137.104 44.4648C137.453 44.1154 137.65 43.6422 137.65 43.1463Z" fill="#8BA5FB" fill-opacity="0.4"/>
<path fill-rule="evenodd" clip-rule="evenodd" d="M137.65 52.9376C137.65 52.4473 137.453 51.9741 137.104 51.6191C136.755 51.2697 136.28 51.0781 135.786 51.0781C123.738 51.0781 56.9914 51.0781 44.943 51.0781C44.4489 51.0781 43.975 51.2697 43.6251 51.6191C43.2757 51.9741 43.0791 52.4473 43.0791 52.9376V52.9432C43.0791 53.4334 43.2757 53.9067 43.6251 54.2617C43.975 54.6054 44.4489 54.8026 44.943 54.8026C56.9914 54.8026 123.738 54.8026 135.786 54.8026C136.28 54.8026 136.755 54.6054 137.104 54.2617C137.453 53.9067 137.65 53.4334 137.65 52.9432V52.9376Z" fill="#8BA5FB" fill-opacity="0.4"/>
<path fill-rule="evenodd" clip-rule="evenodd" d="M109.933 62.7362C109.933 62.2403 109.737 61.767 109.387 61.4177C109.038 61.0684 108.564 60.8711 108.069 60.8711C98.456 60.8711 54.5567 60.8711 44.943 60.8711C44.4489 60.8711 43.975 61.0684 43.6251 61.4177C43.2757 61.767 43.0791 62.2403 43.0791 62.7362C43.0791 63.232 43.2757 63.7053 43.6251 64.0546C43.975 64.404 44.4489 64.6012 44.943 64.6012C54.5567 64.6012 98.456 64.6012 108.069 64.6012C108.564 64.6012 109.038 64.404 109.387 64.0546C109.737 63.7053 109.933 63.232 109.933 62.7362Z" fill="#8BA5FB" fill-opacity="0.4"/>
<path fill-rule="evenodd" clip-rule="evenodd" d="M133.088 87.4705C133.088 86.9747 132.891 86.5013 132.542 86.152C132.192 85.8027 131.718 85.6055 131.224 85.6055C119.55 85.6055 56.6178 85.6055 44.943 85.6055C44.4489 85.6055 43.975 85.8027 43.6251 86.152C43.2757 86.5013 43.0791 86.9747 43.0791 87.4705C43.0791 87.9664 43.2757 88.4397 43.6251 88.789C43.975 89.1383 44.4489 89.3355 44.943 89.3355C56.6178 89.3355 119.55 89.3355 131.224 89.3355C131.718 89.3355 132.192 89.1383 132.542 88.789C132.891 88.4397 133.088 87.9664 133.088 87.4705Z" fill="#8BA5FB" fill-opacity="0.5"/>
<path fill-rule="evenodd" clip-rule="evenodd" d="M104.313 113.08C104.313 112.049 103.478 111.215 102.449 111.215C93.3866 111.215 54.0051 111.215 44.943 111.215C43.9136 111.215 43.0791 112.049 43.0791 113.08C43.0791 114.105 43.9136 114.945 44.943 114.945C54.0051 114.945 93.3866 114.945 102.449 114.945C103.478 114.945 104.313 114.105 104.313 113.08Z" fill="#8BA5FB" fill-opacity="0.8"/>
<defs>
<linearGradient id="paint0_linear_2974_421966" x1="36.3481" y1="103.063" x2="144.361" y2="128.4" gradientUnits="userSpaceOnUse">
<stop stop-color="#CBD7FF"/>
<stop offset="1" stop-color="#B4C5FF"/>
</linearGradient>
<linearGradient id="paint1_linear_2974_421966" x1="36.3479" y1="77.7227" x2="148" y2="97.2182" gradientUnits="userSpaceOnUse">
<stop stop-color="#D7E0FF"/>
<stop offset="1" stop-color="#C2CFFD"/>
</linearGradient>
<linearGradient id="paint2_linear_2974_421966" x1="48.4386" y1="30.2136" x2="49.2528" y2="83.0086" gradientUnits="userSpaceOnUse">
<stop stop-color="white"/>
<stop offset="1" stop-color="#D4DDFC"/>
</linearGradient>
<linearGradient id="paint3_linear_2974_421966" x1="12.8285" y1="104.392" x2="20.0709" y2="122.156" gradientUnits="userSpaceOnUse">
<stop stop-color="#F1F4FF"/>
<stop offset="1" stop-color="#C9D5FB"/>
</linearGradient>
<linearGradient id="paint4_linear_2974_421966" x1="15.7989" y1="108.534" x2="19.9868" y2="118.968" gradientUnits="userSpaceOnUse">
<stop stop-color="#A5B9FD"/>
<stop offset="1" stop-color="#7C99FB"/>
</linearGradient>
<linearGradient id="paint5_linear_2974_421966" x1="15.7988" y1="107.964" x2="19.9868" y2="118.398" gradientUnits="userSpaceOnUse">
<stop stop-color="#A5B9FD"/>
<stop offset="1" stop-color="#7C99FB"/>
</linearGradient>
</defs>
</svg>
