<svg width="32" height="32" viewBox="0 0 32 32" fill="none" xmlns="http://www.w3.org/2000/svg">
<path d="M5.71436 26.2849C5.71436 27.5472 6.73771 28.5706 8.00007 28.5706L17.7228 28.5706C18.6321 28.5706 19.5042 28.2094 20.1471 27.5664L25.2816 22.4319C25.9246 21.789 26.2858 20.9169 26.2858 20.0076L26.2858 5.71345C26.2858 4.45108 25.2624 3.42773 24.0001 3.42773L8.00007 3.42774C6.7377 3.42774 5.71436 4.45109 5.71436 5.71345L5.71436 26.2849Z" fill="#2EAAF0"/>
<path d="M4.57129 7.71456C4.57129 7.24118 4.95504 6.85742 5.42843 6.85742H7.71415C8.18753 6.85742 8.57129 7.24118 8.57129 7.71456C8.57129 8.18795 8.18753 8.57171 7.71415 8.57171H5.42843C4.95505 8.57171 4.57129 8.18795 4.57129 7.71456Z" fill="#B8EBF6"/>
<path d="M4.57129 11.7146C4.57129 11.2412 4.95504 10.8574 5.42843 10.8574H7.71415C8.18753 10.8574 8.57129 11.2412 8.57129 11.7146C8.57129 12.188 8.18753 12.5717 7.71415 12.5717H5.42843C4.95505 12.5717 4.57129 12.188 4.57129 11.7146Z" fill="#B8EBF6"/>
<path d="M4.57129 15.7146C4.57129 15.2412 4.95504 14.8574 5.42843 14.8574H7.71415C8.18753 14.8574 8.57129 15.2412 8.57129 15.7146C8.57129 16.188 8.18753 16.5717 7.71415 16.5717H5.42843C4.95505 16.5717 4.57129 16.188 4.57129 15.7146Z" fill="#B8EBF6"/>
<path d="M4.57129 19.7146C4.57129 19.2412 4.95504 18.8574 5.42843 18.8574H7.71415C8.18753 18.8574 8.57129 19.2412 8.57129 19.7146C8.57129 20.188 8.18753 20.5717 7.71415 20.5717H5.42843C4.95505 20.5717 4.57129 20.188 4.57129 19.7146Z" fill="#B8EBF6"/>
<path d="M4.57129 23.7146C4.57129 23.2412 4.95504 22.8574 5.42843 22.8574H7.71415C8.18753 22.8574 8.57129 23.2412 8.57129 23.7146C8.57129 24.188 8.18753 24.5717 7.71415 24.5717H5.42843C4.95505 24.5717 4.57129 24.188 4.57129 23.7146Z" fill="#B8EBF6"/>
<path d="M18.3449 28.4663C19.0497 28.3489 19.7003 28.0141 20.2056 27.5088L25.2231 22.4912C25.7284 21.9859 26.0632 21.3354 26.1807 20.6305L26.2858 20L26.1051 20.5421C25.8717 21.2421 25.2166 21.7143 24.4788 21.7143L21.1429 21.7143C20.1962 21.7143 19.4286 22.4818 19.4286 23.4286L19.4286 26.7644C19.4286 27.5023 18.9565 28.1574 18.2565 28.3907L17.7144 28.5714L18.3449 28.4663Z" fill="#B8EBF6"/>
<path d="M11.4287 3.42773H17.7144V9.60606C17.7144 10.3952 16.8433 10.8734 16.1776 10.4497L14.5716 9.42773L12.9656 10.4497C12.2999 10.8734 11.4287 10.3952 11.4287 9.60606V3.42773Z" fill="#B8EBF6"/>
</svg>
