<?xml version="1.0" encoding="utf-8"?>
<!-- Generator: Adobe Illustrator 26.5.0, SVG Export Plug-In . SVG Version: 6.00 Build 0)  -->
<svg version="1.1" id="Layer_1" xmlns="http://www.w3.org/2000/svg" xmlns:xlink="http://www.w3.org/1999/xlink" x="0px" y="0px"
	 viewBox="0 0 84 61" style="enable-background:new 0 0 84 61;" xml:space="preserve">
<style type="text/css">
	.st0{clip-path:url(#SVGID_00000000926248976414276200000013580740516449676937_);}
	.st1{fill:#ECF1FF;}
	.st2{fill:#CFDDFF;}
	.st3{fill:#FFFFFF;}
	.st4{fill:#767BFF;}
	.st5{fill:#B8CCFF;}
	.st6{fill:none;stroke:#E5EBF5;stroke-width:0.5;}
</style>
<g>
	<defs>
		<path id="SVGID_1_" d="M4.5,0.4h75.1c2.2,0,4,1.8,4,4v52.4c0,2.2-1.8,4-4,4H4.5c-2.2,0-4-1.8-4-4V4.3C0.5,2.1,2.3,0.4,4.5,0.4z"/>
	</defs>
	<clipPath id="SVGID_00000113344741736552601440000018113550091790083244_">
		<use xlink:href="#SVGID_1_"  style="overflow:visible;"/>
	</clipPath>
	<g style="clip-path:url(#SVGID_00000113344741736552601440000018113550091790083244_);">
		<path class="st1" d="M4.5,0.4h75.1c2.2,0,4,1.8,4,4v52.4c0,2.2-1.8,4-4,4H4.5c-2.2,0-4-1.8-4-4V4.3C0.5,2.1,2.3,0.4,4.5,0.4z"/>
		<path class="st2" d="M0.5,4.3c0-2.2,1.8-4,4-4h7.1v60.3H4.5c-2.2,0-4-1.8-4-4V4.3z"/>
		<g>
			<path class="st3" d="M37.8,0.4h41.7c2.2,0,4,1.8,4,4v52.4c0,2.2-1.8,4-4,4H37.8V0.4z"/>
		</g>
		<path class="st1" d="M41.6,10h38.1c0.5,0,1,0.4,1,1v39.1c0,0.5-0.4,1-1,1H41.6c-0.5,0-1-0.4-1-1V10.9C40.6,10.4,41.1,10,41.6,10z"
			/>
		<path class="st1" d="M55.4,3.1h24.3c0.5,0,1,0.4,1,1v2.1c0,0.5-0.4,1-1,1H55.4c-0.5,0-1-0.4-1-1V4.1C54.5,3.5,54.9,3.1,55.4,3.1z"
			/>
		<path class="st4" d="M70.7,53.8h9.1c0.5,0,1,0.4,1,1v2.1c0,0.5-0.4,1-1,1h-9.1c-0.5,0-1-0.4-1-1v-2.1
			C69.7,54.2,70.1,53.8,70.7,53.8z"/>
		<path class="st5" d="M41.6,3.1h9.1c0.5,0,1,0.4,1,1v2.1c0,0.5-0.4,1-1,1h-9.1c-0.5,0-1-0.4-1-1V4.1C40.6,3.5,41.1,3.1,41.6,3.1z"
			/>
		<path class="st1" d="M41.6,53.8h24.3c0.5,0,1,0.4,1,1v2.1c0,0.5-0.4,1-1,1H41.6c-0.5,0-1-0.4-1-1v-2.1
			C40.6,54.2,41.1,53.8,41.6,53.8z"/>
	</g>
</g>
<path class="st6" d="M4.5,0.6h75.1c2,0,3.7,1.7,3.7,3.7v52.4c0,2-1.7,3.7-3.7,3.7H4.5c-2,0-3.7-1.7-3.7-3.7V4.3
	C0.7,2.3,2.4,0.6,4.5,0.6z"/>
</svg>
