<svg width="32" height="32" viewBox="0 0 32 32" fill="none" xmlns="http://www.w3.org/2000/svg">
<path d="M5.71436 5.71345C5.71436 4.45108 6.7377 3.42773 8.00007 3.42773H17.7228C18.6321 3.42773 19.5042 3.78896 20.1471 4.43194L25.2816 9.56639C25.9246 10.2094 26.2858 11.0814 26.2858 11.9908V26.2849C26.2858 27.5472 25.2624 28.5706 24.0001 28.5706H8.00007C6.7377 28.5706 5.71436 27.5472 5.71436 26.2849V5.71345Z" fill="#F96464"/>
<path fill-rule="evenodd" clip-rule="evenodd" d="M15.6771 13.2893C15.6612 13.2858 15.6129 13.2801 15.5146 13.3012C15.4113 13.3235 15.3787 13.3569 15.3644 13.3741C15.3434 13.3992 15.3048 13.4627 15.2843 13.6058C15.2401 13.914 15.3059 14.4 15.507 15.0366C15.544 15.1538 15.5847 15.2733 15.6285 15.3944C15.6917 15.1059 15.7398 14.8302 15.7703 14.5736C15.847 13.929 15.7964 13.5297 15.7109 13.3459C15.6955 13.313 15.6836 13.2965 15.6771 13.2893ZM15.6833 13.291C15.6833 13.291 15.6827 13.2909 15.6816 13.2904C15.6828 13.2908 15.6833 13.291 15.6833 13.291ZM15.6749 13.2869C15.6728 13.2855 15.6718 13.2845 15.6718 13.2844C15.6719 13.2842 15.6729 13.2849 15.6749 13.2869ZM16.5426 17.3948C16.8594 16.4703 17.0934 15.5453 17.1889 14.7423C17.2724 14.0399 17.2671 13.3038 17.0059 12.7429C16.8656 12.4415 16.6369 12.1613 16.289 11.9974C15.9456 11.8357 15.5721 11.8277 15.2143 11.9046C14.8377 11.9856 14.5103 12.1681 14.2678 12.4585C14.032 12.7409 13.917 13.0766 13.8702 13.4031C13.7797 14.0342 13.9245 14.7694 14.1447 15.4668C14.3519 16.1228 14.6512 16.8218 14.9868 17.4962C14.7989 17.9883 14.5872 18.4772 14.3606 18.9389C14.0319 19.6088 13.6647 20.3295 13.2798 21.0247C12.4611 21.3256 11.6666 21.6604 11.0007 22.0172C10.3457 22.3682 9.72446 22.787 9.35693 23.2817C9.16576 23.5391 9.01085 23.8604 9.00054 24.2333C8.98986 24.6198 9.13702 24.966 9.37741 25.2537C9.62814 25.5537 9.9524 25.7728 10.3477 25.8379C10.7332 25.9014 11.0929 25.803 11.3947 25.6505C11.9721 25.3588 12.5109 24.7816 12.9844 24.1586C13.4181 23.5879 13.851 22.9044 14.2619 22.1908C14.8886 21.9732 15.5273 21.7737 16.1293 21.5993C16.6156 21.4583 17.1561 21.3493 17.7071 21.2734C18.3071 21.7652 18.9631 22.1634 19.5895 22.4288C20.1978 22.6866 20.8485 22.8494 21.4349 22.7973C22.0592 22.7418 22.6671 22.4241 22.9251 21.7145C23.0516 21.3665 23.0195 20.9981 22.8154 20.6834C22.6361 20.4068 22.3648 20.2343 22.124 20.1228C21.6398 19.8986 20.981 19.7867 20.3024 19.7416C19.6555 19.6985 18.9221 19.7122 18.1793 19.7813C17.8868 19.4961 17.6243 19.1861 17.4126 18.8625C17.1276 18.4269 16.8264 17.923 16.5426 17.3948ZM15.8682 19.0913C15.7947 19.2532 15.7196 19.4124 15.6431 19.5682C15.5162 19.8269 15.3819 20.0965 15.2416 20.3723C15.4079 20.3219 15.5716 20.2735 15.7317 20.2271C15.977 20.1561 16.2329 20.0923 16.4956 20.0359C16.3972 19.9082 16.3042 19.7776 16.2171 19.6446C16.1033 19.4706 15.9864 19.2854 15.8682 19.0913ZM20.2949 21.1732C20.7265 21.3389 21.0751 21.3951 21.3084 21.3743C21.3372 21.3718 21.3627 21.3684 21.3855 21.3643C21.1407 21.2803 20.7721 21.21 20.2949 21.1732ZM11.9748 23.1223C11.8718 23.1733 11.7719 23.2247 11.6754 23.2764C11.0594 23.6066 10.6746 23.9036 10.5037 24.1336C10.4444 24.2135 10.4317 24.2577 10.4291 24.2702C10.4329 24.2805 10.4441 24.3023 10.4736 24.3376C10.5153 24.3876 10.5456 24.4101 10.5606 24.4195C10.5735 24.4274 10.5789 24.4282 10.5798 24.4283L10.5799 24.4283C10.5813 24.4285 10.5926 24.4304 10.6189 24.425C10.6467 24.4194 10.6902 24.4059 10.7505 24.3754C11.0223 24.2381 11.3979 23.8851 11.847 23.2942C11.8895 23.2383 11.9322 23.1809 11.9748 23.1223ZM10.4274 24.2633C10.4277 24.2633 10.4283 24.2651 10.4285 24.2684C10.4273 24.2649 10.4272 24.2632 10.4274 24.2633Z" fill="#FFD3D0"/>
<path d="M18.3449 3.53282C19.0497 3.6503 19.7003 3.98508 20.2056 4.49037L25.2231 9.50795C25.7284 10.0132 26.0632 10.6638 26.1807 11.3687L26.2858 11.9992L26.1051 11.4571C25.8717 10.757 25.2166 10.2849 24.4788 10.2849H21.1429C20.1962 10.2849 19.4286 9.51736 19.4286 8.57059V5.23475C19.4286 4.49687 18.9565 3.84177 18.2565 3.60844L17.7144 3.42773L18.3449 3.53282Z" fill="#FFD3D0"/>
</svg>
