<svg width="32" height="32" viewBox="0 0 32 32" fill="none" xmlns="http://www.w3.org/2000/svg">
<path d="M5.71436 5.7154C5.71436 4.45304 6.7377 3.42969 8.00007 3.42969H17.7228C18.6321 3.42969 19.5042 3.79091 20.1471 4.43389L25.2816 9.56834C25.9246 10.2113 26.2858 11.0834 26.2858 11.9927V26.2868C26.2858 27.5492 25.2624 28.5725 24.0001 28.5725H8.00007C6.7377 28.5725 5.71436 27.5492 5.71436 26.2868V5.7154Z" fill="#FBA43F"/>
<path d="M18.3449 3.53477C19.0497 3.65225 19.7003 3.98703 20.2056 4.49233L25.2231 9.50991C25.7284 10.0152 26.0632 10.6657 26.1807 11.3706L26.2858 12.0011L26.1051 11.459C25.8717 10.759 25.2166 10.2868 24.4788 10.2868H21.1429C20.1962 10.2868 19.4286 9.51932 19.4286 8.57255V5.2367C19.4286 4.49882 18.9565 3.84373 18.2565 3.61039L17.7144 3.42969L18.3449 3.53477Z" fill="#FFE29A"/>
<path fill-rule="evenodd" clip-rule="evenodd" d="M8.85742 15.7146C8.85742 15.2412 9.24118 14.8574 9.71456 14.8574H22.286C22.7594 14.8574 23.1431 15.2412 23.1431 15.7146V22.5717C23.1431 23.0451 22.7594 23.4289 22.286 23.4289H9.71456C9.24118 23.4289 8.85742 23.0451 8.85742 22.5717V15.7146ZM10.5717 16.5717V21.7146H21.4289V16.5717H10.5717Z" fill="#FFE29A"/>
<path fill-rule="evenodd" clip-rule="evenodd" d="M10 13.1423C10 12.6689 10.3838 12.2852 10.8571 12.2852H20.5714C21.0448 12.2852 21.4286 12.6689 21.4286 13.1423C21.4286 13.6157 21.0448 13.9994 20.5714 13.9994H10.8571C10.3838 13.9994 10 13.6157 10 13.1423Z" fill="#FFE29A"/>
<path fill-rule="evenodd" clip-rule="evenodd" d="M10 25.1423C10 24.6689 10.3838 24.2852 10.8571 24.2852H20.5714C21.0448 24.2852 21.4286 24.6689 21.4286 25.1423C21.4286 25.6157 21.0448 25.9994 20.5714 25.9994H10.8571C10.3838 25.9994 10 25.6157 10 25.1423Z" fill="#FFE29A"/>
</svg>
