<svg width="156" height="156" viewBox="0 0 156 156" fill="none" xmlns="http://www.w3.org/2000/svg">
<path d="M19.7023 56.0859C21.6694 51.1694 26.4312 47.9453 31.7274 47.9453H124.273C129.569 47.9453 134.331 51.1694 136.298 56.0859L145.992 80.3223H10.0083L19.7023 56.0859Z" fill="url(#paint0_linear_1622_210722)"/>
<path d="M8.05419 87.971C7.36504 80.387 13.3366 73.8477 20.952 73.8477H135.048C142.663 73.8477 148.635 80.387 147.946 87.971L143.825 133.299C143.219 139.97 137.626 145.077 130.928 145.077H25.0731C18.3744 145.077 12.7812 139.97 12.1753 133.299L8.05419 87.971Z" fill="url(#paint1_linear_1622_210722)"/>
<path fill-rule="evenodd" clip-rule="evenodd" d="M103.902 86.6443C103.902 84.9434 102.521 83.5625 100.82 83.5625H55.1811C53.4802 83.5625 52.0986 84.9434 52.0986 86.6443V90.193C52.0986 91.8946 53.4802 93.2755 55.1811 93.2755H100.82C102.521 93.2755 103.902 91.8946 103.902 90.193V86.6443Z" fill="#9EB4FF"/>
<path fill-rule="evenodd" clip-rule="evenodd" d="M106.153 17.6316C106.153 15.9805 105.497 14.3969 104.33 13.2291C103.162 12.062 101.578 11.4062 99.9273 11.4062H56.0721C54.4211 11.4062 52.8375 12.062 51.6697 13.2291C50.5025 14.3969 49.8462 15.9805 49.8462 17.6316V60.8828C49.8462 62.0145 50.4645 63.0558 51.4573 63.5981C52.4507 64.1403 53.6604 64.0971 54.6125 63.4853C58.1868 61.1877 62.8554 58.1865 65.2337 56.6574C66.2376 56.0115 67.4061 55.6686 68.6001 55.6686C74.1133 55.6686 90.7585 55.6686 99.9273 55.6686C101.578 55.6686 103.162 55.0129 104.33 53.8451C105.497 52.6779 106.153 51.0944 106.153 49.4433V17.6316Z" fill="url(#paint2_linear_1622_210722)"/>
<path fill-rule="evenodd" clip-rule="evenodd" d="M78.0005 43.2958C79.1309 43.2958 80.0489 44.2132 80.0489 45.3442C80.0489 46.4747 79.1309 47.3927 78.0005 47.3927C76.87 47.3927 75.952 46.4747 75.952 45.3442C75.952 44.2132 76.87 43.2958 78.0005 43.2958ZM78.0005 21.2745C74.7246 21.2745 72.2696 23.7308 72.2696 26.5215C72.2696 27.4709 71.4998 28.2407 70.5503 28.2407C69.6008 28.2407 68.8311 27.4709 68.8311 26.5215C68.8311 21.6174 73.0472 17.8359 78.0005 17.8359C82.9537 17.8359 87.1699 21.6174 87.1699 26.5215C87.1699 30.8105 84.8172 33.1907 82.8521 34.8955C82.5918 35.1211 82.3485 35.3276 82.121 35.5211C81.4443 36.0948 80.9046 36.5525 80.46 37.062C79.9296 37.6705 79.7198 38.1596 79.7198 38.7124V39.0134C79.7198 39.9628 78.9499 40.7326 78.0005 40.7326C77.051 40.7326 76.2812 39.9628 76.2812 39.0134V38.7124C76.2812 37.0554 77.0031 35.7945 77.8687 34.8018C78.5008 34.0772 79.3152 33.388 80.0371 32.7769C80.2332 32.611 80.422 32.4517 80.5991 32.2983C82.359 30.7711 83.7314 29.2656 83.7314 26.5215C83.7314 23.7308 81.2764 21.2745 78.0005 21.2745Z" fill="#7D94DD"/>
<defs>
<linearGradient id="paint0_linear_1622_210722" x1="106.507" y1="47.9451" x2="106.507" y2="86.7976" gradientUnits="userSpaceOnUse">
<stop stop-color="#C7D3FE"/>
<stop offset="1" stop-color="#98ACF0"/>
</linearGradient>
<linearGradient id="paint1_linear_1622_210722" x1="49.4576" y1="73.8479" x2="49.4576" y2="145.078" gradientUnits="userSpaceOnUse">
<stop stop-color="#E3E9FE"/>
<stop offset="1" stop-color="#B1C2FC"/>
</linearGradient>
<linearGradient id="paint2_linear_1622_210722" x1="52.6893" y1="13.2569" x2="117.225" y2="55.6685" gradientUnits="userSpaceOnUse">
<stop stop-color="#F4F6FF"/>
<stop offset="1" stop-color="#D1DBFC"/>
</linearGradient>
</defs>
</svg>
