<svg width="156" height="156" viewBox="0 0 156 156" fill="none" xmlns="http://www.w3.org/2000/svg">
<path fill-rule="evenodd" clip-rule="evenodd" d="M140.375 52.0006C140.664 50.9199 140.513 49.768 139.952 48.7987C137.093 43.8497 128.037 28.1814 125.178 23.2349C124.619 22.2672 123.699 21.561 122.618 21.2717C115.137 19.2667 84.8236 11.1446 73.6377 8.14722C72.5313 7.85063 71.3517 8.00599 70.3599 8.57878C69.3676 9.15158 68.6436 10.0952 68.347 11.2016C63.8803 27.8722 47.3415 89.5946 42.8764 106.259C42.5803 107.365 42.7357 108.543 43.3079 109.535C43.8802 110.526 44.8228 111.249 45.9286 111.545C59.3811 115.15 101.54 126.446 114.993 130.051C116.099 130.348 117.277 130.192 118.268 129.62C119.259 129.048 119.983 128.105 120.279 126.999C124.271 112.101 137.732 61.8636 140.375 52.0006Z" fill="url(#paint0_linear_1622_210828)"/>
<path fill-rule="evenodd" clip-rule="evenodd" d="M125.179 23.2365C124.62 22.2677 123.698 21.561 122.618 21.2713C121.588 20.9956 120.468 20.6953 120.468 20.6953C120.468 20.6953 121.507 21.0175 122.732 21.3973C124.911 22.0732 126.157 24.3586 125.546 26.5561C124.581 30.0263 123.181 35.0591 122.203 38.5727C121.575 40.8335 122.898 43.1765 125.158 43.8053C128.701 44.7902 133.787 46.2052 137.259 47.1709C139.423 47.7729 140.736 49.9647 140.245 52.156C139.998 53.2608 139.794 54.1689 139.794 54.1689C139.794 54.1689 140.094 53.0489 140.37 52.0189C140.66 50.9387 140.508 49.7874 139.949 48.8186C137.091 43.868 128.037 28.1871 125.179 23.2365Z" fill="url(#paint1_linear_1622_210828)"/>
<path fill-rule="evenodd" clip-rule="evenodd" d="M11.1437 69.8014C10.8539 68.7201 11.0062 67.5683 11.5659 66.5995C14.4262 61.6505 23.481 45.9821 26.3397 41.0357C26.8994 40.068 27.8201 39.3618 28.8998 39.0725C36.3816 37.0675 66.6951 28.9448 77.8805 25.948C78.9874 25.6514 80.1665 25.8068 81.1588 26.3796C82.1511 26.9523 82.8751 27.896 83.1717 29.0024C87.6384 45.673 104.177 107.395 108.642 124.06C108.938 125.166 108.783 126.344 108.211 127.335C107.639 128.327 106.695 129.05 105.59 129.346C92.1376 132.951 49.9785 144.247 36.526 147.852C35.4202 148.148 34.2422 147.993 33.2509 147.421C32.2591 146.848 31.5357 145.905 31.2396 144.799C27.2478 129.902 13.7864 79.6644 11.1437 69.8014Z" fill="url(#paint2_linear_1622_210828)"/>
<path fill-rule="evenodd" clip-rule="evenodd" d="M26.34 41.0373C26.8997 40.0685 27.8209 39.3613 28.9011 39.072C29.9311 38.7963 31.0505 38.4961 31.0505 38.4961C31.0505 38.4961 30.0122 38.8183 28.7871 39.1981C26.6084 39.8739 25.3618 42.1593 25.9733 44.3569C26.9384 47.8271 28.3383 52.8593 29.3154 56.3735C29.9442 58.6343 28.6212 60.9767 26.3604 61.6055C22.818 62.591 17.7324 64.0055 14.2596 64.9716C12.0961 65.5732 10.7836 67.765 11.2743 69.9567C11.5217 71.0615 11.7252 71.9691 11.7252 71.9691C11.7252 71.9691 11.4249 70.8497 11.1493 69.8197C10.8595 68.7395 11.0112 67.5882 11.5704 66.6194C14.4286 61.6688 23.4823 45.9874 26.34 41.0373Z" fill="url(#paint3_linear_1622_210828)"/>
<g filter="url(#filter0_f_1622_210828)">
<path fill-rule="evenodd" clip-rule="evenodd" d="M120.909 46.9114C120.909 45.8516 120.488 44.8347 119.738 44.0857C115.909 40.2592 103.784 28.1453 99.9567 24.3209C99.2077 23.5724 98.1918 23.1523 97.133 23.1523C93.6016 23.1523 84.8805 23.1523 75.5615 23.1523C73.7527 23.1523 71.9208 28.0287 70.1004 28.0287C61.8203 28.0287 48.9385 33.2628 45.0189 35.1888C44.0449 35.6674 42.893 35.6199 42.1257 36.3872C41.3583 37.1546 40.9272 38.1951 40.9272 39.28C40.9272 55.6257 40.9272 109.914 40.9272 126.254C40.9272 127.338 41.3583 128.378 42.1246 129.144C42.8915 129.911 43.9314 130.342 45.0153 130.342C52.9977 130.342 75.3764 130.342 91.4988 130.342C102.017 130.342 120.909 111.105 120.909 100.499C120.909 79.4413 120.909 53.3429 120.909 46.9114Z" fill="#B4C2F4"/>
</g>
<path fill-rule="evenodd" clip-rule="evenodd" d="M120.821 48.2385C120.821 47.1191 120.377 46.0462 119.585 45.2548C115.541 41.2149 102.739 28.4241 98.6979 24.3863C97.907 23.5959 96.8346 23.1523 95.7168 23.1523C87.9713 23.1523 56.5886 23.1523 45.0082 23.1523C43.8626 23.1523 42.7636 23.6074 41.9538 24.4172C41.1436 25.2275 40.6885 26.3265 40.6885 27.4721C40.6885 44.7301 40.6885 108.63 40.6885 125.882C40.6885 127.027 41.143 128.125 41.9528 128.935C42.762 129.744 43.86 130.199 45.0046 130.199C58.9315 130.199 102.578 130.199 116.505 130.199C117.65 130.199 118.748 129.744 119.557 128.935C120.367 128.125 120.821 127.027 120.821 125.882C120.821 110.459 120.821 58.4494 120.821 48.2385Z" fill="url(#paint4_linear_1622_210828)"/>
<path d="M58.8192 41.0065C61.111 41.0065 62.9689 39.1486 62.9689 36.8568C62.9689 34.5649 61.111 32.707 58.8192 32.707C56.5273 32.707 54.6694 34.5649 54.6694 36.8568C54.6694 39.1486 56.5273 41.0065 58.8192 41.0065Z" fill="url(#paint5_linear_1622_210828)"/>
<path fill-rule="evenodd" clip-rule="evenodd" d="M58.8196 40.0195C62.6758 40.0195 65.8066 43.1508 65.8066 47.0071C65.8066 50.8633 51.832 50.8633 51.832 47.0071C51.832 43.1508 54.9633 40.0195 58.8196 40.0195Z" fill="url(#paint6_linear_1622_210828)"/>
<path fill-rule="evenodd" clip-rule="evenodd" d="M98.6977 24.3874C97.9067 23.5964 96.8344 23.1523 95.7155 23.1523C94.6494 23.1523 93.4902 23.1523 93.4902 23.1523C93.4902 23.1523 94.5767 23.1942 95.8588 23.2444C98.138 23.3333 99.9332 25.2181 99.9118 27.4988C99.8778 31.1008 99.8281 36.3239 99.7936 39.971C99.7711 42.3176 101.655 44.2379 104.002 44.2604C107.679 44.2954 112.957 44.3456 116.561 44.3796C118.807 44.4011 120.642 46.1781 120.735 48.4221C120.782 49.5531 120.821 50.4826 120.821 50.4826V48.2574C120.821 47.139 120.376 46.0661 119.585 45.2752C115.544 41.2332 102.74 28.4293 98.6977 24.3874Z" fill="url(#paint7_linear_1622_210828)"/>
<path fill-rule="evenodd" clip-rule="evenodd" d="M66.9293 64.0221H108.176C108.97 64.0221 109.615 63.3771 109.615 62.583C109.615 61.789 108.97 61.1445 108.176 61.1445H66.9293C66.1347 61.1445 65.4902 61.789 65.4902 62.583C65.4902 63.3771 66.1347 64.0221 66.9293 64.0221Z" fill="#CAD5FD"/>
<path fill-rule="evenodd" clip-rule="evenodd" d="M53.3341 73.9557H108.176C108.97 73.9557 109.615 73.3112 109.615 72.5172C109.615 71.7231 108.97 71.0781 108.176 71.0781H53.3341C52.54 71.0781 51.895 71.7231 51.895 72.5172C51.895 73.3112 52.54 73.9557 53.3341 73.9557Z" fill="#CAD5FD"/>
<path fill-rule="evenodd" clip-rule="evenodd" d="M53.3341 83.8932H108.176C108.97 83.8932 109.615 83.2487 109.615 82.4547C109.615 81.6606 108.97 81.0156 108.176 81.0156H53.3341C52.54 81.0156 51.895 81.6606 51.895 82.4547C51.895 83.2487 52.54 83.8932 53.3341 83.8932Z" fill="#CAD5FD"/>
<path fill-rule="evenodd" clip-rule="evenodd" d="M53.3341 93.8268H108.176C108.97 93.8268 109.615 93.1818 109.615 92.3877C109.615 91.5937 108.97 90.9492 108.176 90.9492H53.3341C52.54 90.9492 51.895 91.5937 51.895 92.3877C51.895 93.1818 52.54 93.8268 53.3341 93.8268Z" fill="#CAD5FD"/>
<path fill-rule="evenodd" clip-rule="evenodd" d="M53.3341 103.764H108.176C108.97 103.764 109.615 103.119 109.615 102.325C109.615 101.531 108.97 100.887 108.176 100.887H53.3341C52.54 100.887 51.895 101.531 51.895 102.325C51.895 103.119 52.54 103.764 53.3341 103.764Z" fill="#CAD5FD"/>
<path fill-rule="evenodd" clip-rule="evenodd" d="M53.3341 113.698H93.8757C94.6698 113.698 95.3147 113.053 95.3147 112.259C95.3147 111.465 94.6698 110.82 93.8757 110.82H53.3341C52.54 110.82 51.895 111.465 51.895 112.259C51.895 113.053 52.54 113.698 53.3341 113.698Z" fill="#CAD5FD"/>
<g filter="url(#filter1_f_1622_210828)">
<path fill-rule="evenodd" clip-rule="evenodd" d="M129.828 93.2996C130.506 91.5012 130.231 89.4826 129.096 87.9316C127.962 86.3801 126.122 85.5055 124.203 85.6054C118.054 85.9266 110.002 86.3466 104.756 86.6202C101.731 86.7776 99.3589 89.2765 99.3589 92.3063C99.3589 98.608 99.3589 108.979 99.3589 115.403C99.3589 118.547 101.908 121.097 105.053 121.097C108.366 121.097 112.457 121.097 115.413 121.097C117.783 121.097 119.906 119.629 120.742 117.411C122.867 111.771 126.978 100.86 129.828 93.2996Z" fill="#A4B7F5"/>
</g>
<path fill-rule="evenodd" clip-rule="evenodd" d="M143.019 92.2642C143.019 89.1194 140.47 86.5703 137.325 86.5703C128.956 86.5703 113.422 86.5703 105.053 86.5703C101.908 86.5703 99.3589 89.1194 99.3589 92.2642C99.3589 98.5393 99.3589 108.572 99.3589 114.847C99.3589 117.992 101.908 120.541 105.053 120.541C113.422 120.541 128.956 120.541 137.325 120.541C140.47 120.541 143.019 117.992 143.019 114.847C143.019 108.572 143.019 98.5393 143.019 92.2642Z" fill="url(#paint8_linear_1622_210828)"/>
<path fill-rule="evenodd" clip-rule="evenodd" d="M130.427 109.914C129.682 109.914 128.975 110.24 128.492 110.806C128.047 111.326 127.488 111.981 127.043 112.501C126.559 113.067 125.853 113.393 125.108 113.393C123.148 113.393 119.23 113.393 117.27 113.393C116.525 113.393 115.819 113.067 115.335 112.501C114.89 111.981 114.331 111.326 113.886 110.806C113.403 110.24 112.696 109.914 111.951 109.914C109.738 109.914 104.897 109.914 101.904 109.914C101.229 109.914 100.582 110.182 100.104 110.66C99.6272 111.137 99.3589 111.784 99.3589 112.459C99.3589 113.187 99.3589 114.01 99.3589 114.847C99.3589 117.992 101.908 120.541 105.053 120.541C113.422 120.541 128.956 120.541 137.325 120.541C140.47 120.541 143.019 117.992 143.019 114.847C143.019 114.01 143.019 113.187 143.019 112.459C143.019 111.784 142.751 111.137 142.273 110.66C141.796 110.182 141.149 109.914 140.474 109.914C137.481 109.914 132.64 109.914 130.427 109.914Z" fill="url(#paint9_linear_1622_210828)"/>
<path fill-rule="evenodd" clip-rule="evenodd" d="M124.408 86.7076C129.9 81.7586 137.099 78.6085 144.575 80.2228C145.168 80.3515 145.621 80.8296 145.718 81.4275C145.815 82.0254 145.537 82.6222 145.016 82.9319C138.339 86.852 134.361 91.166 132.616 94.9161C132.616 94.9161 134.307 96.6057 135.954 98.2534C136.524 98.8236 136.717 99.6716 136.449 100.433C136.181 101.194 135.499 101.733 134.697 101.82C129.953 102.334 122.519 103.139 118.616 103.561C117.985 103.629 117.357 103.408 116.908 102.959C116.459 102.51 116.238 101.882 116.306 101.251C116.728 97.3485 117.533 89.9142 118.047 85.1697C118.134 84.3678 118.673 83.6862 119.434 83.4184C120.195 83.15 121.043 83.3425 121.614 83.9132C123.034 85.3334 124.408 86.7076 124.408 86.7076Z" fill="url(#paint10_linear_1622_210828)"/>
<g filter="url(#filter2_f_1622_210828)">
<path fill-rule="evenodd" clip-rule="evenodd" d="M21.2662 79.0582C26.9324 73.392 36.1327 73.392 41.7989 79.0582C47.4651 84.7244 47.4651 93.9247 41.7989 99.5909C36.1327 105.257 26.9324 105.257 21.2662 99.5909C15.6001 93.9247 15.6001 84.7244 21.2662 79.0582Z" fill="#A4B7F5"/>
</g>
<path fill-rule="evenodd" clip-rule="evenodd" d="M15.9795 77.2954C22.6181 70.6567 33.3981 70.6567 40.0367 77.2954C46.6754 83.934 46.6754 94.714 40.0367 101.353C33.3981 107.991 22.6181 107.991 15.9795 101.353C9.34083 94.714 9.34083 83.934 15.9795 77.2954Z" fill="url(#paint11_linear_1622_210828)"/>
<path fill-rule="evenodd" clip-rule="evenodd" d="M28.0082 96.6224C28.7803 96.6224 29.4075 97.2496 29.4075 98.0217C29.4075 98.7943 28.7803 99.421 28.0082 99.421C27.2356 99.421 26.6089 98.7943 26.6089 98.0217C26.6089 97.2496 27.2356 96.6224 28.0082 96.6224ZM28.0082 81.5792C25.7704 81.5792 24.0934 83.2573 24.0934 85.1634C24.0934 85.8121 23.5677 86.3383 22.919 86.3383C22.2704 86.3383 21.7441 85.8121 21.7441 85.1634C21.7441 81.814 24.6243 79.2305 28.0082 79.2305C31.3922 79.2305 34.2718 81.814 34.2718 85.1634C34.2718 88.0938 32.6649 89.7191 31.3226 90.884C31.1447 91.0383 30.9784 91.1796 30.823 91.3114C30.3606 91.7037 29.9918 92.016 29.6884 92.3639C29.3259 92.7797 29.1826 93.114 29.1826 93.4917V93.6972C29.1826 94.3459 28.6569 94.8716 28.0082 94.8716C27.3596 94.8716 26.8339 94.3459 26.8339 93.6972V93.4917C26.8339 92.3597 27.3266 91.4981 27.9183 90.8202C28.3498 90.3254 28.9064 89.8546 29.3997 89.4371C29.5336 89.3236 29.6623 89.2143 29.7831 89.1097C30.9857 88.0666 31.9231 87.0382 31.9231 85.1634C31.9231 83.2573 30.246 81.5792 28.0082 81.5792Z" fill="#7D94DD"/>
<defs>
<filter id="filter0_f_1622_210828" x="27.6891" y="9.91424" width="106.458" height="133.666" filterUnits="userSpaceOnUse" color-interpolation-filters="sRGB">
<feFlood flood-opacity="0" result="BackgroundImageFix"/>
<feBlend mode="normal" in="SourceGraphic" in2="BackgroundImageFix" result="shape"/>
<feGaussianBlur stdDeviation="6.61905" result="effect1_foregroundBlur_1622_210828"/>
</filter>
<filter id="filter1_f_1622_210828" x="86.5017" y="72.7405" width="56.5492" height="61.2123" filterUnits="userSpaceOnUse" color-interpolation-filters="sRGB">
<feFlood flood-opacity="0" result="BackgroundImageFix"/>
<feBlend mode="normal" in="SourceGraphic" in2="BackgroundImageFix" result="shape"/>
<feGaussianBlur stdDeviation="6.42857" result="effect1_foregroundBlur_1622_210828"/>
</filter>
<filter id="filter2_f_1622_210828" x="3.7785" y="61.5705" width="55.5079" height="55.5075" filterUnits="userSpaceOnUse" color-interpolation-filters="sRGB">
<feFlood flood-opacity="0" result="BackgroundImageFix"/>
<feBlend mode="normal" in="SourceGraphic" in2="BackgroundImageFix" result="shape"/>
<feGaussianBlur stdDeviation="6.61905" result="effect1_foregroundBlur_1622_210828"/>
</filter>
<linearGradient id="paint0_linear_1622_210828" x1="101.935" y1="13.6748" x2="103.316" y2="83.183" gradientUnits="userSpaceOnUse">
<stop stop-color="#EEF2FF"/>
<stop offset="1" stop-color="#D7DFFC"/>
</linearGradient>
<linearGradient id="paint1_linear_1622_210828" x1="127.8" y1="22.6601" x2="128.829" y2="49.2709" gradientUnits="userSpaceOnUse">
<stop stop-color="#E3E9FE"/>
<stop offset="1" stop-color="#B1C2FC"/>
</linearGradient>
<linearGradient id="paint2_linear_1622_210828" x1="49.5841" y1="31.4756" x2="48.203" y2="100.984" gradientUnits="userSpaceOnUse">
<stop stop-color="#EEF2FF"/>
<stop offset="1" stop-color="#D7DFFC"/>
</linearGradient>
<linearGradient id="paint3_linear_1622_210828" x1="23.719" y1="40.4608" x2="22.6895" y2="67.0717" gradientUnits="userSpaceOnUse">
<stop stop-color="#E3E9FE"/>
<stop offset="1" stop-color="#B1C2FC"/>
</linearGradient>
<linearGradient id="paint4_linear_1622_210828" x1="56.5028" y1="17.3967" x2="94.2273" y2="142.186" gradientUnits="userSpaceOnUse">
<stop stop-color="#F9FBFF"/>
<stop offset="1" stop-color="#E1E8FD"/>
</linearGradient>
<linearGradient id="paint5_linear_1622_210828" x1="53.3141" y1="34.0796" x2="63.3286" y2="51.4257" gradientUnits="userSpaceOnUse">
<stop stop-color="#A5B9FD"/>
<stop offset="1" stop-color="#7C99FB"/>
</linearGradient>
<linearGradient id="paint6_linear_1622_210828" x1="53.3145" y1="33.0927" x2="63.329" y2="50.4387" gradientUnits="userSpaceOnUse">
<stop stop-color="#A5B9FD"/>
<stop offset="1" stop-color="#7C99FB"/>
</linearGradient>
<linearGradient id="paint7_linear_1622_210828" x1="101.08" y1="23.1523" x2="108.962" y2="48.59" gradientUnits="userSpaceOnUse">
<stop stop-color="#E3E9FE"/>
<stop offset="1" stop-color="#B1C2FC"/>
</linearGradient>
<linearGradient id="paint8_linear_1622_210828" x1="111.484" y1="86.5703" x2="123.937" y2="124.998" gradientUnits="userSpaceOnUse">
<stop stop-color="#DAE3FE"/>
<stop offset="1" stop-color="#B1C2FC"/>
</linearGradient>
<linearGradient id="paint9_linear_1622_210828" x1="105.247" y1="103.556" x2="106.817" y2="120.541" gradientUnits="userSpaceOnUse">
<stop stop-color="#C7D3FE"/>
<stop offset="1" stop-color="#869EED"/>
</linearGradient>
<linearGradient id="paint10_linear_1622_210828" x1="117.711" y1="82.6908" x2="138.361" y2="96.9202" gradientUnits="userSpaceOnUse">
<stop stop-color="#A5B9FD"/>
<stop offset="1" stop-color="#7C99FB"/>
</linearGradient>
<linearGradient id="paint11_linear_1622_210828" x1="10.632" y1="82.643" x2="48.4047" y2="89.6257" gradientUnits="userSpaceOnUse">
<stop stop-color="#DAE3FE"/>
<stop offset="1" stop-color="#B1C2FC"/>
</linearGradient>
</defs>
</svg>
