<svg width="156" height="156" viewBox="0 0 156 156" fill="none" xmlns="http://www.w3.org/2000/svg">
<path fill-rule="evenodd" clip-rule="evenodd" d="M29.7773 135.069H116.101C118.403 135.069 120.701 134.155 122.49 132.526C124.279 130.899 125.412 128.691 125.64 126.39L136.663 15.0195H41.6608L29.7773 135.069Z" fill="url(#paint0_linear_3636_435765)"/>
<path fill-rule="evenodd" clip-rule="evenodd" d="M82.9846 32.9493C97.9512 24.3087 117.118 29.4442 125.758 44.4099C134.399 59.3765 129.263 78.5428 114.298 87.1834C99.3309 95.824 80.1646 90.6885 71.524 75.7228C62.8834 60.7562 68.0189 41.5899 82.9846 32.9493Z" fill="url(#paint1_linear_3636_435765)"/>
<path fill-rule="evenodd" clip-rule="evenodd" d="M84.4559 35.3552C98.0277 27.5198 115.407 32.1766 123.244 45.7484C131.079 59.3201 126.422 76.6999 112.851 84.5362C99.2788 92.3717 81.8991 87.7149 74.0627 74.1431C66.2273 60.5713 70.8841 43.1916 84.4559 35.3552Z" fill="url(#paint2_linear_3636_435765)"/>
<path fill-rule="evenodd" clip-rule="evenodd" d="M112.748 84.3603C111.198 85.2551 109.267 86.1011 107.471 86.6329C106.283 86.9836 106.192 87.7893 106.488 88.8801C106.783 89.9709 107.261 90.9895 108.449 90.6387C109.917 90.2045 111.68 89.4682 112.98 88.8557L116.793 95.4597L120.339 93.4122L116.526 86.8092C117.707 85.9885 119.226 84.8302 120.336 83.7759C121.234 82.9234 120.59 81.9986 119.793 81.1976C118.997 80.3966 118.253 80.073 117.355 80.9256C115.997 82.2152 114.299 83.4646 112.748 84.3603Z" fill="url(#paint3_linear_3636_435765)"/>
<path fill-rule="evenodd" clip-rule="evenodd" d="M123.437 91.5607C122.893 90.816 121.874 90.6012 121.075 91.0626C119.279 92.099 116.188 93.8839 114.392 94.9213C113.591 95.3827 113.269 96.3732 113.643 97.2182C116.886 104.553 120.105 111.901 124.054 118.828C127.929 125.624 132.425 132.06 137.009 138.447C138.823 140.985 142.266 141.73 144.967 140.171C144.968 140.171 144.969 140.17 144.97 140.17C147.673 138.61 148.748 135.251 147.453 132.411C144.143 125.109 140.773 117.919 136.809 111.15C132.79 104.286 128.079 97.901 123.437 91.5607Z" fill="url(#paint4_linear_3636_435765)"/>
<path fill-rule="evenodd" clip-rule="evenodd" d="M103.002 106.086H8C8 106.086 8.77097 107.205 9.66857 108.509C11.46 111.109 12.4186 114.193 12.4186 117.351C12.4186 120.637 12.4186 124.678 12.4186 126.378C12.4186 128.682 13.334 130.892 14.9641 132.521C16.5933 134.151 18.803 135.067 21.1075 135.067C44.565 135.067 107.422 135.067 116.101 135.067C113.799 135.067 111.592 134.152 109.964 132.524C108.336 130.897 107.422 128.689 107.422 126.387V117.351C107.422 114.193 106.462 111.109 104.671 108.509C103.773 107.205 103.002 106.086 103.002 106.086Z" fill="url(#paint5_linear_3636_435765)"/>
<path fill-rule="evenodd" clip-rule="evenodd" d="M95.1145 35.5269C83.2901 37.0051 71.038 47.4179 75.3862 66.696C76.3101 70.7957 77.7554 68.4546 77.7207 63.1938C77.6335 50 89.9512 39.0563 98.6533 37.5115C102.648 36.8025 100.719 34.8263 95.1145 35.5269Z" fill="white"/>
<path fill-rule="evenodd" clip-rule="evenodd" d="M52.8373 41.3733C52.8373 41.3733 51.8065 40.1755 50.3809 38.7236C49.849 38.1815 49.2713 37.6 48.6523 37.0616C48.0332 36.5223 47.3767 36.0308 46.7689 35.5759C45.1388 34.3595 43.8182 33.4919 43.8182 33.4919C43.5368 33.2452 43.1072 33.2743 42.8615 33.5557C42.6148 33.838 42.6439 34.2666 42.9253 34.5133C42.9253 34.5133 43.9626 35.7054 45.3864 37.1573C45.9191 37.6994 46.4932 38.2837 47.1103 38.8249C47.7275 39.3661 48.3812 39.8613 48.989 40.3162C50.6191 41.5346 51.9444 42.3947 51.9444 42.3947C52.2267 42.6413 52.6553 42.6123 52.9011 42.3299C53.1477 42.0486 53.1187 41.6199 52.8373 41.3733Z" fill="#809CFB"/>
<path fill-rule="evenodd" clip-rule="evenodd" d="M49.7876 50.8279C49.7876 50.8279 46.5076 49.8009 42.2832 48.6181C40.6962 48.1736 38.9798 47.699 37.2484 47.2807C35.5161 46.8624 33.7725 46.5022 32.1574 46.1711C27.8607 45.2895 24.4767 44.6911 24.4767 44.6911C24.1128 44.6029 23.7461 44.8271 23.6579 45.191C23.5697 45.5549 23.793 45.9216 24.1569 46.0098C24.1569 46.0098 27.4387 47.0274 31.6631 48.212C33.2501 48.6566 34.9646 49.1359 36.696 49.557C38.4274 49.9781 40.1701 50.3421 41.7852 50.6741C46.0818 51.5567 49.4677 52.1457 49.4677 52.1457C49.8316 52.2338 50.1984 52.0106 50.2865 51.6467C50.3747 51.2828 50.1515 50.9161 49.7876 50.8279Z" fill="#809CFB"/>
<path fill-rule="evenodd" clip-rule="evenodd" d="M47.7011 60.169C47.7011 60.169 45.5795 60.5217 42.8867 61.1051C41.8784 61.3236 40.7895 61.5647 39.7146 61.8629C38.6398 62.1612 37.5827 62.5167 36.6045 62.8468C33.9952 63.7294 31.9908 64.506 31.9908 64.506C31.6297 64.6064 31.4178 64.9797 31.5172 65.3408C31.6166 65.7019 31.9908 65.9138 32.3519 65.8144C32.3519 65.8144 34.4717 65.4524 37.1635 64.8709C38.1727 64.6533 39.2616 64.416 40.3384 64.1205C41.4142 63.8251 42.4721 63.4734 43.4495 63.1432C46.0606 62.2625 48.0622 61.4774 48.0622 61.4774C48.4223 61.3771 48.6343 61.0038 48.5349 60.6427C48.4355 60.2816 48.0612 60.0696 47.7011 60.169Z" fill="#809CFB"/>
<path fill-rule="evenodd" clip-rule="evenodd" d="M98.885 73.1181C100.27 73.1181 101.394 74.2442 101.394 75.6285C101.394 77.0128 100.27 78.139 98.885 78.139C97.5001 78.139 96.3756 77.0128 96.3756 75.6285C96.3756 74.2442 97.5001 73.1181 98.885 73.1181ZM98.885 46.1454C94.8726 46.1454 91.8656 49.1558 91.8656 52.5727C91.8656 53.7373 90.9229 54.6767 89.7599 54.6767C88.597 54.6767 87.6543 53.7373 87.6543 52.5727C87.6543 46.5684 92.8175 41.9375 98.885 41.9375C104.952 41.9375 110.116 46.5684 110.116 52.5727C110.116 57.8244 107.234 60.7413 104.827 62.8288C104.509 63.1035 104.21 63.3618 103.931 63.598C103.103 64.3011 102.442 64.8614 101.898 65.4822C101.248 66.2293 100.991 66.828 100.991 67.5037V67.8719C100.991 69.0365 100.048 69.9813 98.885 69.9813C97.7221 69.9813 96.7794 69.0365 96.7794 67.8719V67.5037C96.7794 65.4767 97.6633 63.933 98.7241 62.7135C99.4975 61.829 100.495 60.9831 101.38 60.236C101.62 60.0327 101.851 59.835 102.067 59.6483C104.223 57.7805 105.904 55.9346 105.904 52.5727C105.904 49.1558 102.897 46.1454 98.885 46.1454Z" fill="#809CFB"/>
<defs>
<linearGradient id="paint0_linear_3636_435765" x1="21.2999" y1="-24.018" x2="130.153" y2="135.069" gradientUnits="userSpaceOnUse">
<stop stop-color="white"/>
<stop offset="1" stop-color="#D4DDFC"/>
</linearGradient>
<linearGradient id="paint1_linear_3636_435765" x1="118.549" y1="35.8906" x2="81.7186" y2="88.1475" gradientUnits="userSpaceOnUse">
<stop stop-color="#A5B9FD"/>
<stop offset="1" stop-color="#A8BCFC"/>
</linearGradient>
<linearGradient id="paint2_linear_3636_435765" x1="43.3267" y1="49.8672" x2="98.9254" y2="117.137" gradientUnits="userSpaceOnUse">
<stop stop-color="white"/>
<stop offset="1" stop-color="#D4DDFC"/>
</linearGradient>
<linearGradient id="paint3_linear_3636_435765" x1="120.426" y1="78.2706" x2="110.151" y2="92.2384" gradientUnits="userSpaceOnUse">
<stop stop-color="#A5B9FD"/>
<stop offset="1" stop-color="#7C99FB"/>
</linearGradient>
<linearGradient id="paint4_linear_3636_435765" x1="136.169" y1="110.071" x2="124.712" y2="119.967" gradientUnits="userSpaceOnUse">
<stop stop-color="#C1CFFE"/>
<stop offset="1" stop-color="#A3B7FC"/>
</linearGradient>
<linearGradient id="paint5_linear_3636_435765" x1="114.674" y1="105.123" x2="4.17139" y2="133.633" gradientUnits="userSpaceOnUse">
<stop stop-color="#B9CAFF"/>
<stop offset="1" stop-color="#D8E1FE"/>
</linearGradient>
</defs>
</svg>
