<svg width="156" height="157" viewBox="0 0 156 157" fill="none" xmlns="http://www.w3.org/2000/svg">
<path fill-rule="evenodd" clip-rule="evenodd" d="M147.842 59.4312C148.16 58.2412 147.993 56.9736 147.377 55.907C144.229 50.4596 134.262 33.2135 131.116 27.7689C130.5 26.704 129.486 25.9262 128.298 25.608C120.063 23.4012 86.6968 14.4608 74.3845 11.1619C73.1667 10.8358 71.8686 11.0062 70.7765 11.6369C69.6844 12.2676 68.8879 13.3059 68.5612 14.5242C63.6449 32.8732 45.4408 100.811 40.5262 119.153C40.2001 120.37 40.3705 121.667 41.0006 122.758C41.6307 123.849 42.6685 124.645 43.8857 124.972C58.6929 128.94 105.097 141.373 119.903 145.341C121.121 145.667 122.418 145.496 123.509 144.866C124.6 144.236 125.397 143.198 125.723 141.981C130.117 125.584 144.933 70.2874 147.842 59.4312Z" fill="url(#paint0_linear_1622_210939)"/>
<path fill-rule="evenodd" clip-rule="evenodd" d="M131.116 27.7694C130.501 26.7033 129.487 25.9249 128.298 25.6062C127.164 25.3027 125.932 24.9727 125.932 24.9727C125.932 24.9727 127.075 25.3271 128.423 25.7454C130.821 26.4888 132.194 29.0047 131.521 31.4232C130.458 35.2429 128.917 40.782 127.842 44.6498C127.149 47.1385 128.605 49.7167 131.094 50.4091C134.993 51.4938 140.591 53.0507 144.414 54.1139C146.795 54.7763 148.24 57.1886 147.7 59.6009C147.427 60.8169 147.204 61.8162 147.204 61.8162C147.204 61.8162 147.534 60.5837 147.838 59.4503C148.156 58.2608 147.989 56.9938 147.373 55.9278C144.227 50.4787 134.262 33.2184 131.116 27.7694Z" fill="url(#paint1_linear_1622_210939)"/>
<g filter="url(#filter0_f_1622_210939)">
<path fill-rule="evenodd" clip-rule="evenodd" d="M124.927 55.0114C124.927 53.874 124.475 52.7836 123.671 51.9803C119.563 47.8764 106.559 34.883 102.453 30.7808C101.65 29.978 100.561 29.5273 99.4249 29.5273C95.6369 29.5273 80.5652 29.5273 70.5701 29.5273C68.63 29.5273 66.6655 34.7579 64.7129 34.7579C55.8314 34.7579 67.9353 130.363 85.2279 130.363C96.5104 130.363 124.927 138.442 124.927 127.067C124.927 104.481 124.927 61.9097 124.927 55.0114Z" fill="#B4C2F4"/>
</g>
<path fill-rule="evenodd" clip-rule="evenodd" d="M126.32 55.2879C126.32 54.056 125.83 52.875 124.959 52.0043C120.508 47.5573 106.417 33.4787 101.969 29.0339C101.098 28.1644 99.9181 27.6758 98.6879 27.6758C90.1624 27.6758 55.6191 27.6758 42.8731 27.6758C41.6118 27.6758 40.4025 28.1768 39.5109 29.0685C38.6192 29.9601 38.1182 31.1694 38.1182 32.4307C38.1182 51.4269 38.1182 121.761 38.1182 140.75C38.1182 142.01 38.6186 143.219 39.5097 144.109C40.4008 145.001 41.609 145.501 42.8692 145.501C58.1984 145.501 106.24 145.501 121.569 145.501C122.829 145.501 124.038 145.001 124.928 144.109C125.819 143.219 126.32 142.01 126.32 140.75C126.32 123.774 126.32 66.5274 126.32 55.2879Z" fill="url(#paint2_linear_1622_210939)"/>
<path fill-rule="evenodd" clip-rule="evenodd" d="M101.969 29.0356C101.099 28.1649 99.9183 27.6758 98.687 27.6758C97.5134 27.6758 96.2373 27.6758 96.2373 27.6758C96.2373 27.6758 97.4336 27.7222 98.8444 27.7771C101.353 27.8751 103.329 29.9494 103.306 32.4602C103.268 36.4248 103.213 42.1739 103.175 46.1884C103.151 48.7711 105.225 50.8851 107.807 50.9094C111.855 50.9479 117.664 51.0028 121.632 51.0407C124.104 51.064 126.124 53.0205 126.226 55.49C126.278 56.7355 126.32 57.7585 126.32 57.7585V55.3088C126.32 54.0781 125.831 52.8971 124.961 52.0264C120.511 47.5771 106.419 33.4843 101.969 29.0356Z" fill="url(#paint3_linear_1622_210939)"/>
<path fill-rule="evenodd" clip-rule="evenodd" d="M106.36 95.3505C106.36 92.2537 104.811 89.3619 102.234 87.6442C94.4789 82.476 77.7569 71.3316 69.4194 65.775C66.4302 63.7833 62.5369 63.7833 59.5477 65.775C51.2103 71.3316 34.4883 82.476 26.7328 87.6442C24.1558 89.3619 22.6074 92.2537 22.6074 95.3505C22.6074 106.168 22.6074 131.706 22.6074 141.543C22.6074 143.73 24.38 145.502 26.5664 145.502C40.6603 145.502 88.3068 145.502 102.401 145.502C104.587 145.502 106.36 143.73 106.36 141.543C106.36 131.706 106.36 106.168 106.36 95.3505Z" fill="url(#paint4_linear_1622_210939)"/>
<g filter="url(#filter1_f_1622_210939)">
<path fill-rule="evenodd" clip-rule="evenodd" d="M98.5008 84.3514L76.4464 72.582H54.704L30.4678 90.4187V118.455H98.5008V84.3514Z" fill="#8FA8FB"/>
</g>
<path fill-rule="evenodd" clip-rule="evenodd" d="M98.5008 75.1625C98.5008 73.7375 97.3459 72.582 95.9204 72.582C85.1474 72.582 43.8212 72.582 33.0482 72.582C31.6227 72.582 30.4678 73.7375 30.4678 75.1625C30.4678 84.844 30.4678 118.455 30.4678 118.455H98.5008V75.1625Z" fill="url(#paint5_linear_1622_210939)"/>
<g filter="url(#filter2_f_1622_210939)">
<path fill-rule="evenodd" clip-rule="evenodd" d="M106.033 93.4531L71.7098 113.731L64.4837 108.777L57.2581 113.731L28.3359 94.8141L30.4674 139.925L106.36 141.782L106.033 93.4531Z" fill="#CAD6FD"/>
</g>
<path fill-rule="evenodd" clip-rule="evenodd" d="M35.7994 107.301H88.857C89.6927 107.301 90.3703 106.623 90.3703 105.788C90.3703 104.952 89.6927 104.274 88.857 104.274H35.7994C34.9644 104.274 34.2861 104.952 34.2861 105.788C34.2861 106.623 34.9644 107.301 35.7994 107.301ZM53.7 101.621H92.4741C93.3091 101.621 93.9874 100.943 93.9874 100.108C93.9874 99.2731 93.3091 98.5949 92.4741 98.5949H53.7C52.865 98.5949 52.1868 99.2731 52.1868 100.108C52.1868 100.943 52.865 101.621 53.7 101.621ZM39.5308 91.1355H44.6198C45.4554 91.1355 46.1331 90.4573 46.1331 89.6222C46.1331 88.7872 45.4554 88.1089 44.6198 88.1089H39.5308C38.6958 88.1089 38.0175 88.7872 38.0175 89.6222C38.0175 90.4573 38.6958 91.1355 39.5308 91.1355ZM39.5308 85.3553H49.7088C50.5444 85.3553 51.2221 84.677 51.2221 83.842C51.2221 83.0064 50.5444 82.3281 49.7088 82.3281H39.5308C38.6958 82.3281 38.0175 83.0064 38.0175 83.842C38.0175 84.677 38.6958 85.3553 39.5308 85.3553Z" fill="url(#paint6_linear_1622_210939)"/>
<path fill-rule="evenodd" clip-rule="evenodd" d="M102.155 145.501C106.142 145.501 106.36 141.782 106.36 141.782V95.6923C105.729 92.6776 103.404 93.0252 100.559 94.8606C98.0943 96.4503 68.5703 115.967 68.5703 115.967C68.5703 115.967 94.6114 145.501 102.155 145.501Z" fill="url(#paint7_linear_1622_210939)"/>
<path fill-rule="evenodd" clip-rule="evenodd" d="M26.8121 145.501C22.8254 145.501 22.6074 141.782 22.6074 141.782V95.6923C23.2381 92.6776 25.5632 93.0252 28.408 94.8606C30.873 96.4503 60.3969 115.967 60.3969 115.967C60.3969 115.967 34.3559 145.501 26.8121 145.501Z" fill="url(#paint8_linear_1622_210939)"/>
<g filter="url(#filter3_f_1622_210939)">
<path fill-rule="evenodd" clip-rule="evenodd" d="M33.0554 133.86C28.2472 138.277 100.721 138.277 95.9129 133.86C87.1768 125.836 74.5384 115.722 68.0403 111.105C65.9099 109.595 63.0583 109.595 60.928 111.105C54.4299 115.722 41.7915 125.836 33.0554 133.86Z" fill="#B9C8FA"/>
</g>
<path fill-rule="evenodd" clip-rule="evenodd" d="M22.9336 143.119C23.5428 144.521 24.94 145.501 26.5659 145.501C40.6599 145.501 88.3064 145.501 102.4 145.501C104.026 145.501 105.423 144.521 106.033 143.119C105.232 140.491 102.851 138.277 97.7603 133.86C88.5102 125.836 74.5374 115.722 68.0393 111.105C65.9089 109.595 63.0573 109.595 60.9269 111.105C54.4288 115.722 40.456 125.836 31.206 133.86C26.1153 138.277 23.7347 140.491 22.9336 143.119Z" fill="url(#paint9_linear_1622_210939)"/>
<path fill-rule="evenodd" clip-rule="evenodd" d="M21.2903 67.2049L9.1535 60.3858C8.52792 60.0342 8.30543 59.2416 8.657 58.616C9.008 57.991 9.80116 57.7685 10.4262 58.1195L22.5635 64.9392C23.1891 65.2908 23.4116 66.0833 23.06 66.7089C22.7085 67.3339 21.9159 67.5564 21.2903 67.2049Z" fill="url(#paint10_linear_1622_210939)"/>
<path fill-rule="evenodd" clip-rule="evenodd" d="M20.12 73.8236L9.18907 72.8912C8.4746 72.8306 7.94414 72.2005 8.00471 71.486C8.06586 70.7716 8.6954 70.2405 9.41043 70.3017L20.3408 71.2341C21.0553 71.2952 21.5863 71.9248 21.5252 72.6392C21.464 73.3543 20.8345 73.8847 20.12 73.8236Z" fill="url(#paint11_linear_1622_210939)"/>
<path fill-rule="evenodd" clip-rule="evenodd" d="M25.8296 62.4613L22.387 56.2327C22.0399 55.6049 22.2675 54.814 22.8954 54.4669C23.5232 54.1199 24.3141 54.348 24.6611 54.9753L28.1044 61.2039C28.4508 61.8318 28.2233 62.6227 27.5954 62.9697C26.9676 63.3168 26.1767 63.0892 25.8296 62.4613Z" fill="url(#paint12_linear_1622_210939)"/>
<defs>
<filter id="filter0_f_1622_210939" x="48.4846" y="16.2892" width="89.6803" height="130.095" filterUnits="userSpaceOnUse" color-interpolation-filters="sRGB">
<feFlood flood-opacity="0" result="BackgroundImageFix"/>
<feBlend mode="normal" in="SourceGraphic" in2="BackgroundImageFix" result="shape"/>
<feGaussianBlur stdDeviation="6.61905" result="effect1_foregroundBlur_1622_210939"/>
</filter>
<filter id="filter1_f_1622_210939" x="16.4678" y="58.582" width="96.0332" height="73.873" filterUnits="userSpaceOnUse" color-interpolation-filters="sRGB">
<feFlood flood-opacity="0" result="BackgroundImageFix"/>
<feBlend mode="normal" in="SourceGraphic" in2="BackgroundImageFix" result="shape"/>
<feGaussianBlur stdDeviation="7" result="effect1_foregroundBlur_1622_210939"/>
</filter>
<filter id="filter2_f_1622_210939" x="13.1931" y="78.3103" width="108.31" height="78.6138" filterUnits="userSpaceOnUse" color-interpolation-filters="sRGB">
<feFlood flood-opacity="0" result="BackgroundImageFix"/>
<feBlend mode="normal" in="SourceGraphic" in2="BackgroundImageFix" result="shape"/>
<feGaussianBlur stdDeviation="7.57143" result="effect1_foregroundBlur_1622_210939"/>
</filter>
<filter id="filter3_f_1622_210939" x="19.2071" y="96.3536" width="90.5545" height="54.4373" filterUnits="userSpaceOnUse" color-interpolation-filters="sRGB">
<feFlood flood-opacity="0" result="BackgroundImageFix"/>
<feBlend mode="normal" in="SourceGraphic" in2="BackgroundImageFix" result="shape"/>
<feGaussianBlur stdDeviation="6.80952" result="effect1_foregroundBlur_1622_210939"/>
</filter>
<linearGradient id="paint0_linear_1622_210939" x1="104.924" y1="13.7205" x2="107.051" y2="93.7539" gradientUnits="userSpaceOnUse">
<stop stop-color="#EEF2FF"/>
<stop offset="1" stop-color="#C4D0FB"/>
</linearGradient>
<linearGradient id="paint1_linear_1622_210939" x1="134.002" y1="27.1348" x2="135.135" y2="56.4252" gradientUnits="userSpaceOnUse">
<stop stop-color="#E3E9FE"/>
<stop offset="1" stop-color="#B1C2FC"/>
</linearGradient>
<linearGradient id="paint2_linear_1622_210939" x1="74.5326" y1="25.4914" x2="95.8025" y2="98.9984" gradientUnits="userSpaceOnUse">
<stop stop-color="#EEF2FF"/>
<stop offset="1" stop-color="#D7DFFC"/>
</linearGradient>
<linearGradient id="paint3_linear_1622_210939" x1="104.592" y1="27.6757" x2="113.268" y2="55.6747" gradientUnits="userSpaceOnUse">
<stop stop-color="#E3E9FE"/>
<stop offset="1" stop-color="#B1C2FC"/>
</linearGradient>
<linearGradient id="paint4_linear_1622_210939" x1="64.4836" y1="57.1042" x2="64.4836" y2="102.851" gradientUnits="userSpaceOnUse">
<stop stop-color="#DDE5FE"/>
<stop offset="1" stop-color="#B6C5FB"/>
</linearGradient>
<linearGradient id="paint5_linear_1622_210939" x1="37.2885" y1="70.6606" x2="79.8578" y2="137.764" gradientUnits="userSpaceOnUse">
<stop stop-color="#F9FBFF"/>
<stop offset="1" stop-color="#E1E8FD"/>
</linearGradient>
<linearGradient id="paint6_linear_1622_210939" x1="38.0634" y1="82.2919" x2="89.1176" y2="107.024" gradientUnits="userSpaceOnUse">
<stop stop-color="#DDE5FE"/>
<stop offset="1" stop-color="#AEC0FC"/>
</linearGradient>
<linearGradient id="paint7_linear_1622_210939" x1="60.3972" y1="95.5208" x2="60.3972" y2="145.501" gradientUnits="userSpaceOnUse">
<stop stop-color="#E5EBFF"/>
<stop offset="1" stop-color="#B9C8FA"/>
</linearGradient>
<linearGradient id="paint8_linear_1622_210939" x1="60.3972" y1="95.5208" x2="60.3972" y2="145.501" gradientUnits="userSpaceOnUse">
<stop stop-color="#E5EBFF"/>
<stop offset="1" stop-color="#B9C8FA"/>
</linearGradient>
<linearGradient id="paint9_linear_1622_210939" x1="64.5077" y1="109.973" x2="64.1365" y2="145.502" gradientUnits="userSpaceOnUse">
<stop stop-color="#C7D3FE"/>
<stop offset="1" stop-color="#9DB3FF"/>
</linearGradient>
<linearGradient id="paint10_linear_1622_210939" x1="16.9666" y1="54.4117" x2="25.8325" y2="70.9978" gradientUnits="userSpaceOnUse">
<stop stop-color="#A5B9FD"/>
<stop offset="1" stop-color="#7C99FB"/>
</linearGradient>
<linearGradient id="paint11_linear_1622_210939" x1="17.9419" y1="65.703" x2="23.4281" y2="75.6721" gradientUnits="userSpaceOnUse">
<stop stop-color="#A5B9FD"/>
<stop offset="1" stop-color="#7C99FB"/>
</linearGradient>
<linearGradient id="paint12_linear_1622_210939" x1="24.4107" y1="54.0851" x2="27.9552" y2="66.0613" gradientUnits="userSpaceOnUse">
<stop stop-color="#A5B9FD"/>
<stop offset="1" stop-color="#7C99FB"/>
</linearGradient>
</defs>
</svg>
