<svg width="156" height="161" viewBox="0 0 156 161" fill="none" xmlns="http://www.w3.org/2000/svg">
<g filter="url(#filter0_f_1586_331530)">
<path d="M81.415 148C112.648 148 137.967 146.307 137.967 144.219C137.967 142.13 112.648 140.438 81.415 140.438C50.1821 140.438 24.8628 142.13 24.8628 144.219C24.8628 146.307 50.1821 148 81.415 148Z" fill="#CBD6F9"/>
</g>
<path fill-rule="evenodd" clip-rule="evenodd" d="M16.7446 71.0134C16.7446 71.0134 22.1537 59.6096 24.9781 53.6554C25.9997 51.5018 28.1702 50.1289 30.5544 50.1289H124.986C127.369 50.1289 129.54 51.5018 130.562 53.6554C133.386 59.6096 138.796 71.0134 138.796 71.0134H16.7446Z" fill="url(#paint0_linear_1586_331530)"/>
<path fill-rule="evenodd" clip-rule="evenodd" d="M60.662 30.4493C60.4932 29.8189 60.0802 29.2813 59.5148 28.9546C58.9499 28.6285 58.2779 28.54 57.6469 28.7088C50.0958 30.7323 26.7113 36.998 19.1597 39.0215C18.5287 39.1903 17.9911 39.6034 17.6649 40.1682C17.3382 40.7337 17.2497 41.4056 17.4191 42.0366C19.0946 48.2903 23.6116 65.1468 25.2871 71.401C25.4559 72.0314 25.8684 72.569 26.4338 72.8957C26.9993 73.2219 27.6712 73.3104 28.3022 73.1416C35.8534 71.118 59.2378 64.8523 66.7895 62.8288C67.4199 62.66 67.958 62.2475 68.2842 61.6821C68.6109 61.1166 68.6988 60.4447 68.53 59.8137C66.8545 53.56 62.3376 36.7035 60.662 30.4493Z" fill="url(#paint1_linear_1586_331530)"/>
<path fill-rule="evenodd" clip-rule="evenodd" d="M27.3922 71.2361L66.6252 60.7234L58.5573 30.6133L19.3237 41.126L27.3922 71.2361Z" fill="url(#paint2_linear_1586_331530)"/>
<path fill-rule="evenodd" clip-rule="evenodd" d="M23.7974 57.8194C29.3064 51.6056 33.9064 49.983 41.3624 52.6496C54.1025 57.2064 63.5013 49.0625 63.5013 49.0625L66.6251 60.7214L27.3921 71.2341L23.7974 57.8194Z" fill="url(#paint3_linear_1586_331530)"/>
<path fill-rule="evenodd" clip-rule="evenodd" d="M32.5395 42.1841C33.8244 41.8399 35.147 42.6037 35.4917 43.8886C35.8359 45.1741 35.0722 46.4967 33.7873 46.8409C32.5023 47.1856 31.1792 46.4219 30.835 45.1364C30.4908 43.8514 31.2545 42.5288 32.5395 42.1841Z" fill="url(#paint4_linear_1586_331530)"/>
<path fill-rule="evenodd" clip-rule="evenodd" d="M136.046 51.2632C136.215 50.6322 136.126 49.9602 135.8 49.3948C135.473 48.8294 134.936 48.4169 134.305 48.2481C126.754 46.2246 103.369 39.9589 95.8175 37.9353C95.187 37.7665 94.5151 37.855 93.9496 38.1812C93.3842 38.5079 92.9717 39.0454 92.8029 39.6759C91.1268 45.9301 86.6104 62.7866 84.9344 69.0403C84.7655 69.6712 84.854 70.3432 85.1802 70.9086C85.5069 71.4735 86.0445 71.8865 86.6749 72.0554C94.2266 74.0789 117.611 80.3446 125.163 82.3681C125.793 82.5369 126.465 82.4484 127.031 82.1223C127.596 81.7956 128.008 81.258 128.177 80.6276C129.853 74.3734 134.37 57.5169 136.046 51.2632Z" fill="url(#paint5_linear_1586_331530)"/>
<path fill-rule="evenodd" clip-rule="evenodd" d="M86.8394 69.9499L126.073 80.4626L134.141 50.3526L94.9073 39.8398L86.8394 69.9499Z" fill="url(#paint6_linear_1586_331530)"/>
<path fill-rule="evenodd" clip-rule="evenodd" d="M90.4335 56.5354C98.3119 53.9087 103.106 54.803 108.231 60.8409C116.985 71.1569 129.197 68.8039 129.197 68.8039L126.073 80.4628L86.8394 69.9501L90.4335 56.5354Z" fill="url(#paint7_linear_1586_331530)"/>
<path fill-rule="evenodd" clip-rule="evenodd" d="M105.824 47.364C107.109 47.7082 107.873 49.0308 107.528 50.3163C107.184 51.6012 105.861 52.365 104.576 52.0202C103.291 51.6761 102.527 50.3534 102.872 49.0685C103.216 47.783 104.539 47.0193 105.824 47.364Z" fill="url(#paint8_linear_1586_331530)"/>
<g filter="url(#filter1_f_1586_331530)">
<path fill-rule="evenodd" clip-rule="evenodd" d="M105.849 42.3897C105.849 41.5397 105.512 40.7246 104.91 40.1242C101.848 37.0637 92.1679 27.3929 89.0731 24.3002C88.4579 23.6861 87.6204 23.348 86.7512 23.3638C81.3329 23.4611 61.1892 23.8238 53.2753 23.9664C51.4867 23.9986 50.0537 25.4573 50.0537 27.2465C50.0537 40.4044 50.0537 89.3711 50.0537 89.3711H105.849V42.3897Z" fill="#BFCDFD"/>
</g>
<path fill-rule="evenodd" clip-rule="evenodd" d="M104.163 27.0505C104.163 26.2004 103.825 25.3853 103.224 24.7849C100.153 21.7168 90.4313 12.0034 87.3621 8.93693C86.7617 8.33708 85.9477 8 85.0987 8C79.2165 8 55.3847 8 46.5907 8C44.7791 8 43.3101 9.46849 43.3101 11.2806C43.3101 25.0483 43.3101 77.454 43.3101 77.454H104.163V27.0505Z" fill="url(#paint9_linear_1586_331530)"/>
<path d="M57.0789 21.5601C58.8192 21.5601 60.23 20.1493 60.23 18.4089C60.23 16.6686 58.8192 15.2578 57.0789 15.2578C55.3385 15.2578 53.9277 16.6686 53.9277 18.4089C53.9277 20.1493 55.3385 21.5601 57.0789 21.5601Z" fill="url(#paint10_linear_1586_331530)"/>
<path fill-rule="evenodd" clip-rule="evenodd" d="M57.0788 20.8086C60.0071 20.8086 62.3846 23.1861 62.3846 26.1149C62.3846 29.0432 51.7725 29.0432 51.7725 26.1149C51.7725 23.1861 54.15 20.8086 57.0788 20.8086Z" fill="url(#paint11_linear_1586_331530)"/>
<path fill-rule="evenodd" clip-rule="evenodd" d="M87.3625 8.93802C86.7615 8.33762 85.947 8 85.0975 8C84.2878 8 83.4077 8 83.4077 8C83.4077 8 84.2326 8.03223 85.2062 8.06993C86.9369 8.13767 88.3005 9.56901 88.2841 11.3008C88.2579 14.0362 88.2207 18.0025 88.194 20.7723C88.177 22.5543 89.6084 24.0125 91.3899 24.0294C94.1821 24.0562 98.191 24.0944 100.928 24.1201C102.633 24.1365 104.027 25.4859 104.098 27.1898C104.133 28.0492 104.163 28.755 104.163 28.755V27.0647C104.163 26.2157 103.825 25.4006 103.224 24.8002C100.155 21.7305 90.4317 12.0078 87.3625 8.93802Z" fill="url(#paint12_linear_1586_331530)"/>
<path fill-rule="evenodd" clip-rule="evenodd" d="M63.2367 39.0368H94.5596C95.1627 39.0368 95.6522 38.5468 95.6522 37.9442C95.6522 37.3411 95.1627 36.8516 94.5596 36.8516H63.2367C62.6341 36.8516 62.144 37.3411 62.144 37.9442C62.144 38.5468 62.6341 39.0368 63.2367 39.0368Z" fill="#CAD5FD"/>
<path fill-rule="evenodd" clip-rule="evenodd" d="M52.9129 45.7399H94.5595C95.1627 45.7399 95.6522 45.2499 95.6522 44.6473C95.6522 44.0442 95.1627 43.5547 94.5595 43.5547H52.9129C52.3098 43.5547 51.8203 44.0442 51.8203 44.6473C51.8203 45.2499 52.3098 45.7399 52.9129 45.7399Z" fill="#CAD5FD"/>
<path fill-rule="evenodd" clip-rule="evenodd" d="M52.9129 52.4392H94.5595C95.1627 52.4392 95.6522 51.9497 95.6522 51.3465C95.6522 50.7439 95.1627 50.2539 94.5595 50.2539H52.9129C52.3098 50.2539 51.8203 50.7439 51.8203 51.3465C51.8203 51.9497 52.3098 52.4392 52.9129 52.4392Z" fill="#CAD5FD"/>
<path fill-rule="evenodd" clip-rule="evenodd" d="M52.9129 59.1423H94.5595C95.1627 59.1423 95.6522 58.6528 95.6522 58.0497C95.6522 57.4465 95.1627 56.957 94.5595 56.957H52.9129C52.3098 56.957 51.8203 57.4465 51.8203 58.0497C51.8203 58.6528 52.3098 59.1423 52.9129 59.1423Z" fill="#CAD5FD"/>
<path fill-rule="evenodd" clip-rule="evenodd" d="M52.9129 65.8415H83.6999C84.303 65.8415 84.7925 65.352 84.7925 64.7489C84.7925 64.1457 84.303 63.6562 83.6999 63.6562H52.9129C52.3098 63.6562 51.8203 64.1457 51.8203 64.7489C51.8203 65.352 52.3098 65.8415 52.9129 65.8415Z" fill="#CAD5FD"/>
<g filter="url(#filter2_f_1586_331530)">
<path fill-rule="evenodd" clip-rule="evenodd" d="M134.856 73.1735C135.324 70.8702 134.733 68.4779 133.246 66.6576C131.759 64.8373 129.533 63.7812 127.182 63.7812C105.033 63.7812 50.5054 63.7812 28.3567 63.7812C26.0059 63.7812 23.7797 64.8373 22.2926 66.6576C20.8055 68.4779 20.2144 70.8702 20.6832 73.1735C23.1716 85.4022 27.4536 106.445 29.5804 116.896C30.3229 120.544 33.5314 123.166 37.254 123.166H118.285C122.007 123.166 125.216 120.544 125.958 116.896C128.085 106.445 132.367 85.4022 134.856 73.1735Z" fill="#A4B7F5"/>
</g>
<path fill-rule="evenodd" clip-rule="evenodd" d="M139.433 75.6292C139.811 73.3587 139.171 71.0368 137.683 69.2804C136.195 67.5246 134.01 66.5117 131.709 66.5117C108.356 66.5117 47.1834 66.5117 23.8307 66.5117C21.5291 66.5117 19.3438 67.5246 17.8562 69.2804C16.3686 71.0368 15.7283 73.3587 16.1064 75.6292C18.7494 91.4968 24.1323 123.819 26.4399 137.675C27.0687 141.451 30.3357 144.218 34.1637 144.218H121.376C125.204 144.218 128.471 141.451 129.099 137.675C131.407 123.819 136.79 91.4968 139.433 75.6292Z" fill="url(#paint13_linear_1586_331530)"/>
<path fill-rule="evenodd" clip-rule="evenodd" d="M98.5551 95.4818C98.5551 93.9046 97.9284 92.3924 96.8134 91.2768C95.6978 90.1618 94.1856 89.5352 92.6084 89.5352H54.054C52.4768 89.5352 50.9646 90.1618 49.8496 91.2768C48.734 92.3924 48.1079 93.9046 48.1079 95.4818V122.841C48.1079 124.418 48.734 125.931 49.8496 127.046C50.9646 128.161 52.4768 128.787 54.054 128.787H92.6084C94.1856 128.787 95.6978 128.161 96.8134 127.046C97.9284 125.931 98.5551 124.418 98.5551 122.841V95.4818Z" fill="url(#paint14_linear_1586_331530)"/>
<path fill-rule="evenodd" clip-rule="evenodd" d="M83.8745 116.508C83.0971 116.508 82.359 116.848 81.8537 117.439C81.3003 118.088 80.5644 118.949 80.0104 119.597C79.5057 120.188 78.7676 120.528 77.9902 120.528C75.7306 120.528 70.9318 120.528 68.6723 120.528C67.8954 120.528 67.1568 120.188 66.652 119.597C66.098 118.949 65.3627 118.088 64.8087 117.439C64.3039 116.848 63.5653 116.508 62.7879 116.508C60.2262 116.508 54.2517 116.508 50.7652 116.508C49.2978 116.508 48.1079 117.698 48.1079 119.166C48.1079 120.25 48.1079 121.551 48.1079 122.841C48.1079 126.125 50.7701 128.787 54.054 128.787C63.7614 128.787 82.901 128.787 92.6084 128.787C95.8923 128.787 98.5551 126.125 98.5551 122.841C98.5551 121.551 98.5551 120.25 98.5551 119.166C98.5551 117.698 97.3652 116.508 95.8972 116.508C92.4107 116.508 86.4362 116.508 83.8745 116.508Z" fill="url(#paint15_linear_1586_331530)"/>
<path fill-rule="evenodd" clip-rule="evenodd" d="M80.4476 91.1302C74.1109 96.3092 69.4705 103.676 70.0714 112.147C70.1178 112.776 70.5429 113.314 71.1444 113.504C71.7464 113.694 72.4031 113.498 72.8024 113.009C78.206 106.322 83.5954 102.679 87.9872 101.401C87.9872 101.401 89.6349 103.646 91.1903 105.765C91.689 106.444 92.5331 106.777 93.3613 106.62C94.1895 106.464 94.8544 105.846 95.0713 105.032C96.4289 99.9296 98.6174 91.7033 99.7308 87.5169C99.9012 86.8766 99.7723 86.1931 99.3801 85.6583C98.9878 85.124 98.3743 84.7962 97.7122 84.7667C93.3843 84.5744 84.8803 84.1974 79.6057 83.9631C78.7638 83.9259 77.9749 84.375 77.5778 85.118C77.1801 85.8615 77.2451 86.7668 77.7433 87.4464C79.096 89.2885 80.4476 91.1302 80.4476 91.1302Z" fill="url(#paint16_linear_1586_331530)"/>
<defs>
<filter id="filter0_f_1586_331530" x="12.0057" y="127.58" width="138.819" height="33.2768" filterUnits="userSpaceOnUse" color-interpolation-filters="sRGB">
<feFlood flood-opacity="0" result="BackgroundImageFix"/>
<feBlend mode="normal" in="SourceGraphic" in2="BackgroundImageFix" result="shape"/>
<feGaussianBlur stdDeviation="6.42857" result="effect1_foregroundBlur_1586_331530"/>
</filter>
<filter id="filter1_f_1586_331530" x="38.7204" y="12.0299" width="78.4621" height="88.6745" filterUnits="userSpaceOnUse" color-interpolation-filters="sRGB">
<feFlood flood-opacity="0" result="BackgroundImageFix"/>
<feBlend mode="normal" in="SourceGraphic" in2="BackgroundImageFix" result="shape"/>
<feGaussianBlur stdDeviation="5.66667" result="effect1_foregroundBlur_1586_331530"/>
</filter>
<filter id="filter2_f_1586_331530" x="5.38302" y="48.6384" width="144.773" height="89.6705" filterUnits="userSpaceOnUse" color-interpolation-filters="sRGB">
<feFlood flood-opacity="0" result="BackgroundImageFix"/>
<feBlend mode="normal" in="SourceGraphic" in2="BackgroundImageFix" result="shape"/>
<feGaussianBlur stdDeviation="7.57143" result="effect1_foregroundBlur_1586_331530"/>
</filter>
<linearGradient id="paint0_linear_1586_331530" x1="14.7752" y1="50.1287" x2="14.7833" y2="74.2495" gradientUnits="userSpaceOnUse">
<stop stop-color="#C7D3FE"/>
<stop offset="1" stop-color="#98ACF0"/>
</linearGradient>
<linearGradient id="paint1_linear_1586_331530" x1="28.7912" y1="36.4407" x2="49.8031" y2="64.8381" gradientUnits="userSpaceOnUse">
<stop stop-color="#CFDAFE"/>
<stop offset="1" stop-color="#B1C2FC"/>
</linearGradient>
<linearGradient id="paint2_linear_1586_331530" x1="26.5591" y1="37.1565" x2="58.9064" y2="71.8293" gradientUnits="userSpaceOnUse">
<stop stop-color="#F9FBFF"/>
<stop offset="1" stop-color="#E1E8FD"/>
</linearGradient>
<linearGradient id="paint3_linear_1586_331530" x1="31.555" y1="51.9992" x2="43.4485" y2="69.0805" gradientUnits="userSpaceOnUse">
<stop stop-color="#D5DEFE"/>
<stop offset="1" stop-color="#BBC8F5"/>
</linearGradient>
<linearGradient id="paint4_linear_1586_331530" x1="31.6637" y1="42.1018" x2="35.0944" y2="45.9546" gradientUnits="userSpaceOnUse">
<stop stop-color="#A5B9FD"/>
<stop offset="1" stop-color="#7C99FB"/>
</linearGradient>
<linearGradient id="paint5_linear_1586_331530" x1="105.45" y1="40.5162" x2="109.448" y2="75.6151" gradientUnits="userSpaceOnUse">
<stop stop-color="#CFDAFE"/>
<stop offset="1" stop-color="#B1C2FC"/>
</linearGradient>
<linearGradient id="paint6_linear_1586_331530" x1="103.158" y1="40.0197" x2="113.835" y2="86.221" gradientUnits="userSpaceOnUse">
<stop stop-color="#F9FBFF"/>
<stop offset="1" stop-color="#E1E8FD"/>
</linearGradient>
<linearGradient id="paint7_linear_1586_331530" x1="100.062" y1="55.3738" x2="101.822" y2="76.1135" gradientUnits="userSpaceOnUse">
<stop stop-color="#D5DEFE"/>
<stop offset="1" stop-color="#BBC8F5"/>
</linearGradient>
<linearGradient id="paint8_linear_1586_331530" x1="105.107" y1="46.8545" x2="106.152" y2="51.9065" gradientUnits="userSpaceOnUse">
<stop stop-color="#A5B9FD"/>
<stop offset="1" stop-color="#7C99FB"/>
</linearGradient>
<linearGradient id="paint9_linear_1586_331530" x1="55.3191" y1="3.62961" x2="83.967" y2="98.3943" gradientUnits="userSpaceOnUse">
<stop stop-color="#F9FBFF"/>
<stop offset="1" stop-color="#E1E8FD"/>
</linearGradient>
<linearGradient id="paint10_linear_1586_331530" x1="52.8985" y1="16.2996" x2="60.5034" y2="29.4721" gradientUnits="userSpaceOnUse">
<stop stop-color="#A5B9FD"/>
<stop offset="1" stop-color="#7C99FB"/>
</linearGradient>
<linearGradient id="paint11_linear_1586_331530" x1="52.8984" y1="15.5482" x2="60.5034" y2="28.7208" gradientUnits="userSpaceOnUse">
<stop stop-color="#A5B9FD"/>
<stop offset="1" stop-color="#7C99FB"/>
</linearGradient>
<linearGradient id="paint12_linear_1586_331530" x1="89.1719" y1="8.00004" x2="95.1572" y2="27.3173" gradientUnits="userSpaceOnUse">
<stop stop-color="#E3E9FE"/>
<stop offset="1" stop-color="#B1C2FC"/>
</linearGradient>
<linearGradient id="paint13_linear_1586_331530" x1="52.0079" y1="66.5117" x2="73.4282" y2="146.285" gradientUnits="userSpaceOnUse">
<stop stop-color="#DCE3FC"/>
<stop offset="1" stop-color="#ACBDF6"/>
</linearGradient>
<linearGradient id="paint14_linear_1586_331530" x1="60.6021" y1="92.2176" x2="68.0489" y2="130.992" gradientUnits="userSpaceOnUse">
<stop stop-color="#F1F4FF"/>
<stop offset="1" stop-color="#C9D5FB"/>
</linearGradient>
<linearGradient id="paint15_linear_1586_331530" x1="57.1855" y1="110.927" x2="56.7253" y2="128.787" gradientUnits="userSpaceOnUse">
<stop stop-color="#C7D3FE"/>
<stop offset="1" stop-color="#869EED"/>
</linearGradient>
<linearGradient id="paint16_linear_1586_331530" x1="77.2046" y1="83.1966" x2="89.2058" y2="107.966" gradientUnits="userSpaceOnUse">
<stop stop-color="#A5B9FD"/>
<stop offset="1" stop-color="#7C99FB"/>
</linearGradient>
</defs>
</svg>
