<svg width="156" height="156" viewBox="0 0 156 156" fill="none" xmlns="http://www.w3.org/2000/svg">
<path fill-rule="evenodd" clip-rule="evenodd" d="M127.356 39.7916C127.356 39.4564 127.222 39.1348 126.985 38.8977C126.748 38.6605 126.426 38.5273 126.091 38.5273C115.495 38.5273 31.8882 38.5273 12.142 38.5273C11.0391 38.5273 9.9817 38.9675 9.20368 39.7499C8.4262 40.5322 7.99305 41.5929 8.00008 42.6958C8.09592 57.7305 8.42239 109.065 8.51768 124.014C8.53176 126.292 10.3824 128.13 12.6596 128.13C30.4117 128.13 99.5275 128.13 99.5275 128.13C114.835 125.778 124.111 118.761 127.356 107.082V39.7916Z" fill="url(#paint0_linear_2974_421972)"/>
<path fill-rule="evenodd" clip-rule="evenodd" d="M127.355 107.082C124.082 118.975 114.679 125.888 99.5273 128.13C99.5273 128.13 106.647 120.28 109.247 109.158C109.453 108.248 110.253 107.596 111.186 107.577C116.186 107.46 121.561 107.301 127.355 107.082Z" fill="url(#paint1_linear_2974_421972)"/>
<path fill-rule="evenodd" clip-rule="evenodd" d="M76.2189 52.0192C76.2189 50.9261 75.7847 49.8779 75.0121 49.1053C74.2395 48.3327 73.1913 47.8984 72.0982 47.8984C60.9936 47.8984 30.5364 47.8984 19.4313 47.8984C18.3387 47.8984 17.2906 48.3327 16.5179 49.1053C15.7448 49.8779 15.3105 50.9261 15.3105 52.0192C15.3105 53.1123 15.7448 54.16 16.5179 54.9331C17.2906 55.7057 18.3387 56.14 19.4313 56.14C30.5364 56.14 60.9936 56.14 72.0982 56.14C73.1913 56.14 74.2395 55.7057 75.0121 54.9331C75.7847 54.16 76.2189 53.1123 76.2189 52.0192Z" fill="url(#paint2_linear_2974_421972)"/>
<path fill-rule="evenodd" clip-rule="evenodd" d="M84.3332 68.5575C84.3332 67.7643 83.6905 67.1211 82.8973 67.1211C75.3277 67.1211 40.1266 67.1211 32.5575 67.1211C31.7643 67.1211 31.1211 67.7643 31.1211 68.5575C31.1211 69.264 31.1211 70.1135 31.1211 70.8195C31.1211 71.6127 31.7643 72.2559 32.5575 72.2559C40.1266 72.2559 75.3277 72.2559 82.8973 72.2559C83.6905 72.2559 84.3332 71.6127 84.3332 70.8195C84.3332 70.1135 84.3332 69.264 84.3332 68.5575Z" fill="url(#paint3_linear_2974_421972)"/>
<path fill-rule="evenodd" clip-rule="evenodd" d="M64.0461 78.2723C64.0461 77.8912 63.8945 77.5263 63.6254 77.2566C63.3557 76.9875 62.9908 76.8359 62.6097 76.8359C57.1857 76.8359 37.9815 76.8359 32.5575 76.8359C32.1763 76.8359 31.8114 76.9875 31.5418 77.2566C31.2727 77.5263 31.1211 77.8912 31.1211 78.2723C31.1211 78.9789 31.1211 79.8278 31.1211 80.5344C31.1211 80.9156 31.2727 81.2805 31.5418 81.5501C31.8114 81.8192 32.1763 81.9708 32.5575 81.9708C37.9815 81.9708 57.1857 81.9708 62.6097 81.9708C62.9908 81.9708 63.3557 81.8192 63.6254 81.5501C63.8945 81.2805 64.0461 80.9156 64.0461 80.5344C64.0461 79.8278 64.0461 78.9789 64.0461 78.2723Z" fill="url(#paint4_linear_2974_421972)"/>
<path fill-rule="evenodd" clip-rule="evenodd" d="M100.815 87.9833C100.815 87.1901 100.171 86.5469 99.3782 86.5469C90.3549 86.5469 41.5808 86.5469 32.5575 86.5469C31.7643 86.5469 31.1211 87.1901 31.1211 87.9833C31.1211 88.6893 31.1211 89.5388 31.1211 90.2453C31.1211 91.0385 31.7643 91.6817 32.5575 91.6817C41.5808 91.6817 90.3549 91.6817 99.3782 91.6817C100.171 91.6817 100.815 91.0385 100.815 90.2453C100.815 89.5388 100.815 88.6893 100.815 87.9833Z" fill="url(#paint5_linear_2974_421972)"/>
<path d="M24.7832 72.2559C26.2012 72.2559 27.3507 71.1065 27.3507 69.6885C27.3507 68.2706 26.2012 67.1211 24.7832 67.1211C23.3653 67.1211 22.2158 68.2706 22.2158 69.6885C22.2158 71.1065 23.3653 72.2559 24.7832 72.2559Z" fill="#93ABFC"/>
<path d="M24.7832 81.9708C26.2012 81.9708 27.3507 80.8213 27.3507 79.4034C27.3507 77.9854 26.2012 76.8359 24.7832 76.8359C23.3653 76.8359 22.2158 77.9854 22.2158 79.4034C22.2158 80.8213 23.3653 81.9708 24.7832 81.9708Z" fill="#93ABFC"/>
<path d="M24.7832 91.6817C26.2012 91.6817 27.3507 90.5322 27.3507 89.1143C27.3507 87.6963 26.2012 86.5469 24.7832 86.5469C23.3653 86.5469 22.2158 87.6963 22.2158 89.1143C22.2158 90.5322 23.3653 91.6817 24.7832 91.6817Z" fill="#93ABFC"/>
<path d="M45.4988 117.607C49.4428 117.607 52.6401 114.41 52.6401 110.466C52.6401 106.522 49.4428 103.324 45.4988 103.324C41.5547 103.324 38.3574 106.522 38.3574 110.466C38.3574 114.41 41.5547 117.607 45.4988 117.607Z" fill="url(#paint6_linear_2974_421972)"/>
<path fill-rule="evenodd" clip-rule="evenodd" d="M45.4987 102.574C41.1435 102.574 37.6074 106.11 37.6074 110.465C37.6074 114.821 41.1435 118.357 45.4987 118.357C49.8539 118.357 53.3899 114.821 53.3899 110.465C53.3899 106.11 49.8539 102.574 45.4987 102.574ZM45.4987 104.074C49.0266 104.074 51.8901 106.938 51.8901 110.465C51.8901 113.993 49.0266 116.857 45.4987 116.857C41.9713 116.857 39.1072 113.993 39.1072 110.465C39.1072 106.938 41.9713 104.074 45.4987 104.074Z" fill="#ECF0FE"/>
<path d="M35.1414 117.607C39.0854 117.607 42.2827 114.41 42.2827 110.466C42.2827 106.522 39.0854 103.324 35.1414 103.324C31.1973 103.324 28 106.522 28 110.466C28 114.41 31.1973 117.607 35.1414 117.607Z" fill="#A3B8FF"/>
<path fill-rule="evenodd" clip-rule="evenodd" d="M35.1412 102.574C30.786 102.574 27.25 106.11 27.25 110.465C27.25 114.821 30.786 118.357 35.1412 118.357C39.4964 118.357 43.0325 114.821 43.0325 110.465C43.0325 106.11 39.4964 102.574 35.1412 102.574ZM35.1412 104.074C38.6686 104.074 41.5327 106.938 41.5327 110.465C41.5327 113.993 38.6686 116.857 35.1412 116.857C31.6133 116.857 28.7498 113.993 28.7498 110.465C28.7498 106.938 31.6133 104.074 35.1412 104.074Z" fill="#EDF1FE"/>
<path d="M24.7839 117.607C28.728 117.607 31.9253 114.41 31.9253 110.466C31.9253 106.522 28.728 103.324 24.7839 103.324C20.8399 103.324 17.6426 106.522 17.6426 110.466C17.6426 114.41 20.8399 117.607 24.7839 117.607Z" fill="url(#paint7_linear_2974_421972)"/>
<path fill-rule="evenodd" clip-rule="evenodd" d="M24.7838 102.574C20.4286 102.574 16.8926 106.11 16.8926 110.465C16.8926 114.821 20.4286 118.357 24.7838 118.357C29.139 118.357 32.6751 114.821 32.6751 110.465C32.6751 106.11 29.139 102.574 24.7838 102.574ZM24.7838 104.074C28.3112 104.074 31.1753 106.938 31.1753 110.465C31.1753 113.993 28.3112 116.857 24.7838 116.857C21.2564 116.857 18.3923 113.993 18.3923 110.465C18.3923 106.938 21.2564 104.074 24.7838 104.074Z" fill="#EDF2FE"/>
<path d="M127.036 32.2031H117.981V37.8301H127.036V32.2031Z" fill="#D4DEFE"/>
<path fill-rule="evenodd" clip-rule="evenodd" d="M144.731 44.8133C144.947 44.5713 145.058 44.2535 145.041 43.9297C145.022 43.6054 144.876 43.3022 144.634 43.0856C143.335 41.9248 140.966 39.8079 139.666 38.6471C139.424 38.4305 139.107 38.3195 138.783 38.3379C138.459 38.3558 138.155 38.502 137.939 38.744C136.611 40.2307 134.125 43.012 134.125 43.012L140.917 49.0814C140.917 49.0814 143.403 46.3001 144.731 44.8133Z" fill="#BECDFD"/>
<g filter="url(#filter0_f_2974_421972)">
<path fill-rule="evenodd" clip-rule="evenodd" d="M110.63 39.9499C114.178 38.076 136.578 87.9984 122.509 87.9984C108.44 87.9984 97.0166 76.576 97.0166 62.5066C97.0166 53.9332 101.259 46.3425 107.756 41.7209C108.671 41.0696 109.631 40.4772 110.63 39.9499Z" fill="#B8C8FE"/>
</g>
<path d="M122.509 87.9953C136.588 87.9953 148.001 76.5822 148.001 62.5035C148.001 48.4248 136.588 37.0117 122.509 37.0117C108.431 37.0117 97.0176 48.4248 97.0176 62.5035C97.0176 76.5822 108.431 87.9953 122.509 87.9953Z" fill="url(#paint8_linear_2974_421972)"/>
<path d="M122.508 85.3743C135.14 85.3743 145.379 75.1348 145.379 62.5036C145.379 49.8724 135.14 39.6328 122.508 39.6328C109.877 39.6328 99.6377 49.8724 99.6377 62.5036C99.6377 75.1348 109.877 85.3743 122.508 85.3743Z" fill="url(#paint9_linear_2974_421972)"/>
<path fill-rule="evenodd" clip-rule="evenodd" d="M122.509 39.6328V62.5036H99.6377C99.6377 49.8809 109.886 39.6328 122.509 39.6328Z" fill="#F5F8FE"/>
<path fill-rule="evenodd" clip-rule="evenodd" d="M122.177 59.5664L106.613 61.4706C106.043 61.4706 105.58 61.933 105.58 62.5031C105.58 63.0732 106.043 63.5361 106.613 63.5361L122.177 65.4398C123.797 65.4398 125.114 64.1241 125.114 62.5031C125.114 60.8826 123.797 59.5664 122.177 59.5664Z" fill="#9DB3FC"/>
<path d="M122.509 64.0429C123.358 64.0429 124.046 63.3548 124.046 62.5059C124.046 61.6569 123.358 60.9688 122.509 60.9688C121.66 60.9688 120.972 61.6569 120.972 62.5059C120.972 63.3548 121.66 64.0429 122.509 64.0429Z" fill="#ECF0FE"/>
<path fill-rule="evenodd" clip-rule="evenodd" d="M130.87 27.9264C130.87 27.4147 130.455 27 129.943 27C127.019 27 117.998 27 115.073 27C114.562 27 114.147 27.4147 114.147 27.9264C114.147 29.1733 114.147 31.379 114.147 32.6259C114.147 33.1376 114.562 33.5523 115.073 33.5523C117.998 33.5523 127.019 33.5523 129.943 33.5523C130.455 33.5523 130.87 33.1376 130.87 32.6259C130.87 31.379 130.87 29.1733 130.87 27.9264Z" fill="url(#paint10_linear_2974_421972)"/>
<defs>
<filter id="filter0_f_2974_421972" x="84.5404" y="27.4222" width="55.0393" height="73.052" filterUnits="userSpaceOnUse" color-interpolation-filters="sRGB">
<feFlood flood-opacity="0" result="BackgroundImageFix"/>
<feBlend mode="normal" in="SourceGraphic" in2="BackgroundImageFix" result="shape"/>
<feGaussianBlur stdDeviation="6.2381" result="effect1_foregroundBlur_2974_421972"/>
</filter>
<linearGradient id="paint0_linear_2974_421972" x1="18.8053" y1="34.7743" x2="115.818" y2="149.212" gradientUnits="userSpaceOnUse">
<stop stop-color="#F9FBFF"/>
<stop offset="1" stop-color="#E1E8FD"/>
</linearGradient>
<linearGradient id="paint1_linear_2974_421972" x1="109.577" y1="107.6" x2="117.112" y2="121.793" gradientUnits="userSpaceOnUse">
<stop stop-color="#CFDAFE"/>
<stop offset="1" stop-color="#B4C4FD"/>
</linearGradient>
<linearGradient id="paint2_linear_2974_421972" x1="15.3105" y1="47.8984" x2="15.3836" y2="66.102" gradientUnits="userSpaceOnUse">
<stop stop-color="#DCE4FF"/>
<stop offset="0.54" stop-color="#C1CFFF"/>
<stop offset="1" stop-color="#B7C7FF"/>
</linearGradient>
<linearGradient id="paint3_linear_2974_421972" x1="31.1211" y1="67.1213" x2="31.1378" y2="78.6195" gradientUnits="userSpaceOnUse">
<stop stop-color="#DCE4FF"/>
<stop offset="0.54" stop-color="#C9D6FF"/>
<stop offset="1" stop-color="#C2D0FF"/>
</linearGradient>
<linearGradient id="paint4_linear_2974_421972" x1="31.1211" y1="76.8359" x2="31.1902" y2="88.0765" gradientUnits="userSpaceOnUse">
<stop stop-color="#DCE4FF"/>
<stop offset="0.54" stop-color="#C9D6FF"/>
<stop offset="1" stop-color="#C2D0FF"/>
</linearGradient>
<linearGradient id="paint5_linear_2974_421972" x1="31.1211" y1="86.5469" x2="31.1286" y2="98.1155" gradientUnits="userSpaceOnUse">
<stop stop-color="#DCE4FF"/>
<stop offset="0.54" stop-color="#C9D6FF"/>
<stop offset="1" stop-color="#C2D0FF"/>
</linearGradient>
<linearGradient id="paint6_linear_2974_421972" x1="38.3574" y1="103.324" x2="55.3138" y2="113.792" gradientUnits="userSpaceOnUse">
<stop stop-color="#DCE4FF"/>
<stop offset="0.54" stop-color="#C9D6FF"/>
<stop offset="1" stop-color="#C2D0FF"/>
</linearGradient>
<linearGradient id="paint7_linear_2974_421972" x1="17.6426" y1="103.324" x2="34.599" y2="113.792" gradientUnits="userSpaceOnUse">
<stop stop-color="#DCE4FF"/>
<stop offset="0.54" stop-color="#C9D6FF"/>
<stop offset="1" stop-color="#C2D0FF"/>
</linearGradient>
<linearGradient id="paint8_linear_2974_421972" x1="120.511" y1="31.9089" x2="153.318" y2="34.195" gradientUnits="userSpaceOnUse">
<stop stop-color="#A5B9FD"/>
<stop offset="1" stop-color="#87A2FB"/>
</linearGradient>
<linearGradient id="paint9_linear_2974_421972" x1="109.448" y1="43.7313" x2="136.275" y2="80.7635" gradientUnits="userSpaceOnUse">
<stop stop-color="#DAE3FE"/>
<stop offset="1" stop-color="#C4D1FD"/>
</linearGradient>
<linearGradient id="paint10_linear_2974_421972" x1="121.853" y1="26.3444" x2="126.389" y2="31.6" gradientUnits="userSpaceOnUse">
<stop stop-color="#A5B9FD"/>
<stop offset="1" stop-color="#87A2FB"/>
</linearGradient>
</defs>
</svg>
