<svg width="25" height="24" viewBox="0 0 25 24" fill="none" xmlns="http://www.w3.org/2000/svg">
<path fill-rule="evenodd" clip-rule="evenodd" d="M12.2466 20C16.6649 20 20.2466 16.4183 20.2466 12C20.2466 7.58172 16.6649 4 12.2466 4C7.8283 4 4.24658 7.58172 4.24658 12C4.24658 16.4183 7.8283 20 12.2466 20ZM12.2466 22C17.7694 22 22.2466 17.5228 22.2466 12C22.2466 6.47715 17.7694 2 12.2466 2C6.72373 2 2.24658 6.47715 2.24658 12C2.24658 17.5228 6.72373 22 12.2466 22Z" fill="#9AA1B4"/>
<path fill-rule="evenodd" clip-rule="evenodd" d="M12.5524 15.1071L16.4947 10.3071C16.8704 9.84967 16.8215 9.16545 16.3764 8.77003C15.9197 8.36434 15.2297 8.42417 14.8446 8.89303L11.696 12.7266L10.1215 10.952C9.71812 10.4974 9.02613 10.4667 8.58606 10.889C8.15713 11.3006 8.13213 11.9861 8.52549 12.4295L10.9293 15.1388C11.1359 15.3716 11.4334 15.5061 11.7484 15.4998C12.0632 15.4936 12.355 15.3474 12.5524 15.1071ZM11.7107 13.4965L15.231 9.21037C15.4379 8.95841 15.8021 8.92862 16.0443 9.14384C16.0746 9.17074 16.1016 9.2002 16.1251 9.23164C16.1016 9.2002 16.0746 9.17075 16.0444 9.14385C15.8021 8.92863 15.4379 8.95842 15.231 9.21038L11.7107 13.4965L11.7107 13.4965ZM8.80473 11.9536C8.69595 11.7216 8.74053 11.4338 8.93227 11.2498C9.16644 11.0251 9.53143 11.0403 9.7475 11.2838L9.7475 11.2838C9.53142 11.0403 9.16643 11.0251 8.93226 11.2498C8.74052 11.4338 8.69595 11.7216 8.80473 11.9536Z" fill="#9AA1B4"/>
</svg>
