<?xml version="1.0" standalone="no"?>
<!DOCTYPE svg PUBLIC "-//W3C//DTD SVG 1.1//EN" "http://www.w3.org/Graphics/SVG/1.1/DTD/svg11.dtd" >
<svg xmlns="http://www.w3.org/2000/svg">
<defs>
  <font id="yartu-icons" horiz-adv-x="956.25">
    <font-face font-family="yartu-icons"
      units-per-em="900" ascent="900"
      descent="0" />
    <missing-glyph horiz-adv-x="0" />
    <glyph glyph-name="add-contact"
      unicode="&#xF101;"
      horiz-adv-x="900" d="M403.2 583.2C424.8 583.2 439.2 568.8 439.2 547.2V475.2H511.2C532.8 475.2 547.1999999999999 460.8 547.1999999999999 439.2S532.8 403.2 511.2 403.2H439.2V331.2C439.2 309.6 424.8 295.2 403.2 295.2C381.6 295.2 367.2 309.6 367.2 331.2V403.2H295.2C273.6 403.2 259.2 417.6 259.2 439.2S273.6 475.2 295.2 475.2H367.2V547.2C367.2 568.8 385.2 583.2 403.2 583.2zM774 306H738V594H774C795.6 594 810 608.4 810 630S795.6 666 774 666H738C730.8000000000001 738 669.6 792 594 792H234C154.8 792 90 727.2 90 648V252C90 172.8000000000001 154.8 108 234 108H594C666 108 727.1999999999999 162 738 234H774C795.6 234 810 248.4 810 270S792 306 774 306zM666 306H648C626.4 306 612 291.6 612 270S626.4 234 648 234H662.4C655.1999999999999 201.6 626.4 180 594 180H234C194.4 180 162 212.4 162 252V648C162 687.6 194.4 720 234 720H594C626.4 720 655.1999999999999 698.4 662.4 666H648C626.4 666 612 651.6 612 630S626.4 594 648 594H666L666 306z" />
    <glyph glyph-name="add-contact-1"
      unicode="&#x61;&#x64;&#x64;&#x2D;&#x63;&#x6F;&#x6E;&#x74;&#x61;&#x63;&#x74;"
      horiz-adv-x="900" d="M403.2 583.2C424.8 583.2 439.2 568.8 439.2 547.2V475.2H511.2C532.8 475.2 547.1999999999999 460.8 547.1999999999999 439.2S532.8 403.2 511.2 403.2H439.2V331.2C439.2 309.6 424.8 295.2 403.2 295.2C381.6 295.2 367.2 309.6 367.2 331.2V403.2H295.2C273.6 403.2 259.2 417.6 259.2 439.2S273.6 475.2 295.2 475.2H367.2V547.2C367.2 568.8 385.2 583.2 403.2 583.2zM774 306H738V594H774C795.6 594 810 608.4 810 630S795.6 666 774 666H738C730.8000000000001 738 669.6 792 594 792H234C154.8 792 90 727.2 90 648V252C90 172.8000000000001 154.8 108 234 108H594C666 108 727.1999999999999 162 738 234H774C795.6 234 810 248.4 810 270S792 306 774 306zM666 306H648C626.4 306 612 291.6 612 270S626.4 234 648 234H662.4C655.1999999999999 201.6 626.4 180 594 180H234C194.4 180 162 212.4 162 252V648C162 687.6 194.4 720 234 720H594C626.4 720 655.1999999999999 698.4 662.4 666H648C626.4 666 612 651.6 612 630S626.4 594 648 594H666L666 306z" />
    <glyph glyph-name="add-reaction"
      unicode="&#xF102;"
      horiz-adv-x="900" d="M161.99964 432C161.99964 591.05808 290.94156 720 450.00036 720C460.84356 720 471.5355599999999 719.4024 482.04396 718.24068C501.80436 716.05584 519.59556 730.3053600000001 521.78076 750.0672C523.96596 769.82904 509.71716 787.61988 489.95676 789.80472C476.8239599999999 791.25624 463.49316 792 450.00036 792C251.17704 792 89.99964 630.8226 89.99964 432C89.99964 233.1792000000001 251.17704 72 450.00036 72C648.82116 72 810.00036 233.1792000000001 810.00036 432C810.00036 445.4928 809.2551599999999 458.8236000000001 807.80436 471.9564C805.61916 491.7168 787.82796 505.96668 768.06756 503.7804C748.3035600000001 501.5988 734.05476 483.8076 736.23996 464.0436C737.40276 453.5352 738.00036 442.8432 738.00036 432C738.00036 272.9412000000001 609.0591599999999 144 450.00036 144C290.94156 144 161.99964 272.9412000000001 161.99964 432zM385.20756 486C385.20756 456.1776 361.02996 432 331.2068400000001 432C301.38336 432 277.2068400000001 456.1776 277.2068400000001 486C277.2068400000001 515.82348 301.38336 540 331.2068400000001 540C361.02996 540 385.20756 515.82348 385.20756 486zM622.79316 486C622.79316 456.1776 598.61556 432 568.79316 432C538.9707599999999 432 514.7931600000001 456.1776 514.7931600000001 486C514.7931600000001 515.82348 538.9707599999999 540 568.79316 540C598.61556 540 622.79316 515.82348 622.79316 486zM323.99136 360C318.01824 360 312.4346400000001 357.0372 309.08592 352.0908C305.7375600000001 347.1444 305.07336 340.83 307.2916800000001 335.2824L307.3078800000001 335.2428L307.35108 335.1348000000001L307.47852 334.8252L307.90152 333.8316C308.25828 333.0072 308.76696 331.8696 309.43224 330.4584C310.76172 327.6360000000001 312.7248 323.7192 315.36216 319.0644C320.61672 309.7908 328.6602000000001 297.4068 339.8619600000001 284.9580000000001C362.29068 260.0387999999999 398.29716 234 449.98956 234C501.68556 234 537.6927599999999 260.0387999999999 560.12076 284.9580000000001C571.3239599999999 297.4068 579.36636 309.7908 584.61876 319.0644C587.25756 323.7192 589.21956 327.6360000000001 590.55156 330.4584C591.2139599999999 331.8696 591.72516 333.0072 592.08156 333.8316L592.5027599999999 334.8252L592.63236 335.1348000000001L592.67556 335.2428L592.70436 335.3148C594.92196 340.8624 594.2451599999999 347.1444 590.89716 352.0908C587.5491599999999 357.0372 581.96556 360 575.98956 360H323.99136zM323.99136 342C307.27872 335.3148 307.2884400000001 335.2896 307.2916800000001 335.2824L323.99136 342zM558.00036 666C558.00036 685.88208 574.11756 702 594.00036 702H648.00036V756C648.00036 775.88208 664.1175599999999 792 684.00036 792C703.88316 792 720.00036 775.88208 720.00036 756V702H774.00036C793.88316 702 810.00036 685.88208 810.00036 666C810.00036 646.11792 793.88316 630 774.00036 630H720.00036V576C720.00036 556.11792 703.88316 540 684.00036 540C664.1175599999999 540 648.00036 556.11792 648.00036 576V630H594.00036C574.11756 630 558.00036 646.11792 558.00036 666z" />
    <glyph glyph-name="add-reaction-1"
      unicode="&#x61;&#x64;&#x64;&#x2D;&#x72;&#x65;&#x61;&#x63;&#x74;&#x69;&#x6F;&#x6E;"
      horiz-adv-x="900" d="M161.99964 432C161.99964 591.05808 290.94156 720 450.00036 720C460.84356 720 471.5355599999999 719.4024 482.04396 718.24068C501.80436 716.05584 519.59556 730.3053600000001 521.78076 750.0672C523.96596 769.82904 509.71716 787.61988 489.95676 789.80472C476.8239599999999 791.25624 463.49316 792 450.00036 792C251.17704 792 89.99964 630.8226 89.99964 432C89.99964 233.1792000000001 251.17704 72 450.00036 72C648.82116 72 810.00036 233.1792000000001 810.00036 432C810.00036 445.4928 809.2551599999999 458.8236000000001 807.80436 471.9564C805.61916 491.7168 787.82796 505.96668 768.06756 503.7804C748.3035600000001 501.5988 734.05476 483.8076 736.23996 464.0436C737.40276 453.5352 738.00036 442.8432 738.00036 432C738.00036 272.9412000000001 609.0591599999999 144 450.00036 144C290.94156 144 161.99964 272.9412000000001 161.99964 432zM385.20756 486C385.20756 456.1776 361.02996 432 331.2068400000001 432C301.38336 432 277.2068400000001 456.1776 277.2068400000001 486C277.2068400000001 515.82348 301.38336 540 331.2068400000001 540C361.02996 540 385.20756 515.82348 385.20756 486zM622.79316 486C622.79316 456.1776 598.61556 432 568.79316 432C538.9707599999999 432 514.7931600000001 456.1776 514.7931600000001 486C514.7931600000001 515.82348 538.9707599999999 540 568.79316 540C598.61556 540 622.79316 515.82348 622.79316 486zM323.99136 360C318.01824 360 312.4346400000001 357.0372 309.08592 352.0908C305.7375600000001 347.1444 305.07336 340.83 307.2916800000001 335.2824L307.3078800000001 335.2428L307.35108 335.1348000000001L307.47852 334.8252L307.90152 333.8316C308.25828 333.0072 308.76696 331.8696 309.43224 330.4584C310.76172 327.6360000000001 312.7248 323.7192 315.36216 319.0644C320.61672 309.7908 328.6602000000001 297.4068 339.8619600000001 284.9580000000001C362.29068 260.0387999999999 398.29716 234 449.98956 234C501.68556 234 537.6927599999999 260.0387999999999 560.12076 284.9580000000001C571.3239599999999 297.4068 579.36636 309.7908 584.61876 319.0644C587.25756 323.7192 589.21956 327.6360000000001 590.55156 330.4584C591.2139599999999 331.8696 591.72516 333.0072 592.08156 333.8316L592.5027599999999 334.8252L592.63236 335.1348000000001L592.67556 335.2428L592.70436 335.3148C594.92196 340.8624 594.2451599999999 347.1444 590.89716 352.0908C587.5491599999999 357.0372 581.96556 360 575.98956 360H323.99136zM323.99136 342C307.27872 335.3148 307.2884400000001 335.2896 307.2916800000001 335.2824L323.99136 342zM558.00036 666C558.00036 685.88208 574.11756 702 594.00036 702H648.00036V756C648.00036 775.88208 664.1175599999999 792 684.00036 792C703.88316 792 720.00036 775.88208 720.00036 756V702H774.00036C793.88316 702 810.00036 685.88208 810.00036 666C810.00036 646.11792 793.88316 630 774.00036 630H720.00036V576C720.00036 556.11792 703.88316 540 684.00036 540C664.1175599999999 540 648.00036 556.11792 648.00036 576V630H594.00036C574.11756 630 558.00036 646.11792 558.00036 666z" />
    <glyph glyph-name="add-table"
      unicode="&#xF103;"
      horiz-adv-x="900" d="M168.75 450L168.75 150L731.25 150L731.25 450L168.75 450zM93.75 150L93.75 450C93.75 491.4225 127.328625 525 168.75 525L731.25 525C772.6725 525 806.25 491.4225 806.25 450L806.25 150C806.25 108.5775 772.6725 75 731.25 75L168.75 75C127.328625 75 93.75 108.5775 93.75 150zM112.5 300C112.5 320.7112500000001 129.2895 337.5 150 337.5L750 337.5C770.71125 337.5 787.5 320.7112500000001 787.5 300C787.5 279.2887500000001 770.71125 262.5 750 262.5L150 262.5C129.2895 262.5 112.5 279.2887500000001 112.5 300zM450 75C429.28875 75 412.5 91.7887500000001 412.5 112.5L412.5 487.5C412.5 508.21125 429.28875 525 450 525C470.71125 525 487.5 508.21125 487.5 487.5L487.5 112.5C487.5 91.7887500000001 470.71125 75 450 75zM450 825C470.71125 825 487.5 808.2105 487.5 787.5V600C487.5 579.2895000000001 470.71125 562.5 450 562.5C429.28875 562.5 412.5 579.2895000000001 412.5 600V787.5C412.5 808.2105 429.28875 825 450 825zM581.25 693.75C581.25 673.0395 564.4612500000001 656.25 543.75 656.25L356.25 656.25C335.5395000000001 656.25 318.75 673.0395 318.75 693.75C318.75 714.460875 335.5395000000001 731.25 356.25 731.25L543.75 731.25C564.4612500000001 731.25 581.25 714.4605 581.25 693.75z" />
    <glyph glyph-name="add-table-1"
      unicode="&#x61;&#x64;&#x64;&#x2D;&#x74;&#x61;&#x62;&#x6C;&#x65;"
      horiz-adv-x="900" d="M168.75 450L168.75 150L731.25 150L731.25 450L168.75 450zM93.75 150L93.75 450C93.75 491.4225 127.328625 525 168.75 525L731.25 525C772.6725 525 806.25 491.4225 806.25 450L806.25 150C806.25 108.5775 772.6725 75 731.25 75L168.75 75C127.328625 75 93.75 108.5775 93.75 150zM112.5 300C112.5 320.7112500000001 129.2895 337.5 150 337.5L750 337.5C770.71125 337.5 787.5 320.7112500000001 787.5 300C787.5 279.2887500000001 770.71125 262.5 750 262.5L150 262.5C129.2895 262.5 112.5 279.2887500000001 112.5 300zM450 75C429.28875 75 412.5 91.7887500000001 412.5 112.5L412.5 487.5C412.5 508.21125 429.28875 525 450 525C470.71125 525 487.5 508.21125 487.5 487.5L487.5 112.5C487.5 91.7887500000001 470.71125 75 450 75zM450 825C470.71125 825 487.5 808.2105 487.5 787.5V600C487.5 579.2895000000001 470.71125 562.5 450 562.5C429.28875 562.5 412.5 579.2895000000001 412.5 600V787.5C412.5 808.2105 429.28875 825 450 825zM581.25 693.75C581.25 673.0395 564.4612500000001 656.25 543.75 656.25L356.25 656.25C335.5395000000001 656.25 318.75 673.0395 318.75 693.75C318.75 714.460875 335.5395000000001 731.25 356.25 731.25L543.75 731.25C564.4612500000001 731.25 581.25 714.4605 581.25 693.75z" />
    <glyph glyph-name="add-user"
      unicode="&#xF104;"
      horiz-adv-x="900" d="M511.3244723963995 370.8C493.3244723963995 385.2000000000001 475.3244723963995 399.6 453.7244723963996 410.4000000000001C482.5244723963996 439.2000000000001 500.5244723963996 482.4 500.5244723963996 529.2V590.4000000000001C500.5244723963996 680.4 428.5244723963996 756 338.5244723963996 756C252.1244723963996 756 180.1244723963996 680.4 180.1244723963996 590.4000000000001V525.5999999999999C180.1244723963996 478.8 198.1244723963996 439.2 226.9244723963995 406.8C205.3244723963995 396 187.3244723963995 385.2000000000001 169.3244723963995 367.2000000000001C126.1244723963995 327.6 97.3244723963995 266.4000000000001 90.1244723963995 198C86.5244723963995 158.4 122.5244723963995 126 162.1244723963996 126H522.1244723963995C561.7244723963995 126 597.7244723963995 158.4 590.5244723963996 201.6C583.3244723963996 270 558.1244723963996 327.6 511.3244723963995 370.8zM252.1244723963996 590.4000000000001C252.1244723963996 644.4 291.7244723963995 684 342.1244723963995 684S432.1244723963995 644.4 432.1244723963995 590.4000000000001V525.5999999999999C432.1244723963995 471.6 392.5244723963995 432 342.1244723963995 432S252.1244723963996 471.6 252.1244723963996 525.5999999999999V590.4000000000001zM165.7244723963996 198C172.9244723963996 252 190.9244723963996 291.6 223.3244723963995 316.8000000000001C252.1244723963996 345.6 295.3244723963996 360 345.7244723963996 360S439.3244723963996 345.6 468.1244723963995 316.8000000000001C496.9244723963996 291.6 518.5244723963996 252 525.7244723963996 198H165.7244723963996zM648.1244723963996 414C648.1244723963996 392.4000000000001 662.5244723963996 378 684.1244723963996 378C705.7244723963996 378 720.1244723963996 392.4000000000001 720.1244723963996 414V468H774.1244723963996C795.7244723963996 468 810.1244723963996 482.4 810.1244723963996 504C810.1244723963996 525.5999999999999 795.7244723963996 540 774.1244723963996 540H720.1244723963996V594C720.1244723963996 615.6 705.7244723963996 630 684.1244723963996 630C662.5244723963996 630 648.1244723963996 615.6 648.1244723963996 594V540H594.1244723963996C572.5244723963997 540 558.1244723963996 525.5999999999999 558.1244723963996 504C558.1244723963996 482.4 572.5244723963997 468 594.1244723963996 468H648.1244723963996V414z" />
    <glyph glyph-name="add-user-1"
      unicode="&#x61;&#x64;&#x64;&#x2D;&#x75;&#x73;&#x65;&#x72;"
      horiz-adv-x="900" d="M511.3244723963995 370.8C493.3244723963995 385.2000000000001 475.3244723963995 399.6 453.7244723963996 410.4000000000001C482.5244723963996 439.2000000000001 500.5244723963996 482.4 500.5244723963996 529.2V590.4000000000001C500.5244723963996 680.4 428.5244723963996 756 338.5244723963996 756C252.1244723963996 756 180.1244723963996 680.4 180.1244723963996 590.4000000000001V525.5999999999999C180.1244723963996 478.8 198.1244723963996 439.2 226.9244723963995 406.8C205.3244723963995 396 187.3244723963995 385.2000000000001 169.3244723963995 367.2000000000001C126.1244723963995 327.6 97.3244723963995 266.4000000000001 90.1244723963995 198C86.5244723963995 158.4 122.5244723963995 126 162.1244723963996 126H522.1244723963995C561.7244723963995 126 597.7244723963995 158.4 590.5244723963996 201.6C583.3244723963996 270 558.1244723963996 327.6 511.3244723963995 370.8zM252.1244723963996 590.4000000000001C252.1244723963996 644.4 291.7244723963995 684 342.1244723963995 684S432.1244723963995 644.4 432.1244723963995 590.4000000000001V525.5999999999999C432.1244723963995 471.6 392.5244723963995 432 342.1244723963995 432S252.1244723963996 471.6 252.1244723963996 525.5999999999999V590.4000000000001zM165.7244723963996 198C172.9244723963996 252 190.9244723963996 291.6 223.3244723963995 316.8000000000001C252.1244723963996 345.6 295.3244723963996 360 345.7244723963996 360S439.3244723963996 345.6 468.1244723963995 316.8000000000001C496.9244723963996 291.6 518.5244723963996 252 525.7244723963996 198H165.7244723963996zM648.1244723963996 414C648.1244723963996 392.4000000000001 662.5244723963996 378 684.1244723963996 378C705.7244723963996 378 720.1244723963996 392.4000000000001 720.1244723963996 414V468H774.1244723963996C795.7244723963996 468 810.1244723963996 482.4 810.1244723963996 504C810.1244723963996 525.5999999999999 795.7244723963996 540 774.1244723963996 540H720.1244723963996V594C720.1244723963996 615.6 705.7244723963996 630 684.1244723963996 630C662.5244723963996 630 648.1244723963996 615.6 648.1244723963996 594V540H594.1244723963996C572.5244723963997 540 558.1244723963996 525.5999999999999 558.1244723963996 504C558.1244723963996 482.4 572.5244723963997 468 594.1244723963996 468H648.1244723963996V414z" />
    <glyph glyph-name="add"
      unicode="&#xF105;"
      horiz-adv-x="900" d="M450.00028125 749.9266875000001C473.66971875 749.9266875000001 492.8577187500001 730.7386875 492.8577187500001 707.0698125V492.78375L707.1426562500001 492.78375C730.8126562499999 492.78375 749.99953125 473.5963125 749.99953125 449.926875C749.99953125 426.2574375 730.8126562499999 407.0694375 707.1426562500001 407.0694375H492.8577187500001V192.785625C492.8577187500001 169.115625 473.66971875 149.92875 450.00028125 149.92875C426.33084375 149.92875 407.14340625 169.115625 407.14340625 192.785625V407.0694375H192.85734375C169.18790625 407.0694375 150.00046875 426.2574375 150.00046875 449.926875C150.00046875 473.5963125 169.18790625 492.78375 192.85734375 492.78375L407.14340625 492.78375V707.0698125C407.14340625 730.7386875 426.33084375 749.9266875000001 450.00028125 749.9266875000001z" />
    <glyph glyph-name="add-1"
      unicode="&#x61;&#x64;&#x64;"
      horiz-adv-x="900" d="M450.00028125 749.9266875000001C473.66971875 749.9266875000001 492.8577187500001 730.7386875 492.8577187500001 707.0698125V492.78375L707.1426562500001 492.78375C730.8126562499999 492.78375 749.99953125 473.5963125 749.99953125 449.926875C749.99953125 426.2574375 730.8126562499999 407.0694375 707.1426562500001 407.0694375H492.8577187500001V192.785625C492.8577187500001 169.115625 473.66971875 149.92875 450.00028125 149.92875C426.33084375 149.92875 407.14340625 169.115625 407.14340625 192.785625V407.0694375H192.85734375C169.18790625 407.0694375 150.00046875 426.2574375 150.00046875 449.926875C150.00046875 473.5963125 169.18790625 492.78375 192.85734375 492.78375L407.14340625 492.78375V707.0698125C407.14340625 730.7386875 426.33084375 749.9266875000001 450.00028125 749.9266875000001z" />
    <glyph glyph-name="address-book"
      unicode="&#xF106;"
      horiz-adv-x="900" d="M590.4 475.2C604.8000000000001 493.2 612 514.8 612 540C612 601.2 565.1999999999999 648 504 648C442.8 648 396 601.2 396 540C396 514.8 403.2 493.2 417.6 475.2C381.6 450 360 406.8 360 360C360 338.4 374.4000000000001 324 396 324C417.6 324 432 338.4 432 360C432 399.6 464.4 432 504 432C543.6 432 576 399.6 576 360C576 338.4 590.4 324 612 324C633.6 324 648 338.4 648 360C648 406.8 622.8000000000001 450 590.4 475.2zM504 504C482.4 504 468 518.4000000000001 468 540S482.4 576 504 576C525.5999999999999 576 540 561.5999999999999 540 540S522 504 504 504zM648 792H216C194.4 792 180 777.6 180 756V648H144C122.4 648 108 633.6 108 612S122.4 576 144 576H180V468H144C122.4 468 108 453.6 108 432S122.4 396 144 396H180V288H144C122.4 288 108 273.6 108 252S122.4 216 144 216H180V108C180 86.4 194.4 72 216 72H648C727.1999999999999 72 792 136.8000000000001 792 216V648C792 727.2 727.1999999999999 792 648 792zM720 216C720 176.4 687.6 144 648 144H252V216C273.6 216 288 230.4 288 252S273.6 288 252 288V396C273.6 396 288 410.4000000000001 288 432S273.6 468 252 468V576C273.6 576 288 590.4000000000001 288 612S270 648 252 648V720H648C687.6 720 720 687.6 720 648V216z" />
    <glyph glyph-name="address-book-1"
      unicode="&#x61;&#x64;&#x64;&#x72;&#x65;&#x73;&#x73;&#x2D;&#x62;&#x6F;&#x6F;&#x6B;"
      horiz-adv-x="900" d="M590.4 475.2C604.8000000000001 493.2 612 514.8 612 540C612 601.2 565.1999999999999 648 504 648C442.8 648 396 601.2 396 540C396 514.8 403.2 493.2 417.6 475.2C381.6 450 360 406.8 360 360C360 338.4 374.4000000000001 324 396 324C417.6 324 432 338.4 432 360C432 399.6 464.4 432 504 432C543.6 432 576 399.6 576 360C576 338.4 590.4 324 612 324C633.6 324 648 338.4 648 360C648 406.8 622.8000000000001 450 590.4 475.2zM504 504C482.4 504 468 518.4000000000001 468 540S482.4 576 504 576C525.5999999999999 576 540 561.5999999999999 540 540S522 504 504 504zM648 792H216C194.4 792 180 777.6 180 756V648H144C122.4 648 108 633.6 108 612S122.4 576 144 576H180V468H144C122.4 468 108 453.6 108 432S122.4 396 144 396H180V288H144C122.4 288 108 273.6 108 252S122.4 216 144 216H180V108C180 86.4 194.4 72 216 72H648C727.1999999999999 72 792 136.8000000000001 792 216V648C792 727.2 727.1999999999999 792 648 792zM720 216C720 176.4 687.6 144 648 144H252V216C273.6 216 288 230.4 288 252S273.6 288 252 288V396C273.6 396 288 410.4000000000001 288 432S273.6 468 252 468V576C273.6 576 288 590.4000000000001 288 612S270 648 252 648V720H648C687.6 720 720 687.6 720 648V216z" />
    <glyph glyph-name="address"
      unicode="&#xF107;"
      horiz-adv-x="900" d="M440.5397996917148 612C440.5397996917148 633.6 454.9397996917147 648 476.5397996917147 648H494.5397996917147C516.1397996917146 648 530.5397996917147 633.6 530.5397996917147 612S516.1397996917146 576 494.5397996917147 576H476.5397996917147C454.9397996917147 576 440.5397996917148 590.4000000000001 440.5397996917148 612zM566.5397996917147 612C566.5397996917147 633.6 580.9397996917147 648 602.5397996917147 648H620.5397996917147C642.1397996917148 648 656.5397996917147 633.6 656.5397996917147 612S642.1397996917148 576 620.5397996917147 576H602.5397996917147C580.9397996917147 576 566.5397996917147 590.4000000000001 566.5397996917147 612zM440.5397996917148 486C440.5397996917148 507.6 454.9397996917147 522 476.5397996917147 522H494.5397996917147C516.1397996917146 522 530.5397996917147 507.6 530.5397996917147 486C530.5397996917147 464.4 516.1397996917146 450 494.5397996917147 450H476.5397996917147C454.9397996917147 450 440.5397996917148 464.4 440.5397996917148 486zM566.5397996917147 486C566.5397996917147 507.6 580.9397996917147 522 602.5397996917147 522H620.5397996917147C642.1397996917148 522 656.5397996917147 507.6 656.5397996917147 486C656.5397996917147 464.4 642.1397996917148 450 620.5397996917147 450H602.5397996917147C580.9397996917147 450 566.5397996917147 464.4 566.5397996917147 486zM566.5397996917147 360C566.5397996917147 381.6 580.9397996917147 396 602.5397996917147 396H620.5397996917147C642.1397996917148 396 656.5397996917147 381.6 656.5397996917147 360S642.1397996917148 324 620.5397996917147 324H602.5397996917147C580.9397996917147 324 566.5397996917147 338.4 566.5397996917147 360zM746.5397996917147 774H350.5397996917148C328.9397996917147 774 314.5397996917148 759.6 314.5397996917148 738V432C307.3397996917147 432 300.1397996917147 428.4000000000001 292.9397996917147 424.8L130.9397996917147 298.8000000000001C116.5397996917147 288 112.9397996917147 262.8000000000001 123.7397996917147 248.4000000000001C134.5397996917147 234 156.1397996917147 230.4 170.5397996917147 237.6V126C170.5397996917147 104.4 184.9397996917147 90 206.5397996917147 90H746.5397996917147C768.1397996917148 90 782.5397996917147 104.4 782.5397996917147 126V738C782.5397996917147 759.6 764.5397996917147 774 746.5397996917147 774zM386.5397996917148 162H242.5397996917147V295.2L314.5397996917148 352.8L386.5397996917148 295.2V162zM710.5397996917147 162H458.5397996917147V237.6C472.9397996917147 230.4000000000001 494.5397996917147 234 505.3397996917147 248.4000000000001C516.1397996917148 262.8000000000001 516.1397996917148 288.0000000000001 498.1397996917148 298.8000000000001L386.5397996917148 385.2V702H710.5397996917147V162z" />
    <glyph glyph-name="address-1"
      unicode="&#x61;&#x64;&#x64;&#x72;&#x65;&#x73;&#x73;"
      horiz-adv-x="900" d="M440.5397996917148 612C440.5397996917148 633.6 454.9397996917147 648 476.5397996917147 648H494.5397996917147C516.1397996917146 648 530.5397996917147 633.6 530.5397996917147 612S516.1397996917146 576 494.5397996917147 576H476.5397996917147C454.9397996917147 576 440.5397996917148 590.4000000000001 440.5397996917148 612zM566.5397996917147 612C566.5397996917147 633.6 580.9397996917147 648 602.5397996917147 648H620.5397996917147C642.1397996917148 648 656.5397996917147 633.6 656.5397996917147 612S642.1397996917148 576 620.5397996917147 576H602.5397996917147C580.9397996917147 576 566.5397996917147 590.4000000000001 566.5397996917147 612zM440.5397996917148 486C440.5397996917148 507.6 454.9397996917147 522 476.5397996917147 522H494.5397996917147C516.1397996917146 522 530.5397996917147 507.6 530.5397996917147 486C530.5397996917147 464.4 516.1397996917146 450 494.5397996917147 450H476.5397996917147C454.9397996917147 450 440.5397996917148 464.4 440.5397996917148 486zM566.5397996917147 486C566.5397996917147 507.6 580.9397996917147 522 602.5397996917147 522H620.5397996917147C642.1397996917148 522 656.5397996917147 507.6 656.5397996917147 486C656.5397996917147 464.4 642.1397996917148 450 620.5397996917147 450H602.5397996917147C580.9397996917147 450 566.5397996917147 464.4 566.5397996917147 486zM566.5397996917147 360C566.5397996917147 381.6 580.9397996917147 396 602.5397996917147 396H620.5397996917147C642.1397996917148 396 656.5397996917147 381.6 656.5397996917147 360S642.1397996917148 324 620.5397996917147 324H602.5397996917147C580.9397996917147 324 566.5397996917147 338.4 566.5397996917147 360zM746.5397996917147 774H350.5397996917148C328.9397996917147 774 314.5397996917148 759.6 314.5397996917148 738V432C307.3397996917147 432 300.1397996917147 428.4000000000001 292.9397996917147 424.8L130.9397996917147 298.8000000000001C116.5397996917147 288 112.9397996917147 262.8000000000001 123.7397996917147 248.4000000000001C134.5397996917147 234 156.1397996917147 230.4 170.5397996917147 237.6V126C170.5397996917147 104.4 184.9397996917147 90 206.5397996917147 90H746.5397996917147C768.1397996917148 90 782.5397996917147 104.4 782.5397996917147 126V738C782.5397996917147 759.6 764.5397996917147 774 746.5397996917147 774zM386.5397996917148 162H242.5397996917147V295.2L314.5397996917148 352.8L386.5397996917148 295.2V162zM710.5397996917147 162H458.5397996917147V237.6C472.9397996917147 230.4000000000001 494.5397996917147 234 505.3397996917147 248.4000000000001C516.1397996917148 262.8000000000001 516.1397996917148 288.0000000000001 498.1397996917148 298.8000000000001L386.5397996917148 385.2V702H710.5397996917147V162z" />
    <glyph glyph-name="alert"
      unicode="&#xF108;"
      horiz-adv-x="900" d="M323.1128535288472 721.71072C377.4242535288471 822.92976 522.5726535288471 822.92976 576.8858535288471 721.71072L792.3710535288471 320.13C843.8438535288471 224.1972 774.3530535288471 108.0432000000001 665.4818535288471 108.0432000000001L234.5168535288471 108.0432000000001C125.6481735288471 108.0432000000001 56.1548535288471 224.1972 107.6298135288471 320.13L323.1128535288472 721.71072zM513.4430535288471 687.66804C486.2882535288471 738.2772 413.7122535288471 738.27756 386.5574535288471 687.66768L171.0733335288471 286.0848C145.3358535288471 238.122 180.0823335288471 180.0432000000001 234.5168535288471 180.0432000000001L665.4818535288471 180.0432000000001C719.9174535288471 180.0432000000001 754.6646535288471 238.122 728.9282535288471 286.0848L513.4430535288471 687.66804zM450.0002535288471 594C469.8830535288471 594 486.0002535288471 577.88208 486.0002535288471 558V396C486.0002535288471 376.1172 469.8830535288471 360 450.0002535288471 360C430.1174535288472 360 414.0002535288471 376.1172 414.0002535288471 396V558C414.0002535288471 577.88208 430.1174535288472 594 450.0002535288471 594zM486.0002535288471 270C486.0002535288471 250.1172000000001 469.8830535288471 234 450.0002535288471 234C430.1174535288472 234 414.0002535288471 250.1172000000001 414.0002535288471 270C414.0002535288471 289.8828 430.1174535288472 306 450.0002535288471 306C469.8830535288471 306 486.0002535288471 289.8828 486.0002535288471 270z" />
    <glyph glyph-name="alert-1"
      unicode="&#x61;&#x6C;&#x65;&#x72;&#x74;"
      horiz-adv-x="900" d="M323.1128535288472 721.71072C377.4242535288471 822.92976 522.5726535288471 822.92976 576.8858535288471 721.71072L792.3710535288471 320.13C843.8438535288471 224.1972 774.3530535288471 108.0432000000001 665.4818535288471 108.0432000000001L234.5168535288471 108.0432000000001C125.6481735288471 108.0432000000001 56.1548535288471 224.1972 107.6298135288471 320.13L323.1128535288472 721.71072zM513.4430535288471 687.66804C486.2882535288471 738.2772 413.7122535288471 738.27756 386.5574535288471 687.66768L171.0733335288471 286.0848C145.3358535288471 238.122 180.0823335288471 180.0432000000001 234.5168535288471 180.0432000000001L665.4818535288471 180.0432000000001C719.9174535288471 180.0432000000001 754.6646535288471 238.122 728.9282535288471 286.0848L513.4430535288471 687.66804zM450.0002535288471 594C469.8830535288471 594 486.0002535288471 577.88208 486.0002535288471 558V396C486.0002535288471 376.1172 469.8830535288471 360 450.0002535288471 360C430.1174535288472 360 414.0002535288471 376.1172 414.0002535288471 396V558C414.0002535288471 577.88208 430.1174535288472 594 450.0002535288471 594zM486.0002535288471 270C486.0002535288471 250.1172000000001 469.8830535288471 234 450.0002535288471 234C430.1174535288472 234 414.0002535288471 250.1172000000001 414.0002535288471 270C414.0002535288471 289.8828 430.1174535288472 306 450.0002535288471 306C469.8830535288471 306 486.0002535288471 289.8828 486.0002535288471 270z" />
    <glyph glyph-name="alignment"
      unicode="&#xF109;"
      horiz-adv-x="900" d="M105.9375 750C85.227 750 68.4375 733.2105 68.4375 712.5C68.4375 691.7895 85.227 675 105.9375 675H780.9375C801.64875 675 818.4375 691.7895 818.4375 712.5C818.4375 733.2105 801.64875 750 780.9375 750H105.9375zM68.4375 543.75C68.4375 564.4604999999999 85.227 581.25 105.9375 581.25H424.6875C445.39875 581.25 462.1875 564.4604999999999 462.1875 543.75C462.1875 523.0387499999999 445.39875 506.25 424.6875 506.25H105.9375C85.227 506.25 68.4375 523.0387499999999 68.4375 543.75zM617.8125 343.125H595.5825000000001C539.98875 343.125 486.5625 389.3625 486.5625 450C486.5625 510.6375 539.98875 556.875 595.5825000000001 556.875H799.6875C817.29 556.875 831.5625 542.604 831.5625 525C831.5625 507.3975 817.29 493.125 799.6875 493.125H775.3125V206.25C775.3125 188.6475 761.04 174.375 743.4375 174.375C725.835 174.375 711.5625 188.6475 711.5625 206.25V493.125H681.5625V206.25C681.5625 188.6475 667.29 174.375 649.6875 174.375C632.085 174.375 617.8125 188.6475 617.8125 206.25V343.125zM550.3125 450C550.3125 472.2075 571.88625 493.125 595.5825000000001 493.125H617.8125V406.875H595.5825000000001C571.88625 406.875 550.3125 427.7925 550.3125 450zM68.4375 206.25C68.4375 226.96125 85.227 243.75 105.9375 243.75H405.9375C426.64875 243.75 443.4375 226.96125 443.4375 206.25C443.4375 185.5387500000001 426.64875 168.75 405.9375 168.75H105.9375C85.227 168.75 68.4375 185.5387500000001 68.4375 206.25zM105.9375 412.5C85.227 412.5 68.4375 395.71125 68.4375 375C68.4375 354.28875 85.227 337.5 105.9375 337.5H405.9375C426.64875 337.5 443.4375 354.28875 443.4375 375C443.4375 395.71125 426.64875 412.5 405.9375 412.5H105.9375z" />
    <glyph glyph-name="alignment-1"
      unicode="&#x61;&#x6C;&#x69;&#x67;&#x6E;&#x6D;&#x65;&#x6E;&#x74;"
      horiz-adv-x="900" d="M105.9375 750C85.227 750 68.4375 733.2105 68.4375 712.5C68.4375 691.7895 85.227 675 105.9375 675H780.9375C801.64875 675 818.4375 691.7895 818.4375 712.5C818.4375 733.2105 801.64875 750 780.9375 750H105.9375zM68.4375 543.75C68.4375 564.4604999999999 85.227 581.25 105.9375 581.25H424.6875C445.39875 581.25 462.1875 564.4604999999999 462.1875 543.75C462.1875 523.0387499999999 445.39875 506.25 424.6875 506.25H105.9375C85.227 506.25 68.4375 523.0387499999999 68.4375 543.75zM617.8125 343.125H595.5825000000001C539.98875 343.125 486.5625 389.3625 486.5625 450C486.5625 510.6375 539.98875 556.875 595.5825000000001 556.875H799.6875C817.29 556.875 831.5625 542.604 831.5625 525C831.5625 507.3975 817.29 493.125 799.6875 493.125H775.3125V206.25C775.3125 188.6475 761.04 174.375 743.4375 174.375C725.835 174.375 711.5625 188.6475 711.5625 206.25V493.125H681.5625V206.25C681.5625 188.6475 667.29 174.375 649.6875 174.375C632.085 174.375 617.8125 188.6475 617.8125 206.25V343.125zM550.3125 450C550.3125 472.2075 571.88625 493.125 595.5825000000001 493.125H617.8125V406.875H595.5825000000001C571.88625 406.875 550.3125 427.7925 550.3125 450zM68.4375 206.25C68.4375 226.96125 85.227 243.75 105.9375 243.75H405.9375C426.64875 243.75 443.4375 226.96125 443.4375 206.25C443.4375 185.5387500000001 426.64875 168.75 405.9375 168.75H105.9375C85.227 168.75 68.4375 185.5387500000001 68.4375 206.25zM105.9375 412.5C85.227 412.5 68.4375 395.71125 68.4375 375C68.4375 354.28875 85.227 337.5 105.9375 337.5H405.9375C426.64875 337.5 443.4375 354.28875 443.4375 375C443.4375 395.71125 426.64875 412.5 405.9375 412.5H105.9375z" />
    <glyph glyph-name="all-notes"
      unicode="&#xF10A;"
      horiz-adv-x="900" d="M731.25 693.75V712.5C731.25 776.25 682.5 825 618.75 825H187.5C123.75 825 75 776.25 75 712.5V281.25C75 217.5 123.75 168.75 187.5 168.75H206.25C217.5 116.25 262.5 75 318.75 75H618.75C630 75 637.5 78.75 645 86.25L813.75 255C821.25 262.5 825 270 825 281.25V581.25C825 637.5 783.75 682.5 731.25 693.75zM206.25 581.25V243.75H187.5C165 243.75 150 258.75 150 281.25V712.5C150 735 165 750 187.5 750H618.75C641.25 750 656.25 735 656.25 712.5V693.75H318.75C255 693.75 206.25 645 206.25 581.25zM618.75 165V281.25H735L618.75 165zM750 356.25H618.75C577.5 356.25 543.75 322.5 543.75 281.25V150H318.75C296.25 150 281.25 165 281.25 187.5V581.25C281.25 603.75 296.25 618.75 318.75 618.75H712.5C735 618.75 750 603.75 750 581.25V356.25zM600 562.5H375C352.5 562.5 337.5 547.5 337.5 525S352.5 487.5 375 487.5H600C622.5 487.5 637.5 502.5 637.5 525S622.5 562.5 600 562.5zM450 412.5H375C352.5 412.5 337.5 397.5 337.5 375S352.5 337.5 375 337.5H450C472.5 337.5 487.5 352.5 487.5 375S472.5 412.5 450 412.5z" />
    <glyph glyph-name="all-notes-1"
      unicode="&#x61;&#x6C;&#x6C;&#x2D;&#x6E;&#x6F;&#x74;&#x65;&#x73;"
      horiz-adv-x="900" d="M731.25 693.75V712.5C731.25 776.25 682.5 825 618.75 825H187.5C123.75 825 75 776.25 75 712.5V281.25C75 217.5 123.75 168.75 187.5 168.75H206.25C217.5 116.25 262.5 75 318.75 75H618.75C630 75 637.5 78.75 645 86.25L813.75 255C821.25 262.5 825 270 825 281.25V581.25C825 637.5 783.75 682.5 731.25 693.75zM206.25 581.25V243.75H187.5C165 243.75 150 258.75 150 281.25V712.5C150 735 165 750 187.5 750H618.75C641.25 750 656.25 735 656.25 712.5V693.75H318.75C255 693.75 206.25 645 206.25 581.25zM618.75 165V281.25H735L618.75 165zM750 356.25H618.75C577.5 356.25 543.75 322.5 543.75 281.25V150H318.75C296.25 150 281.25 165 281.25 187.5V581.25C281.25 603.75 296.25 618.75 318.75 618.75H712.5C735 618.75 750 603.75 750 581.25V356.25zM600 562.5H375C352.5 562.5 337.5 547.5 337.5 525S352.5 487.5 375 487.5H600C622.5 487.5 637.5 502.5 637.5 525S622.5 562.5 600 562.5zM450 412.5H375C352.5 412.5 337.5 397.5 337.5 375S352.5 337.5 375 337.5H450C472.5 337.5 487.5 352.5 487.5 375S472.5 412.5 450 412.5z" />
    <glyph glyph-name="all-repository"
      unicode="&#xF10B;"
      horiz-adv-x="900" d="M126.5625 590.625C126.5625 613.9243125 145.4506875 632.8125 168.75 632.8125H731.25C754.5487499999999 632.8125 773.4375 613.9243125 773.4375 590.625V225C773.4375 139.5675 704.1825 70.3125 618.75 70.3125H281.25C195.818625 70.3125 126.5625 139.5675 126.5625 225V590.625zM210.9375 548.4375V225C210.9375 186.165 242.41725 154.6875 281.25 154.6875H618.75C657.585 154.6875 689.0625 186.165 689.0625 225V548.4375H210.9375zM70.3125 731.25C70.3125 785.615625 114.384375 829.6875 168.75 829.6875H731.25C785.615625 829.6875 829.6875 785.615625 829.6875 731.25V646.875C829.6875 592.509375 785.615625 548.4375 731.25 548.4375H168.75C114.384375 548.4375 70.3125 592.509375 70.3125 646.875V731.25zM168.75 745.3125C160.9835625 745.3125 154.6875 739.0164374999999 154.6875 731.25V646.875C154.6875 639.1085625000001 160.9835625 632.8125 168.75 632.8125H731.25C739.0181249999999 632.8125 745.3125 639.1085625000001 745.3125 646.875V731.25C745.3125 739.0164374999999 739.0181249999999 745.3125 731.25 745.3125H168.75zM351.5625 450C351.5625 473.2993125 370.4506875 492.1875 393.75 492.1875H506.25C529.5493125 492.1875 548.4375 473.2993125 548.4375 450C548.4375 426.7006875 529.5493125 407.8125 506.25 407.8125H393.75C370.4506875 407.8125 351.5625 426.7006875 351.5625 450z" />
    <glyph glyph-name="all-repository-1"
      unicode="&#x61;&#x6C;&#x6C;&#x2D;&#x72;&#x65;&#x70;&#x6F;&#x73;&#x69;&#x74;&#x6F;&#x72;&#x79;"
      horiz-adv-x="900" d="M126.5625 590.625C126.5625 613.9243125 145.4506875 632.8125 168.75 632.8125H731.25C754.5487499999999 632.8125 773.4375 613.9243125 773.4375 590.625V225C773.4375 139.5675 704.1825 70.3125 618.75 70.3125H281.25C195.818625 70.3125 126.5625 139.5675 126.5625 225V590.625zM210.9375 548.4375V225C210.9375 186.165 242.41725 154.6875 281.25 154.6875H618.75C657.585 154.6875 689.0625 186.165 689.0625 225V548.4375H210.9375zM70.3125 731.25C70.3125 785.615625 114.384375 829.6875 168.75 829.6875H731.25C785.615625 829.6875 829.6875 785.615625 829.6875 731.25V646.875C829.6875 592.509375 785.615625 548.4375 731.25 548.4375H168.75C114.384375 548.4375 70.3125 592.509375 70.3125 646.875V731.25zM168.75 745.3125C160.9835625 745.3125 154.6875 739.0164374999999 154.6875 731.25V646.875C154.6875 639.1085625000001 160.9835625 632.8125 168.75 632.8125H731.25C739.0181249999999 632.8125 745.3125 639.1085625000001 745.3125 646.875V731.25C745.3125 739.0164374999999 739.0181249999999 745.3125 731.25 745.3125H168.75zM351.5625 450C351.5625 473.2993125 370.4506875 492.1875 393.75 492.1875H506.25C529.5493125 492.1875 548.4375 473.2993125 548.4375 450C548.4375 426.7006875 529.5493125 407.8125 506.25 407.8125H393.75C370.4506875 407.8125 351.5625 426.7006875 351.5625 450z" />
    <glyph glyph-name="android"
      unicode="&#xF10C;"
      horiz-adv-x="900" d="M687.9003749999999 573.37875C661.3869374999999 573.37875 639.9388125 551.9278125000001 639.9388125 525.45375V355.57875C639.9388125 342.8578125 644.9900625 330.66 653.9872499999999 321.665625C662.9816249999999 312.6684375 675.1794375 307.6171875 687.9003749999999 307.6171875C700.6213124999999 307.6171875 712.819125 312.6684375 721.8163124999999 321.665625C730.8106875000001 330.66 735.8619375000001 342.8578125 735.8619375000001 355.57875V525.45375C735.8619375000001 551.9278125000001 714.4138125 573.37875 687.9003749999999 573.37875zM212.10046875 573.37875C185.587875 573.37875 164.1380624999999 551.9278125000001 164.1380624999999 525.45375V355.57875C164.1380624999999 342.8578125 169.19128125 330.66 178.1859374999999 321.665625C187.18059375 312.6684375 199.38009375 307.6171875 212.10046875 307.6171875C224.82084375 307.6171875 237.02034375 312.6684375 246.015 321.665625C255.0099375 330.66 260.062875 342.8578125 260.062875 355.57875V525.45375C260.0679374999999 531.7509375 258.8304375 537.9890625 256.42153125 543.808125C254.01234375 549.6271875 250.479 554.9146875 246.02371875 559.3668749999999C241.56871875 563.8190625 236.27896875 567.34875 230.4579375 569.750625C224.63690625 572.1553125 218.3987812499999 573.39 212.10046875 573.37875zM545.4388125 716.216625L574.2388125 768.26671875C575.0797499999999 769.748625 575.6197499999998 771.38296875 575.8222499999999 773.0746875C576.0275624999999 774.7666875 575.8953749999998 776.48259375 575.4313125000001 778.12228125C574.9672499999999 779.76225 574.1825624999999 781.29365625 573.1194375 782.62734375C572.059125 783.96103125 570.7428749999999 785.0705625 569.2494374999999 785.8918125C567.7616249999999 786.73134375 566.1191249999999 787.26684375 564.4231875 787.46653125C562.7244375 787.66621875 561.0031875 787.52671875 559.3606875 787.055625C557.715375 786.58453125 556.1825624999999 785.79140625 554.8494375 784.72265625C553.5135 783.653625 552.4053749999998 782.33034375 551.5869375 780.8293125L521.9994374999999 727.579125C499.9494374999999 736.3918125 475.6494374999999 741.3792187500001 449.9994375 741.3792187500001C424.3494374999999 741.3792187500001 400.0494375 736.42921875 377.9994375 727.6168125L348.4119375 780.791625C347.5935 782.2926562499999 346.4853749999999 783.61621875 345.15225 784.68525C343.819125 785.754 342.2835 786.547125 340.6409999999999 787.01821875C338.9985 787.48903125 337.27725 787.6288125 335.5784999999999 787.429125C333.87975 787.22915625 332.2400625 786.6939375 330.7494375 785.8541250000001C329.2644375 785.02584375 327.956625 783.912375 326.9019375 782.5778437499999C325.8444374999999 781.24303125 325.0625625 779.7133125 324.6013125 778.0761562499999C324.13725 776.439 324.00225 774.72675 324.2019375 773.037C324.401625 771.34725 324.930375 769.71346875 325.762875 768.2293125L354.562875 716.17921875C302.700375 686.6291249999999 268.0503749999999 633.7918125 268.0503749999999 573.37875C268.0503749999999 572.9653125 268.0503749999999 572.59125 268.1254687499999 572.1046875C268.0503749999999 571.8796875 268.0503749999999 571.6153125000001 268.0503749999999 571.3903124999999V571.35375H631.9119375V573.37875C631.9513124999999 633.7918125 597.3013125 686.5917187499999 545.4388125 716.216625zM366.0013125 642.4166250000001C364.294125 642.429 362.606625 642.7771875000001 361.0344375 643.4414999999999C359.46225 644.10609375 358.039125 645.07359375 356.841 646.288875C354.4194375 648.7430625000001 353.0750625 652.05815625 353.100375 655.5043125C353.1256875 658.95046875 354.517875 662.24559375 356.9731875 664.664625C359.4256875 667.0839375 362.741625 668.42915625 366.1869375 668.404125C369.6350625 668.379375 372.9285 666.9863437500001 375.3472499999999 664.5321562500001C377.7688124999999 662.0776875 379.1131874999999 658.762875 379.087875 655.3167187500001C379.0625625 651.8705625 377.670375 648.5754375 375.2150625 646.156125C372.7625625 643.7368125 369.446625 642.391875 366.0013125 642.4166250000001zM534.0003749999998 642.4166250000001C530.7294374999999 642.66553125 527.6722500000001 644.1404062500001 525.4447499999999 646.54621875C523.2144375 648.9523125000001 521.974125 652.1113124999999 521.974125 655.3918125C521.974125 658.6720312499999 523.2144375 661.83103125 525.4447499999999 664.237125C527.6722500000001 666.6429375 530.7294374999999 668.1178125 534.0003749999998 668.36671875C537.442875 668.36671875 540.7419375 666.9995625 543.1747499999999 664.56646875C545.6075624999999 662.13309375 546.9744375 658.83290625 546.9744375 655.3918125C546.9744375 651.9504375 545.6075624999999 648.65025 543.1747499999999 646.216875C540.7419375 643.78378125 537.442875 642.4166250000001 534.0003749999998 642.4166250000001zM268.0503749999999 295.50375C268.0503749999999 271.2796874999999 287.737875 251.5921875 312.0744375 251.5921875H334.0513125V161.5528125C334.0513125 148.8346875 339.1025625 136.6340625 348.0997499999999 127.6396875C357.094125 118.6453124999999 369.2919375 113.59125 382.012875 113.59125C394.7338125 113.59125 406.931625 118.6453124999999 415.9288125 127.6396875C424.9231875 136.6340625 429.9744375 148.8346875 429.9744375 161.5528125V251.5921875H469.9513124999999V161.5528125C469.9513124999999 135.0421875000001 491.3994375 113.6278125 517.8369375 113.6278125C544.4263125 113.6278125 565.8744374999999 135.0421875000001 565.8744374999999 161.5528125V251.5921875H587.8513125C612.1513124999999 251.5921875 631.8753749999998 271.2403125000001 631.8753749999998 295.50375V561.45375H268.0503749999999V295.50375z" />
    <glyph glyph-name="android-1"
      unicode="&#x61;&#x6E;&#x64;&#x72;&#x6F;&#x69;&#x64;"
      horiz-adv-x="900" d="M687.9003749999999 573.37875C661.3869374999999 573.37875 639.9388125 551.9278125000001 639.9388125 525.45375V355.57875C639.9388125 342.8578125 644.9900625 330.66 653.9872499999999 321.665625C662.9816249999999 312.6684375 675.1794375 307.6171875 687.9003749999999 307.6171875C700.6213124999999 307.6171875 712.819125 312.6684375 721.8163124999999 321.665625C730.8106875000001 330.66 735.8619375000001 342.8578125 735.8619375000001 355.57875V525.45375C735.8619375000001 551.9278125000001 714.4138125 573.37875 687.9003749999999 573.37875zM212.10046875 573.37875C185.587875 573.37875 164.1380624999999 551.9278125000001 164.1380624999999 525.45375V355.57875C164.1380624999999 342.8578125 169.19128125 330.66 178.1859374999999 321.665625C187.18059375 312.6684375 199.38009375 307.6171875 212.10046875 307.6171875C224.82084375 307.6171875 237.02034375 312.6684375 246.015 321.665625C255.0099375 330.66 260.062875 342.8578125 260.062875 355.57875V525.45375C260.0679374999999 531.7509375 258.8304375 537.9890625 256.42153125 543.808125C254.01234375 549.6271875 250.479 554.9146875 246.02371875 559.3668749999999C241.56871875 563.8190625 236.27896875 567.34875 230.4579375 569.750625C224.63690625 572.1553125 218.3987812499999 573.39 212.10046875 573.37875zM545.4388125 716.216625L574.2388125 768.26671875C575.0797499999999 769.748625 575.6197499999998 771.38296875 575.8222499999999 773.0746875C576.0275624999999 774.7666875 575.8953749999998 776.48259375 575.4313125000001 778.12228125C574.9672499999999 779.76225 574.1825624999999 781.29365625 573.1194375 782.62734375C572.059125 783.96103125 570.7428749999999 785.0705625 569.2494374999999 785.8918125C567.7616249999999 786.73134375 566.1191249999999 787.26684375 564.4231875 787.46653125C562.7244375 787.66621875 561.0031875 787.52671875 559.3606875 787.055625C557.715375 786.58453125 556.1825624999999 785.79140625 554.8494375 784.72265625C553.5135 783.653625 552.4053749999998 782.33034375 551.5869375 780.8293125L521.9994374999999 727.579125C499.9494374999999 736.3918125 475.6494374999999 741.3792187500001 449.9994375 741.3792187500001C424.3494374999999 741.3792187500001 400.0494375 736.42921875 377.9994375 727.6168125L348.4119375 780.791625C347.5935 782.2926562499999 346.4853749999999 783.61621875 345.15225 784.68525C343.819125 785.754 342.2835 786.547125 340.6409999999999 787.01821875C338.9985 787.48903125 337.27725 787.6288125 335.5784999999999 787.429125C333.87975 787.22915625 332.2400625 786.6939375 330.7494375 785.8541250000001C329.2644375 785.02584375 327.956625 783.912375 326.9019375 782.5778437499999C325.8444374999999 781.24303125 325.0625625 779.7133125 324.6013125 778.0761562499999C324.13725 776.439 324.00225 774.72675 324.2019375 773.037C324.401625 771.34725 324.930375 769.71346875 325.762875 768.2293125L354.562875 716.17921875C302.700375 686.6291249999999 268.0503749999999 633.7918125 268.0503749999999 573.37875C268.0503749999999 572.9653125 268.0503749999999 572.59125 268.1254687499999 572.1046875C268.0503749999999 571.8796875 268.0503749999999 571.6153125000001 268.0503749999999 571.3903124999999V571.35375H631.9119375V573.37875C631.9513124999999 633.7918125 597.3013125 686.5917187499999 545.4388125 716.216625zM366.0013125 642.4166250000001C364.294125 642.429 362.606625 642.7771875000001 361.0344375 643.4414999999999C359.46225 644.10609375 358.039125 645.07359375 356.841 646.288875C354.4194375 648.7430625000001 353.0750625 652.05815625 353.100375 655.5043125C353.1256875 658.95046875 354.517875 662.24559375 356.9731875 664.664625C359.4256875 667.0839375 362.741625 668.42915625 366.1869375 668.404125C369.6350625 668.379375 372.9285 666.9863437500001 375.3472499999999 664.5321562500001C377.7688124999999 662.0776875 379.1131874999999 658.762875 379.087875 655.3167187500001C379.0625625 651.8705625 377.670375 648.5754375 375.2150625 646.156125C372.7625625 643.7368125 369.446625 642.391875 366.0013125 642.4166250000001zM534.0003749999998 642.4166250000001C530.7294374999999 642.66553125 527.6722500000001 644.1404062500001 525.4447499999999 646.54621875C523.2144375 648.9523125000001 521.974125 652.1113124999999 521.974125 655.3918125C521.974125 658.6720312499999 523.2144375 661.83103125 525.4447499999999 664.237125C527.6722500000001 666.6429375 530.7294374999999 668.1178125 534.0003749999998 668.36671875C537.442875 668.36671875 540.7419375 666.9995625 543.1747499999999 664.56646875C545.6075624999999 662.13309375 546.9744375 658.83290625 546.9744375 655.3918125C546.9744375 651.9504375 545.6075624999999 648.65025 543.1747499999999 646.216875C540.7419375 643.78378125 537.442875 642.4166250000001 534.0003749999998 642.4166250000001zM268.0503749999999 295.50375C268.0503749999999 271.2796874999999 287.737875 251.5921875 312.0744375 251.5921875H334.0513125V161.5528125C334.0513125 148.8346875 339.1025625 136.6340625 348.0997499999999 127.6396875C357.094125 118.6453124999999 369.2919375 113.59125 382.012875 113.59125C394.7338125 113.59125 406.931625 118.6453124999999 415.9288125 127.6396875C424.9231875 136.6340625 429.9744375 148.8346875 429.9744375 161.5528125V251.5921875H469.9513124999999V161.5528125C469.9513124999999 135.0421875000001 491.3994375 113.6278125 517.8369375 113.6278125C544.4263125 113.6278125 565.8744374999999 135.0421875000001 565.8744374999999 161.5528125V251.5921875H587.8513125C612.1513124999999 251.5921875 631.8753749999998 271.2403125000001 631.8753749999998 295.50375V561.45375H268.0503749999999V295.50375z" />
    <glyph glyph-name="apple"
      unicode="&#xF10D;"
      horiz-adv-x="900" d="M737.53171875 269.566875C727.14796875 245.3625 714.31734375 222.2803125 699.2423437499999 200.6803125C679.10484375 171.916875 662.56734375 152.0437499999999 649.8942187499999 140.9821875C630.2067187499999 122.90625 609.0567187500001 113.6053125 586.44421875 113.0821875C570.24421875 113.0821875 550.66921875 117.6946875 527.86828125 127.06875C504.99421875 136.40625 483.9932812500001 140.9821875 464.75578125 140.9821875C444.61828125 140.9821875 423.01828125 136.40625 399.87984375 127.06875C376.78078125 117.6946875 358.1057812500001 112.78125 343.8182812500001 112.33125C322.1817187500001 111.3946875 300.54234375 120.9178125 278.9805937500001 140.9821875C265.2181875 152.9803125 248.0056875 173.6071875 227.34309375 202.78125C205.21828125 233.8678125 187.0306875 270.05625 172.78059375 311.191875C157.51828125 355.7053125 149.86828125 398.75625 149.86828125 440.4571875C149.86828125 488.19375 160.18059375 529.4053125 180.8431875 563.90625C196.471125 591.001875 218.813625 613.614375 245.71828125 629.56828125C272.2483125 645.4808437500001 302.53359375 654.0488437500001 333.46828125 654.393375C350.7173437500001 654.393375 373.32984375 649.0681875 401.3423437500001 638.56828125C429.35484375 628.0683750000001 447.35484375 622.7431875 455.19328125 622.7431875C461.11921875 622.7431875 481.0317187500001 629.0057812499999 514.93078125 641.4181874999999C546.91734375 652.930875 573.91734375 657.69328125 596.04328125 655.8181875C656.04234375 650.9806874999999 701.0817187499999 627.3556874999999 731.04328125 584.7553125C677.41734375 552.2428125 650.90671875 506.75625 651.42984375 448.36875C651.87984375 402.879375 668.41734375 365.0428125 700.81734375 335.0053125000001C715.1414062499999 321.2971875 731.85609375 310.3284375 750.13171875 302.6446875000001C746.1548437499999 291.1303125 741.95578125 280.1418750000001 737.53171875 269.566875zM600.01734375 810.7306875C600.01734375 775.105875 586.9673437499999 741.805875 561.05578125 711.01828125C529.70484375 674.418375 491.8317187499999 653.2306874999999 450.7692187500001 656.5682812499999C450.23203125 661.04803125 449.96765625 665.55646875 449.9817187500001 670.06828125C449.9817187500001 704.3056875 464.8317187500001 740.905875 491.3423437500001 770.86828125C504.54421875 786.018375 521.34328125 798.65578125 541.70578125 808.7056875C562.03171875 818.6056875 581.22984375 824.08078125 599.30578125 825.0181875C599.79234375 820.218375 600.01734375 815.4556875 600.01734375 810.7306875z" />
    <glyph glyph-name="apple-1"
      unicode="&#x61;&#x70;&#x70;&#x6C;&#x65;"
      horiz-adv-x="900" d="M737.53171875 269.566875C727.14796875 245.3625 714.31734375 222.2803125 699.2423437499999 200.6803125C679.10484375 171.916875 662.56734375 152.0437499999999 649.8942187499999 140.9821875C630.2067187499999 122.90625 609.0567187500001 113.6053125 586.44421875 113.0821875C570.24421875 113.0821875 550.66921875 117.6946875 527.86828125 127.06875C504.99421875 136.40625 483.9932812500001 140.9821875 464.75578125 140.9821875C444.61828125 140.9821875 423.01828125 136.40625 399.87984375 127.06875C376.78078125 117.6946875 358.1057812500001 112.78125 343.8182812500001 112.33125C322.1817187500001 111.3946875 300.54234375 120.9178125 278.9805937500001 140.9821875C265.2181875 152.9803125 248.0056875 173.6071875 227.34309375 202.78125C205.21828125 233.8678125 187.0306875 270.05625 172.78059375 311.191875C157.51828125 355.7053125 149.86828125 398.75625 149.86828125 440.4571875C149.86828125 488.19375 160.18059375 529.4053125 180.8431875 563.90625C196.471125 591.001875 218.813625 613.614375 245.71828125 629.56828125C272.2483125 645.4808437500001 302.53359375 654.0488437500001 333.46828125 654.393375C350.7173437500001 654.393375 373.32984375 649.0681875 401.3423437500001 638.56828125C429.35484375 628.0683750000001 447.35484375 622.7431875 455.19328125 622.7431875C461.11921875 622.7431875 481.0317187500001 629.0057812499999 514.93078125 641.4181874999999C546.91734375 652.930875 573.91734375 657.69328125 596.04328125 655.8181875C656.04234375 650.9806874999999 701.0817187499999 627.3556874999999 731.04328125 584.7553125C677.41734375 552.2428125 650.90671875 506.75625 651.42984375 448.36875C651.87984375 402.879375 668.41734375 365.0428125 700.81734375 335.0053125000001C715.1414062499999 321.2971875 731.85609375 310.3284375 750.13171875 302.6446875000001C746.1548437499999 291.1303125 741.95578125 280.1418750000001 737.53171875 269.566875zM600.01734375 810.7306875C600.01734375 775.105875 586.9673437499999 741.805875 561.05578125 711.01828125C529.70484375 674.418375 491.8317187499999 653.2306874999999 450.7692187500001 656.5682812499999C450.23203125 661.04803125 449.96765625 665.55646875 449.9817187500001 670.06828125C449.9817187500001 704.3056875 464.8317187500001 740.905875 491.3423437500001 770.86828125C504.54421875 786.018375 521.34328125 798.65578125 541.70578125 808.7056875C562.03171875 818.6056875 581.22984375 824.08078125 599.30578125 825.0181875C599.79234375 820.218375 600.01734375 815.4556875 600.01734375 810.7306875z" />
    <glyph glyph-name="archive"
      unicode="&#xF10E;"
      horiz-adv-x="900" d="M525 412.5H487.5V487.5C487.5 510 472.5 525 450 525S412.5 510 412.5 487.5V412.5H375C360 412.5 348.75 405 341.25 390C333.75 378.75 337.5 360 345 348.75L420 255C427.5 247.5 438.75 240.0000000000001 450 240.0000000000001S472.5 243.7500000000001 480 255L555 348.75C562.5 360 566.25 375 558.75 390C551.25 405 540 412.5 525 412.5zM783.75 660L720 746.25C690 783.75 648.75 806.25 600 806.25H300C251.25 806.25 210 783.75 180 746.25L116.25 660C101.25 641.25 93.75 618.75 93.75 592.5V243.75C93.75 161.25 161.25 93.75 243.75 93.75H656.25C738.75 93.75 806.25 161.25 806.25 243.75V592.5C806.25 618.75 798.75 641.25 783.75 660zM240 701.25C255.0000000000001 720 277.5 731.25 300 731.25H600C622.5 731.25 645 720 660 701.25L693.75 656.25H206.25L240 701.25zM731.25 243.75C731.25 202.5 697.5 168.75 656.25 168.75H243.75C202.5 168.75 168.75 202.5 168.75 243.75V581.25H731.25V243.75z" />
    <glyph glyph-name="archive-1"
      unicode="&#x61;&#x72;&#x63;&#x68;&#x69;&#x76;&#x65;"
      horiz-adv-x="900" d="M525 412.5H487.5V487.5C487.5 510 472.5 525 450 525S412.5 510 412.5 487.5V412.5H375C360 412.5 348.75 405 341.25 390C333.75 378.75 337.5 360 345 348.75L420 255C427.5 247.5 438.75 240.0000000000001 450 240.0000000000001S472.5 243.7500000000001 480 255L555 348.75C562.5 360 566.25 375 558.75 390C551.25 405 540 412.5 525 412.5zM783.75 660L720 746.25C690 783.75 648.75 806.25 600 806.25H300C251.25 806.25 210 783.75 180 746.25L116.25 660C101.25 641.25 93.75 618.75 93.75 592.5V243.75C93.75 161.25 161.25 93.75 243.75 93.75H656.25C738.75 93.75 806.25 161.25 806.25 243.75V592.5C806.25 618.75 798.75 641.25 783.75 660zM240 701.25C255.0000000000001 720 277.5 731.25 300 731.25H600C622.5 731.25 645 720 660 701.25L693.75 656.25H206.25L240 701.25zM731.25 243.75C731.25 202.5 697.5 168.75 656.25 168.75H243.75C202.5 168.75 168.75 202.5 168.75 243.75V581.25H731.25V243.75z" />
    <glyph glyph-name="arrow-down"
      unicode="&#xF10F;"
      horiz-adv-x="900" d="M75 600L450 225L825 600z" />
    <glyph glyph-name="arrow-down-1"
      unicode="&#x61;&#x72;&#x72;&#x6F;&#x77;&#x2D;&#x64;&#x6F;&#x77;&#x6E;"
      horiz-adv-x="900" d="M75 600L450 225L825 600z" />
    <glyph glyph-name="arrow-left"
      unicode="&#xF110;"
      horiz-adv-x="900" d="M637.5 787.5L262.5 412.5L637.5 37.5V787.5z" />
    <glyph glyph-name="arrow-left-1"
      unicode="&#x61;&#x72;&#x72;&#x6F;&#x77;&#x2D;&#x6C;&#x65;&#x66;&#x74;"
      horiz-adv-x="900" d="M637.5 787.5L262.5 412.5L637.5 37.5V787.5z" />
    <glyph glyph-name="arrow-move"
      unicode="&#xF111;"
      horiz-adv-x="900" d="M722.8125 469.6875L652.5 540C641.25 551.25 624.375 551.25 613.125 540S601.8750000000001 511.875 613.125 500.6249999999999L635.625 478.1249999999999H478.125V635.625L500.625 613.125C506.25 607.5 514.6875 604.6875 520.3125 604.6875C528.75 604.6875 534.375 607.5 540 613.125C551.2499999999999 624.375 551.2499999999999 641.25 540 652.5L469.6875 722.8125C464.0625 728.4375 458.4375 731.25 450 731.25C441.5625 731.25 435.9375 728.4375 430.3125 722.8125L360 652.5C348.75 641.25 348.75 624.375 360 613.125C365.625 607.5 374.0625 604.6875 379.6875 604.6875C388.125 604.6875 393.75 607.5 399.375 613.125L421.875 635.625V478.125H264.375L286.8750000000001 500.625C298.1250000000001 511.8750000000001 298.1250000000001 528.75 286.8750000000001 540S258.7500000000001 551.25 247.5000000000001 540L177.1875 469.6875000000001C165.9375 458.4375 165.9375 441.5625000000001 177.1875 430.3125L247.5000000000001 360C258.7500000000001 348.7500000000001 275.625 348.7500000000001 286.8750000000001 360S298.1250000000001 388.125 286.8750000000001 399.375L264.375 421.875H421.875V264.375L399.375 286.875C388.125 298.1249999999999 371.25 298.1249999999999 360 286.875S348.75 258.75 360 247.5L430.3125 177.1875C435.9375 171.5625 441.5625 168.75 450 168.75C458.4374999999999 168.75 464.0625 171.5625 469.6875 177.1875L540 247.5C551.2499999999999 258.75 551.2499999999999 275.625 540 286.875S511.875 298.1249999999999 500.625 286.875L478.125 264.375V421.875H635.625L613.125 399.375C601.8750000000001 388.125 601.8750000000001 371.25 613.125 360S641.25 348.7500000000001 652.5 360L722.8125 430.3125C734.0625 441.5625 734.0625 458.4375 722.8125 469.6875z" />
    <glyph glyph-name="arrow-move-1"
      unicode="&#x61;&#x72;&#x72;&#x6F;&#x77;&#x2D;&#x6D;&#x6F;&#x76;&#x65;"
      horiz-adv-x="900" d="M722.8125 469.6875L652.5 540C641.25 551.25 624.375 551.25 613.125 540S601.8750000000001 511.875 613.125 500.6249999999999L635.625 478.1249999999999H478.125V635.625L500.625 613.125C506.25 607.5 514.6875 604.6875 520.3125 604.6875C528.75 604.6875 534.375 607.5 540 613.125C551.2499999999999 624.375 551.2499999999999 641.25 540 652.5L469.6875 722.8125C464.0625 728.4375 458.4375 731.25 450 731.25C441.5625 731.25 435.9375 728.4375 430.3125 722.8125L360 652.5C348.75 641.25 348.75 624.375 360 613.125C365.625 607.5 374.0625 604.6875 379.6875 604.6875C388.125 604.6875 393.75 607.5 399.375 613.125L421.875 635.625V478.125H264.375L286.8750000000001 500.625C298.1250000000001 511.8750000000001 298.1250000000001 528.75 286.8750000000001 540S258.7500000000001 551.25 247.5000000000001 540L177.1875 469.6875000000001C165.9375 458.4375 165.9375 441.5625000000001 177.1875 430.3125L247.5000000000001 360C258.7500000000001 348.7500000000001 275.625 348.7500000000001 286.8750000000001 360S298.1250000000001 388.125 286.8750000000001 399.375L264.375 421.875H421.875V264.375L399.375 286.875C388.125 298.1249999999999 371.25 298.1249999999999 360 286.875S348.75 258.75 360 247.5L430.3125 177.1875C435.9375 171.5625 441.5625 168.75 450 168.75C458.4374999999999 168.75 464.0625 171.5625 469.6875 177.1875L540 247.5C551.2499999999999 258.75 551.2499999999999 275.625 540 286.875S511.875 298.1249999999999 500.625 286.875L478.125 264.375V421.875H635.625L613.125 399.375C601.8750000000001 388.125 601.8750000000001 371.25 613.125 360S641.25 348.7500000000001 652.5 360L722.8125 430.3125C734.0625 441.5625 734.0625 458.4375 722.8125 469.6875z" />
    <glyph glyph-name="arrow-right"
      unicode="&#xF112;"
      horiz-adv-x="900" d="M262.5 75L637.5 450L262.5 825z" />
    <glyph glyph-name="arrow-right-1"
      unicode="&#x61;&#x72;&#x72;&#x6F;&#x77;&#x2D;&#x72;&#x69;&#x67;&#x68;&#x74;"
      horiz-adv-x="900" d="M262.5 75L637.5 450L262.5 825z" />
    <glyph glyph-name="arrow-up"
      unicode="&#xF113;"
      horiz-adv-x="900" d="M825 225L450 600L75 225H825z" />
    <glyph glyph-name="arrow-up-1"
      unicode="&#x61;&#x72;&#x72;&#x6F;&#x77;&#x2D;&#x75;&#x70;"
      horiz-adv-x="900" d="M825 225L450 600L75 225H825z" />
    <glyph glyph-name="attach"
      unicode="&#xF114;"
      horiz-adv-x="900" d="M390.6445148011959 757.699125C405.2507648011959 743.0174999999999 405.1907648011959 719.274 390.509514801196 704.66625L205.1702648011959 520.26375C131.6091398011959 447.07125 131.6091398011959 328.48875 205.1702648011959 255.3C279.0527648011959 181.7887499999999 398.995764801196 182.04 472.567014801196 255.8512500000001L717.168264801196 501.24C761.0732648011959 545.2860000000001 760.923264801196 616.282875 716.834514801196 660.149625C672.3482648011959 704.4135 600.0820148011959 704.224125 555.8282648011959 659.73075L311.8360148011959 414.41625C297.2383898011959 399.7387500000001 297.299514801196 376.1625 311.9758898011959 361.5600000000001C326.887014801196 346.725 351.1660148011959 346.81125 365.9683898011959 361.7512499999999L609.3445148011958 607.363125C623.9207648011959 622.07475 647.6620148011959 622.183125 662.3770148011959 607.60575C677.088264801196 593.028375 677.1970148011959 569.284875 662.6170148011959 554.5732499999999L419.2420148011959 308.9625C375.243264801196 264.5550000000001 303.3925148011959 264.3037500000001 259.0776398011959 308.3925000000001C215.0425148011959 352.2075 214.854639801196 423.2625000000001 258.6598898011959 467.30625L502.6495148011959 712.620375C576.1195148011959 786.48675 695.8795148011959 786.798 769.7357648011958 713.31675C843.2057648011959 640.21725 843.4532648011959 521.69625 770.2870148011959 448.29L525.6857648011959 202.9012499999999C422.890764801196 99.7724999999999 255.4975148011959 99.4275 152.2716398011959 202.1325000000001C49.2422648011959 304.6425 49.2422648011959 470.92125 152.2716398011959 573.4293749999999L337.6123898011959 757.83375C352.2940148011959 772.441125 376.0382648011959 772.381125 390.6445148011959 757.699125z" />
    <glyph glyph-name="attach-1"
      unicode="&#x61;&#x74;&#x74;&#x61;&#x63;&#x68;"
      horiz-adv-x="900" d="M390.6445148011959 757.699125C405.2507648011959 743.0174999999999 405.1907648011959 719.274 390.509514801196 704.66625L205.1702648011959 520.26375C131.6091398011959 447.07125 131.6091398011959 328.48875 205.1702648011959 255.3C279.0527648011959 181.7887499999999 398.995764801196 182.04 472.567014801196 255.8512500000001L717.168264801196 501.24C761.0732648011959 545.2860000000001 760.923264801196 616.282875 716.834514801196 660.149625C672.3482648011959 704.4135 600.0820148011959 704.224125 555.8282648011959 659.73075L311.8360148011959 414.41625C297.2383898011959 399.7387500000001 297.299514801196 376.1625 311.9758898011959 361.5600000000001C326.887014801196 346.725 351.1660148011959 346.81125 365.9683898011959 361.7512499999999L609.3445148011958 607.363125C623.9207648011959 622.07475 647.6620148011959 622.183125 662.3770148011959 607.60575C677.088264801196 593.028375 677.1970148011959 569.284875 662.6170148011959 554.5732499999999L419.2420148011959 308.9625C375.243264801196 264.5550000000001 303.3925148011959 264.3037500000001 259.0776398011959 308.3925000000001C215.0425148011959 352.2075 214.854639801196 423.2625000000001 258.6598898011959 467.30625L502.6495148011959 712.620375C576.1195148011959 786.48675 695.8795148011959 786.798 769.7357648011958 713.31675C843.2057648011959 640.21725 843.4532648011959 521.69625 770.2870148011959 448.29L525.6857648011959 202.9012499999999C422.890764801196 99.7724999999999 255.4975148011959 99.4275 152.2716398011959 202.1325000000001C49.2422648011959 304.6425 49.2422648011959 470.92125 152.2716398011959 573.4293749999999L337.6123898011959 757.83375C352.2940148011959 772.441125 376.0382648011959 772.381125 390.6445148011959 757.699125z" />
    <glyph glyph-name="backward"
      unicode="&#xF115;"
      horiz-adv-x="900" d="M150 450C150 470.71125 166.7895 487.5 187.5 487.5H712.5C733.21125 487.5 750 470.71125 750 450C750 429.28875 733.21125 412.5 712.5 412.5H187.5C166.7895 412.5 150 429.28875 150 450zM476.51625 739.016625C491.16 724.37175 491.16 700.62825 476.51625 685.983375L240.532875 450L476.51625 214.01625C491.16 199.3725000000001 491.16 175.6275 476.51625 160.98375C461.8725 146.34 438.1275 146.34 423.48375 160.98375L160.983375 423.48375C146.338875 438.1275 146.338875 461.8725 160.983375 476.51625L423.48375 739.016625C438.1275 753.661125 461.8725 753.661125 476.51625 739.016625z" />
    <glyph glyph-name="backward-1"
      unicode="&#x62;&#x61;&#x63;&#x6B;&#x77;&#x61;&#x72;&#x64;"
      horiz-adv-x="900" d="M150 450C150 470.71125 166.7895 487.5 187.5 487.5H712.5C733.21125 487.5 750 470.71125 750 450C750 429.28875 733.21125 412.5 712.5 412.5H187.5C166.7895 412.5 150 429.28875 150 450zM476.51625 739.016625C491.16 724.37175 491.16 700.62825 476.51625 685.983375L240.532875 450L476.51625 214.01625C491.16 199.3725000000001 491.16 175.6275 476.51625 160.98375C461.8725 146.34 438.1275 146.34 423.48375 160.98375L160.983375 423.48375C146.338875 438.1275 146.338875 461.8725 160.983375 476.51625L423.48375 739.016625C438.1275 753.661125 461.8725 753.661125 476.51625 739.016625z" />
    <glyph glyph-name="board"
      unicode="&#xF116;"
      horiz-adv-x="900" d="M161.99964 756C142.11756 756 125.99964 739.88208 125.99964 720C125.99964 700.11792 142.11756 684 161.99964 684H378.00036C397.88316 684 414.00036 700.11792 414.00036 720C414.00036 739.88208 397.88316 756 378.00036 756H161.99964zM522.00036 756C502.11756 756 486.00036 739.88208 486.00036 720C486.00036 700.11792 502.11756 684 522.00036 684H738.00036C757.88316 684 774.00036 700.11792 774.00036 720C774.00036 739.88208 757.88316 756 738.00036 756H522.00036zM233.99964 540C214.11756 540 197.99964 523.88208 197.99964 504V216C197.99964 196.1172 214.11756 180 233.99964 180H305.99964C325.88208 180 341.99964 196.1172 341.99964 216V504C341.99964 523.88208 325.88208 540 305.99964 540H233.99964zM125.99964 504C125.99964 563.6466 174.35304 612 233.99964 612H305.99964C365.6466000000001 612 414.00036 563.6466 414.00036 504V216C414.00036 156.3516 365.6466000000001 108 305.99964 108H233.99964C174.35304 108 125.99964 156.3516 125.99964 216V504zM558.00036 504C558.00036 523.88208 574.11756 540 594.00036 540H666.00036C685.88316 540 702.00036 523.88208 702.00036 504V432C702.00036 412.1172 685.88316 396 666.00036 396H594.00036C574.11756 396 558.00036 412.1172 558.00036 432V504zM594.00036 612C534.35196 612 486.00036 563.6466 486.00036 504V432C486.00036 372.3516 534.35196 324 594.00036 324H666.00036C725.64516 324 774.00036 372.3516 774.00036 432V504C774.00036 563.6466 725.64516 612 666.00036 612H594.00036z" />
    <glyph glyph-name="board-1"
      unicode="&#x62;&#x6F;&#x61;&#x72;&#x64;"
      horiz-adv-x="900" d="M161.99964 756C142.11756 756 125.99964 739.88208 125.99964 720C125.99964 700.11792 142.11756 684 161.99964 684H378.00036C397.88316 684 414.00036 700.11792 414.00036 720C414.00036 739.88208 397.88316 756 378.00036 756H161.99964zM522.00036 756C502.11756 756 486.00036 739.88208 486.00036 720C486.00036 700.11792 502.11756 684 522.00036 684H738.00036C757.88316 684 774.00036 700.11792 774.00036 720C774.00036 739.88208 757.88316 756 738.00036 756H522.00036zM233.99964 540C214.11756 540 197.99964 523.88208 197.99964 504V216C197.99964 196.1172 214.11756 180 233.99964 180H305.99964C325.88208 180 341.99964 196.1172 341.99964 216V504C341.99964 523.88208 325.88208 540 305.99964 540H233.99964zM125.99964 504C125.99964 563.6466 174.35304 612 233.99964 612H305.99964C365.6466000000001 612 414.00036 563.6466 414.00036 504V216C414.00036 156.3516 365.6466000000001 108 305.99964 108H233.99964C174.35304 108 125.99964 156.3516 125.99964 216V504zM558.00036 504C558.00036 523.88208 574.11756 540 594.00036 540H666.00036C685.88316 540 702.00036 523.88208 702.00036 504V432C702.00036 412.1172 685.88316 396 666.00036 396H594.00036C574.11756 396 558.00036 412.1172 558.00036 432V504zM594.00036 612C534.35196 612 486.00036 563.6466 486.00036 504V432C486.00036 372.3516 534.35196 324 594.00036 324H666.00036C725.64516 324 774.00036 372.3516 774.00036 432V504C774.00036 563.6466 725.64516 612 666.00036 612H594.00036z" />
    <glyph glyph-name="bold"
      unicode="&#xF117;"
      horiz-adv-x="900" d="M150 750C150 781.066125 175.183875 806.25 206.25 806.25H468.75C582.6600000000001 806.25 675 713.908875 675 600C675 556.611375 661.60125 516.3525 638.71875 483.13125C704.835 448.7775 750 379.66125 750 300C750 186.0899999999999 657.6600000000001 93.75 543.75 93.75H206.25C175.183875 93.75 150 118.9350000000001 150 150V750zM262.5 693.75V506.25H468.75C520.52625 506.25 562.5 548.223375 562.5 600C562.5 651.776625 520.52625 693.75 468.75 693.75H262.5zM262.5 393.75V206.25H543.75C595.52625 206.25 637.5 248.22375 637.5 300C637.5 351.77625 595.52625 393.75 543.75 393.75H262.5z" />
    <glyph glyph-name="bold-1"
      unicode="&#x62;&#x6F;&#x6C;&#x64;"
      horiz-adv-x="900" d="M150 750C150 781.066125 175.183875 806.25 206.25 806.25H468.75C582.6600000000001 806.25 675 713.908875 675 600C675 556.611375 661.60125 516.3525 638.71875 483.13125C704.835 448.7775 750 379.66125 750 300C750 186.0899999999999 657.6600000000001 93.75 543.75 93.75H206.25C175.183875 93.75 150 118.9350000000001 150 150V750zM262.5 693.75V506.25H468.75C520.52625 506.25 562.5 548.223375 562.5 600C562.5 651.776625 520.52625 693.75 468.75 693.75H262.5zM262.5 393.75V206.25H543.75C595.52625 206.25 637.5 248.22375 637.5 300C637.5 351.77625 595.52625 393.75 543.75 393.75H262.5z" />
    <glyph glyph-name="book"
      unicode="&#xF118;"
      horiz-adv-x="900" d="M648 792H216C194.4 792 180 777.6 180 756V648H144C122.4 648 108 633.6 108 612S122.4 576 144 576H180V468H144C122.4 468 108 453.6 108 432S122.4 396 144 396H180V288H144C122.4 288 108 273.6 108 252S122.4 216 144 216H180V108C180 86.4 194.4 72 216 72H648C727.1999999999999 72 792 136.8000000000001 792 216V648C792 727.2 727.1999999999999 792 648 792zM720 216C720 176.4 687.6 144 648 144H252V216C273.6 216 288 230.4 288 252S273.6 288 252 288V396C273.6 396 288 410.4000000000001 288 432S273.6 468 252 468V576C273.6 576 288 590.4000000000001 288 612S270 648 252 648V720H648C687.6 720 720 687.6 720 648V216z" />
    <glyph glyph-name="book-1"
      unicode="&#x62;&#x6F;&#x6F;&#x6B;"
      horiz-adv-x="900" d="M648 792H216C194.4 792 180 777.6 180 756V648H144C122.4 648 108 633.6 108 612S122.4 576 144 576H180V468H144C122.4 468 108 453.6 108 432S122.4 396 144 396H180V288H144C122.4 288 108 273.6 108 252S122.4 216 144 216H180V108C180 86.4 194.4 72 216 72H648C727.1999999999999 72 792 136.8000000000001 792 216V648C792 727.2 727.1999999999999 792 648 792zM720 216C720 176.4 687.6 144 648 144H252V216C273.6 216 288 230.4 288 252S273.6 288 252 288V396C273.6 396 288 410.4000000000001 288 432S273.6 468 252 468V576C273.6 576 288 590.4000000000001 288 612S270 648 252 648V720H648C687.6 720 720 687.6 720 648V216z" />
    <glyph glyph-name="calendar"
      unicode="&#xF119;"
      horiz-adv-x="900" d="M675 748.125V787.5C675 810 658.125 826.875 635.625 826.875S601.875 810 601.875 787.5V748.125H298.125V787.5C298.125 810 281.25 826.875 258.75 826.875C241.875 826.875 225 810 225 787.5V748.125C140.625 748.125 73.125 680.625 73.125 596.25V258.75C73.125 180 140.625 112.5 225 112.5H675C759.375 112.5 826.875 180 826.875 264.375V601.875C826.875 680.625 759.375 748.125 675 748.125zM748.125 264.375C748.125 225 714.3750000000001 191.2499999999999 675 191.2499999999999H225C185.625 191.2499999999999 151.875 224.9999999999999 151.875 264.375V523.125H753.7499999999999V264.375zM151.875 601.875C151.875 641.25 185.625 675 225 675H675C714.375 675 748.125 641.25 748.125 601.875H151.875z" />
    <glyph glyph-name="calendar-1"
      unicode="&#x63;&#x61;&#x6C;&#x65;&#x6E;&#x64;&#x61;&#x72;"
      horiz-adv-x="900" d="M675 748.125V787.5C675 810 658.125 826.875 635.625 826.875S601.875 810 601.875 787.5V748.125H298.125V787.5C298.125 810 281.25 826.875 258.75 826.875C241.875 826.875 225 810 225 787.5V748.125C140.625 748.125 73.125 680.625 73.125 596.25V258.75C73.125 180 140.625 112.5 225 112.5H675C759.375 112.5 826.875 180 826.875 264.375V601.875C826.875 680.625 759.375 748.125 675 748.125zM748.125 264.375C748.125 225 714.3750000000001 191.2499999999999 675 191.2499999999999H225C185.625 191.2499999999999 151.875 224.9999999999999 151.875 264.375V523.125H753.7499999999999V264.375zM151.875 601.875C151.875 641.25 185.625 675 225 675H675C714.375 675 748.125 641.25 748.125 601.875H151.875z" />
    <glyph glyph-name="card-kanban"
      unicode="&#xF11A;"
      horiz-adv-x="900" d="M666.00036 504C666.00036 484.1172 649.88316 468 630.00036 468L414.00036 468C394.1175600000001 468 378.00036 484.1172 378.00036 504C378.00036 523.88244 394.1175600000001 540 414.00036 540L630.00036 540C649.88316 540 666.00036 523.88208 666.00036 504zM630.00036 324C649.88316 324 666.00036 340.1172000000001 666.00036 360C666.00036 379.8828000000001 649.88316 396 630.00036 396L414.00036 396C394.1175600000001 396 378.00036 379.8828000000001 378.00036 360C378.00036 340.1172000000001 394.1175600000001 324 414.00036 324L630.00036 324zM323.99964 360C323.99964 335.1456 303.8526 315 278.99964 315C254.14704 315 233.99964 335.1456 233.99964 360C233.99964 384.8544 254.14704 405 278.99964 405C303.8526 405 323.99964 384.8544 323.99964 360zM278.99964 459C303.8526 459 323.99964 479.1456 323.99964 504C323.99964 528.8529599999999 303.8526 549 278.99964 549C254.14704 549 233.99964 528.8529599999999 233.99964 504C233.99964 479.1456 254.14704 459 278.99964 459zM89.99964 594C89.99964 673.52904 154.4706 738 233.99964 738H666.00036C745.52796 738 810.00036 673.52904 810.00036 594V270C810.00036 190.4724 745.52796 126 666.00036 126H233.99964C154.4706 126 89.99964 190.4724 89.99964 270V594zM233.99964 666C194.23512 666 161.99964 633.76452 161.99964 594V270C161.99964 230.2344 194.23512 198 233.99964 198H666.00036C705.76596 198 738.00036 230.2344 738.00036 270V594C738.00036 633.76452 705.76596 666 666.00036 666H233.99964z" />
    <glyph glyph-name="card-kanban-1"
      unicode="&#x63;&#x61;&#x72;&#x64;&#x2D;&#x6B;&#x61;&#x6E;&#x62;&#x61;&#x6E;"
      horiz-adv-x="900" d="M666.00036 504C666.00036 484.1172 649.88316 468 630.00036 468L414.00036 468C394.1175600000001 468 378.00036 484.1172 378.00036 504C378.00036 523.88244 394.1175600000001 540 414.00036 540L630.00036 540C649.88316 540 666.00036 523.88208 666.00036 504zM630.00036 324C649.88316 324 666.00036 340.1172000000001 666.00036 360C666.00036 379.8828000000001 649.88316 396 630.00036 396L414.00036 396C394.1175600000001 396 378.00036 379.8828000000001 378.00036 360C378.00036 340.1172000000001 394.1175600000001 324 414.00036 324L630.00036 324zM323.99964 360C323.99964 335.1456 303.8526 315 278.99964 315C254.14704 315 233.99964 335.1456 233.99964 360C233.99964 384.8544 254.14704 405 278.99964 405C303.8526 405 323.99964 384.8544 323.99964 360zM278.99964 459C303.8526 459 323.99964 479.1456 323.99964 504C323.99964 528.8529599999999 303.8526 549 278.99964 549C254.14704 549 233.99964 528.8529599999999 233.99964 504C233.99964 479.1456 254.14704 459 278.99964 459zM89.99964 594C89.99964 673.52904 154.4706 738 233.99964 738H666.00036C745.52796 738 810.00036 673.52904 810.00036 594V270C810.00036 190.4724 745.52796 126 666.00036 126H233.99964C154.4706 126 89.99964 190.4724 89.99964 270V594zM233.99964 666C194.23512 666 161.99964 633.76452 161.99964 594V270C161.99964 230.2344 194.23512 198 233.99964 198H666.00036C705.76596 198 738.00036 230.2344 738.00036 270V594C738.00036 633.76452 705.76596 666 666.00036 666H233.99964z" />
    <glyph glyph-name="chat"
      unicode="&#xF11B;"
      horiz-adv-x="900" d="M449.9216216596343 720C290.8628216596343 720 161.9209016596343 591.05808 161.9209016596343 432C161.9209016596343 272.9412000000001 290.8628216596343 144 449.9216216596343 144C495.5588216596343 144 538.6184216596342 154.5876000000001 576.8756216596342 173.412L590.5124216596344 180.1224L604.8332216596343 175.0247999999999C643.4756216596343 161.2764 684.4148216596343 151.7328 724.5260216596344 149.3604C709.9784216596344 175.1184 695.7296216596343 203.7492 682.9820216596344 231.9408L674.5508216596343 250.5924L686.2652216596342 267.3756C718.8272216596343 314.0244 737.9216216596343 370.728 737.9216216596343 432C737.9216216596343 591.05808 608.9804216596342 720 449.9216216596343 720zM89.9209016596342 432C89.9209016596342 630.8226 251.0983016596343 792 449.9216216596343 792C648.7424216596343 792 809.9216216596343 630.8226 809.9216216596343 432C809.9216216596343 363.0492 790.5032216596343 298.548 756.8432216596343 243.7632C771.3368216596343 213.1452000000001 786.9824216596343 183.7368 801.8684216596342 160.1568C821.1752216596343 129.5748 806.1416216596343 79.1351999999999 759.8456216596343 77.1264C703.2176216596342 74.6748 646.2728216596344 85.4964 594.8252216596343 102.3624C550.4516216596343 82.8288 501.4088216596342 72 449.9216216596343 72C251.0983016596343 72 89.9209016596342 233.1792000000001 89.9209016596342 432zM431.9216216596343 504C431.9216216596343 484.1172 415.8044216596343 468 395.9216216596343 468H323.9209016596342C304.0388216596342 468 287.9209016596342 484.1172 287.9209016596342 504C287.9209016596342 523.88208 304.0388216596342 540 323.9209016596342 540H395.9216216596343C415.8044216596343 540 431.9216216596343 523.88208 431.9216216596343 504zM575.9216216596343 324C595.8044216596343 324 611.9216216596343 340.1172000000001 611.9216216596343 360C611.9216216596343 379.8828000000001 595.8044216596343 396 575.9216216596343 396H323.9209016596342C304.0388216596342 396 287.9209016596342 379.8828000000001 287.9209016596342 360C287.9209016596342 340.1172000000001 304.0388216596342 324 323.9209016596342 324H575.9216216596343z" />
    <glyph glyph-name="chat-1"
      unicode="&#x63;&#x68;&#x61;&#x74;"
      horiz-adv-x="900" d="M449.9216216596343 720C290.8628216596343 720 161.9209016596343 591.05808 161.9209016596343 432C161.9209016596343 272.9412000000001 290.8628216596343 144 449.9216216596343 144C495.5588216596343 144 538.6184216596342 154.5876000000001 576.8756216596342 173.412L590.5124216596344 180.1224L604.8332216596343 175.0247999999999C643.4756216596343 161.2764 684.4148216596343 151.7328 724.5260216596344 149.3604C709.9784216596344 175.1184 695.7296216596343 203.7492 682.9820216596344 231.9408L674.5508216596343 250.5924L686.2652216596342 267.3756C718.8272216596343 314.0244 737.9216216596343 370.728 737.9216216596343 432C737.9216216596343 591.05808 608.9804216596342 720 449.9216216596343 720zM89.9209016596342 432C89.9209016596342 630.8226 251.0983016596343 792 449.9216216596343 792C648.7424216596343 792 809.9216216596343 630.8226 809.9216216596343 432C809.9216216596343 363.0492 790.5032216596343 298.548 756.8432216596343 243.7632C771.3368216596343 213.1452000000001 786.9824216596343 183.7368 801.8684216596342 160.1568C821.1752216596343 129.5748 806.1416216596343 79.1351999999999 759.8456216596343 77.1264C703.2176216596342 74.6748 646.2728216596344 85.4964 594.8252216596343 102.3624C550.4516216596343 82.8288 501.4088216596342 72 449.9216216596343 72C251.0983016596343 72 89.9209016596342 233.1792000000001 89.9209016596342 432zM431.9216216596343 504C431.9216216596343 484.1172 415.8044216596343 468 395.9216216596343 468H323.9209016596342C304.0388216596342 468 287.9209016596342 484.1172 287.9209016596342 504C287.9209016596342 523.88208 304.0388216596342 540 323.9209016596342 540H395.9216216596343C415.8044216596343 540 431.9216216596343 523.88208 431.9216216596343 504zM575.9216216596343 324C595.8044216596343 324 611.9216216596343 340.1172000000001 611.9216216596343 360C611.9216216596343 379.8828000000001 595.8044216596343 396 575.9216216596343 396H323.9209016596342C304.0388216596342 396 287.9209016596342 379.8828000000001 287.9209016596342 360C287.9209016596342 340.1172000000001 304.0388216596342 324 323.9209016596342 324H575.9216216596343z" />
    <glyph glyph-name="check-double"
      unicode="&#xF11C;"
      horiz-adv-x="900" d="M582.327747632609 602.5373999999999C596.983347632609 589.10256 597.973347632609 566.33004 584.538147632609 551.67372L320.537907632609 263.6748C313.4649876326089 255.9564000000001 303.384267632609 251.7012000000001 292.9215876326089 252.0144C282.4592676326089 252.3312 272.651427632609 257.1804 266.0533476326089 265.3055999999999L134.0535876326089 427.8672C121.5205476326089 443.3004 123.8724276326089 465.9732 139.3070676326089 478.5084C154.7417076326089 491.04 177.4141476326089 488.6892 189.947187632609 473.2524L295.651107632609 343.0764000000001L531.4633476326089 600.32592C544.8985476326089 614.98224 567.6685476326089 615.97224 582.327747632609 602.5373999999999zM761.7049476326089 603.0921599999999C776.670147632609 589.99968 778.185747632609 567.25632 765.092547632609 552.2932800000001L513.0925476326089 264.294C499.999347632609 249.3288 477.2545476326089 247.8132000000001 462.2929476326088 260.9064C447.3313476326089 273.9996 445.8157476326089 296.7444000000001 458.9053476326089 311.706L710.905347632609 599.7056399999999C723.998547632609 614.66868 746.743347632609 616.185 761.7049476326089 603.0921599999999z" />
    <glyph glyph-name="check-double-1"
      unicode="&#x63;&#x68;&#x65;&#x63;&#x6B;&#x2D;&#x64;&#x6F;&#x75;&#x62;&#x6C;&#x65;"
      horiz-adv-x="900" d="M582.327747632609 602.5373999999999C596.983347632609 589.10256 597.973347632609 566.33004 584.538147632609 551.67372L320.537907632609 263.6748C313.4649876326089 255.9564000000001 303.384267632609 251.7012000000001 292.9215876326089 252.0144C282.4592676326089 252.3312 272.651427632609 257.1804 266.0533476326089 265.3055999999999L134.0535876326089 427.8672C121.5205476326089 443.3004 123.8724276326089 465.9732 139.3070676326089 478.5084C154.7417076326089 491.04 177.4141476326089 488.6892 189.947187632609 473.2524L295.651107632609 343.0764000000001L531.4633476326089 600.32592C544.8985476326089 614.98224 567.6685476326089 615.97224 582.327747632609 602.5373999999999zM761.7049476326089 603.0921599999999C776.670147632609 589.99968 778.185747632609 567.25632 765.092547632609 552.2932800000001L513.0925476326089 264.294C499.999347632609 249.3288 477.2545476326089 247.8132000000001 462.2929476326088 260.9064C447.3313476326089 273.9996 445.8157476326089 296.7444000000001 458.9053476326089 311.706L710.905347632609 599.7056399999999C723.998547632609 614.66868 746.743347632609 616.185 761.7049476326089 603.0921599999999z" />
    <glyph glyph-name="check"
      unicode="&#xF11D;"
      horiz-adv-x="900" d="M705.4376808974372 637.64748C722.8832808974372 622.15164 724.9460808974371 594.8830800000001 710.0456808974371 576.7416000000001L426.2000808974372 231.1416000000001C418.4888808974372 221.7528 407.2820808974372 216.2448 395.4092808974372 216.0072C383.5400808974372 215.7696000000001 372.1388808974372 220.8276 364.0856808974371 229.9032L191.0106408974372 424.9764C175.4532408974372 442.5084 176.5094808974371 469.8396 193.3693608974372 486.0216C210.2292408974372 502.2 236.5088808974372 501.102 252.0662808974372 483.5664L393.4148808974371 324.2556L646.8764808974372 632.8569600000001C661.7768808974371 650.99844 687.9956808974372 653.14332 705.4376808974372 637.64748z" />
    <glyph glyph-name="check-1"
      unicode="&#x63;&#x68;&#x65;&#x63;&#x6B;"
      horiz-adv-x="900" d="M705.4376808974372 637.64748C722.8832808974372 622.15164 724.9460808974371 594.8830800000001 710.0456808974371 576.7416000000001L426.2000808974372 231.1416000000001C418.4888808974372 221.7528 407.2820808974372 216.2448 395.4092808974372 216.0072C383.5400808974372 215.7696000000001 372.1388808974372 220.8276 364.0856808974371 229.9032L191.0106408974372 424.9764C175.4532408974372 442.5084 176.5094808974371 469.8396 193.3693608974372 486.0216C210.2292408974372 502.2 236.5088808974372 501.102 252.0662808974372 483.5664L393.4148808974371 324.2556L646.8764808974372 632.8569600000001C661.7768808974371 650.99844 687.9956808974372 653.14332 705.4376808974372 637.64748z" />
    <glyph glyph-name="checked"
      unicode="&#xF11E;"
      horiz-adv-x="900" d="M450 825C243.75 825 75 656.25 75 450S243.75 75 450 75S825 243.75 825 450S656.25 825 450 825zM607.5 513.75L461.2499999999999 333.75C453.75 326.25 442.5 318.7499999999999 431.25 318.7499999999999C419.9999999999999 318.7499999999999 408.75 322.4999999999999 401.2499999999999 333.75L311.2499999999999 435C296.2499999999999 450 296.2499999999999 476.2499999999999 314.9999999999999 491.2499999999999C329.9999999999999 506.2499999999999 356.2499999999999 506.2499999999999 371.2499999999999 487.4999999999999L431.2499999999999 419.9999999999999L547.4999999999999 562.4999999999999C562.4999999999999 581.2499999999999 588.7499999999999 581.2499999999999 603.7499999999998 566.2499999999998C622.5 555 622.5 532.5 607.5 513.75z" />
    <glyph glyph-name="checked-1"
      unicode="&#x63;&#x68;&#x65;&#x63;&#x6B;&#x65;&#x64;"
      horiz-adv-x="900" d="M450 825C243.75 825 75 656.25 75 450S243.75 75 450 75S825 243.75 825 450S656.25 825 450 825zM607.5 513.75L461.2499999999999 333.75C453.75 326.25 442.5 318.7499999999999 431.25 318.7499999999999C419.9999999999999 318.7499999999999 408.75 322.4999999999999 401.2499999999999 333.75L311.2499999999999 435C296.2499999999999 450 296.2499999999999 476.2499999999999 314.9999999999999 491.2499999999999C329.9999999999999 506.2499999999999 356.2499999999999 506.2499999999999 371.2499999999999 487.4999999999999L431.2499999999999 419.9999999999999L547.4999999999999 562.4999999999999C562.4999999999999 581.2499999999999 588.7499999999999 581.2499999999999 603.7499999999998 566.2499999999998C622.5 555 622.5 532.5 607.5 513.75z" />
    <glyph glyph-name="chevron-down"
      unicode="&#xF11F;"
      horiz-adv-x="900" d="M691.456005 565.45596C705.514005 551.39688 705.514005 528.60312 691.456005 514.54404L475.456005 298.5444C461.3980050000001 284.4864 438.6028050000001 284.4864 424.5448050000001 298.5444L208.544805 514.54404C194.4857250000001 528.60312 194.4857250000001 551.39688 208.544805 565.45596C222.603525 579.51468 245.397645 579.51468 259.456365 565.45596L450.000405 374.9112L640.544805 565.45596C654.602805 579.51468 677.398005 579.51468 691.456005 565.45596z" />
    <glyph glyph-name="chevron-down-1"
      unicode="&#x63;&#x68;&#x65;&#x76;&#x72;&#x6F;&#x6E;&#x2D;&#x64;&#x6F;&#x77;&#x6E;"
      horiz-adv-x="900" d="M691.456005 565.45596C705.514005 551.39688 705.514005 528.60312 691.456005 514.54404L475.456005 298.5444C461.3980050000001 284.4864 438.6028050000001 284.4864 424.5448050000001 298.5444L208.544805 514.54404C194.4857250000001 528.60312 194.4857250000001 551.39688 208.544805 565.45596C222.603525 579.51468 245.397645 579.51468 259.456365 565.45596L450.000405 374.9112L640.544805 565.45596C654.602805 579.51468 677.398005 579.51468 691.456005 565.45596z" />
    <glyph glyph-name="chevron-left"
      unicode="&#xF120;"
      horiz-adv-x="900" d="M589.0167187500001 701.516625C574.3729687499999 716.161125 550.62796875 716.161125 535.9842187500001 701.516625L310.9838437500001 476.51625C296.3393437500001 461.8725 296.3393437500001 438.1275 310.9838437500001 423.48375L535.9842187500001 198.48375C550.62796875 183.84 574.3729687499999 183.84 589.0167187500001 198.48375C603.6604687500001 213.1275 603.6604687500001 236.8725000000001 589.0167187500001 251.51625L390.53296875 450L589.0167187500001 648.483375C603.6604687500001 663.12825 603.6604687500001 686.87175 589.0167187500001 701.516625z" />
    <glyph glyph-name="chevron-left-1"
      unicode="&#x63;&#x68;&#x65;&#x76;&#x72;&#x6F;&#x6E;&#x2D;&#x6C;&#x65;&#x66;&#x74;"
      horiz-adv-x="900" d="M589.0167187500001 701.516625C574.3729687499999 716.161125 550.62796875 716.161125 535.9842187500001 701.516625L310.9838437500001 476.51625C296.3393437500001 461.8725 296.3393437500001 438.1275 310.9838437500001 423.48375L535.9842187500001 198.48375C550.62796875 183.84 574.3729687499999 183.84 589.0167187500001 198.48375C603.6604687500001 213.1275 603.6604687500001 236.8725000000001 589.0167187500001 251.51625L390.53296875 450L589.0167187500001 648.483375C603.6604687500001 663.12825 603.6604687500001 686.87175 589.0167187500001 701.516625z" />
    <glyph glyph-name="chevron-right"
      unicode="&#xF121;"
      horiz-adv-x="900" d="M316.5448050000001 673.45596C330.603525 687.51468 353.3976450000001 687.51468 367.456365 673.45596L583.456005 457.4556C597.514005 443.3976 597.514005 420.6024000000001 583.456005 406.5444L367.456365 190.5444C353.3976450000001 176.4864 330.603525 176.4864 316.5448050000001 190.5444C302.4857250000001 204.6024 302.4857250000001 227.3976 316.5448050000001 241.4556L507.089205 432L316.5448050000001 622.54404C302.4857250000001 636.60312 302.4857250000001 659.39688 316.5448050000001 673.45596z" />
    <glyph glyph-name="chevron-right-1"
      unicode="&#x63;&#x68;&#x65;&#x76;&#x72;&#x6F;&#x6E;&#x2D;&#x72;&#x69;&#x67;&#x68;&#x74;"
      horiz-adv-x="900" d="M316.5448050000001 673.45596C330.603525 687.51468 353.3976450000001 687.51468 367.456365 673.45596L583.456005 457.4556C597.514005 443.3976 597.514005 420.6024000000001 583.456005 406.5444L367.456365 190.5444C353.3976450000001 176.4864 330.603525 176.4864 316.5448050000001 190.5444C302.4857250000001 204.6024 302.4857250000001 227.3976 316.5448050000001 241.4556L507.089205 432L316.5448050000001 622.54404C302.4857250000001 636.60312 302.4857250000001 659.39688 316.5448050000001 673.45596z" />
    <glyph glyph-name="chevron-up"
      unicode="&#xF122;"
      horiz-adv-x="900" d="M691.456005 298.5444C705.514005 312.6024 705.514005 335.3976 691.456005 349.4556L475.456005 565.45596C461.3980050000001 579.51468 438.6028050000001 579.51468 424.5448050000001 565.45596L208.544805 349.4556C194.4857250000001 335.3976 194.4857250000001 312.6024 208.544805 298.5444C222.603525 284.4864 245.397645 284.4864 259.456365 298.5444L450.000405 489.0888L640.544805 298.5444C654.602805 284.4864 677.398005 284.4864 691.456005 298.5444z" />
    <glyph glyph-name="chevron-up-1"
      unicode="&#x63;&#x68;&#x65;&#x76;&#x72;&#x6F;&#x6E;&#x2D;&#x75;&#x70;"
      horiz-adv-x="900" d="M691.456005 298.5444C705.514005 312.6024 705.514005 335.3976 691.456005 349.4556L475.456005 565.45596C461.3980050000001 579.51468 438.6028050000001 579.51468 424.5448050000001 565.45596L208.544805 349.4556C194.4857250000001 335.3976 194.4857250000001 312.6024 208.544805 298.5444C222.603525 284.4864 245.397645 284.4864 259.456365 298.5444L450.000405 489.0888L640.544805 298.5444C654.602805 284.4864 677.398005 284.4864 691.456005 298.5444z" />
    <glyph glyph-name="clear-node"
      unicode="&#xF123;"
      horiz-adv-x="900" d="M278.4375 281.25L278.4375 281.25L278.4375 281.25H281.25H461.25H461.25H464.0625H464.0625L660.9375000000001 478.125C663.7500000000001 480.9375 663.7500000000001 480.9375 666.5625 483.75L666.5625 483.75C666.5625 483.75 666.5625 483.75 666.5625 483.75C666.5625 483.75 666.5625 483.75 666.5625 483.75C666.5625 483.75 666.5625 486.5624999999999 669.3750000000001 486.5624999999999C672.1875000000001 489.3749999999999 675.0000000000001 492.1874999999999 677.8125000000001 497.8125C680.6250000000001 503.4374999999999 680.6250000000001 509.0625 680.6250000000001 514.6875C680.6250000000001 520.3125 680.6250000000001 525.9375 677.8125000000001 531.5625C675.0000000000001 537.1875 672.1875000000001 542.8125 669.3750000000001 545.625L520.3125000000001 694.6875C517.5 697.5 511.875 703.125 506.2500000000001 703.125C500.625 705.9375 495.0000000000001 705.9375 489.375 705.9375C483.75 705.9375 478.125 705.9375 472.5 703.125C466.875 700.3125 461.25 697.5 458.4375 694.6875L196.875 433.125C188.4375 424.6875000000001 185.625 421.875 182.8125 416.25C180 410.6250000000001 180 405.0000000000001 180 399.375C180 393.75 180 388.125 182.8125 382.4999999999999C185.625 376.875 188.4375 371.25 191.25 368.4374999999999C191.25 368.4374999999999 191.25 368.4374999999999 191.25 368.4374999999999L278.4375 281.25L278.4375 281.25zM618.75 517.5L514.6875 416.25L382.5 548.4375L483.75 649.6875L618.75 517.5zM300.9375 337.5L236.25 402.1875L337.5 503.4375L469.6875 371.25L441.5625 337.5H300.9375zM708.75 253.125L278.4375 253.125L270 253.125L270 233.4375L270 225L270 196.875L278.4375 196.875L691.875 196.875L708.75 196.875L720 196.875L720 233.4375L720 253.125z" />
    <glyph glyph-name="clear-node-1"
      unicode="&#x63;&#x6C;&#x65;&#x61;&#x72;&#x2D;&#x6E;&#x6F;&#x64;&#x65;"
      horiz-adv-x="900" d="M278.4375 281.25L278.4375 281.25L278.4375 281.25H281.25H461.25H461.25H464.0625H464.0625L660.9375000000001 478.125C663.7500000000001 480.9375 663.7500000000001 480.9375 666.5625 483.75L666.5625 483.75C666.5625 483.75 666.5625 483.75 666.5625 483.75C666.5625 483.75 666.5625 483.75 666.5625 483.75C666.5625 483.75 666.5625 486.5624999999999 669.3750000000001 486.5624999999999C672.1875000000001 489.3749999999999 675.0000000000001 492.1874999999999 677.8125000000001 497.8125C680.6250000000001 503.4374999999999 680.6250000000001 509.0625 680.6250000000001 514.6875C680.6250000000001 520.3125 680.6250000000001 525.9375 677.8125000000001 531.5625C675.0000000000001 537.1875 672.1875000000001 542.8125 669.3750000000001 545.625L520.3125000000001 694.6875C517.5 697.5 511.875 703.125 506.2500000000001 703.125C500.625 705.9375 495.0000000000001 705.9375 489.375 705.9375C483.75 705.9375 478.125 705.9375 472.5 703.125C466.875 700.3125 461.25 697.5 458.4375 694.6875L196.875 433.125C188.4375 424.6875000000001 185.625 421.875 182.8125 416.25C180 410.6250000000001 180 405.0000000000001 180 399.375C180 393.75 180 388.125 182.8125 382.4999999999999C185.625 376.875 188.4375 371.25 191.25 368.4374999999999C191.25 368.4374999999999 191.25 368.4374999999999 191.25 368.4374999999999L278.4375 281.25L278.4375 281.25zM618.75 517.5L514.6875 416.25L382.5 548.4375L483.75 649.6875L618.75 517.5zM300.9375 337.5L236.25 402.1875L337.5 503.4375L469.6875 371.25L441.5625 337.5H300.9375zM708.75 253.125L278.4375 253.125L270 253.125L270 233.4375L270 225L270 196.875L278.4375 196.875L691.875 196.875L708.75 196.875L720 196.875L720 233.4375L720 253.125z" />
    <glyph glyph-name="clock"
      unicode="&#xF124;"
      horiz-adv-x="900" d="M449.7302602037989 846.75292875C227.4238214537989 846.75292875 46.6052602037989 665.9343675 46.6052602037989 443.627925C46.6052602037989 265.2378750000001 155.5095727037989 129.1624125 295.4822114537989 71.191425C435.4548352037989 13.2203999999999 608.662085203799 32.4425624999999 734.788835203799 158.56935C860.915622703799 284.6961375 880.137822703799 457.90335 822.1667977037989 597.8759774999999C764.1957727037989 737.84861625 628.1203102037989 846.75292875 449.7302602037989 846.75292875zM449.7302602037989 790.50292875C605.4524227037989 790.50292875 720.032172703799 697.38950625 770.1648352037989 576.3427724999999C820.2974977037989 455.29605 805.1159227037988 308.437425 695.0183602037989 198.3398625C584.9207602037989 88.2422625 438.0621352037989 73.0606875 317.0154164537989 123.19335C195.9686864537989 173.32605 102.8552602037989 287.9057624999999 102.8552602037989 443.627925C102.8552602037989 635.5346400000001 257.8235489537989 790.50292875 449.7302602037989 790.50292875zM449.7302602037989 628.125A28.125 28.125 0 0 1 421.6052602037989 600V450C421.5766852037989 444.1488 420.0853852037989 438.4038375 417.3572227037989 433.227525C417.3460102037989 433.2063 417.3684727037989 433.175025 417.3572227037989 433.152525L362.4255727037989 332.2248A28.125 28.125 0 0 1 373.6316264537989 294.065625A28.125 28.125 0 0 1 411.7907977037989 305.271675L466.9421602037989 406.5656249999999A28.1278125 28.1278125 0 0 1 467.0884102037989 406.8581249999999C474.1185727037989 420.1341750000001 477.8116102037989 434.9064 477.8552602037989 449.9267625A28.1278125 28.1278125 0 0 1 477.8552602037989 450V600A28.125 28.125 0 0 1 449.7302602037989 628.125z" />
    <glyph glyph-name="clock-1"
      unicode="&#x63;&#x6C;&#x6F;&#x63;&#x6B;"
      horiz-adv-x="900" d="M449.7302602037989 846.75292875C227.4238214537989 846.75292875 46.6052602037989 665.9343675 46.6052602037989 443.627925C46.6052602037989 265.2378750000001 155.5095727037989 129.1624125 295.4822114537989 71.191425C435.4548352037989 13.2203999999999 608.662085203799 32.4425624999999 734.788835203799 158.56935C860.915622703799 284.6961375 880.137822703799 457.90335 822.1667977037989 597.8759774999999C764.1957727037989 737.84861625 628.1203102037989 846.75292875 449.7302602037989 846.75292875zM449.7302602037989 790.50292875C605.4524227037989 790.50292875 720.032172703799 697.38950625 770.1648352037989 576.3427724999999C820.2974977037989 455.29605 805.1159227037988 308.437425 695.0183602037989 198.3398625C584.9207602037989 88.2422625 438.0621352037989 73.0606875 317.0154164537989 123.19335C195.9686864537989 173.32605 102.8552602037989 287.9057624999999 102.8552602037989 443.627925C102.8552602037989 635.5346400000001 257.8235489537989 790.50292875 449.7302602037989 790.50292875zM449.7302602037989 628.125A28.125 28.125 0 0 1 421.6052602037989 600V450C421.5766852037989 444.1488 420.0853852037989 438.4038375 417.3572227037989 433.227525C417.3460102037989 433.2063 417.3684727037989 433.175025 417.3572227037989 433.152525L362.4255727037989 332.2248A28.125 28.125 0 0 1 373.6316264537989 294.065625A28.125 28.125 0 0 1 411.7907977037989 305.271675L466.9421602037989 406.5656249999999A28.1278125 28.1278125 0 0 1 467.0884102037989 406.8581249999999C474.1185727037989 420.1341750000001 477.8116102037989 434.9064 477.8552602037989 449.9267625A28.1278125 28.1278125 0 0 1 477.8552602037989 450V600A28.125 28.125 0 0 1 449.7302602037989 628.125z" />
    <glyph glyph-name="close"
      unicode="&#xF125;"
      horiz-adv-x="900" d="M525.9375 450L747.1875 671.25C758.4375 682.5 762.1875 697.5 762.1875 712.5C762.1875 727.5 754.6875 742.5 747.1875 753.75C724.6875 776.25 690.9375 776.25 668.4375 753.75L447.1875 528.75L225.9375000000001 753.75C203.4375 776.25 169.6875 776.25 147.1875 753.75C124.6875 731.25 124.6875 697.5 147.1875 675L368.4375 450L147.1875 228.75C124.6875 206.25 124.6875 172.5 147.1875 150C158.4375 138.75 173.4375 135 188.4375 135C188.4375 135 188.4375 135 188.4375 135C203.4375 135 218.4375 142.5 229.6875 150L450.9375 371.25L672.1875 150C683.4375 138.75 698.4375 135 713.4375 135C713.4375 135 713.4375 135 713.4375 135C728.4375 135 743.4375000000001 142.5 754.6875000000001 150C765.9375000000001 161.25 769.6875 176.25 769.6875 191.25C769.6875 206.25 762.1875000000001 221.2500000000001 754.6875000000001 232.5000000000001L525.9375 450z" />
    <glyph glyph-name="close-1"
      unicode="&#x63;&#x6C;&#x6F;&#x73;&#x65;"
      horiz-adv-x="900" d="M525.9375 450L747.1875 671.25C758.4375 682.5 762.1875 697.5 762.1875 712.5C762.1875 727.5 754.6875 742.5 747.1875 753.75C724.6875 776.25 690.9375 776.25 668.4375 753.75L447.1875 528.75L225.9375000000001 753.75C203.4375 776.25 169.6875 776.25 147.1875 753.75C124.6875 731.25 124.6875 697.5 147.1875 675L368.4375 450L147.1875 228.75C124.6875 206.25 124.6875 172.5 147.1875 150C158.4375 138.75 173.4375 135 188.4375 135C188.4375 135 188.4375 135 188.4375 135C203.4375 135 218.4375 142.5 229.6875 150L450.9375 371.25L672.1875 150C683.4375 138.75 698.4375 135 713.4375 135C713.4375 135 713.4375 135 713.4375 135C728.4375 135 743.4375000000001 142.5 754.6875000000001 150C765.9375000000001 161.25 769.6875 176.25 769.6875 191.25C769.6875 206.25 762.1875000000001 221.2500000000001 754.6875000000001 232.5000000000001L525.9375 450z" />
    </font>
</defs>
</svg>
