<?xml version="1.0" encoding="UTF-8" standalone="no"?>
<svg
   id="Layer_1"
   data-name="Layer 1"
   viewBox="0 0 24 24"
   version="1.1"
   sodipodi:docname="all-repositories.svg"
   inkscape:version="1.1.1 (1:1.1+202109281949+c3084ef5ed)"
   xmlns:inkscape="http://www.inkscape.org/namespaces/inkscape"
   xmlns:sodipodi="http://sodipodi.sourceforge.net/DTD/sodipodi-0.dtd"
   xmlns="http://www.w3.org/2000/svg"
   xmlns:svg="http://www.w3.org/2000/svg">
  <sodipodi:namedview
     id="namedview11"
     pagecolor="#ffffff"
     bordercolor="#666666"
     borderopacity="1.0"
     inkscape:pageshadow="2"
     inkscape:pageopacity="0.0"
     inkscape:pagecheckerboard="0"
     showgrid="false"
     inkscape:zoom="17.6875"
     inkscape:cx="3.9858657"
     inkscape:cy="15.434629"
     inkscape:window-width="1920"
     inkscape:window-height="1015"
     inkscape:window-x="0"
     inkscape:window-y="0"
     inkscape:window-maximized="1"
     inkscape:current-layer="Layer_1" />
  <defs
     id="defs4">
    <style
       id="style2">.cls-1{fill:none;stroke:#9aa1b4;stroke-linecap:round;stroke-linejoin:round;stroke-width:1.5px;}</style>
  </defs>
  <title
     id="title6">all-repositories</title>
  <path
     style="color:#000000;fill:#9aa1b4;stroke-linecap:round;stroke-linejoin:round;-inkscape-stroke:none"
     d="M 3.6699219,1.25 C 2.3422776,1.25 1.25,2.3422776 1.25,3.6699219 v 2.5 c -1.88e-5,1.0348704 0.7472157,1.7608889 1.6699219,2.0996094 V 18.669922 C 2.9199219,20.914358 4.7555639,22.75 7,22.75 h 10 c 2.244436,0 4.080078,-1.835642 4.080078,-4.080078 V 8.2695313 C 22.002784,7.9308108 22.750019,7.2047923 22.75,6.1699219 v -2.5 C 22.75,2.3422776 21.657722,1.25 20.330078,1.25 Z m 0,1.5 H 20.330078 C 20.847063,2.75 21.25,3.1529369 21.25,3.6699219 v 2.5 c 9e-6,0.5137795 -0.402245,0.9132513 -0.916016,0.9101562 a 0.750075,0.750075 0 0 0 -0.0039,0 H 3.6699219 a 0.750075,0.750075 0 0 0 -0.00391,0 C 3.1522454,7.0831732 2.7499907,6.6837014 2.75,6.1699219 v -2.5 C 2.75,3.1529369 3.1529369,2.75 3.6699219,2.75 Z m 0.75,5.8300781 H 19.580078 V 18.669922 C 19.580078,20.103699 18.433777,21.25 17,21.25 H 7 c -1.4337767,0 -2.5800781,-1.146301 -2.5800781,-2.580078 z M 10.330078,11.25 A 0.75,0.75 0 0 0 9.5800781,12 0.75,0.75 0 0 0 10.330078,12.75 h 3.339844 a 0.75,0.75 0 0 0 0.75,-0.75 0.75,0.75 0 0 0 -0.75,-0.75 z"
     id="path8" />
</svg>
