<svg id="Layer_1" data-name="Layer 1" xmlns="http://www.w3.org/2000/svg" viewBox="0 0 24 24"><defs><style>.cls-1{fill:#9aa1b4;}</style></defs><title>devices</title><path class="cls-1" d="M5,3.79a2.49,2.49,0,0,0-2.5,2.5v10a2.48,2.48,0,0,0,.75,1.78H2.82a1.07,1.07,0,0,0,0,2.14h8.57a1.07,1.07,0,0,0,1.07-1.07V17.71a1.07,1.07,0,0,0-1.07-1.07H5a.35.35,0,0,1-.35-.35v-10A.36.36,0,0,1,5,5.93H19.25a.36.36,0,0,1,.36.36,1.07,1.07,0,0,0,2.14,0,2.49,2.49,0,0,0-2.5-2.5Z"/><path class="cls-1" d="M15.68,8.79a1.79,1.79,0,0,0-1.79,1.78v7.86a1.79,1.79,0,0,0,1.79,1.78H20a1.79,1.79,0,0,0,1.79-1.78V10.57A1.79,1.79,0,0,0,20,8.79ZM16,18.07V10.93h3.57v7.14Z"/></svg>