<svg width="16" height="16" viewBox="0 0 16 16" fill="none" xmlns="http://www.w3.org/2000/svg">
<path d="M3 2.25C2.0335 2.25 1.25 3.0335 1.25 4V11C1.25 11.4897 1.45112 11.9324 1.77525 12.25H1.5C1.08579 12.25 0.75 12.5858 0.75 13C0.75 13.4142 1.08579 13.75 1.5 13.75H7.5C7.91421 13.75 8.25 13.4142 8.25 13V12C8.25 11.5858 7.91421 11.25 7.5 11.25H3C2.86193 11.25 2.75 11.1381 2.75 11V4C2.75 3.86193 2.86193 3.75 3 3.75H13C13.1381 3.75 13.25 3.86193 13.25 4C13.25 4.41421 13.5858 4.75 14 4.75C14.4142 4.75 14.75 4.41421 14.75 4C14.75 3.0335 13.9665 2.25 13 2.25H3Z" fill="#9AA1B4"/>
<path fill-rule="evenodd" clip-rule="evenodd" d="M10.5 5.75C9.80964 5.75 9.25 6.30964 9.25 7V12.5C9.25 13.1904 9.80964 13.75 10.5 13.75H13.5C14.1904 13.75 14.75 13.1904 14.75 12.5V7C14.75 6.30964 14.1904 5.75 13.5 5.75H10.5ZM10.75 12.25V7.25H13.25V12.25H10.75Z" fill="#9AA1B4"/>
</svg>
