<?xml version="1.0" encoding="UTF-8" standalone="no"?>
<svg
   id="Layer_1"
   data-name="Layer 1"
   viewBox="0 0 24 24"
   version="1.1"
   sodipodi:docname="drive.svg"
   inkscape:version="1.1.1 (1:1.1+202109281949+c3084ef5ed)"
   xmlns:inkscape="http://www.inkscape.org/namespaces/inkscape"
   xmlns:sodipodi="http://sodipodi.sourceforge.net/DTD/sodipodi-0.dtd"
   xmlns="http://www.w3.org/2000/svg"
   xmlns:svg="http://www.w3.org/2000/svg">
  <sodipodi:namedview
     id="namedview13"
     pagecolor="#ffffff"
     bordercolor="#666666"
     borderopacity="1.0"
     inkscape:pageshadow="2"
     inkscape:pageopacity="0.0"
     inkscape:pagecheckerboard="0"
     showgrid="false"
     inkscape:zoom="35.375"
     inkscape:cx="12"
     inkscape:cy="12.014134"
     inkscape:window-width="1920"
     inkscape:window-height="1015"
     inkscape:window-x="0"
     inkscape:window-y="0"
     inkscape:window-maximized="1"
     inkscape:current-layer="Layer_1" />
  <defs
     id="defs4">
    <style
       id="style2">.cls-1,.cls-2{fill:none;stroke:#9aa1b4;stroke-width:1.5px;}.cls-1{stroke-linejoin:round;}.cls-2{stroke-linecap:round;}</style>
  </defs>
  <title
     id="title6">drive</title>
  <g
     id="g856">
    <path
       style="color:#000000;fill:#9aa1b4;stroke-linejoin:round;-inkscape-stroke:none"
       d="M 7.5703125,2.25 C 5.9115656,2.2498702 4.4144539,3.2620735 3.7949219,4.8007812 V 4.796875 L 1.5585937,10.287109 C 1.3519446,10.776097 1.2473192,11.30313 1.25,11.833984 v 5.835938 C 1.25,19.914358 3.0856421,21.75 5.3300781,21.75 H 18.669922 C 20.914358,21.75 22.75,19.914358 22.75,17.669922 v -5.835938 -0.0039 c 0.0022,-0.52954 -0.102446,-1.055168 -0.308594,-1.542969 L 20.205078,4.796875 v 0.00391 C 19.585546,3.2620735 18.088434,2.2498702 16.429687,2.25 Z m 0,1.5 h 8.8593745 c 1.05108,-8.22e-5 1.992194,0.6343597 2.384766,1.609375 a 0.750075,0.750075 0 0 0 0,0.00391 L 20.804687,10.25 H 3.1953125 L 5.1855469,5.3632812 a 0.750075,0.750075 0 0 0 0,-0.00391 C 5.5781186,4.3843597 6.5192333,3.7499178 7.5703125,3.75 Z m -4.8046875,8 h 18.46875 c 7.14e-4,0.02611 0.01576,0.05001 0.01563,0.07617 a 0.750075,0.750075 0 0 0 0,0.0039 v 5.839844 C 21.25,19.103699 20.103699,20.25 18.669922,20.25 H 5.3300781 C 3.8963014,20.25 2.75,19.103699 2.75,17.669922 v -5.839844 a 0.750075,0.750075 0 0 0 0,-0.0039 c -1.321e-4,-0.02616 0.014911,-0.05006 0.015625,-0.07617 z"
       id="path866" />
    <path
       style="color:#000000;fill:#9aa1b4;stroke-linecap:round;-inkscape-stroke:none"
       d="M 7,15.25 A 0.75,0.75 0 0 0 6.25,16 0.75,0.75 0 0 0 7,16.75 h 3 A 0.75,0.75 0 0 0 10.75,16 0.75,0.75 0 0 0 10,15.25 Z"
       id="path863" />
  </g>
</svg>
