<svg width="14" height="15" viewBox="0 0 14 15" fill="none" xmlns="http://www.w3.org/2000/svg">
<path fill-rule="evenodd" clip-rule="evenodd" d="M7.69338 2.36423C7.2735 2.08432 6.7265 2.08432 6.30662 2.36423L2.30662 5.0309C1.95888 5.26273 1.75 5.65302 1.75 6.07096V11.5006C1.75 12.191 2.30964 12.7506 3 12.7506H5C5.41421 12.7506 5.75 13.0864 5.75 13.5006C5.75 13.9148 5.41421 14.2506 5 14.2506H3C1.48122 14.2506 0.25 13.0194 0.25 11.5006V6.07096C0.25 5.15149 0.709528 4.29286 1.47457 3.78283L5.47457 1.11616C6.3983 0.500343 7.6017 0.500343 8.52542 1.11616L12.5254 3.78283C13.2905 4.29286 13.75 5.15149 13.75 6.07096V11.5006C13.75 13.0194 12.5188 14.2506 11 14.2506H9C8.58579 14.2506 8.25 13.9148 8.25 13.5006C8.25 13.0864 8.58579 12.7506 9 12.7506H11C11.6904 12.7506 12.25 12.191 12.25 11.5006V6.07096C12.25 5.65302 12.0411 5.26273 11.6934 5.0309L7.69338 2.36423Z" fill="white"/>
<path fill-rule="evenodd" clip-rule="evenodd" d="M4.25 11.5C4.25 9.98122 5.48122 8.75 7 8.75C8.51878 8.75 9.75 9.98122 9.75 11.5V13.5C9.75 13.9142 9.41421 14.25 9 14.25C8.58579 14.25 8.25 13.9142 8.25 13.5V11.5C8.25 10.8096 7.69036 10.25 7 10.25C6.30964 10.25 5.75 10.8096 5.75 11.5V13.5C5.75 13.9142 5.41421 14.25 5 14.25C4.58579 14.25 4.25 13.9142 4.25 13.5V11.5Z" fill="white"/>
</svg>
