<svg id="Layer_1" data-name="Layer 1" xmlns="http://www.w3.org/2000/svg" viewBox="0 0 24 24"><title>home</title><path d="M20.19,6,14.27,2.07a4.08,4.08,0,0,0-4.54,0L3.81,6A4.09,4.09,0,0,0,2,9.4v8a4.07,4.07,0,0,0,4.07,4.07H9a1.12,1.12,0,0,0,1.11-1.11v-3a1.85,1.85,0,0,1,3.7,0v3A1.12,1.12,0,0,0,15,21.52h3A4.07,4.07,0,0,0,22,17.45v-8A4.09,4.09,0,0,0,20.19,6Zm-.41,11.44a1.85,1.85,0,0,1-1.85,1.85H16.07V17.45a4.07,4.07,0,1,0-8.14,0V19.3H6.07a1.85,1.85,0,0,1-1.85-1.85v-8a1.84,1.84,0,0,1,.83-1.54L11,3.91a1.81,1.81,0,0,1,2,0l5.93,4a1.84,1.84,0,0,1,.83,1.54Z"/></svg>