<?xml version="1.0" encoding="UTF-8" standalone="no"?>
<svg
   id="Layer_1"
   data-name="Layer 1"
   viewBox="0 0 24 24"
   version="1.1"
   sodipodi:docname="link.svg"
   inkscape:version="1.1.1 (1:1.1+202109281949+c3084ef5ed)"
   xmlns:inkscape="http://www.inkscape.org/namespaces/inkscape"
   xmlns:sodipodi="http://sodipodi.sourceforge.net/DTD/sodipodi-0.dtd"
   xmlns="http://www.w3.org/2000/svg"
   xmlns:svg="http://www.w3.org/2000/svg">
  <sodipodi:namedview
     id="namedview11"
     pagecolor="#ffffff"
     bordercolor="#666666"
     borderopacity="1.0"
     inkscape:pageshadow="2"
     inkscape:pageopacity="0.0"
     inkscape:pagecheckerboard="0"
     showgrid="false"
     inkscape:zoom="35.375"
     inkscape:cx="12"
     inkscape:cy="12.014134"
     inkscape:window-width="1920"
     inkscape:window-height="1015"
     inkscape:window-x="0"
     inkscape:window-y="0"
     inkscape:window-maximized="1"
     inkscape:current-layer="Layer_1" />
  <defs
     id="defs4">
    <style
       id="style2">.cls-1{fill:#9aa1b4;stroke:#9aa1b4;stroke-linecap:round;stroke-linejoin:round;stroke-width:0.2px;}</style>
  </defs>
  <title
     id="title6">link</title>
  <g
     id="path8"
     class="cls-1">
    <path
       style="color:#000000;fill:#9aa1b4;stroke-width:0.2px;stroke-linecap:round;stroke-linejoin:round;-inkscape-stroke:none"
       d="M 12.12,12.65 A 1.1338099,1.1338099 0 1 0 12.87,14.79 5.57,5.57 0 0 0 11,4 H 7.57 A 5.57,5.57 0 0 0 5,14.48 1.13,1.13 0 1 0 6,12.48 3.3,3.3 0 0 1 7.57,6.24 H 11 a 3.3,3.3 0 0 1 1.11,6.41 z m -0.23,-1.3 A 1.14,1.14 0 0 0 11.13,9.21 5.57,5.57 0 0 0 13,20 h 3.44 A 5.57,5.57 0 0 0 18.91,9.48 1.13,1.13 0 0 0 17.39,9.99 1.12,1.12 0 0 0 17.9,11.5 3.3,3.3 0 0 1 16.43,17.76 H 13 a 3.3,3.3 0 0 1 -1.1,-6.41 z"
       id="path830" />
    <path
       style="color:#000000;fill:#9aa1b4;stroke-linecap:round;stroke-linejoin:round;-inkscape-stroke:none"
       d="M 7.5683594,3.9003906 C 4.6432131,3.9315816 2.6897564,5.9078099 2.1230469,8.21875 c -0.5659235,2.307734 0.249914,4.961202 2.8203125,6.34375 6.465e-4,4.51e-4 0.00131,-4.49e-4 0.00195,0 0.291882,0.202686 0.6123442,0.196486 0.8769531,0.0625 0.2651953,-0.134283 0.4816399,-0.385155 0.625,-0.671875 C 6.5906258,13.666405 6.6610658,13.341554 6.609375,13.048828 6.5576842,12.756102 6.369942,12.496249 6.03125,12.384766 l 0.013672,0.0059 C 4.5217177,11.61513 4.0595073,10.089373 4.3945312,8.7578125 4.7295552,7.4262525 5.8595227,6.3021491 7.5683594,6.3398437 a 0.10001,0.10001 0 0 0 0.00195,0 H 11 c 1.808924,-0.00353 2.916439,1.2468825 3.160156,2.6542969 0.243718,1.4074144 -0.379204,2.9575684 -2.083984,3.5625004 a 0.10001,0.10001 0 0 0 -0.01172,0.01758 c -0.360839,0.136028 -0.607752,0.374405 -0.722656,0.654297 -0.118497,0.288644 -0.112819,0.611919 -0.01172,0.90039 0.1011,0.288472 0.299505,0.543792 0.572266,0.695313 0.27276,0.151521 0.619741,0.193815 1,0.06055 a 0.10001,0.10001 0 0 0 0.002,-0.002 C 15.83831,13.791329 16.941832,11.060801 16.515625,8.6015625 16.089418,6.142324 14.132149,3.9408949 11.001953,3.9003906 a 0.10001,0.10001 0 0 0 -0.002,0 H 7.5703125 a 0.10001,0.10001 0 0 0 -0.00195,0 z m 0.00195,0.1992188 h 3.4277345 c 3.037915,0.03931 4.908166,2.1570512 5.320312,4.5351562 0.412063,2.3776264 -0.634252,5.0008244 -3.480468,6.0605474 -0.333074,0.116731 -0.615314,0.07981 -0.839844,-0.04492 -0.224531,-0.124729 -0.392116,-0.341363 -0.478516,-0.587891 -0.0864,-0.246528 -0.08973,-0.52216 0.0078,-0.759766 0.09754,-0.237605 0.291927,-0.441862 0.625,-0.558593 a 0.10001,0.10001 0 0 0 0.04297,-0.04297 C 13.932384,12.046166 14.611711,10.427448 14.357422,8.9589844 14.099551,7.4698364 12.901947,6.1369176 11,6.140625 H 7.5722656 7.5703125 C 5.7724063,6.1019331 4.5537872,7.2997443 4.1992187,8.7089844 3.8445104,10.118781 4.3514388,11.751913 5.9550781,12.568359 a 0.10001,0.10001 0 0 0 0.013672,0.0059 c 0.2754253,0.09066 0.4017203,0.273962 0.4433594,0.509765 0.041639,0.235803 -0.014955,0.526005 -0.1425782,0.78125 -0.1276227,0.255246 -0.3254366,0.473861 -0.5390625,0.582032 -0.2136258,0.10817 -0.4360458,0.117116 -0.6738281,-0.04883 a 0.10001,0.10001 0 0 0 -0.00977,-0.0059 C 2.5463392,13.053584 1.7686346,10.501293 2.3164063,8.2675781 2.8641779,6.0338634 4.734,4.1298531 7.5703125,4.0996094 Z m 3.5351565,5.0136719 a 0.10001,0.10001 0 0 0 -0.0098,0.00391 C 8.1616903,10.208671 7.0581678,12.939199 7.484375,15.398438 c 0.4262072,2.459238 2.3834757,4.660667 5.513672,4.701171 a 0.10001,0.10001 0 0 0 0.002,0 h 3.439453 a 0.10001,0.10001 0 0 0 0.002,0 c 2.94208,-0.04369 4.889412,-2.046997 5.435547,-4.373046 0.546135,-2.32605 -0.306667,-4.987446 -2.921875,-6.335938 -0.608927,-0.3054518 -1.352833,-0.056224 -1.654297,0.5546875 -0.304835,0.6061955 -0.05528,1.3473075 0.554688,1.6445315 1.528645,0.753403 2.014412,2.267629 1.701172,3.601562 -0.31324,1.333934 -1.422741,2.4745 -3.126954,2.46875 H 13 c -1.806105,-0.002 -2.909066,-1.251938 -3.1503906,-2.658203 -0.2413246,-1.406264 0.3818646,-2.954599 2.0839846,-3.558594 a 0.10001,0.10001 0 0 0 0.0625,-0.06836 C 12.591826,11.046241 12.766563,10.41804 12.582031,9.8984375 12.387998,9.3520816 11.825392,8.9278407 11.105469,9.1132813 Z m 0.05469,0.1933593 c 0.622755,-0.1570032 1.06972,0.1965211 1.234375,0.6601563 0.165258,0.4653301 0.04092,1.0231171 -0.546875,1.2929691 a 0.10001,0.10001 0 0 0 -0.0098,0.02148 C 10.0798,11.927279 9.3990232,13.558989 9.6523438,15.035156 9.9076878,16.523116 11.100945,17.857315 13,17.859375 h 3.429687 c 1.794323,0.0061 2.990611,-1.210693 3.322266,-2.623047 0.331655,-1.412353 -0.199121,-3.032932 -1.808594,-3.826172 -0.512002,-0.249489 -0.720721,-0.86616 -0.464843,-1.375 a 0.10001,0.10001 0 0 0 0.002,0 c 0.253428,-0.5135681 0.872865,-0.7216242 1.384765,-0.4648435 2.533913,1.3080465 3.344128,3.8637055 2.816407,6.1113285 -0.527904,2.248398 -2.389243,4.176382 -5.242188,4.21875 H 13.001953 13 C 9.9633183,19.860136 8.0936922,17.742794 7.6816406,15.365234 7.2697093,12.988369 8.3160003,10.367023 11.160156,9.3066406 Z"
       id="path832" />
  </g>
</svg>
