<svg width="16" height="16" viewBox="0 0 16 16" fill="none" xmlns="http://www.w3.org/2000/svg">
<path d="M8.07801 8.43913C7.67879 8.58024 7.46955 9.01825 7.61065 9.41747C7.75175 9.81668 8.18977 10.0259 8.58898 9.88482C10.0509 9.36812 11.1002 7.97395 11.1002 6.33268C11.1002 4.25241 9.41377 2.56602 7.3335 2.56602H5.00016C2.91989 2.56602 1.2335 4.25241 1.2335 6.33268C1.2335 7.79151 2.063 9.05525 3.27244 9.68044C3.64857 9.87487 4.11111 9.72757 4.30554 9.35143C4.49998 8.97529 4.35267 8.51275 3.97654 8.31832C3.25642 7.94608 2.76683 7.19594 2.76683 6.33268C2.76683 5.09925 3.76673 4.09935 5.00016 4.09935H7.3335C8.56693 4.09935 9.56683 5.09925 9.56683 6.33268C9.56683 7.30395 8.9464 8.1322 8.07801 8.43913ZM7.92232 7.55963C8.32153 7.41852 8.53078 6.98051 8.38967 6.58129C8.24857 6.18208 7.81056 5.97284 7.41134 6.11394C5.94945 6.63064 4.90016 8.02481 4.90016 9.66608C4.90016 11.7463 6.58656 13.4327 8.66683 13.4327H11.0002C13.0804 13.4327 14.7668 11.7463 14.7668 9.66608C14.7668 8.18599 13.9131 6.90677 12.6747 6.29135C12.2955 6.10292 11.8354 6.25755 11.6469 6.63672C11.4585 7.0159 11.6131 7.47604 11.9923 7.66448C12.7295 8.03082 13.2335 8.79026 13.2335 9.66608C13.2335 10.8995 12.2336 11.8994 11.0002 11.8994H8.66683C7.43339 11.8994 6.4335 10.8995 6.4335 9.66608C6.4335 8.6948 7.05392 7.86656 7.92232 7.55963Z" fill="#9AA1B4" stroke="#9AA1B4" stroke-width="0.2" stroke-linecap="round" stroke-linejoin="round"/>
</svg>
