<svg width="14" height="14" viewBox="0 0 14 14" fill="none" xmlns="http://www.w3.org/2000/svg">
<path d="M8.58862 3.5C8.17441 3.5 7.83862 3.83579 7.83862 4.25C7.83862 4.66421 8.17441 5 8.58862 5H10.2553C10.6695 5 11.0053 4.66421 11.0053 4.25C11.0053 3.83579 10.6695 3.5 10.2553 3.5H8.58862Z" fill="#9AA1B4"/>
<path d="M4.5 4.25C4.5 4.66421 4.16421 5 3.75 5C3.33579 5 3 4.66421 3 4.25C3 3.83579 3.33579 3.5 3.75 3.5C4.16421 3.5 4.5 3.83579 4.5 4.25Z" fill="#9AA1B4"/>
<path d="M7.83862 9.75C7.83862 9.33579 8.17441 9 8.58862 9H10.2553C10.6695 9 11.0053 9.33579 11.0053 9.75C11.0053 10.1642 10.6695 10.5 10.2553 10.5H8.58862C8.17441 10.5 7.83862 10.1642 7.83862 9.75Z" fill="#9AA1B4"/>
<path d="M3.75 10.5C4.16421 10.5 4.5 10.1642 4.5 9.75C4.5 9.33579 4.16421 9 3.75 9C3.33579 9 3 9.33579 3 9.75C3 10.1642 3.33579 10.5 3.75 10.5Z" fill="#9AA1B4"/>
<path fill-rule="evenodd" clip-rule="evenodd" d="M2.5 0.75C1.25736 0.75 0.25 1.75736 0.25 3V5.5C0.25 6.07627 0.46664 6.60193 0.82292 7C0.46664 7.39807 0.25 7.92373 0.25 8.5V11C0.25 12.2426 1.25736 13.25 2.5 13.25H11.5C12.7426 13.25 13.75 12.2426 13.75 11V8.5C13.75 7.92373 13.5334 7.39807 13.1771 7C13.5334 6.60193 13.75 6.07627 13.75 5.5V3C13.75 1.75736 12.7426 0.75 11.5 0.75H2.5ZM2.5 6.25H11.5C11.9142 6.25 12.25 5.91421 12.25 5.5V3C12.25 2.58579 11.9142 2.25 11.5 2.25H2.5C2.08579 2.25 1.75 2.58579 1.75 3V5.5C1.75 5.91421 2.08579 6.25 2.5 6.25ZM2.5 7.75C2.08579 7.75 1.75 8.08579 1.75 8.5V11C1.75 11.4142 2.08579 11.75 2.5 11.75H11.5C11.9142 11.75 12.25 11.4142 12.25 11V8.5C12.25 8.08579 11.9142 7.75 11.5 7.75H2.5Z" fill="#9AA1B4"/>
</svg>
