<svg id="Layer_1" data-name="Layer 1" xmlns="http://www.w3.org/2000/svg" viewBox="0 0 24 24"><defs><style>.cls-1{fill:#9aa1b4;}</style></defs><title>repository</title><path class="cls-1" d="M14.35,6.81a1.12,1.12,0,0,0,0,2.23h2.47a1.12,1.12,0,0,0,0-2.23Z"/><path class="cls-1" d="M8.3,7.93A1.12,1.12,0,1,1,7.19,6.81,1.11,1.11,0,0,1,8.3,7.93Z"/><path class="cls-1" d="M13.24,16.07A1.11,1.11,0,0,1,14.35,15h2.47a1.12,1.12,0,0,1,0,2.23H14.35A1.12,1.12,0,0,1,13.24,16.07Z"/><path class="cls-1" d="M7.19,17.19a1.12,1.12,0,1,0-1.12-1.12A1.12,1.12,0,0,0,7.19,17.19Z"/><path class="cls-1" d="M22,6.07a3.33,3.33,0,0,0-3.33-3.33H5.33A3.33,3.33,0,0,0,2,6.07V9.78A3.31,3.31,0,0,0,2.85,12,3.31,3.31,0,0,0,2,14.22v3.71a3.33,3.33,0,0,0,3.33,3.33H18.67A3.33,3.33,0,0,0,22,17.93V14.22A3.31,3.31,0,0,0,21.15,12,3.31,3.31,0,0,0,22,9.78ZM19.78,17.93A1.11,1.11,0,0,1,18.67,19H5.33a1.11,1.11,0,0,1-1.11-1.11V14.22a1.11,1.11,0,0,1,1.11-1.11H18.67a1.11,1.11,0,0,1,1.11,1.11Zm0-8.15a1.11,1.11,0,0,1-1.11,1.11H5.33A1.11,1.11,0,0,1,4.22,9.78V6.07A1.11,1.11,0,0,1,5.33,5H18.67a1.11,1.11,0,0,1,1.11,1.11Z"/></svg>