<svg id="Layer_1" data-name="Layer 1" xmlns="http://www.w3.org/2000/svg" viewBox="0 0 24 24"><defs><style>.cls-1{fill:#9aa1b4;}</style></defs><title>share-with-me</title><path class="cls-1" d="M21.92,18.5a7,7,0,0,0-3-4.26,4.88,4.88,0,0,0-4.55-8.41A4.88,4.88,0,0,0,4.87,7.5V9.75a4.84,4.84,0,0,0,1.39,3.41,7.79,7.79,0,0,0-4.21,5.37,2.4,2.4,0,0,0,2.44,2.85h15A2.37,2.37,0,0,0,21.92,18.5ZM7.12,7.5a2.63,2.63,0,0,1,5.26,0V9.75a2.63,2.63,0,0,1-5.26,0ZM15.25,19s0,0,0,0a.3.3,0,0,1-.22.08H4.49a.28.28,0,0,1-.22-.08s0,0,0,0h0a5.52,5.52,0,0,1,5.5-4.38A5.52,5.52,0,0,1,15.25,19Zm-1.37-6.68a4.79,4.79,0,0,0,.75-2.59V8.11l.08,0a2.6,2.6,0,0,1,1-.22,2.63,2.63,0,1,1-1.88,4.47Zm5.85,6.71a.28.28,0,0,1-.22.08h-2a2.54,2.54,0,0,0-.06-.6,7.92,7.92,0,0,0-1.39-3.05A4.76,4.76,0,0,1,19.74,19Z"/></svg>