<svg width="16" height="16" viewBox="0 0 16 16" fill="none" xmlns="http://www.w3.org/2000/svg">
<path d="M2.10769 12.5076L2.84021 12.6686L2.84021 12.6686L2.10769 12.5076ZM10.8924 12.5076L11.6249 12.3466L11.6249 12.3466L10.8924 12.5076ZM10.0001 8.75C9.58584 8.75 9.25006 9.08579 9.25006 9.5C9.25006 9.91421 9.58584 10.25 10.0001 10.25V8.75ZM13.8791 12.5097L14.6069 12.3289L14.6069 12.3289L13.8791 12.5097ZM9.19976 4.02076C8.8202 4.1866 8.64694 4.62873 8.81278 5.0083C8.97862 5.38787 9.42075 5.56113 9.80032 5.39529L9.19976 4.02076ZM2.84021 12.6686C3.19643 11.0477 4.57032 9.75 6.50006 9.75V8.25C3.81302 8.25 1.87092 10.0909 1.37517 12.3466L2.84021 12.6686ZM6.50006 9.75C8.42979 9.75 9.80368 11.0477 10.1599 12.6686L11.6249 12.3466C11.1292 10.0909 9.18709 8.25 6.50006 8.25V9.75ZM10.0001 12.75H3.00006V14.25H10.0001V12.75ZM1.37517 12.3466C1.12908 13.4663 2.09087 14.25 3.00006 14.25V12.75C2.92632 12.75 2.87371 12.7191 2.85024 12.6939C2.83984 12.6828 2.83838 12.6766 2.83871 12.6777C2.8396 12.6807 2.83775 12.6798 2.84021 12.6686L1.37517 12.3466ZM10.1599 12.6686C10.1624 12.6798 10.1605 12.6807 10.1614 12.6777C10.1617 12.6766 10.1603 12.6828 10.1499 12.6939C10.1264 12.7191 10.0738 12.75 10.0001 12.75V14.25C10.9092 14.25 11.871 13.4663 11.6249 12.3466L10.1599 12.6686ZM10.0001 10.25C11.6391 10.25 12.8125 11.327 13.1512 12.6905L14.6069 12.3289C14.1146 10.3468 12.3786 8.75 10.0001 8.75V10.25ZM13.0001 12.75H10.0001V14.25H13.0001V12.75ZM13.1512 12.6905C13.1533 12.6989 13.1512 12.6959 13.1533 12.6884C13.1548 12.6831 13.1554 12.6864 13.1465 12.696C13.1256 12.7186 13.0741 12.75 13.0001 12.75V14.25C13.8995 14.25 14.8893 13.4655 14.6069 12.3289L13.1512 12.6905ZM8.25006 5V6.5H9.75006V5H8.25006ZM4.75006 6.5V5H3.25006V6.5H4.75006ZM6.50006 8.25C5.53356 8.25 4.75006 7.4665 4.75006 6.5H3.25006C3.25006 8.29493 4.70513 9.75 6.50006 9.75V8.25ZM8.25006 6.5C8.25006 7.4665 7.46655 8.25 6.50006 8.25V9.75C8.29498 9.75 9.75006 8.29493 9.75006 6.5H8.25006ZM6.50006 3.25C7.46655 3.25 8.25006 4.0335 8.25006 5H9.75006C9.75006 3.20507 8.29498 1.75 6.50006 1.75V3.25ZM6.50006 1.75C4.70513 1.75 3.25006 3.20507 3.25006 5H4.75006C4.75006 4.0335 5.53356 3.25 6.50006 3.25V1.75ZM12.25 7C12.25 7.9665 11.4665 8.75 10.5 8.75V10.25C12.295 10.25 13.75 8.79493 13.75 7H12.25ZM10.5 5.25C11.4665 5.25 12.25 6.0335 12.25 7H13.75C13.75 5.20507 12.295 3.75 10.5 3.75V5.25ZM10.5 3.75C10.0392 3.75 9.59891 3.84636 9.19976 4.02076L9.80032 5.39529C10.0136 5.30208 10.2498 5.25 10.5 5.25V3.75ZM10.5 8.75C9.7836 8.75 9.16606 8.31936 8.89533 7.69972L7.5208 8.30028C8.02163 9.44655 9.16617 10.25 10.5 10.25V8.75Z" fill="#9AA1B4"/>
</svg>
