<?xml version="1.0" encoding="UTF-8" standalone="no"?>
<svg
   id="Layer_1"
   data-name="Layer 1"
   viewBox="0 0 24 24"
   version="1.1"
   sodipodi:docname="star.svg"
   inkscape:version="1.1.1 (1:1.1+202109281949+c3084ef5ed)"
   xmlns:inkscape="http://www.inkscape.org/namespaces/inkscape"
   xmlns:sodipodi="http://sodipodi.sourceforge.net/DTD/sodipodi-0.dtd"
   xmlns="http://www.w3.org/2000/svg"
   xmlns:svg="http://www.w3.org/2000/svg">
  <sodipodi:namedview
     id="namedview11"
     pagecolor="#ffffff"
     bordercolor="#666666"
     borderopacity="1.0"
     inkscape:pageshadow="2"
     inkscape:pageopacity="0.0"
     inkscape:pagecheckerboard="0"
     showgrid="false"
     inkscape:zoom="35.375"
     inkscape:cx="12"
     inkscape:cy="12.014134"
     inkscape:window-width="1920"
     inkscape:window-height="1015"
     inkscape:window-x="1920"
     inkscape:window-y="0"
     inkscape:window-maximized="1"
     inkscape:current-layer="Layer_1" />
  <defs
     id="defs4">
    <style
       id="style2">.cls-1{fill:none;stroke:#9aa1b4;stroke-linecap:round;stroke-linejoin:round;stroke-width:1.5px;}</style>
  </defs>
  <title
     id="title6">star</title>
  <path
     style="color:#000000;fill:#9aa1b4;stroke-linecap:round;stroke-linejoin:round;-inkscape-stroke:none"
     d="m 12,1.3046875 c -0.681731,0 -1.363285,0.3482608 -1.681641,1.0429688 L 8.0917969,7.0273437 a 0.750075,0.750075 0 0 0 -0.00586,0.013672 c -0.052523,0.1161382 -0.1576756,0.1956209 -0.2832031,0.2167969 -9.638e-4,1.626e-4 -9.869e-4,0.0018 -0.00195,0.00195 L 2.8554688,8.0195313 a 0.750075,0.750075 0 0 0 -0.025391,0.00391 C 1.3508963,8.3041974 0.75151078,10.205366 1.8027344,11.283203 a 0.750075,0.750075 0 0 0 0.00195,0.002 l 3.5742187,3.644532 c 0.1058114,0.110361 0.1539009,0.261053 0.1308594,0.412109 -9.92e-5,6.5e-4 1.019e-4,0.0013 0,0.002 l -0.8457031,5.119141 c -1.379e-4,6.89e-4 1.371e-4,0.0013 0,0.002 -0.2996054,1.507268 1.3569437,2.76074 2.7265625,2.0625 a 0.750075,0.750075 0 0 0 0.017578,-0.0078 l 4.4707029,-2.429687 c 0.108014,-0.0587 0.235736,-0.0587 0.34375,0 l 4.416016,2.427734 a 0.750075,0.750075 0 0 0 0.02734,0.01367 c 1.373635,0.685382 3.017317,-0.578185 2.708984,-2.082031 l -0.84375,-5.115235 c -0.02376,-0.151701 0.02459,-0.303225 0.130859,-0.414062 l 3.574219,-3.644531 a 0.750075,0.750075 0 0 0 0,-0.002 C 23.287552,10.1956 22.688166,8.2944317 21.208984,8.0136719 a 0.750075,0.750075 0 0 0 -0.02734,-0.00586 L 16.1875,7.2597656 C 16.061416,7.238918 15.956995,7.1575409 15.904297,7.0410156 a 0.750075,0.750075 0 0 0 -0.0059,-0.011719 L 13.681641,2.3476563 C 13.363285,1.6529483 12.681731,1.3046875 12,1.3046875 Z m -0.318359,1.6679688 c 0.147511,-0.3218955 0.489207,-0.3218955 0.636718,0 a 0.750075,0.750075 0 0 0 0.0039,0.00781 l 2.214843,4.6777343 c 0.259656,0.5741451 0.791943,0.9818777 1.414063,1.0820313 a 0.750075,0.750075 0 0 0 0.0078,0.00195 l 4.972657,0.7460938 c 0.382845,0.074789 0.503651,0.4581828 0.230468,0.7382817 L 17.583984,13.875 a 0.750075,0.750075 0 0 0 -0.0059,0.0059 c -0.429363,0.447828 -0.625277,1.072612 -0.529297,1.685547 a 0.750075,0.750075 0 0 0 0.002,0.0059 l 0.84961,5.15039 a 0.750075,0.750075 0 0 0 0.0059,0.02734 c 0.07677,0.374436 -0.228467,0.608326 -0.570313,0.439453 l -4.394531,-2.416016 a 0.750075,0.750075 0 0 0 -0.0039,-0.002 c -0.553003,-0.300515 -1.222388,-0.300515 -1.775391,0 L 6.7089844,21.191406 C 6.3667293,21.36589 6.0594496,21.134523 6.1347656,20.757812 a 0.750075,0.750075 0 0 0 0.00586,-0.02539 l 0.8496094,-5.150391 a 0.750075,0.750075 0 0 0 0,-0.0059 c 0.09598,-0.612936 -0.099934,-1.237719 -0.5292969,-1.685547 a 0.750075,0.750075 0 0 0 -0.00586,-0.0059 L 2.8769531,10.236328 C 2.6042172,9.9566873 2.7241072,9.5737217 3.1054688,9.4980469 L 8.0332031,8.7421875 a 0.750075,0.750075 0 0 0 0.00586,-0.00195 C 8.6611821,8.6400808 9.1934694,8.2323482 9.453125,7.6582031 l 2.224609,-4.6757812 a 0.750075,0.750075 0 0 0 0.0039,-0.00977 z"
     id="path8" />
</svg>
