<?xml version="1.0" encoding="UTF-8" standalone="no"?>
<svg
   id="Layer_1"
   data-name="Layer 1"
   viewBox="0 0 24 24"
   version="1.1"
   sodipodi:docname="trash.svg"
   inkscape:version="1.1.1 (1:1.1+202109281949+c3084ef5ed)"
   xmlns:inkscape="http://www.inkscape.org/namespaces/inkscape"
   xmlns:sodipodi="http://sodipodi.sourceforge.net/DTD/sodipodi-0.dtd"
   xmlns="http://www.w3.org/2000/svg"
   xmlns:svg="http://www.w3.org/2000/svg">
  <sodipodi:namedview
     id="namedview17"
     pagecolor="#ffffff"
     bordercolor="#666666"
     borderopacity="1.0"
     inkscape:pageshadow="2"
     inkscape:pageopacity="0.0"
     inkscape:pagecheckerboard="0"
     showgrid="false"
     inkscape:zoom="8.84375"
     inkscape:cx="-20.636042"
     inkscape:cy="0.56537102"
     inkscape:window-width="1920"
     inkscape:window-height="1015"
     inkscape:window-x="1920"
     inkscape:window-y="0"
     inkscape:window-maximized="1"
     inkscape:current-layer="Layer_1" />
  <defs
     id="defs4">
    <style
       id="style2">.cls-1,.cls-2{fill:none;stroke:#9aa1b4;stroke-linecap:round;stroke-width:1.5px;}.cls-1{stroke-linejoin:round;}</style>
  </defs>
  <title
     id="title6">trash</title>
  <g
     id="g838">
    <path
       style="color:#000000;fill:#9aa1b4;stroke-linecap:round;stroke-linejoin:round;-inkscape-stroke:none"
       d="M 4.5,6.25 A 0.75,0.75 0 0 0 3.75,7 V 18.669922 C 3.75,20.914358 5.5856421,22.75 7.8300781,22.75 H 16.169922 C 18.414358,22.75 20.25,20.914358 20.25,18.669922 V 7 A 0.75,0.75 0 0 0 19.5,6.25 0.75,0.75 0 0 0 18.75,7 V 18.669922 C 18.75,20.103699 17.603699,21.25 16.169922,21.25 H 7.8300781 C 6.3963014,21.25 5.25,20.103699 5.25,18.669922 V 7 A 0.75,0.75 0 0 0 4.5,6.25 Z"
       id="path8" />
    <path
       style="color:#000000;fill:#9aa1b4;stroke-linecap:round;-inkscape-stroke:none"
       d="m 2,5.4199219 a 0.75,0.75 0 0 0 -0.75,0.75 0.75,0.75 0 0 0 0.75,0.75 h 20 a 0.75,0.75 0 0 0 0.75,-0.75 0.75,0.75 0 0 0 -0.75,-0.75 z"
       id="path10" />
    <path
       style="color:#000000;fill:#9aa1b4;stroke-linecap:round;-inkscape-stroke:none"
       d="M 7,1.25 A 0.75,0.75 0 0 0 6.25,2 0.75,0.75 0 0 0 7,2.75 H 17 A 0.75,0.75 0 0 0 17.75,2 0.75,0.75 0 0 0 17,1.25 Z"
       id="path12" />
    <path
       style="color:#000000;fill:#9aa1b4;stroke-linecap:round;-inkscape-stroke:none"
       d="m 9.5,10.419922 a 0.75,0.75 0 0 0 -0.75,0.75 V 17 A 0.75,0.75 0 0 0 9.5,17.75 0.75,0.75 0 0 0 10.25,17 v -5.830078 a 0.75,0.75 0 0 0 -0.75,-0.75 z m 5,0 a 0.75,0.75 0 0 0 -0.75,0.75 V 17 A 0.75,0.75 0 0 0 14.5,17.75 0.75,0.75 0 0 0 15.25,17 v -5.830078 a 0.75,0.75 0 0 0 -0.75,-0.75 z"
       id="path14" />
  </g>
</svg>
